<svg width="221" height="220" viewBox="0 0 221 220" fill="none" xmlns="http://www.w3.org/2000/svg">
<g clip-path="url(#clip0_2203_2370)">
<path d="M17.9591 88.6445C10.0962 88.6445 3.72266 82.2706 3.72266 74.4077V17.4595C3.72266 9.59664 10.0962 3.22266 17.9591 3.22266H153.204C161.066 3.22266 167.44 9.59664 167.44 17.4595V74.4073C167.44 82.2701 161.066 88.6441 153.204 88.6441H17.9591V88.6445Z" fill="#E0F4FF"/>
<path d="M25.0772 74.4077C21.146 74.4077 17.959 71.2207 17.959 67.289V24.5781C17.959 20.6465 21.146 17.4595 25.0772 17.4595H138.781C142.712 17.4595 145.899 20.6465 145.899 24.5781V67.289C145.899 71.2202 142.712 74.4077 138.781 74.4077H25.0772Z" fill="#7FE881"/>
<path d="M80.8053 61.4943L65.4981 48.5186C63.9572 47.214 63.8086 44.8903 65.1711 43.4006L70.0777 38.0338C71.3247 36.6699 73.4082 36.4873 74.8734 37.6135L80.9286 42.4063C81.6028 42.9245 82.5489 42.8935 83.1879 42.3324L96.2719 30.8378C97.7397 29.5479 99.9728 29.6828 101.275 31.1394L106.027 36.4551C107.341 37.9259 107.209 40.1861 105.731 41.4932L83.1346 61.4694C82.472 62.0546 81.4803 62.0653 80.8053 61.4943Z" fill="#F1F7FB"/>
<path d="M146.086 17.4595H136.203C140.134 17.4595 143.321 20.6465 143.321 24.5781V67.289C143.321 71.2202 140.134 74.4077 136.203 74.4077H146.086C150.017 74.4077 153.204 71.2207 153.204 67.289V24.5781C153.204 20.6469 150.017 17.4595 146.086 17.4595Z" fill="#5BC980"/>
<path d="M203.456 120.684C198.452 120.541 194.01 122.983 191.363 126.771C191.101 127.145 190.672 127.365 190.215 127.365C189.435 127.365 188.803 126.733 188.803 125.953V120.955C188.803 113.448 182.681 106.769 175.181 106.454C170.116 106.241 165.606 108.675 162.921 112.487C162.698 112.804 162.379 113.054 162.002 113.137C161.136 113.328 160.311 112.747 160.2 111.91C159.285 105.032 153.59 99.5229 146.493 99.3283C140.593 99.1663 135.477 102.595 133.167 107.588C133.053 107.833 132.812 107.994 132.543 107.994C132.163 107.994 131.856 107.687 131.856 107.308V67.5714C131.856 59.5882 125.323 52.9031 117.342 53.0557C109.607 53.2035 103.382 59.5199 103.382 67.2899V124.238H96.2637C88.4008 124.238 82.0269 130.612 82.0269 138.475V166.949C82.0269 194.469 104.336 216.778 131.856 216.778H167.448C194.968 216.778 217.277 194.469 217.277 166.949V135.204C217.277 127.592 211.064 120.9 203.456 120.684Z" fill="#FFBFAB"/>
<path d="M203.441 120.683C201.548 120.631 199.738 120.953 198.074 121.573C203.548 123.637 207.395 129.043 207.395 135.211V166.948C207.395 194.468 185.085 216.778 157.565 216.778H167.448C194.968 216.778 217.277 194.468 217.277 166.948V135.211C217.277 127.453 211.195 120.896 203.441 120.683Z" fill="#F89580"/>
<path d="M203.529 117.462C199.294 117.345 195.264 118.723 192.027 121.365V120.974C192.027 111.444 184.414 103.482 175.057 103.225C170.377 103.091 165.948 104.791 162.562 108.002C160.209 101.265 153.935 96.3084 146.584 96.1065C142.349 95.9862 138.32 97.3706 135.082 100.015V91.8672H153.211C162.838 91.8672 170.67 84.0348 170.67 74.4077V17.4595C170.67 7.83234 162.838 0 153.211 0H17.9591C8.33191 0 0.5 7.83234 0.5 17.4595V74.4073C0.5 84.0348 8.33191 91.8672 17.9591 91.8672H29.928C31.7078 91.8672 33.1507 90.4243 33.1507 88.6445C33.1507 86.8648 31.7078 85.4219 29.928 85.4219H17.9591C11.8859 85.4219 6.94531 80.4809 6.94531 74.4077V17.4595C6.94531 11.3863 11.8859 6.44531 17.9591 6.44531H153.211C159.284 6.44531 164.225 11.3863 164.225 17.4595V74.4073C164.225 80.4805 159.284 85.4214 153.211 85.4214H135.081V77.6299H146.093C151.795 77.6299 156.434 72.991 156.434 67.2891V24.5781C156.434 18.8757 151.795 14.2368 146.093 14.2368H25.0773C19.3753 14.2368 14.7364 18.8757 14.7364 24.5781V67.2891C14.7364 72.991 19.3753 77.6299 25.0773 77.6299H100.163V85.4219H44.8287C43.0489 85.4219 41.6061 86.8648 41.6061 88.6445C41.6061 90.4243 43.0489 91.8672 44.8287 91.8672H100.163V101.65C100.163 103.43 101.606 104.873 103.386 104.873C105.165 104.873 106.608 103.43 106.608 101.65V67.2891C106.608 61.2159 111.549 56.2749 117.622 56.2749C123.695 56.2749 128.636 61.2159 128.636 67.2891V130.878C128.636 132.657 130.079 134.1 131.858 134.1C133.638 134.1 135.081 132.657 135.081 130.878V113.559C135.081 110.56 136.265 107.756 138.416 105.664C140.565 103.573 143.394 102.473 146.407 102.549C152.308 102.711 157.109 107.783 157.109 113.855V127.796C157.109 129.576 158.552 131.019 160.331 131.019C162.111 131.019 163.554 129.576 163.554 127.796V120.678C163.554 117.679 164.738 114.874 166.888 112.782C169.037 110.691 171.871 109.592 174.88 109.667C180.781 109.829 185.581 114.901 185.581 120.974V134.915C185.581 136.694 187.024 138.137 188.804 138.137C190.584 138.137 192.027 136.694 192.027 134.915C192.027 131.915 193.211 129.111 195.361 127.019C197.51 124.929 200.351 123.826 203.352 123.904C209.254 124.067 214.055 129.139 214.055 135.211V166.948C214.055 192.647 193.148 213.555 167.45 213.555H131.859C106.161 213.555 85.2541 192.647 85.2541 166.948V138.474C85.2541 132.4 90.1951 127.459 96.2679 127.459H100.163V152.711C100.163 154.491 101.606 155.934 103.386 155.934C105.166 155.934 106.609 154.491 106.609 152.711V116.689C106.609 114.909 105.166 113.466 103.386 113.466C101.606 113.466 100.163 114.909 100.163 116.689V121.014H96.2679C86.6412 121.014 78.8088 128.847 78.8088 138.474V166.948C78.8088 196.201 102.607 220 131.859 220H167.45C196.702 220 220.5 196.201 220.5 166.948V135.211C220.5 125.681 212.887 117.718 203.529 117.462ZM117.622 49.8296C107.995 49.8296 100.163 57.6619 100.163 67.2891V71.1846H25.0773C22.9293 71.1846 21.1817 69.4371 21.1817 67.2891V24.5781C21.1817 22.4297 22.9293 20.6821 25.0773 20.6821H146.093C148.241 20.6821 149.988 22.4297 149.988 24.5781V67.2891C149.988 69.4371 148.241 71.1846 146.093 71.1846H135.081V67.2891C135.081 57.6619 127.249 49.8296 117.622 49.8296Z" fill="black"/>
<path d="M103.677 28.991C101.206 26.2272 96.9301 25.9686 94.1445 28.4161L81.965 39.1161L76.8736 35.0861C76.8616 35.0766 76.8496 35.0672 76.8371 35.0577C74.0231 32.8947 70.094 33.2393 67.6994 35.8591L62.7928 41.2259C61.5372 42.5992 60.9112 44.3781 61.0302 46.2348C61.1488 48.0914 61.9966 49.7763 63.415 50.9768L78.7221 63.9525C78.7226 63.9529 78.7234 63.9534 78.7239 63.9538C79.6511 64.7384 80.8031 65.1294 81.9551 65.1294C83.1432 65.1294 84.3313 64.7131 85.2697 63.8833L107.867 43.9063C109.228 42.7015 110.037 41.0386 110.144 39.2236C110.25 37.4081 109.642 35.6623 108.43 34.3066L103.677 28.991ZM103.596 39.0779L81.9358 58.2274L67.5803 46.0586C67.5077 45.9972 67.4678 45.9181 67.4618 45.8236C67.4557 45.7286 67.4854 45.6448 67.5494 45.5748L72.456 40.208C72.5226 40.1354 72.6128 40.0975 72.7044 40.0975C72.7727 40.0975 72.8414 40.1186 72.9012 40.1616L78.9284 44.9328C78.9404 44.9423 78.9529 44.9517 78.9649 44.9612C80.8538 46.4127 83.5239 46.3254 85.3148 44.7528L98.3988 33.2582C98.5372 33.1362 98.7494 33.1495 98.8723 33.2866L103.624 38.6022C103.686 38.6714 103.714 38.7535 103.709 38.8459C103.703 38.9391 103.665 39.0169 103.596 39.0779Z" fill="black"/>
</g>
<defs>
<clipPath id="clip0_2203_2370">
<rect width="220" height="220" fill="white" transform="translate(0.5)"/>
</clipPath>
</defs>
</svg>
