<svg width="236" height="69" viewBox="0 0 236 69" fill="none" xmlns="http://www.w3.org/2000/svg">
<g clip-path="url(#clip0_58_1335)">
<path fill-rule="evenodd" clip-rule="evenodd" d="M183.702 7.72369L197.782 3.47924C199.598 2.93487 201.09 4.0946 201.09 6.07482V17.1988C201.09 19.1711 199.606 21.2381 197.782 21.7825L183.702 26.0269C181.886 26.5713 180.395 25.4115 180.395 23.4313V12.3074C180.395 10.3351 181.878 8.26805 183.702 7.72369Z" fill="#FCC214"/>
<path d="M182.83 27.3444C182.053 27.3444 181.315 27.1156 180.712 26.6659C179.752 25.9559 179.205 24.7804 179.205 23.4313V12.3074C179.205 9.79857 181.029 7.28976 183.362 6.58761L197.441 2.34316C198.647 1.98025 199.861 2.1617 200.781 2.84019C201.741 3.54234 202.288 4.72573 202.288 6.07481V17.1987C202.288 19.7076 200.463 22.2164 198.139 22.9185L184.06 27.163C183.647 27.2892 183.243 27.3444 182.838 27.3444M198.663 4.5285C198.472 4.5285 198.282 4.56795 198.131 4.61528L184.052 8.85974C182.743 9.2542 181.593 10.8636 181.593 12.3074V23.4313C181.593 24.0309 181.783 24.5043 182.132 24.7567C182.529 25.0486 183.013 24.9855 183.354 24.8829L197.433 20.6385C198.742 20.244 199.892 18.6346 199.892 17.1909V6.06692C199.892 5.46733 199.702 4.99397 199.353 4.74151C199.139 4.58373 198.893 4.5285 198.663 4.5285Z" fill="#154576"/>
<path fill-rule="evenodd" clip-rule="evenodd" d="M178.729 45.7896L192.809 41.5451C194.625 41.0007 196.117 38.9337 196.117 36.9614V25.8375C196.117 23.8651 194.633 22.6975 192.809 23.2419L178.729 27.4863C176.913 28.0307 175.421 30.0977 175.421 32.07V43.194C175.421 45.1663 176.913 46.3339 178.729 45.7896Z" fill="#FCC214"/>
<path d="M177.856 47.1071C177.079 47.1071 176.341 46.8783 175.739 46.4286C174.779 45.7186 174.231 44.5431 174.231 43.194V32.0701C174.231 29.5613 176.056 27.0525 178.38 26.3503L192.46 22.1059C193.665 21.7429 194.879 21.9244 195.799 22.6029C196.759 23.305 197.306 24.4884 197.306 25.8375V36.9614C197.306 39.4702 195.482 41.9791 193.158 42.6812L179.078 46.9257C178.666 47.0519 178.261 47.1071 177.856 47.1071ZM193.689 24.2912C193.499 24.2912 193.308 24.3306 193.158 24.378L179.078 28.6224C177.769 29.0169 176.619 30.6263 176.619 32.0701V43.194C176.619 43.7936 176.809 44.267 177.158 44.5194C177.555 44.8113 178.039 44.7482 178.38 44.6456L192.46 40.4012C193.769 40.0067 194.919 38.3973 194.919 36.9536V25.8296C194.919 25.23 194.728 24.7567 194.379 24.5042C194.165 24.3464 193.919 24.2912 193.689 24.2912Z" fill="#154576"/>
<path fill-rule="evenodd" clip-rule="evenodd" d="M183.702 44.3302L197.782 40.0857C199.598 39.5335 201.09 40.7011 201.09 42.6813V53.8053C201.09 55.7776 199.606 57.8446 197.782 58.389L183.702 62.6334C181.886 63.1778 180.395 62.0181 180.395 60.0378V48.9139C180.395 46.9416 181.886 44.8746 183.702 44.3302Z" fill="#FCC214"/>
<path d="M182.83 63.9509C182.053 63.9509 181.315 63.7221 180.712 63.2724C179.752 62.5702 179.205 61.3868 179.205 60.0378V48.9138C179.205 46.405 181.029 43.8962 183.354 43.1941L197.433 38.9496C198.639 38.5867 199.853 38.7682 200.773 39.4466C201.733 40.1488 202.28 41.3322 202.28 42.6813V53.8052C202.28 56.314 200.456 58.8228 198.131 59.525L184.052 63.7694C183.639 63.8956 183.235 63.9509 182.83 63.9509ZM184.052 45.4662C182.743 45.8607 181.593 47.4701 181.593 48.9138V60.0378C181.593 60.6373 181.783 61.1107 182.132 61.3632C182.529 61.6551 183.013 61.592 183.354 61.4894L197.433 57.2449C198.742 56.8505 199.892 55.2411 199.892 53.7973V42.6734C199.892 42.0738 199.702 41.6004 199.353 41.348C198.956 41.0561 198.472 41.1192 198.131 41.2217L184.052 45.4662Z" fill="#154576"/>
<path fill-rule="evenodd" clip-rule="evenodd" d="M191.365 60.6611L196.299 59.17C196.934 58.9807 197.457 59.3831 197.457 60.0773V63.9746C197.457 64.6689 196.934 65.3868 196.299 65.5841L191.365 67.0751C190.731 67.2645 190.207 66.8621 190.207 66.1679V62.2705C190.207 61.5763 190.731 60.8584 191.365 60.6611Z" fill="#FDF8F4"/>
<path d="M191.064 68.3136C190.627 68.3136 190.207 68.1795 189.858 67.9271C189.319 67.5326 189.017 66.8936 189.017 66.1756V62.2783C189.017 61.0555 189.882 59.8799 191.024 59.5328L195.958 58.0417C196.616 57.8445 197.298 57.9471 197.814 58.3336C198.345 58.7281 198.655 59.3671 198.655 60.0851V63.9824C198.655 65.2052 197.79 66.3807 196.648 66.7279L191.714 68.219C191.492 68.2821 191.278 68.3136 191.056 68.3136M196.267 60.4243L191.714 61.7971C191.603 61.8286 191.405 62.0732 191.405 62.2625V65.8206L195.958 64.4479C196.069 64.4163 196.267 64.1717 196.267 63.9745V60.4164V60.4243Z" fill="#154576"/>
<path fill-rule="evenodd" clip-rule="evenodd" d="M163.666 40.1172C167.521 35.5729 175.017 40.1645 176.278 45.2926C178.713 55.1936 181.379 59.9825 189.961 61.4578L189.771 67.3432C168.782 71.4772 157.86 46.9651 163.658 40.1172" fill="#EF482B"/>
<path d="M185.075 69.0001C181.283 69.0001 177.682 68.0849 174.319 66.2625C169.25 63.517 166.109 59.4382 164.364 56.4955C160.445 49.8922 159.779 42.8391 162.746 39.3441C164.403 37.3876 166.775 36.6539 169.432 37.2771C173.121 38.1371 176.564 41.4585 177.436 45.0008C180.315 56.7006 183.687 59.17 190.167 60.2824L191.191 60.456L190.937 68.3216L190.009 68.5031C188.335 68.8344 186.693 69.0001 185.083 69.0001M164.578 40.8826C162.333 43.5334 163.126 49.7265 166.434 55.2963C168.139 58.1681 174.097 66.6254 185.059 66.6254C186.193 66.6254 187.375 66.5386 188.621 66.3414L188.747 62.4283C180.331 60.6216 177.515 55.2569 175.128 45.5688C174.461 42.8786 171.733 40.2514 168.901 39.5887C167.671 39.3047 165.926 39.2968 164.586 40.8747L164.578 40.8826Z" fill="#154576"/>
<path fill-rule="evenodd" clip-rule="evenodd" d="M170.361 17.459C174.406 17.459 177.69 21.735 177.69 27.013C177.69 32.2909 174.406 36.5669 170.361 36.5669C166.315 36.5669 163.031 32.2909 163.031 27.013C163.031 21.735 166.315 17.459 170.361 17.459Z" fill="#FDF8F4"/>
<path d="M170.36 37.4269C165.847 37.4269 162.174 32.7565 162.174 27.013C162.174 21.2696 165.847 16.5991 170.36 16.5991C174.874 16.5991 178.546 21.2696 178.546 27.013C178.546 32.7565 174.874 37.4269 170.36 37.4269ZM170.36 18.3111C166.791 18.3111 163.896 22.2163 163.896 27.013C163.896 31.8097 166.799 35.7149 170.36 35.7149C173.922 35.7149 176.825 31.8097 176.825 27.013C176.825 22.2163 173.922 18.3111 170.36 18.3111Z" fill="#154576"/>
<path fill-rule="evenodd" clip-rule="evenodd" d="M170.384 17.4119C174.43 17.4119 177.713 21.6879 177.713 26.9658C177.42 31.1235 171.55 30.4687 163.055 26.9658C163.055 21.6879 166.339 17.4119 170.384 17.4119Z" fill="#EF482B"/>
<path d="M173.763 30.7133C171.154 30.7133 167.505 29.735 162.73 27.7626L162.198 27.5417V26.9737C162.198 21.2303 165.871 16.5598 170.384 16.5598C174.898 16.5598 178.57 21.2303 178.57 26.9737V27.0368C178.475 28.3465 177.896 29.3721 176.889 29.9874C176.103 30.4687 175.056 30.7133 173.763 30.7133ZM163.927 26.3978C172.058 29.6798 174.961 29.1433 175.977 28.52C176.508 28.1966 176.786 27.6916 176.841 26.9343C176.825 22.1533 173.93 18.2639 170.376 18.2639C166.823 18.2639 164.142 21.8614 163.927 26.3978Z" fill="#154576"/>
<path fill-rule="evenodd" clip-rule="evenodd" d="M163.047 26.295C168.6 29.1667 177.373 28.8512 177.396 24.3779C177.484 24.4016 182.965 31.9201 178.412 33.4664C172.114 35.6044 167.219 29.7742 163.039 26.295" fill="#EF482B"/>
<path d="M175.715 34.7919C171.273 34.7919 167.568 31.4705 164.49 28.7014C163.792 28.0781 163.142 27.4943 162.5 26.9578L163.451 25.5377C167.235 27.4943 172.764 27.8809 175.286 26.3661C176.127 25.8612 176.54 25.2064 176.548 24.3701V23.2656L177.626 23.5418C177.777 23.5812 178.229 23.6995 179.562 26.1294C180.529 27.8967 181.045 29.443 181.093 30.721C181.156 32.4725 180.307 33.7269 178.705 34.2712C177.674 34.6184 176.682 34.7761 175.723 34.7761M166.934 28.5751C170.21 31.439 173.874 34.1056 178.142 32.6539C178.769 32.4409 179.133 32.0938 179.284 31.5652C179.673 30.1767 178.602 27.8809 177.714 26.3661C177.365 26.9342 176.841 27.4312 176.175 27.8335C174.025 29.1195 170.416 29.3404 166.942 28.5751H166.934Z" fill="#154576"/>
<path fill-rule="evenodd" clip-rule="evenodd" d="M201.28 6.35093C201.423 3.45555 202.946 2.29581 203.945 2.10647C244.035 -5.56984 245.915 37.427 204.675 55.8012C203.66 56.2509 201.597 55.5724 201.296 53.5212L201.026 40.9772C201.114 39.4151 202.248 38.634 202.922 38.2711C215.304 31.5336 215.281 17.7589 201.685 20.7647L201.28 6.35093Z" fill="#FCC214"/>
<path d="M203.977 57.1266C203.367 57.1266 202.724 56.9609 202.137 56.6454C201.019 56.0379 200.305 54.9886 200.114 53.7026L200.098 53.5527L199.821 40.9614V40.9141C199.884 39.8253 200.368 38.3027 202.343 37.2297C209.125 33.5375 211.846 27.7941 210.553 24.378C209.585 21.8219 206.444 20.9304 201.939 21.9245L200.527 22.24L200.083 6.34305V6.29572C200.241 3.04532 202.026 1.27022 203.716 0.946758C212.029 -0.646884 219.088 -0.212972 224.68 2.24061C229.852 4.50484 233.446 8.40217 235.072 13.5144C239.125 26.2794 230.019 45.8212 205.167 56.8978C204.81 57.0556 204.406 57.1345 203.985 57.1345M202.486 53.4107C202.605 54.0577 202.986 54.389 203.287 54.5547C203.692 54.7756 204.072 54.7677 204.191 54.7125C217.938 48.5904 225.117 40.5669 228.718 34.9182C233.239 27.8257 234.723 20.2835 232.803 14.2166C231.399 9.7828 228.258 6.39039 223.729 4.40228C218.66 2.17749 211.894 1.78303 204.176 3.26622C203.644 3.36878 202.605 4.14982 202.478 6.35883L202.843 19.3368C207.832 18.6031 211.505 20.1257 212.798 23.5339C214.424 27.8415 211.719 34.8314 203.501 39.3046C202.684 39.7464 202.28 40.2829 202.224 40.993L202.494 53.4107H202.486Z" fill="#154576"/>
<path d="M89.325 51.5014C79.7031 51.5014 71.874 43.7147 71.874 34.1449V9.30933H80.5995V34.1449C80.5995 38.9337 84.518 42.8232 89.325 42.8232C94.1319 42.8232 98.0504 38.9258 98.0504 34.1449V22.8001H106.776V34.1449C106.776 43.7147 98.9468 51.5014 89.325 51.5014Z" fill="#154576"/>
<path d="M23.1304 60.3216H16.737C7.5039 60.3216 0 52.8504 0 43.6751V30.2238H8.72546V43.6751C8.72546 48.0695 12.3188 51.6433 16.737 51.6433H23.1304C27.5487 51.6433 31.142 48.0695 31.142 43.6751V34.0501C31.142 26.9971 36.9166 21.2537 44.0081 21.2537C51.0995 21.2537 56.8742 26.9971 56.8742 34.0501V35.3677C56.8742 39.478 60.2374 42.831 64.3781 42.831C68.5187 42.831 71.882 39.4859 71.882 35.3677V32.7642H80.6074V35.3677C80.6074 44.2668 73.3256 51.5092 64.3781 51.5092C55.4305 51.5092 48.1487 44.2668 48.1487 35.3677V34.0501C48.1487 31.778 46.2926 29.9319 44.0081 29.9319C41.7236 29.9319 39.8674 31.778 39.8674 34.0501V43.6751C39.8674 52.8583 32.3556 60.3216 23.1304 60.3216Z" fill="#154576"/>
<path d="M14.302 67.28C12.9297 67.28 11.7319 66.783 10.7483 65.8126C9.76475 64.8343 9.27295 63.6509 9.27295 62.2782C9.27295 60.9055 9.77268 59.7221 10.7483 58.7438C11.724 57.7655 12.9218 57.2764 14.302 57.2764C15.6822 57.2764 16.872 57.7734 17.8556 58.7438C18.8392 59.7221 19.331 60.9055 19.331 62.2782C19.331 63.6509 18.8313 64.8343 17.8556 65.8126C16.872 66.7909 15.6822 67.28 14.302 67.28Z" fill="#154576"/>
<path d="M14.3018 57.9076C15.4996 57.9076 16.5466 58.3415 17.4033 59.1936C18.26 60.0456 18.6963 61.0791 18.6963 62.2783C18.6963 63.4775 18.26 64.511 17.4033 65.363C16.5466 66.2151 15.4996 66.649 14.3018 66.649C13.104 66.649 12.057 66.2151 11.2003 65.363C10.3436 64.511 9.90734 63.4775 9.90734 62.2783C9.90734 61.0791 10.3436 60.0456 11.2003 59.1936C12.057 58.3415 13.0961 57.9076 14.3018 57.9076ZM14.3018 56.6453C12.7709 56.6453 11.3907 57.2213 10.304 58.3021C9.21724 59.3829 8.63818 60.7636 8.63818 62.2783C8.63818 63.7931 9.21724 65.1737 10.304 66.2545C11.3907 67.3354 12.7788 67.9113 14.3018 67.9113C15.8248 67.9113 17.2129 67.3433 18.2997 66.2545C19.3864 65.1658 19.9654 63.7931 19.9654 62.2704C19.9654 60.7478 19.3864 59.375 18.2997 58.2942C17.2129 57.2134 15.8248 56.6375 14.2939 56.6375L14.3018 56.6453Z" fill="white"/>
<path d="M24.3601 67.28C22.9878 67.28 21.79 66.783 20.8065 65.8126C19.8229 64.8343 19.3311 63.6509 19.3311 62.2782C19.3311 60.9055 19.8308 59.7221 20.8065 58.7438C21.7821 57.7655 22.9799 57.2764 24.3601 57.2764C25.7403 57.2764 26.9301 57.7734 27.9137 58.7438C28.8973 59.7221 29.3891 60.9055 29.3891 62.2782C29.3891 63.6509 28.8894 64.8343 27.9137 65.8126C26.9301 66.7909 25.7403 67.28 24.3601 67.28Z" fill="#154576"/>
<path d="M24.3599 57.9076C25.5577 57.9076 26.6047 58.3415 27.4614 59.1936C28.3181 60.0456 28.7544 61.0791 28.7544 62.2783C28.7544 63.4775 28.3181 64.511 27.4614 65.363C26.6047 66.2151 25.5577 66.649 24.3599 66.649C23.1621 66.649 22.1151 66.2151 21.2584 65.363C20.4017 64.511 19.9654 63.4775 19.9654 62.2783C19.9654 61.0791 20.4017 60.0456 21.2584 59.1936C22.1151 58.3415 23.1542 57.9076 24.3599 57.9076ZM24.3599 56.6453C22.829 56.6453 21.4488 57.2213 20.3621 58.3021C19.2753 59.3829 18.6963 60.7636 18.6963 62.2783C18.6963 63.7931 19.2753 65.1737 20.3621 66.2545C21.4488 67.3354 22.8369 67.9113 24.3599 67.9113C25.8829 67.9113 27.271 67.3433 28.3578 66.2545C29.4445 65.1658 30.0235 63.7931 30.0235 62.2704C30.0235 60.7478 29.4445 59.375 28.3578 58.2942C27.271 57.2134 25.8829 56.6375 24.352 56.6375L24.3599 56.6453Z" fill="white"/>
<path d="M85.8826 59.1541C84.5103 59.1541 83.3125 58.657 82.3289 57.6866C81.3453 56.7084 80.8535 55.525 80.8535 54.1522C80.8535 52.7795 81.3532 51.5961 82.3289 50.6178C83.3046 49.6395 84.5023 49.1504 85.8826 49.1504C87.2628 49.1504 88.4526 49.6474 89.4362 50.6178C90.4198 51.5961 90.9116 52.7795 90.9116 54.1522C90.9116 55.525 90.4119 56.7084 89.4362 57.6866C88.4526 58.6649 87.2628 59.1541 85.8826 59.1541Z" fill="#154576"/>
<path d="M85.8824 49.7895C87.0801 49.7895 88.1272 50.2235 88.9839 51.0755C89.8406 51.9275 90.2768 52.9611 90.2768 54.1602C90.2768 55.3594 89.8406 56.3929 88.9839 57.2449C88.1272 58.097 87.0801 58.5309 85.8824 58.5309C84.6846 58.5309 83.6375 58.097 82.7809 57.2449C81.9242 56.3929 81.4879 55.3594 81.4879 54.1602C81.4879 52.9611 81.9242 51.9275 82.7809 51.0755C83.6375 50.2235 84.6767 49.7895 85.8824 49.7895ZM85.8824 48.5194C84.3514 48.5194 82.9712 49.0953 81.8845 50.1761C80.7978 51.257 80.2188 52.6376 80.2188 54.1523C80.2188 55.6671 80.7978 57.0477 81.8845 58.1286C82.9712 59.2094 84.3594 59.7853 85.8824 59.7853C87.4054 59.7853 88.7935 59.2173 89.8802 58.1286C90.9669 57.0398 91.546 55.6671 91.546 54.1444C91.546 52.6218 90.9669 51.2491 89.8802 50.1682C88.7935 49.0874 87.4054 48.5115 85.8744 48.5115L85.8824 48.5194Z" fill="white"/>
<path d="M95.9404 49.7896C94.7426 49.7896 93.6955 50.2235 92.8389 51.0755C91.9822 51.9276 91.5459 52.9611 91.5459 54.1602C91.5459 55.3594 91.9822 56.3929 92.8389 57.245C93.6955 58.097 94.7347 58.5309 95.9404 58.5309C97.1461 58.5309 98.1852 58.097 99.0419 57.245C99.8985 56.3929 100.335 55.3515 100.335 54.1602C100.335 52.9689 99.8985 51.9276 99.0419 51.0755C98.1852 50.2235 97.1381 49.7896 95.9404 49.7896Z" fill="#154576"/>
<path d="M95.9407 59.1541C94.5684 59.1541 93.3706 58.657 92.387 57.6866C91.4034 56.7084 90.9116 55.525 90.9116 54.1522C90.9116 52.7795 91.4114 51.5961 92.387 50.6178C93.3627 49.6395 94.5604 49.1504 95.9407 49.1504C97.3209 49.1504 98.5107 49.6474 99.4943 50.6178C100.478 51.5961 100.97 52.7795 100.97 54.1522C100.97 55.525 100.47 56.7084 99.4943 57.6866C98.5107 58.6649 97.3209 59.1541 95.9407 59.1541Z" fill="#154576"/>
<path d="M95.9405 49.7895C97.1382 49.7895 98.1853 50.2235 99.042 51.0755C99.8987 51.9275 100.335 52.9611 100.335 54.1602C100.335 55.3594 99.8987 56.3929 99.042 57.2449C98.1853 58.097 97.1382 58.5309 95.9405 58.5309C94.7427 58.5309 93.6957 58.097 92.839 57.2449C91.9823 56.3929 91.546 55.3594 91.546 54.1602C91.546 52.9611 91.9823 51.9275 92.839 51.0755C93.6957 50.2235 94.7348 49.7895 95.9405 49.7895ZM95.9405 48.5194C94.4096 48.5194 93.0293 49.0953 91.9426 50.1761C90.8559 51.257 90.2769 52.6376 90.2769 54.1523C90.2769 55.6671 90.8559 57.0477 91.9426 58.1286C93.0293 59.2094 94.4175 59.7853 95.9405 59.7853C97.4635 59.7853 98.8516 59.2173 99.9383 58.1286C101.025 57.0398 101.604 55.6671 101.604 54.1444C101.604 52.6218 101.025 51.2491 99.9383 50.1682C98.8516 49.0874 97.4635 48.5115 95.9325 48.5115L95.9405 48.5194Z" fill="white"/>
<path d="M44.0476 60.8424C43.6113 60.5741 43.1195 60.44 42.5643 60.44C41.9852 60.44 41.4696 60.582 41.0334 60.866C40.5971 61.15 40.256 61.5524 40.018 62.0573C39.7801 62.5701 39.6611 63.1539 39.6611 63.8087V65.7732C39.6611 66.3254 39.5897 66.7199 39.4548 66.9645C39.32 67.209 39.0662 67.3274 38.6933 67.3274C38.4554 67.3274 38.1619 67.28 37.8208 67.1932V68.7474C38.2095 68.8263 38.5506 68.8658 38.852 68.8658C39.6452 68.8658 40.2401 68.6212 40.6288 68.1242C41.0254 67.6272 41.2317 66.8856 41.2475 65.8915C41.7235 66.1361 42.2232 66.2623 42.7547 66.2623C43.2385 66.2623 43.6827 66.1519 44.0873 65.9389C44.4918 65.7258 44.817 65.4103 45.0629 64.9842C45.3088 64.5661 45.4278 64.0691 45.4278 63.4853C45.4278 62.9015 45.3009 62.3965 45.055 61.9311C44.8091 61.4656 44.468 61.1027 44.0317 60.8345M66.6228 67.1932C66.3769 67.1932 66.1627 67.28 65.9882 67.4615C65.8137 67.6351 65.7264 67.8481 65.7264 68.0926C65.7264 68.3372 65.8137 68.5502 65.9882 68.7238C66.1627 68.8973 66.3769 68.9841 66.6228 68.9841C66.8687 68.9841 67.0828 68.8973 67.2573 68.7238C67.4319 68.5502 67.5191 68.3372 67.5191 68.0926C67.5191 67.8481 67.4319 67.6351 67.2573 67.4615C67.0828 67.2879 66.8687 67.1932 66.6228 67.1932ZM68.7327 67.1932C68.4868 67.1932 68.2727 67.28 68.0982 67.4615C67.9237 67.6351 67.8285 67.8481 67.8285 68.0926C67.8285 68.3372 67.9157 68.5502 68.0982 68.7238C68.2727 68.8973 68.4868 68.9841 68.7327 68.9841C68.9786 68.9841 69.1928 68.8973 69.3673 68.7238C69.5418 68.5502 69.637 68.3372 69.637 68.0926C69.637 67.8481 69.5498 67.6351 69.3673 67.4615C69.1928 67.2879 68.9786 67.1932 68.7327 67.1932ZM68.5027 61.1895H66.9004V64.7002H63.4499H63.902H52.3368V60.4952H50.2189C49.386 60.4952 48.7038 60.6293 48.1565 60.9055C47.6092 61.1816 47.2126 61.5366 46.9587 61.9863C46.7049 62.4281 46.578 62.9093 46.578 63.4222C46.578 63.935 46.7049 64.4004 46.9508 64.8265C47.1967 65.2525 47.5933 65.5996 48.1327 65.8678C48.6721 66.1282 49.3622 66.2623 50.203 66.2623H50.6472C50.5441 66.6173 50.3458 66.8698 50.0602 67.0355C49.7747 67.2011 49.386 67.28 48.8942 67.28C48.5531 67.28 48.1565 67.2485 47.6964 67.1854V68.7317C48.2041 68.8263 48.688 68.8658 49.1322 68.8658C50.0444 68.8658 50.7662 68.6449 51.2977 68.2031C51.8291 67.7613 52.1623 67.1144 52.2892 66.2544H53.9788H63.9099H63.4578H68.5186V61.1816L68.5027 61.1895ZM50.7504 64.7002H50.2189C49.4733 64.7002 48.9418 64.574 48.6166 64.3294C48.2914 64.0849 48.1248 63.7693 48.1248 63.3985C48.1248 63.0277 48.2834 62.7121 48.6086 62.4597C48.9339 62.2072 49.4574 62.081 50.1951 62.081H50.7504V64.6923V64.7002ZM105.689 59.7852L105.459 58.2231C104.293 58.4046 103.309 58.657 102.5 58.9647C101.691 59.2803 100.922 59.7063 100.208 60.2349L100.525 62.223C101.628 62.223 102.476 62.4123 103.063 62.791C103.65 63.1697 103.944 63.8008 103.944 64.7002H79.9489V58.5071H78.3466V64.9685C78.3466 65.7732 78.1721 66.3649 77.839 66.7436C77.4979 67.1222 76.9743 67.3116 76.2525 67.3116C74.8247 67.3116 74.1029 66.6173 74.1029 65.2367C74.1029 64.7555 74.1901 64.1874 74.3646 63.5247H72.8654C72.6433 64.2663 72.5323 64.9211 72.5323 65.5049C72.5323 66.2623 72.6989 66.9013 73.0399 67.4063C73.381 67.9112 73.8332 68.282 74.3884 68.5187C74.9516 68.7553 75.5624 68.8737 76.2366 68.8737C77.1885 68.8737 77.9659 68.6528 78.5766 68.2031C79.1874 67.7534 79.592 67.1144 79.7982 66.2702H105.538V64.7081C105.538 63.5878 105.245 62.7121 104.65 62.0889C104.055 61.4656 103.214 61.0711 102.112 60.9055C102.595 60.6372 103.151 60.4084 103.777 60.2112C104.404 60.014 105.039 59.8799 105.689 59.801V59.7852ZM113.352 59.3749C113.597 59.3749 113.812 59.2882 113.986 59.1067C114.161 58.9331 114.248 58.7201 114.248 58.4756C114.248 58.231 114.161 58.018 113.986 57.8444C113.812 57.6708 113.597 57.5762 113.352 57.5762C113.106 57.5762 112.892 57.663 112.717 57.8444C112.543 58.018 112.455 58.231 112.455 58.4756C112.455 58.7201 112.543 58.9331 112.717 59.1067C112.892 59.2803 113.106 59.3749 113.352 59.3749ZM111.234 59.3749C111.48 59.3749 111.694 59.2882 111.868 59.1067C112.043 58.9331 112.13 58.7201 112.13 58.4756C112.13 58.231 112.043 58.018 111.868 57.8444C111.694 57.6708 111.48 57.5762 111.234 57.5762C110.988 57.5762 110.774 57.663 110.599 57.8444C110.425 58.018 110.337 58.231 110.337 58.4756C110.337 58.7201 110.425 58.9331 110.599 59.1067C110.774 59.2803 110.988 59.3749 111.234 59.3749ZM120.665 67.209C120.419 67.209 120.205 67.2958 120.031 67.4694C119.856 67.6429 119.769 67.856 119.769 68.1005C119.769 68.3451 119.856 68.5581 120.031 68.7317C120.205 68.9052 120.419 68.992 120.665 68.992C120.911 68.992 121.125 68.9052 121.3 68.7317C121.474 68.5581 121.561 68.3451 121.561 68.1005C121.561 67.856 121.474 67.6429 121.3 67.4694C121.125 67.2958 120.911 67.209 120.665 67.209ZM122.775 67.209C122.529 67.209 122.315 67.2958 122.141 67.4694C121.966 67.6429 121.879 67.856 121.879 68.1005C121.879 68.3451 121.966 68.5581 122.141 68.7317C122.315 68.9052 122.529 68.992 122.775 68.992C123.021 68.992 123.235 68.9052 123.41 68.7317C123.584 68.5581 123.671 68.3451 123.671 68.1005C123.671 67.856 123.584 67.6429 123.41 67.4694C123.235 67.2958 123.021 67.209 122.775 67.209ZM126.337 67.1932C126.091 67.1932 125.877 67.28 125.702 67.4615C125.528 67.6351 125.44 67.8481 125.44 68.0926C125.44 68.3372 125.528 68.5502 125.702 68.7238C125.877 68.8973 126.091 68.9841 126.337 68.9841C126.583 68.9841 126.797 68.8973 126.971 68.7238C127.146 68.5502 127.233 68.3372 127.233 68.0926C127.233 67.8481 127.146 67.6351 126.971 67.4615C126.797 67.2879 126.583 67.1932 126.337 67.1932ZM141.622 62.0415C141.305 61.5524 140.869 61.1658 140.321 60.8897C139.774 60.6136 139.171 60.4716 138.513 60.4716C137.807 60.4716 137.188 60.6057 136.672 60.866C136.157 61.1264 135.744 61.5129 135.443 62.0257V58.5071H133.856V64.7002H133.301C132.698 64.7002 132.27 64.574 132.008 64.3058C131.778 64.0691 131.667 63.7456 131.667 63.3433V58.4992H130.065V63.3433C130.065 63.793 129.938 64.1322 129.692 64.361C129.446 64.5898 129.129 64.7002 128.732 64.7002C128.129 64.7002 127.701 64.574 127.439 64.3058C127.209 64.0691 127.098 63.7456 127.098 63.3433V61.1895H125.496V63.3433C125.496 63.793 125.369 64.1322 125.123 64.361C124.877 64.5898 124.56 64.7002 124.163 64.7002C123.56 64.7002 123.132 64.574 122.87 64.3058C122.64 64.0691 122.529 63.7456 122.529 63.3433V61.1895H120.927V63.3433C120.927 63.793 120.8 64.1322 120.554 64.361C120.308 64.5898 119.991 64.7002 119.594 64.7002H116.041C115.652 64.7002 115.335 64.5898 115.089 64.361C114.843 64.1322 114.724 63.8008 114.724 63.3433V59.9824H113.122V60.4716C112.915 60.44 112.685 60.4321 112.431 60.4321C111.765 60.4321 111.17 60.5583 110.639 60.8108C110.107 61.0633 109.695 61.4183 109.393 61.8837C109.092 62.3492 108.941 62.8857 108.941 63.501C108.941 63.9981 109.052 64.4399 109.266 64.8265C109.481 65.2209 109.766 65.5207 110.131 65.7337C110.488 65.9467 110.877 66.0572 111.281 66.0572C112.305 66.0572 113.003 65.6075 113.383 64.716C113.597 65.213 113.931 65.5996 114.391 65.8678C114.851 66.1361 115.406 66.2702 116.056 66.2702H119.61C120.102 66.2702 120.546 66.1913 120.935 66.0256C121.324 65.86 121.641 65.6312 121.895 65.3393C122.291 65.9625 123.053 66.2702 124.179 66.2702C124.679 66.2702 125.115 66.1913 125.504 66.0256C125.892 65.86 126.21 65.6312 126.464 65.3393C126.86 65.9625 127.622 66.2702 128.748 66.2702C129.248 66.2702 129.684 66.1913 130.073 66.0256C130.461 65.86 130.779 65.6312 131.033 65.3393C131.429 65.9625 132.191 66.2702 133.317 66.2702H142.106V63.6667C142.106 63.075 141.947 62.5307 141.63 62.0415H141.622ZM113.129 62.7042C113.129 63.2644 113.003 63.6983 112.741 64.0217C112.479 64.3452 112.138 64.5109 111.702 64.5109C111.353 64.5109 111.067 64.4241 110.853 64.2426C110.631 64.0612 110.52 63.8087 110.52 63.4774C110.52 63.004 110.71 62.6332 111.075 62.3492C111.448 62.0731 111.916 61.9311 112.495 61.9311C112.677 61.9311 112.892 61.9469 113.122 61.9863V62.7042H113.129ZM140.496 64.7002H135.451V64.6134C135.467 64.1164 135.617 63.6667 135.911 63.2801C136.204 62.8936 136.577 62.5938 137.045 62.3808C137.513 62.1678 138.005 62.0652 138.529 62.0652C139.139 62.0652 139.623 62.2072 139.972 62.507C140.329 62.7989 140.504 63.1855 140.504 63.6667V64.7002H140.496ZM43.4606 64.4714C43.2068 64.7002 42.8816 64.8107 42.4929 64.8107C42.0725 64.8107 41.6679 64.6844 41.2713 64.432V63.8166C41.2713 63.2565 41.3744 62.8226 41.6045 62.5149C41.8345 62.1993 42.1597 62.0415 42.596 62.0415C42.9847 62.0415 43.294 62.1756 43.5161 62.4518C43.7383 62.72 43.8493 63.075 43.8493 63.501C43.8493 63.9271 43.7224 64.2505 43.4686 64.4714H43.4606Z" fill="#EF482B"/>
<path d="M127.725 51.5013H112.622V42.8231H127.725C130.811 42.8231 133.317 40.2827 133.317 37.1664C133.317 34.0502 130.811 31.5098 127.725 31.5098H114.391V22.8315H127.725C135.626 22.8315 142.043 29.2613 142.043 37.1664C142.043 45.0715 135.618 51.5013 127.725 51.5013Z" fill="#154576"/>
</g>
<defs>
<clipPath id="clip0_58_1335">
<rect width="236" height="69" fill="white"/>
</clipPath>
</defs>
</svg>
