<svg width="213" height="62" viewBox="0 0 213 62" fill="none" xmlns="http://www.w3.org/2000/svg">
<path fill-rule="evenodd" clip-rule="evenodd" d="M20.4821 6.93352L33.13 3.11967C34.7618 2.63053 36.1014 3.67261 36.1014 5.45193V15.4474C36.1014 17.2196 34.7689 19.0769 33.13 19.566L20.4821 23.3799C18.8503 23.869 17.5107 22.827 17.5107 21.0476V11.0522C17.5107 9.27997 18.8432 7.42266 20.4821 6.93352Z" fill="#FCC214"/>
<path d="M19.6983 24.5641C19 24.5641 18.3373 24.3585 17.7958 23.9545C16.9336 23.3165 16.4419 22.2602 16.4419 21.048V11.0526C16.4419 8.79829 18.0808 6.544 20.1757 5.91308L32.8236 2.09923C33.9067 1.77313 34.9969 1.93618 35.8234 2.54583C36.6856 3.17675 37.1773 4.24009 37.1773 5.4523V15.4477C37.1773 17.702 35.5384 19.9563 33.4506 20.5872L20.8027 24.4011C20.4322 24.5145 20.0688 24.5641 19.7054 24.5641M33.9209 4.06287C33.7499 4.06287 33.5789 4.09831 33.4435 4.14085L20.7956 7.9547C19.6199 8.30915 18.5867 9.7553 18.5867 11.0526V21.048C18.5867 21.5868 18.7577 22.0121 19.0712 22.2389C19.4275 22.5012 19.8622 22.4445 20.1686 22.3524L32.8165 18.5385C33.9922 18.1841 35.0254 16.7379 35.0254 15.4406V5.44521C35.0254 4.90645 34.8544 4.48112 34.5409 4.25427C34.3485 4.11249 34.1276 4.06287 33.9209 4.06287Z" fill="#154576"/>
<path fill-rule="evenodd" clip-rule="evenodd" d="M16.0143 41.1382L28.6622 37.3243C30.294 36.8352 31.6336 34.9779 31.6336 33.2057V23.2102C31.6336 21.438 30.3011 20.3888 28.6622 20.878L16.0143 24.6918C14.3826 25.181 13.043 27.0383 13.043 28.8105V38.8059C13.043 40.5782 14.3826 41.6273 16.0143 41.1382Z" fill="#FCC214"/>
<path d="M15.2305 42.3219C14.5322 42.3219 13.8695 42.1164 13.328 41.7123C12.4658 41.0743 11.9741 40.018 11.9741 38.8058V28.8104C11.9741 26.5561 13.613 24.3018 15.7008 23.6709L28.3487 19.857C29.4318 19.5309 30.522 19.694 31.3486 20.3036C32.2107 20.9346 32.7024 21.9979 32.7024 23.2101V33.2055C32.7024 35.4598 31.0635 37.7141 28.9757 38.345L16.3278 42.1589C15.9573 42.2723 15.5939 42.3219 15.2305 42.3219ZM29.4531 21.8207C29.2821 21.8207 29.1111 21.8561 28.9757 21.8987L16.3278 25.7125C15.1521 26.067 14.1189 27.5131 14.1189 28.8104V38.8058C14.1189 39.3446 14.2899 39.7699 14.6035 39.9968C14.9597 40.2591 15.3944 40.2023 15.7008 40.1102L28.3487 36.2963C29.5244 35.9419 30.5576 34.4957 30.5576 33.1985V23.203C30.5576 22.6643 30.3866 22.2389 30.0731 22.0121C29.8807 21.8703 29.6598 21.8207 29.4531 21.8207Z" fill="#154576"/>
<path fill-rule="evenodd" clip-rule="evenodd" d="M20.4821 39.8266L33.13 36.0128C34.7618 35.5165 36.1014 36.5657 36.1014 38.345V48.3405C36.1014 50.1127 34.7689 51.97 33.13 52.4591L20.4821 56.273C18.8503 56.7621 17.5107 55.7201 17.5107 53.9407V43.9453C17.5107 42.1731 18.8503 40.3158 20.4821 39.8266Z" fill="#FCC214"/>
<path d="M19.6983 57.4567C19 57.4567 18.3373 57.2511 17.7958 56.8471C16.9336 56.2161 16.4419 55.1528 16.4419 53.9406V43.9452C16.4419 41.6909 18.0808 39.4366 20.1686 38.8057L32.8165 34.9918C33.8995 34.6657 34.9898 34.8288 35.8163 35.4384C36.6785 36.0693 37.1702 37.1327 37.1702 38.3449V48.3403C37.1702 50.5946 35.5313 52.8489 33.4435 53.4798L20.7956 57.2937C20.4251 57.4071 20.0617 57.4567 19.6983 57.4567ZM20.7956 40.8473C19.6199 41.2017 18.5867 42.6479 18.5867 43.9452V53.9406C18.5867 54.4793 18.7577 54.9047 19.0712 55.1315C19.4275 55.3938 19.8622 55.3371 20.1686 55.245L32.8165 51.4311C33.9922 51.0766 35.0254 49.6305 35.0254 48.3332V38.3378C35.0254 37.799 34.8544 37.3737 34.5409 37.1468C34.1846 36.8846 33.7499 36.9413 33.4435 37.0334L20.7956 40.8473Z" fill="#154576"/>
<path fill-rule="evenodd" clip-rule="evenodd" d="M27.365 54.501L31.7972 53.1611C32.3672 52.991 32.8375 53.3526 32.8375 53.9764V57.4783C32.8375 58.1021 32.3672 58.7472 31.7972 58.9245L27.365 60.2643C26.795 60.4344 26.3247 60.0729 26.3247 59.4491V55.9471C26.3247 55.3233 26.795 54.6782 27.365 54.501Z" fill="#FDF8F4"/>
<path d="M27.0943 61.3773C26.7024 61.3773 26.3247 61.2568 26.0112 61.03C25.5266 60.6755 25.2559 60.1013 25.2559 59.4562V55.9543C25.2559 54.8555 26.0326 53.7993 27.0586 53.4873L31.4907 52.1475C32.0822 51.9703 32.695 52.0625 33.1581 52.4098C33.6355 52.7643 33.9134 53.3385 33.9134 53.9836V57.4855C33.9134 58.5843 33.1367 59.6406 32.1107 59.9525L27.6786 61.2923C27.479 61.349 27.2867 61.3773 27.0871 61.3773M31.7686 54.2884L27.6786 55.5219C27.5788 55.5502 27.4007 55.77 27.4007 55.9401V59.1372L31.4907 57.9038C31.5905 57.8754 31.7686 57.6556 31.7686 57.4784V54.2813V54.2884Z" fill="#154576"/>
<path fill-rule="evenodd" clip-rule="evenodd" d="M2.48262 36.0409C5.94564 31.9577 12.6793 36.0835 13.8123 40.6913C15.9998 49.5879 18.394 53.8909 26.1039 55.2166L25.9329 60.5049C7.07861 64.2195 -2.7333 42.1941 2.47549 36.0409" fill="#EF482B"/>
<path d="M21.7147 61.994C18.3087 61.994 15.0737 61.1717 12.0524 59.5341C7.49917 57.0672 4.67745 53.4022 3.10983 50.758C-0.410206 44.8246 -1.00876 38.487 1.6562 35.3466C3.14545 33.5886 5.276 32.9293 7.66307 33.4893C10.9765 34.262 14.069 37.2465 14.8528 40.4294C17.4393 50.9423 20.4677 53.1612 26.2893 54.1607L27.2085 54.3167L26.9805 61.3844L26.1468 61.5474C24.6433 61.8451 23.1683 61.994 21.7218 61.994M3.30221 36.729C1.28567 39.1109 1.99824 44.6757 4.9696 49.6805C6.5016 52.2609 11.8529 59.8602 21.7004 59.8602C22.7194 59.8602 23.7811 59.7823 24.8998 59.605L25.0138 56.0889C17.4536 54.4655 14.924 49.6451 12.7792 40.9398C12.1807 38.5225 9.72947 36.1619 7.18564 35.5664C6.08118 35.3112 4.51356 35.3041 3.30934 36.7219L3.30221 36.729Z" fill="#154576"/>
<path fill-rule="evenodd" clip-rule="evenodd" d="M8.49663 15.6816C12.1307 15.6816 15.0807 19.5239 15.0807 24.2664C15.0807 29.0089 12.1307 32.8511 8.49663 32.8511C4.86259 32.8511 1.9126 29.0089 1.9126 24.2664C1.9126 19.5239 4.86259 15.6816 8.49663 15.6816Z" fill="#FDF8F4"/>
<path d="M8.49666 33.624C4.44221 33.624 1.14307 29.4274 1.14307 24.2666C1.14307 19.1058 4.44221 14.9092 8.49666 14.9092C12.5511 14.9092 15.8502 19.1058 15.8502 24.2666C15.8502 29.4274 12.5511 33.624 8.49666 33.624ZM8.49666 16.4475C5.29015 16.4475 2.68931 19.9565 2.68931 24.2666C2.68931 28.5767 5.29728 32.0857 8.49666 32.0857C11.696 32.0857 14.304 28.5767 14.304 24.2666C14.304 19.9565 11.696 16.4475 8.49666 16.4475Z" fill="#154576"/>
<path fill-rule="evenodd" clip-rule="evenodd" d="M8.51811 15.6396C12.1522 15.6396 15.1021 19.4819 15.1021 24.2244C14.8385 27.9603 9.56557 27.3719 1.93408 24.2244C1.93408 19.4819 4.88407 15.6396 8.51811 15.6396Z" fill="#EF482B"/>
<path d="M11.5536 27.5916C9.20932 27.5916 5.93156 26.7126 1.64196 24.9403L1.16455 24.7418V24.2314C1.16455 19.0707 4.4637 14.874 8.51815 14.874C12.5726 14.874 15.8717 19.0707 15.8717 24.2314V24.2882C15.7862 25.4649 15.2661 26.3865 14.3611 26.9394C13.6557 27.3719 12.7151 27.5916 11.5536 27.5916ZM2.71793 23.714C10.0216 26.663 12.6296 26.1809 13.5417 25.6209C14.0191 25.3302 14.2685 24.8765 14.3184 24.196C14.3041 19.9001 11.7033 16.4052 8.51101 16.4052C5.31876 16.4052 2.91032 19.6378 2.71793 23.714Z" fill="#154576"/>
<path fill-rule="evenodd" clip-rule="evenodd" d="M1.92705 23.6211C6.91495 26.2014 14.7958 25.9179 14.8172 21.8984C14.8956 21.9197 19.8194 28.6755 15.7293 30.0649C10.0716 31.986 5.6751 26.7473 1.91992 23.6211" fill="#EF482B"/>
<path d="M13.3068 31.2564C9.31643 31.2564 5.98878 28.2719 3.22406 25.7837C2.59701 25.2237 2.01272 24.6991 1.43555 24.217L2.29061 22.941C5.68951 24.6991 10.656 25.0465 12.922 23.6854C13.6773 23.2317 14.0478 22.6433 14.0549 21.8919V20.8994L15.024 21.1475C15.1594 21.183 15.5656 21.2893 16.7626 23.4727C17.632 25.0606 18.0951 26.4501 18.1379 27.5985C18.1949 29.1722 17.4325 30.2994 15.9931 30.7885C15.0668 31.1004 14.1761 31.2422 13.3139 31.2422M5.41874 25.6703C8.3616 28.2436 11.6536 30.6396 15.4872 29.3353C16.0501 29.1439 16.3779 28.832 16.5133 28.357C16.8624 27.1093 15.9005 25.0465 15.1024 23.6854C14.7889 24.1958 14.3186 24.6424 13.72 25.0039C11.789 26.1594 8.54687 26.3579 5.42587 25.6703H5.41874Z" fill="#154576"/>
<path fill-rule="evenodd" clip-rule="evenodd" d="M36.2725 5.70004C36.4007 3.09839 37.7688 2.05632 38.6666 1.88618C74.6793 -5.01137 76.368 33.6234 39.3222 50.1336C38.4101 50.5377 36.5575 49.928 36.2867 48.0849L36.0444 36.8135C36.1228 35.4099 37.1418 34.708 37.7475 34.382C48.8705 28.328 48.8491 15.9507 36.6359 18.6516L36.2725 5.70004Z" fill="#FCC214"/>
<path d="M38.6947 51.325C38.1461 51.325 37.5689 51.1762 37.0416 50.8926C36.0369 50.3467 35.3956 49.4039 35.2246 48.2484L35.2103 48.1137L34.9609 36.7997V36.7572C35.0179 35.7789 35.4526 34.4108 37.2269 33.4467C43.3192 30.129 45.7633 24.9683 44.6018 21.8988C43.7325 19.6019 40.9108 18.8009 36.8635 19.6941L35.5951 19.9777L35.1961 5.69341V5.65088C35.3386 2.73023 36.9418 1.13522 38.4596 0.844568C45.9272 -0.587401 52.2689 -0.197508 57.2925 2.00716C61.9383 4.04169 65.1662 7.54363 66.627 12.1373C70.2681 23.6072 62.088 41.1665 39.7636 51.1194C39.4429 51.2612 39.0795 51.3321 38.7019 51.3321M37.3551 47.9861C37.462 48.5674 37.804 48.8652 38.0748 49.014C38.4382 49.2125 38.7803 49.2054 38.8871 49.1558C51.2358 43.6548 57.6844 36.4453 60.9194 31.3696C64.981 24.9966 66.3134 18.2196 64.5891 12.7682C63.3278 8.7842 60.5061 5.73595 56.4374 3.94953C51.8842 1.95045 45.8061 1.596 38.8729 2.92872C38.3955 3.02088 37.462 3.72268 37.348 5.70759L37.6758 17.3689C42.1578 16.7097 45.4569 18.0778 46.6184 21.1402C48.0791 25.0108 45.6493 31.2916 38.2672 35.3111C37.5333 35.708 37.1699 36.1901 37.12 36.8281L37.3623 47.9861H37.3551Z" fill="#154576"/>
<path d="M164.701 42.0943C156.058 42.0943 149.025 35.0975 149.025 26.4986V4.18262H156.863V26.4986C156.863 30.8016 160.383 34.2965 164.701 34.2965C169.019 34.2965 172.539 30.7946 172.539 26.4986V16.3047H180.377V26.4986C180.377 35.0975 173.344 42.0943 164.701 42.0943Z" fill="#154576"/>
<path d="M105.238 50.0195H99.4949C91.2008 50.0195 84.46 43.3063 84.46 35.0618V22.9752H92.2981V35.0618C92.2981 39.0104 95.526 42.2217 99.4949 42.2217H105.238C109.207 42.2217 112.435 39.0104 112.435 35.0618V26.4133C112.435 20.0758 117.622 14.915 123.993 14.915C130.363 14.915 135.55 20.0758 135.55 26.4133V27.5972C135.55 31.2905 138.572 34.3033 142.291 34.3033C146.011 34.3033 149.032 31.2976 149.032 27.5972V25.2578H156.87V27.5972C156.87 35.5935 150.329 42.1012 142.291 42.1012C134.253 42.1012 127.712 35.5935 127.712 27.5972V26.4133C127.712 24.3717 126.045 22.7129 123.993 22.7129C121.94 22.7129 120.273 24.3717 120.273 26.4133V35.0618C120.273 43.3134 113.525 50.0195 105.238 50.0195Z" fill="#154576"/>
<path d="M97.3072 56.272C96.0744 56.272 94.9985 55.8254 94.1149 54.9535C93.2313 54.0744 92.7896 53.0111 92.7896 51.7776C92.7896 50.5441 93.2385 49.4808 94.1149 48.6017C94.9914 47.7227 96.0673 47.2832 97.3072 47.2832C98.547 47.2832 99.6158 47.7298 100.499 48.6017C101.383 49.4808 101.825 50.5441 101.825 51.7776C101.825 53.0111 101.376 54.0744 100.499 54.9535C99.6158 55.8325 98.547 56.272 97.3072 56.272Z" fill="#154576"/>
<path d="M97.3074 47.8503C98.3833 47.8503 99.3239 48.2402 100.093 49.0058C100.863 49.7714 101.255 50.7001 101.255 51.7776C101.255 52.8551 100.863 53.7838 100.093 54.5494C99.3239 55.315 98.3833 55.7049 97.3074 55.7049C96.2314 55.7049 95.2908 55.315 94.5213 54.5494C93.7517 53.7838 93.3598 52.8551 93.3598 51.7776C93.3598 50.7001 93.7517 49.7714 94.5213 49.0058C95.2908 48.2402 96.2243 47.8503 97.3074 47.8503ZM97.3074 46.7161C95.9321 46.7161 94.6923 47.2336 93.7161 48.2048C92.7399 49.1759 92.2197 50.4165 92.2197 51.7776C92.2197 53.1387 92.7399 54.3792 93.7161 55.3504C94.6923 56.3216 95.9393 56.8391 97.3074 56.8391C98.6755 56.8391 99.9225 56.3287 100.899 55.3504C101.875 54.3721 102.395 53.1387 102.395 51.7705C102.395 50.4023 101.875 49.1689 100.899 48.1977C99.9225 47.2265 98.6755 46.709 97.3003 46.709L97.3074 46.7161Z" fill="white"/>
<path d="M106.343 56.272C105.11 56.272 104.034 55.8254 103.151 54.9535C102.267 54.0744 101.825 53.0111 101.825 51.7776C101.825 50.5441 102.274 49.4808 103.151 48.6017C104.027 47.7227 105.103 47.2832 106.343 47.2832C107.583 47.2832 108.651 47.7298 109.535 48.6017C110.419 49.4808 110.86 50.5441 110.86 51.7776C110.86 53.0111 110.412 54.0744 109.535 54.9535C108.651 55.8325 107.583 56.272 106.343 56.272Z" fill="#154576"/>
<path d="M106.343 47.8503C107.419 47.8503 108.359 48.2402 109.129 49.0058C109.898 49.7714 110.29 50.7001 110.29 51.7776C110.29 52.8551 109.898 53.7838 109.129 54.5494C108.359 55.315 107.419 55.7049 106.343 55.7049C105.267 55.7049 104.326 55.315 103.556 54.5494C102.787 53.7838 102.395 52.8551 102.395 51.7776C102.395 50.7001 102.787 49.7714 103.556 49.0058C104.326 48.2402 105.259 47.8503 106.343 47.8503ZM106.343 46.7161C104.967 46.7161 103.727 47.2336 102.751 48.2048C101.775 49.1759 101.255 50.4165 101.255 51.7776C101.255 53.1387 101.775 54.3792 102.751 55.3504C103.727 56.3216 104.974 56.8391 106.343 56.8391C107.711 56.8391 108.958 56.3287 109.934 55.3504C110.91 54.3721 111.43 53.1387 111.43 51.7705C111.43 50.4023 110.91 49.1689 109.934 48.1977C108.958 47.2265 107.711 46.709 106.335 46.709L106.343 46.7161Z" fill="white"/>
<path d="M161.608 48.9702C160.376 48.9702 159.3 48.5236 158.416 47.6517C157.533 46.7727 157.091 45.7093 157.091 44.4758C157.091 43.2424 157.54 42.179 158.416 41.3C159.293 40.421 160.369 39.9814 161.608 39.9814C162.848 39.9814 163.917 40.4281 164.801 41.3C165.684 42.179 166.126 43.2424 166.126 44.4758C166.126 45.7093 165.677 46.7727 164.801 47.6517C163.917 48.5307 162.848 48.9702 161.608 48.9702Z" fill="#154576"/>
<path d="M161.609 40.5556C162.685 40.5556 163.625 40.9455 164.395 41.7111C165.164 42.4767 165.556 43.4054 165.556 44.4829C165.556 45.5604 165.164 46.4891 164.395 47.2547C163.625 48.0203 162.685 48.4102 161.609 48.4102C160.533 48.4102 159.592 48.0203 158.823 47.2547C158.053 46.4891 157.661 45.5604 157.661 44.4829C157.661 43.4054 158.053 42.4767 158.823 41.7111C159.592 40.9455 160.526 40.5556 161.609 40.5556ZM161.609 39.4143C160.233 39.4143 158.994 39.9318 158.017 40.903C157.041 41.8742 156.521 43.1147 156.521 44.4758C156.521 45.8369 157.041 47.0775 158.017 48.0487C158.994 49.0198 160.241 49.5373 161.609 49.5373C162.977 49.5373 164.224 49.0269 165.2 48.0487C166.176 47.0704 166.696 45.8369 166.696 44.4687C166.696 43.1006 166.176 41.8671 165.2 40.8959C164.224 39.9247 162.977 39.4072 161.602 39.4072L161.609 39.4143Z" fill="white"/>
<path d="M170.644 40.5557C169.568 40.5557 168.627 40.9456 167.858 41.7112C167.088 42.4768 166.696 43.4054 166.696 44.4829C166.696 45.5605 167.088 46.4891 167.858 47.2547C168.627 48.0203 169.561 48.4102 170.644 48.4102C171.727 48.4102 172.66 48.0203 173.43 47.2547C174.2 46.4891 174.591 45.5534 174.591 44.4829C174.591 43.4125 174.2 42.4768 173.43 41.7112C172.66 40.9456 171.72 40.5557 170.644 40.5557Z" fill="#154576"/>
<path d="M170.644 48.9702C169.411 48.9702 168.335 48.5236 167.451 47.6517C166.568 46.7727 166.126 45.7093 166.126 44.4758C166.126 43.2424 166.575 42.179 167.451 41.3C168.328 40.421 169.404 39.9814 170.644 39.9814C171.883 39.9814 172.952 40.4281 173.836 41.3C174.719 42.179 175.161 43.2424 175.161 44.4758C175.161 45.7093 174.712 46.7727 173.836 47.6517C172.952 48.5307 171.883 48.9702 170.644 48.9702Z" fill="#154576"/>
<path d="M170.644 40.5556C171.72 40.5556 172.66 40.9455 173.43 41.7111C174.199 42.4767 174.591 43.4054 174.591 44.4829C174.591 45.5604 174.199 46.4891 173.43 47.2547C172.66 48.0203 171.72 48.4102 170.644 48.4102C169.568 48.4102 168.627 48.0203 167.858 47.2547C167.088 46.4891 166.696 45.5604 166.696 44.4829C166.696 43.4054 167.088 42.4767 167.858 41.7111C168.627 40.9455 169.561 40.5556 170.644 40.5556ZM170.644 39.4143C169.269 39.4143 168.029 39.9318 167.053 40.903C166.076 41.8742 165.556 43.1147 165.556 44.4758C165.556 45.8369 166.076 47.0775 167.053 48.0487C168.029 49.0198 169.276 49.5373 170.644 49.5373C172.012 49.5373 173.259 49.0269 174.235 48.0487C175.211 47.0704 175.731 45.8369 175.731 44.4687C175.731 43.1006 175.211 41.8671 174.235 40.8959C173.259 39.9247 172.012 39.4072 170.637 39.4072L170.644 39.4143Z" fill="white"/>
<path d="M124.028 50.4876C123.636 50.2465 123.194 50.126 122.696 50.126C122.175 50.126 121.712 50.2536 121.32 50.5088C120.929 50.764 120.622 51.1256 120.408 51.5793C120.195 52.04 120.088 52.5646 120.088 53.153V54.9182C120.088 55.4144 120.024 55.7688 119.902 55.9886C119.781 56.2083 119.553 56.3147 119.218 56.3147C119.005 56.3147 118.741 56.2721 118.435 56.1942V57.5907C118.784 57.6616 119.09 57.697 119.361 57.697C120.073 57.697 120.608 57.4773 120.957 57.0307C121.313 56.5841 121.499 55.9177 121.513 55.0245C121.94 55.2442 122.389 55.3577 122.867 55.3577C123.301 55.3577 123.7 55.2584 124.064 55.067C124.427 54.8756 124.719 54.5921 124.94 54.2093C125.161 53.8335 125.268 53.3869 125.268 52.8624C125.268 52.3378 125.154 51.8841 124.933 51.4658C124.712 51.0476 124.406 50.7215 124.014 50.4805M144.308 56.1942C144.087 56.1942 143.894 56.2721 143.737 56.4352C143.581 56.5912 143.502 56.7825 143.502 57.0023C143.502 57.2221 143.581 57.4135 143.737 57.5694C143.894 57.7254 144.087 57.8034 144.308 57.8034C144.528 57.8034 144.721 57.7254 144.878 57.5694C145.034 57.4135 145.113 57.2221 145.113 57.0023C145.113 56.7825 145.034 56.5912 144.878 56.4352C144.721 56.2792 144.528 56.1942 144.308 56.1942ZM146.203 56.1942C145.982 56.1942 145.79 56.2721 145.633 56.4352C145.476 56.5912 145.391 56.7825 145.391 57.0023C145.391 57.2221 145.469 57.4135 145.633 57.5694C145.79 57.7254 145.982 57.8034 146.203 57.8034C146.424 57.8034 146.616 57.7254 146.773 57.5694C146.93 57.4135 147.015 57.2221 147.015 57.0023C147.015 56.7825 146.937 56.5912 146.773 56.4352C146.616 56.2792 146.424 56.1942 146.203 56.1942ZM145.996 50.7995H144.557V53.9541H141.457H141.863H131.474V50.1756H129.572C128.824 50.1756 128.211 50.2962 127.719 50.5443C127.228 50.7924 126.871 51.1114 126.643 51.5155C126.415 51.9124 126.301 52.3449 126.301 52.8056C126.301 53.2664 126.415 53.6847 126.636 54.0675C126.857 54.4503 127.213 54.7622 127.698 55.0032C128.182 55.2372 128.802 55.3577 129.558 55.3577H129.957C129.864 55.6767 129.686 55.9035 129.429 56.0524C129.173 56.2013 128.824 56.2721 128.382 56.2721C128.075 56.2721 127.719 56.2438 127.306 56.1871V57.5765C127.762 57.6616 128.197 57.697 128.596 57.697C129.415 57.697 130.064 57.4985 130.541 57.1016C131.018 56.7046 131.318 56.1233 131.432 55.3506H132.949H141.871H141.464H146.011V50.7924L145.996 50.7995ZM130.049 53.9541H129.572C128.902 53.9541 128.425 53.8406 128.132 53.6209C127.84 53.4011 127.691 53.1176 127.691 52.7844C127.691 52.4512 127.833 52.1676 128.125 51.9408C128.417 51.7139 128.888 51.6005 129.55 51.6005H130.049V53.947V53.9541ZM179.401 49.5376L179.194 48.134C178.147 48.2971 177.263 48.5239 176.536 48.8004C175.81 49.0839 175.118 49.4667 174.477 49.9417L174.762 51.7281C175.753 51.7281 176.515 51.8983 177.042 52.2385C177.57 52.5788 177.833 53.1459 177.833 53.9541H156.278V48.3892H154.839V54.1951C154.839 54.9182 154.682 55.4498 154.383 55.7901C154.077 56.1304 153.606 56.3005 152.958 56.3005C151.675 56.3005 151.027 55.6767 151.027 54.4361C151.027 54.0037 151.105 53.4933 151.262 52.8978H149.915C149.716 53.5642 149.616 54.1525 149.616 54.6771C149.616 55.3577 149.766 55.9319 150.072 56.3856C150.379 56.8393 150.785 57.1724 151.283 57.3851C151.789 57.5978 152.338 57.7041 152.944 57.7041C153.799 57.7041 154.497 57.5056 155.046 57.1016C155.594 56.6975 155.958 56.1233 156.143 55.3648H179.266V53.9611C179.266 52.9545 179.002 52.1676 178.468 51.6076C177.933 51.0476 177.178 50.6931 176.187 50.5443C176.622 50.3032 177.121 50.0977 177.684 49.9204C178.247 49.7432 178.817 49.6227 179.401 49.5518V49.5376ZM186.284 49.169C186.505 49.169 186.698 49.091 186.854 48.928C187.011 48.772 187.089 48.5806 187.089 48.3609C187.089 48.1411 187.011 47.9497 186.854 47.7938C186.698 47.6378 186.505 47.5527 186.284 47.5527C186.063 47.5527 185.871 47.6307 185.714 47.7938C185.557 47.9497 185.479 48.1411 185.479 48.3609C185.479 48.5806 185.557 48.772 185.714 48.928C185.871 49.0839 186.063 49.169 186.284 49.169ZM184.382 49.169C184.603 49.169 184.795 49.091 184.952 48.928C185.109 48.772 185.187 48.5806 185.187 48.3609C185.187 48.1411 185.109 47.9497 184.952 47.7938C184.795 47.6378 184.603 47.5527 184.382 47.5527C184.161 47.5527 183.968 47.6307 183.812 47.7938C183.655 47.9497 183.577 48.1411 183.577 48.3609C183.577 48.5806 183.655 48.772 183.812 48.928C183.968 49.0839 184.161 49.169 184.382 49.169ZM192.854 56.2083C192.633 56.2083 192.441 56.2863 192.284 56.4423C192.127 56.5982 192.049 56.7896 192.049 57.0094C192.049 57.2292 192.127 57.4206 192.284 57.5765C192.441 57.7325 192.633 57.8104 192.854 57.8104C193.075 57.8104 193.267 57.7325 193.424 57.5765C193.581 57.4206 193.659 57.2292 193.659 57.0094C193.659 56.7896 193.581 56.5982 193.424 56.4423C193.267 56.2863 193.075 56.2083 192.854 56.2083ZM194.749 56.2083C194.529 56.2083 194.336 56.2863 194.179 56.4423C194.023 56.5982 193.944 56.7896 193.944 57.0094C193.944 57.2292 194.023 57.4206 194.179 57.5765C194.336 57.7325 194.529 57.8104 194.749 57.8104C194.97 57.8104 195.163 57.7325 195.319 57.5765C195.476 57.4206 195.555 57.2292 195.555 57.0094C195.555 56.7896 195.476 56.5982 195.319 56.4423C195.163 56.2863 194.97 56.2083 194.749 56.2083ZM197.949 56.1942C197.728 56.1942 197.536 56.2721 197.379 56.4352C197.222 56.5912 197.144 56.7825 197.144 57.0023C197.144 57.2221 197.222 57.4135 197.379 57.5694C197.536 57.7254 197.728 57.8034 197.949 57.8034C198.17 57.8034 198.362 57.7254 198.519 57.5694C198.676 57.4135 198.754 57.2221 198.754 57.0023C198.754 56.7825 198.676 56.5912 198.519 56.4352C198.362 56.2792 198.17 56.1942 197.949 56.1942ZM211.68 51.5651C211.395 51.1256 211.003 50.7782 210.511 50.5301C210.02 50.282 209.478 50.1544 208.887 50.1544C208.252 50.1544 207.697 50.2749 207.233 50.5088C206.77 50.7428 206.4 51.0901 206.129 51.5509V48.3892H204.704V53.9541H204.205C203.664 53.9541 203.279 53.8406 203.044 53.5996C202.837 53.3869 202.737 53.0963 202.737 52.7348V48.3821H201.298V52.7348C201.298 53.1388 201.184 53.4437 200.963 53.6492C200.742 53.8548 200.457 53.9541 200.101 53.9541C199.559 53.9541 199.174 53.8406 198.939 53.5996C198.733 53.3869 198.633 53.0963 198.633 52.7348V50.7995H197.194V52.7348C197.194 53.1388 197.08 53.4437 196.859 53.6492C196.638 53.8548 196.353 53.9541 195.996 53.9541C195.455 53.9541 195.07 53.8406 194.835 53.5996C194.628 53.3869 194.529 53.0963 194.529 52.7348V50.7995H193.089V52.7348C193.089 53.1388 192.975 53.4437 192.754 53.6492C192.533 53.8548 192.248 53.9541 191.892 53.9541H188.7C188.351 53.9541 188.066 53.8548 187.845 53.6492C187.624 53.4437 187.517 53.1459 187.517 52.7348V49.7149H186.078V50.1544C185.892 50.126 185.686 50.1189 185.458 50.1189C184.859 50.1189 184.325 50.2324 183.847 50.4592C183.37 50.6861 182.999 51.0051 182.729 51.4233C182.458 51.8416 182.322 52.3236 182.322 52.8765C182.322 53.3231 182.422 53.7201 182.615 54.0675C182.807 54.4219 183.064 54.6913 183.391 54.8827C183.712 55.0741 184.061 55.1734 184.424 55.1734C185.344 55.1734 185.971 54.7693 186.313 53.9682C186.505 54.4148 186.804 54.7622 187.218 55.0032C187.631 55.2442 188.13 55.3648 188.714 55.3648H191.906C192.348 55.3648 192.747 55.2939 193.096 55.145C193.445 54.9961 193.73 54.7906 193.959 54.5283C194.315 55.0883 194.999 55.3648 196.011 55.3648C196.46 55.3648 196.851 55.2939 197.201 55.145C197.55 54.9961 197.835 54.7906 198.063 54.5283C198.419 55.0883 199.103 55.3648 200.115 55.3648C200.564 55.3648 200.956 55.2939 201.305 55.145C201.654 54.9961 201.939 54.7906 202.167 54.5283C202.523 55.0883 203.208 55.3648 204.219 55.3648H212.114V53.0254C212.114 52.4937 211.972 52.0046 211.687 51.5651H211.68ZM186.085 52.1606C186.085 52.6639 185.971 53.0538 185.736 53.3444C185.5 53.6351 185.194 53.7839 184.802 53.7839C184.489 53.7839 184.232 53.7059 184.04 53.5429C183.84 53.3799 183.74 53.153 183.74 52.8553C183.74 52.4299 183.911 52.0968 184.239 51.8415C184.574 51.5934 184.995 51.4658 185.515 51.4658C185.679 51.4658 185.871 51.48 186.078 51.5155V52.1606H186.085ZM210.668 53.9541H206.136V53.8761C206.15 53.4295 206.286 53.0254 206.549 52.678C206.813 52.3307 207.148 52.0613 207.568 51.8699C207.989 51.6785 208.431 51.5863 208.901 51.5863C209.45 51.5863 209.884 51.714 210.198 51.9833C210.518 52.2456 210.675 52.593 210.675 53.0254V53.9541H210.668ZM123.501 53.7485C123.273 53.9541 122.981 54.0533 122.632 54.0533C122.254 54.0533 121.89 53.9399 121.534 53.713V53.1601C121.534 52.6568 121.627 52.2669 121.833 51.9904C122.04 51.7069 122.332 51.5651 122.724 51.5651C123.073 51.5651 123.351 51.6856 123.551 51.9337C123.75 52.1747 123.85 52.4937 123.85 52.8765C123.85 53.2593 123.736 53.55 123.508 53.7485H123.501Z" fill="#EF482B"/>
<path d="M199.196 42.0943H185.629V34.2964H199.196C201.968 34.2964 204.22 32.0138 204.22 29.2136C204.22 26.4135 201.968 24.1309 199.196 24.1309H187.218V16.333H199.196C206.293 16.333 212.058 22.1105 212.058 29.2136C212.058 36.3168 206.286 42.0943 199.196 42.0943Z" fill="#154576"/>
</svg>
