<svg width="148" height="148" viewBox="0 0 148 148" fill="none" xmlns="http://www.w3.org/2000/svg">
<g clip-path="url(#clip0_363_1587)">
<path d="M94.9221 89.4149C105.642 76.494 127.913 52.3173 100.958 41.099C89.9025 36.4973 80.24 42.5328 74.0502 51.7624C67.988 44.3596 63.4985 38.7924 53.0104 39.7607C44.2689 40.5672 36.6802 46.5333 34.7048 55.286C32.8019 63.7177 38.4934 70.684 43.1538 77.0346C52.4804 89.7473 64.2139 100.59 73.4043 113.265C79.7505 106.426 86.2009 99.5695 92.2284 92.4384L92.4514 92.187C93.2479 91.2417 94.1371 90.3601 94.9192 89.4149H94.9221Z" fill="#FD4425"/>
<path d="M73.4019 114.938C73.3671 114.938 73.3352 114.938 73.3005 114.935C72.7994 114.906 72.3389 114.652 72.0434 114.247C67.441 107.9 62.0709 101.879 56.8805 96.057C51.7538 90.3106 46.4533 84.3675 41.8016 78.0256C41.5119 77.6296 41.2165 77.2307 40.9211 76.8318C36.3273 70.6171 31.1166 63.5728 33.0688 54.9213C35.1368 45.7582 43.0876 38.9972 52.8573 38.0982C63.3772 37.127 68.336 42.2202 73.9522 49.0101C81.5061 38.977 91.7103 35.4418 101.602 39.558C109.121 42.6884 113.631 47.1168 115.001 52.7158C117.909 64.5961 105.912 78.9073 97.9725 88.3768C97.3584 89.1081 96.7704 89.8105 96.2114 90.484C95.777 91.0072 95.3193 91.5044 94.8762 91.9871C94.4735 92.4265 94.0941 92.8398 93.735 93.2647C93.7263 93.2763 93.7147 93.2878 93.706 93.2994L93.4945 93.5364C88.1709 99.835 82.4533 105.989 76.9211 111.938C76.1564 112.759 75.3946 113.583 74.63 114.403C74.3113 114.747 73.8653 114.941 73.399 114.941L73.4019 114.938ZM55.3193 41.3212C54.6329 41.3212 53.9174 41.3559 53.1673 41.4253C44.8515 42.1913 38.0883 47.9088 36.3418 55.6526C34.7255 62.8126 39.2469 68.9261 43.6205 74.8402C43.9189 75.2449 44.2172 75.6467 44.5098 76.0456C49.0659 82.2574 54.3142 88.1397 59.3888 93.8284C64.1911 99.2135 69.1441 104.766 73.5554 110.643C73.8595 110.316 74.1636 109.987 74.4706 109.66C79.9797 103.731 85.6741 97.6035 90.9515 91.3598C90.9602 91.3483 90.9688 91.3367 90.9804 91.328L91.189 91.091C91.5887 90.617 92.0087 90.1631 92.4113 89.7238C92.8457 89.2526 93.2541 88.8075 93.6336 88.3479C94.1955 87.6715 94.7893 86.9633 95.4062 86.2262C102.911 77.2712 114.253 63.7404 111.748 53.5049C110.644 48.9928 106.798 45.3391 100.316 42.6393C87.5221 37.3149 78.6618 47.8944 75.4468 52.6898C75.1513 53.1292 74.6647 53.4067 74.1347 53.4298C73.6075 53.4558 73.0919 53.2275 72.756 52.817L72.643 52.6782C67.131 45.9461 63.3396 41.3183 55.3251 41.3183L55.3193 41.3212Z" fill="#20546F"/>
<path d="M115.375 117.186C114.946 117.186 114.517 117.022 114.19 116.695L31.3747 34.0507C30.7201 33.3974 30.7201 32.3366 31.3747 31.6833C32.0293 31.03 33.0923 31.03 33.7469 31.6833L116.562 114.33C117.217 114.984 117.217 116.042 116.562 116.698C116.235 117.024 115.806 117.189 115.378 117.189L115.375 117.186Z" fill="#20546F"/>
<path d="M73.9642 134.484C57.9729 134.484 43.0562 129.124 31.9628 119.398C19.4298 108.408 12.8057 92.7524 12.8057 74.1285C12.8057 55.5046 19.4298 39.8493 31.9628 28.8593C43.0562 19.1297 57.9729 13.7734 73.9642 13.7734C89.9556 13.7734 104.872 19.1326 115.969 28.8622C128.502 39.8521 135.129 55.5075 135.129 74.1314C135.129 92.7553 128.504 108.408 115.969 119.401C104.872 129.13 89.9556 134.489 73.9671 134.489L73.9642 134.484ZM73.9642 17.1178C58.7897 17.1178 44.6579 22.1792 34.1757 31.3712C22.3871 41.7079 16.1569 56.4932 16.1569 74.1285C16.1569 91.7639 22.3871 106.546 34.1757 116.886C44.6579 126.078 58.7868 131.139 73.9642 131.139C89.1417 131.139 103.271 126.078 113.753 116.883C125.541 106.546 131.772 91.761 131.772 74.1285C131.772 56.496 125.541 41.7108 113.753 31.3741C103.271 22.1821 89.1388 17.1178 73.9642 17.1178Z" fill="#20546F"/>
<path d="M73.0483 143.924C53.7666 143.924 37.1439 137.328 24.7587 124.702C12.9469 112.663 5.89987 96.0244 4.91797 77.8543C3.93608 59.6842 9.14969 42.387 19.6001 29.1511C31.435 14.1577 48.944 5.62767 70.233 4.48301C83.8318 3.75169 96.1852 6.16821 106.963 11.6603C116.848 16.7014 125.025 24.1013 131.264 33.6575C138.227 44.3237 142.291 57.0364 143.015 70.4227C143.739 83.8089 141.069 96.8858 135.296 108.237C130.123 118.406 122.789 126.644 113.497 132.717C103.371 139.337 91.3365 143.063 77.7319 143.797C76.1562 143.881 74.595 143.924 73.0512 143.924H73.0483ZM70.456 8.65988L70.6819 12.8368C28.973 15.0798 11.6899 47.8791 13.2858 77.4034C14.8818 106.928 35.5885 137.686 77.2771 135.443C100.333 134.203 118.285 123.196 127.82 104.453C138.207 84.0314 136.767 57.418 124.24 38.2275C112.741 20.6153 93.729 11.5996 70.6848 12.8368L70.4589 8.65988H70.456Z" fill="#86A9C0"/>
<path d="M73.4048 148C68.1564 148 62.9254 147.436 57.8045 146.306C44.4055 143.349 31.9797 136.484 21.874 126.457C11.2904 115.955 4.21145 102.974 1.399 88.9111C-1.23388 75.759 -0.136123 61.9884 4.57061 49.0906C9.32948 36.0426 17.5004 24.6364 28.1941 16.1006C39.6032 6.9953 53.5815 1.51478 68.6141 0.248711C79.8581 -0.696505 90.9167 1.05518 101.486 5.45751C111.395 9.58525 120.571 16.0341 128.02 24.1075C135.493 32.2039 141.199 41.9018 144.521 52.1489C148.061 63.0665 148.904 74.2415 147.033 85.3702C144.631 99.638 138.416 112.703 129.06 123.15C120.246 132.992 108.869 140.349 96.1622 144.424C88.7444 146.803 81.0572 148 73.4048 148ZM68.7705 2.08422L68.9269 3.91684C54.6242 5.12221 41.3353 10.3281 30.4996 18.9767C20.3331 27.0905 12.5677 37.9388 8.03766 50.3509C3.56265 62.6127 2.51992 75.6983 5.01666 88.1914C7.6843 101.534 14.4128 113.863 24.475 123.847C34.0855 133.383 45.8856 139.907 58.601 142.713C70.5518 145.352 83.1513 144.731 95.0355 140.918C107.119 137.042 117.935 130.05 126.311 120.696C135.203 110.767 141.112 98.3402 143.398 84.7603C145.17 74.2213 144.368 63.6302 141.014 53.282C137.857 43.5379 132.426 34.3112 125.309 26.602C118.219 18.9189 109.489 12.7822 100.067 8.85682C90.0478 4.68284 79.5713 3.02366 68.924 3.91973L68.7676 2.08711L68.7705 2.08422Z" fill="#20546F"/>
</g>
<defs>
<clipPath id="clip0_363_1587">
<rect width="148" height="148" fill="white"/>
</clipPath>
</defs>
</svg>
