<svg width="162" height="151" viewBox="0 0 162 151" fill="none" xmlns="http://www.w3.org/2000/svg">
<path d="M117.864 2.37793H88.7375V116.959C88.8905 117.06 89.0502 117.147 89.1961 117.262L127.399 147.641C131.647 151.034 137.882 148.008 137.882 142.599V22.4269C137.882 11.3327 128.927 2.37793 117.864 2.37793Z" fill="black"/>
<path d="M131.425 150.722C129.626 150.722 127.848 150.115 126.368 148.933L88.1678 118.556C88.1484 118.543 87.8321 118.339 87.8143 118.33C87.3575 118.02 87.0847 117.507 87.0847 116.958V2.37795C87.0847 1.46436 87.824 0.725098 88.7376 0.725098H117.864C129.814 0.725098 139.535 10.4582 139.535 22.4253V142.6C139.535 145.747 137.776 148.552 134.943 149.915C133.815 150.457 132.616 150.722 131.425 150.722ZM90.3904 116.099L128.427 146.348C129.912 147.536 131.812 147.752 133.51 146.935C135.213 146.115 136.23 144.495 136.23 142.6V22.4253C136.23 12.2822 127.991 4.03081 117.864 4.03081H90.3904V116.099Z" fill="black"/>
<path d="M128.713 22.4269V142.599C128.713 148.008 122.479 151.034 118.231 147.641L80.0275 117.262C77.6741 115.398 74.3427 115.398 71.9895 117.262L33.7864 147.641C29.5382 151.034 23.2729 148.008 23.2729 142.599V22.4269C23.2729 11.3327 32.2583 2.37793 43.3219 2.37793H108.695C119.759 2.37793 128.713 11.3327 128.713 22.4269Z" fill="#5AE4A7"/>
<path d="M29.7562 150.725C28.5585 150.725 27.3527 150.454 26.218 149.908C23.382 148.546 21.6194 145.744 21.6194 142.6V22.4253C21.6194 10.4582 31.3541 0.725098 43.3212 0.725098H108.695C120.644 0.725098 130.366 10.4582 130.366 22.4253V142.6C130.366 145.747 128.606 148.552 125.774 149.915C122.944 151.277 119.663 150.899 117.199 148.933L78.9997 118.556C77.237 117.155 74.7755 117.161 73.0161 118.556L34.8148 148.937C33.3363 150.118 31.5575 150.722 29.7562 150.725ZM43.3212 4.03081C33.1781 4.03081 24.9251 12.2822 24.9251 22.4253V142.6C24.9251 144.491 25.9452 146.109 27.6513 146.932C29.3591 147.752 31.2686 147.539 32.7552 146.351L70.9614 115.967C73.9313 113.617 78.0812 113.61 81.0544 115.967L119.259 146.348C120.744 147.536 122.639 147.752 124.34 146.935C126.043 146.115 127.06 144.495 127.06 142.6V22.4253C127.06 12.2822 118.822 4.03081 108.695 4.03081H43.3212Z" fill="black"/>
<path d="M8.7488 149.072C6.84706 149.072 4.94533 148.311 3.54676 146.806C0.880369 143.933 1.04281 139.44 3.91522 136.77L147.575 4.27538C150.443 1.61295 154.936 1.76747 157.61 4.64384C160.277 7.51625 160.114 12.0091 157.242 14.6795L13.5824 147.174C12.2155 148.442 10.4802 149.072 8.7488 149.072Z" fill="#DDDDDD"/>
<path d="M8.74941 150.725C6.32339 150.725 3.98614 149.708 2.33652 147.933C-0.948215 144.391 -0.744836 138.842 2.79008 135.559L146.455 3.06242C149.985 -0.227153 155.534 -0.0108609 158.82 3.5176C162.104 7.05575 161.899 12.6051 158.367 15.8914L14.7023 148.388C13.0801 149.896 10.9656 150.725 8.74941 150.725ZM152.408 4.03412C151.079 4.03412 149.747 4.51513 148.7 5.48683L5.03532 137.983C2.84012 140.024 2.71422 143.478 4.75931 145.683C6.71723 147.794 10.3329 147.933 12.457 145.964L156.122 13.467C158.315 11.4236 158.441 7.96934 156.398 5.76768C155.327 4.61843 153.868 4.03412 152.408 4.03412Z" fill="black"/>
</svg>
