<svg width="150" height="150" viewBox="0 0 150 150" fill="none" xmlns="http://www.w3.org/2000/svg">
<g clip-path="url(#clip0_210_6043)">
<path d="M147.07 65.9669V26.3672H2.92969V119.971C2.92969 126.442 8.17676 131.689 14.6484 131.689H115.708L131.25 147.07L142.676 135.938L138.097 131.364C143.244 130.131 147.07 125.496 147.07 119.971V91.8457V65.9669Z" fill="#DFEDFF"/>
<path d="M147.07 26.3672H2.92969V14.6484C2.92969 8.17647 8.17647 2.92969 14.6484 2.92969H135.352C141.824 2.92969 147.07 8.17647 147.07 14.6484V26.3672Z" fill="#A0C8FF"/>
<path d="M75 119.971C97.2478 119.971 115.283 101.935 115.283 79.6875C115.283 57.4397 97.2478 39.4043 75 39.4043C52.7522 39.4043 34.7168 57.4397 34.7168 79.6875C34.7168 101.935 52.7522 119.971 75 119.971Z" fill="#FAF7F5"/>
<path d="M75 108.252C90.7757 108.252 103.564 95.4632 103.564 79.6875C103.564 63.9118 90.7757 51.123 75 51.123C59.2243 51.123 46.4355 63.9118 46.4355 79.6875C46.4355 95.4632 59.2243 108.252 75 108.252Z" fill="#FF9C9B"/>
<path d="M116.083 112.482L107.795 120.771L99.041 112.017C102.188 109.67 104.982 106.875 107.329 103.729L116.083 112.482Z" fill="#FAF7F5"/>
<path d="M142.676 135.937L131.25 147.07L106.242 122.323L117.636 110.93L142.676 135.937Z" fill="#FFDA8F"/>
<path d="M75 48.1934C57.634 48.1934 43.5059 62.3215 43.5059 79.6875C43.5059 97.0535 57.634 111.182 75 111.182C92.366 111.182 106.494 97.0535 106.494 79.6875C106.494 62.3215 92.366 48.1934 75 48.1934ZM75 105.322C60.8648 105.322 49.3652 93.8227 49.3652 79.6875C49.3652 65.5523 60.8648 54.0527 75 54.0527C89.1352 54.0527 100.635 65.5523 100.635 79.6875C100.635 93.8227 89.1352 105.322 75 105.322Z" fill="black"/>
<path d="M88.465 66.2216C87.3209 65.0776 85.4658 65.0776 84.3215 66.2216L74.9995 75.5436L65.6773 66.2213C64.5332 65.0773 62.6781 65.0773 61.5338 66.2213C60.3898 67.3654 60.3898 69.2204 61.5338 70.3648L70.8561 79.687L61.5338 89.0093C60.3898 90.1533 60.3898 92.0084 61.5338 93.1528C62.4452 93.9936 64.1304 94.4866 65.6773 93.1528L74.9995 83.8305L84.3218 93.1528C85.2332 93.9936 86.9184 94.4866 88.4653 93.1528C89.6093 92.0087 89.6093 90.1536 88.4653 89.0093L79.143 79.687L88.4653 70.3648C89.609 69.2207 89.609 67.3656 88.465 66.2216Z" fill="black"/>
<path d="M135.352 0H14.6484C6.57129 0 0 6.57129 0 14.6484V119.971C0 128.048 6.57129 134.619 14.6484 134.619H114.502L129.189 149.153C129.76 149.718 130.505 150 131.25 150C131.988 150 132.726 149.723 133.295 149.169L144.72 138.036C145.282 137.489 145.601 136.739 145.605 135.955C145.61 135.172 145.301 134.418 144.746 133.864L143.22 132.34C147.362 129.717 150 125.114 150 119.971V91.8457C150 90.2276 148.688 88.916 147.07 88.916C145.452 88.916 144.141 90.2276 144.141 91.8457V119.971C144.141 123.522 142.045 126.642 138.892 128.018L119.706 108.857C118.741 107.893 117.274 107.746 116.151 108.407L111.121 103.378C115.602 96.5701 118.213 88.4285 118.213 79.6875C118.213 55.8598 98.8277 36.4746 75 36.4746C51.1723 36.4746 31.7871 55.8598 31.7871 79.6875C31.7871 103.515 51.1723 122.9 75 122.9C83.741 122.9 91.8826 120.289 98.6903 115.809L103.72 120.839C103.456 121.288 103.311 121.801 103.313 122.331C103.315 123.11 103.627 123.857 104.181 124.406L108.581 128.76H14.6484C9.80215 128.76 5.85938 124.817 5.85938 119.971V29.2969H144.141V65.9669C144.141 67.585 145.452 68.8966 147.07 68.8966C148.688 68.8966 150 67.585 150 65.9669V14.6484C150 6.57129 143.429 0 135.352 0ZM117.637 115.072L138.504 135.912L131.266 142.965L110.396 122.313L117.637 115.072ZM75 117.041C54.4031 117.041 37.6465 100.284 37.6465 79.6875C37.6465 59.0906 54.4031 42.334 75 42.334C95.5969 42.334 112.354 59.0906 112.354 79.6875C112.354 100.284 95.5969 117.041 75 117.041ZM103.397 112.232C104.871 110.944 106.257 109.559 107.544 108.085L111.94 112.482L107.795 116.627L103.397 112.232ZM144.141 23.4375H5.85938V14.6484C5.85938 9.80215 9.80215 5.85938 14.6484 5.85938H135.352C140.198 5.85938 144.141 9.80215 144.141 14.6484V23.4375Z" fill="black"/>
<path d="M30.7617 17.5781C32.3797 17.5781 33.6914 16.2665 33.6914 14.6484C33.6914 13.0304 32.3797 11.7188 30.7617 11.7188C29.1437 11.7188 27.832 13.0304 27.832 14.6484C27.832 16.2665 29.1437 17.5781 30.7617 17.5781Z" fill="black"/>
<path d="M17.5781 17.5781C19.1961 17.5781 20.5078 16.2665 20.5078 14.6484C20.5078 13.0304 19.1961 11.7188 17.5781 11.7188C15.9601 11.7188 14.6484 13.0304 14.6484 14.6484C14.6484 16.2665 15.9601 17.5781 17.5781 17.5781Z" fill="black"/>
<path d="M43.9453 17.5781C45.5633 17.5781 46.875 16.2665 46.875 14.6484C46.875 13.0304 45.5633 11.7188 43.9453 11.7188C42.3273 11.7188 41.0156 13.0304 41.0156 14.6484C41.0156 16.2665 42.3273 17.5781 43.9453 17.5781Z" fill="black"/>
<path d="M132.422 11.7188H106.055C104.437 11.7188 103.125 13.0304 103.125 14.6484C103.125 16.2665 104.437 17.5781 106.055 17.5781H132.422C134.04 17.5781 135.352 16.2665 135.352 14.6484C135.352 13.0304 134.04 11.7188 132.422 11.7188Z" fill="black"/>
<path d="M147.07 81.9229C148.688 81.9229 150 80.6112 150 78.9932C150 77.3751 148.688 76.0635 147.07 76.0635C145.452 76.0635 144.141 77.3751 144.141 78.9932C144.141 80.6112 145.452 81.9229 147.07 81.9229Z" fill="black"/>
</g>
<defs>
<clipPath id="clip0_210_6043">
<rect width="150" height="150" fill="white"/>
</clipPath>
</defs>
</svg>
