<svg width="138" height="137" viewBox="0 0 138 137" fill="none" xmlns="http://www.w3.org/2000/svg">
<g clip-path="url(#clip0_362_1502)">
<path d="M40.4732 88.9107C42.4083 90.4154 46.4052 94.5021 48.0196 96.4339C48.0843 96.5119 48.1705 96.571 48.2352 96.6489L49.1165 95.8321L59.501 85.4796L59.7759 85.2163C56.9648 82.9916 54.4368 80.474 52.1971 77.6743L51.8117 77.8167L41.341 88.2551L40.4705 88.9134L40.4732 88.9107Z" fill="#D2D5D6"/>
<path d="M51.8115 77.8139L52.1969 77.6715C54.4339 80.4712 56.9647 82.9861 59.7757 85.2135C98.9579 116.239 153.624 72.6444 131.871 27.7256C110.118 -17.1933 41.8718 -1.62832 41.8718 48.2477C41.8718 58.8178 45.4456 69.1085 51.9948 77.4162L51.8115 77.8112V77.8139Z" fill="#3A99D6"/>
<path d="M92.9232 9.29375C92.8154 9.28301 92.7103 9.27495 92.6025 9.2642C41.0819 4.84432 34.1931 82.7094 85.6948 87.3442C137.199 91.9763 144.403 14.1408 92.9232 9.29375Z" fill="#FBF2D5"/>
<path d="M90.0448 88.72C100.467 88.72 109.582 85.2781 116.606 78.6416C123.694 71.9433 128.135 62.4775 129.106 51.9853C130.079 41.4932 127.454 31.3745 121.713 23.4939C115.228 14.5924 105.313 9.27509 93.0337 8.11974L92.7049 8.09019C80.4177 7.03694 69.7072 10.4976 61.7295 18.0987C54.6682 24.8266 50.267 34.3139 49.3399 44.8087C48.4127 55.3036 51.0809 65.4115 56.8513 73.2652C63.3708 82.1399 73.3106 87.4115 85.5924 88.5185C87.1017 88.6528 88.5867 88.7227 90.0448 88.7227V88.72ZM92.8127 10.4654C104.394 11.5562 113.727 16.5403 119.799 24.8777C125.2 32.2934 127.669 41.8424 126.75 51.765C125.831 61.6876 121.651 70.624 114.978 76.9274C107.477 84.0153 97.3891 87.2073 85.8026 86.1675C74.2161 85.125 64.864 80.1812 58.7567 71.8707C53.3233 64.4765 50.8168 54.9409 51.6927 45.0156C52.5714 35.0904 56.7138 26.1351 63.3601 19.8022C70.831 12.682 80.9082 9.44436 92.5001 10.4385L92.81 10.4654H92.8127Z" fill="#02568D"/>
<path d="M103.911 26.3848L89.363 39.7922C86.6086 38.876 76.3912 25.9737 74.6987 26.7045C73.8955 27.0511 67.7128 33.5855 67.8988 34.4856C68.3678 36.7426 81.4635 46.7269 81.221 48.3928L67.3517 62.6089C68.8313 63.732 74.1085 70.0085 75.4695 69.7371L89.3657 56.5796L103.262 69.7371L111.558 62.5874L97.7153 48.5836L111.156 34.2196L103.911 26.3848Z" fill="#F8CD4F"/>
<path d="M75.3697 70.9275C75.4802 70.9275 75.5907 70.9168 75.6985 70.8953C75.9168 70.8523 76.1189 70.7475 76.2833 70.5943L89.3656 58.2079L102.448 70.5943C102.89 71.0108 103.574 71.0269 104.035 70.632L112.331 63.4822C112.579 63.27 112.727 62.9637 112.741 62.6386C112.754 62.3134 112.63 61.9964 112.401 61.7626L99.3539 48.5621L112.021 35.0231C112.444 34.5717 112.444 33.8731 112.026 33.419L104.782 25.5842C104.569 25.3531 104.273 25.2187 103.96 25.2053C103.645 25.1946 103.34 25.3047 103.111 25.517L89.1824 38.3521C87.8159 37.3794 85.11 34.5502 83.0536 32.4007C77.6363 26.7341 75.7551 24.9581 74.2296 25.6164C73.3322 26.0033 70.5912 28.9965 70.0522 29.5903C66.4919 33.5131 66.632 34.1821 66.7425 34.7168C67.0228 36.0709 69.1574 38.1183 73.9628 42.463C75.9869 44.2927 78.9192 46.9446 79.8221 48.1322L66.5053 61.7815C66.2682 62.0233 66.1496 62.3538 66.1738 62.6923C66.1981 63.0282 66.3679 63.3398 66.6374 63.544C67.0524 63.8584 68.0065 64.8445 68.9283 65.7956C72.5317 69.5196 74.1138 70.9221 75.3751 70.9221L75.3697 70.9275ZM89.3629 55.4002C89.0692 55.4002 88.7754 55.5076 88.549 55.7253L75.1487 68.4126C74.0868 67.7409 71.7932 65.3711 70.6262 64.1647C70.0306 63.5467 69.4996 63.0013 69.0496 62.558L82.0672 49.215C82.2396 49.0377 82.3528 48.8093 82.3906 48.5621C82.5792 47.2724 81.1858 45.8189 75.5503 40.7219C73.254 38.645 69.8635 35.5793 69.1574 34.4293C69.9255 33.102 73.7364 29.0018 74.9843 27.9459C76.1648 28.6149 79.2507 31.8418 81.3422 34.0289C85.11 37.9679 87.4952 40.4102 88.991 40.9073C89.4007 41.0443 89.8508 40.9476 90.1688 40.6547L103.847 28.0507L109.544 34.2143L96.8501 47.7803C96.4189 48.2424 96.4269 48.9625 96.8716 49.4112L109.827 62.5203L103.297 68.1466L90.1769 55.7253C89.9478 55.5103 89.6567 55.4002 89.3629 55.4002Z" fill="#03538C"/>
<path d="M48.0197 96.4336C46.4053 94.5018 42.4111 90.4151 40.4733 88.9104C38.4357 87.3252 36.5949 86.3714 34.0723 88.013C29.2345 91.162 7.7514 113.055 3.61973 118.197C-4.16388 127.881 8.44136 140.796 18.1062 133.878C23.8954 129.734 44.0605 109.556 48.5587 103.753C49.7527 102.21 50.6421 100.08 49.7419 98.1532C49.5667 97.7797 48.6072 97.108 48.2326 96.6486C48.1679 96.5707 48.0817 96.5116 48.017 96.4336H48.0197Z" fill="#FACF4F"/>
<path d="M12.2847 137C14.4247 137 16.6617 136.363 18.7962 134.834C24.6178 130.67 44.9662 110.317 49.4967 104.473C51.2836 102.167 51.7661 99.6821 50.8147 97.6535C50.6098 97.2183 50.2002 96.8582 49.7231 96.4391C49.5129 96.2564 49.2515 96.0253 49.1518 95.9017C49.0628 95.7942 48.9793 95.7163 48.92 95.6652L48.9065 95.6518C47.3002 93.7361 43.2332 89.5607 41.2011 87.9809C39.0126 86.2801 36.5573 84.9877 33.4282 87.027C28.4314 90.2808 6.6977 112.482 2.69809 117.461C-1.7597 123.007 -0.121048 129.307 3.47968 133.093C5.61963 135.342 8.82686 137.002 12.2847 137.002V137ZM48.699 98.7068C49.4428 100.399 48.2004 102.288 47.6263 103.03C43.1604 108.788 23.1381 128.824 17.419 132.918C12.9639 136.108 8.06953 134.488 5.19649 131.468C2.3019 128.426 0.978573 123.369 4.54426 118.933C8.97509 113.42 30.1374 91.9843 34.7219 88.9992C36.5573 87.8035 37.7567 88.2925 39.7484 89.8401C41.5164 91.2158 45.4594 95.2085 47.1115 97.186C47.1951 97.2854 47.2759 97.3607 47.3298 97.409L47.3433 97.4225C47.567 97.6884 47.8689 97.9518 48.1626 98.2097C48.3297 98.3548 48.5993 98.5939 48.699 98.7068Z" fill="#03538C"/>
<path d="M49.1165 97.0086C49.4184 97.0086 49.723 96.893 49.952 96.662L60.3365 86.3095C60.7973 85.8501 60.7973 85.1031 60.3365 84.641C59.8756 84.1815 59.1264 84.1815 58.6628 84.641L48.2784 94.9934C47.8175 95.4529 47.8175 96.1998 48.2784 96.662C48.5101 96.893 48.812 97.0086 49.1139 97.0086H49.1165Z" fill="#03538C"/>
<path d="M41.3438 89.4319C41.6456 89.4319 41.9502 89.3164 42.1793 89.0853L52.65 78.6469C53.1108 78.1875 53.1108 77.4405 52.65 76.9784C52.1891 76.5189 51.4398 76.5189 50.9763 76.9784L40.5056 87.4168C40.0447 87.8763 40.0447 88.6232 40.5056 89.0853C40.7374 89.3164 41.0392 89.4319 41.3411 89.4319H41.3438Z" fill="#03538C"/>
<path d="M88.7756 96.8556C89.4089 96.8556 90.0423 96.8422 90.6784 96.8153C100.888 96.3935 111.091 92.5056 119.411 85.8691C127.734 79.2325 133.779 70.1617 136.434 60.3278C139.369 49.4541 138.159 38.0028 132.936 27.2124C127.71 16.4219 119.468 8.35601 109.1 3.88509C99.7233 -0.15863 88.8403 -1.08291 78.4504 1.2869C68.0633 3.6567 58.6626 9.20506 51.9813 16.911C44.5939 25.431 40.6913 36.2671 40.6913 48.2477C40.6913 59.0408 44.3756 69.6566 51.0677 78.147L51.2752 78.4077C53.558 81.2638 56.1723 83.8647 59.0426 86.1377C67.9232 93.1692 78.1674 96.8556 88.7783 96.8556H88.7756ZM89.8752 2.35627C96.2277 2.35627 102.486 3.60028 108.159 6.048C117.996 10.2905 125.829 17.9642 130.804 28.236C135.779 38.5079 136.935 49.395 134.148 59.7125C131.623 69.0655 125.864 77.701 117.932 84.0259C110 90.3507 100.287 94.0559 90.5759 94.4562C79.8654 94.8996 69.4675 91.3825 60.5061 84.2892C57.7759 82.1263 55.291 79.6544 53.1187 76.9353L52.9219 76.6881C46.556 68.6141 43.0523 58.5142 43.0523 48.2477C43.0523 36.8394 46.7581 26.538 53.7682 18.4505C60.1234 11.1208 69.074 5.84111 78.976 3.58416C82.5767 2.76198 86.2421 2.35627 89.8752 2.35627Z" fill="#03538C"/>
</g>
<defs>
<clipPath id="clip0_362_1502">
<rect width="138" height="137" fill="white" transform="matrix(-1 0 0 1 138 0)"/>
</clipPath>
</defs>
</svg>
