<svg width="36" height="36" viewBox="0 0 36 36" fill="none" xmlns="http://www.w3.org/2000/svg">
<g clip-path="url(#clip0_2035_3151)">
<path d="M28.371 10.0077C28.0473 9.68349 27.5222 9.68293 27.1986 10.0063L17.2516 19.927L13.6628 16.0292C13.3526 15.6926 12.8283 15.6708 12.4912 15.9808C12.1542 16.2909 12.1327 16.8155 12.4428 17.1524L16.6162 21.6848C16.769 21.8509 16.9829 21.9474 17.2084 21.9521C17.2145 21.9523 17.2204 21.9523 17.2262 21.9523C17.4453 21.9523 17.6562 21.8653 17.8115 21.7105L28.3693 11.1804C28.6938 10.857 28.6943 10.3319 28.371 10.0077Z" fill="#2F664E"/>
<path d="M28.1708 17.1708C27.7129 17.1708 27.3417 17.542 27.3417 18C27.3417 23.1512 23.1512 27.3417 18 27.3417C12.8491 27.3417 8.65829 23.1512 8.65829 18C8.65829 12.8491 12.8491 8.65829 18 8.65829C18.458 8.65829 18.8292 8.28713 18.8292 7.82917C18.8292 7.37116 18.458 7 18 7C11.9345 7 7 11.9345 7 18C7 24.0652 11.9345 29 18 29C24.0652 29 29 24.0652 29 18C29 17.542 28.6288 17.1708 28.1708 17.1708Z" fill="#2F664E"/>
</g>
<defs>
<clipPath id="clip0_2035_3151">
<rect width="22" height="22" fill="white" transform="translate(7 7)"/>
</clipPath>
</defs>
</svg>
