<svg width="12" height="7" viewBox="0 0 12 7" fill="none" xmlns="http://www.w3.org/2000/svg">
<path d="M5.64015 6.11013L5.64039 6.10988L0.903969 1.60492C0.698677 1.40966 0.698677 1.08665 0.903969 0.89139C1.10457 0.700591 1.4188 0.706597 1.6185 0.887044L1.62325 0.891331L1.62319 0.89139L6 5.05432L10.3768 0.89139C10.5774 0.700591 10.8916 0.706597 11.0913 0.887044L11.0961 0.89133L11.096 0.89139C11.3013 1.08665 11.3013 1.40966 11.096 1.60492M5.64015 6.11013L11.096 1.60492M5.64015 6.11013L5.65011 6.11865C5.74726 6.20182 5.87401 6.25 6 6.25C6.12221 6.25 6.2519 6.21233 6.35961 6.10988L11.096 1.60492M5.64015 6.11013L10.9237 1.42377L11.096 1.60492" fill="#E1E1E1" stroke="#E1E1E1" stroke-width="0.5"/>
</svg>
