<svg fill="none" height="89" viewBox="0 0 89 89" width="89" xmlns="http://www.w3.org/2000/svg" xmlns:xlink="http://www.w3.org/1999/xlink"><clipPath id="a"><path d="m.724365.430664h88v88h-88z"/></clipPath><g clip-path="url(#a)"><path d="m44.7246 32.8076c-11.6151 0-21.0308 9.4155-21.0308 21.0306v22.5342h42.0613v-22.5342c0-11.6149-9.4157-21.0306-21.0305-21.0306z" fill="#f74c48"/><path d="m52.0132 34.1059c-2.2708-.8391-4.7261-1.298-7.2886-1.298-11.6151 0-21.0308 9.4154-21.0308 21.0306v22.5342h14.5776v-22.5344c0-9.0523 5.7193-16.7683 13.7418-19.7324z" fill="#d63322"/><path d="m16.0147 53.2599h-11.5469c-1.35696 0-2.4573-1.1-2.4573-2.4571 0-1.3572 1.10034-2.4573 2.4573-2.4573h11.5467c1.357 0 2.4573 1.1001 2.4573 2.4573 0 1.3569-1.1003 2.4571-2.4571 2.4571z" fill="#c6271a"/><path d="m84.9809 53.2599h-11.5466c-1.3572 0-2.4572-1.1-2.4572-2.4571 0-1.3572 1.1-2.4573 2.4572-2.4573h11.5464c1.3573 0 2.4573 1.1001 2.4573 2.4573 0 1.3569-1.1 2.4571-2.4571 2.4571z" fill="#c6271a"/><path d="m74.9277 24.0744-8.1648 8.1647c-.9599.9598-2.5156.9598-3.475 0-.9601-.9596-.9601-2.5154 0-3.475l8.1646-8.1647c.9596-.9598 2.5152-.9596 3.4752 0 .9595.9597.9595 2.5155 0 3.475z" fill="#c6271a"/><path d="m47.1819 10.5459v11.5469c0 1.3572-1.1005 2.4573-2.4573 2.4573-1.3571-.0001-2.4573-1.1001-2.4573-2.4573v-11.5469c0-1.3571 1.1002-2.45693 2.4573-2.45728 1.3568.00052 2.4573 1.10052 2.4573 2.45728z" fill="#c6271a"/><path d="m17.9962 20.5996 8.1646 8.1647c.9596.9598.9596 2.5156 0 3.475-.9599.9596-2.5154.9597-3.475 0l-8.1647-8.1648c-.9599-.9594-.9596-2.5152 0-3.4749.9594-.9596 2.5154-.9596 3.4751 0z" fill="#c6271a"/><path d="m69.4479 80.7725h-49.4469c-1.357 0-2.4573-1.1002-2.4573-2.4573s1.1003-2.4573 2.4573-2.4573h49.4469c1.3569 0 2.4571 1.1002 2.4571 2.4573s-1.1002 2.4573-2.4571 2.4573z" fill="#585a60"/><path d="m69.4479 78.3155h-49.4469c-.9087 0-1.7005-.495-2.1257-1.2286-.9472 1.6347.2361 3.6859 2.1257 3.6859h49.4469c1.8858 0 3.0745-2.0476 2.1258-3.6859-.4252.7336-1.2169 1.2286-2.1258 1.2286z" fill="#414356"/><g fill="#000"><path d="m19.7581 50.803c0-2.0642-1.6793-3.7434-3.7434-3.7434h-11.5469c-2.06422 0-3.743435 1.6794-3.743435 3.7434 0 2.0641 1.679395 3.7433 3.743435 3.7433h11.5467c2.0643.0001 3.7436-1.6792 3.7436-3.7433zm-3.7434 1.171h-11.5469c-.64573 0-1.17098-.5253-1.17098-1.1708 0-.6458.52525-1.171 1.17098-1.171h11.5467c.6458 0 1.171.5252 1.171 1.171.0002.6454-.5252 1.1708-1.1708 1.1708z"/><path d="m84.9809 47.0596h-11.5465c-2.0643 0-3.7435 1.6794-3.7435 3.7434 0 2.0641 1.6794 3.7433 3.7435 3.7433h11.5463c2.0643 0 3.7435-1.6794 3.7435-3.7433.0002-2.064-1.6792-3.7434-3.7433-3.7434zm0 4.9144h-11.5465c-.6458 0-1.171-.5253-1.171-1.1708 0-.6458.5254-1.171 1.171-1.171h11.5463c.6458 0 1.171.5252 1.171 1.171.0002.6454-.5252 1.1708-1.1708 1.1708z"/><path d="m67.6727 33.149 8.1647-8.1648c2.3502-2.3505.6769-6.3904-2.6474-6.3904-.9998 0-1.9399.3894-2.6468 1.0963l-8.1643 8.1646c-1.4631 1.4628-1.4638 3.8308-.0003 5.2941 1.4625 1.4632 3.8304 1.4634 5.2941.0002zm4.6898-11.6399c.221-.221.5149-.3429.8275-.3429 1.0399 0 1.5639 1.2633.8281 1.9989l-8.1645 8.1648c-.7408.7407-1.9993.2057-1.9993-.8278 0-.6679-.3259-.1588 8.5082-8.993z"/><path d="m44.7245 25.8364c2.0644 0 3.7436-1.6793 3.7436-3.7434v-11.5471c0-2.06368-1.6792-3.74289-3.7438-3.74341-2.0641.00052-3.7431 1.67991-3.7431 3.74341v11.5469c-.0002 2.0641 1.6792 3.7435 3.7433 3.7436zm-1.171-15.2905c0-.64553.5252-1.17078 1.1706-1.17096.6461.00018 1.1714.52543 1.1714 1.17096v11.5469c0 .6458-.5253 1.1708-1.1709 1.171-.6459-.0002-1.1711-.5252-1.1711-1.171z"/><path d="m21.7764 33.1487c.707.7071 1.6471 1.0966 2.6469 1.0966.9996 0 1.9398-.3893 2.6471-1.0964 1.4595-1.4594 1.4595-3.8342.0001-5.2941l-8.1647-8.165c-2.3676-2.3665-6.39-.6589-6.3907 2.6473 0 1.0001.3895 1.9401 1.0966 2.6468zm-4.6897-11.6397 8.1645 8.1647c.4565.4567.4565 1.1995.0002 1.6559-.2212.2212-.5154.3432-.8281.3432-.3126 0-.6065-.1217-.8276-.3431-8.8336-8.8335-8.5079-8.3242-8.5079-8.9926.0003-1.0474 1.2679-1.5593 1.9989-.8281z"/><path d="m69.4478 74.5717h-2.4066v-11.3733c0-.7104-.5758-1.2863-1.2863-1.2863s-1.2863.5759-1.2863 1.2863v11.3733h-39.4885v-20.7335c0-10.887 8.8573-19.7443 19.7445-19.7443 10.8869 0 19.7442 8.8573 19.7442 19.7443v3.3575c0 .7103.5757 1.2863 1.2863 1.2863.7105 0 1.2863-.576 1.2863-1.2863v-3.3575c0-12.3055-10.0112-22.3167-22.3166-22.3167-12.3058 0-22.317 10.0114-22.317 22.3167v20.7335h-2.4065c-2.0643 0-3.7435 1.6794-3.7435 3.7434 0 2.0641 1.6794 3.7435 3.7435 3.7435h5.6457c.7105 0 1.2863-.576 1.2863-1.2863 0-.7104-.5758-1.2863-1.2863-1.2863h-5.6457c-.6458 0-1.171-.5253-1.171-1.171 0-.6458.5254-1.171 1.171-1.171h49.4468c.6458 0 1.1709.5252 1.1709 1.171 0 .6457-.5253 1.171-1.1709 1.171h-37.7989c-.7105 0-1.2863.5759-1.2863 1.2863 0 .7103.5758 1.2863 1.2863 1.2863h37.7986c2.064 0 3.7433-1.6794 3.7433-3.7435 0-2.064-1.6793-3.7434-3.7433-3.7434z"/></g></g></svg>