<svg width="16" height="10" viewBox="0 0 16 10" fill="none" xmlns="http://www.w3.org/2000/svg">
<path d="M8.89304 8.8872L8.89334 8.8869L14.8791 2.88944L14.8792 2.88949L14.8833 2.88515C15.3537 2.39077 15.3937 1.60107 14.8742 1.10833C14.3731 0.632977 13.5872 0.626644 13.1003 1.1128L7.98343 6.22231L2.86652 1.1128C2.38208 0.629065 1.59283 0.629065 1.10839 1.1128L1.10814 1.11256L1.09933 1.12233C0.879086 1.3667 0.75 1.66891 0.75 2.00127C0.75 2.32194 0.851199 2.63292 1.10839 2.88974L7.11455 8.8872L7.11449 8.88726L7.11914 8.89167C7.62024 9.36702 8.40617 9.37336 8.89304 8.8872Z" fill="#00457A" stroke="#00457A" stroke-width="0.5"/>
</svg>
