<svg width="37" height="37" viewBox="0 0 37 37" fill="none" xmlns="http://www.w3.org/2000/svg">
<g clip-path="url(#clip0_2588_2095)">
<path d="M28.5184 10.7206C28.1948 10.3964 27.6697 10.3958 27.346 10.7192L17.399 20.6399L13.8102 16.7421C13.5001 16.4055 12.9758 16.3836 12.6386 16.6937C12.3017 17.0038 12.2801 17.5284 12.5902 17.8653L16.7636 22.3977C16.9165 22.5638 17.1304 22.6603 17.3559 22.6649C17.362 22.6652 17.3678 22.6652 17.3736 22.6652C17.5928 22.6652 17.8036 22.5782 17.959 22.4234L28.5168 11.8932C28.8412 11.5699 28.8418 11.0448 28.5184 10.7206Z" fill="#D2D2D2"/>
<path d="M28.3183 17.8837C27.8603 17.8837 27.4892 18.2549 27.4892 18.7129C27.4892 23.8641 23.2987 28.0546 18.1475 28.0546C12.9965 28.0546 8.80575 23.8641 8.80575 18.7129C8.80575 13.562 12.9965 9.37118 18.1475 9.37118C18.6054 9.37118 18.9766 9.00002 18.9766 8.54206C18.9766 8.08405 18.6054 7.71289 18.1475 7.71289C12.082 7.71289 7.14746 12.6474 7.14746 18.7129C7.14746 24.7781 12.082 29.7129 18.1475 29.7129C24.2127 29.7129 29.1475 24.7781 29.1475 18.7129C29.1475 18.2549 28.7763 17.8837 28.3183 17.8837Z" fill="#D2D2D2"/>
</g>
<defs>
<clipPath id="clip0_2588_2095">
<rect width="22" height="22" fill="white" transform="translate(7.14746 7.71289)"/>
</clipPath>
</defs>
</svg>
