<svg fill="none" height="19" viewBox="0 0 19 19" width="19" xmlns="http://www.w3.org/2000/svg"><path d="m9.49997.160004c-5.15 0-9.339997 4.189996-9.339997 9.339996s4.189997 9.34 9.339997 9.34c5.15003 0 9.34003-4.19 9.34003-9.34s-4.19-9.339996-9.34003-9.339996zm0 17.699996c-4.61 0-8.36-3.75-8.36-8.36s3.75-8.36 8.36-8.36c4.61003 0 8.36003 3.75 8.36003 8.36s-3.75 8.36-8.36003 8.36zm2.32003-8.71c.19.19.19.5 0 .7l-2.95003 2.95c-.1.1-.22.14-.35.14s-.25-.05-.35-.14c-.19-.19-.19-.5 0-.69l2.60003-2.6-2.60003-2.6c-.19-.19-.19-.5 0-.7s.5-.19.7 0z" fill="#fff"/></svg>