<svg fill="none" height="72" viewBox="0 0 71 72" width="71" xmlns="http://www.w3.org/2000/svg"><path d="m34.8757 66c16.5686 0 30-13.4315 30-30s-13.4314-30-30-30c-16.5685 0-29.99997 13.4315-29.99997 30s13.43147 30 29.99997 30z" fill="#ffc200"/><path d="m34.4532 60.0846c13.0682 0 23.662-10.5939 23.662-23.662 0-13.0682-10.5938-23.662-23.662-23.662-13.0681 0-23.6619 10.5938-23.6619 23.662 0 13.0681 10.5938 23.662 23.6619 23.662z" stroke="#fff" stroke-miterlimit="10" stroke-width="2"/><path d="m34.4532 60.0846c13.0682 0 23.662-10.5939 23.662-23.662 0-13.0682-10.5938-23.662-23.662-23.662-13.0681 0-23.6619 10.5938-23.6619 23.662 0 13.0681 10.5938 23.662 23.6619 23.662z" stroke="#fff" stroke-dasharray="259 259" stroke-miterlimit="10" stroke-width="2"/><g fill="#fff"><path d="m36.3038 39.1217v-2.1c-.0162-.4014-.1871-.781-.4769-1.0593-.2897-.2783-.6759-.4337-1.0776-.4337-.4018 0-.788.1554-1.0777.4337-.2898.2783-.4606.6579-.4768 1.0593v1.8955c-.0038 2.2947-.8799 4.5021-2.4507 6.1749l-2.1846 2.3442c-.0432.0462-.0767.1006-.0984.1601-.0216.0595-.031.1227-.0275.1859.0034.0632.0197.125.0477.1817.0281.0568.0673.1072.1154.1484.0989.0855.2269.1295.3574.1229.1306-.0066.2535-.0634.3432-.1584l2.182-2.3409c1.7357-1.8466 2.7037-4.2845 2.7076-6.8188v-1.8955c.0056-.1454.0673-.283.1722-.3838.1048-.1009.2447-.1572.3902-.1572s.2853.0563.3902.1572c.1048.1008.1665.2384.1722.3838v2.1c-.005 2.8234-1.0916 5.5376-3.0364 7.5845l-2.127 2.2589c-.0436.0458-.0775.1001-.0995.1594-.022.0594-.0317.1226-.0285.1858.0031.0632.0191.1252.0469.182.0278.0569.0669.1075.1149.1488.0984.0859.2262.1306.3567.1246s.2537-.0621.3438-.1567l2.1271-2.2572c2.1102-2.2211 3.2891-5.1664 3.2941-8.2301z"/><path d="m38.4207 37.026c-.0172-.9573-.4134-1.8687-1.1018-2.5342-.6884-.6654-1.6127-1.0305-2.5701-1.0151-.9572-.0152-1.8813.35-2.5695 1.0154s-1.0843 1.5767-1.1015 2.5339v1.8921c-.0034 1.787-.6865 3.5057-1.9107 4.8076l-1.5507 1.6665c-.0433.0461-.0767.1006-.0984.16-.0217.0595-.031.1227-.0275.1859.0034.0632.0197.1251.0477.1818.0281.0567.0673.1072.1154.1483.0989.0855.2269.1296.3574.123.1306-.0067.2535-.0634.3432-.1585l1.5507-1.6639c1.3877-1.4761 2.1617-3.4248 2.1651-5.4507v-1.8921c.0131-.6981.3024-1.3625.8046-1.8475.5021-.4851 1.1761-.7512 1.8742-.7401.6983-.0114 1.3725.2547 1.8748.7398.5024.4851.7918 1.1496.8049 1.8478v2.0957c-.0064 3.3348-1.2901 6.5404-3.5873 8.9578l-1.7941 1.9081c-.0436.0459-.0775.1001-.0996.1594s-.0318.1225-.0288.1857c.0031.0633.019.1252.0467.1821.0278.0569.0668.1075.1147.1489.0984.0859.2262.1306.3567.1246s.2537-.0621.3439-.1567l1.794-1.9065c2.4629-2.5915 3.8392-6.0282 3.846-9.6034z"/><path d="m40.5375 37.0217c-.0287-1.508-.654-2.9431-1.7389-3.9908s-2.541-1.6225-4.049-1.5985c-1.5082-.0242-2.9644.5505-4.0495 1.5982-1.0851 1.0478-1.7106 2.483-1.7392 3.9911v1.8963c-.0034 1.2788-.4931 2.5085-1.3699 3.4394l-1.3935 1.4975c-.0433.0462-.0768.1006-.0984.1601-.0217.0595-.0311.1227-.0276.1859s.0197.125.0478.1817c.028.0568.0673.1072.1154.1484.0988.0855.2269.1295.3574.1229s.2534-.0634.3431-.1584l1.3969-1.4983c1.0398-1.1042 1.6208-2.5625 1.6251-4.0792v-1.8963c.0236-1.2496.5416-2.4389 1.4406-3.3071.899-.8683 2.1055-1.3447 3.3552-1.3248 1.2496-.0199 2.4562.4565 3.3552 1.3248.899.8682 1.417 2.0575 1.4406 3.3071v2.1008c-.0078 3.8476-1.4897 7.546-4.1409 10.3344l-.4969.5273c-.0436.0459-.0774.1002-.0994.1595-.022.0594-.0317.1226-.0286.1858.0032.0632.0191.1251.047.182.0278.0568.0668.1075.1148.1488.0984.0859.2262.1305.3567.1246.1306-.006.2537-.0622.3439-.1567l.4969-.5274c2.815-2.9628 4.3878-6.8915 4.3952-10.9783z"/><path d="m26.8442 37.0217c.0011.064.0148.1272.0404.186.0255.0587.0623.1118.1084.1563s.1005.0795.16.103c.0596.0235.1233.035.1873.0339.064.0011.1277-.0104.1872-.0339.0596-.0235.114-.0585.1601-.103.046-.0445.0829-.0976.1084-.1563.0255-.0588.0393-.122.0404-.186.0053-1.6248.6156-3.1893 1.7121-4.3884 1.1021-1.211 2.5946-1.9965 4.2169-2.2192.0636-.0073.1251-.0272.1809-.0585.0559-.0314.1049-.0736.1442-.1241.0394-.0505.0682-.1083.085-.1701.0167-.0619.0209-.1264.0124-.1898-.0217-.129-.0937-.2441-.2001-.3202-.1065-.076-.2387-.1067-.3678-.0855-1.8549.254-3.5618 1.1513-4.8228 2.5352-1.2525 1.3726-1.9487 3.1625-1.953 5.0206z"/><path d="m27.8361 38.918c-.0114-.1231-.0683-.2376-.1597-.3209s-.2106-.1294-.3342-.1294-.2428.0461-.3342.1294-.1483.1978-.1597.3209c-.0015.7705-.2961 1.5117-.824 2.0729l-1.2456 1.3352c-.0434.0461-.077.1006-.0987.1601-.0218.0594-.0312.1227-.0277.1859.0035.0633.0198.1251.0479.1819.0281.0567.0675.1071.1157.1482.0988.0855.2268.1296.3574.1229.1305-.0066.2534-.0633.3431-.1584l1.2423-1.3327c.6912-.7355 1.0765-1.7067 1.0774-2.716z"/><path d="m41.6811 43.194c-.1251-.0334-.2583-.0168-.3713.0463-.1131.0631-.1972.1677-.2346.2917-.1837.679-.4095 1.3459-.676 1.9969-.0237.059-.0352.1222-.0339.1858s.0154.1263.0414.1843.0635.1103.1101.1535c.0466.0433.1014.0767.1613.0984.0582.0224.1201.0338.1825.0338.0978.0005.1936-.0278.2754-.0815s.1459-.1303.1843-.2202c.2816-.686.5204-1.3887.7149-2.1042.0159-.0617.0193-.1259.01-.1889s-.0311-.1235-.0641-.178c-.0329-.0545-.0765-.1018-.128-.1392s-.11-.0642-.172-.0787z"/><path d="m40.0299 31.3444c-.099-.0856-.2273-.1297-.358-.1229-.1308.0068-.2538.0639-.3434.1593-.0434.0461-.077.1005-.0987.16s-.0312.1228-.0277.186.0198.1251.0479.1818.0675.1072.1157.1482c.7159.6149 1.2915 1.3764 1.6878 2.2329.3962.8565.6039 1.7882.6091 2.7319v2.1c-.0001.7985-.0566 1.596-.169 2.3865-.0081.0633-.0035.1275.0134.1889.017.0615.0459.119.0852.1692s.0882.0921.1438.1234c.0555.0312.1168.0511.1801.0585.0227.0029.0456.0043.0684.0042.118.0015.2325-.0396.3226-.1156.0902-.076.15-.182.1684-.2985.1187-.8339.1783-1.6751.1783-2.5174v-2.0992c-.0052-1.079-.2422-2.1443-.6949-3.1237-.4527-.9795-1.1106-1.8503-1.929-2.5535z"/><path d="m37.71 30.9897c.0668.0307.1394.0466.213.0464.0928.0009.184-.0242.2633-.0724.0793-.0483.1435-.1177.1854-.2005.0276-.0572.0435-.1193.0466-.1826.0031-.0634-.0066-.1268-.0286-.1863-.0219-.0596-.0556-.1141-.0991-.1603-.0434-.0463-.0958-.0833-.1538-.1089-.7164-.3291-1.4772-.5512-2.2581-.6591-.1281-.0198-.259.0117-.3641.0876-.1052.0759-.1763.1901-.1978.318-.0085.0635-.0043.128.0124.1898s.0456.1197.085.1702c.0393.0505.0883.0927.1441.124.0559.0314.1174.0513.181.0586.6815.0944 1.3455.2883 1.9707.5755z"/><path d="m34.7491 27.3439c-.1817 0-.3736.0051-.5578.0152-.064.0022-.1269.017-.1851.0436-.0582.0265-.1107.0643-.1542.1112-.0436.0469-.0775.1019-.0998.1619-.0222.06-.0324.1239-.0299.1878.0095.1293.0699.2495.168.3343s.2258.1271.3551.1178c.169-.0093.338-.0135.507-.0135 2.3521-.0366 4.6228.8605 6.3146 2.4948 1.6919 1.6344 2.667 3.8727 2.7116 6.2247v2.0991c0 .1316.0523.2577.1453.3508.093.093.2192.1453.3508.1453.1315 0 .2577-.0523.3508-.1453.093-.0931.1452-.2192.1452-.3508v-2.0983c-.0493-2.6112-1.1319-5.0963-3.0105-6.9105-1.8786-1.8143-4.3998-2.8097-7.0111-2.7681z"/><path d="m29.3247 29.9433c.1006.0005.1992-.0289.2831-.0845.825-.5544 1.735-.9703 2.6941-1.2313.0618-.0156.1198-.0434.1707-.0817.0509-.0384.0936-.0866.1256-.1417.0319-.0552.0525-.1161.0606-.1794.008-.0632.0033-.1274-.0138-.1887-.0389-.1242-.1247-.2282-.2391-.2901s-.2485-.0767-.3736-.0412c-1.0649.2892-2.0754.7505-2.9916 1.3656-.053.0347-.0985.0797-.1337.1325-.0352.0527-.0593.112-.0709.1743-.0117.0624-.0105.1264.0033.1882.0138.0619.0401.1203.0771.1718.0468.0643.1082.1165.1792.1524.071.0358.1495.0543.229.0538z"/><path d="m25.7192 38.9181v-1.8955c.004-2.2383.8882-4.3852 2.4617-5.9771.0444-.045.0793-.0986.1024-.1574.0231-.0589.0341-.1218.0322-.185s-.0166-.1254-.0432-.1827c-.0266-.0574-.0646-.1087-.1117-.151-.0969-.0877-.224-.1346-.3547-.1308s-.2549.0579-.3467.1511c-1.7457 1.7668-2.727 4.1491-2.7321 6.6329v1.8955c-.0004.262-.1004.5139-.2797.7048l-.6118.6566c-.0434.0461-.077.1006-.0987.1601-.0218.0594-.0312.1227-.0277.1859.0035.0633.0198.1251.0479.1819.0281.0567.0674.1071.1156.1482.0989.0855.2269.1296.3575.1229.1305-.0066.2534-.0633.3431-.1584l.6118-.6566c.3423-.3645.5332-.8454.5341-1.3454z"/><path d="m46.2579 33.2925c-.5466-1.5661-1.4233-2.9964-2.5707-4.1941-.0906-.0941-.214-.1496-.3446-.155-.1305-.0053-.258.0399-.356.1263-.0476.0416-.0862.0925-.1136.1495-.0273.057-.0429.119-.0456.1822-.0028.0631.0073.1262.0295.1854.0223.0592.0564.1133.1001.1589 1.0536 1.1001 1.8585 2.4137 2.3603 3.8518.035.0963.0989.1794.1831.2378.0841.0585.1843.0893.2868.0884.0536-.0001.107-.0086.158-.0253.0608-.0185.1173-.049.1661-.0897s.089-.0908.1181-.1473c.0292-.0565.0467-.1182.0516-.1816.0049-.0633-.003-.127-.0231-.1873z"/><path d="m38.6703 25.9277c-.1231-.0418-.2577-.0341-.3752.0216s-.2088.155-.2543.2768c-.0202.0601-.0281.1236-.0233.1868.0048.0633.0222.1249.0511.1813.029.0564.069.1064.1176.1471.0487.0407.1049.0712.1656.0898 1.0905.3613 2.1193.8874 3.0507 1.56.106.0765.2374.109.3668.0909s.2469-.0855.3278-.1881c.0389-.05.0672-.1074.0832-.1687s.0194-.1252.01-.1879c-.0094-.0626-.0314-.1227-.0647-.1766s-.0772-.1005-.1291-.1369c-1.0156-.7319-2.1373-1.3038-3.3262-1.6961z"/><path d="m27.0403 29.2546c2.0987-1.9369 4.8529-3.0075 7.7087-2.9966.5355 0 1.0703.037 1.6006.1107.1282.0198.259-.0117.3642-.0876.1051-.0759.1762-.1902.1978-.3181.0085-.0634.0043-.1279-.0125-.1897-.0167-.0619-.0456-.1197-.0849-.1702-.0394-.0505-.0884-.0927-.1442-.1241-.0558-.0313-.1173-.0512-.181-.0585-.5765-.0802-1.1579-.1206-1.74-.1208-3.1103-.0122-6.1099 1.1535-8.3957 3.2628-2.2415 2.046-3.5827 4.8955-3.731 7.9267-.0019.064.0088.1277.0316.1875s.0571.1145.1011.161.0967.0838.1551.1099c.0585.026.1215.0403.1854.0419h.0237c.1255.002.2469-.0444.3391-.1295s.1481-.2024.1561-.3277c.1364-2.783 1.3679-5.3992 3.4259-7.2777z"/><path d="m34.749 23.2554c-1.1056-.0003-2.2077.1235-3.2857.3693-.0623.013-.1215.0383-.174.0745-.0524.0361-.0971.0824-.1315.1361-.0343.0537-.0575.1137-.0683.1765-.0109.0628-.009.1272.0054.1892.0332.1257.1144.2333.2261.2998s.245.0866.3714.056c1.0028-.2284 2.0281-.3435 3.0566-.3431 1.7759-.0103 3.536.3331 5.1778 1.0101s3.1325 1.674 4.385 2.933c.0926.0922.2173.1451.348.1476.1307.0026.2573-.0455.3534-.1341.0466-.0426.0842-.0943.1103-.1519s.0402-.1198.0416-.183c.0013-.0632-.0102-.126-.0338-.1847-.0237-.0586-.0589-.1118-.1037-.1564-1.3155-1.3232-2.8781-2.3752-4.5989-3.0964-1.7976-.7575-3.7291-1.146-5.6797-1.1425z"/><path d="m23.6038 29.2216c.1046.0784.2354.1134.3652.0976.1297-.0157.2484-.081.3312-.1821 1.4294-1.7539 3.2824-3.1145 5.3839-3.9532.0594-.0226.1137-.0569.1596-.101.0458-.044.0823-.0968.1073-.1552.025-.0585.038-.1214.0382-.1849.0002-.0636-.0125-.1265-.0372-.1851-.0542-.1181-.1517-.2108-.2723-.2591-.1206-.0482-.2551-.0484-.3759-.0004-2.2582.9021-4.249 2.3651-5.7845 4.2507-.0401.0492-.0698.1059-.0873.1668s-.0224.1248-.0145.1877.0285.1235.0605.1782.0749.1024.1258.14z"/><path d="m27.8699 23.6848c.0745 0 .1481-.0165.2155-.0482 2.0862-.973 4.3614-1.474 6.6634-1.467 1.2114-.0005 2.4189.1373 3.5991.4107.1269.0319.2613.0126.3741-.0539.1128-.0664.1949-.1746.2284-.3011.0147-.062.0168-.1264.0062-.1893-.0105-.0629-.0336-.1231-.0678-.1769-.0341-.0539-.0787-.1004-.1311-.1367-.0525-.0364-.1116-.0619-.174-.0751-1.2575-.2909-2.5442-.4372-3.8349-.436-2.4524-.0076-4.8763.5263-7.0986 1.5633-.058.0259-.1102.0632-.1535.1097-.0432.0465-.0766.1013-.0981.1611-.0216.0597-.0308.1232-.0272.1866.0035.0634.0199.1254.0481.1824.0424.0826.107.1516.1866.1994s.171.0724.2638.071z"/><path d="m40.422 23.2166c.5132.1987 1.0156.4244 1.5051.6761.0716.0367.151.0558.2315.0557.0891.0008.1768-.0223.2539-.0669s.1409-.109.1847-.1866c.0313-.056.0508-.1178.0573-.1816.0065-.0639-.0001-.1283-.0194-.1895s-.051-.1178-.0929-.1663c-.042-.0485-.0934-.0879-.1512-.1158-.5222-.2667-1.0582-.5057-1.6056-.7158-.1207-.0465-.2548-.0446-.3741.0053s-.2148.144-.2665.2626c-.0238.059-.0355.1221-.0344.1857s.015.1264.0409.1845.0632.1104.1097.1538.1012.077.161.0988z"/></g></svg>