<svg width="47" height="48" viewBox="0 0 47 48" fill="none" xmlns="http://www.w3.org/2000/svg">
<path d="M26.9702 28.0378V25.6778C26.9517 25.2267 26.7563 24.8001 26.425 24.4874C26.0937 24.1746 25.6521 24 25.1927 24C24.7333 24 24.2918 24.1746 23.9605 24.4874C23.6291 24.8001 23.4338 25.2267 23.4152 25.6778V27.8079C23.4109 30.3867 22.4091 32.8674 20.613 34.7473L18.1151 37.3817C18.0656 37.4335 18.0273 37.4947 18.0025 37.5616C17.9778 37.6284 17.967 37.6995 17.971 37.7705C17.975 37.8415 17.9936 37.911 18.0256 37.9747C18.0577 38.0385 18.1026 38.0952 18.1576 38.1414C18.2706 38.2375 18.417 38.287 18.5663 38.2796C18.7155 38.2721 18.8561 38.2084 18.9587 38.1015L21.4536 35.4709C23.4383 33.3957 24.5452 30.656 24.5496 27.8079V25.6778C24.5561 25.5144 24.6267 25.3598 24.7466 25.2465C24.8664 25.1331 25.0263 25.0698 25.1927 25.0698C25.3591 25.0698 25.519 25.1331 25.6389 25.2465C25.7588 25.3598 25.8293 25.5144 25.8358 25.6778V28.0378C25.8301 31.2107 24.5877 34.2609 22.3639 36.5611L19.9317 39.0996C19.8819 39.1512 19.8432 39.2122 19.818 39.2789C19.7929 39.3456 19.7817 39.4166 19.7854 39.4877C19.789 39.5587 19.8072 39.6283 19.839 39.6922C19.8708 39.7561 19.9155 39.813 19.9704 39.8594C20.0829 39.956 20.229 40.0061 20.3783 39.9994C20.5275 39.9927 20.6684 39.9296 20.7714 39.8233L23.2036 37.2867C25.6165 34.7907 26.9645 31.4807 26.9702 28.0378Z" fill="#00457A"/>
<path d="M28.9702 25.1008C28.9514 23.9949 28.5164 22.942 27.7607 22.1733C27.0049 21.4046 25.9902 20.9828 24.9393 21.0005C23.8885 20.983 22.874 21.4049 22.1184 22.1736C21.3629 22.9423 20.928 23.9951 20.9092 25.1008V27.2866C20.9055 29.351 20.1556 31.3365 18.8117 32.8405L17.1093 34.7656C17.0618 34.8189 17.025 34.8819 17.0012 34.9506C16.9775 35.0193 16.9672 35.0923 16.971 35.1653C16.9748 35.2383 16.9926 35.3097 17.0234 35.3753C17.0542 35.4408 17.0973 35.4991 17.1501 35.5466C17.2586 35.6454 17.3992 35.6963 17.5425 35.6887C17.6858 35.681 17.8207 35.6154 17.9192 35.5056L19.6216 33.5834C21.145 31.8782 21.9948 29.627 21.9984 27.2866V25.1008C22.0128 24.2944 22.3304 23.5269 22.8817 22.9665C23.433 22.4062 24.1729 22.0987 24.9393 22.1115C25.7058 22.0984 26.4459 22.4058 26.9974 22.9662C27.5489 23.5265 27.8667 24.2942 27.8811 25.1008V27.5219C27.874 31.3743 26.4647 35.0775 23.9429 37.8701L21.9733 40.0745C21.9254 40.1274 21.8882 40.19 21.864 40.2586C21.8397 40.3271 21.829 40.4001 21.8324 40.4731C21.8358 40.5461 21.8532 40.6177 21.8837 40.6834C21.9141 40.7491 21.9569 40.8077 22.0095 40.8555C22.1176 40.9547 22.2579 41.0063 22.4011 40.9994C22.5444 40.9925 22.6796 40.9276 22.7786 40.8184L24.7482 38.6159C27.4519 35.6221 28.9628 31.652 28.9702 27.5219V25.1008Z" fill="#00457A"/>
<path d="M31.9702 25.3544C31.9365 23.6402 31.2017 22.0089 29.9268 20.818C28.6519 19.627 26.9409 18.9736 25.1688 19.0008C23.3965 18.9733 21.6853 19.6267 20.4101 20.8176C19.135 22.0086 18.4001 23.6401 18.3664 25.3544V27.51C18.3625 28.9637 17.7869 30.3615 16.7566 31.4197L15.1191 33.1219C15.0682 33.1744 15.0289 33.2363 15.0034 33.3039C14.978 33.3715 14.967 33.4434 14.971 33.5152C14.9751 33.587 14.9942 33.6573 15.0272 33.7218C15.0601 33.7863 15.1063 33.8437 15.1628 33.8904C15.2789 33.9876 15.4294 34.0377 15.5828 34.0302C15.7362 34.0226 15.8806 33.9581 15.986 33.8501L17.6275 32.1469C18.8494 30.8918 19.5321 29.2341 19.5372 27.51V25.3544C19.5649 23.9339 20.1736 22.582 21.23 21.5951C22.2864 20.6081 23.7043 20.0666 25.1728 20.0892C26.6412 20.0666 28.0591 20.6081 29.1155 21.5951C30.1719 22.582 30.7807 23.9339 30.8083 25.3544V27.7425C30.7992 32.1161 29.0578 36.3202 25.9424 39.4899L25.3585 40.0893C25.3072 40.1414 25.2675 40.2031 25.2416 40.2706C25.2158 40.338 25.2043 40.4099 25.2081 40.4818C25.2118 40.5536 25.2305 40.624 25.2632 40.6886C25.2959 40.7533 25.3418 40.8108 25.3982 40.8578C25.5138 40.9555 25.664 41.0062 25.8174 40.9994C25.9708 40.9926 26.1155 40.9288 26.2214 40.8213L26.8053 40.2218C30.1133 36.854 31.9616 32.3881 31.9702 27.7425V25.3544Z" fill="#00457A"/>
<path d="M15.9702 25.4637C15.9714 25.5353 15.9863 25.606 16.0141 25.6718C16.0419 25.7375 16.082 25.797 16.1322 25.8468C16.1823 25.8966 16.2415 25.9357 16.3064 25.962C16.3713 25.9883 16.4406 26.0012 16.5103 25.9999C16.58 26.0012 16.6493 25.9883 16.7142 25.962C16.779 25.9357 16.8382 25.8966 16.8884 25.8468C16.9385 25.797 16.9787 25.7375 17.0065 25.6718C17.0343 25.606 17.0492 25.5353 17.0504 25.4637C17.0561 23.6452 17.7207 21.8942 18.9144 20.5522C20.1144 19.1969 21.7393 18.3178 23.5055 18.0685C23.5748 18.0604 23.6418 18.0381 23.7026 18.003C23.7633 17.9679 23.8167 17.9207 23.8595 17.8642C23.9024 17.8077 23.9338 17.7429 23.952 17.6737C23.9702 17.6046 23.9748 17.5324 23.9656 17.4613C23.9419 17.317 23.8635 17.1882 23.7477 17.1031C23.6318 17.018 23.4878 16.9836 23.3473 17.0074C21.3277 17.2916 19.4694 18.2958 18.0965 19.8447C16.7329 21.3809 15.9748 23.3841 15.9702 25.4637Z" fill="#00457A"/>
<path d="M16.9702 27.58C16.9559 27.4215 16.8843 27.2741 16.7696 27.1668C16.6548 27.0595 16.5051 27 16.3498 27C16.1945 27 16.0448 27.0595 15.93 27.1668C15.8152 27.2741 15.7437 27.4215 15.7294 27.58C15.7276 28.5726 15.3575 29.5272 14.6944 30.2502L13.1298 31.97C13.0753 32.0294 13.0331 32.0995 13.0058 32.1761C12.9785 32.2527 12.9667 32.3342 12.9711 32.4157C12.9755 32.4971 12.9959 32.5768 13.0312 32.6499C13.0666 32.7229 13.116 32.7879 13.1765 32.8408C13.3007 32.9509 13.4615 33.0077 13.6255 32.9992C13.7894 32.9906 13.9438 32.9175 14.0565 32.7951L15.6168 31.0785C16.4851 30.1311 16.969 28.8802 16.9702 27.58Z" fill="#00457A"/>
<path d="M32.5321 33.0168C32.3836 32.9835 32.2255 33.0001 32.0913 33.063C31.957 33.1259 31.8572 33.2303 31.8129 33.354C31.5948 34.0313 31.3268 34.6965 31.0105 35.3459C30.9825 35.4048 30.9688 35.4678 30.9703 35.5312C30.9719 35.5947 30.9886 35.6572 31.0195 35.7151C31.0503 35.7729 31.0948 35.825 31.1501 35.8682C31.2054 35.9113 31.2705 35.9447 31.3415 35.9663C31.4106 35.9886 31.4841 36.0001 31.5581 36C31.6742 36.0005 31.7879 35.9723 31.885 35.9187C31.9821 35.8652 32.0582 35.7888 32.1038 35.6991C32.438 35.0148 32.7214 34.3138 32.9523 33.6001C32.9712 33.5386 32.9752 33.4746 32.9641 33.4117C32.9531 33.3489 32.9273 33.2885 32.8881 33.2342C32.849 33.1799 32.7973 33.1327 32.7362 33.0953C32.675 33.058 32.6057 33.0313 32.5321 33.0168Z" fill="#00457A"/>
<path d="M30.9301 19.137C30.8154 19.0421 30.6668 18.9932 30.5153 19.0008C30.3638 19.0083 30.2213 19.0715 30.1174 19.1772C30.0671 19.2283 30.0282 19.2886 30.0031 19.3545C29.9779 19.4204 29.967 19.4905 29.971 19.5605C29.9751 19.6306 29.9939 19.6991 30.0265 19.762C30.0591 19.8248 30.1047 19.8807 30.1605 19.9262C30.99 20.6074 31.6569 21.451 32.116 22.3999C32.5751 23.3489 32.8158 24.381 32.8217 25.4266V27.7531C32.8216 28.6377 32.7562 29.5212 32.6259 30.397C32.6166 30.4671 32.6219 30.5382 32.6415 30.6063C32.6612 30.6744 32.6947 30.7381 32.7402 30.7938C32.7857 30.8494 32.8423 30.8958 32.9067 30.9304C32.9712 30.965 33.0421 30.9871 33.1155 30.9953C33.1418 30.9985 33.1682 31.0001 33.1948 31C33.3314 31.0016 33.4641 30.9561 33.5685 30.8719C33.673 30.7876 33.7422 30.6703 33.7636 30.5412C33.9011 29.6173 33.9701 28.6853 33.9702 27.7522V25.4266C33.9641 24.2312 33.6895 23.0509 33.165 21.9658C32.6405 20.8807 31.8784 19.916 30.9301 19.137Z" fill="#00457A"/>
<path d="M28.2857 18.941C28.3502 18.98 28.4203 19.0001 28.4913 19C28.581 19.0011 28.669 18.9692 28.7456 18.908C28.8222 18.8468 28.8842 18.7587 28.9247 18.6536C28.9514 18.5811 28.9667 18.5022 28.9697 18.4218C28.9727 18.3414 28.9633 18.261 28.9421 18.1854C28.9209 18.1098 28.8884 18.0406 28.8464 17.982C28.8044 17.9233 28.7539 17.8763 28.6978 17.8439C28.006 17.4262 27.2712 17.1443 26.5171 17.0073C26.3933 16.9822 26.2669 17.0221 26.1654 17.1185C26.0638 17.2148 25.9952 17.3598 25.9743 17.5221C25.9661 17.6027 25.9702 17.6845 25.9864 17.763C26.0025 17.8414 26.0304 17.9148 26.0684 17.9789C26.1064 18.043 26.1537 18.0966 26.2076 18.1363C26.2616 18.1761 26.321 18.2014 26.3824 18.2106C27.0406 18.3304 27.6818 18.5765 28.2857 18.941Z" fill="#00457A"/>
<path d="M25.1787 14.0015C24.965 14.0015 24.7392 14.0077 24.5225 14.0201C24.4472 14.0228 24.3732 14.0409 24.3047 14.0733C24.2362 14.1058 24.1745 14.152 24.1232 14.2093C24.0719 14.2666 24.0321 14.3338 24.0059 14.4072C23.9797 14.4805 23.9677 14.5585 23.9706 14.6367C23.9818 14.7947 24.0529 14.9416 24.1683 15.0452C24.2837 15.1488 24.434 15.2006 24.5861 15.1892C24.785 15.1778 24.9838 15.1727 25.1827 15.1727C27.9501 15.1279 30.6218 16.2242 32.6124 18.2215C34.6031 20.2188 35.7503 22.9542 35.8029 25.8285V28.3938C35.8029 28.5546 35.8644 28.7088 35.9738 28.8224C36.0833 28.9361 36.2318 29 36.3866 29C36.5414 29 36.6898 28.9361 36.7993 28.8224C36.9087 28.7088 36.9702 28.5546 36.9702 28.3938V25.8295C36.9122 22.6384 35.6384 19.6015 33.428 17.3843C31.2177 15.1671 28.2512 13.9507 25.1787 14.0015Z" fill="#00457A"/>
<path d="M18.6177 17C18.749 17.0005 18.8775 16.9744 18.9869 16.9251C20.0626 16.434 21.2492 16.0655 22.4998 15.8343C22.5804 15.8205 22.6561 15.7959 22.7225 15.7619C22.7888 15.7279 22.8445 15.6852 22.8862 15.6364C22.9279 15.5875 22.9548 15.5335 22.9652 15.4775C22.9757 15.4215 22.9696 15.3646 22.9472 15.3102C22.8965 15.2003 22.7847 15.1081 22.6355 15.0533C22.4863 14.9984 22.3115 14.9853 22.1483 15.0167C20.7597 15.273 19.4421 15.6816 18.2475 16.2266C18.1782 16.2573 18.1189 16.2972 18.073 16.3439C18.0272 16.3907 17.9957 16.4432 17.9806 16.4984C17.9654 16.5536 17.9669 16.6104 17.9849 16.6652C18.003 16.72 18.0372 16.7717 18.0855 16.8173C18.1465 16.8743 18.2266 16.9205 18.3191 16.9523C18.4117 16.9841 18.514 17.0004 18.6177 17Z" fill="#00457A"/>
<path d="M14.5888 27.6079V25.5097C14.594 23.032 15.7455 20.6555 17.7947 18.8934C17.8525 18.8436 17.8979 18.7843 17.928 18.7191C17.9581 18.654 17.9724 18.5843 17.9699 18.5144C17.9675 18.4444 17.9483 18.3756 17.9137 18.3121C17.879 18.2486 17.8295 18.1918 17.7683 18.145C17.642 18.0479 17.4764 17.9961 17.3062 18.0002C17.136 18.0044 16.9743 18.0643 16.8548 18.1675C14.5813 20.1232 13.3034 22.7603 13.2968 25.5097V27.6079C13.2962 27.8978 13.166 28.1767 12.9325 28.388L12.1357 29.1148C12.0792 29.1659 12.0354 29.2261 12.0071 29.292C11.9789 29.3578 11.9666 29.4279 11.9711 29.4978C11.9757 29.5678 11.9969 29.6363 12.0335 29.6991C12.0701 29.7619 12.1213 29.8177 12.1841 29.8632C12.3128 29.9578 12.4796 30.0066 12.6496 29.9993C12.8196 29.992 12.9797 29.9291 13.0965 29.8239L13.8933 29.0971C14.339 28.6936 14.5876 28.1613 14.5888 27.6079Z" fill="#00457A"/>
<path d="M37.9418 21.2395C37.3091 19.353 36.2943 17.63 34.966 16.1872C34.8612 16.0738 34.7183 16.007 34.5672 16.0005C34.4161 15.9941 34.2685 16.0485 34.1551 16.1526C34.1 16.2028 34.0553 16.2641 34.0236 16.3327C33.9919 16.4014 33.9739 16.4761 33.9707 16.5522C33.9675 16.6283 33.9792 16.7043 34.005 16.7756C34.0308 16.8469 34.0702 16.912 34.1208 16.967C35.3404 18.2922 36.2721 19.8746 36.8531 21.607C36.8935 21.723 36.9676 21.8231 37.065 21.8935C37.1624 21.9639 37.2784 22.0011 37.397 22C37.4591 21.9999 37.5208 21.9895 37.5799 21.9694C37.6503 21.9471 37.7156 21.9104 37.7721 21.8614C37.8287 21.8123 37.8752 21.752 37.9089 21.684C37.9426 21.6159 37.9629 21.5416 37.9686 21.4652C37.9742 21.3889 37.9651 21.3121 37.9418 21.2395Z" fill="#00457A"/>
<path d="M29.7529 13.0309C29.6056 12.9823 29.4446 12.9913 29.304 13.0559C29.1634 13.1205 29.0542 13.2357 28.9997 13.377C28.9756 13.4467 28.9661 13.5205 28.9718 13.5938C28.9776 13.6672 28.9984 13.7387 29.0331 13.8041C29.0677 13.8695 29.1156 13.9275 29.1737 13.9748C29.2319 14.022 29.2992 14.0574 29.3718 14.079C30.6765 14.4981 31.9073 15.1084 33.0215 15.8889C33.1483 15.9776 33.3055 16.0153 33.4603 15.9943C33.6152 15.9733 33.7557 15.8951 33.8525 15.7761C33.899 15.7181 33.9328 15.6515 33.952 15.5803C33.9712 15.5092 33.9753 15.4351 33.964 15.3624C33.9528 15.2897 33.9264 15.22 33.8866 15.1575C33.8467 15.0949 33.7942 15.0409 33.7322 14.9986C32.5171 14.1495 31.1752 13.4859 29.7529 13.0309Z" fill="#00457A"/>
<path d="M16.225 16.7365C18.721 14.4169 21.9966 13.1348 25.3932 13.1478C26.03 13.1479 26.666 13.1922 27.2968 13.2804C27.4492 13.3041 27.6048 13.2664 27.7299 13.1755C27.855 13.0846 27.9395 12.9477 27.9651 12.7946C27.9753 12.7186 27.9702 12.6413 27.9503 12.5673C27.9304 12.4933 27.8961 12.424 27.8493 12.3635C27.8025 12.303 27.7442 12.2525 27.6778 12.215C27.6114 12.1774 27.5383 12.1536 27.4626 12.1448C26.7769 12.0488 26.0855 12.0005 25.3932 12.0001C21.694 11.9855 18.1265 13.3816 15.4078 15.9077C12.742 18.358 11.1469 21.7706 10.9705 25.4008C10.9682 25.4774 10.981 25.5537 11.0081 25.6253C11.0351 25.6969 11.076 25.7624 11.1283 25.8181C11.1806 25.8738 11.2433 25.9185 11.3128 25.9497C11.3823 25.9809 11.4572 25.998 11.5333 25.9999H11.5615C11.7107 26.0023 11.8551 25.9468 11.9647 25.8448C12.0744 25.7429 12.1409 25.6024 12.1504 25.4524C12.3127 22.1194 13.7774 18.9863 16.225 16.7365Z" fill="#00457A"/>
<path d="M25.1359 10C23.8797 9.99969 22.6276 10.1224 21.4029 10.3657C21.332 10.3786 21.2648 10.4037 21.2052 10.4395C21.1456 10.4753 21.0948 10.5211 21.0558 10.5743C21.0168 10.6275 20.9904 10.6869 20.9781 10.7491C20.9658 10.8113 20.9679 10.875 20.9843 10.9364C21.0221 11.0609 21.1143 11.1675 21.2412 11.2333C21.3681 11.2992 21.5195 11.3191 21.6631 11.2888C22.8024 11.0626 23.9673 10.9486 25.1359 10.949C27.1535 10.9388 29.1533 11.2789 31.0187 11.9492C32.884 12.6196 34.5776 13.607 36.0006 14.8537C36.1059 14.945 36.2475 14.9974 36.396 14.9999C36.5445 15.0024 36.6884 14.9548 36.7976 14.8671C36.8506 14.8248 36.8932 14.7737 36.9228 14.7167C36.9525 14.6596 36.9686 14.598 36.9701 14.5354C36.9716 14.4728 36.9586 14.4106 36.9317 14.3526C36.9049 14.2945 36.8648 14.2418 36.8139 14.1976C35.3193 12.8873 33.544 11.8456 31.5889 11.1314C29.5466 10.3813 27.3521 9.99651 25.1359 10Z" fill="#00457A"/>
<path d="M12.2014 16.8799C12.3287 16.9728 12.4878 17.0143 12.6457 16.9956C12.8035 16.977 12.9479 16.8996 13.0486 16.7797C14.7878 14.7002 17.0422 13.087 19.5991 12.0926C19.6714 12.0658 19.7374 12.0251 19.7932 11.9729C19.849 11.9208 19.8934 11.8581 19.9238 11.7888C19.9542 11.7196 19.97 11.645 19.9702 11.5696C19.9704 11.4943 19.955 11.4196 19.925 11.3502C19.859 11.2102 19.7404 11.1003 19.5937 11.043C19.4469 10.9858 19.2832 10.9856 19.1364 11.0426C16.3889 12.1121 13.9667 13.8467 12.0986 16.0824C12.0498 16.1406 12.0137 16.2079 11.9924 16.2801C11.9711 16.3523 11.965 16.428 11.9747 16.5026C11.9843 16.5772 12.0093 16.6491 12.0483 16.7139C12.0873 16.7788 12.1394 16.8353 12.2014 16.8799Z" fill="#00457A"/>
<path d="M16.5732 9.99993C16.6631 9.99989 16.752 9.97995 16.8334 9.94151C19.3529 8.76141 22.1005 8.15391 24.8805 8.16231C26.3435 8.16174 27.8018 8.32885 29.2271 8.66041C29.3804 8.69914 29.5427 8.67569 29.6789 8.59513C29.815 8.51456 29.9142 8.38337 29.9547 8.22996C29.9724 8.15467 29.975 8.07659 29.9622 8.0003C29.9494 7.92401 29.9216 7.85106 29.8803 7.78574C29.839 7.72042 29.7852 7.66405 29.7219 7.61995C29.6586 7.57585 29.5872 7.5449 29.5118 7.52893C27.9931 7.17612 26.4393 6.99869 24.8805 7.00009C21.9188 6.99098 18.9917 7.63839 16.3078 8.89613C16.2378 8.92749 16.1748 8.97274 16.1225 9.02916C16.0703 9.08557 16.03 9.152 16.004 9.22446C15.978 9.29691 15.9668 9.3739 15.9711 9.4508C15.9755 9.5277 15.9952 9.60292 16.0292 9.67197C16.0804 9.77214 16.1585 9.85593 16.2546 9.91389C16.3507 9.97184 16.4611 10.0016 16.5732 9.99993Z" fill="#00457A"/>
<path d="M31.3373 9.55809C31.942 9.67807 32.5338 9.81433 33.1104 9.96631C33.1948 9.98848 33.2883 10 33.3832 9.99999C33.4881 10.0005 33.5914 9.98651 33.6823 9.95959C33.7732 9.93267 33.8483 9.89375 33.8999 9.8469C33.9367 9.81308 33.9597 9.77576 33.9674 9.73722C33.975 9.69868 33.9672 9.65975 33.9445 9.62281C33.9217 9.58587 33.8845 9.55171 33.8351 9.52241C33.7856 9.49312 33.725 9.46931 33.657 9.45246C33.0417 9.29141 32.4104 9.14714 31.7654 9.02025C31.6232 8.99218 31.4653 8.99333 31.3248 9.02347C31.1842 9.05361 31.0717 9.1104 31.0108 9.18201C30.9828 9.21763 30.969 9.25577 30.9703 9.29418C30.9716 9.33258 30.988 9.37045 31.0185 9.40554C31.0489 9.44063 31.0929 9.47222 31.1477 9.49843C31.2024 9.52464 31.2669 9.54492 31.3373 9.55809Z" fill="#00457A"/>
<rect x="1.47021" y="0.5" width="45" height="47" rx="7.5" stroke="#00457A"/>
</svg>
