<svg fill="none" height="16" viewBox="0 0 17 16" width="17" xmlns="http://www.w3.org/2000/svg">
    <g clip-rule="evenodd" fill="#fff" fill-rule="evenodd">
        <path
            d="m11.8534 13.6078c-.6585 0-1.1932.5358-1.1932 1.1962 0 .6602.5344 1.1961 1.1932 1.1961.6586 0 1.1928-.5359 1.1928-1.1961.0002-.6604-.5345-1.1962-1.1928-1.1962z" />
        <path
            d="m12.7129 14.804v-.0001c.0001-.477-.386-.8628-.8595-.8628-.4737 0-.8599.3859-.8599.8629 0 .4769.386.8627.8599.8627.4736 0 .8595-.3857.8595-.8627zm-2.0527 0c0-.6604.5347-1.1962 1.1932-1.1962.6583 0 1.193.5358 1.1928 1.1962 0 .6602-.5342 1.1961-1.1928 1.1961-.6588 0-1.1932-.5359-1.1932-1.1961z" />
        <path
            d="m7.28286 13.6078c-.65855 0-1.19326.5358-1.19326 1.1962.00023.6602.53449 1.1961 1.19326 1.1961.65876 0 1.19302-.5359 1.19302-1.1961.00023-.6604-.53426-1.1962-1.19302-1.1962z" />
        <path
            d="m8.14255 14.804v-.0001c.00017-.477-.38578-.8628-.85969-.8628-.47367 0-.85987.3858-.85993.8628m0 .0001c.00023.477.38614.8627.85993.8627.47384 0 .85969-.3857.85969-.8627m-2.05295 0c0-.6604.53471-1.1962 1.19326-1.1962.65876 0 1.19325.5358 1.19302 1.1962 0 .6602-.53426 1.1961-1.19302 1.1961-.65877 0-1.19303-.5359-1.19326-1.1961z" />
        <path
            d="m16.4756 3.01252h-12.46386l-.33527-2.495757c-.04844-.36153-.24947-.516763-.60625-.516763h-2.457592c-.329611 0-.5965147.268254-.5965147.598465 0 .330437.2666767.598015.5965147.598015l1.945522-.00023 1.39383 8.50378c.23227 1.46357.56663 2.88107 2.46393 2.88107l6.56189-.0002c1.9213 0 2.1325-1.3746 2.4773-2.75764l1.4638-5.86981c.1132-.45367.141-.94093-.4433-.94093zm-1.1905 2.70864h-8.12032c-.32825 0-.59651.26893-.59651.59801 0 .32885.26826.59824.59651.59824h7.82192l-.3405 1.36555h-6.02284c-.32803 0-.59629.26893-.59629.59801 0 .32885.26826.59824.59629.59824h5.72454l-.0632.25395c-.1886.75664-.2316 1.65194-1.3069 1.65194h-6.56189c-1.13598 0-1.1645-1.0235-1.29965-1.83735l-.88764-5.33921h11.43388z" />
    </g>
</svg>