<svg fill="none" height="42" viewBox="0 0 43 42" width="43" xmlns="http://www.w3.org/2000/svg" xmlns:xlink="http://www.w3.org/1999/xlink"><clipPath id="a"><path d="m.5 0h42v42h-42z"/></clipPath><g clip-path="url(#a)" fill="#231f20"><path d="m1.45831 25.6023c-.25737 0-.487649-.1813-.540542-.4433-.477332-2.3691-.546351-4.7717-.205769-7.1414.329621-2.291 1.033361-4.5014 2.091871-6.5704.13869-.2716.47153-.3788.74309-.24.27156.1387.37864.4717.23996.7434-1.00304 1.9599-1.67002 4.0541-1.98222 6.2238-.32252 2.2451-.25673 4.5213.19545 6.7658.05999.2988-.13288.5899-.43218.6505-.03677.0084-.07353.0116-.10966.0116z"/><path d="m4.98822 9.50151c-.11288 0-.22705-.03421-.3251-.10649-.24641-.18005-.29994-.52531-.12062-.77183 3.09878-4.24769 7.6457-7.1608 12.8034-8.201106 4.5766-.92285 9.2048-.3259013 13.3853 1.726956.2735.13423.3864.4653.2522.73892-.1341.27363-.465.38657-.7385.25234-3.96-1.94444-8.345-2.509768-12.6809-1.63532-4.8862.98545-9.19447 3.74496-12.13005 7.77001-.10773.14843-.27608.22652-.44573.22652z"/><path d="m41.5292 17.5193c-.2574 0-.4877-.1813-.5406-.4433-1.012-5.0228-3.8773-9.40987-8.0682-12.35202-.2496-.17489-.3096-.5195-.1348-.76926.1755-.24975.5193-.30976.7689-.13487 4.4237 3.10607 7.4477 7.73585 8.5159 13.03795.06.2988-.1336.5899-.4322.6506-.0361.0071-.0729.0109-.109.0109z"/><path d="m41.9445 21.9722c-.0032 0-.0071 0-.0109 0-.3045-.0058-.547-.2575-.5412-.5628.0277-1.4488-.1045-2.9073-.3922-4.3354-.06-.2988.1329-.5905.4322-.6505.2993-.0607.5902.1329.6502.4324.3038 1.5069.4431 3.046.4141 4.5748-.0065.3008-.2522.5415-.5522.5415z"/><path d="m1.66557 26.4728c-.24834 0-.47346-.1684-.53539-.4201-.07418-.3027-.141907-.604-.200606-.8951-.060634-.2988.132876-.5905.431536-.6505.2993-.0607.59021.1329.6502.4317.05547.2762.11998.5621.19093.8493.07289.2962-.10772.595-.40379.668-.04516.0116-.08967.0167-.13288.0167z"/><path d="m16.2175 41.3186c-.1297 0-.2593-.0452-.3638-.1375-.229-.2013-.2516-.5498-.0503-.7796 2.2357-2.5459 3.8941-5.6132 4.7946-8.869.9443-3.4139 1.0656-6.9182.3605-10.4153-.06-.2988.1329-.5898.4322-.6505.2987-.0607.5902.1329.6502.4324.7399 3.6688.6128 7.346-.3786 10.9283-.945 3.4159-2.684 6.6329-5.0294 9.3034-.1097.1239-.2619.1878-.4154.1878z"/><path d="m13.5755 40.4131c-.1387 0-.278-.0523-.3851-.1569-.218-.2129-.2225-.5627-.0097-.7808 1.8829-1.9309 3.3342-4.1838 4.3141-6.6962.1109-.2839.4308-.4246.7147-.3136.2838.111.4244.4311.3135.715-1.034 2.6505-2.5654 5.0279-4.5521 7.066-.1084.111-.2522.1665-.3954.1665z"/><path d="m19.079 41.8697c-.1187 0-.2387-.0381-.3393-.1168-.24-.1878-.2825-.535-.0948-.7751 4.5082-5.772 6.2646-13.1948 4.8191-20.3653l-.0374-.1845c-.1342-.4505-.4193-.8364-.816-1.1003-.4489-.2982-.9863-.404-1.5139-.2969-.9985.2013-1.6765 1.1132-1.6146 2.1038l.0542.2698c.5741 2.8511.5593 5.7268-.0445 8.5483-.0638.2981-.3573.4879-.6553.424s-.4877-.3575-.4238-.6557c.5347-2.4969.5818-5.0395.1419-7.5661l-.0116.002-.1071-.5312c-.3399-1.6875.7553-3.3371 2.4421-3.6772.8166-.1652 1.6487-.0019 2.3435.4602.694.4614 1.1675 1.1655 1.3326 1.9831l.0974.4815-.0129.0038c1.3365 7.3364-.5179 14.8837-5.1242 20.7809-.109.1388-.2716.2117-.4354.2117z"/><path d="m11.161 39.2018c-.1477 0-.2948-.0587-.4031-.1748-.2084-.2227-.1968-.5725.0258-.7803 4.1044-3.8417 6.1059-9.4498 5.3545-15.0024-.0407-.302.1709-.5802.4728-.6215.3025-.0413.5799.171.6212.4731.7992 5.9062-1.3295 11.8718-5.6938 15.9569-.1065.0994-.2419.149-.3774.149z"/><path d="m27.0693 26.0586c-.3038 0-.5509-.2465-.5515-.5504-.0045-1.7999-.1897-3.6172-.5483-5.4016l-.0432-.2136c-.2768-1.1068-.9463-2.0568-1.9023-2.6924-1.0165-.6757-2.235-.9151-3.4316-.6738-1.7958.3621-3.1975 1.7554-3.5716 3.5488-.0626.2988-.3548.4905-.6528.4279-.2986-.0626-.4896-.355-.4276-.6531.4644-2.2271 2.2054-3.956 4.434-4.4058 1.4855-.3001 2.9981-.0032 4.2605.8364 1.2623.8389 2.1222 2.1199 2.4215 3.6062l.089.4427-.0077.0032c.3173 1.7121.4799 3.45.4844 5.1731.0006.3053-.2458.5531-.5502.5537-.002-.0013-.002-.0013-.0026-.0013z"/><path d="m22.1475 42c-.1071 0-.2161-.0316-.311-.0968-.2515-.1723-.316-.5157-.1438-.7673 2.5357-3.7082 4.1431-8.014 4.6488-12.4501.0349-.3027.3084-.5208.6109-.486.3025.0342.5205.3085.4857.6112-.5257 4.6149-2.1977 9.0923-4.8346 12.9483-.1071.1568-.2799.2407-.456.2407z"/><path d="m8.97977 37.7278c-.15481 0-.30833-.0645-.41734-.191-.19932-.2304-.17481-.5795.05612-.7789 1.94805-1.6882 3.43035-3.8657 4.28635-6.298.8224-2.3362 1.0398-4.8485.6373-7.3002l-.0046.0007-.1057-.5253c-.4348-2.1549-.0039-4.3503 1.212-6.1812s3.0717-3.0783 5.2261-3.5133c.7489-.151 1.5126-.1981 2.2686-.1394.3039.0239.5309.2891.5077.5931-.0239.304-.2883.5311-.5928.5079-.6547-.051-1.3152-.0103-1.9648.1207-1.8648.3762-3.4723 1.4565-4.525 3.0415-.9682 1.4585-1.361 3.1835-1.1249 4.9027l.0903.4466c.567 2.8118.3657 5.721-.5819 8.4128-.9198 2.613-2.5117 4.953-4.60491 6.7658-.10579.091-.23415.1355-.36252.1355z"/><path d="m25.4057 41.6296c-.0948 0-.1909-.0245-.2787-.0762-.2631-.1542-.3509-.4924-.1967-.7557 3.7503-6.396 5.0088-13.924 3.5426-21.1971l-.0484-.2394c-.4612-1.9432-1.7132-3.603-3.4645-4.5801-.2664-.1484-.3619-.4846-.2129-.7512.1484-.2665.4844-.362.7508-.2129 2.1042 1.1745 3.5845 3.2022 4.0612 5.5635l.0948.4692-.0077.0026c1.3739 7.3931.0439 15.0108-3.7638 21.5037-.1026.1762-.2871.2736-.4767.2736z"/><path d="m7.03919 36.0177c-.15997 0-.318-.0691-.42702-.202-.19286-.2362-.15868-.5841.07741-.777 1.63454-1.3398 2.90333-3.0899 3.66902-5.0621.1103-.2846.4302-.4253.714-.315.2839.1104.4251.4305.3148.7144-.8347 2.149-2.21699 4.0567-3.99859 5.5165-.10257.0839-.22641.1252-.34962.1252z"/><path d="m31.7423 31.5028c-.0296 0-.06-.0026-.0903-.0077-.3006-.0497-.5044-.3337-.4547-.6344.6411-3.8986.5676-7.8571-.22-11.7654l-.0297-.1484c-.5373-2.4717-1.988-4.5988-4.0986-6.0018-2.1525-1.4307-4.7326-1.9373-7.2657-1.4262-2.5337.5111-4.7172 1.9787-6.1473 4.1322-1.3378 2.0141-1.8667 4.4039-1.5113 6.7781l.0987.4892c.2709 1.3462.3348 2.7117.1896 4.0605-.0322.3033-.3051.5227-.6076.4898-.3032-.0322-.5225-.3046-.4896-.6079.1135-1.0551.0871-2.1232-.078-3.1816l-.109-.5395c-.5696-2.824-.0059-5.7003 1.588-8.0998 1.5933-2.3994 4.0258-4.034 6.8485-4.6032 2.822-.56923 5.697-.0052 8.0952 1.5888 2.3983 1.594 4.0322 4.027 4.6011 6.851l.0516.2575-.0019.002c.7657 3.956.825 7.9591.1761 11.9041-.0452.271-.2793.4627-.5451.4627z"/><path d="m28.8267 40.6493c-.0812 0-.1638-.0181-.2412-.0561-.2741-.1336-.3877-.464-.2541-.7383.9153-1.8793 1.6519-3.8521 2.1899-5.8643.0787-.2943.3812-.4692.676-.3904.2941.0787.4689.3814.3902.6763-.556 2.08-1.3178 4.1193-2.2641 6.0624-.0954.1962-.2922.3104-.4967.3104z"/><path d="m32.3815 38.8707c-.0658 0-.1323-.0116-.1968-.0368-.2844-.109-.427-.4278-.318-.7131 2.3622-6.1773 2.9292-12.8792 1.6436-19.3914l-.0284-.1401c-.3522-1.745-1.0572-3.3539-2.0964-4.782-.1793-.2465-.1251-.5918.1213-.7712s.5915-.1252.7708.1213c1.0882 1.4947 1.841 3.1713 2.2383 4.986l.0026.0013.0464.2271c1.363 6.7607.787 13.7266-1.6667 20.1433-.0852.2208-.2942.3556-.5167.3556z"/><path d="m29.5978 11.6725c-.1232 0-.2464-.0406-.3496-.1252-2.8531-2.33744-6.5601-3.26029-10.1711-2.53169-.9295.18715-1.8338.48078-2.6879.87251-.2773.12718-.6044.00516-.7314-.27169-.1271-.2775-.0052-.60469.2715-.73183.9315-.42722 1.9171-.74731 2.9298-.95124 3.9367-.79378 7.9785.21232 11.0883 2.76014.2361.193.2703.5415.0774.777-.1084.133-.2671.202-.427.202z"/><path d="m5.34599 34.099c-.16126 0-.32188-.0704-.43089-.2066-.19093-.2374-.15288-.5853.0845-.7763 2.72208-2.1877 4.04441-5.6184 3.5129-9.0394l-.08708-.4318c-.98304-4.8782.80695-9.8596 4.67138-12.9992.2367-.1923.5844-.1562.7766.0806.1923.2369.1561.5847-.0806.777-3.4168 2.7763-5.0655 7.1208-4.37273 11.4382l.09741.4834c.80052 3.9689-.66569 8.0126-3.82639 10.5527-.10192.082-.22383.1214-.3451.1214z"/><path d="m3.90328 31.9784c-.15675 0-.3122-.0665-.42121-.1955-.19739-.2324-.16836-.5808.0645-.7783 1.89901-1.6102 2.81755-4.0857 2.44342-6.5277l-.06579-.3272c-.16642-.8228-.26834-1.6676-.30317-2.5111-.0129-.3046.22383-.5621.52829-.5743.30446-.0117.56183.2239.57408.5285.02581.6215.09096 1.2442.19352 1.8573l.09675.4795c.5928 2.9415-.46249 5.9753-2.75368 7.9178-.10385.0884-.23028.131-.35671.131z"/><path d="m36.8744 20.5151c-.269 0-.5044-.1968-.5451-.4711-.0845-.5679-.1819-1.1365-.2902-1.6934l-.0555-.2652c-.7805-3.8721-3.0207-7.2086-6.3092-9.39439-3.2884-2.1858-7.2309-2.95957-11.1018-2.1787-2.9775.60082-5.6564 2.07415-7.7482 4.26059-2.04482 2.1381-3.39231 4.8027-3.89674 7.7061-.05225.3008-.33735.5021-.63794.4498-.30059-.0522-.5012-.3381-.4496-.6382.54184-3.1203 1.98931-5.9837 4.18628-8.2805 2.2487-2.35036 5.1281-3.93405 8.3275-4.5794 4.1599-.83895 8.3966-.00774 11.9308 2.34133 3.4206 2.27357 5.7866 5.70557 6.6948 9.69767l.0052.0006.0832.3982c.1329.6596.2516 1.3372.3522 2.0135.0452.3014-.1632.5828-.4644.6273-.0271.0032-.0542.0058-.0813.0058z"/><path d="m36.0037 35.9654c-.0471 0-.0948-.0058-.1425-.0187-.2948-.0788-.4696-.3814-.3909-.6757 1.0488-3.9334 1.45-7.9881 1.1939-12.0532-.0193-.3046.2123-.5666.5161-.586.3044-.02.5663.2117.5857.5163.2638 4.1838-.1497 8.3586-1.2295 12.4068-.0658.2472-.289.4105-.5328.4105z"/><path d="m2.69751 29.5997c-.13417 0-.26899-.0484-.37542-.1471-.22318-.2072-.23673-.557-.02967-.7803.95595-1.0312 1.38555-2.4497 1.16817-3.8288l-.03999-.1885c-.97337-4.8298-.00903-9.7506 2.71692-13.8543 2.7253-4.10382 6.88518-6.90012 11.71268-7.87395 2.0274-.40915 4.0851-.47756 6.115-.20264.3019.04066.5141.3188.4728.62147-.0406.30203-.3193.51435-.6212.47304-1.9073-.25814-3.8418-.19425-5.7486.19103-4.5385.91446-8.44874 3.54361-11.0115 7.40155-2.50405 3.7707-3.42711 8.2753-2.61306 12.7166l.06579.3072c.35929 1.785-.16642 3.6494-1.40684 4.9879-.10901.1174-.25672.1768-.40508.1768z"/><path d="m39.5359 31.1723c-.0226 0-.0458-.0012-.069-.0045-.3026-.0374-.5174-.3136-.4793-.6163.5218-4.1941.3786-8.4366-.4264-12.6172l-.0748-.3543c-1.2404-6.1573-5.7286-11.17489-11.714-13.0948-.2902-.09293-.4502-.40399-.3573-.6944.0929-.2904.4038-.45045.694-.35752 6.1976 1.98832 10.8864 7.10012 12.3474 13.41232l.0078-.0013.109.5163c.8895 4.4116 1.0611 8.8955.5096 13.3264-.0348.2808-.2729.4853-.547.4853z"/></g></svg>