<?xml version="1.0" encoding="UTF-8"?>
<svg xmlns="http://www.w3.org/2000/svg" xmlns:xlink="http://www.w3.org/1999/xlink" width="20px" height="12px" viewBox="0 0 30 30" version="1.1">
<g id="surface1">
<path style=" stroke:none;fill-rule:nonzero;fill:rgb(100%,100%,100%);fill-opacity:1;" d="M 12.640625 19.738281 L 12.640625 24.476562 C 12.640625 24.910156 12.285156 25.261719 11.851562 25.261719 C 11.417969 25.261719 11.066406 24.910156 11.066406 24.476562 L 11.066406 19.738281 C 11.066406 19.304688 11.417969 18.949219 11.851562 18.949219 C 12.285156 18.949219 12.640625 19.304688 12.640625 19.738281 Z M 18.164062 18.949219 C 17.730469 18.949219 17.375 19.304688 17.375 19.738281 L 17.375 24.476562 C 17.375 24.910156 17.730469 25.261719 18.164062 25.261719 C 18.597656 25.261719 18.949219 24.910156 18.949219 24.476562 L 18.949219 19.738281 C 18.949219 19.304688 18.597656 18.949219 18.164062 18.949219 Z M 27.574219 15.480469 L 26.339844 25.183594 C 25.984375 27.929688 23.625 30.015625 20.863281 30.015625 L 9.171875 30.015625 C 6.40625 30.015625 4.046875 27.945312 3.695312 25.214844 L 2.425781 15.480469 C 0.996094 14.886719 0 13.472656 0 11.835938 C 0 9.667969 1.765625 7.886719 3.949219 7.886719 L 6.664062 7.886719 L 11.179688 0.371094 C 11.402344 0 11.882812 -0.128906 12.253906 0.0976562 C 12.625 0.335938 12.75 0.820312 12.527344 1.1875 L 8.511719 7.886719 L 21.519531 7.886719 L 17.503906 1.1875 C 17.28125 0.820312 17.410156 0.320312 17.777344 0.0976562 C 18.148438 -0.128906 18.644531 0 18.855469 0.371094 L 23.367188 7.886719 L 26.082031 7.886719 C 28.25 7.886719 30.03125 9.652344 30.03125 11.835938 C 30 13.472656 29.003906 14.886719 27.574219 15.480469 Z M 24.78125 24.972656 L 25.953125 15.785156 L 4.0625 15.785156 L 5.269531 24.988281 C 5.523438 26.949219 7.210938 28.425781 9.1875 28.425781 L 20.878906 28.425781 C 22.835938 28.425781 24.523438 26.949219 24.78125 24.972656 Z M 28.425781 11.835938 C 28.425781 10.535156 27.367188 9.476562 26.050781 9.476562 L 3.949219 9.476562 C 2.648438 9.476562 1.589844 10.535156 1.589844 11.835938 C 1.589844 13.136719 2.648438 14.214844 3.949219 14.214844 L 26.066406 14.214844 C 27.367188 14.214844 28.425781 13.152344 28.425781 11.835938 Z M 28.425781 11.835938 "/>
</g>
</svg>
