<svg fill="none" height="24" viewBox="0 0 24 24" width="24" xmlns="http://www.w3.org/2000/svg"
    xmlns:xlink="http://www.w3.org/1999/xlink">
    <clipPath id="a">
        <path d="m.5.831787h23v23h-23z" />
    </clipPath>
    <g fill="#231f20" stroke="#f9f9f9" stroke-width=".6">
        <path
            d="m7.20832 23.8319c1.05855 0 1.91667-.8582 1.91667-1.9167s-.85812-1.9167-1.91667-1.9167c-1.05854 0-1.91666.8582-1.91666 1.9167s.85812 1.9167 1.91666 1.9167z" />
        <path
            d="m16.7917 23.8319c1.0585 0 1.9166-.8582 1.9166-1.9167s-.8581-1.9167-1.9166-1.9167c-1.0586 0-1.9167.8582-1.9167 1.9167s.8581 1.9167 1.9167 1.9167z" />
        <path
            d="m23.1981 2.11213c-.1797-.17966-.4234-.28059-.6775-.28059s-.4979.10093-.6776.28059l-4.944 4.94883-1.4864-1.55154c-.0872-.09074-.1914-.16341-.3067-.21386-.1153-.05046-.2394-.07771-.3653-.0802-.1258-.00249-.2509.01982-.3681.06567-.1172.04586-.2242.11434-.315.20156-.0907.08721-.1634.19144-.2138.30674-.0505.1153-.0777.23941-.0802.36524-.0051.25413.0911.49985.2672.6831l1.5467 1.60904c.1649.17801.3641.32075.5856.41958.2215.09884.4608.15171.7034.15542h.0316c.2377.00079.4733-.04566.6929-.13663.2196-.09098.419-.22467.5865-.39333l5.0207-5.02454c.1797-.17971.2806-.42342.2806-.67754 0-.25411-.1009-.49783-.2806-.67754z" />
        <path
            d="m21.4875 9.47213c-.1239-.02239-.251-.02014-.374.00661-.1231.02676-.2396.0775-.343.14932-.1035.07182-.1917.16332-.2597.26926-.0681.10598-.1146.22428-.1369.34818l-.1226.6795c-.1196.6634-.4685 1.2638-.9858 1.6961-.5173.4324-1.17.6692-1.8442.669h-11.72905l-.90083-7.66664h6.25028c.2541 0 .4979-.10097.6776-.28069.1797-.17973.2807-.42348.2807-.67765 0-.25416-.101-.49792-.2807-.67764s-.4235-.28069-.6776-.28069h-6.47645l-.04025-.33733c-.08259-.69901-.41873-1.34344-.94474-1.81116-.526-.46771-1.2053-.726213-1.90918-.726513h-.21275c-.25416 0-.497918.100967-.677641.280693-.179722.17972-.280689.42348-.280689.67764 0 .25417.100967.49792.280689.67765.179723.17972.423481.28069.677641.28069h.21275c.23473.00003.46129.0862.63669.24218.17541.15598.28748.37091.31494.60402l1.31867 11.21254c.1369 1.1661.69716 2.2413 1.57445 3.0216s2.01053 1.2114 3.18463 1.2113h10.00784c.2542 0 .498-.1009.6777-.2807.1797-.1797.2807-.4234.2807-.6776s-.101-.4979-.2807-.6776c-.1797-.1798-.4235-.2807-.6777-.2807h-10.00784c-.59463.0001-1.17466-.1842-1.66021-.5274-.48554-.3433-.85271-.8287-1.05091-1.3893h11.43196c1.1234.0001 2.2112-.3946 3.0732-1.1151s1.4435-1.7209 1.6428-2.8265l.1226-.6804c.045-.25-.0111-.5076-.156-.7162-.1448-.20861-.3665-.35122-.6164-.39647z" />
    </g>
</svg>