<svg fill="none" height="25" viewBox="0 0 24 25" width="24" xmlns="http://www.w3.org/2000/svg"><path d="m21.4004 23.5972c.3515.3514.9214.3514 1.2728 0 .3515-.3515.3515-.9214 0-1.2728l-9.8245-9.8246 10.1157-10.11575c.3515-.35147.3515-.92132 0-1.27279-.3515-.351472-.9213-.351472-1.2728 0l-10.1157 10.11574-9.6916-9.69158c-.35148-.35147-.921324-.35147-1.272796 0-.351471.35148-.351472.92132 0 1.2728l9.691596 9.69158-9.400454 9.4004c-.351472.3515-.351471.9213 0 1.2728.351474.3515.921324.3515 1.272794 0l9.40046-9.4004z" fill="#00457a"/></svg>