<svg fill="none" height="17" viewBox="0 0 21 17" width="21" xmlns="http://www.w3.org/2000/svg">
    <g fill="#fff100">
        <path
            d="m18.1087 2.96278h-2.087l-1.1521-1.73913c-.4348-.65217-1.1957-1.043474-1.9783-1.043474h-4.7826c-.78261 0-1.54348.391304-1.97826 1.043474l-1.15218 1.73913h-2.08696c-1.32608 0-2.3913 1.06522-2.3913 2.39131v8.43481c0 1.3261 1.06522 2.3913 2.3913 2.3913h15.2174c1.3261 0 2.3913-1.0652 2.3913-2.3913v-8.43481c0-1.32609-1.0652-2.39131-2.3913-2.39131zm-7.6087 11.26092c-2.97826 0-5.3913-2.4131-5.3913-5.39135 0-2.97826 2.41304-5.36957 5.3913-5.36957 2.9783 0 5.3913 2.41305 5.3913 5.39131 0 2.95651-2.413 5.36961-5.3913 5.36961zm7.3043-7.89135c-.0217 0-.0434 0-.0869 0h-.8696c-.3913-.02174-.6956-.34783-.6739-.73913.0218-.36957.3044-.65217.6739-.67391h.8696c.3913-.02174.7174.2826.7391.67391.0218.3913-.2608.71739-.6522.73913z" />
        <path
            d="m10.4999 5.85303c-1.65214 0-2.99996 1.34782-2.99996 3 0 1.65217 1.34782 2.97827 2.99996 2.97827 1.6522 0 3-1.3478 3-3.00001 0-1.65217-1.3478-2.97826-3-2.97826z" />
    </g>
</svg>