<svg width="29" height="28" viewBox="0 0 29 28" fill="none" xmlns="http://www.w3.org/2000/svg">
<g clip-path="url(#clip0_3380_7061)">
<path d="M10.064 24.0003C10.9845 24.0003 11.7307 23.2541 11.7307 22.3337C11.7307 21.4132 10.9845 20.667 10.064 20.667C9.14353 20.667 8.39734 21.4132 8.39734 22.3337C8.39734 23.2541 9.14353 24.0003 10.064 24.0003Z" fill="#3A3A3A"/>
<path d="M18.3973 24.0003C19.3178 24.0003 20.064 23.2541 20.064 22.3337C20.064 21.4132 19.3178 20.667 18.3973 20.667C17.4768 20.667 16.7307 21.4132 16.7307 22.3337C16.7307 23.2541 17.4768 24.0003 18.3973 24.0003Z" fill="#3A3A3A"/>
<path fill-rule="evenodd" clip-rule="evenodd" d="M22.9743 5.29749C23.0816 5.19025 23.2273 5.12988 23.379 5.12988C23.5308 5.12988 23.6764 5.19017 23.7837 5.29749C23.891 5.40484 23.9513 5.5504 23.9513 5.70217C23.9513 5.85396 23.891 5.99955 23.7837 6.1069L19.4178 10.4761C19.2965 10.5983 19.1515 10.6956 18.9925 10.7615C18.8334 10.8274 18.6629 10.861 18.4907 10.8605L18.4644 10.8605C18.2894 10.8575 18.1168 10.8193 17.957 10.7479C17.7965 10.6764 17.6523 10.573 17.5329 10.4441L16.1846 9.04139C16.0794 8.93193 16.0219 8.78514 16.025 8.63333C16.0264 8.55817 16.0427 8.48403 16.0729 8.41515C16.103 8.34628 16.1464 8.28401 16.2006 8.23191C16.2548 8.17981 16.3188 8.1389 16.3888 8.11151C16.4588 8.08412 16.5335 8.07079 16.6087 8.07228C16.6838 8.07377 16.758 8.09005 16.8269 8.12019C16.8957 8.15031 16.9579 8.19368 17.01 8.24783L18.4868 9.78935L22.9743 5.29749Z" fill="#3A3A3A"/>
<path fill-rule="evenodd" clip-rule="evenodd" d="M5.06398 4.26074C4.91215 4.26074 4.76654 4.32106 4.65919 4.42841C4.55183 4.53577 4.49152 4.68138 4.49152 4.83321C4.49152 4.98503 4.55183 5.13064 4.65919 5.238C4.76654 5.34536 4.91215 5.40567 5.06398 5.40567H5.24898C5.51699 5.40571 5.7757 5.5041 5.97597 5.68219C6.17625 5.86028 6.3042 6.10569 6.33556 6.37185L7.48223 16.1219C7.59382 17.0724 8.05051 17.9489 8.76561 18.585C9.48071 19.221 10.4044 19.5724 11.3615 19.5723H20.064C20.2158 19.5723 20.3614 19.512 20.4688 19.4047C20.5761 19.2973 20.6364 19.1517 20.6364 18.9999C20.6364 18.8481 20.5761 18.7024 20.4688 18.5951C20.3614 18.4877 20.2158 18.4274 20.064 18.4274H11.3615C10.7905 18.4275 10.2335 18.2506 9.76723 17.9209C9.30096 17.5913 8.94837 17.1252 8.75803 16.5868L8.63506 16.239H18.9448C19.8606 16.2391 20.7472 15.9174 21.4499 15.3301C22.1525 14.7428 22.6265 13.9273 22.7889 13.0261L22.8956 12.4345C22.9224 12.2852 22.8889 12.1314 22.8024 12.0067C22.7159 11.8821 22.5834 11.7969 22.4342 11.7699C22.3602 11.7566 22.2843 11.7579 22.2108 11.7739C22.1373 11.7899 22.0677 11.8202 22.0059 11.8631C21.9442 11.906 21.8914 11.9606 21.8508 12.0239C21.8102 12.0872 21.7824 12.1579 21.7691 12.2319L21.6624 12.8228C21.5476 13.4599 21.2125 14.0365 20.7158 14.4516C20.219 14.8668 19.5922 15.0942 18.9448 15.0941H8.51364L7.669 7.90567H13.3973C13.5491 7.90567 13.6948 7.84536 13.8021 7.738C13.9095 7.63064 13.9698 7.48504 13.9698 7.33321C13.9698 7.18138 13.9095 7.03577 13.8021 6.92841C13.6948 6.82106 13.5491 6.76074 13.3973 6.76074H7.53405L7.47161 6.23745C7.40729 5.69304 7.14546 5.19084 6.73579 4.82657C6.32615 4.46233 5.79714 4.261 5.24898 4.26074H5.06398Z" fill="#3A3A3A"/>
</g>
<defs>
<clipPath id="clip0_3380_7061">
<rect width="20" height="20" fill="white" transform="translate(4.23065 4)"/>
</clipPath>
</defs>
</svg>
