<svg fill="none" height="44" viewBox="0 0 45 44" width="45" xmlns="http://www.w3.org/2000/svg"><path d="m27.9484 23.8941c-1.3868 0-2.5297 1.13-2.5297 2.5297v5.0465c0 1.3997 1.13 2.5297 2.5297 2.5297s2.5297-1.13 2.5297-2.5297v-5.0465c0-1.3997-1.1429-2.5297-2.5297-2.5297zm1.2584 7.5762c0 .6934-.565 1.2584-1.2584 1.2584s-1.2584-.565-1.2584-1.2584v-5.0465c0-.6935.565-1.2585 1.2584-1.2585s1.2584.565 1.2584 1.2585zm-12.6228-7.5762c-1.3868 0-2.5297 1.13-2.5297 2.5297v5.0465c0 1.3997 1.1301 2.5297 2.5297 2.5297 1.3869 0 2.5297-1.13 2.5297-2.5297v-5.0465c0-1.3997-1.1428-2.5297-2.5297-2.5297zm1.2585 7.5762c0 .6934-.565 1.2584-1.2585 1.2584-.6934 0-1.2584-.565-1.2584-1.2584v-5.0465c0-.6935.565-1.2585 1.2584-1.2585.6935 0 1.2585.565 1.2585 1.2585zm16.4237-9.4767v6.3178c0 .3467-.2825.6292-.6292.6292s-.6292-.2825-.6292-.6292v-6.3178c0-5.9198-4.8154-10.7352-10.7352-10.7352-5.9197 0-10.7351 4.8154-10.7351 10.7352v6.3178c0 .3467-.2825.6292-.6292.6292s-.6292-.2825-.6292-.6292v-6.3178c0-6.6132 5.3804-11.9936 11.9935-11.9936 6.6132 0 11.9936 5.3804 11.9936 11.9936z" fill="#fff"/></svg>