<svg width="25" height="25" viewBox="0 0 25 25" fill="none" xmlns="http://www.w3.org/2000/svg">
<g clip-path="url(#clip0_1435_2760)">
<path d="M17.2107 0.208374C13.2857 0.208374 10.2107 1.96537 10.2107 4.20837V8.58637C9.30469 8.34637 8.29169 8.20837 7.21069 8.20837C3.28569 8.20837 0.210693 9.96537 0.210693 12.2084V20.2084C0.210693 22.4514 3.28569 24.2084 7.21069 24.2084C11.1357 24.2084 14.2107 22.4514 14.2107 20.2084V19.8234C15.1437 20.0714 16.1657 20.2084 17.2107 20.2084C21.1357 20.2084 24.2107 18.4514 24.2107 16.2084V4.20837C24.2107 1.96537 21.1357 0.208374 17.2107 0.208374ZM23.2107 12.2084C23.2107 13.8344 20.4627 15.2084 17.2107 15.2084C16.1497 15.2084 15.1247 15.0574 14.2107 14.7844V12.2084C14.2107 12.0774 14.1977 11.9484 14.1777 11.8214C15.1157 12.0744 16.1457 12.2084 17.2107 12.2084C19.7917 12.2084 21.9977 11.4464 23.2107 10.2884V12.2084ZM1.21069 14.2884C2.42369 15.4464 4.62969 16.2084 7.21069 16.2084C9.79169 16.2084 11.9977 15.4464 13.2107 14.2884V16.2084C13.2107 17.8344 10.4627 19.2084 7.21069 19.2084C3.95869 19.2084 1.21069 17.8344 1.21069 16.2084V14.2884ZM17.2107 1.20837C20.4627 1.20837 23.2107 2.58237 23.2107 4.20837C23.2107 5.83437 20.4627 7.20837 17.2107 7.20837C13.9587 7.20837 11.2107 5.83437 11.2107 4.20837C11.2107 2.58237 13.9587 1.20837 17.2107 1.20837ZM11.2107 6.28837C12.4237 7.44637 14.6297 8.20837 17.2107 8.20837C19.7917 8.20837 21.9977 7.44637 23.2107 6.28837V8.20837C23.2107 9.83437 20.4627 11.2084 17.2107 11.2084C15.9137 11.2084 14.6797 10.9954 13.6347 10.5954C13.1167 9.90737 12.2747 9.32537 11.2107 8.90737V6.28837ZM7.21069 9.20837C10.4627 9.20837 13.2107 10.5824 13.2107 12.2084C13.2107 13.8344 10.4627 15.2084 7.21069 15.2084C3.95869 15.2084 1.21069 13.8344 1.21069 12.2084C1.21069 10.5824 3.95869 9.20837 7.21069 9.20837ZM7.21069 23.2084C3.95869 23.2084 1.21069 21.8344 1.21069 20.2084V18.2884C2.42369 19.4464 4.62969 20.2084 7.21069 20.2084C9.79169 20.2084 11.9977 19.4464 13.2107 18.2884V20.2084C13.2107 21.8344 10.4627 23.2084 7.21069 23.2084ZM17.2107 19.2084C16.1537 19.2084 15.1247 19.0594 14.2107 18.7864V15.8244C15.1427 16.0724 16.1637 16.2074 17.2107 16.2074C19.7917 16.2074 21.9977 15.4454 23.2107 14.2874V16.2074C23.2107 17.8334 20.4627 19.2084 17.2107 19.2084Z" fill="#FFC200"/>
</g>
<defs>
<clipPath id="clip0_1435_2760">
<rect width="24" height="24" fill="white" transform="translate(0.210693 0.208374)"/>
</clipPath>
</defs>
</svg>
