<svg width="29" height="28" viewBox="0 0 29 28" fill="none" xmlns="http://www.w3.org/2000/svg">
<g clip-path="url(#clip0_210_6106)">
<path d="M10.0632 24.0003C10.9836 24.0003 11.7298 23.2541 11.7298 22.3337C11.7298 21.4132 10.9836 20.667 10.0632 20.667C9.14268 20.667 8.39648 21.4132 8.39648 22.3337C8.39648 23.2541 9.14268 24.0003 10.0632 24.0003Z" fill="#3A3A3A"/>
<path d="M18.3971 24.0003C19.3176 24.0003 20.0638 23.2541 20.0638 22.3337C20.0638 21.4132 19.3176 20.667 18.3971 20.667C17.4767 20.667 16.7305 21.4132 16.7305 22.3337C16.7305 23.2541 17.4767 24.0003 18.3971 24.0003Z" fill="#3A3A3A"/>
<path fill-rule="evenodd" clip-rule="evenodd" d="M22.9748 5.29749C23.0822 5.19025 23.2278 5.12988 23.3796 5.12988C23.5314 5.12988 23.6769 5.19017 23.7843 5.29749C23.8916 5.40484 23.9518 5.5504 23.9518 5.70217C23.9518 5.85396 23.8916 5.99955 23.7842 6.1069L19.4184 10.4761C19.297 10.5983 19.1521 10.6956 18.993 10.7615C18.834 10.8274 18.6634 10.861 18.4913 10.8605L18.465 10.8605C18.29 10.8575 18.1174 10.8193 17.9575 10.7479C17.7971 10.6764 17.6528 10.573 17.5335 10.4441L16.1851 9.04139C16.0799 8.93193 16.0225 8.78514 16.0255 8.63333C16.027 8.55817 16.0433 8.48403 16.0734 8.41515C16.1036 8.34628 16.147 8.28401 16.2012 8.23191C16.2554 8.17981 16.3193 8.1389 16.3893 8.11151C16.4593 8.08412 16.5341 8.07079 16.6092 8.07228C16.6844 8.07377 16.7585 8.09005 16.8274 8.12019C16.8962 8.15031 16.9585 8.19368 17.0105 8.24783L18.4873 9.78935L22.9748 5.29749Z" fill="#3A3A3A"/>
<path fill-rule="evenodd" clip-rule="evenodd" d="M5.06465 4.26074C4.91282 4.26074 4.76722 4.32106 4.65986 4.42841C4.5525 4.53577 4.49219 4.68138 4.49219 4.83321C4.49219 4.98503 4.5525 5.13064 4.65986 5.238C4.76722 5.34536 4.91282 5.40567 5.06465 5.40567H5.24965C5.51766 5.40571 5.77637 5.5041 5.97664 5.68219C6.17692 5.86028 6.30487 6.10569 6.33623 6.37185L7.4829 16.1219C7.59449 17.0724 8.05118 17.9489 8.76628 18.585C9.48138 19.221 10.4051 19.5724 11.3621 19.5723H20.0647C20.2165 19.5723 20.3621 19.512 20.4694 19.4047C20.5768 19.2973 20.6371 19.1517 20.6371 18.9999C20.6371 18.8481 20.5768 18.7024 20.4694 18.5951C20.3621 18.4877 20.2165 18.4274 20.0647 18.4274H11.3622C10.7912 18.4275 10.2342 18.2506 9.7679 17.9209C9.30163 17.5913 8.94904 17.1252 8.7587 16.5868L8.63573 16.239H18.9455C19.8612 16.2391 20.7479 15.9174 21.4505 15.3301C22.1532 14.7428 22.6271 13.9273 22.7896 13.0261L22.8962 12.4345C22.9231 12.2852 22.8896 12.1314 22.8031 12.0067C22.7166 11.8821 22.5841 11.7969 22.4348 11.7699C22.3608 11.7566 22.285 11.7579 22.2115 11.7739C22.138 11.7899 22.0684 11.8202 22.0066 11.8631C21.9448 11.906 21.8921 11.9606 21.8515 12.0239C21.8108 12.0872 21.7831 12.1579 21.7697 12.2319L21.6631 12.8228C21.5482 13.4599 21.2132 14.0365 20.7164 14.4516C20.2197 14.8668 19.5929 15.0942 18.9455 15.0941H8.51431L7.66967 7.90567H13.398C13.5498 7.90567 13.6954 7.84536 13.8028 7.738C13.9101 7.63064 13.9705 7.48504 13.9705 7.33321C13.9705 7.18138 13.9101 7.03577 13.8028 6.92841C13.6954 6.82106 13.5498 6.76074 13.398 6.76074H7.53473L7.47229 6.23745C7.40796 5.69304 7.14613 5.19084 6.73646 4.82657C6.32683 4.46233 5.79781 4.261 5.24965 4.26074H5.06465Z" fill="#3A3A3A"/>
</g>
<defs>
<clipPath id="clip0_210_6106">
<rect width="20" height="20" fill="white" transform="translate(4.23047 4)"/>
</clipPath>
</defs>
</svg>
