<svg fill="none" height="16" viewBox="0 0 16 16" width="16" xmlns="http://www.w3.org/2000/svg"><path d="m6.7409 10.5268v2.5267c0 .2313-.18844.4197-.4197.4197s-.4197-.1884-.4197-.4197v-2.5267c0-.2313.18844-.4197.4197-.4197s.4197.1884.4197.4197zm2.94647-.4197c-.23127 0-.4197.1884-.4197.4197v2.5267c0 .2313.18843.4197.4197.4197.23126 0 .41973-.1884.41973-.4197v-2.5267c0-.2313-.18847-.4197-.41973-.4197zm5.01923-1.85014-.6595 5.17344c-.1884 1.4647-1.4475 2.5782-2.9208 2.5782h-6.23551c-1.47323 0-2.73233-1.105-2.92077-2.5611l-.67666-5.19054c-.762311-.31692-1.29336-1.07066-1.29336-1.94433 0-1.15631.942184-2.10706 2.10707-2.10706h1.44753l2.40686-4.008568c.11991-.19700169.37687-.2655242.57387-.1456098.197.1284798.26553.3854388.14561.5824408l-2.14133 3.571737h6.93789l-2.14131-3.571737c-.11992-.197002-.05139-.462526.14561-.5824408.197-.1199144.46253-.05139189.5739.1456098l2.4068 4.008568h1.4476c1.1563 0 2.107.94218 2.107 2.10706-.0171.87367-.5481 1.62741-1.3105 1.94433zm-1.4903 5.06214.6252-4.8994h-11.67448l.6424 4.9079c.13705 1.045 1.0364 1.833 2.08994 1.833h6.23554c1.045 0 1.9443-.788 2.0814-1.8415zm1.9443-7.00647c0-.69379-.5653-1.2591-1.2677-1.2591h-11.78583c-.69379 0-1.259104.56531-1.259104 1.2591s.565314 1.26767 1.259104 1.26767h11.79443c.6938 0 1.2591-.56531 1.2591-1.26767z" fill="#fff"/></svg>