<svg fill="none" height="25" viewBox="0 0 24 25" width="24" xmlns="http://www.w3.org/2000/svg">
    <path
        d="m15.7944 13.9513c-.925 0-1.6873.7537-1.6873 1.6873v3.3662c0 .9336.7537 1.6874 1.6873 1.6874.9337 0 1.6874-.7538 1.6874-1.6874v-3.3662c-.0086-.9336-.7623-1.6873-1.6874-1.6873zm.8394 5.0535c0 .4625-.3768.8394-.8394.8394-.4625 0-.8394-.3769-.8394-.8394v-3.3662c0-.4625.3769-.8394.8394-.8394.4626 0 .8394.3769.8394.8394zm-8.41967-5.0535c-.92505 0-1.68736.7537-1.68736 1.6873v3.3662c0 .9336.75374 1.6874 1.68736 1.6874.92506 0 1.68737-.7538 1.68737-1.6874v-3.3662c-.00857-.9336-.76231-1.6873-1.68737-1.6873zm.8394 5.0535c0 .4625-.37687.8394-.8394.8394-.46252 0-.8394-.3769-.8394-.8394v-3.3662c0-.4625.37688-.8394.8394-.8394.46253 0 .8394.3769.8394.8394zm10.94647-6.3212v4.2141c0 .2313-.1884.4197-.4197.4197s-.4197-.1884-.4197-.4197v-4.2141c0-3.94861-3.212-7.16061-7.1606-7.16061-3.94861 0-7.1606 3.212-7.1606 7.16061v4.2141c0 .2313-.18844.4197-.4197.4197s-.4197-.1884-.4197-.4197v-4.2141c0-4.41114 3.58887-8.00001 8-8.00001 4.4111 0 8 3.58887 8 8.00001z"
        fill="#3a3a3a" />
</svg>