<svg width="29" height="29" viewBox="0 0 29 29" fill="none" xmlns="http://www.w3.org/2000/svg">
<path d="M19.4018 16.262C18.2461 16.262 17.2937 17.2037 17.2937 18.3701V22.5755C17.2937 23.7419 18.2354 24.6836 19.4018 24.6836C20.5682 24.6836 21.5099 23.7419 21.5099 22.5755V18.3701C21.4992 17.2037 20.5575 16.262 19.4018 16.262ZM20.4505 22.5755C20.4505 23.1534 19.9796 23.6242 19.4018 23.6242C18.8239 23.6242 18.3531 23.1534 18.3531 22.5755V18.3701C18.3531 17.7922 18.8239 17.3214 19.4018 17.3214C19.9796 17.3214 20.4505 17.7922 20.4505 18.3701V22.5755ZM9.93147 16.262C8.77578 16.262 7.82339 17.2037 7.82339 18.3701V22.5755C7.82339 23.7419 8.76507 24.6836 9.93147 24.6836C11.0872 24.6836 12.0396 23.7419 12.0396 22.5755V18.3701C12.0289 17.2037 11.0872 16.262 9.93147 16.262ZM10.9802 22.5755C10.9802 23.1534 10.5093 23.6242 9.93147 23.6242C9.35362 23.6242 8.88278 23.1534 8.88278 22.5755V18.3701C8.88278 17.7922 9.35362 17.3214 9.93147 17.3214C10.5093 17.3214 10.9802 17.7922 10.9802 18.3701V22.5755ZM24.6559 14.6782V19.9431C24.6559 20.232 24.4205 20.4674 24.1316 20.4674C23.8427 20.4674 23.6072 20.232 23.6072 19.9431V14.6782C23.6072 9.74512 19.5944 5.73228 14.6613 5.73228C9.72816 5.73228 5.71532 9.74512 5.71532 14.6782V19.9431C5.71532 20.232 5.4799 20.4674 5.19097 20.4674C4.90205 20.4674 4.66663 20.232 4.66663 19.9431V14.6782C4.66663 9.16727 9.15031 4.68359 14.6613 4.68359C20.1722 4.68359 24.6559 9.16727 24.6559 14.6782Z" fill="#3A3A3A"/>
</svg>
