<?xml version="1.0" encoding="UTF-8"?>
<svg id="Layer_2" data-name="Layer 2" xmlns="http://www.w3.org/2000/svg" viewBox="0 0 18.93 18.93">
  <defs>
    <style>
      .cls-1 {
        fill: #fff;
        stroke: #fff;
        stroke-miterlimit: 10;
        stroke-width: .25px;
      }
    </style>
  </defs>
  <g id="Layer_1-2" data-name="Layer 1">
    <path class="cls-1" d="M7.99,12.42v2.95c0,.27-.22.49-.49.49s-.49-.22-.49-.49v-2.95c0-.27.22-.49.49-.49s.49.22.49.49M11.43,11.92c-.27,0-.49.22-.49.49v2.95c0,.27.22.49.49.49s.49-.22.49-.49v-2.95c0-.27-.22-.49-.49-.49M17.3,9.77l-.77,6.04c-.22,1.71-1.69,3.01-3.41,3.01h-7.28c-1.72,0-3.19-1.29-3.41-2.99l-.79-6.05c-.89-.37-1.51-1.25-1.51-2.27,0-1.36,1.1-2.46,2.46-2.46h1.69L7.08.36c.14-.23.44-.31.67-.17.23.14.31.44.17.67l-2.5,4.17h8.1L11.01.87c-.14-.23-.06-.54.17-.67.23-.14.54-.06.67.17l2.81,4.68h1.69c1.36,0,2.46,1.1,2.46,2.46,0,1.02-.62,1.89-1.51,2.27M15.55,15.68l.73-5.72H2.65l.75,5.73c.16,1.22,1.21,2.14,2.44,2.14h7.28c1.23,0,2.28-.92,2.44-2.15M17.83,7.5c0-.81-.66-1.48-1.48-1.48H2.58c-.81,0-1.48.66-1.48,1.48s.66,1.48,1.48,1.48h13.77c.81,0,1.48-.66,1.48-1.48"/>
  </g>
</svg>