<svg width="26" height="26" viewBox="0 0 26 26" fill="none" xmlns="http://www.w3.org/2000/svg">
<path d="M18.6788 14.7691C17.2227 14.7691 16.0228 15.9546 16.0228 17.4238V22.4703C16.0228 23.9391 17.2094 25.125 18.6788 25.125C20.1482 25.125 21.3348 23.9391 21.3348 22.4703V17.4238C21.3348 15.9546 20.1349 14.7691 18.6788 14.7691ZM19.8129 22.4703C19.8129 23.0946 19.3036 23.6037 18.6788 23.6037C18.054 23.6037 17.5447 23.0946 17.5447 22.4703V17.4238C17.5447 16.7994 18.054 16.2903 18.6788 16.2903C19.3036 16.2903 19.8129 16.7994 19.8129 17.4238V22.4703ZM7.30835 14.7691C5.85221 14.7691 4.6523 15.9546 4.6523 17.4238V22.4703C4.6523 23.9391 5.83895 25.125 7.30835 25.125C8.76449 25.125 9.9644 23.9395 9.9644 22.4703V17.4238C9.9644 15.9546 8.76449 14.7691 7.30835 14.7691ZM8.44245 22.4703C8.44245 23.0946 7.93317 23.6037 7.30835 23.6037C6.68354 23.6037 6.17426 23.0946 6.17426 22.4703V17.4238C6.17426 16.7994 6.68354 16.2903 7.30835 16.2903C7.93317 16.2903 8.44245 16.7994 8.44245 17.4238V22.4703ZM25.125 19.3114V12.9936C25.125 6.31131 19.6857 0.875 13 0.875C6.31432 0.875 0.875 6.31131 0.875 12.9936V19.3114C0.875 19.7272 1.21369 20.0656 1.62956 20.0656C2.04542 20.0656 2.38409 19.7272 2.38409 19.3114V12.9936C2.38409 7.14293 7.14605 2.38344 13 2.38344C18.8539 2.38344 23.6159 7.14293 23.6159 12.9936V19.3114C23.6159 19.7272 23.9546 20.0656 24.3704 20.0656C24.7863 20.0656 25.125 19.7272 25.125 19.3114Z" fill="#00457A" stroke="#00457A" stroke-width="0.25"/>
</svg>
