<svg fill="none" height="18" viewBox="0 0 20 18" width="20" xmlns="http://www.w3.org/2000/svg"><path d="m15.1463 3.46977-1.25-1.86c-.45-.690004-1.22-1.100004-2.04-1.100004h-3.79997c-.82 0-1.58.41-2.04 1.100004l-1.24 1.86c-2.32.14-4.159997 2.07-4.159997 4.42v4.92003c0 2.44 1.989997 4.43 4.429997 4.43h9.82997c2.44 0 4.42-1.99 4.42-4.43v-4.92003c0-2.35-1.84-4.28-4.15-4.42zm3.17 9.33003c0 1.9-1.54 3.44-3.44 3.44h-9.82997c-1.9 0-3.44-1.54-3.44-3.44v-4.91003c0-1.9 1.54-3.44 3.44-3.44.16 0 .32-.08.41-.22l1.38-2.07c.27-.41.73-.66 1.23-.66h3.79997c.49 0 .95.25 1.23.66l1.38 2.07c.09.14.24.22.41.22 1.9 0 3.44 1.54 3.44 3.44v4.91003zm-8.35997-6.39003c-1.9 0-3.44 1.54-3.44 3.44 0 1.90003 1.54 3.44003 3.44 3.44003 1.89997 0 3.43997-1.55 3.43997-3.44003 0-1.9-1.54-3.44-3.43997-3.44zm0 5.90003c-1.36 0-2.46-1.1-2.46-2.46003 0-1.36 1.1-2.46 2.46-2.46 1.35997 0 2.45997 1.1 2.45997 2.46 0 1.36003-1.1 2.46003-2.45997 2.46003zm6.73997-5.41003c0 .46-.37.84-.84.84-.46 0-.84-.37-.84-.84 0-.46.38-.84.84-.84.46.01.84.38.84.84z" fill="#fff"/></svg>