<svg width="10" height="7" viewBox="0 0 10 7" fill="none" xmlns="http://www.w3.org/2000/svg">
<path d="M9.31897 0.501953C9.66482 0.830636 9.6575 1.34097 9.38538 1.6875L9.32776 1.75488L9.32385 1.75879L5.54651 5.54883L5.54651 5.5498C5.20234 5.89394 4.64837 5.88705 4.29749 5.55371L4.29358 5.5498L0.50354 1.75879C0.321537 1.57679 0.249644 1.35608 0.249634 1.13281C0.249634 0.897838 0.34117 0.685188 0.493774 0.515625L0.502563 0.505859L0.50354 0.505859C0.84519 0.164704 1.40117 0.164663 1.7428 0.505859L4.90686 3.66992L8.07092 0.505859C8.41512 0.162117 8.96822 0.168737 9.31897 0.501953Z" fill="#00457A" stroke="#00457A" stroke-width="0.5"/>
</svg>
