<svg width="37" height="37" viewBox="0 0 37 37" fill="none" xmlns="http://www.w3.org/2000/svg">
<path d="M29.3594 22.2995C29.2376 21.965 28.8678 21.7925 28.5334 21.9143L26.5545 22.6346C26.4013 22.2135 22.6007 11.7712 22.3665 11.1277C22.3081 10.9671 22.1882 10.8363 22.0333 10.764C21.8784 10.6918 21.701 10.684 21.5405 10.7426L13.6555 13.6126C12.6022 10.727 11.7591 8.41685 11.6572 8.13697C11.5988 7.97632 11.4789 7.84548 11.324 7.77326C11.1691 7.70103 10.9918 7.6933 10.8312 7.75177C10.6199 7.82868 8.08996 8.84801 7.80218 8.96398C7.47204 9.097 7.31229 9.47248 7.44531 9.80263C7.57833 10.1328 7.9538 10.2925 8.28394 10.1595C9.02822 9.85961 10.0363 9.45422 10.6729 9.19995C11.6807 11.962 15.6067 22.7168 16.7634 25.8854C15.8836 26.0663 15.2198 26.8468 15.2198 27.7794C15.2198 28.8455 16.0872 29.7129 17.1533 29.7129C18.2193 29.7129 19.0867 28.8455 19.0867 27.7794C19.0867 27.4295 18.9928 27.1014 18.8296 26.818L28.9742 23.1256C29.3087 23.0038 29.4811 22.634 29.3594 22.2995ZM25.3433 23.0754L18.0755 25.7208C17.7474 24.8221 17.0859 23.0102 16.3074 20.8775L23.5799 18.2304L25.3433 23.0754ZM21.3758 12.1742L23.1391 17.0191L15.8654 19.6666C15.2893 18.0883 14.6745 16.4041 14.0975 14.8233L21.3758 12.1742ZM17.1533 28.4239C16.7979 28.4239 16.5088 28.1348 16.5088 27.7794C16.5088 27.424 16.7979 27.1349 17.1533 27.1349C17.5086 27.1349 17.7977 27.424 17.7977 27.7794C17.7977 28.1348 17.5086 28.4239 17.1533 28.4239Z" fill="#2F664E"/>
</svg>
