<svg width="40" height="44" viewBox="0 0 40 44" fill="none" xmlns="http://www.w3.org/2000/svg">
<rect width="39.5" height="44" rx="8" fill="#FEB4A8"/>
<path d="M20.5 30.25C20.5 30.6642 20.1642 31 19.75 31C19.3358 31 19 30.6642 19 30.25V20.5C19 20.0858 19.3358 19.75 19.75 19.75C20.1642 19.75 20.5 20.0858 20.5 20.5V30.25Z" fill="#FD4425"/>
<path d="M23.5 31C23.9142 31 24.25 30.6642 24.25 30.25V20.5C24.25 20.0858 23.9142 19.75 23.5 19.75C23.0858 19.75 22.75 20.0858 22.75 20.5V30.25C22.75 30.6642 23.0858 31 23.5 31Z" fill="#FD4425"/>
<path d="M16.75 30.25C16.75 30.6642 16.4142 31 16 31C15.5858 31 15.25 30.6642 15.25 30.25V20.5C15.25 20.0858 15.5858 19.75 16 19.75C16.4142 19.75 16.75 20.0858 16.75 20.5V30.25Z" fill="#FD4425"/>
<path fill-rule="evenodd" clip-rule="evenodd" d="M23.5 13H27.625C28.6589 13 29.5 13.8411 29.5 14.875V17.5C29.5 17.9142 29.1642 18.25 28.75 18.25H28.3401L27.6922 31.857C27.635 33.0587 26.6478 34 25.4448 34H14.0552C12.8522 34 11.8651 33.0587 11.8078 31.857L11.1599 18.25H10.75C10.3358 18.25 10 17.9142 10 17.5V14.875C10 13.8411 10.8411 13 11.875 13H16V12.25C16 11.0094 17.0094 10 18.25 10H21.25C22.4906 10 23.5 11.0094 23.5 12.25V13ZM18.25 11.5C17.8365 11.5 17.5 11.8365 17.5 12.25V13H22V12.25C22 11.8365 21.6635 11.5 21.25 11.5H18.25ZM11.875 14.5C11.6682 14.5 11.5 14.6682 11.5 14.875V16.75H28V14.875C28 14.6682 27.8318 14.5 27.625 14.5H11.875ZM25.4448 32.5C25.8457 32.5 26.1748 32.1862 26.1939 31.7857L26.8384 18.25H12.6616L13.3061 31.7857C13.3252 32.1862 13.6542 32.5 14.0552 32.5H25.4448Z" fill="#FD4425"/>
</svg>
