<svg fill="none" height="25" viewBox="0 0 21 25" width="21" xmlns="http://www.w3.org/2000/svg"><path d="m18.1443 7.21598h-2.9978c-.5482 0-1.0279-.35118-1.1992-.8651l-.2655-.79657c-.1713-.52249-.651-.8651-1.1991-.8651h-3.8373c-.54818 0-1.02784.34261-1.19915.8651l-.26552.79657c-.17131.51392-.65097.8651-1.19915.8651h-2.99785c-.23127 0-.4197.18843-.4197.4197 0 .23126.18843.4197.4197.4197h1.29336l.65953 9.88432c.10278 1.5418 1.39614 2.7495 2.9379 2.7495h5.37898c1.5418 0 2.8352-1.2077 2.9379-2.7495l.6596-9.88432h1.2933c.2313 0 .4197-.18844.4197-.4197 0-.23127-.1884-.4197-.4197-.4197zm-9.90147-1.39615c.05995-.17131.22269-.29122.40257-.29122h3.8373c.1798 0 .3426.11991.4025.29122l.2655.79657c.0771.2227.1799.4197.317.59958h-5.79875c.13705-.17988.23983-.37688.31692-.59958zm7.10917 12.05997c-.0685 1.1049-.9935 1.9614-2.0985 1.9614h-5.37898c-1.10493 0-2.02998-.8651-2.0985-1.9614l-.65953-9.82442h.86509c.09422 0 .17988-.00857.26553-.01713.03426.00856.06852.01713.10278.01713h8.41971c.0343 0 .0685-.00857.1028-.01713.0856.00856.1798.01713.2655.01713h.8651zm-2.6809-6.03v4.2141c0 .2313-.1884.4197-.4197.4197s-.4197-.1884-.4197-.4197v-4.2141c0-.2313.1884-.4197.4197-.4197s.4197.1884.4197.4197zm-3.36618 0v4.2141c0 .2313-.18843.4197-.4197.4197-.23126 0-.4197-.1884-.4197-.4197v-4.2141c0-.2313.18844-.4197.4197-.4197.23127 0 .4197.1884.4197.4197z" fill="#3a3a3a"/></svg>