<svg width="25" height="28" viewBox="0 0 25 28" fill="none" xmlns="http://www.w3.org/2000/svg">
<path d="M21.706 7.15846H17.9587C17.2735 7.15846 16.6739 6.71949 16.4598 6.07709L16.1279 5.08137C15.9137 4.42827 15.3142 4 14.6289 4H9.83237C9.14714 4 8.54757 4.42827 8.33344 5.08137L8.00153 6.07709C7.7874 6.71949 7.18783 7.15846 6.5026 7.15846H2.75528C2.4662 7.15846 2.23065 7.394 2.23065 7.68308C2.23065 7.97216 2.4662 8.20771 2.75528 8.20771H4.37198L5.19639 20.5632C5.32487 22.4904 6.94157 24 8.86877 24H15.5925C17.5197 24 19.1364 22.4904 19.2649 20.5632L20.0893 8.20771H21.706C21.9951 8.20771 22.2307 7.97216 22.2307 7.68308C22.2307 7.394 21.9951 7.15846 21.706 7.15846ZM9.32915 5.41328C9.4041 5.19914 9.60753 5.04925 9.83237 5.04925H14.6289C14.8538 5.04925 15.0572 5.19914 15.1322 5.41328L15.4641 6.40899C15.5604 6.68737 15.6889 6.93362 15.8602 7.15846H8.61181C8.78311 6.93362 8.91159 6.68737 9.00795 6.40899L9.32915 5.41328ZM18.2157 20.4882C18.13 21.8694 16.9737 22.94 15.5925 22.94H8.86877C7.48761 22.94 6.33129 21.8587 6.24564 20.4882L5.42123 8.20771H6.5026C6.62037 8.20771 6.72744 8.197 6.83451 8.1863C6.87733 8.197 6.92016 8.20771 6.96299 8.20771H17.4876C17.5304 8.20771 17.5733 8.197 17.6161 8.1863C17.7232 8.197 17.8409 8.20771 17.948 8.20771H19.0294L18.2157 20.4882ZM14.8645 12.9507V18.2184C14.8645 18.5075 14.6289 18.743 14.3399 18.743C14.0508 18.743 13.8152 18.5075 13.8152 18.2184V12.9507C13.8152 12.6617 14.0508 12.4261 14.3399 12.4261C14.6289 12.4261 14.8645 12.6617 14.8645 12.9507ZM10.6568 12.9507V18.2184C10.6568 18.5075 10.4212 18.743 10.1322 18.743C9.84307 18.743 9.60753 18.5075 9.60753 18.2184V12.9507C9.60753 12.6617 9.84307 12.4261 10.1322 12.4261C10.4212 12.4261 10.6568 12.6617 10.6568 12.9507Z" fill="#3A3A3A"/>
</svg>
