<svg fill="none" height="17" viewBox="0 0 16 17" width="16" xmlns="http://www.w3.org/2000/svg"
    xmlns:xlink="http://www.w3.org/1999/xlink">
    <clipPath id="a">
        <path d="m.666687.456299h15.3333v16h-15.3333z" />
    </clipPath>
    <g clip-path="url(#a)" fill="#231f20" stroke="#fff100" stroke-width=".1">
        <path
            d="m12.2177 3.13304.0082.03993h.0408 2.0667c.1635 0 .3204.06497.436.18061.1156.11565.1806.2725.1806.43605s-.065.3204-.1806.43605-.2725.18062-.436.18062h-.6667-.05v.05 8.6666c-.0011.8705-.3473 1.705-.9628 2.3206-.6156.6155-1.4501.9618-2.3206.9628h-3.99989c-.87049-.001-1.70502-.3473-2.32055-.9628-.61553-.6156-.9618-1.4501-.96284-2.3206v-8.6666-.05h-.05-.66667c-.16355 0-.3204-.06497-.43605-.18062-.11564-.11565-.18061-.2725-.18061-.43605s.06497-.3204.18061-.43605c.11565-.11564.2725-.18061.43605-.18061h2.06667.04076l.00822-.03993c.15241-.74113.55567-1.40705 1.14181-1.88553.58613-.478478 1.3193-.740256 2.07594-.741211h1.33324c.75662.000962 1.48981.26274 2.07591.741211.5861.47848.9894 1.1444 1.1418 1.88553zm-4.55101-1.39341h-.00006c-.42384.00052-.83713.13214-1.18322.3768-.34608.24467-.608.59041-.74984.9898l-.0237.06674h.07082 5.10531.0708l-.0237-.06674c-.1418-.39939-.4037-.74513-.7498-.9898-.34609-.24466-.75939-.37628-1.18322-.3768h-.00006zm-3.33334 2.66667h-.05v.05 8.6667c0 .5437.21599 1.0651.60043 1.4495.38445.3845.90588.6005 1.44957.6005h4.00005c.5436 0 1.0651-.216 1.4495-.6005.3845-.3844.6005-.9058.6005-1.4495v-8.6667-.05h-.05z" />
        <path
            d="m7.47124 12.2265c-.11062.1155-.26018.1799-.41566.1799s-.30505-.0644-.41567-.1799c-.11068-.1155-.17322-.2726-.17322-.4368v-3.99999c0-.16422.06254-.32131.17322-.43681.11062-.11542.26019-.17985.41567-.17985s.30504.06443.41566.17985c.11069.1155.17322.27259.17322.43681v3.99999c0 .1642-.06253.3213-.17322.4368z" />
        <path
            d="m10.0268 12.2265c-.11064.1155-.2602.1799-.41568.1799s-.30505-.0644-.41567-.1799c-.11068-.1155-.17322-.2726-.17322-.4368v-3.99999c0-.16422.06254-.32131.17322-.43681.11062-.11542.26019-.17985.41567-.17985s.30504.06443.41568.17985c.1107.1155.1732.27259.1732.43681v3.99999c0 .1642-.0625.3213-.1732.4368z" />
    </g>
</svg>