<svg fill="none" height="60" viewBox="0 0 59 60" width="59" xmlns="http://www.w3.org/2000/svg"><path d="m58.6837 20.6282c0-.1585-.0312-.3486-.0936-.5071l-3.338-10.17303c-1.8718-5.70449-7.1128-9.570873-13.0713-9.570873h-25.2691c-5.9273 0-11.19955 3.866383-13.07134 9.602573l-3.338018 10.17303c-.062393.1584-.09359.3169-.09359.4754 0 2.9473 1.185468 5.6411 3.088448 7.606v.0316 20.3778c0 6.0214 4.80426 10.9019 10.7316 10.9019h10.8252v-10.9019c0-2.5671 2.0589-4.6904 4.617-4.6904 2.5269 0 4.5859 2.0917 4.5859 4.6904v10.9019h10.6692c5.9273 0 10.7316-4.8805 10.7316-10.9019v-20.3461-.0317c1.8406-1.9648 3.026-4.6586 3.026-7.6376zm-51.94207-9.666c1.46624-4.46852 5.55297-7.47922 10.17007-7.47922h25.2691c4.6171 0 8.7038 2.97901 10.2013 7.44752l3.2444 9.9195c-.1248 4.1833-3.494 7.5426-7.6431 7.5426-3.4317 0-6.7697-2.2184-7.7992-5.1974-.2183-.6339-.8111-1.0458-1.435-1.0458-.6551 0-1.2167.4119-1.435 1.0458-.9983 2.9473-4.3363 5.1657-7.768 5.1657-3.4316 0-6.7696-2.2184-7.7367-5.1657-.2184-.5705-.8111-1.0141-1.4662-1.0141-.5927.1267-1.2167.4436-1.435 1.0458-1.0295 2.9473-4.3676 5.1974-7.7992 5.1974-4.11789 0-7.48711-3.3593-7.64309-7.5426zm38.15327 45.5092h-7.5807v-7.7961c0-4.3101-3.4316-7.7962-7.6744-7.7962-4.2427 0-7.6743 3.4861-7.6743 7.7962v7.7961h-7.7367c-4.24274 0-7.67435-3.4861-7.67435-7.7961v-18.2227c1.37265.6655 2.93247 1.0775 4.55465 1.0775 3.65 0 7.144-1.8064 9.2342-4.5636 2.059 2.7572 5.553 4.5636 9.2029 4.5636 3.65 0 7.144-1.8064 9.203-4.5636 2.0902 2.7572 5.5842 4.5636 9.2342 4.5636 1.6534 0 3.182-.412 4.5546-1.0775v18.2227c.0312 4.31-3.4316 7.7961-7.6431 7.7961z" fill="#3a3a3a"/></svg>