<svg width="47" height="48" viewBox="0 0 47 48" fill="none" xmlns="http://www.w3.org/2000/svg">
<path d="M46.5098 16.474C46.5098 16.3477 46.4852 16.1961 46.4358 16.0697L43.7947 7.95762C42.3136 3.40878 38.1668 0.325684 33.4522 0.325684H13.4585C8.76862 0.325684 4.59709 3.40878 3.11608 7.98289L0.47493 16.095C0.425563 16.2213 0.400879 16.3477 0.400879 16.474C0.400879 18.8243 1.33886 20.9723 2.84456 22.5392C2.84456 22.5644 2.84456 22.5644 2.84456 22.5644V38.8139C2.84456 43.6154 6.64583 47.5072 11.3357 47.5072H19.9009V38.8139C19.9009 36.7669 21.53 35.0737 23.5541 35.0737C25.5535 35.0737 27.1826 36.7416 27.1826 38.8139V47.5072H35.6244C40.3143 47.5072 44.1155 43.6154 44.1155 38.8139V22.5897V22.5644C45.5719 20.9976 46.5098 18.8495 46.5098 16.474ZM5.41165 8.7663C6.57178 5.20304 9.80533 2.80227 13.4585 2.80227H33.4522C37.1054 2.80227 40.3389 5.17777 41.5238 8.74103L44.0909 16.6509C43.9921 19.9868 41.3263 22.6655 38.0434 22.6655C35.3282 22.6655 32.687 20.8965 31.8725 18.521C31.6997 18.0156 31.2307 17.6871 30.737 17.6871C30.2187 17.6871 29.7744 18.0156 29.6016 18.521C28.8117 20.8713 26.1706 22.6402 23.4554 22.6402C20.7402 22.6402 18.099 20.8713 17.3338 18.521C17.161 18.0661 16.6921 17.7123 16.1737 17.7123C15.7047 17.8134 15.211 18.0661 15.0383 18.5463C14.2237 20.8965 11.5826 22.6908 8.86735 22.6908C5.60912 22.6908 2.94329 20.012 2.81987 16.6762L5.41165 8.7663ZM35.5997 45.0559H29.6016V38.8391C29.6016 35.4023 26.8864 32.6224 23.5294 32.6224C20.1724 32.6224 17.4572 35.4023 17.4572 38.8391V45.0559H11.3357C7.97874 45.0559 5.26355 42.276 5.26355 38.8391V24.3081C6.34963 24.8388 7.58381 25.1674 8.86735 25.1674C11.7553 25.1674 14.5199 23.7269 16.1737 21.5283C17.8028 23.7269 20.5674 25.1674 23.4554 25.1674C26.3433 25.1674 29.1079 23.7269 30.737 21.5283C32.3908 23.7269 35.1554 25.1674 38.0434 25.1674C39.3516 25.1674 40.5611 24.8388 41.6472 24.3081V38.8391C41.6719 42.276 38.932 45.0559 35.5997 45.0559Z" fill="#00457A"/>
</svg>
