<svg width="14" height="14" viewBox="0 0 14 14" fill="none" xmlns="http://www.w3.org/2000/svg">
<circle cx="7" cy="7" r="7" fill="#00457A" fill-opacity="0.1"/>
<path d="M10.7945 6.29831C10.2509 5.44 9.03959 4 7.00214 4C4.96469 4 3.74906 5.44 3.20546 6.29831C2.93151 6.73356 2.93151 7.27051 3.20546 7.70169C3.74906 8.56 4.96041 10 7.00214 10C9.03959 10 10.2552 8.56 10.7945 7.70169C11.0685 7.27051 11.0685 6.73356 10.7945 6.29831ZM10.435 7.49831C9.93847 8.28339 8.83414 9.60136 7.00214 9.60136C5.17014 9.60136 4.06581 8.28339 3.56929 7.49831C3.37667 7.19322 3.37667 6.81085 3.56929 6.50576C4.06581 5.72068 5.17014 4.40271 7.00214 4.40271C8.83414 4.40271 9.93847 5.72068 10.435 6.50576C10.6276 6.81085 10.6276 7.19322 10.435 7.49831ZM6.99786 5.40339C6.06902 5.40339 5.31568 6.11932 5.31568 7.00203C5.31568 7.88475 6.06902 8.60068 6.99786 8.60068C7.9267 8.60068 8.68004 7.88475 8.68004 7.00203C8.68004 6.11932 7.9267 5.40339 6.99786 5.40339ZM6.99786 8.20203C6.30016 8.20203 5.73515 7.66508 5.73515 7.00203C5.73515 6.33898 6.30016 5.80203 6.99786 5.80203C7.69556 5.80203 8.26057 6.33898 8.26057 7.00203C8.26057 7.66508 7.69556 8.20203 6.99786 8.20203Z" fill="#00457A"/>
</svg>
