<svg fill="none" height="30" viewBox="0 0 32 30" width="32" xmlns="http://www.w3.org/2000/svg"><path d="m24.5619 13.3825c-.59-.98-1.58-2.32-2.98-3.47l2.32-2.32c.19-.19.19-.5 0-.7-.19-.19-.5-.19-.7 0l-5.44 5.44-10.27997 10.3c-.19.19-.19.5 0 .7.1.1.22.15.35.15s.25-.05.35-.15l2.40997-2.41c1.56 1.04 3.28 1.58 5.11 1.58 4.74 0 7.59-3.54 8.87-5.65.63-1.08.63-2.4-.01-3.47zm-5.92 1.73c0 1.63-1.32 2.95-2.95 2.95-.62 0-1.21-.2-1.7-.55l4.1-4.1c.35.49.55 1.07.55 1.7zm5.08 1.22c-1.17 1.93-3.76 5.17-8.02 5.17-1.57 0-3.03-.46-4.38-1.32l1.98-1.98c.68.54 1.51.84 2.4.84 2.17 0 3.93-1.76 3.93-3.93 0-.89-.3-1.72-.84-2.4l2.1-2.11c1.33 1.07 2.27 2.35 2.83 3.28.45.76.45 1.7 0 2.45zm-15.57997 2.34c-.48-.57-.92-1.19-1.31-1.83-.64-1.07-.64-2.39 0-3.46 1.28-2.11 4.11997-5.65 8.86997-5.65.92 0 1.8.13 2.71.4.26.08.41.35.33.61s-.35.41-.61.33c-.81-.24-1.61-.36-2.42-.36-4.26 0-6.85997 3.24-8.01997 5.17-.45.75-.45 1.69 0 2.44.36.6.77 1.17 1.22 1.71.18.21.15.52-.06.69-.09.08-.2.12-.32.12-.15.01-.29-.05-.39-.17zm6.92997-7.44c.27-.04.52.14.56.41s-.14.52-.41.56c-1.24.19-2.25 1.2-2.44 2.44-.04.24-.25.42-.49.42-.02 0-.05 0-.08-.01-.27-.04-.45-.29-.41-.56.27-1.66 1.61-3 3.27-3.26z" fill="#a8acb1"/></svg>