<svg fill="none" height="84" viewBox="0 0 81 84" width="81" xmlns="http://www.w3.org/2000/svg">
    <path
        d="m66.679 1.64627c-.6922-1.178001-1.2339-1.464874-2.7578-1.464874h-46.8449c-1.5251 0-2.0668.288093-2.7578 1.464874l-13.564556 23.08523c-.542929.9254-.7551647 1.67-.7551647 2.6588v7.5807c0 2.555.8588147 4.966 2.4826607 6.9716l.21594.2662.00123.3418.06787 30.9846c0 5.3199 4.52235 9.645 10.08242 9.645h55.3022c5.5589 0 10.0825-4.3263 10.0825-9.6438l.0678-30.9871.0013-.3418.2159-.2661c1.6238-2.0057 2.4827-4.4166 2.4827-6.9716v-7.0705c0-1.5991-.0605-1.9861-.8169-3.274zm8.2402 44.74103c-.0025 7.8908-.0049 12.2965-.0062 14.9125-.0012 3.8258-.0012 3.8258-.0012 5.2992 0 1.0205.0012 2.7466.0012 6.9386 0 3.4071-3.0983 6.2856-6.7643 6.2868l-29.5403-.0012h-.9871v-.9766-25.3546c0-1.1622-.9563-2.1082-2.131-2.1082h-13.5782c-1.1747 0-2.131.946-2.131 2.1082v25.3546.9766h-.9871-5.9451c-3.66723-.0013-6.76562-2.8797-6.76562-6.2868.00123-4.2005.00123-5.9254.00123-6.9447 0-1.4722 0-1.4723-.00123-5.3408-.00123-2.6221-.00247-7.0228-.00617-14.8648v-1.4051l1.33141.4896c1.25367.4614 2.56534.6945 3.89918.6945 1.6942 0 3.3995-.3894 4.9283-1.1242 1.5844-.7618 2.9393-1.8519 4.0264-3.2411l.7798-.9961.7798.9961c2.1557 2.7515 5.4158 4.3299 8.9473 4.3299 3.5302 0 6.7915-1.5784 8.9472-4.3299l.7798-.9961.7799.9961c2.1556 2.7515 5.4157 4.3299 8.9472 4.3299s6.7915-1.5784 8.9472-4.3299l.7798-.9961.7799.9961c1.0871 1.388 2.4419 2.4781 4.0263 3.2398 1.5301.7361 3.2341 1.1243 4.9283 1.1243 1.3339 0 2.6455-.2331 3.8992-.6946l1.3314-.4895zm2.901-11.4175c0 5.2492-4.0942 7.9958-8.139 7.9958-4.0424 0-8.1353-2.7442-8.139-7.9885l-.1098-8.2875-3.6648-14.8868c-.1986-.8069-.6355-1.7689-1.5868-1.7689-.4973 0-1.0427.2686-1.3573.6678-.1025.1294-.2641.3845-.2012.6323l3.7734 14.8942.0308.1208-.0012.1245-.0617 8.5c-.0012 5.2174-4.0942 7.9457-8.1378 7.9457-4.0435 0-8.1377-2.7308-8.1377-7.9494l-.0444-23.5418c-.0013-1.1145-.8317-1.51005-1.5437-1.51005s-1.5424.39555-1.5449 1.51005l-.0456 23.5443c0 5.2174-4.0942 7.9469-8.1378 7.9469s-8.1377-2.7308-8.1377-7.9494v-.0036-.0037l.0691-8.4682.0012-.116.0284-.1135 3.7709-14.8942c.0629-.249-.0988-.5029-.2012-.6323-.3146-.3992-.86-.6678-1.3573-.6678-.9526 0-1.3882.9608-1.5868 1.7677l-3.6673 14.8941-.2356 8.2509c-.0074 5.2394-4.0979 7.9812-8.139 7.9812-4.04485 0-8.13902-2.7467-8.13902-7.9958l.04442-8.229.00123-.2551.1271-.2222 12.77977-22.23194.2838-.49439h.5738 47.0201.5676l.285.48463 12.5022 21.2383.1246.2124.0087.2454.322 9.2189v.0171.0171z"
        fill="#231f20" />
</svg>