<svg width="26" height="26" viewBox="0 0 26 26" fill="none" xmlns="http://www.w3.org/2000/svg">
<path d="M9.8425 13.6265L9.8428 13.6268L13.6329 17.4041L13.6329 17.4041L13.6372 17.4082C13.9819 17.7357 14.5395 17.7682 14.89 17.3992C15.2234 17.0483 15.2297 16.495 14.8856 16.1508L11.7219 12.9871L14.8856 9.82346C15.2273 9.48171 15.2273 8.92514 14.8856 8.58339L14.8858 8.58315L14.876 8.57435C14.7065 8.42174 14.4941 8.3303 14.2591 8.3303C14.0358 8.3303 13.8147 8.40138 13.6326 8.58339L9.8425 12.3735L9.84244 12.3735L9.83802 12.3781C9.50467 12.729 9.49833 13.2823 9.8425 13.6265ZM13 25.25C19.7548 25.25 25.25 19.7548 25.25 13C25.25 6.24523 19.7548 0.75 13 0.749999C6.24523 0.749998 0.750002 6.24522 0.750001 13C0.75 19.7548 6.24523 25.25 13 25.25ZM13 2.5091C18.7848 2.5091 23.4909 7.21516 23.4909 13C23.4909 18.7848 18.7848 23.4909 13 23.4909C7.21516 23.4909 2.5091 18.7848 2.5091 13C2.5091 7.21516 7.21516 2.5091 13 2.5091Z" fill="#E1E1E1" stroke="#E1E1E1" stroke-width="0.5"/>
</svg>
