<svg fill="none" height="17" viewBox="0 0 16 17" width="16" xmlns="http://www.w3.org/2000/svg"><path d="m8 .692139c-4.41113 0-8 3.588861-8 8.000001 0 4.41116 3.58887 7.99996 8 7.99996 4.4111 0 8-3.5888 8-7.99996 0-4.41114-3.5889-8.000001-8-8.000001zm0 15.160561c-3.94861 0-7.1606-3.212-7.1606-7.16056 0-3.94861 3.21199-7.1606 7.1606-7.1606 3.9486 0 7.1606 3.21199 7.1606 7.1606 0 3.94856-3.212 7.16056-7.1606 7.16056zm2.9036-9.37041c.2056 1.19058-.2826 2.21841-1.41324 2.97216-.77087.51392-1.01927.86505-1.08779 1.06215-.05996.1798-.2227.2912-.40257.2912-.04283 0-.08565-.0086-.13704-.0257-.2227-.0771-.34262-.3169-.26553-.5311.16274-.4882.6167-.95929 1.41328-1.49034.84796-.56531 1.19909-1.27623 1.05349-2.1242-.14557-.84796-.83936-1.54175-1.68733-1.68736-.62526-.11992-1.24197.04282-1.73019.44539-.47966.40257-.75375.99358-.75375 1.61885 0 .23126-.18843.4197-.4197.4197-.23126 0-.4197-.18844-.4197-.4197 0-.87366.38544-1.69593 1.05354-2.26124.66809-.56532 1.55032-.79658 2.42398-.6424 1.19058.20556 2.16705 1.18201 2.37255 2.37259zm-2.26977 6.42401c0 .3511-.28265.6338-.63383.6338s-.63383-.2827-.63383-.6338c0-.3512.28265-.6339.63383-.6339s.63383.2827.63383.6339z" fill="#3a3a3a"/></svg>