<svg fill="none" height="38" viewBox="0 0 38 38" width="38" xmlns="http://www.w3.org/2000/svg">
    <g fill="#fff100">
        <rect height="38" rx="10" width="38" />
        <path clip-rule="evenodd"
            d="m13.437 26.2616c.2085 1.2565.2526 2.8371 2.0069 2.8371h10.1325c1.6605 0 1.7271-1.3821 2.0178-2.5508l2.1274-8.5307h-17.6555z"
            fill-rule="evenodd" />
        <path clip-rule="evenodd"
            d="m13.9302 26.1798c.0237.1423.0434.2749.0626.4042.0277.1868.0545.3667.0905.5589.058.3094.1286.5774.231.7979.1001.2157.2232.37.3808.4741.1565.1034.3873.1838.7488.1838h10.1325c.3447 0 .5659-.0711.7161-.162.1495-.0905.2661-.2232.3647-.4093.1017-.1918.1775-.4276.2473-.7085.0346-.1392.0661-.2823.0993-.4332l.0007-.0034c.0324-.1474.0665-.3024.1044-.4551l1.9727-7.91h-16.4255zm-1.8641-8.1626h17.6555l-2.1274 8.5307c-.0364.1461-.0692.2954-.1021.445-.2301 1.0476-.4627 2.1058-1.9157 2.1058h-10.1325c-1.5814 0-1.7731-1.2844-1.9483-2.458-.0191-.1283-.0381-.2553-.0586-.3791z"
            fill-rule="evenodd" />
    </g>
    <path
        d="m19 31c-.3844 0-.755-.1391-1.0438-.3919-1.0907-.9529-2.1423-1.8483-3.0701-2.6383l-.0047-.0041c-2.7202-2.316-5.06913-4.316-6.70348-6.2862-1.82696-2.2026-2.67792-4.291-2.67792-6.5724 0-2.2166.76073-4.2615 2.14192-5.75839 1.39767-1.51456 3.31548-2.34871 5.40078-2.34871 1.5585 0 2.9858.4923 4.2422 1.46311.634.49003 1.2088 1.08977 1.7151 1.78929.5065-.69952 1.0811-1.29926 1.7153-1.78929 1.2564-.97081 2.6837-1.46311 4.2422-1.46311 2.0851 0 4.0031.83415 5.4008 2.34871 1.3812 1.49689 2.1417 3.54179 2.1417 5.75839 0 2.2814-.8508 4.3698-2.6777 6.5721-1.6344 1.9705-3.9831 3.9703-6.7028 6.2861-.9295.7912-1.9827 1.6881-3.0759 2.6432-.2886.2524-.6594.3915-1.0436.3915zm-5.9573-22.41979c-1.6383 0-3.14329.65325-4.23815 1.83959-1.11113 1.2041-1.72314 2.8687-1.72314 4.6873 0 1.9188.71377 3.6348 2.31414 5.5641 1.54685 1.8648 3.84755 3.8237 6.51145 6.092l.0049.0041c.9313.793 1.9871 1.692 3.0858 2.6519 1.1054-.9618 2.1628-1.8622 3.0959-2.6564 2.6637-2.2683 4.9643-4.2268 6.5111-6.0916 1.6001-1.9293 2.3139-3.6453 2.3139-5.5641 0-1.8186-.612-3.4832-1.7232-4.6873-1.0946-1.18634-2.5998-1.83959-4.2379-1.83959-1.2001 0-2.3019.38117-3.2748 1.13279-.8671.6701-1.471 1.5172-1.8251 2.11-.1821.3048-.5027.4867-.8576.4867s-.6755-.1819-.8576-.4867c-.3538-.5928-.9578-1.4399-1.8251-2.11-.9729-.75162-2.0747-1.13279-3.2746-1.13279z"
        fill="#231f20" stroke="#000" stroke-width=".5" />
</svg>