<svg width="23" height="22" viewBox="0 0 23 22" fill="none" xmlns="http://www.w3.org/2000/svg">
<path d="M1.13853 9.9792L1.13855 9.97932C1.67602 12.7353 3.35494 15.0718 5.18358 16.8891C7.01317 18.7073 9.00175 20.0148 10.1754 20.7122L10.1757 20.7124C10.6347 20.9831 11.1421 21.125 11.6621 21.125C12.1822 21.125 12.6896 20.9831 13.1486 20.7124L13.1487 20.7123C14.3282 20.0149 16.3168 18.7073 18.145 16.889C19.9722 15.0718 21.6481 12.7355 22.1856 9.97979C22.6446 7.67337 22.0255 5.21851 20.5447 3.42765C19.2004 1.78479 17.3133 0.875 15.242 0.875C13.9689 0.875 12.7394 1.1956 11.6621 1.79394C10.5849 1.1956 9.35539 0.875 8.08225 0.875C6.01096 0.875 4.12389 1.78479 2.77961 3.42765C1.29856 5.21886 0.691179 7.67361 1.13853 9.9792ZM20.8563 9.71672L20.8562 9.71695C20.3774 12.1777 18.8385 14.3046 17.1321 15.9843C15.4268 17.6629 13.5644 18.8851 12.457 19.5371L12.4564 19.5374C11.9651 19.8302 11.3592 19.8302 10.8678 19.5374L10.8675 19.5373C9.76562 18.8851 7.90312 17.6629 6.19644 15.9843C4.48856 14.3045 2.94685 12.1776 2.46808 9.71695L2.46803 9.71672C2.09121 7.79935 2.6014 5.7708 3.81962 4.28669C4.91498 2.95903 6.42733 2.23172 8.07096 2.23172C9.23345 2.23172 10.3397 2.55271 11.2908 3.1499L11.291 3.15004C11.5122 3.28831 11.8008 3.28831 12.022 3.15005L12.0231 3.14935C12.9731 2.54182 14.0788 2.23172 15.242 2.23172C16.8969 2.23172 18.398 2.95895 19.4935 4.28678L19.4936 4.28697C20.7229 5.77094 21.2331 7.79933 20.8563 9.71672Z" fill="#FD4425" stroke="#FD4425" stroke-width="0.25"/>
</svg>
