<svg fill="none" height="16" viewBox="0 0 18 16" width="18" xmlns="http://www.w3.org/2000/svg">
    <path
        d="m16.027 2.00565c-1.057-1.291929-2.5387-2.00565-4.1649-2.00565-1.0209 0-2.00564.261999-2.86391.749859-.85828-.48786-1.84303-.749859-2.86392-.749859-1.6262 0-3.10785.713721-4.16488 2.00565-1.165444 1.40937-1.644269 3.34274-1.291926 5.15866.849236 4.35459 5.312256 7.40829 7.182386 8.51949.35234.2078.74082.3162 1.13834.3162.39751 0 .78599-.1084 1.13831-.3162 1.8792-1.1112 6.3332-4.1649 7.1824-8.51949.3614-1.81592-.1265-3.74929-1.2919-5.15866zm.4246 4.98701c-.777 3.99324-4.987 6.87524-6.7668 7.92324-.42461.2529-.94861.2529-1.37323 0-1.77075-1.048-5.98984-3.93-6.7668-7.92324-.30717-1.56296.10841-3.21626 1.1022-4.42688.89441-1.08413 2.13213-1.680404 3.47826-1.680404.94862 0 1.85206.261994 2.62903.749854.14455.09035.33427.09035.47882 0 .77692-.49689 1.68042-.749854 2.62902-.749854 1.3552 0 2.5839.596274 3.4783 1.680404 1.0028 1.21062 1.4184 2.86392 1.1112 4.42688z"
        fill="#fff" />
</svg>