<?xml version="1.0" encoding="UTF-8"?>
<svg xmlns="http://www.w3.org/2000/svg" xmlns:xlink="http://www.w3.org/1999/xlink" width="20px" height="12px" viewBox="0 0 30 30" version="1.1">
<g id="surface1">
<path style=" stroke:none;fill-rule:nonzero;fill:rgb(100%,100%,100%);fill-opacity:1;" d="M 26.710938 3.761719 C 24.949219 1.339844 22.480469 0 19.769531 0 C 18.070312 0 16.425781 0.492188 14.996094 1.40625 C 13.566406 0.492188 11.925781 0 10.222656 0 C 7.511719 0 5.042969 1.339844 3.28125 3.761719 C 1.339844 6.402344 0.542969 10.027344 1.128906 13.433594 C 2.542969 21.597656 9.984375 27.324219 13.101562 29.40625 C 13.6875 29.796875 14.335938 30 14.996094 30 C 15.660156 30 16.308594 29.796875 16.894531 29.40625 C 20.027344 27.324219 27.449219 21.597656 28.863281 13.433594 C 29.46875 10.027344 28.652344 6.402344 26.710938 3.761719 Z M 27.417969 13.109375 C 26.125 20.597656 19.109375 26.003906 16.140625 27.96875 C 15.433594 28.441406 14.558594 28.441406 13.851562 27.96875 C 10.902344 26.003906 3.871094 20.597656 2.574219 13.109375 C 2.0625 10.179688 2.753906 7.082031 4.410156 4.8125 C 5.902344 2.777344 7.964844 1.660156 10.207031 1.660156 C 11.789062 1.660156 13.296875 2.152344 14.589844 3.066406 C 14.832031 3.234375 15.148438 3.234375 15.386719 3.066406 C 16.683594 2.132812 18.1875 1.660156 19.769531 1.660156 C 22.027344 1.660156 24.078125 2.777344 25.566406 4.8125 C 27.238281 7.082031 27.929688 10.179688 27.417969 13.109375 Z M 27.417969 13.109375 "/>
</g>
</svg>
