<svg width="29" height="29" viewBox="0 0 29 29" fill="none" xmlns="http://www.w3.org/2000/svg">
<path d="M14.6666 4.69238C9.15271 4.69238 4.66663 9.17846 4.66663 14.6924C4.66663 20.2063 9.15271 24.6924 14.6666 24.6924C20.1805 24.6924 24.6666 20.2063 24.6666 14.6924C24.6666 9.17846 20.1805 4.69238 14.6666 4.69238ZM14.6666 23.6431C9.73087 23.6431 5.71588 19.6281 5.71588 14.6924C5.71588 9.75662 9.73087 5.74163 14.6666 5.74163C19.6024 5.74163 23.6174 9.75662 23.6174 14.6924C23.6174 19.6281 19.6024 23.6431 14.6666 23.6431ZM18.2962 11.9301C18.5531 13.4183 17.9429 14.7031 16.5296 15.6453C15.566 16.2877 15.2555 16.7266 15.1698 16.9729C15.0949 17.1977 14.8915 17.3369 14.6666 17.3369C14.6131 17.3369 14.5596 17.3262 14.4953 17.3048C14.2169 17.2084 14.0671 16.9087 14.1634 16.641C14.3668 16.0307 14.9343 15.4418 15.93 14.778C16.99 14.0714 17.4289 13.1827 17.2469 12.1228C17.0649 11.0628 16.1977 10.1956 15.1377 10.0136C14.3561 9.86369 13.5853 10.0671 12.975 10.5703C12.3754 11.0735 12.0328 11.8123 12.0328 12.5939C12.0328 12.883 11.7972 13.1185 11.5082 13.1185C11.2191 13.1185 10.9835 12.883 10.9835 12.5939C10.9835 11.5018 11.4653 10.474 12.3005 9.76733C13.1356 9.06069 14.2384 8.77161 15.3304 8.96433C16.8187 9.22129 18.0392 10.4418 18.2962 11.9301ZM15.4589 19.96C15.4589 20.399 15.1056 20.7523 14.6666 20.7523C14.2277 20.7523 13.8743 20.399 13.8743 19.96C13.8743 19.5211 14.2277 19.1678 14.6666 19.1678C15.1056 19.1678 15.4589 19.5211 15.4589 19.96Z" fill="#3A3A3A"/>
</svg>
