<svg width="19" height="18" viewBox="0 0 19 18" fill="none" xmlns="http://www.w3.org/2000/svg">
<path d="M17.1156 2.22C15.9456 0.79 14.3056 0 12.5056 0C11.3756 0 10.2856 0.29 9.33556 0.83C8.38556 0.29 7.29556 0 6.16556 0C4.36556 0 2.73556 0.79 1.55556 2.22C0.265562 3.78 -0.264438 5.92 0.125562 7.93C1.06556 12.74 6.00556 16.13 8.07556 17.36C8.46556 17.59 8.89556 17.71 9.33556 17.71C9.77556 17.71 10.2056 17.59 10.5956 17.36C12.6756 16.13 17.6056 12.75 18.5456 7.93C18.9456 5.92 18.4056 3.78 17.1156 2.22Z" fill="#00457A"/>
</svg>
