<?xml version="1.0" encoding="UTF-8"?>
<svg xmlns="http://www.w3.org/2000/svg" xmlns:xlink="http://www.w3.org/1999/xlink" width="20px" height="12px" viewBox="0 0 30 30" version="1.1">
<g id="surface1">
<path style=" stroke:none;fill-rule:nonzero;fill:rgb(100%,76.078433%,0%);fill-opacity:1;" d="M 26.625 7.902344 L 19.1875 1.558594 C 16.753906 -0.515625 13.230469 -0.515625 10.796875 1.558594 L 3.375 7.902344 C 1.789062 9.25 0.882812 11.273438 0.882812 13.425781 L 0.882812 22.886719 C 0.882812 26.804688 3.890625 29.984375 7.578125 29.984375 L 11.296875 29.984375 L 11.296875 22.886719 C 11.296875 20.71875 12.960938 18.949219 15.015625 18.949219 C 17.054688 18.949219 18.734375 20.71875 18.734375 22.886719 L 18.734375 29.984375 L 22.453125 29.984375 C 26.140625 29.984375 29.132812 26.804688 29.132812 22.886719 L 29.132812 13.425781 C 29.117188 11.273438 28.210938 9.25 26.625 7.902344 Z M 27.636719 22.902344 C 27.636719 25.953125 25.308594 28.425781 22.4375 28.425781 L 20.214844 28.425781 L 20.214844 22.902344 C 20.214844 19.851562 17.871094 17.378906 15.015625 17.378906 C 12.144531 17.378906 9.816406 19.851562 9.816406 22.902344 L 9.816406 28.425781 L 7.578125 28.425781 C 4.707031 28.425781 2.378906 25.953125 2.378906 22.902344 L 2.378906 13.425781 C 2.378906 11.738281 3.089844 10.183594 4.3125 9.121094 L 11.75 2.777344 C 13.640625 1.171875 16.390625 1.171875 18.28125 2.777344 L 25.714844 9.121094 C 26.957031 10.167969 27.652344 11.738281 27.652344 13.425781 L 27.652344 22.902344 Z M 27.636719 22.902344 "/>
</g>
</svg>
