<svg width="28" height="29" viewBox="0 0 28 29" fill="none" xmlns="http://www.w3.org/2000/svg">
<path fill-rule="evenodd" clip-rule="evenodd" d="M4.749 4.66184C5.04958 4.36125 5.45727 4.19238 5.88236 4.19238H21.9106C22.3357 4.19238 22.7434 4.36125 23.0439 4.66184C23.3445 4.96243 23.5134 5.37011 23.5134 5.7952V11.6756C23.5134 20.6402 15.9023 23.607 14.4098 24.1032C14.0779 24.2221 13.715 24.2221 13.3831 24.1032C11.8906 23.607 4.27954 20.6402 4.27954 11.6756V5.7952C4.27954 5.37011 4.44841 4.96243 4.749 4.66184ZM21.9106 5.7952L5.88236 5.7952L5.88236 11.6756C5.88236 19.5155 12.5138 22.1269 13.8965 22.5848C15.2791 22.1269 21.9106 19.5155 21.9106 11.6756V5.7952Z" fill="#3A3A3A"/>
<path fill-rule="evenodd" clip-rule="evenodd" d="M18.884 10.05C19.1896 10.3702 19.1776 10.8775 18.8574 11.183L12.977 16.7929C12.6672 17.0885 12.1797 17.0883 11.8702 16.7924L8.93498 13.9875C8.615 13.6817 8.60349 13.1744 8.90928 12.8544C9.21507 12.5344 9.72236 12.5229 10.0424 12.8287L12.4243 15.105L17.751 10.0233C18.0712 9.71779 18.5785 9.72973 18.884 10.05Z" fill="#3A3A3A"/>
</svg>
