<svg fill="none" height="17" viewBox="0 0 16 17" width="16" xmlns="http://www.w3.org/2000/svg"><g clip-rule="evenodd" fill="#3a3a3a" fill-rule="evenodd"><path d="m.98848.567703c.24047-.240469.56662-.375564.90669-.375564h12.82253c.3401 0 .6663.135094.9067.375564.2405.240471.3756.566617.3756.906697v4.70428c0 7.17172-6.08884 9.54522-7.28284 9.94212-.26554.0951-.55587.0951-.82141 0-1.19399-.3969-7.282835-2.7704-7.282835-9.94212v-4.70428c0-.34008.135095-.666227.375565-.906697zm13.72922.906697h-12.82253v4.70428c0 6.27192 5.30514 8.36112 6.41129 8.72742 1.10614-.3663 6.41124-2.4555 6.41124-8.72742z"/><path d="m12.2965 4.87851c.2444.2562.2349.66203-.0213.90644l-4.70429 4.48795c-.24786.2364-.63783.2362-.88549-.0004l-2.34814-2.24398c-.25599-.24463-.2652-.65046-.02056-.90646.24463-.25599.65046-.26519.90646-.02056l1.90556 1.82102 4.26136-4.06535c.2562-.24441.662-.23486.9064.02134z"/></g></svg>