<svg fill="none" height="40" viewBox="0 0 44 40" width="44" xmlns="http://www.w3.org/2000/svg" xmlns:xlink="http://www.w3.org/1999/xlink"><clipPath id="a"><path d="m.713379 0h43.2866v40h-43.2866z"/></clipPath><g clip-path="url(#a)"><path clip-rule="evenodd" d="m13.8544 4.47289 8.1187-2.45953c1.0502-.3156 1.9045.35914 1.9045 1.50184v6.4481c0 1.1427-.8598 2.3398-1.9045 2.6554l-8.1187 2.4595c-1.0502.3157-1.9045-.3591-1.9045-1.5018v-6.44809c0-1.13726.8543-2.33438 1.9045-2.65542z" fill="#fcf8f4" fill-rule="evenodd"/><path d="m13.3538 15.8509c-.4462 0-.8706-.1306-1.2243-.3918-.5496-.4081-.8706-1.0937-.8706-1.8773v-6.44806c0-1.45286 1.0502-2.91117 2.3942-3.31928l8.1186-2.45953c.6965-.21221 1.3985-.10882 1.9263.2884.5496.40811.8706 1.09373.8706 1.8773v6.4481c0 1.45287-1.0502 2.91117-2.3942 3.31927l-8.1186 2.4595c-.2394.0708-.4734.1034-.702.1034zm9.1253-13.22811c-.1142 0-.2176.02176-.3101.04897l-8.1132 2.46497c-.7564.22854-1.4148 1.16447-1.4148 1.99701v6.44806c0 .3483.1088.6204.3102.7673.2285.1687.5115.1306.7074.0762l8.1186-2.4596c.7563-.2285 1.4148-1.1644 1.4148-1.99697v-6.4481c0-.34826-.1089-.62033-.3102-.76725-.1306-.09794-.2666-.13059-.4027-.13059z" fill="#004376"/><path clip-rule="evenodd" d="m10.9868 26.5379 8.1186-2.4595c1.0502-.3156 1.9045-1.5127 1.9045-2.6554v-6.4481c0-1.1427-.8597-1.8229-1.9045-1.5019l-8.1186 2.4595c-1.05018.3157-1.90449 1.5128-1.90449 2.6555v6.4481c0 1.1481.85431 1.8229 1.90449 1.5018z" fill="#fcf8f4" fill-rule="evenodd"/><path d="m10.4862 27.3051c-.4462 0-.87607-.136-1.22432-.3917-.54958-.4082-.87063-1.0938-.87063-1.8773v-6.4481c0-1.4529 1.0502-2.9112 2.39425-3.3193l8.1186-2.4595c.6965-.2123 1.3985-.1089 1.9263.2884.5496.4081.8706 1.0937.8706 1.8772v6.4481c0 1.4529-1.0502 2.9112-2.3942 3.3193l-8.1187 2.4596c-.2394.0707-.4734.1033-.7019.1033zm9.1253-13.2281c-.1143 0-.2177.0218-.3102.049l-8.1186 2.4595c-.7564.2286-1.41477 1.1645-1.41477 1.997v6.4481c0 .3483.10883.6203.31017.7673.2285.1686.5115.1306.7074.0761l8.1186-2.4595c.7564-.2285 1.4148-1.1645 1.4148-1.997v-6.4427c0-.3482-.1088-.6203-.3102-.7672-.1251-.0979-.2612-.1306-.3972-.1306z" fill="#004376"/><path clip-rule="evenodd" d="m13.8544 25.6945 8.1187-2.4596c1.0502-.3156 1.9045.3592 1.9045 1.5019v6.4481c0 1.1427-.8598 2.3398-1.9045 2.6554l-8.1187 2.4595c-1.0502.3156-1.9045-.3591-1.9045-1.5018v-6.4481c0-1.1427.8543-2.3398 1.9045-2.6554z" fill="#fcf8f4" fill-rule="evenodd"/><path d="m13.3538 37.0725c-.4462 0-.8706-.136-1.2243-.3917-.5496-.4082-.8706-1.0938-.8706-1.8773v-6.4481c0-1.4529 1.0502-2.9112 2.3942-3.3193l8.1186-2.4595c.6965-.2123 1.3985-.1089 1.9263.2883.5496.4082.8706 1.0938.8706 1.8773v6.4481c0 1.4529-1.0502 2.9112-2.3942 3.3193l-8.1186 2.4595c-.2394.0653-.4734.1034-.702.1034zm.702-10.7196c-.7564.2285-1.4148 1.1645-1.4148 1.997v6.4481c0 .3483.1088.6203.3102.7673.2285.1686.5115.136.7074.0761l8.1186-2.4595c.7563-.2285 1.4148-1.1645 1.4148-1.997v-6.4481c0-.3482-.1089-.6203-.3102-.7672-.2285-.1687-.5115-.1361-.7074-.0762z" fill="#004376"/><path clip-rule="evenodd" d="m18.2729 35.1626 2.8459-.8598c.37-.1088.6693.1252.6693.5279v2.2582c0 .4026-.2993.8216-.6693.9304l-2.8459.8598c-.3646.1088-.6693-.1252-.6693-.5278v-2.2582c0-.3973.2993-.8162.6693-.9305z" fill="#fcf8f4" fill-rule="evenodd"/><path d="m18.0933 39.5973c-.2503 0-.4951-.0761-.691-.2285-.3102-.2285-.4843-.5986-.4843-1.0175v-2.2582c0-.7074.4951-1.3931 1.159-1.5889l2.8459-.8652c.3809-.1143.7727-.0544 1.0719.1687.3102.2285.4843.5985.4843 1.0175v2.2582c0 .7074-.4951 1.393-1.159 1.5889l-2.8459.8597c-.1251.049-.2557.0653-.3809.0653zm3.0037-4.5708-2.6228.7945c-.0653.0218-.1795.1632-.1795.2721v2.0623l2.6227-.7945c.0653-.0218.1796-.1632.1796-.2721z" fill="#004376"/><path clip-rule="evenodd" d="m2.30228 23.2567c2.22011-2.6336 6.54605.0272 7.26976 2.9983 1.40386 5.7352 2.93836 8.5158 7.89006 9.3701l-.1088 3.4118c-12.10176 2.3942-18.3975-11.8134-15.05102-15.7802z" fill="#fd4425" fill-rule="evenodd"/><path d="m14.6435 40c-2.1875 0-4.2607-.5278-6.19784-1.5835-2.92205-1.5943-4.73405-3.9559-5.73527-5.659-2.258201-3.8308-2.6445428-7.9173-.93593-9.9416.95225-1.1318 2.32349-1.5562 3.85798-1.1971 2.1276.5006 4.10828 2.4215 4.61436 4.4783 1.6542 6.7746 3.6022 8.2057 7.335 8.8478l.5877.1034-.1469 4.5545-.5387.1088c-.9631.1905-1.91.2884-2.8404.2884zm-11.81884-16.3025c-1.29507 1.5344-.83254 5.1258 1.06652 8.358.97946 1.6651 4.41844 6.5678 10.73592 6.5678.653 0 1.3332-.0544 2.0515-.1632l.0707-2.2691c-4.8538-1.0448-6.4753-4.1573-7.852-9.7728-.3809-1.5617-1.95892-3.0799-3.59135-3.4662-.6965-.1633-1.70317-.1687-2.48129.7455z" fill="#004376"/><path d="m6.16026 21.1999c2.33205 0 4.22254-2.4801 4.22254-5.5394s-1.89049-5.5394-4.22254-5.5394c-2.33206 0-4.22256 2.4801-4.22256 5.5394s1.8905 5.5394 4.22256 5.5394z" fill="#fcf8f4"/><path d="m6.16026 21.695c-2.60101 0-4.72317-2.7098-4.72317-6.0345s2.11672-6.03458 4.72317-6.03458c2.60101 0 4.72314 2.70988 4.72314 6.03458s-2.12213 6.0345-4.72314 6.0345zm0-11.0787c-2.05686 0-3.72739 2.2636-3.72739 5.0442 0 2.7805 1.67053 5.0442 3.72739 5.0442s3.72738-2.2637 3.72738-5.0442c0-2.7806-1.67052-5.0442-3.72738-5.0442z" fill="#004376"/><path clip-rule="evenodd" d="m6.17658 10.0939c2.33438 0 4.22252 2.4813 4.22252 5.5394-.1686 2.4105-3.55322 2.0296-8.45051 0 0-3.0581 1.89362-5.5394 4.22799-5.5394z" fill="#fd4425" fill-rule="evenodd"/><path d="m8.11917 17.7989c-1.50183 0-3.60767-.5659-6.36103-1.7086l-.30473-.1251v-.332c0-3.3301 2.11672-6.03451 4.72317-6.03451s4.72312 2.70981 4.72312 6.03451v.0327c-.0544.7618-.3917 1.3495-.96853 1.7086-.46252.283-1.06108.4244-1.812.4244zm-5.66453-2.4976c4.68508 1.8991 6.36104 1.5944 6.94871 1.2298.30472-.1905.46797-.4843.50061-.9196-.00544-2.7697-1.67596-5.0225-3.72738-5.0225-1.97524 0-3.59679 2.0841-3.72194 4.7123z" fill="#004376"/><path clip-rule="evenodd" d="m1.94859 15.2469c3.205 1.6651 8.26011 1.4801 8.27641-1.11.049.0109 3.2105 4.3749.5877 5.2673-3.63489 1.2406-6.45356-2.1385-8.86411-4.1573z" fill="#fd4425" fill-rule="evenodd"/><path d="m9.25099 20.166c-2.55747 0-4.69596-1.9263-6.46987-3.5261-.40266-.3591-.77812-.7019-1.14814-1.0121l.54959-.8216c2.17657 1.1318 5.36525 1.3603 6.82356.4843.48429-.2939.72371-.6693.72915-1.1536l.00544-.6421.62028.1632c.0871.0218.3483.0925 1.1155 1.5019.5605 1.023.8543 1.9208.8816 2.6608.038 1.0121-.4517 1.7467-1.3767 2.0623-.604.1905-1.18082.283-1.73041.283zm-5.06598-3.6022c1.88818 1.6596 4.0049 3.205 6.46439 2.367.3646-.1252.5714-.3265.6585-.6312.2231-.8054-.3918-2.1331-.9088-3.0146-.2013.3319-.50058.6149-.88692.8489-1.24065.7509-3.31928.876-5.32717.4299z" fill="#004376"/><path clip-rule="evenodd" d="m23.9864 3.67843c.0816-1.67596.9631-2.3507 1.5345-2.45953 23.1152-4.4511 24.1981 20.4761.4244 31.125-.5822.2612-1.7739-.1306-1.948-1.3223l-.1578-7.2752c.049-.9087.7074-1.3549 1.0937-1.5671 7.1392-3.9069 7.1283-11.895-.7128-10.1483z" fill="#fcf8f4" fill-rule="evenodd"/><path d="m25.5427 33.1112c-.3537 0-.7238-.0925-1.0611-.283-.6421-.3537-1.0557-.9577-1.1699-1.7086l-.0055-.0871-.1578-7.3024v-.0272c.0327-.6312.3156-1.5127 1.4529-2.133 3.9124-2.1385 5.4741-5.4687 4.7286-7.4494-.555-1.48-2.367-2.0024-4.9626-1.4202l-.8162.1796-.2558-9.20691v-.02721c.0925-1.88273 1.1155-2.916605 2.095-3.101614 4.7939-.925044 8.8641-.669296 12.0909.750914 2.9819 1.31683 5.0551 3.57503 5.991 6.53517 2.3344 7.40035-2.9166 18.72945-17.2439 25.14485-.2068.0925-.4408.1361-.6856.1361zm-.8598-2.1494c.0653.3755.2884.5659.4625.6639.2286.1251.4517.1251.517.0925 7.9227-3.5533 12.0636-8.2003 14.1368-11.476 2.6065-4.1138 3.4662-8.4832 2.3562-11.9984-.8108-2.56836-2.6174-4.53816-5.2293-5.6863-2.922-1.28962-6.8235-1.51816-11.2746-.65842-.3102.05986-.9033.5115-.974 1.79024l.2067 7.52008c2.8786-.4245 4.9953.4571 5.7353 2.4323.9414 2.4976-.6203 6.5515-5.3598 9.1416-.4734.2558-.7074.5714-.7346.9795z" fill="#004376"/></g></svg>