<?xml version="1.0" encoding="UTF-8"?>
<svg id="Layer_2" data-name="Layer 2" xmlns="http://www.w3.org/2000/svg" viewBox="0 0 18.93 18.93">
  <defs>
    <style>
      .cls-1 {
        fill: #fff;
        stroke: #fff;
        stroke-miterlimit: 10;
        stroke-width: .25px;
      }
    </style>
  </defs>
  <g id="Layer_1-2" data-name="Layer 1">
    <path class="cls-1" d="M17.16,5.05l-4.92-3.95c-1.61-1.29-3.94-1.29-5.55,0L1.77,5.05C.73,5.89.12,7.14.12,8.49v5.89c0,2.44,1.99,4.42,4.43,4.42h2.46v-4.42c0-1.35,1.1-2.45,2.46-2.45s2.46,1.1,2.46,2.45v4.42h2.46c2.44,0,4.42-1.98,4.42-4.42v-5.89c0-1.35-.6-2.6-1.65-3.44M17.82,14.38c0,1.89-1.54,3.44-3.44,3.44h-1.47v-3.44c0-1.9-1.54-3.44-3.44-3.44s-3.44,1.54-3.44,3.44v3.44h-1.47c-1.9,0-3.44-1.54-3.44-3.44v-5.89c0-1.05.47-2.02,1.28-2.68L7.31,1.86c1.25-1.01,3.07-1,4.32,0l4.92,3.95c.82.65,1.28,1.63,1.28,2.68v5.89Z"/>
  </g>
</svg>