<svg fill="none" height="16" viewBox="0 0 17 16" width="17" xmlns="http://www.w3.org/2000/svg"><path d="m15.0867 4.21419-4.2141-3.383299c-1.37902-1.104925-3.37474-1.104925-4.75376 0l-4.20556 3.383299c-.89936.71948-1.41328 1.79871-1.41328 2.94647v5.04494c0 2.09 1.7045 3.7859 3.79443 3.7859h2.10707v-3.7859c0-1.1563.94218-2.0985 2.10707-2.0985 1.15631 0 2.10703.9422 2.10703 2.0985v3.7859h2.1071c2.0899 0 3.7859-1.6959 3.7859-3.7859v-5.04494c-.0086-1.14776-.5225-2.22699-1.4219-2.94647zm.5739 8.00001c0 1.6274-1.3191 2.9465-2.9465 2.9465h-1.2591v-2.9465c0-1.6274-1.3276-2.94648-2.94643-2.94648-1.62741 0-2.94647 1.31908-2.94647 2.94648v2.9465h-1.26767c-1.62741 0-2.94646-1.3191-2.94646-2.9465v-5.05354c0-.89936.40257-1.7302 1.09636-2.29551l4.21413-3.3833c1.07066-.856526 2.62955-.856526 3.70024 0l4.2141 3.3833c.7024.55675 1.0964 1.39615 1.0964 2.29551v5.05354z" fill="#ffc200"/></svg>