<svg width="88" height="29" viewBox="0 0 88 29" fill="none" xmlns="http://www.w3.org/2000/svg">
<g clip-path="url(#clip0_5845_2594)">
<path d="M32.0834 25.7872C31.7521 25.4574 31.5864 25.0593 31.5864 24.5969C31.5864 24.1345 31.7521 23.7364 32.0834 23.4067C32.4147 23.077 32.8147 22.9121 33.2793 22.9121C33.7439 22.9121 34.1439 23.077 34.4752 23.4067C34.8065 23.7364 34.9721 24.1345 34.9721 24.5969C34.9721 25.0593 34.8065 25.4574 34.4752 25.7872C34.1439 26.1169 33.7439 26.2818 33.2793 26.2818C32.8147 26.2818 32.4147 26.1169 32.0834 25.7872Z" fill="white"/>
<path d="M36.0509 25.7872C35.7196 25.4574 35.5539 25.0593 35.5539 24.5969C35.5539 24.1345 35.7196 23.7364 36.0509 23.4067C36.3822 23.077 36.7822 22.9121 37.2468 22.9121C37.7114 22.9121 38.1114 23.077 38.4427 23.4067C38.774 23.7364 38.9396 24.1345 38.9396 24.5969C38.9396 25.0593 38.774 25.4574 38.4427 25.7872C38.1114 26.1169 37.7114 26.2818 37.2468 26.2818C36.7822 26.2818 36.3822 26.1169 36.0509 25.7872Z" fill="white"/>
<path d="M13.0337 17.1821C13.264 17.3509 13.7004 17.359 14.4236 17.359H34.4873C35.7398 17.359 35.9983 17.359 35.9983 15.9757V9.84761H39.0931V16.1808C39.0931 17.8335 38.6851 18.9031 37.8851 19.5625C37.0892 20.218 35.9135 20.4552 34.3661 20.4552H14.3791C14.0478 20.4552 13.7327 20.4431 13.4297 20.419C13.1913 20.3989 12.9651 20.3667 12.7428 20.3265V20.3346C12.7428 22.128 12.157 23.66 11.0742 24.7296C10.0319 25.763 8.52889 26.3702 6.65423 26.3702C4.5412 26.3702 2.92915 25.6665 1.81809 24.5125C0.601986 23.2499 -0.00808716 21.4524 -0.00808716 19.458C-0.00808716 18.9433 0.0605965 18.3763 0.210085 17.7611C0.347452 17.1861 0.557543 16.5749 0.844399 15.9355C0.905002 15.8028 0.997927 15.6701 1.13529 15.5857C1.25246 15.5133 1.38983 15.4771 1.55548 15.5093L3.11096 15.7948C3.14328 15.7988 3.17156 15.8109 3.20389 15.8229C3.31297 15.8672 3.42206 15.9516 3.49478 16.0562C3.57155 16.1687 3.61599 16.3055 3.59175 16.4382C3.58771 16.4623 3.57963 16.4904 3.56751 16.5146C3.3655 17.0132 3.22005 17.5078 3.11904 17.9662C3.014 18.4608 2.96147 18.9192 2.96147 19.3092C2.96147 20.5598 3.3655 21.5128 3.97557 22.1762C4.68665 22.9483 5.68458 23.3343 6.65423 23.3343C7.45824 23.3343 8.24204 23.0448 8.80363 22.5301C9.31674 22.0636 9.644 21.4082 9.644 20.6161V6.03161H12.7388V15.9798C12.7388 16.6714 12.8034 17.0252 13.0216 17.1861M47.0039 20.4592H42.0748C41.9051 20.4592 41.7476 20.3909 41.6385 20.2823C41.5294 20.1737 41.4607 20.0209 41.4607 19.848V17.9742C41.4607 17.8093 41.5294 17.6565 41.6466 17.5399C41.7557 17.4314 41.9092 17.359 42.0789 17.359H46.7049C47.3796 17.359 47.7877 17.2826 48.022 17.0614C48.2362 16.8644 48.321 16.5347 48.3493 16.02H48.325L48.3372 15.8672C48.3452 15.7425 48.3533 15.6179 48.3533 15.4892C48.3574 15.3565 48.3614 15.2198 48.3614 15.075C48.3614 15.0348 48.3614 14.9906 48.3614 14.9544C48.3614 14.5764 48.3493 14.2386 48.325 13.9451C48.3008 13.6556 48.2644 13.4022 48.2119 13.1891C48.123 12.98 47.9776 12.8393 47.7594 12.7549C47.513 12.6583 47.1736 12.6222 46.709 12.6222H42.0829C41.9132 12.6222 41.7597 12.5498 41.6506 12.4412C41.5375 12.3286 41.4648 12.1718 41.4648 12.0069V10.1331C41.4648 9.9602 41.5334 9.81142 41.6425 9.69883C41.7556 9.59026 41.9092 9.52191 42.0789 9.52191H47.0079C47.4685 9.52191 47.8927 9.56614 48.2806 9.64656C48.6725 9.731 49.028 9.85566 49.3432 10.0205C50.1593 10.3301 50.6926 10.8851 51.0239 11.6008C51.3471 12.3085 51.4724 13.169 51.4724 14.118V16.02H51.4562C51.3795 17.4072 50.9916 18.5211 50.2442 19.2891C49.5129 20.041 48.4463 20.4512 47.0079 20.4512" fill="white"/>
<path d="M21.7929 26.4506C21.7404 26.3984 21.7121 26.334 21.7121 26.2616C21.7121 26.1893 21.7404 26.1249 21.7929 26.0727C21.8454 26.0204 21.9101 25.9922 21.9828 25.9922C22.0555 25.9922 22.1202 26.0204 22.1727 26.0727C22.2252 26.1249 22.2535 26.1893 22.2535 26.2616C22.2535 26.334 22.2293 26.3984 22.1727 26.4506C22.1202 26.5029 22.0555 26.5311 21.9828 26.5311C21.9101 26.5311 21.8454 26.5029 21.7929 26.4506ZM28.7017 24.4642C28.8795 24.6532 28.9683 24.9146 28.9683 25.2483V25.7148H25.017C24.8756 25.7148 24.7584 25.6907 24.6655 25.6504C24.5726 25.6062 24.4999 25.5419 24.4473 25.4574C24.3827 25.5378 24.31 25.6022 24.2211 25.6464C24.1362 25.6906 24.0393 25.7148 23.9383 25.7148H22.6898C22.3585 25.7148 22.1363 25.6183 22.0192 25.4373C21.9424 25.5258 21.8495 25.5941 21.7323 25.6424C21.6151 25.6906 21.4859 25.7148 21.3364 25.7148H20.7021H18.4678C18.4678 25.94 18.4153 26.1088 18.3143 26.2255C18.2133 26.3421 18.0678 26.3984 17.8779 26.3984C17.7527 26.3984 17.6194 26.3742 17.478 26.33L17.5709 25.9199C17.6679 25.944 17.7446 25.956 17.8012 25.956C17.8658 25.956 17.9143 25.94 17.9426 25.9038C17.9709 25.8676 17.987 25.8073 17.987 25.7188V24.2029H18.4678V25.2524H18.7991H19.4294H21.3364C21.4535 25.2524 21.5465 25.2202 21.6232 25.1518C21.696 25.0835 21.7323 24.9829 21.7323 24.8502V24.2069H22.2131V24.8502C22.2131 24.9709 22.2454 25.0674 22.3141 25.1398C22.3949 25.2162 22.5202 25.2564 22.702 25.2564H23.0979V24.0943H23.5787V25.2564H23.8777C24.0554 25.2564 24.1484 25.1197 24.1484 24.8502V24.0943H24.6292V24.8502C24.6292 24.991 24.6574 25.0915 24.71 25.1558C24.7625 25.2202 24.8473 25.2524 24.9604 25.2524H25.1988V23.9857H25.6796V25.2524H26.0109H26.6412H27.2795H28.4997C28.4997 24.9829 28.4108 24.794 28.2371 24.6814C28.0633 24.5688 27.8088 24.5125 27.4815 24.5125L27.3846 23.9174C27.5987 23.7565 27.825 23.6319 28.0674 23.5354C28.3098 23.4388 28.6047 23.3665 28.9522 23.3142L29.0209 23.7806C28.8269 23.8048 28.637 23.845 28.4512 23.9053C28.2653 23.9656 28.0997 24.034 27.9543 24.1144C28.2815 24.1626 28.536 24.2793 28.7098 24.4682M29.3481 23.3986H29.8249V25.7148H29.3481V23.3986ZM17.3123 23.9817V25.7148H16.6578C16.3831 25.7148 16.1932 25.6263 16.0841 25.4534C16.0194 25.5378 15.9427 25.6022 15.8498 25.6464C15.7568 25.6906 15.6558 25.7148 15.5467 25.7148H15.175C15.1144 25.9681 14.9932 26.1611 14.8114 26.2938C14.6296 26.4265 14.3953 26.4949 14.1125 26.4949C13.9105 26.4949 13.7286 26.4587 13.559 26.3903C13.3933 26.3179 13.2559 26.2094 13.1549 26.0606C13.0539 25.9078 13.0014 25.7188 13.0014 25.4896C13.0014 25.3127 13.0337 25.1156 13.0984 24.8985H13.5468C13.4943 25.0955 13.466 25.2684 13.466 25.4092C13.466 25.8233 13.6802 26.0324 14.1084 26.0324C14.3226 26.0324 14.4801 25.9761 14.5811 25.8636C14.6821 25.751 14.7347 25.574 14.7347 25.3328V24.0903H15.2154V25.2524H15.4821C15.5871 25.2524 15.6599 25.2202 15.7124 25.1558C15.7609 25.0915 15.7851 24.991 15.7851 24.8502V24.0943H16.2659V24.8502C16.2659 24.987 16.2942 25.0875 16.3467 25.1558C16.3992 25.2242 16.4841 25.2564 16.5972 25.2564H16.8356V23.9897H17.3123V23.9817Z" fill="#EF482D"/>
<path fill-rule="evenodd" clip-rule="evenodd" d="M66.0374 3.24501L71.9523 1.45965C72.7159 1.23045 73.3381 1.72102 73.3381 2.54936V7.22587C73.3381 8.05421 72.7118 8.92277 71.9523 9.15197L66.0374 10.9373C65.2738 11.1665 64.6516 10.676 64.6516 9.84762V5.1711C64.6516 4.34276 65.2738 3.47421 66.0374 3.24501Z" fill="#FDF8F4"/>
<path d="M65.6737 11.4922C65.3465 11.4922 65.0394 11.3957 64.7849 11.2067C64.3809 10.9092 64.1506 10.4146 64.1506 9.84761V5.1711C64.1506 4.11758 64.9182 3.06004 65.896 2.7665L71.8108 0.981142C72.3159 0.828341 72.829 0.904742 73.2128 1.18622C73.6128 1.48378 73.8471 1.97837 73.8471 2.54534V7.22185C73.8471 8.27537 73.0795 9.33292 72.1017 9.62646L66.1868 11.4118C66.0172 11.4641 65.8434 11.4882 65.6737 11.4882M72.3239 1.90197C72.2431 1.90197 72.1623 1.91805 72.0977 1.93816L66.1828 3.72352C65.6333 3.88838 65.1525 4.56794 65.1525 5.1711V9.84761C65.1525 10.1009 65.2334 10.298 65.3788 10.4065C65.5445 10.5312 65.7505 10.503 65.8919 10.4588L71.8068 8.67346C72.3563 8.5086 72.837 7.82903 72.837 7.22587V2.54936C72.837 2.29603 72.7562 2.099 72.6108 1.99043C72.5219 1.9261 72.4169 1.90197 72.3199 1.90197" fill="#154476"/>
<path fill-rule="evenodd" clip-rule="evenodd" d="M63.9486 19.2409L69.8634 17.4555C70.627 17.2263 71.2492 16.3577 71.2492 15.5294V10.8529C71.2492 10.0245 70.627 9.53397 69.8634 9.76318L63.9486 11.5485C63.185 11.7777 62.5628 12.6463 62.5628 13.4746V18.1511C62.5628 18.9795 63.189 19.4701 63.9486 19.2409Z" fill="#FDF8F4"/>
<path d="M63.5849 19.7998C63.2577 19.7998 62.9466 19.7033 62.6921 19.5143C62.2921 19.2167 62.0577 18.7221 62.0577 18.1552V13.4786C62.0577 12.4251 62.8254 11.3676 63.8031 11.074L69.718 9.28868C70.223 9.13588 70.7361 9.21228 71.1199 9.49376C71.5199 9.79132 71.7543 10.2859 71.7543 10.8529V15.5294C71.7543 16.5829 70.9866 17.6405 70.0089 17.934L64.098 19.7194C63.9243 19.7716 63.7546 19.7958 63.5849 19.7958M70.2311 10.2095C70.1503 10.2095 70.0695 10.2256 70.0048 10.2457L64.094 12.0311C63.5445 12.1959 63.0637 12.8755 63.0637 13.4786V18.1552C63.0637 18.4085 63.1446 18.6055 63.29 18.7141C63.4556 18.8387 63.6617 18.8106 63.8031 18.7664L69.718 16.981C70.2675 16.8161 70.7482 16.1366 70.7482 15.5334V10.8569C70.7482 10.6036 70.6674 10.4065 70.522 10.298C70.4331 10.2296 70.3321 10.2095 70.2311 10.2095Z" fill="#154476"/>
<path fill-rule="evenodd" clip-rule="evenodd" d="M66.0374 18.6296L71.9522 16.8443C72.7158 16.6151 73.338 17.1057 73.338 17.934V22.6105C73.338 23.4388 72.7158 24.3074 71.9522 24.5366L66.0374 26.322C65.2738 26.5512 64.6475 26.0606 64.6475 25.2322V20.5557C64.6475 19.7274 65.2738 18.8588 66.0374 18.6296Z" fill="#FDF8F4"/>
<path d="M65.6737 26.8769C65.3465 26.8769 65.0394 26.7804 64.7849 26.5914C64.3849 26.2938 64.1506 25.7992 64.1506 25.2323V20.5557C64.1506 19.5022 64.9182 18.4447 65.896 18.1511L71.8108 16.3658C72.3159 16.213 72.829 16.2894 73.2128 16.5709C73.6168 16.8684 73.8471 17.363 73.8471 17.93V22.6065C73.8471 23.66 73.0795 24.7176 72.1017 25.0111L66.1868 26.7964C66.0172 26.8487 65.8434 26.8729 65.6737 26.8729M66.1828 19.1082C65.6333 19.273 65.1525 19.9526 65.1525 20.5557V25.2323C65.1525 25.4816 65.2334 25.6826 65.3788 25.7912C65.5445 25.9118 65.7505 25.8877 65.8919 25.8435L71.8068 24.0581C72.3563 23.8932 72.837 23.2137 72.837 22.6105V17.934C72.837 17.6807 72.7562 17.4836 72.6108 17.3751C72.4451 17.2504 72.2391 17.2786 72.0977 17.3228L66.1828 19.1082Z" fill="#154476"/>
<path fill-rule="evenodd" clip-rule="evenodd" d="M69.2574 25.4936L71.33 24.8663C71.5967 24.7859 71.8149 24.9588 71.8149 25.2483V26.8889C71.8149 27.1785 71.5967 27.4841 71.33 27.5645L69.2574 28.1918C68.9908 28.2722 68.7726 28.0993 68.7726 27.8098V26.1732C68.7726 25.8837 68.9908 25.5781 69.2574 25.4976" fill="#FDF8F4"/>
<path d="M69.1281 28.7105C68.9463 28.7105 68.7686 28.6542 68.6231 28.5456C68.3969 28.3808 68.2676 28.1113 68.2676 27.8098V26.1692C68.2676 25.6585 68.6312 25.1599 69.112 25.0151L71.1846 24.3878C71.4634 24.3034 71.7462 24.3476 71.9644 24.5085C72.1906 24.6733 72.3159 24.9427 72.3159 25.2443V26.8849C72.3159 27.3956 71.9523 27.8942 71.4755 28.039L69.4029 28.6662C69.31 28.6944 69.217 28.7065 69.1281 28.7065M71.3139 25.3971L69.4029 25.9721C69.3544 25.9882 69.2736 26.0887 69.2736 26.1692V27.665L71.1846 27.09C71.2331 27.0739 71.3139 26.9734 71.3139 26.893V25.3971Z" fill="#154476"/>
<path fill-rule="evenodd" clip-rule="evenodd" d="M57.6216 16.8604C59.2417 14.9504 62.3891 16.8805 62.9183 19.0358C63.9405 23.1976 65.0596 25.2121 68.6635 25.8314L68.5827 28.3044C59.767 30.0415 55.1813 19.7395 57.6176 16.8604" fill="#EF482D"/>
<path d="M66.6151 29C65.0233 29 63.5082 28.614 62.0982 27.85C59.969 26.6959 58.6519 24.9829 57.9206 23.7445C56.2762 20.9699 55.9934 18.0024 57.2378 16.5347C57.9327 15.7144 58.9306 15.4047 60.0457 15.6661C61.5931 16.028 63.0395 17.4233 63.4072 18.9111C64.6152 23.8289 66.0333 24.8663 68.7524 25.3328L69.1807 25.4052L69.0756 28.7105L68.6837 28.7869C67.9807 28.9276 67.2898 28.996 66.6151 28.996M58.0054 17.1821C57.0641 18.2959 57.3953 20.9016 58.7852 23.2418C59.5003 24.4481 62.0052 28.0028 66.607 28.0028C67.0838 28.0028 67.5807 27.9666 68.1019 27.8821L68.1544 26.2375C64.6193 25.4816 63.4355 23.2217 62.4375 19.1524C62.1588 18.0225 61.0113 16.9167 59.8235 16.6392C59.3064 16.5186 58.5751 16.5146 58.0095 17.1821H58.0054Z" fill="#154476"/>
<path fill-rule="evenodd" clip-rule="evenodd" d="M60.4336 7.33846C62.1345 7.33846 63.5122 9.13588 63.5122 11.3555C63.5122 13.5752 62.1345 15.3726 60.4336 15.3726C58.7327 15.3726 57.3549 13.5752 57.3549 11.3555C57.3549 9.13588 58.7327 7.33846 60.4336 7.33846Z" fill="#FDF8F4"/>
<path d="M60.4336 15.7304C58.5387 15.7304 56.9954 13.7682 56.9954 11.3555C56.9954 8.94287 58.5387 6.98059 60.4336 6.98059C62.3284 6.98059 63.8718 8.94287 63.8718 11.3555C63.8718 13.7682 62.3284 15.7304 60.4336 15.7304ZM60.4336 7.69634C58.9347 7.69634 57.7186 9.33694 57.7186 11.3515C57.7186 13.3661 58.9387 15.0067 60.4336 15.0067C61.9285 15.0067 63.1486 13.3661 63.1486 11.3515C63.1486 9.33694 61.9285 7.69634 60.4336 7.69634Z" fill="#154476"/>
<path fill-rule="evenodd" clip-rule="evenodd" d="M60.4457 7.31836C62.1466 7.31836 63.5244 9.11578 63.5244 11.3354C63.3991 13.0846 60.9386 12.8071 57.3671 11.3354C57.3671 9.11578 58.7448 7.31836 60.4457 7.31836Z" fill="#EF482D"/>
<path d="M61.8598 12.9077C60.7649 12.9077 59.2296 12.4975 57.2257 11.6692L57.0034 11.5767V11.3354C57.0034 8.92277 58.5468 6.96048 60.4417 6.96048C62.3365 6.96048 63.8799 8.92277 63.8799 11.3354V11.3595C63.8395 11.9104 63.5971 12.3407 63.1729 12.598C62.8416 12.8031 62.4052 12.9036 61.8598 12.9036M57.7347 11.0942C61.1487 12.4734 62.3689 12.2482 62.7971 11.9868C63.0193 11.8501 63.1365 11.637 63.1607 11.3193C63.1567 9.30879 61.9406 7.67624 60.4457 7.67624C58.9508 7.67624 57.8277 9.18816 57.7347 11.0942Z" fill="#154476"/>
<path fill-rule="evenodd" clip-rule="evenodd" d="M57.363 11.0539C59.6983 12.2643 63.3789 12.1276 63.391 10.2457C63.4274 10.2537 65.7303 13.4183 63.8193 14.0657C61.1729 14.9664 59.1205 12.5136 57.363 11.0499" fill="#EF482D"/>
<path d="M62.684 14.6206C60.8174 14.6206 59.2619 13.2253 57.969 12.0632C57.6781 11.8019 57.4034 11.5526 57.1327 11.3314L57.5327 10.7363C59.1205 11.5566 61.4436 11.7214 62.5022 11.0861C62.8577 10.873 63.0314 10.5996 63.0314 10.2497V9.7873L63.4839 9.90391C63.5445 9.92 63.7344 9.96825 64.296 10.9936C64.7041 11.7375 64.9182 12.3849 64.9384 12.9237C64.9667 13.6596 64.6112 14.1904 63.9364 14.4156C63.5041 14.5643 63.084 14.6287 62.684 14.6287M58.9953 12.011C60.3689 13.2133 61.9123 14.3351 63.7021 13.728C63.9647 13.6395 64.1183 13.4947 64.1789 13.2696C64.3445 12.6865 63.892 11.7214 63.5163 11.0861C63.3668 11.3274 63.1526 11.5324 62.8698 11.7013C61.9689 12.2442 60.4538 12.3326 58.9912 12.011" fill="#154476"/>
<path fill-rule="evenodd" clip-rule="evenodd" d="M73.4188 2.66598C73.4794 1.44759 74.1178 0.961039 74.538 0.884639C91.3776 -2.34026 92.1655 15.7305 74.845 23.4509C74.4208 23.6399 73.5522 23.3544 73.4229 22.4939L73.3098 17.2182C73.3461 16.5588 73.8229 16.2371 74.1057 16.0803C79.3095 13.2494 79.2974 7.4591 73.5845 8.72172L73.4148 2.66598H73.4188Z" fill="#FDF8F4"/>
<path d="M74.5541 24.0058C74.2996 24.0058 74.0289 23.9375 73.7825 23.8007C73.3138 23.5434 73.0108 23.1051 72.93 22.5623V22.5019L72.8088 17.2102V17.1901C72.833 16.7317 73.0391 16.0923 73.8673 15.642C76.7157 14.0899 77.855 11.6772 77.3136 10.2377C76.9096 9.16403 75.5884 8.79007 73.6976 9.20826L73.1037 9.34096L72.9179 2.66195V2.64185C72.9865 1.27468 73.734 0.526761 74.4451 0.394066C77.9358 -0.273433 80.9013 -0.0924846 83.2527 0.936911C85.4264 1.88991 86.9334 3.52648 87.6162 5.67374C89.3171 11.0379 85.491 19.2529 75.0551 23.9053C74.9056 23.9737 74.736 24.0058 74.5582 24.0058M73.9239 22.4497C73.9724 22.7191 74.134 22.8598 74.2592 22.9282C74.4289 23.0207 74.5905 23.0166 74.639 22.9965C80.4125 20.423 83.4265 17.0494 84.9375 14.6769C86.8364 11.6973 87.4586 8.52468 86.6546 5.97532C86.0647 4.11356 84.7476 2.68608 82.8447 1.8497C80.7155 0.916806 77.8752 0.751941 74.6309 1.37119C74.4047 1.41542 73.9724 1.74113 73.9198 2.66999L74.0734 8.12257C76.1702 7.81295 77.7096 8.4523 78.2509 9.88783C78.9337 11.6973 77.7984 14.6367 74.3481 16.5186C74.0047 16.7076 73.835 16.9328 73.8107 17.2263L73.9239 22.4456V22.4497Z" fill="#154476"/>
</g>
<defs>
<clipPath id="clip0_5845_2594">
<rect width="88" height="29" fill="white"/>
</clipPath>
</defs>
</svg>
