<svg width="158" height="201" viewBox="0 0 158 201" fill="none" xmlns="http://www.w3.org/2000/svg">
<g clip-path="url(#clip0_6007_3652)">
<path fill-rule="evenodd" clip-rule="evenodd" d="M53.7601 13.3L77.8701 5.99001C80.9801 5.05001 83.5301 7.06001 83.5301 10.45V29.61C83.5301 33.01 80.9801 36.56 77.8701 37.5L53.7601 44.81C50.6501 45.75 48.1001 43.74 48.1001 40.35V21.19C48.1001 17.79 50.6501 14.24 53.7601 13.29" fill="#FDF8F4"/>
<path d="M52.2701 47.09C50.9401 47.09 49.6801 46.69 48.6401 45.92C47.0001 44.7 46.0601 42.67 46.0601 40.35V21.19C46.0601 16.87 49.1801 12.55 53.1701 11.34L77.2801 4.03002C79.3501 3.40002 81.4301 3.71002 83.0001 4.88002C84.6401 6.10002 85.5801 8.13002 85.5801 10.45V29.61C85.5801 33.93 82.4601 38.26 78.4701 39.46L54.3601 46.77C53.6601 46.98 52.9601 47.09 52.2701 47.09ZM79.3901 7.80002C79.0601 7.80002 78.7401 7.87002 78.4701 7.95002L54.3601 15.26C52.1201 15.94 50.1501 18.71 50.1501 21.2V40.36C50.1501 41.39 50.4801 42.2 51.0801 42.65C51.7601 43.15 52.5901 43.05 53.1701 42.87L77.2801 35.56C79.5201 34.88 81.4901 32.11 81.4901 29.62V10.45C81.4901 9.42002 81.1601 8.61002 80.5701 8.16002C80.2001 7.89002 79.7901 7.80002 79.3901 7.80002Z" fill="#154476"/>
<path fill-rule="evenodd" clip-rule="evenodd" d="M45.2401 78.85L69.3501 71.54C72.4601 70.6 75.0101 67.04 75.0101 63.64V44.48C75.0101 41.08 72.4601 39.07 69.3501 40.02L45.2401 47.33C42.1301 48.27 39.5801 51.83 39.5801 55.23V74.39C39.5801 77.79 42.1301 79.8 45.2401 78.85Z" fill="#FDF8F4"/>
<path d="M43.75 81.12C42.42 81.12 41.15 80.72 40.12 79.95C38.48 78.73 37.54 76.7 37.54 74.38V55.22C37.54 50.9 40.66 46.58 44.65 45.37L68.76 38.06C70.83 37.44 72.91 37.74 74.48 38.91C76.12 40.13 77.06 42.16 77.06 44.48V63.64C77.06 67.96 73.94 72.28 69.95 73.49L45.84 80.8C45.14 81.01 44.44 81.12 43.75 81.12ZM70.87 41.83C70.54 41.83 70.22 41.9 69.96 41.98L45.84 49.29C43.6 49.97 41.63 52.74 41.63 55.23V74.39C41.63 75.42 41.96 76.23 42.56 76.68C43.24 77.18 44.07 77.08 44.66 76.9L68.77 69.59C71.01 68.91 72.98 66.14 72.98 63.65V44.49C72.98 43.46 72.65 42.65 72.05 42.2C71.68 41.93 71.27 41.84 70.87 41.84" fill="#154476"/>
<path fill-rule="evenodd" clip-rule="evenodd" d="M53.7601 76.34L77.8701 69.03C80.9901 68.09 83.5301 70.1 83.5301 73.49V92.65C83.5301 96.05 80.9801 99.6 77.8701 100.55L53.7601 107.86C50.6501 108.8 48.1001 106.79 48.1001 103.4V84.24C48.1001 80.84 50.6501 77.29 53.7601 76.34Z" fill="#FDF8F4"/>
<path d="M52.2701 110.13C50.9401 110.13 49.6801 109.73 48.6401 108.96C47.0001 107.75 46.0601 105.71 46.0601 103.39V84.23C46.0601 79.91 49.1901 75.59 53.1701 74.38L77.2801 67.07C79.3501 66.45 81.4301 66.75 83.0001 67.92C84.6401 69.14 85.5801 71.17 85.5801 73.49V92.65C85.5801 96.97 82.4601 101.29 78.4701 102.5L54.3601 109.81C53.6601 110.02 52.9601 110.13 52.2701 110.13ZM54.3601 78.29C52.1201 78.97 50.1501 81.74 50.1501 84.23V103.39C50.1501 104.42 50.4801 105.23 51.0801 105.68C51.7601 106.18 52.5901 106.08 53.1701 105.9L77.2901 98.59C79.5301 97.91 81.5001 95.14 81.5001 92.65V73.49C81.5001 72.46 81.1701 71.65 80.5701 71.2C79.8901 70.7 79.0601 70.8 78.4801 70.98L54.3701 78.29H54.3601Z" fill="#154476"/>
<path fill-rule="evenodd" clip-rule="evenodd" d="M66.8902 104.46L75.3402 101.9C76.4302 101.57 77.3202 102.27 77.3202 103.46V110.18C77.3202 111.37 76.4302 112.61 75.3402 112.95L66.8902 115.51C65.8002 115.84 64.9102 115.14 64.9102 113.94V107.23C64.9102 106.04 65.8002 104.79 66.8902 104.46Z" fill="#FDF8F4"/>
<path d="M66.3604 117.64C65.6104 117.64 64.9004 117.41 64.3004 116.97C63.3804 116.29 62.8604 115.19 62.8604 113.95V107.24C62.8604 105.14 64.3404 103.11 66.2904 102.51L74.7403 99.95C75.8703 99.61 77.0303 99.79 77.9203 100.45C78.8303 101.13 79.3604 102.23 79.3604 103.47V110.18C79.3604 112.28 77.8804 114.31 75.9304 114.91L67.4804 117.47C67.1104 117.58 66.7304 117.64 66.3604 117.64ZM75.2704 104.06L67.4804 106.42C67.2904 106.48 66.9504 106.9 66.9504 107.23V113.35L74.7403 110.99C74.9403 110.93 75.2704 110.51 75.2704 110.18V104.06Z" fill="#154476"/>
<path fill-rule="evenodd" clip-rule="evenodd" d="M19.4401 69.09C26.0401 61.26 38.8901 69.18 41.0501 78C45.2201 95.05 49.7801 103.3 64.4901 105.84L64.1701 115.97C28.2201 123.08 9.51015 80.87 19.4501 69.09" fill="#EF482D"/>
<path d="M56.1104 118.83C49.6104 118.83 43.4404 117.26 37.6904 114.12C29.0104 109.39 23.6304 102.36 20.6404 97.31C13.9304 85.93 12.7904 73.79 17.8604 67.77C20.7004 64.41 24.7704 63.14 29.3204 64.21C35.6404 65.69 41.5304 71.41 43.0204 77.51C47.9504 97.65 53.7304 101.91 64.8204 103.82L66.5704 104.12L66.1404 117.66L64.5404 117.98C61.6704 118.55 58.8604 118.83 56.1004 118.83M21.0004 70.41C17.1504 74.97 18.5204 85.64 24.1804 95.24C27.1004 100.18 37.3004 114.75 56.0804 114.75C58.0204 114.75 60.0504 114.6 62.1704 114.26L62.3804 107.52C47.9604 104.42 43.1404 95.17 39.0604 78.49C37.9304 73.85 33.2404 69.33 28.4004 68.2C26.3004 67.71 23.3004 67.69 21.0104 70.42L21.0004 70.41Z" fill="#154476"/>
<path fill-rule="evenodd" clip-rule="evenodd" d="M30.9001 30.06C37.8301 30.06 43.4501 37.43 43.4501 46.51C43.4501 55.59 37.8301 62.97 30.9001 62.97C23.9701 62.97 18.3501 55.6 18.3501 46.51C18.3501 37.42 23.9701 30.06 30.9001 30.06Z" fill="#FDF8F4"/>
<path d="M30.9001 64.45C23.1601 64.45 16.8701 56.41 16.8701 46.52C16.8701 36.63 23.1601 28.59 30.9001 28.59C38.6401 28.59 44.9301 36.63 44.9301 46.52C44.9301 56.41 38.6401 64.45 30.9001 64.45ZM30.9001 31.54C24.7901 31.54 19.8301 38.26 19.8301 46.52C19.8301 54.78 24.8001 61.5 30.9001 61.5C37.0001 61.5 41.9701 54.78 41.9701 46.52C41.9701 38.26 37.0001 31.54 30.9001 31.54Z" fill="#154476"/>
<path fill-rule="evenodd" clip-rule="evenodd" d="M30.9504 29.99C37.8804 29.99 43.5004 37.36 43.5004 46.45C43.0004 53.61 32.9504 52.49 18.4004 46.45C18.4004 37.36 24.0204 29.99 30.9504 29.99Z" fill="#EF482D"/>
<path d="M36.7304 52.88C32.2704 52.88 26.0104 51.19 17.8304 47.8L16.9204 47.42V46.44C16.9204 36.55 23.2104 28.51 30.9504 28.51C38.6904 28.51 44.9804 36.55 44.9804 46.44V46.54C44.8204 48.8 43.8204 50.56 42.0904 51.62C40.7404 52.46 38.9604 52.88 36.7304 52.88ZM19.8904 45.46C33.8204 51.11 38.7904 50.19 40.5304 49.12C41.4404 48.56 41.9104 47.69 42.0204 46.39C42.0004 38.16 37.0404 31.46 30.9404 31.46C24.8404 31.46 20.2604 37.66 19.8904 45.46Z" fill="#154476"/>
<path fill-rule="evenodd" clip-rule="evenodd" d="M18.3904 45.29C27.9004 50.24 42.9304 49.69 42.9704 41.99C43.1104 42.03 52.5104 54.98 44.7104 57.65C33.9204 61.33 25.5404 51.3 18.3804 45.3" fill="#EF482D"/>
<path d="M40.0804 59.91C32.4704 59.91 26.1304 54.19 20.8504 49.43C19.6604 48.36 18.5404 47.35 17.4404 46.42L19.0704 43.98C25.5404 47.35 35.0104 48.02 39.3304 45.41C40.7804 44.54 41.4804 43.42 41.4904 41.98V40.08L43.3404 40.56C43.6004 40.63 44.3704 40.83 46.6504 45.02C48.3104 48.06 49.1904 50.72 49.2704 52.92C49.3804 55.93 47.9304 58.1 45.1804 59.04C43.4204 59.64 41.7104 59.91 40.0704 59.91M25.0404 49.21C30.6404 54.14 36.9304 58.73 44.2404 56.24C45.3204 55.87 45.9404 55.28 46.1904 54.36C46.8604 51.97 45.0204 48.02 43.4904 45.4C42.8904 46.38 42.0004 47.23 40.8504 47.92C37.1704 50.14 30.9904 50.51 25.0304 49.2" fill="#154476"/>
<path fill-rule="evenodd" clip-rule="evenodd" d="M83.8604 10.93C84.1004 5.94999 86.7204 3.94999 88.4204 3.61999C157.09 -9.60001 160.3 64.45 89.6804 96.09C87.9404 96.87 84.4104 95.7 83.8904 92.16L83.4204 70.55C83.5604 67.85 85.5204 66.52 86.6704 65.89C107.88 54.28 107.84 30.56 84.5504 35.74L83.8604 10.92V10.93Z" fill="#FDF8F4"/>
<path d="M88.4801 98.37C87.4401 98.37 86.3301 98.09 85.3301 97.54C83.4201 96.49 82.1901 94.69 81.8601 92.47L81.8401 92.22L81.3701 70.53V70.45C81.4801 68.58 82.3001 65.96 85.6801 64.11C97.3001 57.75 101.95 47.86 99.7301 41.97C98.0801 37.57 92.7001 36.03 84.9801 37.75L82.5601 38.29L81.8001 10.92V10.84C82.0801 5.25 85.1301 2.18 88.0201 1.63C102.26 -1.11 114.35 -0.359996 123.93 3.86C132.79 7.76 138.95 14.48 141.72 23.27C148.66 45.25 133.06 78.9 90.4901 97.98C89.8801 98.25 89.1801 98.39 88.4601 98.39M85.9301 91.98C86.1301 93.09 86.7801 93.66 87.3001 93.95C87.9901 94.33 88.6401 94.32 88.8401 94.23C112.38 83.68 124.68 69.87 130.84 60.14C138.58 47.93 141.13 34.93 137.83 24.49C135.42 16.85 130.05 11.01 122.29 7.59C113.6 3.76 102.02 3.09 88.8001 5.63C87.8801 5.81 86.1101 7.15 85.9001 10.95L86.5201 33.29C95.0701 32.02 101.35 34.64 103.56 40.52C106.35 47.94 101.72 59.98 87.6401 67.69C86.2401 68.46 85.5401 69.38 85.4601 70.59L85.9201 91.97L85.9301 91.98Z" fill="#154476"/>
<path d="M48.9002 144.19C48.9002 159.99 37.9602 170.85 20.9502 170.85H0.970215V117.53H20.9502C37.9602 117.53 48.9002 128.32 48.9002 144.19ZM20.1102 159.61C29.9102 159.61 35.6802 153.99 35.6802 144.19C35.6802 134.39 29.9102 128.62 20.1102 128.62H13.9602V159.61H20.1102Z" fill="#154476"/>
<path d="M73.1402 171.46C60.6802 171.46 51.7202 163.11 51.7202 149.66C51.7202 136.21 60.5302 127.86 73.1402 127.86C85.7502 127.86 94.2602 136.06 94.2602 148.98C94.2602 150.19 94.1802 151.48 94.0302 152.78H64.6302C65.0902 158.32 68.5002 160.91 72.6802 160.91C76.3302 160.91 78.3802 159.09 79.4402 156.81H93.2602C91.2102 165.09 83.6902 171.47 73.1302 171.47M64.7002 145.56H80.9602C80.9602 140.93 77.3102 138.27 72.9802 138.27C68.6502 138.27 65.4602 140.85 64.7002 145.56Z" fill="#154476"/>
<path d="M118.03 171.46C105.57 171.46 96.6104 163.11 96.6104 149.66C96.6104 136.21 105.42 127.86 118.03 127.86C130.64 127.86 139.15 136.06 139.15 148.98C139.15 150.19 139.07 151.48 138.92 152.78H109.52C109.98 158.32 113.39 160.91 117.57 160.91C121.22 160.91 123.27 159.09 124.33 156.81H138.16C136.11 165.09 128.59 171.47 118.03 171.47M109.6 145.56H125.86C125.86 140.93 122.21 138.27 117.88 138.27C113.55 138.27 110.36 140.85 109.6 145.56Z" fill="#154476"/>
<path d="M157.08 114.64H144.09V170.85H157.08V114.64Z" fill="#154476"/>
<path d="M61.1601 183.59H56.0501V187.05H60.5801V189.24H56.0501V192.89H61.1601V195.14H53.3501V181.34H61.1601V183.59Z" fill="#EF482D"/>
<path d="M66.7103 191.75L64.7703 195.14H61.8703L65.3603 189.65L61.8403 184.2H64.8803L67.0603 187.58L69.0303 184.2H71.9203L68.4103 189.65L71.9603 195.14H68.9103L66.7103 191.75Z" fill="#EF482D"/>
<path d="M79.0601 184.02C81.8001 184.02 83.9401 186.21 83.9401 189.63C83.9401 193.05 81.8001 195.32 79.0601 195.32C77.3801 195.32 76.1901 194.47 75.5301 193.58V200.35H72.8301V184.2H75.5301V185.78C76.1701 184.85 77.4001 184.02 79.0601 184.02ZM78.3401 186.45C76.8901 186.45 75.5201 187.6 75.5201 189.67C75.5201 191.74 76.8901 192.89 78.3401 192.89C79.7901 192.89 81.1701 191.7 81.1701 189.63C81.1701 187.56 79.8001 186.45 78.3401 186.45Z" fill="#EF482D"/>
<path d="M87.45 195.14H84.75V184.2H87.45V185.9C88.12 184.78 89.24 184.04 90.73 184.04V186.94H90.02C88.42 186.94 87.46 187.57 87.46 189.68V195.13L87.45 195.14Z" fill="#EF482D"/>
<path d="M96.3302 195.32C93.2302 195.32 90.9702 193.11 90.9702 189.67C90.9702 186.23 93.1702 184.02 96.3302 184.02C99.4902 184.02 101.6 186.17 101.6 189.43C101.6 189.79 101.58 190.14 101.52 190.5H93.7102C93.8502 192.12 94.9302 193.03 96.2702 193.03C97.4302 193.03 98.0602 192.44 98.4102 191.71H101.32C100.74 193.72 98.9702 195.33 96.3302 195.33M93.7302 188.65H98.8002C98.7602 187.21 97.6402 186.3 96.2602 186.3C94.9702 186.3 93.9402 187.15 93.7302 188.65Z" fill="#EF482D"/>
<path d="M106.77 195.32C104.09 195.32 102.22 193.72 102.1 191.69H104.82C104.92 192.52 105.67 193.15 106.75 193.15C107.83 193.15 108.39 192.66 108.39 192.03C108.39 190.07 102.35 191.32 102.35 187.31C102.35 185.49 103.93 184.03 106.57 184.03C109.21 184.03 110.71 185.47 110.87 187.64H108.29C108.21 186.79 107.56 186.22 106.5 186.22C105.5 186.22 104.98 186.63 104.98 187.27C104.98 189.26 110.9 188.02 110.98 192.03C110.98 193.91 109.38 195.33 106.78 195.33" fill="#EF482D"/>
<path d="M116.41 195.32C113.73 195.32 111.86 193.72 111.74 191.69H114.46C114.56 192.52 115.31 193.15 116.39 193.15C117.47 193.15 118.03 192.66 118.03 192.03C118.03 190.07 111.99 191.32 111.99 187.31C111.99 185.49 113.57 184.03 116.21 184.03C118.85 184.03 120.35 185.47 120.51 187.64H117.93C117.85 186.79 117.2 186.22 116.14 186.22C115.14 186.22 114.62 186.63 114.62 187.27C114.62 189.26 120.54 188.02 120.62 192.03C120.62 193.91 119.02 195.33 116.42 195.33" fill="#EF482D"/>
<path d="M129.65 194.13C128.33 192.81 127.68 191.23 127.68 189.39C127.68 187.55 128.34 185.97 129.65 184.65C130.97 183.33 132.54 182.67 134.39 182.67C136.24 182.67 137.81 183.33 139.13 184.65C140.45 185.97 141.1 187.54 141.1 189.39C141.1 191.24 140.44 192.81 139.13 194.13C137.81 195.45 136.23 196.1 134.39 196.1C132.55 196.1 130.97 195.44 129.65 194.13Z" fill="#154476"/>
<path d="M145.84 194.13C144.52 192.81 143.87 191.23 143.87 189.39C143.87 187.55 144.53 185.97 145.84 184.65C147.16 183.33 148.73 182.67 150.58 182.67C152.43 182.67 154 183.33 155.32 184.65C156.64 185.97 157.29 187.54 157.29 189.39C157.29 191.24 156.63 192.81 155.32 194.13C154 195.45 152.42 196.1 150.58 196.1C148.74 196.1 147.16 195.44 145.84 194.13Z" fill="#154476"/>
</g>
<defs>
<clipPath id="clip0_6007_3652">
<rect width="156.32" height="200.36" fill="white" transform="translate(0.970215)"/>
</clipPath>
</defs>
</svg>
