<svg fill="none" height="89" viewBox="0 0 253 89" width="253" xmlns="http://www.w3.org/2000/svg" xmlns:xlink="http://www.w3.org/1999/xlink"><clipPath id="a"><path d="m0 .029663h253v88h-253z"/></clipPath><g clip-path="url(#a)"><path clip-rule="evenodd" d="m29.0977 9.86997 17.9767-5.41096c2.3255-.69433 4.2171.79009 4.2171 3.30404v14.18585c0 2.5139-1.9037 5.1476-4.2171 5.8419l-17.9767 5.411c-2.3254.6943-4.2171-.7901-4.2171-3.3041v-14.1858c0-2.502 1.8917-5.1356 4.2171-5.84193z" fill="#fcf8f4" fill-rule="evenodd"/><path d="m27.9891 34.9017c-.988 0-1.9278-.2873-2.711-.862-1.2169-.8978-1.9278-2.4062-1.9278-4.13v-14.1858c0-3.1963 2.3255-6.4046 5.3015-7.30244l17.9768-5.41096c1.5422-.46688 3.0965-.23943 4.2652.63447 1.217.89783 1.9278 2.4062 1.9278 4.13005v14.18578c0 3.1963-2.3254 6.4046-5.3014 7.3025l-17.9768 5.4109c-.5301.1556-1.0482.2275-1.5543.2275zm20.2058-29.10192c-.253 0-.482.04788-.6868.10774l-17.9647 5.42298c-1.6748.5027-3.1327 2.5618-3.1327 4.3934v14.1858c0 .7661.241 1.3647.6868 1.6879.5061.3711 1.1326.2873 1.5663.1676l17.9768-5.4109c1.6748-.5028 3.1327-2.5619 3.1327-4.3935v-14.18578c0-.76616-.241-1.36471-.6868-1.68794-.2892-.21548-.5904-.2873-.8916-.2873z" fill="#004376"/><path clip-rule="evenodd" d="m22.7481 58.413 17.9767-5.411c2.3254-.6943 4.2171-3.328 4.2171-5.8419v-14.1859c0-2.5139-1.9037-4.0103-4.2171-3.304l-17.9767 5.411c-2.3254.6943-4.2171 3.328-4.2171 5.8419v14.1858c0 2.5259 1.8917 4.0104 4.2171 3.3041z" fill="#fcf8f4" fill-rule="evenodd"/><path d="m21.6395 60.1009c-.988 0-1.9398-.2993-2.711-.8619-1.2169-.8979-1.9278-2.4062-1.9278-4.1301v-14.1858c0-3.1963 2.3254-6.4046 5.3015-7.3024l17.9767-5.411c1.5423-.4669 3.0966-.2394 4.2653.6345 1.2169.8978 1.9278 2.4062 1.9278 4.13v14.1859c0 3.1963-2.3254 6.4045-5.3014 7.3024l-17.9768 5.4109c-.5301.1557-1.0482.2275-1.5543.2275zm20.2058-29.1019c-.253 0-.482.0479-.6868.1077l-17.9768 5.411c-1.6747.5028-3.1326 2.5618-3.1326 4.3934v14.1858c0 .7662.2409 1.3648.6867 1.688.5061.3711 1.1326.2873 1.5664.1676l17.9767-5.411c1.6748-.5028 3.1327-2.5618 3.1327-4.3934v-14.1739c0-.7661-.2409-1.3647-.6868-1.6879-.2771-.2155-.5783-.2873-.8795-.2873z" fill="#004376"/><path clip-rule="evenodd" d="m29.0977 56.5575 17.9767-5.411c2.3255-.6943 4.2171.7901 4.2171 3.304v14.1859c0 2.5139-1.9037 5.1476-4.2171 5.8419l-17.9767 5.411c-2.3254.6943-4.2171-.7901-4.2171-3.3041v-14.1858c0-2.5139 1.8917-5.1476 4.2171-5.8419z" fill="#fcf8f4" fill-rule="evenodd"/><path d="m27.9891 81.5892c-.988 0-1.9278-.2993-2.711-.862-1.2169-.8978-1.9278-2.4062-1.9278-4.13v-14.1858c0-3.1963 2.3255-6.4046 5.3015-7.3024l17.9768-5.411c1.5422-.4669 3.0965-.2394 4.2652.6345 1.217.8978 1.9278 2.4062 1.9278 4.13v14.1858c0 3.1963-2.3254 6.4046-5.3014 7.3024l-17.9768 5.411c-.5301.1437-1.0482.2275-1.5543.2275zm1.5543-23.5832c-1.6748.5028-3.1327 2.5618-3.1327 4.3934v14.1858c0 .7662.241 1.3647.6868 1.688.5061.3711 1.1326.2992 1.5663.1676l17.9768-5.411c1.6748-.5028 3.1327-2.5618 3.1327-4.3934v-14.1859c0-.7661-.241-1.3647-.6868-1.6879-.506-.3711-1.1326-.2993-1.5663-.1676z" fill="#004376"/><path clip-rule="evenodd" d="m38.8814 77.3872 6.3015-1.8914c.8193-.2395 1.482.2753 1.482 1.1612v4.968c0 .8859-.6627 1.8077-1.482 2.0471l-6.3015 1.8914c-.8073.2394-1.482-.2753-1.482-1.1612v-4.968c0-.8739.6627-1.7957 1.482-2.0471z" fill="#fcf8f4" fill-rule="evenodd"/><path d="m38.4836 87.1438c-.5542 0-1.0964-.1676-1.5302-.5028-.6867-.5028-1.0723-1.3168-1.0723-2.2386v-4.968c0-1.5563 1.0964-3.0647 2.5664-3.4956l6.3015-1.9034c.8434-.2514 1.7109-.1198 2.3736.3711.6868.5028 1.0723 1.3168 1.0723 2.2386v4.968c0 1.5563-1.0964 3.0646-2.5663 3.4956l-6.3016 1.8914c-.2771.1078-.5662.1437-.8434.1437zm6.651-10.0558-5.8076 1.7478c-.1445.0479-.3976.3591-.3976.5986v4.537l5.8075-1.7478c.1446-.0478.3977-.3591.3977-.5985z" fill="#004376"/><path clip-rule="evenodd" d="m3.51815 51.1943c4.9159-5.794 14.49465.0599 16.09715 6.5961 3.1086 12.6176 6.5063 18.7349 17.4707 20.6144l-.241 7.5059c-26.7964 5.2673-40.73684-25.9894-33.32685-34.7164z" fill="#fd4425" fill-rule="evenodd"/><path d="m30.8447 88.0296c-4.8436 0-9.4342-1.1612-13.7236-3.4836-6.4702-3.5076-10.4824-8.703-12.69937-12.45-5.000243-8.4277-5.85571-17.418-2.07239-21.8713 2.10853-2.49 5.14482-3.4238 8.54256-2.6337 4.7111 1.1014 9.0968 5.3272 10.2174 9.8523 3.6628 14.9041 7.9763 18.0525 16.2417 19.4651l1.3013.2275-.3253 10.0198-1.1929.2394c-2.1326.419-4.2291.6345-6.2894.6345zm-26.16995-35.8656c-2.86761 3.3759-1.84346 11.2768 2.36156 18.3877 2.16878 3.6632 9.78359 14.4492 23.77219 14.4492 1.4459 0 2.952-.1197 4.5424-.3591l.1566-4.992c-10.7475-2.2985-14.338-9.146-17.3863-21.5002-.8434-3.4357-4.3376-6.7757-7.9522-7.6256-1.54226-.3592-3.77128-.3711-5.49425 1.64z" fill="#004376"/><path d="m12.0608 46.6693c5.1638 0 9.3498-5.4561 9.3498-12.1866s-4.186-12.1867-9.3498-12.1867-9.34986 5.4562-9.34986 12.1867 4.18606 12.1866 9.34986 12.1866z" fill="#fcf8f4"/><path d="m12.0609 47.7587c-5.75934 0-10.45836-5.9616-10.45836-13.276s4.68697-13.276 10.45836-13.276c5.7593 0 10.4583 5.9616 10.4583 13.276s-4.699 13.276-10.4583 13.276zm0-24.3733c-4.55447 0-8.25344 4.98-8.25344 11.0973 0 6.1172 3.69897 11.0972 8.25344 11.0972 4.5544 0 8.2534-4.98 8.2534-11.0972 0-6.1173-3.699-11.0973-8.2534-11.0973z" fill="#004376"/><path clip-rule="evenodd" d="m12.097 22.2361c5.1689 0 9.3498 5.4588 9.3498 12.1866-.3735 5.3032-7.8678 4.4653-18.71169 0 0-6.7278 4.19297-12.1866 9.36189-12.1866z" fill="#fd4425" fill-rule="evenodd"/><path d="m16.3984 39.1873c-3.3254 0-7.98832-1.245-14.085-3.759l-.67473-.2753v-.7303c0-7.3263 4.68697-13.276 10.45833-13.276 5.7714 0 10.4583 5.9617 10.4583 13.276v.0719c-.1205 1.6759-.8675 2.9688-2.1446 3.7589-1.0242.6225-2.3496.9338-4.0123.9338zm-12.54276-5.4948c10.37396 4.1779 14.08506 3.5076 15.38626 2.7055.6748-.419 1.0362-1.0654 1.1085-2.0231-.012-6.0934-3.711-11.0494-8.2534-11.0494-4.3737 0-7.96423 4.5849-8.24136 10.367z" fill="#004376"/><path clip-rule="evenodd" d="m2.73511 33.5729c7.09672 3.6631 18.28999 3.2561 18.32619-2.4422.1084.024 7.1088 9.6249 1.3012 11.5881-8.0485 2.7294-14.28979-4.7046-19.62739-9.1459z" fill="#fd4425" fill-rule="evenodd"/><path d="m18.9044 44.3948c-5.6629 0-10.39808-4.2378-14.32598-7.7573-.89161-.7901-1.72297-1.5443-2.54229-2.2267l1.21693-1.8076c4.81951 2.49 11.88004 2.9928 15.10914 1.0654 1.0724-.6464 1.6025-1.4724 1.6145-2.5379l.0121-1.4126 1.3736.3592c.1927.0479.7711.2035 2.47 3.304 1.241 2.2506 1.8916 4.2258 1.9519 5.8539.0843 2.2266-1.0001 3.8428-3.0484 4.5371-1.3374.419-2.6146.6225-3.8315.6225zm-11.2174-7.9249c4.1809 3.6512 8.8679 7.051 14.3139 5.2074.8073-.2753 1.2652-.7182 1.4579-1.3886.494-1.7718-.8675-4.6927-2.0121-6.632-.4458.7302-1.1085 1.3527-1.964 1.8675-2.7471 1.652-7.3497 1.9273-11.7957.9457z" fill="#004376"/><path clip-rule="evenodd" d="m51.5326 8.12217c.1807-3.68712 2.1326-5.17154 3.3977-5.41097 51.1837-9.7924 53.5807 45.0475.9398 68.475-1.2892.5747-3.9278-.2873-4.3134-2.909l-.3494-16.0054c.1084-1.9992 1.5663-2.9808 2.4218-3.4477 15.808-8.5953 15.7839-26.1689-1.5784-22.3262z" fill="#fcf8f4" fill-rule="evenodd"/><g fill="#004376"><path d="m54.9785 72.8741c-.7832 0-1.6025-.2035-2.3495-.6225-1.4218-.7781-2.3375-2.1069-2.5905-3.7589l-.0121-.1916-.3494-16.0653v-.0598c.0723-1.3887.6988-3.328 3.217-4.6927 8.6631-4.7047 12.1211-12.031 10.4704-16.3885-1.229-3.2562-5.2412-4.4054-10.9885-3.1245l-1.8073.395-.5663-20.25517v-.05986c.2048-4.14202 2.47-6.41654 4.6388-6.82356 10.615-2.035095 19.6274-1.47245 26.7724 1.65202 6.6027 2.89702 11.1933 7.86507 13.2656 14.37737 5.169 16.2808-6.4581 41.2047-38.1825 55.3187-.4578.2035-.9759.2993-1.5181.2993zm-1.9037-4.7286c.1445.826.6385 1.245 1.0241 1.4605.506.2753 1 .2753 1.1446.2035 17.543-7.8172 26.7122-18.0405 31.3027-25.2472 5.7714-9.0502 7.6751-18.663 5.2171-26.3964-1.7952-5.6504-5.7954-9.98394-11.5788-12.50986-6.4702-2.83716-15.1092-3.33995-24.9651-1.44851-.6867.13168-2.0001 1.12529-2.1567 3.93851l.4579 16.54416c6.3738-.9338 11.0607 1.0056 12.6994 5.3511 2.0844 5.4948-1.3736 14.4133-11.8681 20.1115-1.0482.5627-1.5663 1.257-1.6266 2.1549z"/><path d="m160.2 75.3403c0 3.6512-2.723 6.4524-6.313 6.4524h-5.193v-12.9049h5.193c3.578 0 6.313 2.8013 6.313 6.4525zm-2.867 0c0-2.2147-1.41-3.6153-3.446-3.6153h-2.229v7.2306h2.229c2.036 0 3.446-1.4007 3.446-3.6153z"/><path d="m160.935 77.1838c0-2.7414 2.193-4.8723 4.916-4.8723s4.916 2.1189 4.916 4.8723c0 2.7414-2.193 4.8722-4.916 4.8722s-4.916-2.1308-4.916-4.8722zm7.049 0c0-1.3049-.928-2.1788-2.133-2.1788s-2.132.862-2.132 2.1788c0 1.3048.927 2.1787 2.132 2.1787s2.133-.8739 2.133-2.1787z"/><path d="m177.731 81.7927-2.964-4.0702v4.0702h-2.783v-12.9049h2.783v7.7214l2.784-4.0343h3.241l-3.374 4.6089 3.47 4.6089z"/><path d="m187.286 81.7927-2.964-4.0702v4.0702h-2.783v-12.9049h2.783v7.7214l2.783-4.0343h3.241l-3.373 4.6089 3.47 4.6089z"/><path d="m200.6 72.5749v9.2178h-2.783v-.8619c-.615.7063-1.519 1.1252-2.76 1.1252-2.433 0-4.433-2.1189-4.433-4.8722 0-2.7414 2-4.8723 4.433-4.8723 1.241 0 2.157.419 2.76 1.1253v-.8619zm-2.783 4.6089c0-1.3767-.928-2.2506-2.205-2.2506s-2.205.8619-2.205 2.2506c0 1.3767.928 2.2506 2.205 2.2506s2.205-.8739 2.205-2.2506z"/><path d="m211.179 76.1303v5.6624h-2.784v-5.2554c0-1.1372-.723-1.6759-1.614-1.6759-1.024 0-1.723.5866-1.723 1.9034v5.0279h-2.783v-9.2178h2.783v.8619c.506-.6823 1.434-1.1253 2.651-1.1253 1.879 0 3.47 1.3288 3.47 3.8188z"/><path d="m127.572 20.3567-6.422 6.3926 6.422 6.3806 6.374-6.3806z"/><path d="m171.671 62.5909c-5.699 0-9.82-1.5682-12.603-4.8004-2.796-3.2442-4.217-8.2601-4.217-14.9041v-23.236h9.446v23.236c0 3.3041.566 5.7462 1.735 7.482 1.241 1.8555 3.193 2.8371 5.639 2.8371h40.086c2.747 0 4.325-1.5801 4.325-4.3455 0-2.7294-1.578-4.2976-4.325-4.2976h-33.616v-10.1516l14.302-14.2097 6.675 6.632-8.398 8.3439h21.025c9.398 0 13.772 4.3455 13.772 13.683 0 9.3734-4.374 13.7309-13.772 13.7309z"/><path d="m230.903 62.3515v-9.3734h6.012c4.47 0 6.639-1.4246 6.639-4.3456 0-2.897-2.169-4.3096-6.639-4.3096h-3.109v-9.4093h3.109c5.313 0 9.362 1.1492 12.037 3.4237 2.711 2.3105 4.036 5.6863 4.036 10.2952s-1.325 7.9728-4.036 10.2952c-2.675 2.2745-6.724 3.4238-12.037 3.4238z"/><path d="m127.584 63.2134c-5.759 0-10.566-1.9872-14.663-6.0693-4.06-4.0343-6.036-8.7749-6.036-14.5091 0-4.3814 1.204-8.2002 3.698-11.6838l.988-1.3887 6.748 6.7637-.518.9338c-.94 1.6759-1.41 3.4716-1.41 5.375 0 7.494 3.663 11.1332 11.205 11.1332 3.507 0 6.266-.8978 8.194-2.6816 1.951-1.7837 2.939-4.4173 2.939-7.8171v-13.0965h9.507v13.0965c0 6.5841-1.759 11.6-5.241 14.928-3.507 3.328-8.687 5.0159-15.411 5.0159z"/></g></g></svg>