<svg width="180" height="168" viewBox="0 0 180 168" fill="none" xmlns="http://www.w3.org/2000/svg">
<path d="M45.5646 134.225C46.3658 134.808 47.8956 134.844 50.4452 134.844H120.595C124.966 134.844 125.876 134.844 125.876 129.964V108.438H136.694V130.692C136.694 136.52 135.273 140.271 132.469 142.566C129.664 144.861 125.585 145.698 120.158 145.698H50.2631C49.0975 145.698 48.0049 145.698 46.9486 145.589C46.1109 145.516 45.3096 145.407 44.5447 145.261C44.5447 151.599 42.5051 156.989 38.7171 160.741C35.0749 164.383 29.83 166.496 23.274 166.496C16.7179 166.496 10.2347 164.019 6.37394 159.976C2.11251 155.532 0 149.231 0 142.202C0 135.172 0.25496 138.414 0.764875 136.228C1.23837 134.225 1.96681 132.076 2.98664 129.818C3.20517 129.345 3.53298 128.871 4.00648 128.58C4.40712 128.325 4.91704 128.215 5.46338 128.325L10.8903 129.345C10.9996 129.345 11.1089 129.381 11.2181 129.454C11.6188 129.6 11.983 129.927 12.238 130.292C12.5293 130.692 12.675 131.166 12.5658 131.639C12.5658 131.712 12.5293 131.821 12.4929 131.894C11.8009 133.642 11.291 135.391 10.9268 136.993C10.5625 138.742 10.3804 140.344 10.3804 141.728C10.3804 146.135 11.8009 149.486 13.9134 151.817C16.3901 154.549 19.8867 155.897 23.274 155.897C26.6613 155.897 28.8102 154.877 30.8134 153.092C32.5981 151.453 33.7637 149.158 33.7637 146.354V95.1074H44.5811V130.073C44.5811 132.513 44.7997 133.752 45.5646 134.298M164.375 145.735H147.147C146.564 145.735 146.018 145.516 145.617 145.116C145.217 144.715 144.998 144.205 144.998 143.586V136.993C144.998 136.411 145.253 135.864 145.654 135.464C146.054 135.063 146.564 134.844 147.183 134.844H163.355C165.722 134.844 167.143 134.589 167.981 133.788C168.709 133.096 169.037 131.931 169.146 130.146H169.073V129.6C169.146 129.162 169.146 128.725 169.183 128.288C169.183 127.815 169.183 127.341 169.183 126.831C169.183 126.686 169.183 126.54 169.183 126.394C169.183 125.047 169.146 123.881 169.037 122.825C168.964 121.805 168.818 120.931 168.636 120.166C168.308 119.438 167.835 118.928 167.07 118.636C166.232 118.309 165.03 118.163 163.391 118.163H147.22C146.637 118.163 146.091 117.908 145.69 117.544C145.289 117.143 145.034 116.597 145.034 116.014V109.421C145.034 108.802 145.289 108.292 145.654 107.892C146.054 107.491 146.564 107.273 147.183 107.273H164.411C166.014 107.273 167.507 107.418 168.855 107.71C170.239 108.001 171.477 108.438 172.57 109.021C175.411 110.113 177.305 112.044 178.434 114.557C179.563 117.034 180 120.057 180 123.408V130.109H179.964C179.709 134.99 178.325 138.887 175.739 141.583C173.189 144.205 169.437 145.662 164.411 145.662L164.375 145.735Z" fill="#004376"/>
<path d="M112.219 164.456C111.053 163.29 110.471 161.906 110.471 160.267C110.471 158.628 111.053 157.244 112.219 156.078C113.384 154.913 114.769 154.33 116.408 154.33C118.047 154.33 119.431 154.913 120.596 156.078C121.762 157.244 122.344 158.628 122.344 160.267C122.344 161.906 121.762 163.29 120.596 164.456C119.431 165.621 118.047 166.204 116.408 166.204C114.769 166.204 113.384 165.621 112.219 164.456Z" fill="#004376"/>
<path d="M126.057 164.456C124.891 163.29 124.309 161.906 124.309 160.267C124.309 158.628 124.891 157.244 126.057 156.078C127.222 154.913 128.606 154.33 130.245 154.33C131.884 154.33 133.269 154.913 134.434 156.078C135.6 157.244 136.182 158.628 136.182 160.267C136.182 161.906 135.6 163.29 134.434 164.456C133.269 165.621 131.884 166.204 130.245 166.204C128.606 166.204 127.222 165.621 126.057 164.456Z" fill="#004376"/>
<path d="M76.1957 166.823C76.0136 166.641 75.9043 166.422 75.9043 166.168C75.9043 165.913 76.0136 165.694 76.1957 165.512C76.3778 165.33 76.5963 165.221 76.8513 165.221C77.1062 165.221 77.3248 165.33 77.5069 165.512C77.689 165.694 77.7983 165.913 77.7983 166.168C77.7983 166.422 77.689 166.641 77.5069 166.823C77.3248 167.005 77.1062 167.114 76.8513 167.114C76.5963 167.114 76.3778 167.005 76.1957 166.823ZM100.38 159.83C100.999 160.486 101.291 161.396 101.291 162.598V164.237H95.3539H93.1321H90.8739H87.4502C86.9403 164.237 86.5397 164.164 86.2119 164.019C85.8841 163.873 85.6291 163.654 85.447 163.327C85.2285 163.618 84.9735 163.836 84.6457 163.982C84.3543 164.128 84.0265 164.237 83.6623 164.237H79.2916C78.1261 164.237 77.3612 163.909 76.9605 163.254C76.7056 163.582 76.3778 163.8 75.9407 163.982C75.5401 164.164 75.0666 164.237 74.5567 164.237H72.3349H65.6696H64.5405C64.5405 165.038 64.3584 165.621 63.9941 166.022C63.6299 166.422 63.12 166.641 62.4644 166.641C61.8088 166.641 61.5538 166.568 61.0803 166.386L61.4081 164.929C61.7359 165.002 62.0273 165.038 62.2094 165.038C62.3915 165.038 62.6101 164.966 62.7193 164.856C62.8286 164.747 62.865 164.529 62.865 164.201V158.883H64.5405V162.562H65.706H67.9278H74.5931C74.9937 162.562 75.3215 162.452 75.5765 162.197C75.8314 161.943 75.9771 161.615 75.9771 161.141V158.883H77.6526V161.141C77.6526 161.578 77.7618 161.906 78.0168 162.161C78.3082 162.452 78.7452 162.562 79.3644 162.562H80.7485V158.482H82.4239V162.562H83.4802C84.0993 162.562 84.4272 162.088 84.4272 161.141V158.482H86.1026V161.141C86.1026 161.615 86.2119 161.979 86.394 162.234C86.5761 162.452 86.8675 162.562 87.2681 162.562H88.1058V158.118H89.7813V162.562H90.9468H93.1686H95.3903H99.6518C99.6518 161.615 99.3604 160.959 98.7412 160.558C98.122 160.158 97.2479 159.976 96.0824 159.976L95.7546 157.9C96.5194 157.353 97.2843 156.88 98.1584 156.552C98.9961 156.224 100.052 155.969 101.254 155.787L101.509 157.426C100.817 157.499 100.162 157.645 99.5061 157.863C98.8505 158.082 98.2677 158.3 97.7578 158.592C98.8869 158.774 99.7974 159.174 100.417 159.83H100.38ZM102.638 156.078H104.314V164.237H102.638V156.078ZM60.534 158.118V164.201H58.2394C57.2924 164.201 56.6004 163.909 56.2361 163.29C56.0176 163.582 55.7262 163.8 55.4348 163.982C55.107 164.128 54.7428 164.201 54.3786 164.201H53.0674C52.8488 165.075 52.4118 165.767 51.7926 166.24C51.1734 166.714 50.3357 166.932 49.3523 166.932C48.3689 166.932 48.0047 166.823 47.4219 166.568C46.8391 166.313 46.3656 165.913 46.0014 165.403C45.6372 164.856 45.4551 164.201 45.4551 163.399C45.4551 162.598 45.5643 162.088 45.7829 161.323H47.3491C47.1669 162.015 47.0577 162.635 47.0577 163.108C47.0577 164.565 47.7861 165.293 49.3159 165.293C50.8456 165.293 50.6271 165.111 50.9549 164.711C51.3191 164.31 51.5012 163.691 51.5012 162.853V158.482H53.1767V162.562H54.1236C54.4879 162.562 54.7428 162.452 54.9249 162.234C55.107 162.015 55.1799 161.651 55.1799 161.141V158.482H56.8553V161.141C56.8553 161.615 56.9646 161.979 57.1467 162.197C57.3288 162.416 57.6202 162.562 58.0208 162.562H58.8586V158.118H60.534Z" fill="#FD4425"/>
<path fill-rule="evenodd" clip-rule="evenodd" d="M70.8813 11.3731L91.5693 5.10842C94.2281 4.30713 96.4135 6.01898 96.4135 8.93278V25.3593C96.4135 28.2731 94.2281 31.3326 91.5693 32.1339L70.8813 38.3986C68.2225 39.1999 66.0371 37.488 66.0371 34.5742V18.1477C66.0371 15.2339 68.2225 12.1744 70.8813 11.3731Z" fill="#FCF8F4"/>
<path d="M69.567 40.3648C68.4379 40.3648 67.3452 40.037 66.4347 39.3814C65.0142 38.3251 64.2129 36.6133 64.2129 34.61V18.1835C64.2129 14.4684 66.9082 10.7533 70.2955 9.73347L90.9834 3.4688C92.7681 2.92246 94.5528 3.21384 95.9005 4.19725C97.321 5.2535 98.1222 6.96536 98.1222 8.9686V25.3952C98.1222 29.1102 95.427 32.8253 92.0397 33.8452L71.3517 40.1098C70.7689 40.292 70.1498 40.3648 69.567 40.3648ZM92.841 6.67399C92.5496 6.67399 92.2946 6.74683 92.0397 6.78325L71.3517 13.0479C69.4213 13.6307 67.7459 15.9981 67.7459 18.1471V34.5736C67.7459 35.4478 68.0373 36.1398 68.5472 36.5404C69.1299 36.9775 69.8584 36.8682 70.3319 36.7226L91.0198 30.4579C92.9502 29.8751 94.6257 27.5077 94.6257 25.3587V8.93217C94.6257 8.05803 94.3343 7.36601 93.8244 6.96536C93.4966 6.74683 93.1688 6.63756 92.8046 6.63756L92.841 6.67399Z" fill="#004376"/>
<path fill-rule="evenodd" clip-rule="evenodd" d="M63.559 67.6095L84.247 61.3449C86.9059 60.5436 89.0912 57.4841 89.0912 54.5703V38.1437C89.0912 35.2299 86.9059 33.5181 84.247 34.3194L63.559 40.584C60.9002 41.3853 58.7148 44.4448 58.7148 47.3586V63.7852C58.7148 66.699 60.9002 68.4108 63.559 67.6095Z" fill="#FCF8F4"/>
<path d="M62.2838 69.5386C61.1547 69.5386 60.062 69.2108 59.1515 68.5552C57.731 67.499 56.9297 65.7871 56.9297 63.7839V47.3573C56.9297 43.6422 59.625 39.9271 63.0122 38.9073L83.7002 32.6426C85.4849 32.0963 87.2696 32.3877 88.6173 33.3711C90.0378 34.4273 90.839 36.1392 90.839 38.1424V54.569C90.839 58.2841 88.1438 61.9992 84.7565 63.019L64.0685 69.2837C63.4857 69.4658 62.8666 69.5386 62.2838 69.5386ZM85.5214 35.8478C85.23 35.8478 84.975 35.9207 84.7201 35.9571L64.0321 42.2218C62.1017 42.8045 60.4262 45.172 60.4262 47.3209V63.7474C60.4262 64.6216 60.7176 65.3136 61.2275 65.7143C61.8103 66.1513 62.5388 66.0421 63.0122 65.8964L83.7002 59.6317C85.6306 59.0489 87.306 56.6815 87.306 54.5326V38.106C87.306 37.2319 87.0147 36.5398 86.5047 36.1392C86.1769 35.9207 85.8491 35.8114 85.4849 35.8114L85.5214 35.8478Z" fill="#004376"/>
<path fill-rule="evenodd" clip-rule="evenodd" d="M70.8813 65.46L91.5693 59.1953C94.2281 58.394 96.4135 60.1059 96.4135 63.0197V79.4462C96.4135 82.3601 94.2281 85.4195 91.5693 86.2208L70.8813 92.4855C68.2225 93.2868 66.0371 91.5749 66.0371 88.6611V72.2346C66.0371 69.3208 68.2225 66.2613 70.8813 65.46Z" fill="#FCF8F4"/>
<path d="M69.6022 94.4156C68.4731 94.4156 67.3804 94.0878 66.4698 93.4322C65.0493 92.3759 64.248 90.6641 64.248 88.6608V72.2343C64.248 68.5192 66.9433 64.8041 70.3306 63.7842L91.0186 57.5196C92.8033 56.9732 94.588 57.2646 95.9356 58.248C97.3561 59.3043 98.1574 61.0161 98.1574 63.0194V79.4459C98.1574 83.161 95.4621 86.8761 92.0748 87.8959L71.3869 94.1606C70.8041 94.3427 70.1849 94.4156 69.6022 94.4156ZM71.3869 67.1351C69.4565 67.7179 67.781 70.0853 67.781 72.2343V88.6608C67.781 89.535 68.0724 90.227 68.5823 90.6276C69.1651 91.0647 69.8935 90.9554 70.367 90.8097L91.055 84.5451C92.9854 83.9623 94.6608 81.5949 94.6608 79.4459V63.0194C94.6608 62.1452 94.3694 61.4532 93.8595 61.0526C93.2768 60.6155 92.5483 60.7248 92.0748 60.8704L71.3869 67.1351Z" fill="#004376"/>
<path fill-rule="evenodd" clip-rule="evenodd" d="M82.1318 89.572L89.3799 87.3866C90.3268 87.0952 91.0917 87.7144 91.0917 88.7343V94.489C91.0917 95.5088 90.3268 96.5651 89.3799 96.8565L82.1318 99.0418C81.1848 99.3332 80.4199 98.714 80.4199 97.6942V91.9394C80.4199 90.9196 81.1848 89.8634 82.1318 89.572Z" fill="#FCF8F4"/>
<path d="M81.6598 100.862C81.0042 100.862 80.4214 100.68 79.8751 100.279C79.0738 99.6964 78.6367 98.7494 78.6367 97.6932V91.9384C78.6367 90.1537 79.9115 88.4054 81.5869 87.8955L88.835 85.7101C89.8184 85.4188 90.8018 85.5645 91.5667 86.1472C92.368 86.73 92.8051 87.677 92.8051 88.7332V94.488C92.8051 96.2727 91.5303 98.021 89.8548 98.5309L82.6068 100.716C82.279 100.825 81.9512 100.862 81.6598 100.862ZM89.3085 89.2067L82.6432 91.2464C82.4611 91.2828 82.2061 91.647 82.2061 91.9384V97.1832L88.9079 95.1436C89.09 95.1072 89.3449 94.7429 89.3449 94.4515V89.2067H89.3085Z" fill="#004376"/>
<path fill-rule="evenodd" clip-rule="evenodd" d="M41.4517 59.231C47.0971 52.5292 58.1332 59.3038 59.9907 66.8797C63.5601 81.4851 67.4938 88.5875 80.0959 90.7364L79.8046 99.4414C48.9911 105.56 32.9288 69.3564 41.4517 59.231Z" fill="#FD4425"/>
<path d="M72.882 101.882C67.3093 101.882 62.0281 100.534 57.0746 97.839C49.6444 93.7961 45.0188 87.7499 42.4692 83.4157C36.7144 73.6544 35.731 63.2376 40.1017 58.102C42.542 55.2246 46.0386 54.132 49.9358 55.0425C55.3627 56.3173 60.389 61.1979 61.7003 66.4428C65.9253 83.707 70.8787 87.3493 80.385 88.9883L81.8783 89.2433L81.5141 100.862L80.13 101.117C77.6533 101.59 75.2494 101.845 72.882 101.845M42.7606 60.3602C39.4461 64.2574 40.648 73.4359 45.4922 81.631C48.0054 85.856 56.7468 98.3489 72.8455 98.3489C74.521 98.3489 76.2328 98.2032 78.054 97.9118L78.2361 92.1206C65.8888 89.4618 61.7367 81.5217 58.2401 67.2076C57.2567 63.2376 53.2502 59.3404 49.0981 58.3934C47.2769 57.9563 44.7274 57.9563 42.7606 60.2874V60.3602Z" fill="#004376"/>
<path fill-rule="evenodd" clip-rule="evenodd" d="M51.2837 25.7598C57.2206 25.7598 62.0283 32.0609 62.0283 39.8553C62.0283 47.6497 57.2206 53.9508 51.2837 53.9508C45.3468 53.9508 40.5391 47.6497 40.5391 39.8553C40.5391 32.0609 45.3468 25.7598 51.2837 25.7598Z" fill="#FCF8F4"/>
<path d="M51.2831 55.2611C44.6542 55.2611 39.2637 48.3772 39.2637 39.8908C39.2637 31.4044 44.6542 24.5205 51.2831 24.5205C57.912 24.5205 63.3025 31.4044 63.3025 39.8908C63.3025 48.3772 57.912 55.2611 51.2831 55.2611ZM51.2831 27.0337C46.0383 27.0337 41.7768 32.7884 41.7768 39.8908C41.7768 46.9932 46.0383 52.7479 51.2831 52.7479C56.5279 52.7479 60.7894 46.9932 60.7894 39.8908C60.7894 32.7884 56.5279 27.0337 51.2831 27.0337Z" fill="#004376"/>
<path fill-rule="evenodd" clip-rule="evenodd" d="M51.3189 25.6875C57.2557 25.6875 62.0999 31.9886 62.0999 39.783C61.6628 45.9384 53.0671 44.955 40.5742 39.783C40.5742 31.9886 45.382 25.6875 51.3189 25.6875Z" fill="#FD4425"/>
<path d="M56.2717 45.3177C52.4474 45.3177 47.0932 43.8608 40.0637 40.947L39.2988 40.6191V39.7814C39.2988 31.295 44.6894 24.4111 51.3183 24.4111C57.9471 24.4111 63.3377 31.295 63.3377 39.7814V39.8543C63.192 41.7847 62.3543 43.3144 60.861 44.225C59.6954 44.9534 58.1657 45.3177 56.2717 45.3177ZM41.812 38.9801C53.7586 43.8243 58.02 43.023 59.5133 42.1125C60.2782 41.639 60.7153 40.8741 60.7881 39.7814C60.7881 32.7155 56.5267 26.9971 51.2818 26.9971C46.037 26.9971 42.1398 32.3148 41.812 39.0166V38.9801Z" fill="#004376"/>
<path fill-rule="evenodd" clip-rule="evenodd" d="M40.5391 38.8341C48.6977 43.0955 61.5913 42.6221 61.6277 35.9932C61.737 35.9932 69.8228 47.1384 63.121 49.4331C53.8697 52.6018 46.6945 43.9697 40.5391 38.8341Z" fill="#FD4425"/>
<path d="M59.1515 51.3648C52.6318 51.3648 47.2049 46.4477 42.6521 42.3684C41.6323 41.4579 40.6853 40.5837 39.7383 39.7824L41.1223 37.7063C46.6586 40.5837 54.7808 41.1665 58.4959 38.9447C59.7342 38.1798 60.3534 37.2328 60.3534 35.9945V34.3555L61.956 34.7561C62.1745 34.829 62.8301 34.9747 64.797 38.5805C66.2174 41.2029 66.9823 43.4611 67.0552 45.3551C67.1644 47.9411 65.8896 49.7986 63.5586 50.5999C62.0288 51.1098 60.5719 51.3284 59.1879 51.3284M46.2215 42.1863C51.0293 46.4113 56.4198 50.3449 62.6845 48.2324C63.595 47.9046 64.1413 47.3947 64.3599 46.6298C64.9426 44.5902 63.3401 41.2029 62.0653 38.9447C61.5554 39.7824 60.7905 40.5109 59.8071 41.0936C56.6383 42.9876 51.3571 43.3154 46.2579 42.1863H46.2215Z" fill="#004376"/>
<path fill-rule="evenodd" clip-rule="evenodd" d="M96.667 9.36946C96.8855 5.10802 99.1073 3.39616 100.564 3.10478C159.459 -8.22262 162.191 55.2618 101.657 82.3966C100.164 83.0522 97.1404 82.0688 96.7034 79.0457L96.3027 60.5066C96.412 58.212 98.0874 57.0465 99.0708 56.5002C117.246 46.5568 117.209 26.1966 97.2497 30.6402L96.667 9.36946Z" fill="#FCF8F4"/>
<path d="M100.637 84.3268C99.726 84.3268 98.779 84.0718 97.9413 83.5983C96.3023 82.6877 95.246 81.158 94.9547 79.264V79.0455L94.5176 60.4336V60.3608C94.5904 58.7582 95.3189 56.5 98.2327 54.9338C108.212 49.4704 112.183 40.984 110.289 35.9577C108.868 32.1697 104.242 30.8585 97.6499 32.3519L95.5738 32.8253L94.9182 9.36925V9.2964C95.1732 4.48863 97.7592 1.86622 100.236 1.39272C112.437 -0.974739 122.818 -0.319138 131.049 3.32311C138.662 6.67398 143.943 12.4287 146.31 19.9682C152.247 38.8351 138.88 67.6817 102.385 84.0354C101.875 84.2539 101.256 84.3996 100.637 84.3996M98.4512 78.8634C98.6333 79.8104 99.1797 80.3203 99.6167 80.5388C100.199 80.8666 100.782 80.8666 100.928 80.7938C121.106 71.761 131.669 59.8873 136.95 51.5465C143.579 41.0568 145.764 29.948 142.96 20.988C140.883 14.432 136.294 9.4421 129.629 6.49187C122.199 3.21385 112.255 2.63109 100.892 4.81644C100.09 4.96213 98.5969 6.12765 98.4148 9.36925L98.9611 28.5275C106.282 27.4348 111.673 29.693 113.567 34.7193C115.97 41.0933 112 51.4008 99.9081 58.0297C98.7062 58.6853 98.1234 59.4866 98.0506 60.5064L98.4512 78.827V78.8634Z" fill="#004376"/>
</svg>
