<svg fill="none" height="16" viewBox="0 0 15 16" width="15" xmlns="http://www.w3.org/2000/svg"><path d="m8.26444 15.5803c0 .2313-.18843.4197-.4197.4197h-3.36616c-2.08994 0-3.794437-1.6959-3.794437-3.7859v-8.41967c0-2.08993 1.704497-3.79443 3.794437-3.79443h3.36616c.23127 0 .4197.188437.4197.4197 0 .231264-.18843.4197-.4197.4197h-3.36616c-1.62741 0-2.94647 1.31906-2.94647 2.94647v8.41973c0 1.6274 1.31906 2.9464 2.94647 2.9464h3.36616c.23127.0086.4197.197.4197.4283zm6.61246-7.88009-3.3662-3.36616c-.1627-.16274-.4283-.16274-.5996 0-.1627.16274-.1627.42826 0 .59957l2.6467 2.64668h-7.40042c-.23127 0-.4197.18844-.4197.4197s.18843.4197.4197.4197h7.40902l-2.6467 2.6467c-.1628.1627-.1628.4282 0 .5996.0856.0856.1884.1199.2998.1199.1113 0 .2141-.0429.2998-.1199l3.3661-3.36621c.1542-.16275.1542-.42827-.0085-.59958z" fill="#3a3a3a"/></svg>