<svg width="209" height="196" viewBox="0 0 209 196" fill="none" xmlns="http://www.w3.org/2000/svg">
<g clip-path="url(#clip0_58_1100)">
<path fill-rule="evenodd" clip-rule="evenodd" d="M82.3827 11.6117L103.495 5.22293C106.218 4.39519 108.449 6.1556 108.449 9.11682V25.8582C108.449 28.8311 106.218 31.9322 103.495 32.7599L82.3827 39.1487C79.6603 39.9764 77.4287 38.216 77.4287 35.2548V18.5134C77.4287 15.5406 79.6603 12.4394 82.3827 11.6117Z" fill="#FDF8F4"/>
<path d="M81.0746 41.1306C79.9062 41.1306 78.8079 40.7809 77.8966 40.1163C76.4595 39.0554 75.6416 37.2834 75.6416 35.2432V18.5018C75.6416 14.7361 78.3756 10.9472 81.8691 9.89793L102.982 3.50916C104.793 2.96122 106.615 3.22936 107.994 4.2553C109.431 5.3162 110.249 7.08827 110.249 9.12848V25.8582C110.249 29.6238 107.515 33.4128 104.022 34.4621L82.9089 40.8508C82.2897 41.0374 81.6821 41.1306 81.0863 41.1306M104.816 6.80847C104.524 6.80847 104.244 6.86676 104.01 6.93671L82.8972 13.3255C80.9344 13.9201 79.2169 16.345 79.2169 18.5134V35.2548C79.2169 36.1525 79.5089 36.8637 80.023 37.2484C80.6189 37.6914 81.3433 37.5981 81.8574 37.4349L102.97 31.0462C104.933 30.4516 106.65 28.0266 106.65 25.8582V9.12848C106.65 8.23079 106.358 7.51963 105.844 7.13491C105.517 6.90174 105.155 6.82013 104.816 6.82013V6.80847Z" fill="#154576"/>
<path fill-rule="evenodd" clip-rule="evenodd" d="M74.9285 68.8658L96.0412 62.4771C98.7635 61.6493 100.995 58.5482 100.995 55.5753V38.8339C100.995 35.8611 98.7635 34.1123 96.0412 34.9401L74.9285 41.3288C72.2062 42.1566 69.9746 45.2577 69.9746 48.2306V64.9719C69.9746 67.9448 72.2062 69.6936 74.9285 68.8658Z" fill="#FDF8F4"/>
<path d="M73.6195 70.8594C72.4511 70.8594 71.3528 70.5096 70.4415 69.8451C69.0044 68.7842 68.1865 67.0121 68.1865 64.9719V48.2305C68.1865 44.4649 70.9205 40.6759 74.414 39.6267L95.5266 33.2379C97.3376 32.69 99.1603 32.9581 100.539 33.9841C101.976 35.045 102.794 36.817 102.794 38.8572V55.587C102.794 59.3526 100.06 63.1416 96.5665 64.1908L75.4539 70.5796C74.8346 70.7661 74.2271 70.8594 73.6312 70.8594M97.361 36.5372C97.0689 36.5372 96.7885 36.5955 96.5548 36.6655L75.4422 43.0542C73.4793 43.6488 71.7618 46.0738 71.7618 48.2422V64.9836C71.7618 65.8813 72.0539 66.5924 72.568 66.9772C73.1638 67.4202 73.8882 67.3269 74.4023 67.1637L95.515 60.7749C97.4778 60.1803 99.1954 57.7554 99.1954 55.587V38.8572C99.1954 37.9596 98.9033 37.2484 98.3892 36.8637C98.062 36.6305 97.6998 36.5489 97.361 36.5489V36.5372Z" fill="#154576"/>
<path fill-rule="evenodd" clip-rule="evenodd" d="M82.3827 66.674L103.495 60.2853C106.218 59.4575 108.449 61.2179 108.449 64.1792V80.9089C108.449 83.8818 106.218 86.9829 103.495 87.8106L82.3827 94.1994C79.6603 95.0271 77.4287 93.2667 77.4287 90.3055V73.5641C77.4287 70.5912 79.6603 67.4901 82.3827 66.6624" fill="#FDF8F4"/>
<path d="M81.0746 96.193C79.9062 96.193 78.8079 95.8432 77.8966 95.1787C76.4595 94.1178 75.6416 92.3457 75.6416 90.3172V73.5758C75.6416 69.8101 78.3756 66.0212 81.8691 64.9719L102.982 58.5832C104.793 58.0352 106.615 58.3034 107.994 59.3293C109.431 60.3902 110.249 62.1623 110.249 64.1908V80.9322C110.249 84.6978 107.515 88.4868 104.022 89.5361L82.9089 95.9248C82.3014 96.1114 81.6821 96.2046 81.0863 96.2046M82.9089 68.3878C80.9461 68.9824 79.2285 71.4073 79.2285 73.5758V90.3172C79.2285 91.2149 79.5206 91.926 80.0347 92.3107C80.6306 92.7538 81.355 92.6605 81.8691 92.4973L102.982 86.1085C104.945 85.5139 106.662 83.089 106.662 80.9205V64.1792C106.662 63.2815 106.37 62.5703 105.856 62.1856C105.26 61.7426 104.536 61.8358 104.022 61.9991L82.9089 68.3878Z" fill="#154576"/>
<path fill-rule="evenodd" clip-rule="evenodd" d="M93.8796 91.2498L101.275 89.0114C102.233 88.72 103.016 89.3379 103.016 90.3755V96.2396C103.016 97.2772 102.233 98.3614 101.275 98.6529L93.8796 100.891C92.9215 101.183 92.1387 100.565 92.1387 99.5273V93.6631C92.1387 92.6255 92.9215 91.5296 93.8796 91.2498Z" fill="#FDF8F4"/>
<path d="M93.4127 102.757C92.7584 102.757 92.1275 102.558 91.6134 102.174C90.8072 101.579 90.3516 100.623 90.3516 99.5389V93.6748C90.3516 91.8444 91.6485 90.0723 93.3543 89.5477L100.75 87.3093C101.743 87.0062 102.76 87.1694 103.531 87.7523C104.337 88.3469 104.793 89.3146 104.793 90.3871V96.2513C104.793 98.0816 103.496 99.8537 101.79 100.378L94.3942 102.617C94.067 102.722 93.7399 102.768 93.4127 102.768M101.218 90.8884L94.3942 92.952C94.2189 92.9986 93.9268 93.3717 93.9268 93.6631V99.0143L100.75 96.9508C100.925 96.9041 101.218 96.5311 101.218 96.2396V90.8884Z" fill="#154576"/>
<path fill-rule="evenodd" clip-rule="evenodd" d="M52.3435 60.3436C58.1153 53.5118 69.3668 60.4252 71.2596 68.1197C74.9049 83.0074 78.9008 90.2239 91.7763 92.439L91.4959 101.288C60.0197 107.502 43.6507 70.6262 52.3435 60.3319" fill="#EF482B"/>
<path d="M84.4508 103.794C78.7608 103.794 73.3628 102.419 68.3271 99.6788C60.721 95.5401 56.0124 89.4078 53.4069 84.9893C47.5299 75.0564 46.5368 64.4473 50.9767 59.1894C53.4653 56.2515 57.0172 55.144 61.0014 56.0766C66.5278 57.3707 71.6921 62.3605 73.0006 67.7C77.312 85.2924 82.3711 89.0114 92.0803 90.6786L93.6109 90.9467L93.237 102.768L91.8466 103.048C89.3346 103.549 86.8693 103.794 84.4508 103.794ZM53.7107 61.4978C50.3457 65.4849 51.5375 74.7999 56.4914 83.1823C59.0385 87.4959 67.9766 100.227 84.4157 100.227C86.1099 100.227 87.8858 100.087 89.7552 99.7954L89.9422 93.9079C77.3237 91.1916 73.0941 83.124 69.5306 68.5511C68.5374 64.5056 64.4364 60.5534 60.1952 59.5625C58.3492 59.1311 55.732 59.1195 53.7224 61.4978H53.7107Z" fill="#154576"/>
<path fill-rule="evenodd" clip-rule="evenodd" d="M62.3802 26.2662C68.4441 26.2662 73.363 32.7016 73.363 40.641C73.363 48.5803 68.4441 55.0157 62.3802 55.0157C56.3163 55.0157 51.3975 48.5803 51.3975 40.641C51.3975 32.7016 56.3163 26.2662 62.3802 26.2662Z" fill="#FDF8F4"/>
<path d="M62.3803 56.2981C55.6153 56.2981 50.1006 49.2681 50.1006 40.641C50.1006 32.0138 55.6037 24.9838 62.3803 24.9838C69.1569 24.9838 74.66 32.0138 74.66 40.641C74.66 49.2681 69.1569 56.2981 62.3803 56.2981ZM62.3803 27.5487C57.0291 27.5487 52.6827 33.4245 52.6827 40.6293C52.6827 47.8342 57.0291 53.71 62.3803 53.71C67.7315 53.71 72.0778 47.8342 72.0778 40.6293C72.0778 33.4245 67.7315 27.5487 62.3803 27.5487Z" fill="#154576"/>
<path fill-rule="evenodd" clip-rule="evenodd" d="M62.4154 26.1963C68.4793 26.1963 73.3981 32.6317 73.3981 40.571C72.9542 46.8316 64.1679 45.8406 51.4209 40.571C51.4209 32.6317 56.3398 26.1963 62.4037 26.1963" fill="#EF482B"/>
<path d="M67.4745 46.1903C63.5721 46.1903 58.0924 44.7214 50.9302 41.7485L50.1357 41.4221V40.5594C50.1357 31.9205 55.6388 24.8906 62.4154 24.8906C69.192 24.8906 74.6951 31.9205 74.6951 40.5594V40.6526C74.5549 42.6229 73.6786 44.1618 72.1714 45.0945C70.9913 45.8289 69.4257 46.1903 67.4862 46.1903M52.7412 39.7083C64.9274 44.6398 69.2855 43.8354 70.8161 42.9027C71.6106 42.413 72.0312 41.6553 72.113 40.5127C72.0896 33.3195 67.7549 27.4787 62.4154 27.4787C57.0759 27.4787 53.0684 32.8882 52.7412 39.7083Z" fill="#154576"/>
<path fill-rule="evenodd" clip-rule="evenodd" d="M51.4209 39.5567C59.7515 43.882 72.9074 43.404 72.9425 36.6655C73.071 36.7004 81.2964 48.0207 74.4731 50.3407C65.0325 53.5584 57.6951 44.7913 51.4326 39.5567" fill="#EF482B"/>
<path d="M70.4065 52.3226C63.7468 52.3226 58.1969 47.3212 53.5702 43.1708C52.5303 42.2382 51.5489 41.3521 50.5791 40.5477L52.0045 38.4142C57.6712 41.3521 65.9667 41.9467 69.7405 39.6617C71.0024 38.9039 71.6216 37.9129 71.6333 36.6655V35.01L73.2574 35.4297C73.4794 35.488 74.157 35.6629 76.155 39.3236C77.6038 41.9817 78.3749 44.3017 78.445 46.2253C78.5385 48.8485 77.2766 50.7488 74.8697 51.5648C73.3275 52.0895 71.832 52.3226 70.3948 52.3226M57.2389 42.9843C62.1461 47.2862 67.6491 51.3084 74.0402 49.1283C74.9866 48.8018 75.524 48.2889 75.746 47.4961C76.3302 45.4093 74.7179 41.9584 73.3859 39.6733C72.8601 40.5361 72.089 41.2705 71.0725 41.8768C67.8595 43.8121 62.4382 44.1385 57.2272 42.996L57.2389 42.9843Z" fill="#154576"/>
<path fill-rule="evenodd" clip-rule="evenodd" d="M108.729 9.54817C108.94 5.18795 111.23 3.45086 112.725 3.17106C172.838 -8.3707 175.654 56.2981 113.823 83.94C112.305 84.6162 109.208 83.6019 108.753 80.5125L108.344 61.6376C108.472 59.2826 110.178 58.1168 111.183 57.5689C129.748 47.4261 129.713 26.7092 109.325 31.2327L108.729 9.55983V9.54817Z" fill="#FDF8F4"/>
<path d="M112.784 85.922C111.873 85.922 110.903 85.6771 110.027 85.1875C108.356 84.2665 107.269 82.6926 106.989 80.7573L106.966 80.5358L106.557 61.591V61.5211C106.65 59.8889 107.375 57.5922 110.331 55.9834C120.495 50.434 124.573 41.7952 122.634 36.6422C121.185 32.7949 116.476 31.4542 109.723 32.9465L107.608 33.4128L106.942 9.50155V9.4316C107.188 4.54675 109.851 1.86534 112.387 1.38735C124.853 -1.00261 135.427 -0.349748 143.828 3.33429C151.586 6.75018 156.972 12.6027 159.403 20.2855C165.478 39.4868 151.82 68.8775 114.56 85.5372C114.023 85.7821 113.415 85.8986 112.784 85.8986M110.541 80.3493C110.716 81.3169 111.289 81.8182 111.744 82.063C112.34 82.3895 112.924 82.3778 113.1 82.3079C133.71 73.0978 144.471 61.0314 149.869 52.5325C156.645 41.8651 158.877 30.5099 155.991 21.3931C153.876 14.7245 149.179 9.61813 142.391 6.6336C134.785 3.28765 124.643 2.70474 113.076 4.91982C112.27 5.07138 110.716 6.24887 110.541 9.5715L111.078 29.0876C118.568 27.98 124.059 30.2651 125.998 35.4064C128.44 41.8884 124.386 52.4042 112.06 59.1311C110.833 59.7956 110.225 60.6117 110.144 61.6726L110.553 80.3493H110.541Z" fill="#154576"/>
<path d="M12.3848 191.407C11.7072 191.034 11.1697 190.497 10.7842 189.809C10.3986 189.122 10.2 188.329 10.2 187.419C10.2 186.51 10.3986 185.717 10.7958 185.03C11.1931 184.342 11.7422 183.805 12.4316 183.432C13.1209 183.059 13.892 182.873 14.745 182.873C15.5979 182.873 16.369 183.059 17.0584 183.432C17.7477 183.805 18.2968 184.342 18.6941 185.03C19.0913 185.717 19.29 186.522 19.29 187.419C19.29 188.317 19.0797 189.122 18.6707 189.809C18.2618 190.497 17.7127 191.034 17.0116 191.407C16.3106 191.78 15.5395 191.966 14.6749 191.966C13.8103 191.966 13.0508 191.78 12.3732 191.407M15.8316 189.739C16.1938 189.541 16.4742 189.25 16.6845 188.853C16.8948 188.457 16.9999 187.979 16.9999 187.419C16.9999 186.58 16.778 185.939 16.334 185.484C15.89 185.03 15.3525 184.808 14.7099 184.808C14.0673 184.808 13.5415 185.03 13.1092 185.484C12.6769 185.939 12.4666 186.58 12.4666 187.419C12.4666 188.259 12.6769 188.9 13.0976 189.355C13.5182 189.809 14.0439 190.031 14.6865 190.031C15.0955 190.031 15.4694 189.938 15.8316 189.739ZM28.9758 183.001V191.826H26.7209V190.707C26.4288 191.092 26.0549 191.395 25.5992 191.605C25.1319 191.826 24.6295 191.931 24.092 191.931C23.4027 191.931 22.7834 191.78 22.2577 191.488C21.7202 191.197 21.3113 190.765 21.0075 190.194C20.7037 189.623 20.5518 188.947 20.5518 188.166V182.989H22.7834V187.851C22.7834 188.55 22.9587 189.087 23.3092 189.471C23.6597 189.844 24.1388 190.031 24.7463 190.031C25.3539 190.031 25.8446 189.844 26.1951 189.471C26.5456 189.098 26.7209 188.55 26.7209 187.851V182.989H28.9758V183.001ZM34.2219 183.269C34.6892 183.001 35.215 182.873 35.8109 182.873V185.216H35.215C34.514 185.216 33.9882 185.379 33.626 185.706C33.2638 186.032 33.0886 186.603 33.0886 187.431V191.826H30.8569V183.001H33.0886V184.377C33.3806 183.91 33.7545 183.537 34.2102 183.281L34.2219 183.269ZM48.628 188.084H42.1669C42.2253 188.725 42.4473 189.227 42.8328 189.576C43.2301 189.938 43.7091 190.113 44.2816 190.113C45.1112 190.113 45.7071 189.763 46.0576 189.04H48.4644C48.2074 189.891 47.7167 190.591 46.9923 191.138C46.2679 191.686 45.3799 191.955 44.3284 191.955C43.4755 191.955 42.716 191.768 42.0383 191.395C41.3607 191.022 40.8349 190.486 40.461 189.798C40.0872 189.11 39.9002 188.305 39.9002 187.408C39.9002 186.51 40.0872 185.694 40.461 185.006C40.8349 184.318 41.3607 183.782 42.0267 183.409C42.6926 183.036 43.4638 182.849 44.3401 182.849C45.2163 182.849 45.9291 183.024 46.595 183.386C47.261 183.747 47.7751 184.26 48.149 184.925C48.5112 185.589 48.6981 186.347 48.6981 187.21C48.6981 187.524 48.6748 187.816 48.6397 188.072L48.628 188.084ZM46.3847 186.592C46.3847 186.02 46.1627 185.554 45.7655 185.216C45.3565 184.866 44.8658 184.703 44.2816 184.703C43.7325 184.703 43.2651 184.866 42.8796 185.204C42.5057 185.542 42.272 186.009 42.1902 186.603H46.3847V186.592ZM53.6871 189.774L55.9187 183.001H58.3022L55.0307 191.826H52.3201L49.0603 183.001H51.4555L53.6871 189.774ZM67.4039 188.084H60.9428C61.0012 188.725 61.2232 189.227 61.6087 189.576C62.006 189.938 62.485 190.113 63.0575 190.113C63.8871 190.113 64.4829 189.763 64.8335 189.04H67.2403C66.9833 189.891 66.4926 190.591 65.7682 191.138C65.0438 191.686 64.1558 191.955 63.1043 191.955C62.2513 191.955 61.4919 191.768 60.8142 191.395C60.1366 191.022 59.6108 190.486 59.2369 189.798C58.863 189.11 58.6761 188.305 58.6761 187.408C58.6761 186.51 58.863 185.694 59.2369 185.006C59.6108 184.318 60.1366 183.782 60.8025 183.409C61.4685 183.036 62.2397 182.849 63.1159 182.849C63.9922 182.849 64.7049 183.024 65.3709 183.386C66.0369 183.747 66.551 184.26 66.9249 184.925C67.2871 185.589 67.474 186.347 67.474 187.21C67.474 187.524 67.4506 187.816 67.4156 188.072L67.4039 188.084ZM65.1606 186.592C65.1606 186.02 64.9386 185.554 64.5414 185.216C64.1324 184.866 63.6417 184.703 63.0575 184.703C62.5084 184.703 62.041 184.866 61.6555 185.204C61.2816 185.542 61.0479 186.009 60.9661 186.603H65.1606V186.592ZM72.1358 183.269C72.6032 183.001 73.129 182.873 73.7248 182.873V185.216H73.129C72.4279 185.216 71.9022 185.379 71.54 185.706C71.1778 186.032 71.0025 186.603 71.0025 187.431V191.826H68.7709V183.001H71.0025V184.377C71.2946 183.91 71.6685 183.537 72.1242 183.281L72.1358 183.269ZM83.3757 183.001L77.896 196H75.5125L77.4286 191.605L73.8884 183.001H76.4004L78.6788 189.168L80.9922 183.001H83.3757ZM84.2169 185.006C84.5791 184.318 85.0581 183.782 85.6774 183.409C86.2966 183.036 86.986 182.849 87.7337 182.849C88.3062 182.849 88.8554 182.978 89.3811 183.222C89.9069 183.467 90.3158 183.805 90.6313 184.213V180.028H92.898V191.815H90.6313V190.509C90.3509 190.94 89.9653 191.29 89.4629 191.558C88.9605 191.826 88.388 191.955 87.722 191.955C86.9743 191.955 86.2966 191.768 85.6774 191.383C85.0581 190.999 84.5674 190.462 84.2169 189.763C83.8547 189.063 83.6795 188.271 83.6795 187.361C83.6795 186.452 83.8547 185.682 84.2169 184.983V185.006ZM90.3158 186.02C90.1055 185.636 89.8134 185.333 89.4512 185.123C89.0891 184.913 88.7035 184.808 88.2829 184.808C87.8622 184.808 87.4884 184.913 87.1379 185.111C86.7873 185.309 86.5069 185.612 86.2849 185.997C86.0629 186.382 85.9578 186.848 85.9578 187.373C85.9578 187.897 86.0629 188.364 86.2849 188.772C86.5069 189.168 86.7873 189.471 87.1495 189.693C87.5117 189.903 87.8856 190.008 88.2945 190.008C88.7035 190.008 89.1007 189.903 89.4629 189.693C89.8251 189.483 90.1172 189.192 90.3275 188.795C90.5378 188.41 90.643 187.944 90.643 187.396C90.643 186.848 90.5378 186.394 90.3275 185.997L90.3158 186.02ZM94.7206 185.006C95.0828 184.318 95.5619 183.782 96.1694 183.409C96.777 183.036 97.4663 182.849 98.2258 182.849C98.8801 182.849 99.4643 182.978 99.955 183.246C100.446 183.514 100.843 183.84 101.147 184.248V182.989H103.402V191.815H101.147V190.521C100.855 190.94 100.457 191.278 99.955 191.547C99.4526 191.815 98.8684 191.955 98.2024 191.955C97.4547 191.955 96.777 191.768 96.1694 191.383C95.5619 190.999 95.0712 190.462 94.7206 189.763C94.3584 189.063 94.1832 188.271 94.1832 187.361C94.1832 186.452 94.3584 185.682 94.7206 184.983V185.006ZM100.82 186.02C100.609 185.636 100.317 185.333 99.955 185.123C99.5928 184.913 99.2072 184.808 98.7866 184.808C98.366 184.808 97.9921 184.913 97.6416 185.111C97.2911 185.309 97.0107 185.612 96.7887 185.997C96.5667 186.382 96.4615 186.848 96.4615 187.373C96.4615 187.897 96.5667 188.364 96.7887 188.772C97.0107 189.168 97.2911 189.471 97.6533 189.693C98.0155 189.903 98.3894 190.008 98.7983 190.008C99.2072 190.008 99.6045 189.903 99.9667 189.693C100.329 189.483 100.621 189.192 100.831 188.795C101.042 188.41 101.147 187.944 101.147 187.396C101.147 186.848 101.042 186.394 100.831 185.997L100.82 186.02ZM113.719 183.001L108.239 196H105.855L107.771 191.605L104.231 183.001H106.743L109.022 189.168L111.335 183.001H113.719ZM119.712 191.407C119.035 191.034 118.497 190.497 118.112 189.809C117.726 189.122 117.527 188.329 117.527 187.419C117.527 186.51 117.726 185.717 118.123 185.03C118.521 184.342 119.07 183.805 119.759 183.432C120.448 183.059 121.22 182.873 122.072 182.873C122.925 182.873 123.696 183.059 124.386 183.432C125.075 183.805 125.624 184.342 126.022 185.03C126.419 185.717 126.617 186.522 126.617 187.419C126.617 188.317 126.407 189.122 125.998 189.809C125.589 190.497 125.04 191.034 124.339 191.407C123.638 191.78 122.867 191.966 122.002 191.966C121.138 191.966 120.378 191.78 119.701 191.407H119.712ZM123.147 189.739C123.498 189.541 123.79 189.25 124 188.853C124.211 188.457 124.316 187.979 124.316 187.419C124.316 186.58 124.094 185.939 123.65 185.484C123.206 185.03 122.668 184.808 122.026 184.808C121.383 184.808 120.857 185.03 120.425 185.484C119.993 185.939 119.782 186.58 119.782 187.419C119.782 188.259 119.993 188.9 120.413 189.355C120.834 189.809 121.36 190.031 122.002 190.031C122.411 190.031 122.785 189.938 123.147 189.739ZM131.314 183.269C131.782 183.001 132.307 182.873 132.903 182.873V185.216H132.307C131.606 185.216 131.081 185.379 130.718 185.706C130.356 186.032 130.181 186.603 130.181 187.431V191.826H127.949V183.001H130.181V184.377C130.473 183.91 130.847 183.537 131.303 183.281L131.314 183.269ZM134.037 185.006C134.399 184.318 134.878 183.782 135.497 183.409C136.116 183.036 136.806 182.849 137.553 182.849C138.126 182.849 138.675 182.978 139.201 183.222C139.727 183.467 140.136 183.805 140.451 184.213V180.028H142.718V191.815H140.451V190.509C140.171 190.94 139.785 191.29 139.283 191.558C138.78 191.826 138.196 191.955 137.542 191.955C136.794 191.955 136.116 191.768 135.497 191.383C134.878 190.999 134.387 190.462 134.037 189.763C133.674 189.063 133.499 188.271 133.499 187.361C133.499 186.452 133.674 185.682 134.037 184.983V185.006ZM140.147 186.02C139.937 185.636 139.645 185.333 139.283 185.123C138.921 184.913 138.535 184.808 138.114 184.808C137.694 184.808 137.32 184.913 136.969 185.111C136.619 185.309 136.338 185.612 136.116 185.997C135.894 186.382 135.789 186.848 135.789 187.373C135.789 187.897 135.894 188.364 136.116 188.772C136.338 189.168 136.619 189.471 136.981 189.693C137.331 189.903 137.717 190.008 138.126 190.008C138.535 190.008 138.932 189.903 139.294 189.693C139.657 189.483 139.949 189.192 140.159 188.795C140.369 188.41 140.474 187.944 140.474 187.396C140.474 186.848 140.369 186.394 140.159 185.997L140.147 186.02ZM152.742 188.084H146.281C146.34 188.725 146.562 189.227 146.947 189.576C147.345 189.938 147.824 190.113 148.396 190.113C149.226 190.113 149.821 189.763 150.172 189.04H152.579C152.322 189.891 151.831 190.591 151.107 191.138C150.382 191.686 149.494 191.955 148.443 191.955C147.59 191.955 146.83 191.768 146.153 191.395C145.475 191.022 144.949 190.486 144.575 189.798C144.202 189.11 144.015 188.305 144.015 187.408C144.015 186.51 144.202 185.694 144.575 185.006C144.949 184.318 145.475 183.782 146.141 183.409C146.807 183.036 147.578 182.849 148.454 182.849C149.331 182.849 150.043 183.024 150.709 183.386C151.375 183.747 151.89 184.26 152.263 184.925C152.626 185.589 152.813 186.347 152.813 187.21C152.813 187.524 152.789 187.816 152.754 188.072L152.742 188.084ZM150.487 186.592C150.487 186.02 150.265 185.554 149.868 185.216C149.459 184.866 148.969 184.703 148.384 184.703C147.835 184.703 147.368 184.866 146.982 185.204C146.608 185.542 146.375 186.009 146.281 186.603H150.476L150.487 186.592ZM157.474 183.269C157.942 183.001 158.468 182.873 159.063 182.873V185.216H158.468C157.766 185.216 157.241 185.379 156.879 185.706C156.516 186.032 156.341 186.603 156.341 187.431V191.826H154.109V183.001H156.341V184.377C156.633 183.91 157.007 183.537 157.463 183.281L157.474 183.269ZM9.79103 180.704L6.01716 187.956V191.826H3.78555V187.956L0 180.704H2.5237L4.91888 185.787L7.30238 180.704H9.79103Z" fill="#EF482B"/>
<path d="M0.174805 172.858V121.293H19.4648C25.0146 121.293 29.8049 122.378 33.8592 124.558C37.9018 126.738 41.0331 129.746 43.2413 133.593C45.4496 137.44 46.5478 141.952 46.5478 147.14C46.5478 152.328 45.4379 156.641 43.2413 160.512C41.0331 164.383 37.9018 167.402 33.8592 169.582C29.8166 171.762 25.0146 172.847 19.4648 172.847H0.174805V172.858ZM12.6181 162.133H18.7287C23.5424 162.133 27.2812 160.827 29.9568 158.204C32.6324 155.581 33.9644 151.897 33.9644 147.152C33.9644 142.407 32.6207 138.559 29.9568 135.913C27.2812 133.266 23.5424 131.949 18.7287 131.949H12.6181V162.133Z" fill="#154576"/>
<path d="M73.6309 173.371C70.6399 173.371 67.7773 172.905 65.055 171.972C62.3327 171.04 59.9258 169.687 57.8461 167.892C55.7547 166.108 54.119 163.94 52.9155 161.386C51.7121 158.845 51.1162 155.93 51.1162 152.643C51.1162 149.355 51.6887 146.65 52.8454 144.05C54.0021 141.451 55.5677 139.201 57.554 137.289C59.5402 135.377 61.8419 133.908 64.4708 132.882C67.0997 131.856 69.8804 131.343 72.8247 131.343C75.2316 131.343 77.5216 131.658 79.7065 132.299C81.8914 132.94 83.8543 133.861 85.5951 135.085C87.336 136.309 88.7147 137.755 89.7195 139.422C90.7243 141.089 91.2267 142.943 91.2267 145.006C91.2267 147.606 90.4907 149.751 89.0185 151.465C87.5463 153.179 85.6185 154.52 83.235 155.499C80.8515 156.478 78.2577 157.178 75.4302 157.597C72.6027 158.017 69.822 158.192 67.0763 158.145C66.7375 158.145 66.3285 158.145 65.8612 158.11C65.3938 158.087 64.9615 158.064 64.576 158.04C64.1787 158.017 63.8866 158.005 63.688 158.005C63.9801 159.136 64.611 160.151 65.5691 161.048C66.5272 161.958 67.7423 162.68 69.2144 163.217C70.6866 163.753 72.2055 164.021 73.7828 164.021C75.3601 164.021 76.8556 163.753 78.3161 163.217C79.7649 162.68 81.0735 161.993 82.2536 161.165C83.4336 160.337 84.4384 159.404 85.268 158.379L93.213 164.627C91.7408 166.586 89.9532 168.218 87.8384 169.512C85.7237 170.806 83.457 171.774 81.0268 172.415C78.5965 173.045 76.1313 173.371 73.6309 173.371ZM67.1581 150.008C68.4784 150.008 69.857 149.938 71.2825 149.786C72.7079 149.635 74.0165 149.378 75.2199 149.017C76.4233 148.644 77.4048 148.131 78.1642 147.478C78.9237 146.813 79.3092 145.974 79.3092 144.948C79.3092 144.12 79.0172 143.386 78.4213 142.745C77.8371 142.115 77.0426 141.614 76.0611 141.276C75.0797 140.938 74.0282 140.763 72.8948 140.763C70.932 140.763 69.2144 141.229 67.7423 142.162C66.2701 143.094 65.1368 144.26 64.354 145.648C63.5712 147.047 63.1272 148.457 63.0337 149.868C63.4777 149.915 64.0736 149.95 64.833 149.973C65.5925 149.996 66.3636 150.008 67.1464 150.008H67.1581Z" fill="#154576"/>
<path d="M119.128 173.371C116.137 173.371 113.274 172.905 110.552 171.972C107.83 171.04 105.423 169.687 103.343 167.892C101.252 166.108 99.616 163.94 98.4126 161.386C97.2092 158.845 96.6133 155.93 96.6133 152.643C96.6133 149.355 97.1858 146.65 98.3425 144.05C99.4992 141.451 101.065 139.201 103.051 137.289C105.037 135.377 107.339 133.908 109.968 132.882C112.597 131.856 115.377 131.343 118.322 131.343C120.729 131.343 123.019 131.658 125.204 132.299C127.388 132.94 129.351 133.861 131.092 135.085C132.833 136.309 134.212 137.755 135.217 139.422C136.221 141.089 136.724 142.943 136.724 145.006C136.724 147.606 135.988 149.751 134.516 151.465C133.043 153.179 131.116 154.52 128.732 155.499C126.349 156.478 123.755 157.178 120.927 157.597C118.1 158.017 115.319 158.192 112.573 158.145C112.235 158.145 111.826 158.145 111.358 158.11C110.891 158.087 110.459 158.064 110.073 158.04C109.676 158.017 109.384 158.005 109.185 158.005C109.477 159.136 110.108 160.151 111.066 161.048C112.024 161.958 113.239 162.68 114.712 163.217C116.184 163.753 117.703 164.021 119.28 164.021C120.857 164.021 122.353 163.753 123.813 163.217C125.262 162.68 126.571 161.993 127.751 161.165C128.931 160.337 129.936 159.404 130.765 158.379L138.71 164.627C137.238 166.586 135.45 168.218 133.335 169.512C131.221 170.806 128.954 171.774 126.524 172.415C124.094 173.045 121.628 173.371 119.128 173.371ZM112.643 150.008C113.964 150.008 115.342 149.938 116.768 149.786C118.193 149.635 119.502 149.378 120.705 149.017C121.909 148.644 122.89 148.131 123.65 147.478C124.409 146.825 124.795 145.974 124.795 144.948C124.795 144.12 124.503 143.386 123.907 142.745C123.322 142.115 122.528 141.614 121.547 141.276C120.565 140.938 119.514 140.763 118.38 140.763C116.417 140.763 114.7 141.229 113.228 142.162C111.756 143.094 110.622 144.26 109.839 145.648C109.057 147.047 108.613 148.457 108.519 149.868C108.963 149.915 109.559 149.95 110.318 149.973C111.078 149.996 111.849 150.008 112.632 150.008H112.643Z" fill="#154576"/>
<path d="M144.599 160.151V118.507H157.042V159.568C157.042 160.64 157.369 161.456 158.035 161.993C158.701 162.529 159.472 162.797 160.348 162.797C160.933 162.797 161.505 162.704 162.043 162.506L164.029 172.054C162.066 172.94 159.858 173.371 157.404 173.371C155.348 173.371 153.326 172.951 151.364 172.124C149.401 171.296 147.777 169.909 146.503 167.973C145.23 166.038 144.587 163.427 144.587 160.151H144.599Z" fill="#154576"/>
<path d="M196.638 171.459V131.867H209V171.459C209 174.246 208.579 176.915 207.75 179.468C206.92 182.01 205.623 184.295 203.882 186.3C202.141 188.305 199.922 189.903 197.223 191.069C194.524 192.246 191.287 192.829 187.502 192.829C184.218 192.829 181.181 192.304 178.412 191.255C175.643 190.206 173.259 188.632 171.273 186.557C169.287 184.482 167.803 181.963 166.821 179.025L177.64 175.353C178.423 177.312 179.592 178.944 181.134 180.238C182.676 181.532 184.627 182.185 186.988 182.185C190.13 182.185 192.526 181.217 194.161 179.282C195.809 177.347 196.627 174.735 196.627 171.459H196.638ZM198.111 153.832C198.064 157.656 197.632 160.78 196.825 163.228C196.019 165.677 194.956 167.577 193.659 168.918C192.362 170.27 190.925 171.203 189.348 171.739C187.782 172.275 186.181 172.543 184.569 172.543C181.426 172.543 178.645 171.821 176.215 170.375C173.785 168.929 171.892 166.877 170.548 164.208C169.193 161.538 168.527 158.39 168.527 154.764V131.844H180.818V153.074C180.818 155.919 181.531 158.122 182.957 159.684C184.382 161.246 186.298 162.039 188.693 162.039C190.364 162.039 191.79 161.62 192.958 160.792C194.138 159.964 195.038 158.822 195.68 157.376C196.323 155.93 196.638 154.251 196.638 152.34L198.111 153.808V153.832Z" fill="#154576"/>
</g>
<defs>
<clipPath id="clip0_58_1100">
<rect width="209" height="196" fill="white"/>
</clipPath>
</defs>
</svg>
