<svg fill="none" height="18" viewBox="0 0 14 18" width="14" xmlns="http://www.w3.org/2000/svg">
    <g clip-rule="evenodd" fill="#231f20" fill-rule="evenodd">
        <path
            d="m2.80774 4.9163c0-2.28471 1.88628-4.119913 4.19231-4.119913 2.30602 0 4.19235 1.835203 4.19235 4.119913v2.53393c0 .27615-.2239.5-.5.5-.2762 0-.5-.22385-.5-.5v-2.53393c0-1.71385-1.41985-3.11991-3.19235-3.11991s-3.19231 1.40606-3.19231 3.11991v2.53393c0 .27615-.22386.5-.5.5s-.5-.22385-.5-.5z" />
        <path
            d="m1.88464 7.9502c-.11053 0-.23077.09843-.23077.25739v8.33141c0 .1589.12024.2573.23077.2573h10.23076c.1105 0 .2308-.0984.2308-.2573v-8.33141c0-.15896-.1203-.25739-.2308-.25739zm-1.23077.25739c0-.67721.53453-1.25739 1.23077-1.25739h10.23076c.6963 0 1.2308.58018 1.2308 1.25739v8.33141c0 .6772-.5345 1.2573-1.2308 1.2573h-10.23076c-.69624 0-1.23077-.5801-1.23077-1.2573z" />
        <path
            d="m5.53086 10.6467c.39352-.2969.9146-.4658 1.46917-.4658s1.07565.1689 1.46917.4658c.39378.2971.68265.7448.68265 1.2804 0 .4754-.22936.875-.55061 1.1648v.9121c0 .4208-.22751.7647-.52153.9865-.29383.2217-.67722.3443-1.07968.3443-.40247 0-.78586-.1226-1.07969-.3443-.29401-.2218-.52153-.5657-.52153-.9865v-.9121c-.32125-.2898-.5506-.6894-.5506-1.1648 0-.5356.28886-.9833.68265-1.2804zm.60225.7983c-.20404.154-.2849.3293-.2849.4821 0 .1575.09186.3463.33178.5095l.21882.1488v1.4186c0 .0377.01916.1093.12378.1882.10482.0791.27203.1426.47744.1426.2054 0 .37262-.0635.47743-.1426.10462-.0789.12378-.1505.12378-.1882v-1.4186l.21882-.1488c.23992-.1632.33179-.352.33179-.5095 0-.1528-.08087-.3281-.2849-.4821-.20431-.1541-.50914-.2641-.86692-.2641-.35779 0-.66262.11-.86692.2641z" />
    </g>
</svg>