<svg fill="none" height="200" viewBox="0 0 183 200" width="183" xmlns="http://www.w3.org/2000/svg"
    xmlns:xlink="http://www.w3.org/1999/xlink">
    <clipPath id="a">
        <path d="m.043457 0h182.913v200h-182.913z" />
    </clipPath>
    <g clip-path="url(#a)">
        <g fill="#004376">
            <path
                d="m66.7795 191.543c0 4.593-3.4139 8.128-7.9023 8.128h-6.4985v-16.255h6.4985c4.4884 0 7.9023 3.535 7.9023 8.127zm-3.5699 0c0-2.79-1.7676-4.557-4.315-4.557h-2.7901v9.098h2.7901c2.5474.017 4.315-1.751 4.315-4.541z" />
            <path
                d="m67.7153 193.865c0-3.466 2.7381-6.134 6.152-6.134s6.152 2.668 6.152 6.134-2.7381 6.135-6.152 6.135-6.152-2.669-6.152-6.135zm8.8208 0c0-1.646-1.1611-2.738-2.6688-2.738s-2.6687 1.092-2.6687 2.738c0 1.647 1.161 2.738 2.6687 2.738s2.6688-1.091 2.6688-2.738z" />
            <path
                d="m88.7359 199.671-3.7085-5.13v5.13h-3.4832v-16.255h3.4832v9.739l3.4833-5.095h4.0724l-4.2284 5.805 4.3497 5.806z" />
            <path
                d="m100.693 199.671-3.7081-5.13v5.13h-3.4832v-16.255h3.4832v9.739l3.4831-5.095h4.073l-4.229 5.805 4.35 5.806z" />
            <path
                d="m117.364 188.06v11.611h-3.483v-1.092c-.762.884-1.906 1.421-3.466 1.421-3.05 0-5.545-2.669-5.545-6.135s2.513-6.134 5.545-6.134c1.56 0 2.686.537 3.466 1.421v-1.092zm-3.483 5.805c0-1.75-1.161-2.842-2.755-2.842s-2.756 1.092-2.756 2.842c0 1.751 1.162 2.842 2.756 2.842s2.755-1.091 2.755-2.842z" />
            <path
                d="m130.604 192.548v7.123h-3.483v-6.62c0-1.438-.901-2.114-2.028-2.114-1.282 0-2.166.745-2.166 2.391v6.343h-3.483v-11.611h3.483v1.092c.624-.867 1.785-1.421 3.327-1.421 2.357 0 4.35 1.681 4.35 4.817z" />
            <path d="m25.9511 122.277-8.0409 8.041 8.0409 8.041 7.9715-8.041z" />
            <path
                d="m81.163 175.479c-7.1397 0-12.2866-1.976-15.7872-6.048-3.5005-4.09-5.2855-10.398-5.2855-18.785v-29.27h11.8361v29.27c0 4.159.7105 7.243 2.1662 9.427 1.5596 2.339 4.0031 3.57 7.0531 3.57h50.1693c3.431 0 5.406-1.993 5.406-5.476 0-3.432-1.975-5.407-5.406-5.407h-42.0591v-12.789l17.9011-17.902 8.353 8.353-10.502 10.502h26.307c11.766 0 17.243 5.476 17.243 17.243 0 11.801-5.477 17.294-17.243 17.294h-50.152z" />
            <path
                d="m155.299 175.184v-11.819h7.538c5.597 0 8.301-1.785 8.301-5.476 0-3.656-2.721-5.424-8.301-5.424h-3.899v-11.853h3.899c6.654 0 11.715 1.455 15.059 4.315 3.397 2.911 5.061 7.157 5.061 12.962 0 5.806-1.647 10.051-5.061 12.963-3.344 2.859-8.405 4.315-15.059 4.315h-7.538z" />
            <path
                d="m25.9684 176.259c-7.2091 0-13.2224-2.496-18.36927-7.643-5.07755-5.077-7.555673-11.056-7.555673-18.265 0-5.511 1.507673-10.328 4.626983-14.73l1.24772-1.75 8.43944 8.526-.6585 1.178c-1.1784 2.097-1.7676 4.385-1.7676 6.759 0 9.444 4.5923 14.019 14.0196 14.019 4.3844 0 7.8329-1.144 10.2591-3.379 2.4434-2.253 3.6738-5.563 3.6738-9.843v-16.481h11.8881v16.515c0 8.301-2.2009 14.627-6.5679 18.803-4.3324 4.176-10.8136 6.291-19.2358 6.291z" />
        </g>
        <path clip-rule="evenodd"
            d="m70.6786 12.408 22.4937-6.82788c2.9114-.88381 5.2855.98778 5.2855 4.15908v17.8841c0 3.1713-2.3741 6.4812-5.2855 7.365l-22.4937 6.8278c-2.9114.8839-5.2855-.9877-5.2855-4.159v-17.8841c.0173-3.1713 2.3914-6.4812 5.2855-7.365z"
            fill="#fcf8f4" fill-rule="evenodd" />
        <path
            d="m69.2922 43.9304c-1.2477 0-2.4261-.364-3.3966-1.0918-1.525-1.1264-2.4088-3.0327-2.4088-5.1989v-17.8667c0-4.0204 2.9114-8.0582 6.6372-9.202l22.4937-6.8278c1.9236-.5892 3.8645-.2946 5.3375.79716 1.525 1.12642 2.4088 3.03267 2.4088 5.19886v17.88408c0 4.0204-2.9113 8.0755-6.6372 9.202l-22.4937 6.8278c-.6412.1906-1.2997.2773-1.9409.2773zm25.3011-36.65197c-.3119 0-.6065.06932-.8491.13863l-22.5111 6.81054c-2.0969.6412-3.9338 3.2233-3.9338 5.5454v17.8841c0 .9704.3119 1.7156.8665 2.1315.6239.4679 1.4037.3639 1.9582.208l22.4937-6.8279c2.0969-.6412 3.9338-3.2233 3.9338-5.5454v-17.88408c0-.97045-.3119-1.71562-.8664-2.13153-.3293-.24262-.7279-.32926-1.0918-.32926z"
            fill="#004376" />
        <path clip-rule="evenodd"
            d="m62.7416 73.5638 22.4937-6.8278c2.9113-.8838 5.2855-4.1938 5.2855-7.3651v-17.884c0-3.1713-2.3742-5.0429-5.2855-4.1591l-22.4937 6.8278c-2.9114.8838-5.2855 4.1938-5.2855 7.3651v17.884c0 3.1713 2.3741 5.0429 5.2855 4.1591z"
            fill="#fcf8f4" fill-rule="evenodd" />
        <path
            d="m61.3379 75.6954c-1.2478 0-2.4262-.3639-3.3966-1.0918-1.525-1.1264-2.4088-3.0327-2.4088-5.1988v-17.8841c0-4.0205 2.9113-8.0582 6.6372-9.202l22.4937-6.8278c1.9236-.5892 3.8645-.2946 5.3375.7971 1.525 1.1265 2.4088 3.0327 2.4088 5.1989v17.8841c0 4.0204-2.9114 8.0582-6.6372 9.2019l-22.4764 6.8279c-.6585.1906-1.3171.2946-1.9582.2946zm25.3011-36.6693c-.312 0-.6066.0693-.8492.1386l-22.4937 6.8105c-2.0969.6412-3.9338 3.2233-3.9338 5.5455v17.8841c0 .9704.3119 1.7156.8665 2.1315.6238.4679 1.4037.3639 1.9582.2079l22.4937-6.8278c2.0969-.6412 3.9338-3.2233 3.9165-5.5454v-17.8668c0-.9704-.3119-1.7156-.8665-2.1315-.3292-.2599-.7105-.3466-1.0917-.3466z"
            fill="#004376" />
        <path clip-rule="evenodd"
            d="m70.6959 71.2244 22.4937-6.8279c2.9114-.8838 5.2855.9878 5.2855 4.1591v17.8841c0 3.1713-2.3741 6.4812-5.2855 7.365l-22.4937 6.8283c-2.9114.883-5.2855-.9882-5.2855-4.1595v-17.8841c0-3.1713 2.3741-6.4812 5.2855-7.365z"
            fill="#fcf8f4" fill-rule="evenodd" />
        <path
            d="m69.2922 102.747c-1.2477 0-2.4261-.364-3.3966-1.092-1.525-1.126-2.4088-3.0327-2.4088-5.1988v-17.8841c0-4.0205 2.9114-8.0582 6.6372-9.202l22.4937-6.8278c1.9236-.5892 3.8645-.2946 5.3375.7971 1.525 1.1265 2.4088 3.0327 2.4088 5.1989v17.8841c0 4.0204-2.9113 8.0582-6.6372 9.2019l-22.4937 6.8277c-.6412.208-1.2997.295-1.9409.295zm1.9409-29.703c-2.0969.6412-3.9338 3.2233-3.9338 5.5454v17.8841c0 .9704.3119 1.7156.8665 2.1315.6239.4679 1.4037.3639 1.9582.208l22.4937-6.8279c2.0969-.6412 3.9338-3.2233 3.9338-5.5454v-17.8841c0-.9704-.3119-1.7156-.8664-2.1315-.6239-.4679-1.4037-.3639-1.9583-.208z"
            fill="#004376" />
        <path clip-rule="evenodd"
            d="m82.9304 97.4613 7.885-2.3915c1.0224-.3119 1.8542.3466 1.8542 1.4557v6.2735c0 1.109-.8318 2.27-1.8542 2.582l-7.885 2.391c-1.0224.312-1.8542-.346-1.8542-1.455v-6.274c0-1.1087.8318-2.2698 1.8542-2.5817z"
            fill="#fcf8f4" fill-rule="evenodd" />
        <path
            d="m82.4452 109.748c-.6932 0-1.369-.208-1.9236-.624-.8491-.641-1.3517-1.664-1.3517-2.825v-6.273c0-1.9582 1.3864-3.8471 3.206-4.4017l7.8849-2.3914c1.0571-.312 2.1315-.156 2.9634.4679.8491.6412 1.3517 1.6636 1.3517 2.8247v6.2735c0 1.958-1.3864 3.847-3.206 4.401l-7.8849 2.392c-.3466.104-.6932.156-1.0398.156zm8.3182-12.668-7.2784 2.2009c-.1733.052-.5026.4505-.5026.7621v5.719l7.2784-2.201c.1733-.052.5026-.45.5026-.762z"
            fill="#004376" />
        <path clip-rule="evenodd"
            d="m38.6537 64.4659c6.152-7.2958 18.144.0866 20.1542 8.3181 3.8992 15.9085 8.1449 23.6028 21.8699 25.977l-.2946 9.462c-33.55 6.62-51.0008-32.7702-41.7295-43.7571z"
            fill="#fd4425" fill-rule="evenodd" />
        <path
            d="m72.8794 110.874c-6.0654 0-11.8188-1.473-17.1909-4.401-8.1102-4.419-13.1185-10.97-15.9085-15.6836-6.256-10.6057-7.3304-21.9392-2.5995-27.5539 2.6515-3.1367 6.4466-4.3151 10.6924-3.3273 5.892 1.3864 11.3855 6.7239 12.7891 12.4079 4.5924 18.8026 9.9992 22.771 20.3449 24.556l1.629.2772-.3986 12.6337-1.4903.294c-2.6688.52-5.2855.797-7.8676.797zm-32.7528-45.1777c-3.5872 4.263-2.3222 14.2102 2.9633 23.1522 2.7207 4.6097 12.252 18.2135 29.7548 18.2135 1.8023 0 3.7085-.139 5.6841-.468l.2079-6.291c-13.4477-2.8937-17.9533-11.5238-21.7658-27.0857-1.0571-4.3324-5.4242-8.5435-9.9472-9.6006-1.9755-.4506-4.7656-.4679-6.8971 2.0796z"
            fill="#004376" />
        <path
            d="m49.3632 58.7644c6.4699 0 11.7147-6.8742 11.7147-15.3539 0-8.4798-5.2448-15.354-11.7147-15.354s-11.7148 6.8742-11.7148 15.354c0 8.4797 5.2449 15.3539 11.7148 15.3539z"
            fill="#fcf8f4" />
        <path
            d="m49.3631 60.1335c-7.2091 0-13.0838-7.5037-13.0838-16.723s5.8747-16.723 13.0838-16.723 13.0838 7.5037 13.0838 16.723-5.8747 16.723-13.0838 16.723zm0-30.7079c-5.7014 0-10.3284 6.2732-10.3284 13.9849 0 7.7116 4.627 13.9849 10.3284 13.9849s10.3284-6.2733 10.3284-13.9849c0-7.7117-4.627-13.9849-10.3284-13.9849z"
            fill="#004376" />
        <path clip-rule="evenodd"
            d="m49.3979 27.9698c6.4639 0 11.7147 6.8799 11.7147 15.354-.4679 6.6892-9.8432 5.6321-23.4295 0 0-8.4741 5.2508-15.354 11.7148-15.354z"
            fill="#fd4425" fill-rule="evenodd" />
        <path
            d="m54.7872 49.3372c-4.1591 0-9.9991-1.577-17.6414-4.731l-.8492-.3466v-.9358c0-9.2193 5.8747-16.723 13.0838-16.723s13.0838 7.5037 13.0838 16.723v.104c-.156 2.1142-1.0744 3.7432-2.6861 4.7483-1.2477.7798-2.9113 1.1611-4.9909 1.1611zm-15.7005-6.9145c12.9971 5.2682 17.6414 4.419 19.2531 3.4139.8491-.5199 1.2997-1.3344 1.3863-2.5474-.0173-7.677-4.6443-13.933-10.3284-13.933-5.4761 0-9.9644 5.7708-10.311 13.0665z"
            fill="#004376" />
        <path clip-rule="evenodd"
            d="m37.6831 42.2494c8.8727 4.627 22.8923 4.1071 22.9443-3.0846.1386.0347 8.9074 12.1307 1.629 14.6088-10.0858 3.4486-17.8841-5.9267-24.5733-11.5242z"
            fill="#fd4425" fill-rule="evenodd" />
        <path
            d="m57.924 55.8878c-7.0878 0-13.0145-5.3375-17.9361-9.7738-1.109-1.0051-2.1488-1.9409-3.1886-2.8074l1.525-2.2702c6.048 3.1367 14.8687 3.7605 18.9065 1.3344 1.3517-.8145 2.0102-1.8543 2.0102-3.206l.0174-1.7676 1.7156.4506c.2426.0693.9531.2426 3.0846 4.1591 1.5424 2.842 2.3742 5.3201 2.4435 7.365.104 2.8074-1.2477 4.835-3.8125 5.7014-1.6463.5719-3.2406.8145-4.7656.8145zm-14.0369-9.9645c5.2335 4.5924 11.0909 8.8901 17.9187 6.5679 1.0051-.3466 1.577-.9011 1.8196-1.7503.6239-2.2181-1.0917-5.9266-2.5128-8.3528-.5545.9185-1.3863 1.7156-2.4608 2.3568-3.4312 2.0449-9.2019 2.3915-14.7647 1.1784z"
            fill="#004376" />
        <path clip-rule="evenodd"
            d="m98.7697 10.2071c.2253-4.64433 2.6683-6.51592 4.2633-6.81052 64.067-12.33862 67.065 56.75412 1.178 86.28372-1.612.7278-4.9214-.364-5.4067-3.6566l-.4332-20.1542c.1386-2.5128 1.9579-3.7605 3.0329-4.3497 19.79-10.831 19.755-32.9608-1.9758-28.1258z"
            fill="#fcf8f4" fill-rule="evenodd" />
        <path
            d="m103.085 91.7772c-.971 0-2.011-.26-2.946-.7798-1.7852-.9705-2.929-2.6515-3.2409-4.731l-.0174-.2426-.4332-20.2409v-.0693c.0867-1.7503.8665-4.1938 4.0205-5.9267 10.848-5.9267 15.181-15.1633 13.118-20.6568-1.542-4.1071-6.567-5.5454-13.7592-3.9511l-2.2529.5025-.7105-25.509v-.0693c.26-5.21622 3.102-8.0756 5.8056-8.59548 13.292-2.56477 24.556-1.85426 33.515 2.07954 8.266 3.6392 14.002 9.91244 16.602 18.10934 6.464 20.5008-8.076 51.9019-47.795 69.6993-.589.26-1.23.3813-1.906.3813zm-2.392-5.9614c.191 1.0398.797 1.577 1.283 1.837.641.3466 1.247.3466 1.438.2599 21.974-9.8432 33.429-22.7363 39.182-31.817 7.226-11.4028 9.601-23.5162 6.533-33.2553-2.253-7.1225-7.261-12.5813-14.505-15.7699-8.11-3.56989-18.906-4.19375-31.245-1.8196-.849.15596-2.512 1.42102-2.703 4.9736l.572 20.8474c7.971-1.1784 13.846 1.265 15.908 6.7412 2.6 6.9144-1.715 18.1613-14.851 25.3531-1.3.7105-1.958 1.5769-2.045 2.7034z"
            fill="#004376" />
    </g>
</svg>