<svg fill="none" height="25" viewBox="0 0 21 25" width="21" xmlns="http://www.w3.org/2000/svg"><path d="m14.4646 11.1086v-2.33836c0-2.08993-1.6959-3.78586-3.7859-3.78586-2.08989 0-3.79439 1.69593-3.79439 3.78586v2.33836c-1.46467.531-2.52677 1.9186-2.52677 3.5631v2.5268c0 2.0899 1.69594 3.7944 3.79444 3.7944h5.05352c2.0899 0 3.7944-1.7045 3.7944-3.7944v-2.5268c-.0085-1.6445-1.0706-3.0321-2.5353-3.5631zm-6.74089-2.33836c0-1.62741 1.31906-2.94646 2.94649-2.94646 1.6274 0 2.9464 1.31905 2.9464 2.94646v2.14986c-.137-.0171-.274-.0428-.4197-.0428h-5.05349c-.14561 0-.28265.0257-.4197.0428zm8.42829 8.42826c0 1.6274-1.3191 2.9465-2.9465 2.9465h-5.05352c-1.62741 0-2.94647-1.3191-2.94647-2.9465v-2.5268c0-1.6274 1.31906-2.9464 2.94647-2.9464h5.05352c1.6274 0 2.9465 1.319 2.9465 2.9464zm-5.0536-1.6874v1.6874c0 .2313-.1884.4197-.4197.4197-.2312 0-.4197-.1884-.4197-.4197v-1.6874c0-.2312.1885-.4197.4197-.4197.2313 0 .4197.1885.4197.4197z" fill="#3a3a3a"/></svg>