<svg width="250" height="81" viewBox="0 0 250 81" fill="none" xmlns="http://www.w3.org/2000/svg">
<path d="M35.7895 42.508C36.4189 42.9657 37.6205 42.9943 39.6231 42.9943H94.7235C98.1565 42.9943 98.8717 42.9943 98.8717 39.1608V22.253H107.369V39.7329C107.369 44.3103 106.253 47.257 104.05 49.0594C101.847 50.8617 98.6429 51.5197 94.3802 51.5197H39.48C38.5646 51.5197 37.7063 51.5197 36.8766 51.4339C36.2186 51.3767 35.5892 51.2909 34.9885 51.1764C34.9885 56.1543 33.3864 60.3884 30.4111 63.3351C27.5502 66.196 23.4305 67.8553 18.281 67.8553C13.1314 67.8553 8.03905 65.9099 5.00653 62.7344C1.65931 59.2441 0 54.2948 0 48.7733C0 43.2518 0.200263 45.798 0.600785 44.0815C0.972698 42.508 1.54487 40.8201 2.34591 39.0463C2.51756 38.6744 2.77505 38.3025 3.14696 38.0736C3.46166 37.8734 3.86218 37.7875 4.29131 37.8734L8.55401 38.6744C8.63983 38.6744 8.72566 38.703 8.81148 38.7603C9.12618 38.8747 9.41227 39.1322 9.61253 39.4182C9.8414 39.7329 9.95584 40.1049 9.87001 40.4768C9.87001 40.534 9.8414 40.6198 9.81279 40.677C9.26922 42.0503 8.8687 43.4235 8.58262 44.6823C8.29653 46.0555 8.15349 47.3143 8.15349 48.4014C8.15349 51.863 9.26922 54.495 10.9285 56.326C12.8739 58.4716 15.6204 59.5302 18.281 59.5302C20.9416 59.5302 22.6295 58.7291 24.203 57.3273C25.6048 56.0399 26.5203 54.2376 26.5203 52.0347V11.7822H35.0171V39.2466C35.0171 41.1634 35.1887 42.1361 35.7895 42.5652M129.111 51.5484H115.579C115.121 51.5484 114.692 51.3767 114.378 51.062C114.063 50.7473 113.891 50.3468 113.891 49.8604V44.6823C113.891 44.2245 114.092 43.7954 114.406 43.4807C114.721 43.166 115.122 42.9943 115.608 42.9943H128.31C130.17 42.9943 131.285 42.7941 131.943 42.1647C132.516 41.6211 132.773 40.7056 132.859 39.3038H132.802V38.8747C132.859 38.5314 132.859 38.1881 132.888 37.8448C132.888 37.4729 132.888 37.1009 132.888 36.7004C132.888 36.586 132.888 36.4715 132.888 36.3571C132.888 35.2986 132.859 34.3831 132.773 33.5535C132.716 32.7524 132.601 32.0658 132.458 31.465C132.201 30.8929 131.829 30.4923 131.228 30.2635C130.57 30.006 129.626 29.8915 128.339 29.8915H115.636C115.179 29.8915 114.75 29.6913 114.435 29.4052C114.12 29.0905 113.92 28.6614 113.92 28.2036V23.0255C113.92 22.5391 114.12 22.1386 114.406 21.8239C114.721 21.5092 115.122 21.3375 115.608 21.3375H129.14C130.399 21.3375 131.572 21.452 132.63 21.6808C133.717 21.9097 134.69 22.253 135.548 22.7107C137.78 23.569 139.267 25.0853 140.154 27.0593C141.041 29.0047 141.384 31.3792 141.384 34.0112V39.2752H141.356C141.155 43.1088 140.068 46.1699 138.037 48.287C136.034 50.3468 133.088 51.4911 129.14 51.4911L129.111 51.5484Z" fill="#004376"/>
<path d="M88.1427 66.253C87.2273 65.3375 86.7695 64.2504 86.7695 62.963C86.7695 61.6756 87.2273 60.5885 88.1427 59.673C89.0582 58.7575 90.1454 58.2998 91.4327 58.2998C92.7201 58.2998 93.8073 58.7575 94.7228 59.673C95.6382 60.5885 96.096 61.6756 96.096 62.963C96.096 64.2504 95.6382 65.3375 94.7228 66.253C93.8073 67.1685 92.7201 67.6262 91.4327 67.6262C90.1454 67.6262 89.0582 67.1685 88.1427 66.253Z" fill="#004376"/>
<path d="M99.0138 66.253C98.0984 65.3375 97.6406 64.2504 97.6406 62.963C97.6406 61.6756 98.0984 60.5885 99.0138 59.673C99.9293 58.7575 101.016 58.2998 102.304 58.2998C103.591 58.2998 104.678 58.7575 105.594 59.673C106.509 60.5885 106.967 61.6756 106.967 62.963C106.967 64.2504 106.509 65.3375 105.594 66.253C104.678 67.1685 103.591 67.6262 102.304 67.6262C101.016 67.6262 99.9293 67.1685 99.0138 66.253Z" fill="#004376"/>
<path d="M59.8489 68.1128C59.7058 67.9697 59.62 67.7981 59.62 67.5978C59.62 67.3976 59.7058 67.2259 59.8489 67.0829C59.9919 66.9398 60.1636 66.854 60.3638 66.854C60.5641 66.854 60.7358 66.9398 60.8788 67.0829C61.0218 67.2259 61.1077 67.3976 61.1077 67.5978C61.1077 67.7981 61.0218 67.9697 60.8788 68.1128C60.7358 68.2558 60.5641 68.3416 60.3638 68.3416C60.1636 68.3416 59.9919 68.2558 59.8489 68.1128ZM78.8451 62.6199C79.3314 63.1349 79.5603 63.8501 79.5603 64.7942V66.0816H74.8971H73.1519H71.3782H68.689C68.2885 66.0816 67.9738 66.0243 67.7163 65.9099C67.4588 65.7955 67.2586 65.6238 67.1155 65.3663C66.9439 65.5952 66.7436 65.7669 66.4861 65.8813C66.2572 65.9957 65.9998 66.0816 65.7137 66.0816H62.2806C61.3651 66.0816 60.7644 65.8241 60.4497 65.3091C60.2494 65.5666 59.9919 65.7383 59.6486 65.8813C59.3339 66.0243 58.962 66.0816 58.5615 66.0816H56.8164H51.581H50.6941C50.6941 66.711 50.5511 67.1687 50.265 67.4834C49.9789 67.7981 49.5784 67.9697 49.0634 67.9697C48.5484 67.9697 48.3482 67.9125 47.9763 67.7695L48.2338 66.6251C48.4912 66.6823 48.7201 66.711 48.8631 66.711C49.0062 66.711 49.1778 66.6537 49.2637 66.5679C49.3495 66.4821 49.3781 66.3104 49.3781 66.0529V61.8761H50.6941V64.7656H51.6096H53.3547H58.5901C58.9048 64.7656 59.1623 64.6797 59.3625 64.4795C59.5628 64.2792 59.6772 64.0217 59.6772 63.6498V61.8761H60.9932V63.6498C60.9932 63.9931 61.0791 64.2506 61.2793 64.4509C61.5082 64.6797 61.8515 64.7656 62.3378 64.7656H63.425V61.5614H64.741V64.7656H65.5706C66.057 64.7656 66.3145 64.3936 66.3145 63.6498V61.5614H67.6305V63.6498C67.6305 64.0217 67.7163 64.3078 67.8593 64.5081C68.0024 64.6797 68.2312 64.7656 68.5459 64.7656H69.2039V61.2753H70.5199V64.7656H71.4354H73.1806H74.9257H78.2729C78.2729 64.0217 78.044 63.5068 77.5577 63.1921C77.0713 62.8774 76.3847 62.7343 75.4693 62.7343L75.2118 61.1036C75.8126 60.6745 76.4133 60.3026 77.0999 60.0451C77.7579 59.7876 78.5876 59.5874 79.5317 59.4443L79.7319 60.7317C79.1884 60.7889 78.6734 60.9034 78.1585 61.075C77.6435 61.2467 77.1858 61.4183 76.7853 61.6472C77.6721 61.7903 78.3873 62.1049 78.8737 62.6199H78.8451ZM80.6188 59.6732H81.9348V66.0816H80.6188V59.6732ZM47.5471 61.2753V66.0529H45.7448C45.001 66.0529 44.4574 65.8241 44.1713 65.3377C43.9997 65.5666 43.7708 65.7383 43.5419 65.8813C43.2844 65.9957 42.9983 66.0529 42.7123 66.0529H41.6823C41.5107 66.7396 41.1674 67.2831 40.681 67.655C40.1947 68.027 39.5367 68.1986 38.7643 68.1986C37.9918 68.1986 37.7057 68.1128 37.248 67.9125C36.7903 67.7123 36.4183 67.3976 36.1323 66.997C35.8462 66.5679 35.7031 66.053 35.7031 65.4236C35.7031 64.7942 35.7889 64.3936 35.9606 63.7929H37.1908C37.0477 64.3364 36.9619 64.8228 36.9619 65.1947C36.9619 66.339 37.5341 66.9112 38.7357 66.9112C39.9372 66.9112 39.7656 66.7682 40.023 66.4535C40.3091 66.1388 40.4522 65.6524 40.4522 64.9944V61.5614H41.7682V64.7656H42.512C42.7981 64.7656 42.9983 64.6797 43.1414 64.5081C43.2844 64.3364 43.3417 64.0503 43.3417 63.6498V61.5614H44.6577V63.6498C44.6577 64.0217 44.7435 64.3078 44.8865 64.4795C45.0296 64.6511 45.2584 64.7656 45.5731 64.7656H46.2311V61.2753H47.5471Z" fill="#FD4425"/>
<path fill-rule="evenodd" clip-rule="evenodd" d="M189.688 8.93309L205.938 4.01239C208.026 3.38299 209.742 4.7276 209.742 7.0163V19.9188C209.742 22.2075 208.026 24.6107 205.938 25.2401L189.688 30.1608C187.599 30.7902 185.883 29.4455 185.883 27.1569V14.2543C185.883 11.9656 187.599 9.56248 189.688 8.93309Z" fill="#FCB933"/>
<path d="M188.657 31.7054C187.77 31.7054 186.912 31.448 186.196 30.933C185.081 30.1033 184.451 28.7587 184.451 27.1852V14.2827C184.451 11.3646 186.568 8.44654 189.229 7.64549L205.479 2.72479C206.88 2.29566 208.282 2.52453 209.341 3.29696C210.457 4.12662 211.086 5.47123 211.086 7.04471V19.9472C211.086 22.8653 208.969 25.7834 206.308 26.5845L190.058 31.5052C189.601 31.6482 189.114 31.7054 188.657 31.7054ZM206.938 5.24236C206.709 5.24236 206.508 5.29958 206.308 5.32819L190.058 10.2489C188.542 10.7066 187.226 12.5662 187.226 14.2541V27.1566C187.226 27.8433 187.455 28.3868 187.856 28.7015C188.313 29.0448 188.886 28.959 189.257 28.8446L205.507 23.9239C207.023 23.4661 208.339 21.6066 208.339 19.9186V7.0161C208.339 6.32949 208.111 5.78593 207.71 5.47123C207.453 5.29958 207.195 5.21375 206.909 5.21375L206.938 5.24236Z" fill="#004376"/>
<path fill-rule="evenodd" clip-rule="evenodd" d="M183.938 53.1051L200.188 48.1844C202.276 47.555 203.992 45.1519 203.992 42.8632V29.9606C203.992 27.6719 202.276 26.3273 200.188 26.9567L183.938 31.8774C181.849 32.5068 180.133 34.9099 180.133 37.1986V50.1012C180.133 52.3899 181.849 53.7345 183.938 53.1051Z" fill="#FCB933"/>
<path d="M182.934 54.6205C182.047 54.6205 181.189 54.363 180.474 53.848C179.358 53.0184 178.729 51.6738 178.729 50.1003V37.1978C178.729 34.2797 180.846 31.3616 183.506 30.5605L199.756 25.6398C201.158 25.2107 202.56 25.4396 203.618 26.212C204.734 27.0417 205.363 28.3863 205.363 29.9597V42.8623C205.363 45.7804 203.246 48.6985 200.586 49.4995L184.336 54.4202C183.878 54.5633 183.392 54.6205 182.934 54.6205ZM201.186 28.1574C200.957 28.1574 200.757 28.2146 200.557 28.2432L184.307 33.1639C182.791 33.6217 181.475 35.4812 181.475 37.1692V50.0717C181.475 50.7583 181.704 51.3019 182.104 51.6166C182.562 51.9599 183.134 51.874 183.506 51.7596L199.756 46.8389C201.272 46.3812 202.588 44.5216 202.588 42.8337V29.9311C202.588 29.2445 202.359 28.701 201.959 28.3863C201.701 28.2146 201.444 28.1288 201.158 28.1288L201.186 28.1574Z" fill="#004376"/>
<path fill-rule="evenodd" clip-rule="evenodd" d="M189.688 51.4165L205.938 46.4958C208.026 45.8664 209.742 47.211 209.742 49.4997V62.4022C209.742 64.6909 208.026 67.0941 205.938 67.7235L189.688 72.6442C187.599 73.2736 185.883 71.9289 185.883 69.6402V56.7377C185.883 54.449 187.599 52.0459 189.688 51.4165Z" fill="#FCB933"/>
<path d="M188.684 74.1605C187.797 74.1605 186.939 73.903 186.224 73.3881C185.108 72.5584 184.479 71.2138 184.479 69.6403V56.7378C184.479 53.8197 186.596 50.9016 189.256 50.1006L205.506 45.1799C206.908 44.7507 208.31 44.9796 209.368 45.752C210.484 46.5817 211.113 47.9263 211.113 49.4998V62.4023C211.113 65.3204 208.996 68.2385 206.336 69.0395L190.086 73.9602C189.628 74.1033 189.142 74.1605 188.684 74.1605ZM190.086 52.7326C188.57 53.1903 187.254 55.0499 187.254 56.7378V69.6403C187.254 70.3269 187.482 70.8705 187.883 71.1852C188.341 71.5285 188.913 71.4427 189.285 71.3282L205.535 66.4075C207.051 65.9498 208.367 64.0902 208.367 62.4023V49.4998C208.367 48.8132 208.138 48.2696 207.737 47.9549C207.28 47.6116 206.708 47.6974 206.336 47.8119L190.086 52.7326Z" fill="#004376"/>
<path fill-rule="evenodd" clip-rule="evenodd" d="M198.526 70.3562L204.219 68.6397C204.963 68.4108 205.564 68.8972 205.564 69.6982V74.2184C205.564 75.0194 204.963 75.8491 204.219 76.078L198.526 77.7945C197.782 78.0234 197.182 77.537 197.182 76.736V72.2158C197.182 71.4147 197.782 70.5851 198.526 70.3562Z" fill="#FCF8F4"/>
<path d="M198.156 79.2237C197.641 79.2237 197.183 79.0806 196.754 78.7659C196.125 78.3082 195.781 77.5644 195.781 76.7347V72.2145C195.781 70.8127 196.783 69.4395 198.099 69.039L203.792 67.3224C204.564 67.0936 205.337 67.208 205.937 67.6657C206.567 68.1235 206.91 68.8673 206.91 69.697V74.2172C206.91 75.619 205.909 76.9922 204.593 77.3927L198.9 79.1092C198.642 79.1951 198.385 79.2237 198.156 79.2237ZM204.164 70.0689L198.928 71.671C198.785 71.6996 198.585 71.9857 198.585 72.2145V76.3342L203.849 74.7321C203.992 74.7035 204.192 74.4174 204.192 74.1885V70.0689H204.164Z" fill="#004376"/>
<path fill-rule="evenodd" clip-rule="evenodd" d="M166.572 46.5241C171.006 41.2601 179.675 46.5813 181.134 52.5319C183.938 64.004 187.027 69.5827 196.926 71.2706L196.697 78.1081C172.494 82.9144 159.878 54.4773 166.572 46.5241Z" fill="#FD4425"/>
<path d="M191.259 80.025C186.882 80.025 182.733 78.9665 178.843 76.8494C173.007 73.6739 169.373 68.9248 167.371 65.5204C162.85 57.8532 162.078 49.6711 165.511 45.6373C167.428 43.3772 170.174 42.5189 173.235 43.2342C177.498 44.2355 181.446 48.069 182.476 52.1887C185.795 65.7492 189.685 68.6101 197.152 69.8975L198.325 70.0977L198.039 79.2239L196.952 79.4242C195.007 79.7961 193.118 79.9964 191.259 79.9964M167.599 47.411C164.996 50.4722 165.94 57.6816 169.745 64.1185C171.719 67.4371 178.585 77.2499 191.23 77.2499C192.546 77.2499 193.891 77.1355 195.321 76.9066L195.464 72.3578C185.766 70.2694 182.505 64.0327 179.758 52.7895C178.986 49.6711 175.839 46.61 172.577 45.8662C171.147 45.5229 169.144 45.5229 167.599 47.3538V47.411Z" fill="#004376"/>
<path fill-rule="evenodd" clip-rule="evenodd" d="M174.295 20.2334C178.958 20.2334 182.735 25.1827 182.735 31.305C182.735 37.4272 178.958 42.3766 174.295 42.3766C169.632 42.3766 165.855 37.4272 165.855 31.305C165.855 25.1827 169.632 20.2334 174.295 20.2334Z" fill="#FCF8F4"/>
<path d="M174.294 43.4055C169.088 43.4055 164.854 37.9985 164.854 31.3326C164.854 24.6668 169.088 19.2598 174.294 19.2598C179.501 19.2598 183.735 24.6668 183.735 31.3326C183.735 37.9985 179.501 43.4055 174.294 43.4055ZM174.294 21.2338C170.175 21.2338 166.828 25.7539 166.828 31.3326C166.828 36.9113 170.175 41.4315 174.294 41.4315C178.414 41.4315 181.761 36.9113 181.761 31.3326C181.761 25.7539 178.414 21.2338 174.294 21.2338Z" fill="#004376"/>
<path fill-rule="evenodd" clip-rule="evenodd" d="M174.322 20.1768C178.986 20.1768 182.791 25.1261 182.791 31.2483C182.447 36.0832 175.696 35.3108 165.883 31.2483C165.883 25.1261 169.659 20.1768 174.322 20.1768Z" fill="#FD4425"/>
<path d="M178.213 35.5952C175.209 35.5952 171.003 34.4509 165.482 32.1622L164.881 31.9047V31.2467C164.881 24.5809 169.115 19.1738 174.322 19.1738C179.529 19.1738 183.763 24.5809 183.763 31.2467V31.3039C183.648 32.8202 182.99 34.0218 181.817 34.737C180.902 35.3092 179.7 35.5952 178.213 35.5952ZM166.855 30.6173C176.239 34.4223 179.586 33.7929 180.759 33.0777C181.359 32.7058 181.703 32.105 181.76 31.2467C181.76 25.6966 178.413 21.205 174.293 21.205C170.173 21.205 167.112 25.3819 166.855 30.6459V30.6173Z" fill="#004376"/>
<path fill-rule="evenodd" clip-rule="evenodd" d="M165.855 30.503C172.264 33.8502 182.391 33.4783 182.42 28.2715C182.506 28.2715 188.857 37.0258 183.593 38.8281C176.326 41.3171 170.69 34.5368 165.855 30.503Z" fill="#FD4425"/>
<path d="M180.473 40.3456C175.352 40.3456 171.089 36.4834 167.513 33.2793C166.712 32.5641 165.968 31.8774 165.225 31.248L166.312 29.6173C170.66 31.8774 177.04 32.3352 179.958 30.5901C180.931 29.9893 181.417 29.2454 181.417 28.2727V26.9854L182.676 27.3C182.848 27.3573 183.363 27.4717 184.907 30.304C186.023 32.3638 186.624 34.1375 186.681 35.6252C186.767 37.6564 185.766 39.1155 183.935 39.7448C182.733 40.1454 181.589 40.317 180.502 40.317M170.317 33.1362C174.093 36.4548 178.327 39.5446 183.248 37.8853C183.963 37.6278 184.392 37.2273 184.564 36.6265C185.022 35.0244 183.763 32.3638 182.762 30.5901C182.361 31.2481 181.76 31.8202 180.988 32.278C178.499 33.7656 174.351 34.0231 170.346 33.1362H170.317Z" fill="#004376"/>
<path fill-rule="evenodd" clip-rule="evenodd" d="M209.94 7.35929C210.112 4.01207 211.857 2.66745 213.002 2.43858C259.262 -6.45873 261.407 43.4063 213.86 64.7198C212.687 65.2347 210.312 64.4623 209.969 62.0878L209.654 47.5259C209.74 45.7236 211.056 44.8081 211.829 44.379C226.104 36.5688 226.076 20.5765 210.398 24.0668L209.94 7.35929Z" fill="#FCB933"/>
<path d="M213.06 66.236C212.345 66.236 211.601 66.0357 210.943 65.6638C209.656 64.9486 208.826 63.747 208.597 62.2594V62.0877L208.254 47.4687V47.4115C208.311 46.1527 208.883 44.3789 211.172 43.1488C219.011 38.8575 222.129 32.1916 220.641 28.2436C219.526 25.2683 215.892 24.2384 210.714 25.4114L209.084 25.7833L208.569 7.35925V7.30203C208.769 3.52568 210.8 1.46585 212.745 1.09394C222.329 -0.765627 230.483 -0.250673 236.948 2.6102C242.928 5.2422 247.076 9.76238 248.936 15.6844C253.599 30.5037 243.099 53.1618 214.433 66.0071C214.033 66.1788 213.547 66.2932 213.06 66.2932M211.344 61.9447C211.487 62.6885 211.916 63.089 212.259 63.2607C212.717 63.5182 213.175 63.5182 213.289 63.461C229.138 56.366 237.435 47.0395 241.583 40.4882C246.79 32.2488 248.506 23.5232 246.304 16.4854C244.673 11.3359 241.068 7.41647 235.833 5.09916C229.997 2.52438 222.186 2.06664 213.26 3.78316C212.631 3.89759 211.458 4.81307 211.315 7.35925L211.744 22.4074C217.495 21.5492 221.729 23.3229 223.216 27.2709C225.104 32.2775 221.986 40.3737 212.488 45.5805C211.544 46.0955 211.086 46.7249 211.029 47.5259L211.344 61.9161V61.9447Z" fill="#004376"/>
</svg>
