<svg width="165" height="185" viewBox="0 0 165 185" fill="none" xmlns="http://www.w3.org/2000/svg">
<g clip-path="url(#clip0_506_1887)">
<path fill-rule="evenodd" clip-rule="evenodd" d="M66.783 10.4243L85.6987 4.69402C88.142 3.95529 90.1389 5.53022 90.1389 8.19271V23.2135C90.1389 25.876 88.142 28.6616 85.6987 29.4055L66.783 35.1358C64.3396 35.8745 62.3428 34.2996 62.3428 31.6371V16.6163C62.3428 13.9486 64.3396 11.1681 66.783 10.4243Z" fill="white"/>
<path d="M65.6067 36.9159C64.5647 36.9159 63.574 36.6081 62.7578 36.0027C61.4745 35.0486 60.7354 33.4582 60.7354 31.6319V16.6111C60.7354 13.2304 63.189 9.83434 66.3151 8.88528L85.2308 3.15501C86.8477 2.66252 88.4852 2.90876 89.7172 3.82191C91.0056 4.7761 91.7396 6.36642 91.7396 8.19272V23.2135C91.7396 26.5994 89.2911 29.9903 86.1599 30.9394L67.2442 36.6697C66.695 36.8338 66.1457 36.9159 65.6067 36.9159ZM86.8785 6.10992C86.6168 6.10992 86.3704 6.16122 86.1599 6.22278L67.2442 11.953C65.4887 12.4866 63.9436 14.6617 63.9436 16.606V31.6268C63.9436 32.4322 64.2002 33.0735 64.6674 33.4172C65.1961 33.8122 65.8531 33.725 66.31 33.5916L85.2257 27.8613C86.9863 27.3278 88.5263 25.1527 88.5263 23.2033V8.19272C88.5263 7.38217 88.2696 6.74604 87.8025 6.40233C87.5151 6.192 87.1865 6.11505 86.8785 6.11505V6.10992Z" fill="#154576"/>
<path fill-rule="evenodd" clip-rule="evenodd" d="M60.0994 61.812L79.0151 56.0818C81.4584 55.343 83.4552 52.5574 83.4552 49.8898V34.869C83.4552 32.2065 81.4584 30.6316 79.0151 31.3703L60.0994 37.1006C57.656 37.8393 55.6592 40.6249 55.6592 43.2925V58.3133C55.6592 60.9758 57.656 62.5508 60.0994 61.812Z" fill="white"/>
<path d="M58.929 63.5922C57.887 63.5922 56.8963 63.2844 56.0801 62.679C54.7968 61.7248 54.0576 60.1345 54.0576 58.3082V43.2874C54.0576 39.9067 56.5113 36.5106 59.6374 35.5615L78.5531 29.8313C80.17 29.3388 81.8075 29.585 83.0395 30.4982C84.3279 31.4524 85.0619 33.0427 85.0619 34.869V49.8898C85.0619 53.2756 82.6134 56.6666 79.4822 57.6156L60.5665 63.3459C60.0172 63.5101 59.468 63.5922 58.929 63.5922ZM80.2008 32.7913C79.939 32.7913 79.6926 32.8426 79.4822 32.9042L60.5665 38.6344C58.8109 39.168 57.2658 41.3431 57.2658 43.2874V58.3082C57.2658 59.1188 57.5225 59.7549 57.9896 60.0986C58.5235 60.4936 59.1754 60.4064 59.6322 60.273L78.5479 54.5427C80.3035 54.0092 81.8486 51.8341 81.8486 49.8898V34.869C81.8486 34.0584 81.5919 33.4223 81.1248 33.0786C80.8373 32.8683 80.5088 32.7913 80.2008 32.7913Z" fill="#154576"/>
<path fill-rule="evenodd" clip-rule="evenodd" d="M66.783 59.8421L85.6987 54.1118C88.142 53.3731 90.1389 54.948 90.1389 57.6105V72.6313C90.1389 75.2989 88.142 78.0845 85.6987 78.8233L66.783 84.5535C64.3396 85.2923 62.3428 83.7173 62.3428 81.0548V66.034C62.3428 63.3664 64.3396 60.5808 66.783 59.8421Z" fill="white"/>
<path d="M65.6067 86.3388C64.5596 86.3388 63.574 86.0259 62.7578 85.4257C61.4694 84.4715 60.7354 82.8811 60.7354 81.06V66.0392C60.7354 62.6533 63.1839 59.2624 66.3151 58.3133L85.2308 52.5831C86.8529 52.0957 88.4852 52.3368 89.7172 53.25C91.0005 54.2042 91.7396 55.7945 91.7396 57.6156V72.6364C91.7396 76.0171 89.286 79.4132 86.1599 80.3623L67.2442 86.0926C66.695 86.2567 66.1406 86.3388 65.6067 86.3388ZM67.2442 61.376C65.4835 61.9095 63.9436 64.0846 63.9436 66.0289V81.0497C63.9436 81.8551 64.2002 82.4964 64.6725 82.8401C65.2012 83.2351 65.8582 83.153 66.3151 83.0145L85.2308 77.2843C86.9863 76.7507 88.5314 74.5756 88.5314 72.6313V57.6105C88.5314 56.8051 88.2748 56.1638 87.8076 55.8201C87.2789 55.4251 86.6219 55.5072 86.165 55.6457L67.2493 61.376H67.2442Z" fill="#154576"/>
<path fill-rule="evenodd" clip-rule="evenodd" d="M77.0749 81.8911L83.7018 79.8801C84.559 79.6236 85.2571 80.1725 85.2571 81.1062V86.3696C85.2571 87.3033 84.559 88.278 83.7018 88.5396L77.0749 90.5455C76.2176 90.8071 75.5195 90.2531 75.5195 89.3194V84.056C75.5195 83.1223 76.2176 82.1476 77.0749 81.8859" fill="#FDF8F4"/>
<path d="M76.6642 92.223C76.079 92.223 75.5195 92.0435 75.0473 91.6946C74.3286 91.1611 73.918 90.2992 73.918 89.3245V84.0611C73.918 82.4143 75.0781 80.824 76.6129 80.3572L83.2398 78.3462C84.1278 78.0794 85.0364 78.2231 85.7345 78.7412C86.4532 79.2748 86.8638 80.1366 86.8638 81.1113V86.3747C86.8638 88.0215 85.7037 89.6118 84.1689 90.0786L77.542 92.0896C77.2494 92.1768 76.9517 92.223 76.6591 92.223M83.6556 81.5781L77.542 83.4301C77.388 83.4763 77.1262 83.8097 77.1262 84.0611V88.8577L83.2398 87.0057C83.3938 86.9596 83.6556 86.6261 83.6556 86.3696V81.573V81.5781Z" fill="#154576"/>
<path fill-rule="evenodd" clip-rule="evenodd" d="M39.8537 54.1631C45.028 48.0276 55.1095 54.2298 56.8034 61.1451C60.0732 74.5089 63.6511 80.9831 75.1853 82.9735L74.9337 90.92C46.7322 96.4963 32.0565 63.4075 39.8537 54.1683" fill="#EF482B"/>
<path d="M68.6255 93.1566C63.5282 93.1566 58.6928 91.9254 54.1807 89.4681C47.369 85.7591 43.1496 80.2546 40.8089 76.289C35.5474 67.373 34.6491 57.8516 38.6273 53.132C40.8499 50.4951 44.0428 49.505 47.6103 50.3412C52.5689 51.5006 57.1888 55.9843 58.3591 60.7706C62.2244 76.5609 66.757 79.8955 75.4577 81.3986L76.8334 81.6346L76.4946 92.2486L75.2421 92.4949C72.9887 92.9412 70.7814 93.1618 68.6203 93.1618M41.0809 55.1943C38.0626 58.7699 39.1354 67.137 43.5705 74.6525C45.8599 78.5309 53.8676 89.9504 68.5947 89.9504C70.1141 89.9504 71.7054 89.8272 73.3736 89.5656L73.543 84.2817C62.2347 81.85 58.4515 74.6012 55.2484 61.5247C54.3604 57.8875 50.6851 54.3427 46.8814 53.4552C45.2285 53.0653 42.8827 53.055 41.0809 55.1943Z" fill="#154576"/>
<path fill-rule="evenodd" clip-rule="evenodd" d="M48.8474 23.5675C54.2834 23.5675 58.6928 29.3439 58.6928 36.4696C58.6928 43.5952 54.2834 49.3716 48.8474 49.3716C43.4113 49.3716 39.002 43.5952 39.002 36.4696C39.002 29.3439 43.4113 23.5675 48.8474 23.5675Z" fill="#FDF8F4"/>
<path d="M48.847 50.5259C42.7796 50.5259 37.8467 44.2211 37.8467 36.4696C37.8467 28.718 42.7796 22.4132 48.847 22.4132C54.9144 22.4132 59.8474 28.718 59.8474 36.4696C59.8474 44.2211 54.9093 50.5259 48.847 50.5259ZM48.847 24.7269C44.0578 24.7269 40.1617 29.9954 40.1617 36.4696C40.1617 42.9437 44.0578 48.2123 48.847 48.2123C53.6363 48.2123 57.5324 42.9437 57.5324 36.4696C57.5324 29.9954 53.6363 24.7269 48.847 24.7269Z" fill="#154576"/>
<path fill-rule="evenodd" clip-rule="evenodd" d="M48.8835 23.5059C54.3195 23.5059 58.7289 29.2824 58.7289 36.408C58.3336 42.0203 50.4542 41.1379 39.0381 36.408C39.0381 29.2824 43.4475 23.5059 48.8835 23.5059Z" fill="#EF482B"/>
<path d="M53.4209 41.456C49.9201 41.456 45.0128 40.1324 38.5963 37.4751L37.8828 37.1775V36.408C37.8828 28.6565 42.8158 22.3517 48.8832 22.3517C54.9506 22.3517 59.8887 28.6565 59.8887 36.408V36.4901C59.7603 38.2599 58.9801 39.6399 57.625 40.4761C56.5675 41.1328 55.1662 41.4611 53.4209 41.4611M40.2133 35.6385C51.1366 40.0657 55.043 39.3475 56.4033 38.5062C57.1168 38.065 57.4915 37.3827 57.5685 36.367C57.5531 29.9134 53.6622 24.6653 48.8832 24.6653C44.1042 24.6653 40.5059 29.5235 40.2133 35.6385Z" fill="#154576"/>
<path fill-rule="evenodd" clip-rule="evenodd" d="M39.0332 35.5051C46.4968 39.3886 58.2826 38.9576 58.3185 32.9144C58.4314 32.9452 65.8026 43.1027 59.6839 45.1855C51.2193 48.0737 44.6489 40.2042 39.0332 35.5" fill="#EF482B"/>
<path d="M56.0496 46.9657C50.0848 46.9657 45.1108 42.482 40.9683 38.7473C40.0341 37.906 39.1563 37.1108 38.2939 36.3926L39.5721 34.4791C44.6488 37.1211 52.0816 37.6444 55.4695 35.6026C56.6039 34.9203 57.1583 34.0379 57.1634 32.9093L57.1737 31.4216L58.6161 31.7961C58.8163 31.8474 59.422 32.0064 61.2135 35.2897C62.5122 37.6751 63.2052 39.7631 63.2719 41.4868C63.3592 43.8466 62.2196 45.5498 60.0688 46.2834C58.6829 46.7553 57.3482 46.9657 56.0598 46.9657M44.2484 38.578C48.6424 42.441 53.5754 46.0474 59.3091 44.0877C60.1561 43.8004 60.6437 43.3336 60.8439 42.6154C61.3675 40.748 59.9251 37.6444 58.7291 35.5975C58.2568 36.367 57.5638 37.0339 56.6604 37.5777C53.7756 39.3168 48.9247 39.6092 44.2535 38.578H44.2484Z" fill="#154576"/>
<path fill-rule="evenodd" clip-rule="evenodd" d="M90.3898 8.5672C90.5797 4.6581 92.633 3.09343 93.9676 2.83693C147.83 -7.52578 150.355 50.5208 94.9532 75.3297C93.5929 75.9402 90.8159 75.0271 90.4104 72.2517L90.0459 55.3123C90.1588 53.1987 91.6936 52.1521 92.5971 51.6597C109.239 42.5589 109.203 23.9625 90.9339 28.0204L90.395 8.5672H90.3898Z" fill="white"/>
<path d="M94.0192 77.115C93.1979 77.115 92.3355 76.8944 91.545 76.4583C90.0461 75.6375 89.0811 74.2268 88.8244 72.4825L88.809 72.2825L88.4395 55.2815V55.225C88.5216 53.7578 89.1735 51.7007 91.8222 50.254C100.934 45.2676 104.583 37.5161 102.848 32.899C101.55 29.4465 97.3301 28.241 91.2781 29.585L89.3788 30.0057L88.7834 8.54668V8.48512C89.0041 4.09892 91.391 1.69806 93.665 1.262C104.84 -0.887491 114.316 -0.297535 121.836 3.01135C128.791 6.07399 133.616 11.3323 135.793 18.2271C141.234 35.4589 129.002 61.8428 95.6105 76.7918C95.128 77.0072 94.5839 77.115 94.0192 77.115ZM92.0121 72.108C92.1661 72.9801 92.6795 73.4265 93.0901 73.6522C93.6291 73.9497 94.1424 73.9395 94.3015 73.8677C112.771 65.598 122.411 54.7685 127.246 47.1401C133.319 37.5623 135.315 27.3791 132.734 19.1915C130.844 13.2048 126.63 8.62363 120.542 5.94574C113.731 2.94466 104.645 2.41626 94.2707 4.41185C93.5521 4.55037 92.161 5.60203 91.9967 8.58772L92.4793 26.1017C99.1832 25.1065 104.116 27.1636 105.851 31.7704C108.038 37.5879 104.409 47.0272 93.3622 53.0653C92.2637 53.6655 91.7195 54.3888 91.6477 55.343L92.0121 72.1029V72.108Z" fill="#154576"/>
<path d="M16.6002 172.062C15.2039 172.062 13.9976 172.565 13.0018 173.56C12.006 174.555 11.5029 175.761 11.5029 177.156C11.5029 178.552 12.006 179.757 13.0018 180.752C13.9976 181.748 15.2039 182.25 16.6002 182.25C17.9964 182.25 19.2027 181.748 20.1985 180.752C21.1943 179.757 21.6974 178.546 21.6974 177.156C21.6974 175.766 21.1943 174.555 20.1985 173.56C19.2027 172.565 17.9912 172.062 16.6002 172.062Z" fill="#00457A"/>
<path d="M28.273 172.062C26.8768 172.062 25.6705 172.565 24.6747 173.56C23.6788 174.555 23.1758 175.761 23.1758 177.156C23.1758 178.552 23.6788 179.757 24.6747 180.752C25.6705 181.748 26.8768 182.25 28.273 182.25C29.6692 182.25 30.8755 181.748 31.8714 180.752C32.8672 179.757 33.3702 178.546 33.3702 177.156C33.3702 175.766 32.8672 174.555 31.8714 173.56C30.8755 172.565 29.6641 172.062 28.273 172.062Z" fill="#00457A"/>
<path d="M99.6295 162.715C98.2332 162.715 97.0269 163.218 96.0311 164.213C95.0353 165.208 94.5322 166.414 94.5322 167.809C94.5322 169.205 95.0353 170.41 96.0311 171.405C97.0269 172.401 98.2332 172.903 99.6295 172.903C101.026 172.903 102.232 172.401 103.228 171.405C104.224 170.41 104.727 169.199 104.727 167.809C104.727 166.419 104.224 165.208 103.228 164.213C102.232 163.218 101.021 162.715 99.6295 162.715Z" fill="#00457A"/>
<path d="M111.302 162.715C109.906 162.715 108.7 163.218 107.704 164.213C106.708 165.208 106.205 166.414 106.205 167.809C106.205 169.205 106.708 170.41 107.704 171.405C108.7 172.401 109.906 172.903 111.302 172.903C112.699 172.903 113.905 172.401 114.901 171.405C115.896 170.41 116.4 169.199 116.4 167.809C116.4 166.419 115.896 165.208 114.901 164.213C113.905 163.218 112.693 162.715 111.302 162.715Z" fill="#00457A"/>
<path d="M113.792 144.334C113.792 149.916 109.249 154.456 103.664 154.456C98.0793 154.456 93.6083 149.982 93.5416 144.457V142.713V115.365H83.4139V144.329C83.4139 144.385 83.4139 144.442 83.4139 144.498V145.75C83.4139 150.547 79.5075 154.451 74.708 154.451C69.9085 154.451 66.0022 150.547 66.0022 145.75V144.211C66.0022 135.982 59.3034 129.288 51.0698 129.288C42.8362 129.288 36.1375 135.982 36.1375 144.211V155.435C36.1375 160.56 31.9642 164.731 26.8413 164.731H19.4239C14.2959 164.731 10.1277 160.56 10.1277 155.435V139.748H0V155.435C0 163.284 4.69684 170.046 11.4213 173.103C11.5855 172.893 11.7652 172.688 11.9603 172.493C13.223 171.231 14.8297 170.559 16.6058 170.559C18.3819 170.559 19.9885 171.226 21.2513 172.493C21.7389 172.98 22.1393 173.524 22.4422 174.104C22.7502 173.524 23.1454 172.98 23.6331 172.493C24.8958 171.231 26.5025 170.559 28.2786 170.559C30.0547 170.559 31.6613 171.226 32.9241 172.493C33.2526 172.821 33.5401 173.175 33.7865 173.55C41.0756 170.749 46.2703 163.7 46.2703 155.441V144.216C46.2703 141.569 48.4262 139.414 51.075 139.414C53.7237 139.414 55.8796 141.569 55.8796 144.216V145.755C55.8796 156.133 64.3288 164.577 74.7132 164.577C80.3545 164.577 85.4261 162.084 88.8807 158.144C90.6927 160.078 92.8743 161.658 95.3177 162.771C96.5342 161.679 98.028 161.099 99.6757 161.099C101.452 161.099 103.058 161.766 104.321 163.028C104.768 163.474 105.132 163.972 105.425 164.495C105.486 164.49 105.548 164.485 105.61 164.48C105.902 163.957 106.262 163.469 106.703 163.023C107.966 161.761 109.572 161.089 111.349 161.089C112.319 161.089 113.238 161.294 114.079 161.684C119.972 158.139 123.925 151.685 123.925 144.329V131.104H113.797V144.329L113.792 144.334Z" fill="#00457A"/>
<path d="M148.23 131.134H132.753V141.256H148.23C151.813 141.256 154.723 144.216 154.723 147.858C154.723 151.501 151.808 154.461 148.23 154.461H130.7V164.582H148.23C157.393 164.582 164.851 157.082 164.851 147.864C164.851 138.645 157.398 131.145 148.23 131.145V131.134Z" fill="#00457A"/>
<path d="M156.3 183.302C156.08 183.302 155.89 183.379 155.725 183.543C155.566 183.702 155.489 183.892 155.489 184.112C155.489 184.333 155.566 184.528 155.725 184.687C155.885 184.846 156.074 184.923 156.3 184.923C156.526 184.923 156.711 184.841 156.875 184.687C157.034 184.528 157.111 184.338 157.111 184.112C157.111 183.887 157.029 183.702 156.875 183.543C156.716 183.384 156.526 183.302 156.3 183.302Z" fill="#EF482B"/>
<path d="M154.39 183.302C154.169 183.302 153.979 183.379 153.815 183.543C153.656 183.702 153.579 183.892 153.579 184.112C153.579 184.333 153.656 184.528 153.815 184.687C153.974 184.846 154.164 184.923 154.39 184.923C154.616 184.923 154.801 184.841 154.965 184.687C155.124 184.528 155.201 184.338 155.201 184.112C155.201 183.887 155.119 183.702 154.965 183.543C154.806 183.384 154.616 183.302 154.39 183.302Z" fill="#EF482B"/>
<path d="M122.636 183.302C122.416 183.302 122.226 183.379 122.061 183.543C121.902 183.702 121.825 183.892 121.825 184.112C121.825 184.333 121.902 184.528 122.061 184.687C122.22 184.846 122.41 184.923 122.636 184.923C122.862 184.923 123.047 184.841 123.211 184.687C123.37 184.528 123.447 184.338 123.447 184.112C123.447 183.887 123.365 183.702 123.211 183.543C123.052 183.384 122.862 183.302 122.636 183.302Z" fill="#EF482B"/>
<path d="M138.95 183.302C138.729 183.302 138.539 183.379 138.375 183.543C138.216 183.702 138.139 183.892 138.139 184.112C138.139 184.333 138.216 184.528 138.375 184.687C138.534 184.846 138.724 184.923 138.95 184.923C139.176 184.923 139.36 184.841 139.525 184.687C139.684 184.528 139.761 184.338 139.761 184.112C139.761 183.887 139.679 183.702 139.525 183.543C139.366 183.384 139.176 183.302 138.95 183.302Z" fill="#EF482B"/>
<path d="M120.732 183.302C120.511 183.302 120.321 183.379 120.157 183.543C119.998 183.702 119.921 183.892 119.921 184.112C119.921 184.333 119.998 184.528 120.157 184.687C120.316 184.846 120.506 184.923 120.732 184.923C120.958 184.923 121.143 184.841 121.307 184.687C121.466 184.528 121.543 184.338 121.543 184.112C121.543 183.887 121.461 183.702 121.307 183.543C121.148 183.384 120.958 183.302 120.732 183.302Z" fill="#EF482B"/>
<path d="M50.7515 183.302C50.5307 183.302 50.3408 183.379 50.1766 183.543C50.0174 183.702 49.9404 183.892 49.9404 184.112C49.9404 184.333 50.0174 184.528 50.1766 184.687C50.3357 184.846 50.5256 184.923 50.7515 184.923C50.9773 184.923 51.1621 184.841 51.3264 184.687C51.4855 184.528 51.5625 184.338 51.5625 184.112C51.5625 183.887 51.4804 183.702 51.3264 183.543C51.1673 183.384 50.9773 183.302 50.7515 183.302Z" fill="#EF482B"/>
<path d="M67.0698 183.302C66.8491 183.302 66.6592 183.379 66.4949 183.543C66.3358 183.702 66.2588 183.892 66.2588 184.112C66.2588 184.333 66.3358 184.528 66.4949 184.687C66.654 184.846 66.844 184.923 67.0698 184.923C67.2957 184.923 67.4805 184.841 67.6447 184.687C67.8039 184.528 67.8809 184.338 67.8809 184.112C67.8809 183.887 67.7987 183.702 67.6447 183.543C67.4856 183.384 67.2957 183.302 67.0698 183.302Z" fill="#EF482B"/>
<path d="M87.3413 172.601C87.1206 172.601 86.9307 172.678 86.7664 172.842C86.6073 173.001 86.5303 173.191 86.5303 173.411C86.5303 173.632 86.6073 173.827 86.7664 173.986C86.9255 174.145 87.1154 174.222 87.3413 174.222C87.5672 174.222 87.752 174.14 87.9162 173.986C88.0754 173.827 88.1523 173.637 88.1523 173.411C88.1523 173.185 88.0702 173.001 87.9162 172.842C87.7571 172.683 87.5672 172.601 87.3413 172.601Z" fill="#EF482B"/>
<path d="M48.8472 183.302C48.6264 183.302 48.4365 183.379 48.2723 183.543C48.1131 183.702 48.0361 183.892 48.0361 184.112C48.0361 184.333 48.1131 184.528 48.2723 184.687C48.4314 184.846 48.6213 184.923 48.8472 184.923C49.073 184.923 49.2578 184.841 49.4221 184.687C49.5812 184.528 49.6582 184.338 49.6582 184.112C49.6582 183.887 49.5761 183.702 49.4221 183.543C49.263 183.384 49.073 183.302 48.8472 183.302Z" fill="#EF482B"/>
<path d="M81.7866 172.601C81.5659 172.601 81.376 172.678 81.2117 172.842C81.0526 173.001 80.9756 173.191 80.9756 173.411C80.9756 173.632 81.0526 173.827 81.2117 173.986C81.3708 174.145 81.5608 174.222 81.7866 174.222C82.0125 174.222 82.1973 174.14 82.3615 173.986C82.5207 173.827 82.5977 173.637 82.5977 173.411C82.5977 173.185 82.5155 173.001 82.3615 172.842C82.2024 172.683 82.0125 172.601 81.7866 172.601Z" fill="#EF482B"/>
<path d="M79.8774 172.601C79.6567 172.601 79.4668 172.678 79.3025 172.842C79.1434 173.001 79.0664 173.191 79.0664 173.411C79.0664 173.632 79.1434 173.827 79.3025 173.986C79.4617 174.145 79.6516 174.222 79.8774 174.222C80.1033 174.222 80.2881 174.14 80.4524 173.986C80.6115 173.827 80.6885 173.637 80.6885 173.411C80.6885 173.185 80.6064 173.001 80.4524 172.842C80.2932 172.683 80.1033 172.601 79.8774 172.601Z" fill="#EF482B"/>
<path d="M50.3977 181.866C51.029 181.866 51.4808 181.712 51.7477 181.404C52.0197 181.096 52.1532 180.614 52.1532 179.957V175.735C52.1532 175.633 52.1019 175.581 52.0043 175.581H50.6081C50.5055 175.581 50.4593 175.633 50.4593 175.73V179.547C50.4593 179.849 50.4028 180.06 50.2847 180.173C50.1667 180.291 49.9819 180.347 49.7304 180.347H48.7448C48.7448 180.347 48.7448 180.347 48.7397 180.347C48.7345 180.347 48.7397 180.347 48.7294 180.347H48.4727C48.0877 180.347 47.7849 180.265 47.5642 180.106C47.3434 179.947 47.2305 179.721 47.2305 179.429V178.008C47.2305 177.054 46.9841 176.361 46.4862 175.94C45.9883 175.52 45.321 175.304 44.474 175.304H42.1692C42.0665 175.304 42.0204 175.355 42.0204 175.458V176.669C42.0204 176.771 42.0717 176.823 42.1692 176.823H43.9864C44.4997 176.823 44.8898 176.93 45.1464 177.141C45.4031 177.351 45.5314 177.69 45.5314 178.151V179.162C45.5314 179.383 45.5212 179.567 45.4955 179.721C45.4698 179.87 45.4134 179.993 45.3312 180.091C45.244 180.188 45.1208 180.255 44.9616 180.296C44.8025 180.337 44.5818 180.357 44.3097 180.357H41.4916C41.389 180.357 41.3428 180.409 41.3428 180.511V181.722C41.3428 181.825 41.3941 181.876 41.4916 181.876H44.8847C45.398 181.876 45.8189 181.819 46.1423 181.701C46.4657 181.583 46.7275 181.353 46.9174 181.004C47.0868 181.363 47.328 181.594 47.636 181.707C47.944 181.819 48.3085 181.876 48.7345 181.876C48.7345 181.876 48.7345 181.876 48.7397 181.876C48.7397 181.876 48.7397 181.876 48.7499 181.876H50.4028L50.3977 181.866Z" fill="#EF482B"/>
<path d="M67.7121 176.453C67.4401 176.104 67.0756 175.827 66.6239 175.622C66.1722 175.417 65.6024 175.309 64.9248 175.309C64.2986 175.309 63.7699 175.427 63.3335 175.658C62.8972 175.889 62.5276 176.181 62.2145 176.535C62.1529 176.597 62.1632 176.669 62.2453 176.746L63.0307 177.561C63.1025 177.623 63.1744 177.618 63.2411 177.546C63.4516 177.325 63.698 177.146 63.9701 177.018C64.2421 176.889 64.545 176.823 64.8786 176.823C65.2123 176.823 65.5049 176.879 65.7359 176.987C65.9669 177.095 66.1465 177.254 66.2902 177.454C66.434 177.654 66.5315 177.895 66.5931 178.172C66.6547 178.449 66.6855 178.746 66.6855 179.07C66.6855 179.311 66.6701 179.516 66.6393 179.68C66.6085 179.844 66.5469 179.978 66.4596 180.08C66.3672 180.183 66.244 180.25 66.0798 180.291C65.9207 180.332 65.7051 180.352 65.4433 180.352H61.4137C61.4137 180.352 61.4137 180.352 61.4035 180.352C61.4035 180.352 61.4035 180.352 61.3983 180.352H61.1417C60.7567 180.352 60.4538 180.27 60.2331 180.111C60.0124 179.952 59.8995 179.726 59.8995 179.434V178.013C59.8995 177.059 59.6531 176.366 59.1551 175.945C58.6572 175.525 57.9899 175.309 57.1429 175.309H54.8382C54.7355 175.309 54.6893 175.361 54.6893 175.463V176.674C54.6893 176.777 54.7406 176.828 54.8382 176.828H56.6553C57.1686 176.828 57.5587 176.936 57.8154 177.146C58.072 177.356 58.2004 177.695 58.2004 178.156V179.167C58.2004 179.388 58.1901 179.572 58.1644 179.726C58.1388 179.875 58.0823 179.998 58.0002 180.096C57.9129 180.193 57.7897 180.26 57.6306 180.301C57.4715 180.342 57.2507 180.362 56.9787 180.362H54.1606C54.0579 180.362 54.0117 180.414 54.0117 180.516V181.727C54.0117 181.83 54.0631 181.881 54.1606 181.881H57.5536C58.0669 181.881 58.4878 181.824 58.8112 181.707C59.1346 181.589 59.3964 181.358 59.5863 181.009C59.7557 181.368 59.997 181.599 60.305 181.712C60.613 181.824 60.9774 181.881 61.4035 181.881C61.4035 181.881 61.4035 181.881 61.4137 181.881C61.4137 181.881 61.4137 181.881 61.4189 181.881H66.1003C66.4956 181.881 66.8395 181.84 67.1372 181.758C67.4349 181.676 67.6813 181.532 67.8815 181.327C68.0766 181.122 68.2254 180.84 68.3281 180.486C68.4308 180.132 68.4821 179.685 68.4821 179.136C68.4821 178.623 68.4256 178.136 68.3076 177.674C68.1895 177.213 67.9996 176.812 67.7224 176.464L67.7121 176.453Z" fill="#EF482B"/>
<path d="M83.0655 176.069C82.7883 175.807 82.4546 175.617 82.0748 175.494C81.6898 175.371 81.2791 175.314 80.8326 175.314C80.4168 175.314 80.0266 175.376 79.6519 175.494C79.2772 175.617 78.9487 175.812 78.6664 176.079C78.384 176.346 78.1582 176.694 77.9939 177.125C77.8297 177.556 77.7424 178.074 77.7424 178.69C77.7424 179.839 78.0042 180.66 78.5278 181.142C79.0513 181.624 79.7854 181.871 80.7248 181.871H82.2698V182.553C82.2698 182.804 82.1569 183.01 81.9362 183.158C81.7155 183.307 81.2997 183.384 80.694 183.384H77.4344C77.1418 183.384 76.8544 183.353 76.572 183.287C76.2897 183.22 76.0382 183.112 75.8123 182.963C75.5865 182.815 75.4119 182.609 75.2733 182.358C75.1347 182.107 75.068 181.789 75.068 181.404C75.068 181.019 75.1399 180.629 75.2887 180.255C75.4376 179.88 75.5916 179.552 75.7661 179.27C75.8175 179.188 75.8021 179.121 75.7199 179.075L74.5239 178.454C74.4315 178.392 74.3648 178.403 74.3134 178.485C74.18 178.664 74.0568 178.875 73.9439 179.111C73.8258 179.347 73.7231 179.598 73.6359 179.87C73.5435 180.137 73.4716 180.414 73.4151 180.701C73.3587 180.988 73.333 181.276 73.333 181.558C73.333 182.599 73.6513 183.42 74.2929 184.025C74.9346 184.631 75.9099 184.933 77.2239 184.933H80.9044C81.4485 184.933 81.9157 184.877 82.2955 184.759C82.6805 184.641 82.9936 184.487 83.2349 184.287C83.4761 184.087 83.6558 183.856 83.7739 183.584C83.8919 183.312 83.9484 183.02 83.9484 182.707V178.68C83.9484 178.064 83.8714 177.541 83.7123 177.115C83.5531 176.684 83.3375 176.34 83.0603 176.079L83.0655 176.069ZM82.2544 180.352H80.9044C80.427 180.352 80.0626 180.224 79.8008 179.978C79.539 179.726 79.4055 179.285 79.4055 178.649C79.4055 178.074 79.5339 177.628 79.7854 177.305C80.0369 176.982 80.3911 176.823 80.848 176.823C81.3048 176.823 81.6744 176.977 81.9105 177.284C82.1415 177.592 82.2596 178.039 82.2596 178.634V180.352H82.2544Z" fill="#EF482B"/>
<path d="M88.1362 175.581H86.74C86.6425 175.581 86.5912 175.633 86.5912 175.735V182.122C86.5912 182.558 86.4988 182.881 86.3088 183.092C86.124 183.302 85.8161 183.41 85.39 183.41H85.0563C84.9537 183.41 84.9023 183.461 84.9023 183.558V184.769C84.9023 184.872 84.9537 184.923 85.0563 184.923H85.6159C87.3919 184.923 88.28 184 88.28 182.153V175.735C88.28 175.633 88.2286 175.581 88.1311 175.581H88.1362Z" fill="#EF482B"/>
<path d="M92.4692 175.581H91.073C90.9755 175.581 90.9242 175.633 90.9242 175.735V182.122C90.9242 182.558 90.8318 182.881 90.6418 183.092C90.457 183.302 90.1491 183.41 89.723 183.41H89.3893C89.2867 183.41 89.2354 183.461 89.2354 183.558V184.769C89.2354 184.872 89.2867 184.923 89.3893 184.923H89.9489C91.7249 184.923 92.613 184 92.613 182.153V175.735C92.613 175.633 92.5616 175.581 92.4641 175.581H92.4692Z" fill="#EF482B"/>
<path d="M99.7991 180.019H98.2797C98.1975 180.019 98.1309 180.085 98.1309 180.168V181.717C98.1309 181.799 98.1975 181.866 98.2797 181.866H99.7991C99.8814 181.866 99.948 181.799 99.948 181.717V180.168C99.948 180.085 99.8814 180.019 99.7991 180.019Z" fill="#EF482B"/>
<path d="M103.33 180.019H101.811C101.729 180.019 101.662 180.085 101.662 180.168V181.717C101.662 181.799 101.729 181.866 101.811 181.866H103.33C103.413 181.866 103.479 181.799 103.479 181.717V180.168C103.479 180.085 103.413 180.019 103.33 180.019Z" fill="#EF482B"/>
<path d="M107.15 180.019H105.63C105.548 180.019 105.481 180.085 105.481 180.168V181.717C105.481 181.799 105.548 181.866 105.63 181.866H107.15C107.232 181.866 107.299 181.799 107.299 181.717V180.168C107.299 180.085 107.232 180.019 107.15 180.019Z" fill="#EF482B"/>
<path d="M121.693 181.866C122.324 181.866 122.776 181.712 123.043 181.404C123.315 181.096 123.448 180.614 123.448 179.957V175.735C123.448 175.633 123.397 175.581 123.299 175.581H121.903C121.8 175.581 121.754 175.633 121.754 175.73V179.547C121.754 179.849 121.698 180.06 121.58 180.173C121.462 180.291 121.277 180.347 121.025 180.347H120.04C120.04 180.347 120.04 180.347 120.035 180.347C120.029 180.347 120.035 180.347 120.024 180.347H119.768C119.383 180.347 119.08 180.265 118.859 180.106C118.638 179.947 118.525 179.721 118.525 179.429V178.008C118.525 177.054 118.279 176.361 117.781 175.94C117.283 175.52 116.616 175.304 115.769 175.304H113.464C113.361 175.304 113.315 175.355 113.315 175.458V176.669C113.315 176.771 113.367 176.823 113.464 176.823H115.281C115.795 176.823 116.185 176.93 116.441 177.141C116.698 177.351 116.826 177.69 116.826 178.151V179.162C116.826 179.383 116.816 179.567 116.79 179.721C116.765 179.87 116.708 179.993 116.626 180.091C116.539 180.188 116.416 180.255 116.257 180.296C116.097 180.337 115.877 180.357 115.605 180.357H112.787C112.684 180.357 112.638 180.409 112.638 180.511V181.722C112.638 181.825 112.689 181.876 112.787 181.876H116.18C116.693 181.876 117.114 181.819 117.437 181.701C117.761 181.583 118.022 181.353 118.212 181.004C118.382 181.363 118.623 181.594 118.931 181.707C119.239 181.819 119.603 181.876 120.029 181.876C120.029 181.876 120.029 181.876 120.035 181.876C120.035 181.876 120.035 181.876 120.045 181.876H121.698L121.693 181.866Z" fill="#EF482B"/>
<path d="M139.006 176.453C138.734 176.104 138.37 175.827 137.918 175.622C137.466 175.417 136.896 175.309 136.219 175.309C135.593 175.309 135.064 175.427 134.627 175.658C134.191 175.889 133.822 176.181 133.508 176.535C133.447 176.597 133.457 176.669 133.539 176.746L134.325 177.561C134.396 177.623 134.468 177.618 134.535 177.546C134.746 177.325 134.992 177.146 135.264 177.018C135.536 176.889 135.839 176.823 136.173 176.823C136.506 176.823 136.799 176.879 137.03 176.987C137.261 177.095 137.44 177.254 137.584 177.454C137.728 177.654 137.825 177.895 137.887 178.172C137.949 178.449 137.979 178.746 137.979 179.07C137.979 179.311 137.964 179.516 137.933 179.68C137.902 179.844 137.841 179.978 137.754 180.08C137.661 180.183 137.538 180.25 137.374 180.291C137.215 180.332 136.999 180.352 136.737 180.352H132.708C132.708 180.352 132.708 180.352 132.697 180.352C132.697 180.352 132.697 180.352 132.692 180.352H132.436C132.051 180.352 131.748 180.27 131.527 180.111C131.306 179.952 131.193 179.726 131.193 179.434V178.013C131.193 177.059 130.947 176.366 130.449 175.945C129.951 175.525 129.284 175.309 128.437 175.309H126.132C126.029 175.309 125.983 175.361 125.983 175.463V176.674C125.983 176.777 126.035 176.828 126.132 176.828H127.949C128.463 176.828 128.853 176.936 129.109 177.146C129.366 177.356 129.494 177.695 129.494 178.156V179.167C129.494 179.388 129.484 179.572 129.458 179.726C129.433 179.875 129.376 179.998 129.294 180.096C129.207 180.193 129.084 180.26 128.925 180.301C128.765 180.342 128.545 180.362 128.273 180.362H125.455C125.352 180.362 125.306 180.414 125.306 180.516V181.727C125.306 181.83 125.357 181.881 125.455 181.881H128.848C129.361 181.881 129.782 181.824 130.105 181.707C130.429 181.589 130.69 181.358 130.88 181.009C131.05 181.368 131.291 181.599 131.599 181.712C131.907 181.824 132.271 181.881 132.697 181.881C132.697 181.881 132.697 181.881 132.708 181.881C132.708 181.881 132.708 181.881 132.713 181.881H137.394C137.79 181.881 138.133 181.84 138.431 181.758C138.729 181.676 138.975 181.532 139.175 181.327C139.371 181.122 139.519 180.84 139.622 180.486C139.725 180.132 139.776 179.685 139.776 179.136C139.776 178.623 139.72 178.136 139.602 177.674C139.483 177.213 139.294 176.812 139.016 176.464L139.006 176.453Z" fill="#EF482B"/>
<path d="M155.35 181.866C155.982 181.866 156.433 181.712 156.7 181.404C156.972 181.096 157.106 180.614 157.106 179.957V175.735C157.106 175.633 157.054 175.581 156.957 175.581H155.561C155.458 175.581 155.412 175.633 155.412 175.73V179.547C155.412 179.849 155.355 180.06 155.237 180.173C155.119 180.291 154.934 180.347 154.683 180.347H153.697C153.697 180.347 153.697 180.347 153.692 180.347C153.687 180.347 153.692 180.347 153.682 180.347H153.441C153.056 180.347 152.753 180.265 152.522 180.106C152.296 179.947 152.183 179.711 152.183 179.413V171.718C152.183 171.616 152.132 171.57 152.034 171.57H150.638C150.535 171.57 150.489 171.621 150.489 171.718V181.501C150.489 182.189 150.315 182.686 149.96 182.994C149.606 183.302 149.139 183.456 148.554 183.456C148.323 183.456 148.087 183.425 147.84 183.358C147.599 183.292 147.378 183.179 147.183 183.02C146.988 182.856 146.824 182.645 146.701 182.379C146.578 182.112 146.511 181.778 146.511 181.388C146.511 180.932 146.583 180.516 146.732 180.142C146.88 179.762 147.034 179.434 147.194 179.152C147.214 179.111 147.219 179.075 147.214 179.039C147.209 179.003 147.183 178.977 147.132 178.957L145.905 178.475C145.792 178.423 145.72 178.434 145.679 178.505C145.428 178.9 145.217 179.367 145.043 179.911C144.873 180.455 144.786 180.999 144.786 181.547C144.786 182.132 144.879 182.64 145.063 183.076C145.248 183.512 145.51 183.871 145.844 184.159C146.177 184.446 146.567 184.661 147.014 184.8C147.461 184.938 147.953 185.01 148.487 185.01C149.021 185.01 149.545 184.938 150.001 184.8C150.453 184.656 150.843 184.446 151.172 184.154C151.5 183.861 151.752 183.502 151.926 183.071C152.101 182.635 152.193 182.132 152.193 181.553V181.383C152.373 181.599 152.589 181.732 152.835 181.789C153.081 181.845 153.369 181.871 153.692 181.871C153.692 181.871 153.692 181.871 153.697 181.871C153.697 181.871 153.697 181.871 153.708 181.871H155.36L155.35 181.866Z" fill="#EF482B"/>
<path d="M164.138 175.971C163.661 175.53 163.024 175.314 162.213 175.314H159.791C159.688 175.314 159.642 175.366 159.642 175.468V176.679C159.642 176.782 159.693 176.833 159.791 176.833H161.608C162.639 176.833 163.153 177.274 163.153 178.162V179.172C163.153 179.393 163.142 179.578 163.117 179.731C163.091 179.88 163.035 180.003 162.947 180.101C162.86 180.198 162.737 180.265 162.578 180.306C162.414 180.347 162.198 180.368 161.926 180.368H159.108C159.005 180.368 158.959 180.419 158.959 180.521V181.732C158.959 181.835 159.01 181.886 159.108 181.886H162.624C163.009 181.886 163.338 181.845 163.62 181.763C163.902 181.681 164.128 181.542 164.308 181.337C164.487 181.137 164.621 180.87 164.713 180.542C164.806 180.214 164.847 179.798 164.847 179.295V178.039C164.847 177.11 164.611 176.428 164.133 175.986L164.138 175.971Z" fill="#EF482B"/>
</g>
<defs>
<clipPath id="clip0_506_1887">
<rect width="164.851" height="185" fill="white"/>
</clipPath>
</defs>
</svg>
