<svg width="25" height="28" viewBox="0 0 25 28" fill="none" xmlns="http://www.w3.org/2000/svg">
<path d="M17.5366 11.6512V8.7298C17.5366 6.11878 15.4178 4 12.8068 4C10.1957 4 8.06625 6.11878 8.06625 8.7298V11.6512C6.2364 12.3146 4.90948 14.0482 4.90948 16.1027V19.2595C4.90948 21.8705 7.02826 24 9.64999 24H15.9635C18.5745 24 20.704 21.8705 20.704 19.2595V16.1027C20.6933 14.0482 19.3664 12.3146 17.5366 11.6512ZM9.11494 8.7298C9.11494 6.69663 10.7629 5.04869 12.7961 5.04869C14.8292 5.04869 16.4772 6.69663 16.4772 8.7298V11.4157C16.306 11.3943 16.1347 11.3622 15.9528 11.3622H9.63929C9.45737 11.3622 9.28616 11.3943 9.11494 11.4157V8.7298ZM19.6446 19.2595C19.6446 21.2927 17.9967 22.9406 15.9635 22.9406H9.64999C7.61682 22.9406 5.96888 21.2927 5.96888 19.2595V16.1027C5.96888 14.0696 7.61682 12.4216 9.64999 12.4216H15.9635C17.9967 12.4216 19.6446 14.0696 19.6446 16.1027V19.2595ZM13.3311 17.1514V19.2595C13.3311 19.5484 13.0957 19.7838 12.8068 19.7838C12.5178 19.7838 12.2824 19.5484 12.2824 19.2595V17.1514C12.2824 16.8625 12.5178 16.6271 12.8068 16.6271C13.0957 16.6271 13.3311 16.8625 13.3311 17.1514Z" fill="#3A3A3A"/>
</svg>
