<svg fill="none" height="16" viewBox="0 0 17 16" width="17" xmlns="http://www.w3.org/2000/svg">
    <g fill="#000">
        <path
            d="m15.7206 6.11469-2.586-2.586c-.2648-.25579-.6868-.24844-.9426.0164-.2495.25835-.2495.66794 0 .92628l2.586 2.586c.0768.07835.144.16566.2.26-.01 0-.018-.00534-.028-.00534l-10.45601.02134c-.36819 0-.66666.29847-.66666.66666s.29847.66666.66666.66666l10.45201-.02135c.0186 0 .034-.00934.052-.01065-.0591.11278-.1341.2165-.2227.308l-2.586 2.58601c-.2648.2558-.2722.6778-.0164.9426.2558.2649.6778.2722.9427.0164.0055-.0053.011-.0108.0164-.0164l2.586-2.58596c1.041-1.04134 1.041-2.72934 0-3.77065z" />
        <path
            d="m5.16794 14.6667h-1.33335c-1.10456 0-2-.8955-2-2v-9.33336c0-1.10456.89544-2 2-2h1.33335c.36819 0 .66665-.29847.66665-.666653 0-.368187-.29843-.666687-.66665-.666687h-1.33335c-1.84.00221875-3.33109 1.49331-3.333308 3.33334v9.33336c.002218 1.84 1.493308 3.3311 3.333348 3.3333h1.33334c.36819 0 .66666-.2985.66666-.6667 0-.3681-.29847-.6666-.66669-.6666z" />
    </g>
</svg>