<svg width="23" height="28" viewBox="0 0 23 28" fill="none" xmlns="http://www.w3.org/2000/svg">
<path d="M11.8261 23.4754C11.8261 23.7645 11.5906 24 11.3015 24H7.09381C4.48139 24 2.35077 21.8801 2.35077 19.2677V8.74304C2.35077 6.13062 4.48139 4 7.09381 4H11.3015C11.5906 4 11.8261 4.23555 11.8261 4.52463C11.8261 4.8137 11.5906 5.04925 11.3015 5.04925H7.09381C5.05955 5.04925 3.41073 6.69807 3.41073 8.73233V19.257C3.41073 21.2912 5.05955 22.94 7.09381 22.94H11.3015C11.5906 22.9508 11.8261 23.1863 11.8261 23.4754ZM20.0917 13.6253L15.884 9.41756C15.6805 9.21413 15.3486 9.21413 15.1345 9.41756C14.9311 9.62099 14.9311 9.95289 15.1345 10.167L18.4428 13.4754H9.19231C8.90323 13.4754 8.66769 13.7109 8.66769 14C8.66769 14.2891 8.90323 14.5246 9.19231 14.5246H18.4536L15.1452 17.833C14.9418 18.0364 14.9418 18.3683 15.1452 18.5824C15.2523 18.6895 15.3807 18.7323 15.5199 18.7323C15.6591 18.7323 15.7876 18.6788 15.8947 18.5824L20.1024 14.3747C20.2951 14.1713 20.2951 13.8394 20.0917 13.6253Z" fill="#3A3A3A"/>
</svg>
