<?xml version="1.0" encoding="UTF-8"?>
<svg xmlns="http://www.w3.org/2000/svg" xmlns:xlink="http://www.w3.org/1999/xlink" width="20px" height="12px" viewBox="0 0 30 30" version="1.1">
<g id="surface1">
<path style=" stroke:none;fill-rule:nonzero;fill:rgb(100%,100%,100%);fill-opacity:1;" d="M 0.882812 2.363281 C 0.882812 1.867188 1.214844 1.464844 1.621094 1.464844 L 20.941406 1.464844 C 21.347656 1.464844 21.679688 1.867188 21.679688 2.363281 C 21.679688 2.859375 21.347656 3.261719 20.941406 3.261719 L 1.621094 3.261719 C 1.214844 3.261719 0.882812 2.859375 0.882812 2.363281 Z M 28.378906 14.089844 L 1.621094 14.089844 C 1.214844 14.089844 0.882812 14.496094 0.882812 14.992188 C 0.882812 15.488281 1.214844 15.890625 1.621094 15.890625 L 28.378906 15.890625 C 28.785156 15.890625 29.117188 15.488281 29.117188 14.992188 C 29.117188 14.496094 28.785156 14.089844 28.378906 14.089844 Z M 15 26.738281 L 1.621094 26.738281 C 1.214844 26.738281 0.882812 27.140625 0.882812 27.636719 C 0.882812 28.132812 1.214844 28.535156 1.621094 28.535156 L 15 28.535156 C 15.40625 28.535156 15.742188 28.132812 15.742188 27.636719 C 15.742188 27.140625 15.40625 26.738281 15 26.738281 Z M 15 26.738281 "/>
</g>
</svg>
