<svg width="27" height="22" viewBox="0 0 27 22" fill="none" xmlns="http://www.w3.org/2000/svg">
<path d="M1.8356 0.875C1.40047 0.875 1.0462 1.22927 1.0462 1.66441C1.0462 2.09954 1.40047 2.45381 1.8356 2.45381H19.1644C19.5996 2.45381 19.9538 2.09954 19.9538 1.66441C19.9538 1.22927 19.5996 0.875 19.1644 0.875H1.8356ZM25.8356 10.2038H1.8356C1.40047 10.2038 1.0462 10.5581 1.0462 10.9932C1.0462 11.4284 1.40047 11.7826 1.8356 11.7826H25.8356C26.2707 11.7826 26.625 11.4284 26.625 10.9932C26.625 10.5581 26.2707 10.2038 25.8356 10.2038ZM13.8356 19.5462H1.8356C1.40047 19.5462 1.0462 19.9005 1.0462 20.3356C1.0462 20.7707 1.40047 21.125 1.8356 21.125H13.8356C14.2707 21.125 14.625 20.7707 14.625 20.3356C14.625 19.9005 14.2707 19.5462 13.8356 19.5462Z" fill="white" stroke="white" stroke-width="0.25"/>
</svg>
