<svg fill="none" height="14" viewBox="0 0 17 14" width="17" xmlns="http://www.w3.org/2000/svg"><path d="m.5 1.10281c0-.231268.188437-.419705.4197-.419705h10.9465c.2312 0 .4197.188437.4197.419705 0 .23126-.1885.4197-.4197.4197h-10.9465c-.231263 0-.4197-.18844-.4197-.4197zm15.5803 5.47323h-15.1606c-.231263 0-.4197.18844-.4197.4197s.188437.4197.4197.4197h15.1606c.2313 0 .4197-.18844.4197-.4197s-.1884-.4197-.4197-.4197zm-7.5803 5.90146h-7.5803c-.231263 0-.4197.1885-.4197.4197 0 .2313.188437.4197.4197.4197h7.5803c.23126 0 .4197-.1884.4197-.4197 0-.2312-.18844-.4197-.4197-.4197z" fill="#fff"/></svg>