<svg fill="none" height="17" viewBox="0 0 17 17" width="17" xmlns="http://www.w3.org/2000/svg" xmlns:xlink="http://www.w3.org/1999/xlink"><clipPath id="a"><path d="m.564026.965332h16v16h-16z"/></clipPath><g clip-path="url(#a)" fill="#3a3a3a"><path d="m5.23067 16.9653c.73638 0 1.33334-.597 1.33334-1.3334s-.59696-1.3333-1.33334-1.3333-1.33333.5969-1.33333 1.3333.59695 1.3334 1.33333 1.3334z"/><path d="m11.8974 16.9653c.7363 0 1.3333-.597 1.3333-1.3334s-.597-1.3333-1.3333-1.3333c-.7364 0-1.3334.5969-1.3334 1.3333s.597 1.3334 1.3334 1.3334z"/><g clip-rule="evenodd" fill-rule="evenodd"><path d="m15.5589 2.00347c.0859-.08579.2024-.13409.3238-.13409s.2379.04824.3237.13409c.0859.08588.1341.20233.1341.32374 0 .12144-.0482.23791-.1341.32379l-3.4927 3.49537c-.0971.09771-.213.17561-.3403.22832-.1272.05271-.2636.07962-.4014.07916h-.021c-.14-.00235-.2781-.03296-.406-.09001-.1283-.05726-.2437-.13995-.3392-.24308l-1.0787-1.12217c-.0841-.08757-.13009-.205-.12768-.32644.00118-.06014.01418-.11945.03828-.17455.0242-.0551.0589-.10491.1022-.14659.0434-.04168.0946-.07441.1506-.09632s.1158-.03258.1759-.03139.1194.01422.1745.03833c.0551.02409.1049.05879.1465.10211l1.1815 1.23322z"/><path d="m1.23068 1.17407c-.12147 0-.237952.04825-.323838.13414s-.134137.20237-.134137.32383c0 .12147.048251.23795.134137.32384.085886.08588.202368.13414.323838.13414h.148c.2144.00002.42137.07874.58159.22121.16022.14248.26258.3388.28767.55173l.91734 7.80004c.08927.7604.45462 1.4616 1.0267 1.9705.57208.5088 1.31107.7899 2.07669.7899h6.96203c.1214 0 .2379-.0483.3238-.1342s.1341-.2024.1341-.3238c0-.1215-.0482-.238-.1341-.3239-.0859-.0858-.2024-.1341-.3238-.1341h-6.96198c-.45681.0001-.90244-.1415-1.27544-.4052-.37302-.2637-.65509-.6366-.80736-1.0673l-.09838-.2782h8.24786c.7326 0 1.4419-.2573 2.004-.7272.5621-.46977.9413-1.12216 1.0712-1.84314l.0853-.47325c.0215-.11945-.0053-.24254-.0745-.34224-.0692-.09969-.1752-.16784-.2946-.18947-.0592-.01068-.1199-.0096-.1786.00318-.0588.01279-.1145.03703-.164.07136-.0494.03432-.0916.07804-.1241.12867s-.0547.10717-.0654.16639l-.0853.47272c-.0919.50969-.3599.97095-.7573 1.30307-.3974.33213-.8988.51404-1.4168.51395h-8.3449l-.67571-5.75072h4.58266c.12146 0 .23794-.04825.32383-.13414s.13414-.20237.13414-.32383c0-.12147-.04825-.23795-.13414-.32384s-.20237-.13414-.32383-.13414h-4.69061l-.04996-.41863c-.05145-.43553-.26092-.83729-.58865-1.1287-.32771-.2914-.75093-.45246-1.18945-.45267z"/></g></g></svg>