<svg width="21" height="20" viewBox="0 0 21 20" fill="none" xmlns="http://www.w3.org/2000/svg">
<g clip-path="url(#clip0_210_6107)">
<path d="M6.06315 20.0003C6.98363 20.0003 7.72982 19.2541 7.72982 18.3337C7.72982 17.4132 6.98363 16.667 6.06315 16.667C5.14268 16.667 4.39648 17.4132 4.39648 18.3337C4.39648 19.2541 5.14268 20.0003 6.06315 20.0003Z" fill="#3A3A3A"/>
<path d="M14.3971 20.0003C15.3176 20.0003 16.0638 19.2541 16.0638 18.3337C16.0638 17.4132 15.3176 16.667 14.3971 16.667C13.4767 16.667 12.7305 17.4132 12.7305 18.3337C12.7305 19.2541 13.4767 20.0003 14.3971 20.0003Z" fill="#3A3A3A"/>
<path fill-rule="evenodd" clip-rule="evenodd" d="M18.9748 1.29749C19.0822 1.19025 19.2278 1.12988 19.3796 1.12988C19.5314 1.12988 19.6769 1.19017 19.7843 1.29749C19.8916 1.40484 19.9518 1.5504 19.9518 1.70217C19.9518 1.85396 19.8916 1.99955 19.7842 2.1069L15.4184 6.47611C15.297 6.59825 15.1521 6.69562 14.993 6.76151C14.834 6.8274 14.6634 6.86103 14.4913 6.86047L14.465 6.86046C14.29 6.85753 14.1174 6.81926 13.9575 6.74795C13.7971 6.67638 13.6528 6.57302 13.5335 6.44411L12.1851 5.04139C12.0799 4.93193 12.0225 4.78514 12.0255 4.63333C12.027 4.55817 12.0433 4.48403 12.0734 4.41515C12.1036 4.34628 12.147 4.28401 12.2012 4.23191C12.2554 4.17981 12.3193 4.1389 12.3893 4.11151C12.4593 4.08412 12.5341 4.07079 12.6092 4.07228C12.6844 4.07377 12.7585 4.09005 12.8274 4.12019C12.8962 4.15031 12.9585 4.19368 13.0105 4.24783L14.4873 5.78935L18.9748 1.29749Z" fill="#3A3A3A"/>
<path fill-rule="evenodd" clip-rule="evenodd" d="M1.06465 0.260742C0.912825 0.260742 0.767216 0.321055 0.659858 0.428413C0.552501 0.535771 0.492188 0.681379 0.492188 0.833206C0.492188 0.985033 0.552501 1.13064 0.659858 1.238C0.767216 1.34536 0.912825 1.40567 1.06465 1.40567H1.24965C1.51766 1.40571 1.77637 1.5041 1.97664 1.68219C2.17692 1.86028 2.30487 2.10569 2.33623 2.37185L3.4829 12.1219C3.59449 13.0724 4.05118 13.9489 4.76628 14.585C5.48138 15.221 6.40511 15.5724 7.36215 15.5723H16.0647C16.2165 15.5723 16.3621 15.512 16.4694 15.4047C16.5768 15.2973 16.6371 15.1517 16.6371 14.9999C16.6371 14.8481 16.5768 14.7024 16.4694 14.5951C16.3621 14.4877 16.2165 14.4274 16.0647 14.4274H7.3622C6.7912 14.4275 6.23416 14.2506 5.7679 13.9209C5.30163 13.5913 4.94904 13.1252 4.7587 12.5868L4.63573 12.239H14.9455C15.8612 12.2391 16.7479 11.9174 17.4505 11.3301C18.1532 10.7428 18.6271 9.92732 18.7896 9.0261L18.8962 8.43454C18.9231 8.28522 18.8896 8.13136 18.8031 8.00674C18.7166 7.88212 18.5841 7.79694 18.4348 7.7699C18.3608 7.75655 18.285 7.7579 18.2115 7.77388C18.138 7.78986 18.0684 7.82017 18.0066 7.86307C17.9448 7.90597 17.8921 7.96063 17.8515 8.02392C17.8108 8.0872 17.7831 8.15788 17.7697 8.2319L17.6631 8.82281C17.5482 9.45991 17.2132 10.0365 16.7164 10.4516C16.2197 10.8668 15.5929 11.0942 14.9455 11.0941H4.51431L3.66967 3.90567H9.39799C9.54981 3.90567 9.69542 3.84536 9.80278 3.738C9.91014 3.63064 9.97045 3.48504 9.97045 3.33321C9.97045 3.18138 9.91014 3.03577 9.80278 2.92841C9.69542 2.82106 9.54981 2.76074 9.39799 2.76074H3.53473L3.47229 2.23745C3.40796 1.69304 3.14613 1.19084 2.73646 0.826574C2.32683 0.462329 1.79781 0.261003 1.24965 0.260742H1.06465Z" fill="#3A3A3A"/>
</g>
<defs>
<clipPath id="clip0_210_6107">
<rect width="20" height="20" fill="white" transform="translate(0.230469)"/>
</clipPath>
</defs>
</svg>
