<svg width="90" height="90" viewBox="0 0 90 90" fill="none" xmlns="http://www.w3.org/2000/svg">
<path fill-rule="evenodd" clip-rule="evenodd" d="M86.3759 77.3049L66.9849 57.9146C76.6608 43.9635 75.2847 24.6667 62.8553 12.2372C48.8774 -1.74135 26.2145 -1.74135 12.2366 12.2372C-1.7413 26.2151 -1.7413 48.8773 12.2366 62.8559C24.6667 75.2854 43.9629 76.6615 57.914 66.9849L77.3042 86.3758C79.7989 88.8698 83.8812 88.8698 86.3752 86.3758C88.8699 83.8811 88.8699 79.7989 86.3759 77.3049Z" fill="#FFDDA0"/>
<path fill-rule="evenodd" clip-rule="evenodd" d="M55.7412 19.3511C45.6917 9.3017 29.3991 9.3017 19.3503 19.3511C9.30087 29.3999 9.30087 45.6926 19.3503 55.742C29.3991 65.7907 45.6917 65.7907 55.7412 55.742C65.7899 45.6926 65.7899 29.3999 55.7412 19.3511Z" fill="#FF8F8E"/>
<path fill-rule="evenodd" clip-rule="evenodd" d="M43.7631 10.7712C42.8197 10.5535 41.8782 11.1406 41.6599 12.0841C41.4415 13.0276 42.03 13.9697 42.9735 14.188C47.3352 15.1961 51.322 17.4106 54.502 20.5906C63.851 29.9396 63.851 45.1528 54.502 54.5019C45.153 63.8516 29.9398 63.8516 20.5907 54.5019C11.241 45.1528 11.241 29.9396 20.5907 20.5906C23.2749 17.9064 26.4515 15.9487 30.0325 14.7703C30.9519 14.4682 31.4525 13.4773 31.1504 12.5572C30.8475 11.6371 29.856 11.1365 28.9365 11.4393C24.8289 12.79 21.1868 15.0347 18.1111 18.111C7.39426 28.8279 7.39426 46.2652 18.1111 56.9821C23.4692 62.3402 30.5076 65.0196 37.5467 65.0196C44.5851 65.0189 51.6235 62.3402 56.9823 56.9821C67.6985 46.2652 67.6985 28.8279 56.9823 18.111C53.3367 14.4661 48.7662 11.9275 43.7631 10.7712Z" fill="black"/>
<path fill-rule="evenodd" clip-rule="evenodd" d="M87.6152 76.0647L69.2399 57.6894C78.6624 42.9135 76.5989 23.5013 64.0953 10.997C57.0041 3.90579 47.5754 0 37.5465 0C27.517 0 18.0883 3.90579 10.997 10.997C3.9051 18.0883 0 27.517 0 37.5465C0 47.5754 3.9051 57.0041 10.997 64.0953C18.0883 71.1866 27.5163 75.0917 37.5451 75.0917C44.7428 75.0917 51.6762 73.0729 57.6894 69.2399L76.0647 87.6152C77.6021 89.1533 79.6532 90 81.8403 90C84.0266 90 86.0777 89.1533 87.6159 87.6152C90.7993 84.4304 90.7993 79.2495 87.6152 76.0647ZM85.1356 85.1356C84.2601 86.0104 83.09 86.4925 81.8403 86.4925C80.5899 86.4925 79.4198 86.0104 78.5443 85.1356L59.154 65.7454C58.8148 65.4055 58.3657 65.2318 57.9139 65.2318C57.5664 65.2318 57.2176 65.3341 56.9148 65.5442C51.2175 69.496 44.519 71.5848 37.5451 71.5848C28.4529 71.5848 19.9052 68.0444 13.4766 61.6157C0.204628 48.3437 0.204628 26.7486 13.4766 13.4766C19.9059 7.04731 28.4536 3.50683 37.5465 3.50683C46.6387 3.50683 55.1864 7.04731 61.6157 13.4766C73.2672 25.1288 74.92 43.397 65.5442 56.9148C65.0608 57.6118 65.1452 58.5539 65.7454 59.154L85.1356 78.5443C86.9526 80.3612 86.9526 83.318 85.1356 85.1356Z" fill="black"/>
<path fill-rule="evenodd" clip-rule="evenodd" d="M48.1317 26.9608C47.4471 26.2762 46.3375 26.2762 45.6522 26.9608L37.5467 35.0663L29.4405 26.9608C28.7559 26.2762 27.6456 26.2762 26.961 26.9608C26.2764 27.6454 26.2764 28.7558 26.961 29.4404L35.0664 37.5465L26.961 45.652C26.2764 46.3366 26.2764 47.447 26.961 48.1316C27.3029 48.4742 27.752 48.6452 28.2004 48.6452C28.6495 48.6452 29.0979 48.4742 29.4405 48.1316L37.546 40.0261L45.6515 48.1316C45.9941 48.4742 46.4432 48.6452 46.8916 48.6452C47.3407 48.6452 47.7891 48.4742 48.1317 48.1316C48.8164 47.447 48.8164 46.3366 48.1317 45.652L40.0256 37.5465L48.1317 29.4404C48.8164 28.7558 48.8164 27.6454 48.1317 26.9608Z" fill="black"/>
<path fill-rule="evenodd" clip-rule="evenodd" d="M36.3841 13.5934C37.3496 13.5934 38.1372 12.8058 38.1372 11.8396C38.1372 10.8742 37.3496 10.0865 36.3841 10.0865C35.418 10.0865 34.6304 10.8742 34.6304 11.8396C34.6304 12.8058 35.418 13.5934 36.3841 13.5934Z" fill="black"/>
</svg>
