<svg fill="none" height="45" viewBox="0 0 42 45" width="42" xmlns="http://www.w3.org/2000/svg" xmlns:xlink="http://www.w3.org/1999/xlink"><clipPath id="a"><path d="m10 10.9865h21.4818v24h-21.4818z"/></clipPath><g clip-path="url(#a)"><path d="m31.1477 27.753-1.4004-2.3383c-.5267-.8865-.8094-1.8886-.8094-2.9165v-3.3147c.0128-4.5225-3.6745-8.197-8.197-8.197s-8.2099 3.6745-8.2099 8.197v3.3147c0 1.0279-.2826 2.0429-.8094 2.9165l-1.4004 2.3383c-.42399.7067-.43684 1.5675-.0257 2.287.4111.7195 1.1435 1.1563 1.9786 1.1563h5.3833c-.0386.2056-.09.4111-.09.6295 0 1.7474 1.4133 3.1607 3.1606 3.1607 1.7474 0 3.1606-1.4133 3.1606-3.1607 0-.2184-.0385-.4239-.0899-.6295h5.3833c.8351 0 1.5675-.4368 1.9786-1.1563.424-.7195.424-1.5675-.0129-2.287zm-8.5182 4.0728c0 1.0407-.8479 1.9016-1.8886 1.9016s-1.8887-.848-1.8887-1.9016c0-.2184.0514-.4239.1285-.6295h3.5461c.0514.2056.1027.4111.1027.6295zm7.4519-2.4025c-.1799.3212-.514.5139-.8865.5139h-16.9208c-.3726 0-.6938-.1927-.8737-.5139-.1798-.3212-.1798-.7067.0129-1.015l1.4004-2.3383c.6424-1.0793.9893-2.3127.9893-3.5718v-3.3147c0-3.8287 3.1092-6.9379 6.9379-6.9379s6.9379 3.1092 6.9379 6.9379v3.3147c0 1.2591.3469 2.4925.9893 3.5718l1.4004 2.3383c.1927.3083.1927.6938.0129 1.015z" fill="#fff"/></g></svg>