<svg width="31" height="28" viewBox="0 0 31 28" fill="none" xmlns="http://www.w3.org/2000/svg">
<path d="M24.21 12.15C22.94 10.04 20.11 6.5 15.35 6.5C10.59 6.5 7.75 10.04 6.48 12.15C5.84 13.22 5.84 14.54 6.48 15.6C7.75 17.71 10.58 21.25 15.35 21.25C20.11 21.25 22.95 17.71 24.21 15.6C24.85 14.54 24.85 13.22 24.21 12.15ZM23.37 15.1C22.21 17.03 19.63 20.27 15.35 20.27C11.07 20.27 8.49 17.03 7.33 15.1C6.88 14.35 6.88 13.41 7.33 12.66C8.49 10.73 11.07 7.49 15.35 7.49C19.63 7.49 22.21 10.73 23.37 12.66C23.82 13.41 23.82 14.35 23.37 15.1ZM15.34 9.95C13.17 9.95 11.41 11.71 11.41 13.88C11.41 16.05 13.17 17.81 15.34 17.81C17.51 17.81 19.27 16.05 19.27 13.88C19.27 11.71 17.51 9.95 15.34 9.95ZM15.34 16.83C13.71 16.83 12.39 15.51 12.39 13.88C12.39 12.25 13.71 10.93 15.34 10.93C16.97 10.93 18.29 12.25 18.29 13.88C18.29 15.51 16.97 16.83 15.34 16.83Z" fill="#00457A"/>
</svg>
