<svg width="36" height="36" viewBox="0 0 36 36" fill="none" xmlns="http://www.w3.org/2000/svg">
<path d="M10.8931 24.5717H8.46457C8.12942 24.5717 7.85742 24.2997 7.85742 23.9646C7.85742 23.6294 8.12942 23.3574 8.46457 23.3574H10.8931C11.2283 23.3574 11.5003 23.6294 11.5003 23.9646C11.5003 24.2997 11.2283 24.5717 10.8931 24.5717Z" fill="#A8ACB1"/>
<path d="M30.6244 24.5712H29.1066C28.7714 24.5712 28.4994 24.2992 28.4994 23.964C28.4994 23.6289 28.7714 23.3569 29.1066 23.3569H30.1205L30.9389 18.9952C30.928 16.7633 29.0216 14.8569 26.678 14.8569H22.6915L20.7596 23.3569H24.2494C24.5846 23.3569 24.8566 23.6289 24.8566 23.964C24.8566 24.2992 24.5846 24.5712 24.2494 24.5712H19.9994C19.8148 24.5712 19.64 24.4874 19.5246 24.3429C19.4093 24.1996 19.3656 24.0102 19.4068 23.8305L21.6144 14.1162C21.6776 13.8381 21.9228 13.6426 22.207 13.6426H26.678C29.6906 13.6426 32.1423 16.0942 32.1423 19.1069L31.2207 24.0757C31.1672 24.3635 30.9171 24.5712 30.6244 24.5712Z" fill="#A8ACB1"/>
<path d="M26.6783 27.0002C25.005 27.0002 23.6426 25.6389 23.6426 23.9644C23.6426 22.2899 25.005 20.9287 26.6783 20.9287C28.3516 20.9287 29.714 22.2899 29.714 23.9644C29.714 25.6389 28.3516 27.0002 26.6783 27.0002ZM26.6783 22.143C25.6741 22.143 24.8569 22.9602 24.8569 23.9644C24.8569 24.9686 25.6741 25.7859 26.6783 25.7859C27.6825 25.7859 28.4997 24.9686 28.4997 23.9644C28.4997 22.9602 27.6825 22.143 26.6783 22.143Z" fill="#A8ACB1"/>
<path d="M13.3209 27.0002C11.6476 27.0002 10.2852 25.6389 10.2852 23.9644C10.2852 22.2899 11.6476 20.9287 13.3209 20.9287C14.9942 20.9287 16.3566 22.2899 16.3566 23.9644C16.3566 25.6389 14.9942 27.0002 13.3209 27.0002ZM13.3209 22.143C12.3167 22.143 11.4994 22.9602 11.4994 23.9644C11.4994 24.9686 12.3167 25.7859 13.3209 25.7859C14.3251 25.7859 15.1423 24.9686 15.1423 23.9644C15.1423 22.9602 14.3251 22.143 13.3209 22.143Z" fill="#A8ACB1"/>
<path d="M10.893 13.643H6.03586C5.70071 13.643 5.42871 13.371 5.42871 13.0359C5.42871 12.7007 5.70071 12.4287 6.03586 12.4287H10.893C11.2282 12.4287 11.5002 12.7007 11.5002 13.0359C11.5002 13.371 11.2282 13.643 10.893 13.643Z" fill="#A8ACB1"/>
<path d="M10.8934 17.2856H4.82199C4.48684 17.2856 4.21484 17.0136 4.21484 16.6784C4.21484 16.3433 4.48684 16.0713 4.82199 16.0713H10.8934C11.2286 16.0713 11.5006 16.3433 11.5006 16.6784C11.5006 17.0136 11.2286 17.2856 10.8934 17.2856Z" fill="#A8ACB1"/>
<path d="M10.8929 20.9286H3.60714C3.272 20.9286 3 20.6566 3 20.3215C3 19.9864 3.272 19.7144 3.60714 19.7144H10.8929C11.228 19.7144 11.5 19.9864 11.5 20.3215C11.5 20.6566 11.228 20.9286 10.8929 20.9286Z" fill="#A8ACB1"/>
<path d="M20.0003 24.5715H15.7503C15.4152 24.5715 15.1432 24.2995 15.1432 23.9643C15.1432 23.6292 15.4152 23.3572 15.7503 23.3572H19.5158L22.2747 11.2143H8.46457C8.12942 11.2143 7.85742 10.9423 7.85742 10.6071C7.85742 10.272 8.12942 10 8.46457 10H23.036C23.2206 10 23.3955 10.0838 23.5108 10.2283C23.6262 10.3716 23.6699 10.561 23.6286 10.7407L20.5929 24.0979C20.5297 24.376 20.2832 24.5715 20.0003 24.5715Z" fill="#A8ACB1"/>
</svg>
