<svg fill="none" height="23" viewBox="0 0 22 23" width="22" xmlns="http://www.w3.org/2000/svg">
    <path
        d="m21.961 15.4184c-.1218-.3345-.4916-.507-.8261-.3852l-1.9788.7203c-.1533-.4211-3.9538-10.86343-4.188-11.50689-.0585-.16061-.1783-.29144-.3333-.36367-.1549-.07227-.3322-.08-.4927-.02148l-7.88509 2.87001c-1.05324-2.88557-1.89633-5.19573-1.9982-5.47561-.05848-.16065-.17835-.29148-.33328-.363706-.15485-.072226-.33212-.07996-.49281-.021483-.2113.07691-2.741199 1.096239-3.028977 1.212209-.3301422.13302-.4898856.5085-.3568664.83865.1330194.33015.5084894.48986.8386304.35688.744283-.29991 1.752363-.70529 2.388973-.95956 1.00774 2.76203 4.93383 13.51685 6.09052 16.68545-.87987.1809-1.54359.9614-1.54359 1.894 0 1.0661.86733 1.9335 1.93342 1.9335 1.06607 0 1.93337-.8674 1.93337-1.9335 0-.3499-.0938-.678-.257-.9614l10.1445-3.6924c.3346-.1218.507-.4916.3853-.8261zm-4.0161.7759-7.2679 2.6454c-.3281-.8987-.9895-2.7106-1.76802-4.8433l7.27252-2.6471zm-3.9676-10.90125 1.7634 4.84495-7.2737 2.6475c-.57616-1.5783-1.19095-3.26252-1.76796-4.84329zm-4.22247 16.24975c-.35537 0-.64448-.2891-.64448-.6445s.28911-.6445.64448-.6445.64447.2891.64447.6445-.2891.6445-.64447.6445z"
        fill="#231f20" />
</svg>