<svg width="20" height="19" viewBox="0 0 20 19" fill="none" xmlns="http://www.w3.org/2000/svg">
<path fill-rule="evenodd" clip-rule="evenodd" d="M5.35167 1.3357C5.00926 0.538711 4.62894 0.519356 4.30549 0.519356C4.01997 0.500001 3.71437 0.5 3.39093 0.5C3.08756 0.5 2.57339 0.616133 2.13618 1.1023C1.69786 1.58732 0.5 2.73385 0.5 5.08382C0.5 7.43494 2.1741 9.7075 2.40275 10.0183C2.63027 10.3291 5.63719 15.3012 10.3952 17.2254C14.3524 18.8182 15.152 18.5074 16.0086 18.4095C16.8641 18.3127 18.7679 17.2641 19.1672 16.1369C19.5475 15.0302 19.5475 14.0591 19.4338 13.8644C19.32 13.6708 18.9955 13.5535 18.5393 13.3008C18.063 13.0685 15.78 11.9026 15.3428 11.7466C14.9044 11.5918 14.6 11.5144 14.2955 11.9801C13.991 12.4662 13.0965 13.5342 12.8121 13.845C12.5444 14.1558 12.26 14.1945 11.8027 13.9611C11.3276 13.7289 9.82413 13.2234 8.03514 11.5918C6.64545 10.328 5.71303 8.75567 5.42751 8.29C5.16206 7.80383 5.38959 7.55107 5.63719 7.31767C5.84687 7.10476 6.11344 6.75522 6.34208 6.48311C6.5696 6.20985 6.64545 5.99695 6.81721 5.68612C6.96889 5.3753 6.89305 5.08382 6.77929 4.85156C6.66441 4.63751 5.77103 2.28753 5.35167 1.3357Z" stroke="#00457A" stroke-linejoin="round"/>
</svg>
