<svg width="21" height="22" viewBox="0 0 21 22" fill="none" xmlns="http://www.w3.org/2000/svg">
<path d="M8.32398 1.83468L8.32397 1.83467L8.32282 1.83584L7.72403 2.44534C7.7239 2.44547 7.72377 2.44559 7.72364 2.44572C7.44797 2.72119 7.08404 2.86911 6.68822 2.86911H5.83169C4.01747 2.86911 2.53752 4.34906 2.53752 6.16328V7.01981C2.53752 7.41582 2.38947 7.7799 2.11375 8.05562L1.50347 8.66589C0.223181 9.94618 0.223729 12.0379 1.50309 13.3284L1.50347 13.3288L2.10304 13.9283C2.37876 14.204 2.52682 14.5681 2.52682 14.9641V15.8207C2.52682 17.6349 4.00676 19.1148 5.82098 19.1148H6.67751C7.07352 19.1148 7.4376 19.2629 7.71332 19.5386L8.3236 20.1489C8.96941 20.7947 9.80482 21.1063 10.6497 21.1063C11.4945 21.1063 12.3402 20.784 12.975 20.1497C12.9752 20.1494 12.9755 20.1491 12.9758 20.1489L13.5952 19.5508L13.5952 19.5509L13.5967 19.5493C13.8725 19.2736 14.2365 19.1255 14.6325 19.1255H15.4891C17.3033 19.1255 18.7832 17.6456 18.7832 15.8314V14.9748C18.7832 14.5788 18.9313 14.2148 19.207 13.939L19.8173 13.3288C21.1078 12.0383 21.1084 9.94613 19.8171 8.66573C19.8171 8.66566 19.817 8.66559 19.8169 8.66551L19.207 8.05562C18.9313 7.7799 18.7832 7.41581 18.7832 7.01981V6.16328C18.7832 4.34906 17.3033 2.86911 15.4891 2.86911H14.6325C14.2365 2.86911 13.8725 2.72106 13.5967 2.44534L12.9865 1.83506C11.7062 0.55477 9.61447 0.555318 8.32398 1.83468ZM14.282 8.29663L14.282 8.29666L14.2842 8.29434C14.5322 8.03324 14.5354 7.62385 14.282 7.37039C14.0297 7.11815 13.608 7.11815 13.3557 7.37039L7.0388 13.6873L7.03877 13.6873L7.03657 13.6896C6.78852 13.9507 6.78535 14.3601 7.0388 14.6136L7.03868 14.6137L7.04357 14.6181C7.17118 14.7329 7.32876 14.8001 7.50192 14.8001C7.66924 14.8001 7.83121 14.7474 7.96504 14.6136L14.282 8.29663ZM18.9018 12.4025L18.2915 13.0128C17.7647 13.5396 17.484 14.2246 17.484 14.9641V15.8207C17.484 16.9187 16.5871 17.8156 15.4891 17.8156H14.6325C13.8926 17.8156 13.197 18.1072 12.6812 18.6231L12.0709 19.2333C11.2957 20.0085 10.0363 20.0094 9.24956 19.2331C9.24946 19.233 9.24936 19.2329 9.24927 19.2328L8.63956 18.6231C8.11275 18.0963 7.42779 17.8156 6.68822 17.8156H5.83169C4.7337 17.8156 3.83677 16.9187 3.83677 15.8207V14.9641C3.83677 14.2242 3.54512 13.5286 3.02928 13.0128L2.41901 12.4025C1.64382 11.6273 1.64291 10.3679 2.41928 9.58115C2.41938 9.58105 2.41948 9.58095 2.41957 9.58086L3.02833 8.9721C3.02849 8.97194 3.02865 8.97178 3.02882 8.97162C3.55678 8.45463 3.83677 7.75836 3.83677 7.01981V6.16328C3.83677 5.06529 4.7337 4.16836 5.83169 4.16836H6.68822C7.42817 4.16836 8.12373 3.87671 8.63956 3.36087L9.24984 2.75059C10.025 1.97541 11.2844 1.9745 12.0712 2.75087C12.0713 2.75097 12.0714 2.75107 12.0715 2.75116L12.6812 3.36087C13.208 3.88768 13.893 4.16836 14.6325 4.16836H15.4891C16.5871 4.16836 17.484 5.06529 17.484 6.16328V7.01981C17.484 7.75976 17.7756 8.45532 18.2915 8.97115L18.9018 9.58143C19.6774 10.357 19.6774 11.6269 18.9018 12.4025ZM13.2942 14.8001C13.9414 14.8001 14.4685 14.273 14.4685 13.6258C14.4685 12.9786 13.9414 12.4516 13.2942 12.4516C12.647 12.4516 12.12 12.9786 12.12 13.6258C12.12 14.273 12.647 14.8001 13.2942 14.8001ZM8.02655 7.18389C7.37935 7.18389 6.8523 7.71094 6.8523 8.35814C6.8523 9.01434 7.37796 9.54378 8.02771 9.53239C8.67437 9.53176 9.2008 9.00494 9.2008 8.35814C9.2008 7.71094 8.67374 7.18389 8.02655 7.18389Z" fill="white" stroke="white" stroke-width="0.25"/>
</svg>
