<svg fill="none" height="16" viewBox="0 0 16 16" width="16" xmlns="http://www.w3.org/2000/svg" xmlns:xlink="http://www.w3.org/1999/xlink"><clipPath id="a"><path d="m0 0h16v16h-16z"/></clipPath><g clip-path="url(#a)"><path d="m5.23998 1.33337h5.52002l3.9066 3.90667v5.51996l-3.9066 3.9067h-5.52002l-3.90667-3.9067v-5.51996z" stroke="#a8acb1" stroke-linecap="round" stroke-linejoin="round" stroke-width="1.5"/></g><path d="m10.5834 5.41667-5.83336 5.83333m1.66667-5.20833c0 .57529-.46637 1.04166-1.04167 1.04166s-1.04167-.46637-1.04167-1.04166c0-.5753.46637-1.04167 1.04167-1.04167s1.04167.46637 1.04167 1.04167zm4.58329 4.58333c0 .5753-.4663 1.0417-1.04163 1.0417-.57529 0-1.04166-.4664-1.04166-1.0417s.46637-1.04167 1.04166-1.04167c.57533 0 1.04163.46637 1.04163 1.04167z" stroke="#a8acb1" stroke-linecap="round" stroke-linejoin="round" stroke-width="1.5"/></svg>