<svg width="25" height="29" viewBox="0 0 25 29" fill="none" xmlns="http://www.w3.org/2000/svg">
<path d="M12.6475 15.011C15.5485 15.011 17.9143 12.6453 17.9143 9.74429C17.9143 6.84331 15.5592 4.48828 12.6475 4.48828C9.74657 4.48828 7.39153 6.85402 7.39153 9.75499C7.39153 12.656 9.74657 15.011 12.6475 15.011ZM12.6475 5.53734C14.9705 5.53734 16.8545 7.42137 16.8545 9.74429C16.8545 12.0672 14.9705 13.9619 12.6475 13.9619C10.3246 13.9619 8.44059 12.0779 8.44059 9.75499C8.44059 7.43207 10.3353 5.53734 12.6475 5.53734ZM20.5476 20.7701V21.8299C20.5476 22.7505 20.2158 23.6283 19.6056 24.3134C19.4985 24.4311 19.3594 24.4847 19.2095 24.4847C19.0811 24.4847 18.9633 24.4418 18.8563 24.3562C18.6422 24.1635 18.6208 23.8317 18.8134 23.6176C19.2523 23.1252 19.4878 22.4936 19.4878 21.8406V20.7808C19.4878 19.0681 18.3531 17.5801 16.7153 17.1733C16.3835 17.0877 16.0302 17.1305 15.7412 17.3018C13.8251 18.3723 11.47 18.3616 9.56459 17.3018C9.26486 17.1305 8.9116 17.0877 8.57976 17.1733C6.94194 17.5801 5.80724 19.0681 5.80724 20.7808V21.8406C5.80724 22.5043 6.04274 23.1359 6.48163 23.6176C6.67432 23.8317 6.65291 24.1635 6.43882 24.3562C6.22472 24.5489 5.89288 24.5275 5.70019 24.3134C5.09002 23.6283 4.75818 22.7505 4.75818 21.8299V20.7701C4.75818 18.5757 6.22472 16.6702 8.32284 16.1457C8.9116 15.9958 9.55388 16.0815 10.0784 16.3812C11.6627 17.259 13.6324 17.2697 15.2274 16.3812C15.7519 16.0815 16.3835 15.9958 16.9829 16.1457C19.0811 16.6702 20.5476 18.5757 20.5476 20.7701Z" fill="#3A3A3A"/>
</svg>
