<?xml version="1.0" encoding="UTF-8"?>
<svg xmlns="http://www.w3.org/2000/svg" xmlns:xlink="http://www.w3.org/1999/xlink" width="30px" height="30px" viewBox="0 0 30 30" version="1.1">
<g id="surface1">
<path style=" stroke:none;fill-rule:nonzero;fill:rgb(100%,100%,100%);fill-opacity:1;" d="M 27.800781 11.644531 L 26.941406 10.726562 C 26.519531 10.277344 26.292969 9.683594 26.292969 9.042969 L 26.292969 7.757812 C 26.292969 5.140625 24.28125 3.003906 21.816406 3.003906 L 20.609375 3.003906 C 20.003906 3.003906 19.445312 2.761719 19.019531 2.3125 L 18.160156 1.398438 C 16.421875 -0.449219 13.578125 -0.449219 11.824219 1.398438 L 10.980469 2.3125 C 10.554688 2.761719 9.996094 3.003906 9.390625 3.003906 L 8.183594 3.003906 C 5.71875 3.003906 3.707031 5.140625 3.707031 7.757812 L 3.707031 9.042969 C 3.707031 9.683594 3.480469 10.277344 3.058594 10.726562 L 2.199219 11.644531 C 0.460938 13.492188 0.460938 16.507812 2.199219 18.371094 L 3.042969 19.273438 C 3.46875 19.722656 3.695312 20.316406 3.695312 20.957031 L 3.695312 22.242188 C 3.695312 24.859375 5.703125 26.996094 8.167969 26.996094 L 9.378906 26.996094 C 9.980469 26.996094 10.542969 27.238281 10.964844 27.6875 L 11.824219 28.601562 C 12.703125 29.535156 13.835938 29.984375 14.984375 29.984375 C 16.132812 29.984375 17.28125 29.519531 18.144531 28.601562 L 19.019531 27.703125 C 19.445312 27.253906 20.003906 27.011719 20.609375 27.011719 L 21.816406 27.011719 C 24.28125 27.011719 26.292969 24.875 26.292969 22.257812 L 26.292969 20.972656 C 26.292969 20.332031 26.519531 19.738281 26.941406 19.289062 L 27.800781 18.371094 C 29.554688 16.507812 29.554688 13.492188 27.800781 11.644531 Z M 26.757812 17.25 L 25.898438 18.164062 C 25.1875 18.917969 24.808594 19.898438 24.808594 20.957031 L 24.808594 22.242188 C 24.808594 23.992188 23.464844 25.421875 21.816406 25.421875 L 20.609375 25.421875 C 19.609375 25.421875 18.671875 25.839844 17.976562 26.578125 L 17.117188 27.496094 C 15.953125 28.730469 14.0625 28.730469 12.882812 27.496094 L 12.023438 26.578125 C 11.3125 25.824219 10.390625 25.421875 9.390625 25.421875 L 8.183594 25.421875 C 6.535156 25.421875 5.191406 23.992188 5.191406 22.242188 L 5.191406 20.957031 C 5.191406 19.898438 4.796875 18.902344 4.101562 18.164062 L 3.242188 17.25 C 2.078125 16.011719 2.078125 14.003906 3.242188 12.75 L 4.101562 11.835938 C 4.8125 11.097656 5.191406 10.101562 5.191406 9.042969 L 5.191406 7.757812 C 5.191406 6.007812 6.535156 4.578125 8.183594 4.578125 L 9.390625 4.578125 C 10.390625 4.578125 11.328125 4.160156 12.023438 3.421875 L 12.882812 2.503906 C 14.046875 1.269531 15.9375 1.269531 17.117188 2.503906 L 17.976562 3.421875 C 18.6875 4.175781 19.609375 4.578125 20.609375 4.578125 L 21.816406 4.578125 C 23.464844 4.578125 24.808594 6.007812 24.808594 7.757812 L 24.808594 9.042969 C 24.808594 10.101562 25.203125 11.097656 25.898438 11.835938 L 26.757812 12.75 C 27.921875 13.988281 27.921875 16.011719 26.757812 17.25 Z M 19.988281 9.699219 C 20.273438 10.003906 20.273438 10.503906 19.988281 10.824219 L 11.070312 20.300781 C 10.917969 20.460938 10.738281 20.523438 10.542969 20.523438 C 10.34375 20.523438 10.164062 20.445312 10.011719 20.300781 C 9.726562 19.996094 9.726562 19.496094 10.011719 19.175781 L 18.929688 9.699219 C 19.21875 9.394531 19.699219 9.394531 19.988281 9.699219 Z M 20.199219 18.949219 C 20.199219 19.816406 19.535156 20.523438 18.71875 20.523438 C 17.902344 20.523438 17.238281 19.816406 17.238281 18.949219 C 17.238281 18.082031 17.902344 17.378906 18.71875 17.378906 C 19.535156 17.378906 20.199219 18.082031 20.199219 18.949219 Z M 9.800781 11.050781 C 9.800781 10.183594 10.464844 9.476562 11.28125 9.476562 C 12.097656 9.476562 12.761719 10.183594 12.761719 11.050781 C 12.761719 11.917969 12.097656 12.625 11.28125 12.625 C 10.464844 12.640625 9.800781 11.933594 9.800781 11.050781 Z M 9.800781 11.050781 "/>
</g>
</svg>
