<svg fill="none" height="17" viewBox="0 0 16 17" width="16" xmlns="http://www.w3.org/2000/svg">
    <path
        d="m13.6569 2.63953c-1.511-1.51099-3.5201-2.343143-5.6569-2.343143-2.13696 0-4.14587.832153-5.65686 2.343143-1.510987 1.51098-2.34314 3.51989-2.34314 5.65686 0 2.13681.832153 4.14591 2.34314 5.65681 1.51099 1.511 3.5199 2.3432 5.65686 2.3432 2.1368 0 4.1459-.8322 5.6569-2.3432 1.5109-1.5109 2.3431-3.52 2.3431-5.65681 0-2.13697-.8322-4.14588-2.3431-5.65686zm-9.64628 11.48147c.33459-1.9265 2.00403-3.3476 3.98938-3.3476 1.98547 0 3.6548 1.4211 3.9894 3.3476-1.1359.7804-2.51015 1.2379-3.9894 1.2379s-2.85352-.4575-3.98938-1.2379zm1.44568-6.82876c0-1.40271 1.14111-2.5437 2.5437-2.5437s2.5437 1.14111 2.5437 2.5437c0 1.40258-1.14111 2.5437-2.5437 2.5437s-2.5437-1.14112-2.5437-2.5437zm7.3451 6.17846c-.2523-.8968-.7534-1.7106-1.4558-2.3462-.4309-.39-.9214-.6977-1.44875-.9147.95315-.62167 1.58445-1.69723 1.58445-2.91756 0-1.91956-1.56174-3.4812-3.4813-3.4812s-3.4812 1.56164-3.4812 3.4812c0 1.22033.63135 2.29589 1.58435 2.91756-.52722.217-1.01782.5246-1.44873.9146-.70227.6356-1.20349 1.4493-1.45581 2.3462-1.38977-1.2907-2.26111-3.1325-2.26111-5.17421 0-3.89429 3.16821-7.0625 7.0625-7.0625 3.8943 0 7.0625 3.16821 7.0625 7.0625 0 2.04191-.8713 3.88371-2.2611 5.17431z"
        fill="#231f20" />
</svg>