<svg width="26" height="26" viewBox="0 0 26 26" fill="none" xmlns="http://www.w3.org/2000/svg">
<path d="M16.1575 12.3735L16.1572 12.3732L12.3671 8.59594L12.3671 8.59589L12.3628 8.59177C12.0181 8.2643 11.4605 8.23184 11.11 8.60083C10.7766 8.95173 10.7703 9.50498 11.1144 9.84915L14.2781 13.0128L11.1144 16.1765C10.7727 16.5183 10.7727 17.0749 11.1144 17.4166L11.1142 17.4169L11.124 17.4257C11.2935 17.5783 11.5059 17.6697 11.7409 17.6697C11.9642 17.6697 12.1853 17.5986 12.3674 17.4166L16.1575 13.6265L16.1576 13.6265L16.162 13.6219C16.4953 13.271 16.5017 12.7177 16.1575 12.3735ZM13 0.75C6.24523 0.75 0.75 6.24523 0.75 13C0.75 19.7548 6.24523 25.25 13 25.25C19.7548 25.25 25.25 19.7548 25.25 13C25.25 6.24523 19.7548 0.75 13 0.75ZM13 23.4909C7.21516 23.4909 2.5091 18.7848 2.5091 13C2.5091 7.21516 7.21516 2.5091 13 2.5091C18.7848 2.5091 23.4909 7.21516 23.4909 13C23.4909 18.7848 18.7848 23.4909 13 23.4909Z" fill="#00457A" stroke="#00457A" stroke-width="0.5"/>
</svg>
