<svg fill="none" height="25" viewBox="0 0 21 25" width="21" xmlns="http://www.w3.org/2000/svg"><path d="m10.6788 12.9082c2.3212 0 4.2141-1.8929 4.2141-4.21411 0-2.3212-1.8844-4.20556-4.2141-4.20556-2.32122 0-4.20558 1.89293-4.20558 4.21413 0 2.32124 1.88436 4.20554 4.20558 4.20554zm0-7.58027c1.8587 0 3.3662 1.50749 3.3662 3.36616 0 1.85871-1.5075 3.37471-3.3662 3.37471-1.85869 0-3.36618-1.5075-3.36618-3.36614 0-1.85867 1.51606-3.37473 3.36618-3.37473zm6.3212 12.18847v.8479c0 .7366-.2655 1.439-.7538 1.9872-.0856.0942-.197.137-.3169.137-.1028 0-.197-.0342-.2826-.1028-.1713-.1541-.1885-.4197-.0343-.591.3512-.394.5396-.8993.5396-1.4218v-.848c0-1.3704-.9079-2.561-2.2184-2.8865-.2655-.0685-.5482-.0342-.7794.1028-1.5332.8565-3.4176.848-4.94223 0-.23982-.137-.52248-.1713-.788-.1028-1.3105.3255-2.21842 1.5161-2.21842 2.8865v.848c0 .531.18844 1.0364.53961 1.4218.15418.1713.13705.4369-.03426.591-.1713.1542-.43683.1371-.591-.0342-.48823-.5482-.75375-1.2506-.75375-1.9872v-.8479c0-1.7559 1.17345-3.2806 2.85225-3.7003.47109-.1199.98501-.0513 1.40471.1885 1.26766.7023 2.84369.7109 4.11989 0 .4197-.2398.9251-.3084 1.4047-.1885 1.6788.4197 2.8523 1.9444 2.8523 3.7003z" fill="#3a3a3a"/></svg>