<svg fill="none" height="16" viewBox="0 0 17 16" width="17" xmlns="http://www.w3.org/2000/svg"><path d="m15.7548 6.2099-.4882-.48823c-.2398-.23983-.3683-.55674-.3683-.89935v-.68523c0-1.39615-1.1392-2.53533-2.5353-2.53533h-.6853c-.3426 0-.6595-.12848-.8993-.36831l-.4882-.488222c-.98504-.985011-2.59532-.985011-3.5889 0l-.47966.488222c-.23983.23983-.55674.36831-.89935.36831h-.68523c-1.39615 0-2.53533 1.13918-2.53533 2.53533v.68523c0 .34261-.12848.65952-.36831.89935l-.48822.48823c-.985013.98501-.985013 2.59528 0 3.58886l.47965.47964c.23983.2398.36831.5568.36831.8994v.6852c0 1.3961 1.13919 2.5353 2.53534 2.5353h.68522c.34261 0 .65953.1285.89936.3683l.48822.4883c.49679.4968 1.13919.7366 1.79015.7366s1.30193-.2484 1.79015-.7366l.4968-.4797c.2398-.2398.5567-.3683.8993-.3683h.6853c1.3961 0 2.5353-1.1392 2.5353-2.5353v-.6853c0-.3426.1285-.6595.3683-.8993l.4882-.48824c.9936-.99358.9936-2.60385 0-3.58886zm-.591 2.98929-.4882.48822c-.4026.40259-.6167.92509-.6167 1.49039v.6852c0 .9336-.7623 1.6959-1.6959 1.6959h-.6853c-.5653 0-1.0963.2227-1.4903.6167l-.48824.4883c-.65953.6595-1.73019.6595-2.39829 0l-.48822-.4883c-.40257-.4025-.92505-.6167-1.49036-.6167h-.68523c-.93362 0-1.69593-.7623-1.69593-1.6959v-.6852c0-.5653-.2227-1.0964-.6167-1.49039l-.48823-.48822c-.65953-.65953-.65953-1.73019 0-2.39829l.48823-.48822c.40257-.39401.6167-.92505.6167-1.49036v-.68523c0-.93362.76231-1.69593 1.69593-1.69593h.68523c.56531 0 1.09635-.2227 1.49036-.6167l.48822-.48823c.65953-.659525 1.73019-.659525 2.39829 0l.48824.48823c.4026.40257.925.6167 1.4903.6167h.6853c.9336 0 1.6959.76231 1.6959 1.69593v.68523c0 .56531.2227 1.09635.6167 1.49036l.4882.48822c.6596.65953.6596 1.73876 0 2.39829zm-3.8372-4.0257c.1627.16274.1627.42827 0 .59957l-5.05357 5.05354c-.08565.0857-.18843.1199-.29978.1199s-.21413-.0428-.29979-.1199c-.16274-.1627-.16274-.4283 0-.5996l5.05354-5.05351c.1627-.16274.4368-.16274.5996 0zm.1199 4.93361c0 .4625-.3769.8394-.8394.8394s-.83942-.3769-.83942-.8394c0-.46251.37692-.83939.83942-.83939s.8394.37688.8394.83939zm-5.89295-4.21412c0-.46253.37687-.8394.8394-.8394s.8394.37687.8394.8394-.37687.8394-.8394.8394c-.46253.00856-.8394-.36831-.8394-.8394z" fill="#fff"/></svg>