<svg width="16" height="16" viewBox="0 0 16 16" fill="none" xmlns="http://www.w3.org/2000/svg">
<g clip-path="url(#clip0_2134_1153)">
<path d="M1.1955 13.8628L4.74546 10.3129C3.86412 9.22423 3.33347 7.8409 3.33347 6.33426C3.33347 2.84229 6.17478 0.000976562 9.66675 0.000976562C13.1587 0.000976562 16 2.84226 16 6.33423C16 9.82619 13.1587 12.6675 9.66672 12.6675C8.16008 12.6675 6.77675 12.1369 5.6881 11.2555L2.13815 14.8055C2.00815 14.9355 1.83749 15.0008 1.66681 15.0008C1.49612 15.0008 1.32547 14.9355 1.19547 14.8055C0.934815 14.5448 0.934816 14.1235 1.1955 13.8628ZM9.66672 11.3342C12.424 11.3342 14.6667 9.09155 14.6667 6.33423C14.6667 3.57691 12.424 1.33428 9.66672 1.33428C6.9094 1.33428 4.66677 3.57691 4.66677 6.33423C4.66677 9.09155 6.90943 11.3342 9.66672 11.3342Z" fill="#00457A"/>
</g>
<defs>
<clipPath id="clip0_2134_1153">
<rect width="16" height="16" fill="white" transform="matrix(-1 0 0 1 16 0)"/>
</clipPath>
</defs>
</svg>
