<svg fill="none" height="38" viewBox="0 0 38 38" width="38" xmlns="http://www.w3.org/2000/svg">
    <path
        d="m30.1821 19.5088v-1.7088c0-2.8643-1.1379-5.6114-3.1633-7.6368-2.0254-2.02535-4.7724-3.1632-7.6367-3.1632-2.8644 0-5.6114 1.13785-7.6368 3.1632-2.02538 2.0254-3.16323 4.7725-3.16323 7.6368v1.7088c-1.25861.5542-2.28864 1.5239-2.91765 2.7469-.62902 1.2229-.81884 2.6248-.53768 3.971.28115 1.3462 1.01622 2.5549 2.08213 3.4238 1.06592.869 2.39798 1.3454 3.77323 1.3495.6365 0 1.2469-.2529 1.697-.7029.4501-.4501.703-1.0606.703-1.6971v-7.2c0-.6365-.2529-1.247-.703-1.6971-.4501-.45-1.0605-.7029-1.697-.7029v-1.2c0-2.2278.885-4.3644 2.4603-5.9397s3.7119-2.4603 5.9397-2.4603 4.3644.885 5.9397 2.4603 2.4603 3.7119 2.4603 5.9397v1.2c-.6366 0-1.247.2529-1.6971.7029-.4501.4501-.7029 1.0606-.7029 1.6971v7.2h-3.6c-.3183 0-.6235.1264-.8486.3515-.225.225-.3514.5302-.3514.8485s.1264.6235.3514.8485c.2251.2251.5303.3515.8486.3515h6c1.3752-.0041 2.7072-.4805 3.7732-1.3495 1.0659-.8689 1.8009-2.0776 2.0821-3.4238s.0913-2.7481-.5377-3.971c-.629-1.223-1.659-2.1927-2.9176-2.7469zm-19.2 9.0912c-.9548 0-1.87048-.3793-2.54561-1.0544-.67514-.6751-1.05442-1.5908-1.05442-2.5456s.37928-1.8705 1.05442-2.5456c.67513-.6751 1.59081-1.0544 2.54561-1.0544zm16.8 0v-7.2c.9547 0 1.8704.3793 2.5456 1.0544.6751.6751 1.0544 1.5908 1.0544 2.5456s-.3793 1.8705-1.0544 2.5456c-.6752.6751-1.5909 1.0544-2.5456 1.0544z"
        fill="#000" stroke="#fff100" stroke-width=".5" />
</svg>