<svg fill="none" height="16" viewBox="0 0 17 16" width="17" xmlns="http://www.w3.org/2000/svg" xmlns:xlink="http://www.w3.org/1999/xlink"><clipPath id="a"><path d="m0 0h16v16h-16z" transform="matrix(-1 0 0 1 16.5 0)"/></clipPath><g clip-path="url(#a)"><path d="m1.6955 13.8628 3.54996-3.5499c-.88134-1.08867-1.41199-2.472-1.41199-3.97864 0-3.49197 2.84131-6.33328344 6.33333-6.33328344 3.4919 0 6.3332 2.84128344 6.3332 6.33325344 0 3.49196-2.8413 6.33327-6.3333 6.33327-1.50662 0-2.88995-.5306-3.9786-1.412l-3.54995 3.55c-.13.13-.30066.1953-.47134.1953-.17069 0-.34134-.0653-.47134-.1953-.26065-.2607-.26065-.682.00003-.9427zm8.4712-2.5286c2.7573 0 5-2.24266 5-4.99997 0-2.75732-2.2427-4.99995-5-4.99995s-4.99993 2.24263-4.99993 4.99995c0 2.75731 2.24266 4.99997 4.99993 4.99997z" fill="#a8acb1"/></g></svg>