<svg fill="none" height="298" viewBox="0 0 297 298" width="297" xmlns="http://www.w3.org/2000/svg" xmlns:xlink="http://www.w3.org/1999/xlink"><clipPath id="a"><path d="m0 0h297v298h-297z"/></clipPath><g clip-path="url(#a)"><path d="m252.45 44.7h-207.9c-21.8705 0-39.60005 17.7892-39.60005 39.7333v129.1337c0 21.944 17.72955 39.733 39.60005 39.733h207.9c21.87 0 39.6-17.789 39.6-39.733v-129.1337c0-21.9441-17.73-39.7333-39.6-39.7333z" fill="#ff9801"/><path d="m252.45 44.7h-14.85c10.502 0 20.575 4.1862 28.001 11.6376 7.427 7.4515 11.599 17.5578 11.599 28.0957v129.1337c0 10.538-4.172 20.644-11.599 28.095-7.426 7.452-17.499 11.638-28.001 11.638h14.85c10.502 0 20.575-4.186 28.001-11.638 7.427-7.451 11.599-17.557 11.599-28.095v-129.1337c0-10.5379-4.172-20.6442-11.599-28.0957-7.426-7.4514-17.499-11.6376-28.001-11.6376z" fill="#f57c00"/><path d="m44.55 74.5h-9.9c-1.3129 0-2.5719-.5233-3.5002-1.4547s-1.4498-2.1947-1.4498-3.512c0-1.3172.5215-2.5805 1.4498-3.5119s2.1873-1.4547 3.5002-1.4547h9.9c1.3128 0 2.5718.5233 3.5001 1.4547s1.4499 2.1947 1.4499 3.5119c0 1.3173-.5216 2.5806-1.4499 3.512s-2.1873 1.4547-3.5001 1.4547z" fill="#f5f5f5"/><path d="m178.2 74.5h-108.9001c-1.3129 0-2.5719-.5233-3.5002-1.4547s-1.4498-2.1947-1.4498-3.512c0-1.3172.5215-2.5805 1.4498-3.5119s2.1873-1.4547 3.5002-1.4547h108.9001c1.313 0 2.572.5233 3.5 1.4547s1.45 2.1947 1.45 3.5119c0 1.3173-.522 2.5806-1.45 3.512s-2.187 1.4547-3.5 1.4547z" fill="#f5f5f5"/><g fill="#000"><path d="m252.45 39.7333h-207.9c-11.8114.0132-23.1352 4.7269-31.4871 13.1069-8.35194 8.38-13.0497981 19.742-13.0629 31.5931v129.1337c.0131019 11.851 4.71096 23.213 13.0629 31.593 8.3519 8.38 19.6757 13.094 31.4871 13.107h207.9c11.811-.013 23.135-4.727 31.487-13.107s13.05-19.742 13.063-31.593v-129.1337c-.013-11.8511-4.711-23.2131-13.063-31.5931s-19.676-13.0937-31.487-13.1069zm34.65 173.8337c-.012 9.217-3.666 18.053-10.162 24.57-6.495 6.518-15.302 10.185-24.488 10.196h-207.9c-9.1861-.011-17.9926-3.678-24.4882-10.196-6.4956-6.517-10.15001-15.353-10.1618-24.57v-129.1337c.01179-9.217 3.6662-18.0532 10.1618-24.5706 6.4956-6.5175 15.3021-10.1842 24.4882-10.196h207.9c9.186.0118 17.993 3.6785 24.488 10.196 6.496 6.5174 10.15 15.3536 10.162 24.5706z"/><path d="m60.0137 124.206c-1.3023-.163-2.6157.2-3.6516 1.008-1.0359.809-1.7095 1.997-1.8726 3.303l-2.9255 23.463-2.5591-5.2c-.4574-.77-1.1061-1.407-1.8827-1.85-.7766-.442-1.6544-.675-2.5476-.675-.8931 0-1.7709.233-2.5475.675-.7766.443-1.4253 1.08-1.8827 1.85l-2.6087 5.2-2.9254-23.458c-.0663-.658-.2633-1.297-.5793-1.878-.3159-.582-.7446-1.094-1.2606-1.506-.5161-.413-1.1092-.718-1.7444-.897-.6353-.18-1.2998-.23-1.9546-.148s-1.2867.295-1.8584.626-1.0717.773-1.4706 1.3c-.399.527-.6888 1.13-.8524 1.771-.1637.641-.1978 1.309-.1005 1.964l4.95 39.733c.1315 1.059.5989 2.046 1.3331 2.817s1.6962 1.285 2.7437 1.465c1.0475.179 2.125.016 3.0729-.466.948-.482 1.7162-1.257 2.1909-2.211l5.4698-10.987 5.4697 10.982c.4112.825 1.0435 1.52 1.8261 2.005.7825.485 1.6843.742 2.6042.741.2805 0 .5604-.025.8365-.074 1.0463-.18 2.0072-.693 2.7407-1.463s1.2009-1.757 1.3332-2.813l4.95-39.734c.1624-1.306-.199-2.624-1.0047-3.664-.8057-1.039-1.9898-1.715-3.2919-1.879z"/><path d="m89.1 134.1c1.3129 0 2.5719-.523 3.5002-1.455.9283-.931 1.4498-2.194 1.4498-3.512 0-1.317-.5215-2.58-1.4498-3.512-.9283-.931-2.1873-1.454-3.5002-1.454h-14.85c-1.3128 0-2.5718.523-3.5001 1.454-.9283.932-1.4499 2.195-1.4499 3.512v39.734c0 1.317.5216 2.58 1.4499 3.512.9283.931 2.1873 1.454 3.5001 1.454h14.85c1.3129 0 2.5719-.523 3.5002-1.454.9283-.932 1.4498-2.195 1.4498-3.512 0-1.318-.5215-2.581-1.4498-3.512-.9283-.932-2.1873-1.455-3.5002-1.455h-9.9v-9.933h9.9c1.3129 0 2.5719-.524 3.5002-1.455s1.4498-2.195 1.4498-3.512-.5215-2.581-1.4498-3.512-2.1873-1.455-3.5002-1.455h-9.9v-9.933z"/><path d="m267.3 134.1c1.313 0 2.572-.523 3.5-1.455.928-.931 1.45-2.194 1.45-3.512 0-1.317-.522-2.58-1.45-3.512-.928-.931-2.187-1.454-3.5-1.454h-14.85c-1.313 0-2.572.523-3.5 1.454-.928.932-1.45 2.195-1.45 3.512v39.734c0 1.317.522 2.58 1.45 3.512.928.931 2.187 1.454 3.5 1.454h14.85c1.313 0 2.572-.523 3.5-1.454.928-.932 1.45-2.195 1.45-3.512 0-1.318-.522-2.581-1.45-3.512-.928-.932-2.187-1.455-3.5-1.455h-9.9v-9.933h9.9c1.313 0 2.572-.524 3.5-1.455s1.45-2.195 1.45-3.512-.522-2.581-1.45-3.512-2.187-1.455-3.5-1.455h-9.9v-9.933z"/><path d="m118.8 163.9h-9.9v-34.767c0-1.317-.522-2.58-1.45-3.512-.928-.931-2.187-1.454-3.5-1.454s-2.572.523-3.5 1.454c-.9285.932-1.45 2.195-1.45 3.512v39.734c0 1.317.5215 2.58 1.45 3.512.928.931 2.187 1.454 3.5 1.454h14.85c1.313 0 2.572-.523 3.5-1.454.928-.932 1.45-2.195 1.45-3.512 0-1.318-.522-2.581-1.45-3.512-.928-.932-2.187-1.455-3.5-1.455z"/><path d="m143.55 134.1h4.95c1.313 0 2.572.523 3.5 1.455.928.931 1.45 2.194 1.45 3.512 0 1.317.521 2.58 1.45 3.512.928.931 2.187 1.454 3.5 1.454s2.572-.523 3.5-1.454c.928-.932 1.45-2.195 1.45-3.512 0-3.952-1.565-7.742-4.35-10.536-2.784-2.794-6.562-4.364-10.5-4.364h-4.95c-3.939 0-7.716 1.57-10.501 4.364s-4.349 6.584-4.349 10.536v19.866c0 3.952 1.564 7.742 4.349 10.536 2.785 2.795 6.562 4.364 10.501 4.364h4.95c3.938 0 7.716-1.569 10.5-4.364 2.785-2.794 4.35-6.584 4.35-10.536 0-1.317-.522-2.58-1.45-3.512-.928-.931-2.187-1.454-3.5-1.454s-2.572.523-3.5 1.454c-.929.932-1.45 2.195-1.45 3.512 0 1.318-.522 2.581-1.45 3.512-.928.932-2.187 1.455-3.5 1.455h-4.95c-1.313 0-2.572-.523-3.5-1.455-.929-.931-1.45-2.194-1.45-3.512v-19.866c0-1.318.521-2.581 1.45-3.512.928-.932 2.187-1.455 3.5-1.455z"/><path d="m188.1 124.167h-4.95c-3.938 0-7.716 1.57-10.5 4.364-2.785 2.794-4.35 6.584-4.35 10.536v19.866c0 3.952 1.565 7.742 4.35 10.536 2.784 2.795 6.562 4.364 10.5 4.364h4.95c3.939 0 7.716-1.569 10.501-4.364 2.784-2.794 4.349-6.584 4.349-10.536v-19.866c0-3.952-1.565-7.742-4.349-10.536-2.785-2.794-6.562-4.364-10.501-4.364zm4.95 34.766c0 1.318-.521 2.581-1.45 3.512-.928.932-2.187 1.455-3.5 1.455h-4.95c-1.313 0-2.572-.523-3.5-1.455-.928-.931-1.45-2.194-1.45-3.512v-19.866c0-1.318.522-2.581 1.45-3.512.928-.932 2.187-1.455 3.5-1.455h4.95c1.313 0 2.572.523 3.5 1.455.929.931 1.45 2.194 1.45 3.512z"/><path d="m238.961 124.36c-1.032-.296-2.133-.248-3.136.138s-1.853 1.089-2.423 2.003l-8.177 13.127-8.177-13.127c-.57-.915-1.421-1.618-2.424-2.005-1.004-.386-2.106-.434-3.139-.137s-1.942.924-2.588 1.785c-.647.862-.997 1.911-.997 2.989v39.734c0 1.317.521 2.58 1.45 3.512.928.931 2.187 1.454 3.5 1.454s2.572-.523 3.5-1.454c.928-.932 1.45-2.195 1.45-3.512v-22.42l3.227 5.185c.476.677 1.106 1.229 1.838 1.61s1.545.579 2.37.579 1.637-.198 2.37-.579c.732-.381 1.362-.933 1.837-1.61l3.208-5.185v22.42c0 1.317.521 2.58 1.45 3.512.928.931 2.187 1.454 3.5 1.454s2.572-.523 3.5-1.454c.928-.932 1.45-2.195 1.45-3.512v-39.734c-.001-1.078-.351-2.128-.999-2.989-.647-.861-1.556-1.487-2.59-1.784z"/></g></g></svg>