<svg fill="none" height="24" viewBox="0 0 44 24" width="44" xmlns="http://www.w3.org/2000/svg"><path d="m16.5 22h-3c-1.93 0-3.5-1.57-3.5-3.5v-3c0-.276.224-.5.5-.5s.5.224.5.5v3c0 1.378 1.121 2.5 2.5 2.5h3c.276 0 .5.224.5.5s-.224.5-.5.5zm17.5-3.5v-3c0-.276-.224-.5-.5-.5s-.5.224-.5.5v3c0 1.378-1.121 2.5-2.5 2.5h-3c-.276 0-.5.224-.5.5s.224.5.5.5h3c1.93 0 3.5-1.57 3.5-3.5zm0-10v-3c0-1.93-1.57-3.5-3.5-3.5h-3c-.276 0-.5.224-.5.5s.224.5.5.5h3c1.379 0 2.5 1.122 2.5 2.5v3c0 .276.224.5.5.5s.5-.224.5-.5zm-23 0v-3c0-1.378 1.121-2.5 2.5-2.5h3c.276 0 .5-.224.5-.5s-.224-.5-.5-.5h-3c-1.93 0-3.5 1.57-3.5 3.5v3c0 .276.224.5.5.5s.5-.224.5-.5zm4 9v-11c0-.276-.224-.5-.5-.5s-.5.224-.5.5v11c0 .276.224.5.5.5s.5-.224.5-.5zm10 0v-11c0-.276-.224-.5-.5-.5s-.5.224-.5.5v11c0 .276.224.5.5.5s.5-.224.5-.5zm-6-.5v-10c0-.552-.447-1-1-1s-1 .448-1 1v10c0 .552.447 1 1 1s1-.448 1-1zm3 0v-10c0-.552-.447-1-1-1s-1 .448-1 1v10c0 .552.447 1 1 1s1-.448 1-1zm8 0v-10c0-.552-.447-1-1-1s-1 .448-1 1v10c0 .552.447 1 1 1s1-.448 1-1zm-3 .5v-11c0-.276-.224-.5-.5-.5s-.5.224-.5.5v11c0 .276.224.5.5.5s.5-.224.5-.5z" fill="#000"/></svg>