<svg width="19" height="19" viewBox="0 0 19 19" fill="none" xmlns="http://www.w3.org/2000/svg">
<path d="M3.52539 2.26367H1.29883C0.582654 2.26367 0 2.84633 0 3.5625V5.78906C0 6.09648 0.249227 6.3457 0.556641 6.3457C0.864055 6.3457 1.11328 6.09648 1.11328 5.78906V3.5625C1.11328 3.46019 1.19652 3.37695 1.29883 3.37695H3.52539C3.8328 3.37695 4.08203 3.12773 4.08203 2.82031C4.08203 2.5129 3.8328 2.26367 3.52539 2.26367Z" fill="#00457A"/>
<path d="M3.52539 15.623H1.29883C1.19652 15.623 1.11328 15.5398 1.11328 15.4375V13.2109C1.11328 12.9035 0.864055 12.6543 0.556641 12.6543C0.249227 12.6543 0 12.9035 0 13.2109V15.4375C0 16.1537 0.582654 16.7363 1.29883 16.7363H3.52539C3.8328 16.7363 4.08203 16.4871 4.08203 16.1797C4.08203 15.8723 3.8328 15.623 3.52539 15.623Z" fill="#00457A"/>
<path d="M18.4434 12.6543C18.1359 12.6543 17.8867 12.9035 17.8867 13.2109V15.4375C17.8867 15.5398 17.8035 15.623 17.7012 15.623H15.4746C15.1672 15.623 14.918 15.8723 14.918 16.1797C14.918 16.4871 15.1672 16.7363 15.4746 16.7363H17.7012C18.4173 16.7363 19 16.1537 19 15.4375V13.2109C19 12.9035 18.7508 12.6543 18.4434 12.6543Z" fill="#00457A"/>
<path d="M17.7012 2.26367H15.4746C15.1672 2.26367 14.918 2.5129 14.918 2.82031C14.918 3.12773 15.1672 3.37695 15.4746 3.37695H17.7012C17.8035 3.37695 17.8867 3.46019 17.8867 3.5625V5.78906C17.8867 6.09648 18.1359 6.3457 18.4434 6.3457C18.7508 6.3457 19 6.09648 19 5.78906V3.5625C19 2.84633 18.4173 2.26367 17.7012 2.26367Z" fill="#00457A"/>
<path d="M3.33984 13.916V5.08398C3.33984 4.77657 3.09062 4.52734 2.7832 4.52734C2.47579 4.52734 2.22656 4.77657 2.22656 5.08398V13.916C2.22656 14.2234 2.47579 14.4727 2.7832 14.4727C3.09062 14.4727 3.33984 14.2234 3.33984 13.916Z" fill="#00457A"/>
<path d="M5.00977 4.52734C4.70235 4.52734 4.45312 4.77657 4.45312 5.08398V10.9473C4.45312 11.2547 4.70235 11.5039 5.00977 11.5039C5.31718 11.5039 5.56641 11.2547 5.56641 10.9473V5.08398C5.56641 4.77657 5.31718 4.52734 5.00977 4.52734Z" fill="#00457A"/>
<path d="M7.23633 4.52734C6.92891 4.52734 6.67969 4.77657 6.67969 5.08398V13.916C6.67969 14.2234 6.92891 14.4727 7.23633 14.4727C7.54374 14.4727 7.79297 14.2234 7.79297 13.916V5.08398C7.79297 4.77657 7.54374 4.52734 7.23633 4.52734Z" fill="#00457A"/>
<path d="M9.46289 4.52734C9.15548 4.52734 8.90625 4.77657 8.90625 5.08398V10.9473C8.90625 11.2547 9.15548 11.5039 9.46289 11.5039C9.7703 11.5039 10.0195 11.2547 10.0195 10.9473V5.08398C10.0195 4.77657 9.7703 4.52734 9.46289 4.52734Z" fill="#00457A"/>
<path d="M11.6895 4.52734C11.382 4.52734 11.1328 4.77657 11.1328 5.08398V10.9473C11.1328 11.2547 11.382 11.5039 11.6895 11.5039C11.9969 11.5039 12.2461 11.2547 12.2461 10.9473V5.08398C12.2461 4.77657 11.9969 4.52734 11.6895 4.52734Z" fill="#00457A"/>
<path d="M13.916 4.52734C13.6086 4.52734 13.3594 4.77657 13.3594 5.08398V10.9473C13.3594 11.2547 13.6086 11.5039 13.916 11.5039C14.2234 11.5039 14.4727 11.2547 14.4727 10.9473V5.08398C14.4727 4.77657 14.2234 4.52734 13.916 4.52734Z" fill="#00457A"/>
<path d="M16.6992 13.916V5.08398C16.6992 4.77657 16.45 4.52734 16.1426 4.52734C15.8352 4.52734 15.5859 4.77657 15.5859 5.08398V13.916C15.5859 14.2234 15.8352 14.4727 16.1426 14.4727C16.45 14.4727 16.6992 14.2234 16.6992 13.916Z" fill="#00457A"/>
<path d="M5.00977 12.7285C4.70235 12.7285 4.45312 12.9777 4.45312 13.2852V13.916C4.45312 14.2234 4.70235 14.4727 5.00977 14.4727C5.31718 14.4727 5.56641 14.2234 5.56641 13.916V13.2852C5.56641 12.9777 5.31718 12.7285 5.00977 12.7285Z" fill="#00457A"/>
<path d="M9.46289 12.7285C9.15548 12.7285 8.90625 12.9777 8.90625 13.2852V13.916C8.90625 14.2234 9.15548 14.4727 9.46289 14.4727C9.7703 14.4727 10.0195 14.2234 10.0195 13.916V13.2852C10.0195 12.9777 9.7703 12.7285 9.46289 12.7285Z" fill="#00457A"/>
<path d="M11.6895 12.7285C11.382 12.7285 11.1328 12.9777 11.1328 13.2852V13.916C11.1328 14.2234 11.382 14.4727 11.6895 14.4727C11.9969 14.4727 12.2461 14.2234 12.2461 13.916V13.2852C12.2461 12.9777 11.9969 12.7285 11.6895 12.7285Z" fill="#00457A"/>
<path d="M13.916 12.7285C13.6086 12.7285 13.3594 12.9777 13.3594 13.2852V13.916C13.3594 14.2234 13.6086 14.4727 13.916 14.4727C14.2234 14.4727 14.4727 14.2234 14.4727 13.916V13.2852C14.4727 12.9777 14.2234 12.7285 13.916 12.7285Z" fill="#00457A"/>
</svg>
