<svg width="37" height="37" viewBox="0 0 37 37" fill="none" xmlns="http://www.w3.org/2000/svg">
<path d="M14.6341 25.7102L7.7591 22.5271C7.60557 22.456 7.42463 22.4816 7.29693 22.5925C7.16918 22.7034 7.11835 22.8789 7.16712 23.0408L8.08776 26.1001L7.16708 29.1594C7.07882 29.4247 7.3011 29.7212 7.57863 29.7129C7.63978 29.7129 7.70139 29.6998 7.7591 29.6732L14.6341 26.4901C14.9615 26.345 14.964 25.856 14.6341 25.7102ZM8.26548 28.4917L8.94791 26.224C8.97223 26.1432 8.97223 26.0571 8.94791 25.9763L8.26548 23.7086L13.4308 26.1001L8.26548 28.4917Z" fill="#A8ACB1" stroke="#A8ACB1" stroke-width="0.5"/>
<path d="M25.2812 7.71289C23.1489 7.71289 21.4141 9.4477 21.4141 11.5801C21.4394 13.6669 23.583 15.9346 24.9573 17.5139C25.1192 17.7082 25.4433 17.7086 25.6051 17.5139C26.9791 15.9354 29.1235 13.6662 29.1484 11.5801C29.1484 9.4477 27.4136 7.71289 25.2812 7.71289V7.71289ZM25.2812 16.5804C24.1489 15.2956 22.2734 13.1605 22.2734 11.5801C22.2734 9.92156 23.6227 8.57226 25.2812 8.57226C26.9397 8.57226 28.289 9.92156 28.289 11.5801C28.289 13.1605 26.4135 15.2956 25.2812 16.5804Z" fill="#A8ACB1" stroke="#A8ACB1" stroke-width="0.5"/>
<path d="M25.2822 9.86133C24.3345 9.86133 23.5635 10.6324 23.5635 11.5801C23.6499 13.8571 26.9149 13.8565 27.001 11.58C27.001 10.6324 26.2299 9.86133 25.2822 9.86133ZM25.2822 12.4395C24.8084 12.4395 24.4228 12.054 24.4228 11.5801C24.4661 10.4416 26.0985 10.4419 26.1416 11.5801C26.1416 12.0539 25.756 12.4395 25.2822 12.4395Z" fill="#A8ACB1" stroke="#A8ACB1" stroke-width="0.5"/>
<path d="M15.6135 17.6611H16.4728C17.042 17.6402 17.0423 16.8228 16.4728 16.8018H15.6135C15.0444 16.8227 15.0441 17.6401 15.6135 17.6611Z" fill="#A8ACB1" stroke="#A8ACB1" stroke-width="0.5"/>
<path d="M12.1755 17.6614C12.1862 17.6613 12.197 17.6611 12.2077 17.6611H13.035C13.604 17.6402 13.6045 16.8228 13.035 16.8018H12.2077C12.1945 16.8018 12.1812 16.8018 12.168 16.8021C11.6044 16.8309 11.6119 17.6426 12.1755 17.6614V17.6614Z" fill="#A8ACB1" stroke="#A8ACB1" stroke-width="0.5"/>
<path d="M16.9777 21.0557C16.9777 20.8183 16.7854 20.626 16.548 20.626H15.6887C15.1196 20.6469 15.1193 21.4643 15.6887 21.4853H16.548C16.7854 21.4853 16.9777 21.293 16.9777 21.0557Z" fill="#A8ACB1" stroke="#A8ACB1" stroke-width="0.5"/>
<path d="M13.1105 20.626H12.2512C11.6821 20.6469 11.6818 21.4643 12.2512 21.4853H13.1105C13.6797 21.4644 13.68 20.647 13.1105 20.626Z" fill="#A8ACB1" stroke="#A8ACB1" stroke-width="0.5"/>
<path d="M10.3533 20.0354C10.6281 20.0387 10.8413 19.7678 10.7704 19.5011C10.7166 19.2874 10.7122 19.0577 10.7575 18.8419C10.8549 18.2815 10.052 18.1132 9.91638 18.666C9.8445 19.0084 9.85146 19.3708 9.93684 19.71C9.98569 19.9052 10.1608 20.0354 10.3533 20.0354V20.0354Z" fill="#A8ACB1" stroke="#A8ACB1" stroke-width="0.5"/>
<path d="M22.4885 17.6611H23.3478C23.917 17.6402 23.9173 16.8228 23.3478 16.8018H22.4885C21.9194 16.8227 21.9191 17.6401 22.4885 17.6611Z" fill="#A8ACB1" stroke="#A8ACB1" stroke-width="0.5"/>
<path d="M23.7477 25.4207C23.5375 25.5344 23.3117 25.6103 23.0766 25.6464C22.5158 25.7532 22.644 26.5636 23.2071 26.4959C23.5399 26.4448 23.8593 26.3373 24.1565 26.1766C24.6473 25.8889 24.2575 25.1673 23.7477 25.4207V25.4207Z" fill="#A8ACB1" stroke="#A8ACB1" stroke-width="0.5"/>
<path d="M23.3027 21.5571C23.8537 21.6876 24.0733 20.8969 23.5273 20.7276C23.2172 20.6397 22.8858 20.6187 22.5635 20.6258C22.3262 20.6258 22.1338 20.8182 22.1338 21.0555C22.1338 21.2928 22.3262 21.4852 22.5635 21.4852H22.7595C22.9436 21.4852 23.1263 21.5094 23.3027 21.5571Z" fill="#A8ACB1" stroke="#A8ACB1" stroke-width="0.5"/>
<path d="M25.0582 22.4562C24.8306 22.5233 24.7005 22.7623 24.7677 22.9899C24.8239 23.1801 24.8523 23.3779 24.8523 23.5777C24.7592 24.3342 25.7865 24.3385 25.7117 23.5777C25.7117 23.2955 25.6714 23.0159 25.5919 22.7466C25.5247 22.519 25.2859 22.389 25.0582 22.4562Z" fill="#A8ACB1" stroke="#A8ACB1" stroke-width="0.5"/>
<path d="M17.1271 25.6704H16.2678C15.6987 25.6914 15.6984 26.5087 16.2678 26.5298H17.1271C17.6963 26.5088 17.6965 25.6915 17.1271 25.6704Z" fill="#A8ACB1" stroke="#A8ACB1" stroke-width="0.5"/>
<path d="M20.5646 25.6704H19.7053C19.1362 25.6914 19.1359 26.5087 19.7053 26.5298H20.5646C21.1338 26.5088 21.1341 25.6915 20.5646 25.6704Z" fill="#A8ACB1" stroke="#A8ACB1" stroke-width="0.5"/>
<path d="M19.051 17.6611H19.9104C20.4795 17.6402 20.4798 16.8228 19.9104 16.8018H19.051C18.4818 16.8227 18.4816 17.6401 19.051 17.6611Z" fill="#A8ACB1" stroke="#A8ACB1" stroke-width="0.5"/>
<path d="M20.4152 21.0557C20.4152 20.8183 20.2229 20.626 19.9855 20.626H19.1262C18.5571 20.6469 18.5568 21.4643 19.1262 21.4853H19.9855C20.2229 21.4853 20.4152 21.293 20.4152 21.0557Z" fill="#A8ACB1" stroke="#A8ACB1" stroke-width="0.5"/>
</svg>
