<svg fill="none" height="310" viewBox="0 0 310 310" width="310" xmlns="http://www.w3.org/2000/svg" xmlns:xlink="http://www.w3.org/1999/xlink"><mask id="a" height="42" maskUnits="userSpaceOnUse" width="20" x="174" y="209"><path d="m193.654 250.74v-41.511h-19.075v41.511z" fill="#fff"/></mask><mask id="b" height="42" maskUnits="userSpaceOnUse" width="20" x="174" y="209"><path d="m193.654 250.74v-41.511h-19.075v41.511z" fill="#fff"/></mask><mask id="c" height="20" maskUnits="userSpaceOnUse" width="20" x="218" y="209"><path d="m237.885 228.304v-19.075h-19.075v19.075z" fill="#fff"/></mask><mask id="d" height="20" maskUnits="userSpaceOnUse" width="20" x="218" y="209"><path d="m237.885 228.304v-19.075h-19.075v19.075z" fill="#fff"/></mask><path d="m155.158 291.725c-80.1126 0-145.28788-65.021-145.28788-144.935 0-79.9234 65.17528-144.94393 145.28788-144.94393 80.114 0 145.281 65.02053 145.281 144.93593 0 79.922-65.175 144.943-145.281 144.943zm0-288.45245c-79.3298 0-143.866 64.37505-143.866 143.51745 0 79.134 64.5362 143.516 143.858 143.516 79.323 0 143.859-64.382 143.859-143.516.008-79.1424-64.528-143.51745-143.851-143.51745z" fill="#b5eeec"/><path d="m164.824 298.933c79.643-5.679 139.593-74.694 133.9-154.149-5.693-79.4545-74.872-139.26137-154.516-133.582-79.6439 5.6793-139.59304 74.6941-133.9002 154.149 5.6928 79.455 74.8719 139.262 154.5162 133.582z" fill="#b5eeec"/><g fill="#fff"><path clip-rule="evenodd" d="m218.83 109.15c.855 0 1.669.152 2.42.43.344-.374.831-.613 1.382-.613.256 0 .495.048.719.143.12-1.602 1.462-2.869 3.099-2.869.711 0 1.366.239 1.894.638.112-.159.255-.295.407-.407-.295-.533-.471-1.139-.471-1.793 0-1.012.407-1.92 1.07-2.582.663-.661 1.582-1.067 2.596-1.067h.016c.559-.295 1.191-.463 1.87-.463.415 0 .806.064 1.182.176.168-.359.455-.662.815-.8451-.096-.4542-.152-.9244-.152-1.4105 0-1.833.743-3.4905 1.949-4.6939 1.206-1.2033 2.868-1.9445 4.705-1.9445.583 0 1.15.0718 1.693.2152 3.931.0558 7.102 3.2594 7.102 7.1962v.1673c.343-.0876.711-.1354 1.086-.1354.743 0 1.446.1832 2.069.51 1.055-1.4345 2.748-2.3589 4.665-2.3589 3.196 0 5.776 2.5816 5.776 5.7616 0 .63-.104 1.227-.288 1.793h.176c1.574 0 2.844 1.267 2.844 2.837 0 .183-.016.367-.056.542h.056c.886 0 1.613.701 1.637 1.578.248-.048.503-.072.759-.072 1.023 0 1.989.359 2.676 1.004 1.845 1.746-.168 2.2-2.117 2.2h-2.532-1.989-40.795-3.188-5.232c-2.029 0-4.921.335-2.908-1.785 1.286-1.323 3.076-2.152 5.065-2.152zm17.526-9.4194c.104-.016.199-.024.311-.024h.056c-.008-.1434-.016-.2948-.016-.4303 0-3.1638 2.045-5.8573 4.889-6.8136-1.39.1673-2.636.8049-3.579 1.7372-1.102 1.0998-1.789 2.6219-1.789 4.3034 0 .4224.048.8368.128 1.2273zm-7.118 6.4944c.184-.063.384-.095.591-.095.104 0 .2.008.304.024-.208-.486-.319-1.012-.319-1.57 0-1.116.455-2.12 1.19-2.845-.48.151-.911.414-1.262.765-.56.558-.911 1.339-.911 2.191.008.558.152 1.084.407 1.53z" fill-rule="evenodd"/><path clip-rule="evenodd" d="m30.3038 176.45c.8547 0 1.6695.151 2.4204.43.3435-.375.8308-.614 1.382-.614.2556 0 .4952.056.7189.144.1198-1.602 1.4618-2.861 3.0994-2.861.7109 0 1.366.239 1.8932.637.1118-.159.2476-.295.4074-.406-.2956-.526-.4713-1.14-.4713-1.785 0-1.012.4074-1.921 1.0704-2.582.663-.662 1.5817-1.068 2.5961-1.068h.008c.5592-.295 1.1903-.462 1.8693-.462.4153 0 .8148.063 1.1822.175.1678-.367.4553-.661.8148-.845-.0959-.454-.1518-.924-.1518-1.41 0-1.833.7429-3.491 1.9491-4.694s2.8678-1.945 4.705-1.945c.5832 0 1.1503.072 1.6935.216 3.9302.055 7.1015 3.251 7.1015 7.196v.167c.3515-.088.7109-.135 1.0864-.135.7429 0 1.4458.183 2.0689.51 1.0544-1.435 2.7479-2.359 4.6651-2.359 3.1873 0 5.7754 2.582 5.7754 5.761 0 .63-.0958 1.228-.2876 1.794h.1758c1.5736 0 2.8438 1.267 2.8438 2.837 0 .183-.016.366-.056.541h.056c.8866 0 1.6136.702 1.6375 1.578.2477-.047.5033-.071.7589-.071 1.0225 0 1.9811.358 2.676 1.012 1.8453 1.745-.1677 2.199-2.1168 2.199h-2.5083-1.997-40.7875-3.1873-5.2322c-2.029 0-4.9207.335-2.9077-1.785 1.2701-1.347 3.0595-2.175 5.0485-2.175zm17.526-9.42c.1038-.016.2077-.024.3115-.024h.056c-.008-.143-.016-.295-.016-.438 0-3.164 2.0449-5.85 4.8887-6.814-1.3899.167-2.6361.805-3.5787 1.737-1.1023 1.1-1.7893 2.622-1.7893 4.304 0 .43.0479.836.1278 1.235zm-7.1094 6.495c.1837-.064.3834-.096.5911-.096.1038 0 .1997.008.3035.024-.2077-.486-.3195-1.012-.3195-1.57 0-1.115.4553-2.12 1.1902-2.853-.4793.152-.9106.423-1.2621.765-.5671.566-.9106 1.339-.9106 2.2 0 .558.1437 1.076.4074 1.53z" fill-rule="evenodd"/><path clip-rule="evenodd" d="m99.9609 55.423c.8551 0 1.6691.1594 2.4201.4303.344-.3745.831-.6057 1.382-.6057.256 0 .496.0479.719.1435.12-1.6018 1.462-2.8609 3.1-2.8609.711 0 1.366.239 1.885.6375.112-.1594.255-.2949.407-.4064-.295-.534-.471-1.1396-.471-1.7931 0-1.0121.407-1.9206 1.07-2.582.663-.6615 1.582-1.0679 2.596-1.0679h.008c.56-.2948 1.191-.4622 1.87-.4622.415 0 .806.0638 1.182.1753.168-.3666.455-.6614.815-.8447-.096-.4543-.152-.9244-.152-1.4106 0-1.8329.743-3.4905 1.949-4.6938s2.868-1.9445 4.705-1.9445c.583 0 1.15.0717 1.694.2152 3.93.0558 7.101 3.2594 7.101 7.1962v.1673c.351-.0877.711-.1355 1.086-.1355.743 0 1.446.1833 2.069.5101 1.055-1.4345 2.748-2.3589 4.665-2.3589 3.188 0 5.776 2.582 5.776 5.7617 0 .6296-.104 1.2273-.288 1.7931h.176c1.574 0 2.844 1.2671 2.844 2.837 0 .1833-.016.3666-.048.5419h.064c.886 0 1.613.7013 1.637 1.5859.248-.0478.504-.0718.759-.0718 1.023 0 1.989.3507 2.676 1.0042 1.845 1.7452-.168 2.1995-2.117 2.1995h-2.54-1.989-40.787-3.188-5.2319c-2.029 0-4.9207.3267-2.9077-1.7851 1.2861-1.3468 3.0755-2.1756 5.0645-2.1756zm17.5261-9.4116c.104-.016.2-.0239.311-.0239h.056c-.008-.1435-.016-.2949-.016-.4383 0-3.1638 2.045-5.8494 4.889-6.8137-1.39.1674-2.636.8049-3.579 1.7373-1.102 1.0997-1.789 2.6218-1.789 4.3033 0 .4224.048.8368.128 1.2353zm-7.118 6.4949c.184-.0638.384-.0957.592-.0957.103 0 .199.008.303.0239-.208-.4861-.319-1.02-.319-1.5779 0-1.1157.455-2.1198 1.19-2.8529-.479.1514-.911.4223-1.262.765-.559.5578-.911 1.3388-.911 2.1915 0 .5658.152 1.0918.407 1.5461z" fill-rule="evenodd"/><path clip-rule="evenodd" d="m118.972 130.141h-3.475l1.734-2.798z" fill-rule="evenodd"/><path d="m118.988 130.499c-.008 0-.008 0-.016 0h-3.475c-.128 0-.247-.071-.311-.183s-.056-.247.008-.359l1.741-2.797c.128-.207.471-.207.607 0l1.686 2.718c.072.063.12.159.12.263 0 .199-.16.358-.36.358zm-2.852-.709h2.197l-1.102-1.769z"/><path clip-rule="evenodd" d="m246.734 62.2034h-3.474l1.733-2.7972z" fill-rule="evenodd"/><path d="m246.75 62.562c-.008 0-.008 0-.016 0h-3.474c-.128 0-.248-.0717-.312-.1833s-.064-.247.008-.3586l1.741-2.7972c.128-.2072.48-.2072.608 0l1.693 2.7175c.072.0638.12.1594.12.263-.008.1992-.168.3586-.368.3586zm-2.851-.7093h2.196l-1.102-1.7691z"/></g><path d="m246.575 67.1203c-.12 0-.24-.0637-.304-.1673l-1.741-2.7972c-.064-.1116-.072-.2471-.008-.3586.064-.1116.183-.1833.311-.1833h3.475c.128 0 .248.0717.312.1833.063.1115.063.247-.008.3586l-1.742 2.7972c-.056.1036-.168.1673-.295.1673zm-1.095-2.7972 1.103 1.7692 1.102-1.7692z" fill="#f9daac"/><path clip-rule="evenodd" d="m36.4067 134.356h-3.4748l1.7334-2.805z" fill="#fff" fill-rule="evenodd"/><path d="m36.4227 134.707c-.008 0-.008 0-.016 0h-3.4749c-.1278 0-.2476-.072-.3115-.183-.0639-.112-.0559-.255.008-.359l1.7414-2.797c.1278-.207.4793-.207.6071 0l1.6855 2.717c.0719.064.1198.16.1198.271 0 .192-.1597.351-.3594.351zm-2.8518-.709h2.1967l-1.1023-1.769z" fill="#fff"/><path d="m36.2469 139.265c-.1198 0-.2396-.063-.3035-.167l-1.7415-2.797c-.0719-.112-.0719-.247-.008-.359.064-.111.1838-.183.3116-.183h3.4748c.1278 0 .2477.072.3116.183.0639.112.0559.247-.008.359l-1.7414 2.797c-.056.104-.1678.167-.2956.167zm-1.0944-2.797 1.1024 1.769 1.1024-1.769z" fill="#f9daac"/><path clip-rule="evenodd" d="m270.236 170.425h-3.475l1.741-2.797z" fill="#fff" fill-rule="evenodd"/><path d="m270.26 170.783c-.008 0-.008 0-.016 0h-3.475c-.128 0-.248-.071-.312-.183-.064-.111-.056-.247.008-.358l1.742-2.798c.064-.103.175-.167.303-.167.12 0 .24.064.304.167l1.685 2.718c.072.064.12.159.12.263-.008.199-.168.358-.359.358zm-2.86-.709h2.197l-1.103-1.769z" fill="#fff"/><path d="m270.084 175.342c-.12 0-.24-.064-.304-.167l-1.741-2.798c-.064-.111-.072-.247-.008-.358.064-.112.184-.184.311-.184h3.475c.128 0 .248.072.312.184.064.111.056.247-.008.358l-1.742 2.798c-.063.103-.175.167-.295.167zm-1.102-2.805 1.102 1.769 1.102-1.769z" fill="#f9daac"/><path d="m47.1668 226.639c-.1198 0-.2396-.063-.3035-.167l-1.7414-2.797c-.0719-.112-.0719-.247-.008-.359.0639-.111.1837-.183.3115-.183h3.4748c.1279 0 .2477.072.3116.183.0639.112.0639.247-.008.359l-1.7414 2.797c-.0559.104-.1758.167-.2956.167zm-1.1023-2.797 1.1023 1.769 1.1024-1.769z" fill="#f9daac"/><path d="m235 100.416c10.809 0 19.568 8.76 19.568 19.568 0 18.06-19.568 33.431-19.568 33.431s-19.568-15.361-19.568-33.431c0-10.808 8.759-19.568 19.568-19.568z" fill="#fff100"/><path d="m235 132.438c6.546 0 11.853-5.307 11.853-11.853s-5.307-11.853-11.853-11.853-11.853 5.307-11.853 11.853 5.307 11.853 11.853 11.853z" fill="#fff" stroke="#2c3033" stroke-miterlimit="10"/><path d="m239.099 114.585c-1.951-.138-3.853 1.704-4.109 3.074-.246-1.37-2.148-3.212-4.109-3.074-1.951.138-3.438 1.892-3.438 4.227 0 4.404 7.547 8.848 7.547 8.848s7.547-4.444 7.547-8.848c0-2.335-1.478-4.089-3.438-4.227z" fill="#ff0a07"/><path d="m189.145 299.139h-76.518c-4.443 0-8.049-3.606-8.049-8.05v-176.021c0-4.444 3.606-8.05 8.049-8.05h76.518c4.443 0 8.05 3.606 8.05 8.05v176.011c0 4.454-3.607 8.06-8.05 8.06z" fill="#231f20"/><path d="m104.578 276.763v14.316c0 4.444 3.606 8.05 8.049 8.05h76.518c4.443 0 8.05-3.606 8.05-8.05v-14.316z" fill="#696969"/><path d="m197.195 129.384v-14.316c0-4.444-3.607-8.05-8.05-8.05h-76.518c-4.443 0-8.049 3.606-8.049 8.05v14.316z" fill="#696969"/><path d="m119.919 107.018h-7.292c-4.443 0-8.049 3.606-8.049 8.05v14.316h7.291v-14.316c-.01-4.444 3.596-8.05 8.05-8.05z" fill="#231f20"/><path d="m119.919 299.139h-7.292c-4.443 0-8.049-3.606-8.049-8.05v-14.316h7.291v14.316c-.01 4.444 3.596 8.05 8.05 8.05z" fill="#231f20"/><path d="m189.825 273.275h-77.877c-2.434 0-4.415-1.97-4.415-4.414v-131.595c0-2.434 1.971-4.414 4.415-4.414h77.886c2.434 0 4.415 1.971 4.415 4.414v131.605c-.01 2.434-1.981 4.404-4.424 4.404z" fill="#f7f4c4"/><path d="m118.441 265.334v-124.531c0-1.576 1.281-2.847 2.847-2.847h-5.813c-1.577 0-2.848 1.281-2.848 2.847v124.531c0 1.576 1.281 2.847 2.848 2.847h5.813c-1.566 0-2.847-1.281-2.847-2.847z" fill="#fdebf5"/><path d="m161.064 121.393h-20.346c-1.399 0-2.532-1.133-2.532-2.532s1.133-2.532 2.532-2.532h20.346c1.399 0 2.532 1.133 2.532 2.532s-1.133 2.532-2.532 2.532z" stroke="#2c3033" stroke-miterlimit="10"/><path d="m134.107 140.567h-12.888-35.3324-12.8875l-5.5472 71.138h12.8876 46.4365 12.888z" fill="#314eb0"/><path d="m134.777 149.05h-62.4381l8.7296-4.237-8.0695-4.246h61.108l-6.868 4.246z" fill="#fff" stroke="#2c3033" stroke-linecap="round" stroke-linejoin="round" stroke-miterlimit="10"/><path d="m90.8328 158.174c-2.2366 0-4.0594-1.823-4.0594-4.06 0-2.236 1.8228-4.059 4.0594-4.059s4.0594 1.823 4.0594 4.059c0 2.237-1.8228 4.06-4.0594 4.06z" fill="#f4eef1"/><path d="m93.5029 154.114c0 1.478-1.1922 2.671-2.6702 2.671-1.4779 0-2.6701-1.193-2.6701-2.671 0-1.477 1.1922-2.67 2.6701-2.67 1.478 0 2.6702 1.193 2.6702 2.67z" fill="#314eb0"/><path d="m117.169 158.174c-2.236 0-4.059-1.823-4.059-4.06 0-2.236 1.823-4.059 4.059-4.059 2.237 0 4.06 1.823 4.06 4.059-.01 2.237-1.823 4.06-4.06 4.06z" fill="#f4eef1"/><path d="m119.84 154.114c0 1.478-1.192 2.671-2.67 2.671s-2.67-1.193-2.67-2.671c0-1.477 1.192-2.67 2.67-2.67s2.67 1.193 2.67 2.67z" fill="#314eb0"/><path d="m117.17 155.031c-.769 0-1.38-.621-1.38-1.38v-28.139c0-6.493-5.291-11.784-11.784-11.784-6.4928 0-11.7838 5.291-11.7838 11.784v28.139c0 .769-.6207 1.38-1.3794 1.38-.7685 0-1.3794-.621-1.3794-1.38v-28.139c0-8.021 6.5226-14.553 14.5526-14.553 8.02 0 14.553 6.523 14.553 14.553v28.139c-.02.759-.641 1.38-1.399 1.38z" fill="#fff100"/><path d="m154.054 257.848h104.352v-71.857h-104.352z" fill="#a8acb1"/><path d="m154.059 181.2h104.352v21.006c-1.094 1.193-2.661 1.941-4.405 1.941-3.3 0-5.97-2.67-5.97-5.97 0 3.3-2.671 5.97-5.971 5.97-3.301 0-5.971-2.67-5.971-5.97 0 3.3-2.67 5.97-5.971 5.97s-5.971-2.67-5.971-5.97c0 3.3-2.67 5.97-5.971 5.97-3.3 0-5.971-2.67-5.971-5.97 0 3.3-2.67 5.97-5.97 5.97-3.301 0-5.971-2.67-5.971-5.97 0 3.3-2.67 5.97-5.971 5.97s-5.971-2.67-5.971-5.97c0 3.3-2.67 5.97-5.971 5.97-3.3 0-5.971-2.67-5.971-5.97 0 3.3-2.67 5.97-5.97 5.97-3.301 0-5.971-2.67-5.971-5.97 0 3.3-2.67 5.97-5.971 5.97-1.724 0-3.281-.739-4.365-1.911v-21.036z" fill="#a8acb1" opacity=".5"/><path d="m254.026 197.467c3.301 0 5.971-2.67 5.971-5.971v-16.976h-11.952v16.976c0 3.301 2.68 5.971 5.981 5.971z" fill="#fff100"/><path d="m242.074 197.467c3.301 0 5.971-2.67 5.971-5.971v-16.976h-11.951v16.976c.01 3.301 2.68 5.971 5.98 5.971z" fill="#231f20"/><path d="m158.443 197.467c3.301 0 5.971-2.67 5.971-5.971v-16.976h-11.951v16.976c.009 3.301 2.68 5.971 5.98 5.971z" fill="#fff100"/><path d="m230.123 197.467c3.301 0 5.971-2.67 5.971-5.971v-16.976h-11.952v16.976c.01 3.301 2.69 5.971 5.981 5.971z" fill="#fff100"/><path d="m218.181 197.467c3.301 0 5.971-2.67 5.971-5.971v-16.976h-11.951v16.976c.01 3.301 2.68 5.971 5.98 5.971z" fill="#231f20"/><path d="m206.23 197.467c3.3 0 5.971-2.67 5.971-5.971v-16.976h-11.952v16.976c.01 3.301 2.68 5.971 5.981 5.971z" fill="#fff100"/><path d="m194.288 197.467c3.301 0 5.971-2.67 5.971-5.971v-16.976h-11.952v16.976c0 3.301 2.68 5.971 5.981 5.971z" fill="#231f20"/><path d="m182.337 197.467c3.3 0 5.97-2.67 5.97-5.971v-16.976h-11.951v16.976c.01 3.301 2.68 5.971 5.981 5.971z" fill="#fff100"/><path d="m170.385 197.467c3.301 0 5.971-2.67 5.971-5.971v-16.976h-11.952v16.976c.01 3.301 2.69 5.971 5.981 5.971z" fill="#231f20"/><path d="m236.626 165.889h8.69l14.681 8.631h-11.952z" fill="#f1f47d"/><path d="m227.945 165.889h8.681l11.419 8.631h-11.942z" fill="#231f20"/><path d="m219.255 165.889h8.69l8.159 8.631h-11.952z" fill="#f1f47d"/><path d="m167.153 165.889h8.681l-11.42 8.631h-11.942z" fill="#f1f47d"/><path d="m210.575 165.889h8.68l4.897 8.631h-11.942z" fill="#231f20"/><path d="m201.894 165.889h8.681l1.635 8.631h-11.951z" fill="#f1f47d"/><path d="m193.204 165.889h8.69l-1.635 8.631h-11.952z" fill="#231f20"/><path d="m184.524 165.889h8.68l-4.897 8.631h-11.941z" fill="#f1f47d"/><path d="m175.834 165.889h8.69l-8.158 8.631h-11.952z" fill="#231f20"/><path d="m215.522 231.592h25.638v-25.637h-25.638z" fill="#231f20" stroke="#2c3033" stroke-miterlimit="10"/><path d="m237.885 228.304v-19.075h-19.075v19.075z" fill="#314eb0"/><path d="m171.3 254.026h25.637v-48.072h-25.637z" fill="#231f20" stroke="#2c3033" stroke-miterlimit="10"/><path d="m193.654 250.74v-41.511h-19.075v41.511z" fill="#314eb0"/><g mask="url(#a)"><path d="m183.598 250.742h-12.228l22.82-41.51h12.227z" fill="#ccf0ef" opacity=".8"/></g><g mask="url(#b)"><path d="m166.483 250.742h-4.63l22.819-41.51h4.621z" fill="#ccf0ef" opacity=".8"/></g><g mask="url(#c)"><path d="m227.827 250.742h-12.227l22.819-41.511h12.228z" fill="#ccf0ef" opacity=".8"/></g><g mask="url(#d)"><path d="m210.703 250.742h-4.621l22.819-41.511h4.621z" fill="#ccf0ef" opacity=".8"/></g><path d="m274.796 257.855h-137.132v3.39h137.132z" fill="#231f20"/><path d="m137.664 257.855h137.142" stroke="#2c3033" stroke-miterlimit="10"/><path d="m223.048 244.899c-10.158 10.158-10.158 26.622 0 36.771 10.159 10.158 26.623 10.158 36.771 0 10.159-10.158 10.159-26.623 0-36.771-10.148-10.158-26.612-10.158-36.771 0zm32.643 32.642c-7.863 7.863-20.652 7.863-28.514 0-7.863-7.862-7.863-20.651 0-28.514 7.862-7.862 20.651-7.862 28.514 0 7.863 7.863 7.863 20.652 0 28.514z" fill="#231f20"/><path d="m254.43 276.28c-7.163 7.163-18.829 7.163-25.992 0s-7.163-18.829 0-25.992 18.829-7.163 25.992 0 7.163 18.829 0 25.992z" stroke="#231f20" stroke-miterlimit="10"/><path d="m254.706 265.836c-1.409 0-2.552-1.143-2.552-2.552 0-2.877-1.113-5.567-3.133-7.586-2.02-2.02-4.72-3.134-7.587-3.134-1.409 0-2.552-1.143-2.552-2.552 0-1.408 1.143-2.551 2.552-2.551 4.237 0 8.207 1.645 11.193 4.63 2.985 2.986 4.631 6.957 4.631 11.193 0 1.409-1.143 2.552-2.552 2.552z" fill="#fff" stroke="#231f20" stroke-miterlimit="10"/><path d="m260.877 276.149-6.577 6.577 11.579 11.579 6.577-6.576z" fill="#231f20"/><path d="m273.535 295.385c-1.813 1.813-4.759 1.813-6.582 0l-5.429-5.429 6.582-6.582 5.429 5.429c1.813 1.823 1.813 4.759 0 6.582z" fill="#fff100"/><path d="m76.3491 299.139h162.0699" stroke="#2c3033" stroke-miterlimit="10"/><path d="m114.953 197.605h-81.4935v42.2h81.4935z" fill="#fff" stroke="#2c3033" stroke-miterlimit="10"/><path d="m39.1545 228.415v-19.43c3.1431 0 5.695-2.552 5.695-5.695h58.7325c0 3.143 2.552 5.695 5.695 5.695v19.43c-3.143 0-5.695 2.552-5.695 5.695h-58.7424c0-3.143-2.542-5.695-5.6851-5.695z" fill="#231f20"/><path d="m74.211 234.337c8.6358 0 15.6365-7.001 15.6365-15.637s-7.0007-15.636-15.6365-15.636-15.6365 7-15.6365 15.636 7.0007 15.637 15.6365 15.637z" fill="#fff" stroke="#2c3033" stroke-miterlimit="10"/></svg>