<svg fill="none" height="25" viewBox="0 0 24 25" width="24" xmlns="http://www.w3.org/2000/svg"><path clip-rule="evenodd" d="m20.5042 4.00474c-2.257-2.25893-5.2573-3.503798-8.4536-3.50474-6.58648 0-11.946979 5.35955-11.950276 11.9494-.0009422 2.1058.549661 4.1618 1.595756 5.9747l-1.69608 6.1913 6.33453-1.6622c1.74554.9524 3.71057 1.454 5.71047 1.455h.0052c6.5855 0 11.947-5.3605 11.9503-11.9504.0014-3.19195-1.2407-6.19507-3.4963-8.45306zm-8.4536 18.38516h-.0042c-1.7828 0-3.52971-.4795-5.05529-1.3847l-.36267-.2153-3.75908.9858 1.0037-3.6653-.23597-.3759c-.99476-1.5816-1.51946-3.4091-1.51804-5.2851.00188-5.47639 4.45852-9.93162 9.93675-9.93162 2.6527 0 5.1467 1.0348 7.0217 2.91175 1.8751 1.87789 2.9071 4.3728 2.9061 7.02647-.0033 5.4782-4.459 9.9339-9.933 9.9339zm5.4481-7.4386c-.2986-.1497-1.7662-.8723-2.0408-.9716-.2732-.0994-.4724-.1498-.6721.1488-.1998.2986-.7706.9717-.9454 1.1714-.1738.1987-.3485.2242-.6471.0744s-1.2609-.4644-2.4017-1.4822c-.88733-.7918-1.48692-1.7696-1.66072-2.0692-.1738-.2995-.0179-.4601.13047-.609.13471-.1337.29862-.3485.44792-.5233.15072-.1728.20018-.2972.30053-.4973.0994-.1988.0504-.37402-.02499-.52333-.07536-.14883-.67212-1.61884-.92034-2.21654-.2421-.58263-.48843-.5035-.67212-.51245-.1738-.00895-.37257-.00989-.57274-.00989-.19877 0-.52235.07441-.796.37397-.27318.29956-1.04516 1.02208-1.04516 2.49114 0 1.47 1.07012 2.8896 1.21896 3.0888.14884.1988 2.10492 3.2156 5.10049 4.5085.7126.3076 1.2689.4913 1.7022.6288.7155.227 1.3664.195 1.8812.1187.5737-.0853 1.7663-.7225 2.0154-1.4196.2492-.6971.2492-1.2962.1738-1.4196-.0744-.1267-.2732-.2012-.5718-.3505z" fill="#000" fill-rule="evenodd"/></svg>