<svg width="96" height="98" viewBox="0 0 96 98" fill="none" xmlns="http://www.w3.org/2000/svg">
<path d="M63.108 75.5089C63.1068 75.5089 63.1056 75.5089 63.1045 75.5089C54.0517 75.5032 43.67 70.4505 34.6212 61.6469C34.6058 61.632 34.5905 61.6167 34.5754 61.6013C25.7717 52.5528 20.7193 42.1708 20.7134 33.118C20.7134 29.7849 22.4206 26.2793 25.5207 23.2453C27.6537 21.1581 30.8027 19.0518 33.0299 19.0518C36.4616 19.0518 37.3748 20.6747 38.7571 23.1312C39.0939 23.7299 39.4755 24.4084 39.9693 25.229C40.2428 25.6818 40.6195 26.2559 41.0186 26.8635C43.5536 30.7257 45.15 33.4265 44.279 35.6851C43.5961 37.4429 41.7894 38.8854 40.0421 40.2801C39.3955 40.7966 38.4683 41.5365 38.0576 41.9838C38.3748 43.7472 40.6851 47.4805 44.7138 51.5089C48.7371 55.5322 52.4658 57.8419 54.234 58.1637C54.6796 57.7528 55.4141 56.8325 55.927 56.1901C57.3275 54.4357 58.7756 52.622 60.5386 51.943C60.9452 51.7862 61.3909 51.7064 61.8623 51.7064C63.8746 51.7064 66.2388 53.1562 69.359 55.2042C69.9666 55.6028 70.5407 55.9797 70.997 56.2553C71.8144 56.747 72.4929 57.1289 73.0915 57.4656C75.5478 58.8481 77.1708 59.7611 77.1708 63.1926C77.1708 65.4189 75.0632 68.5674 72.9744 70.7002C69.9407 73.7979 66.4367 75.5061 63.108 75.5089ZM37.9383 58.2844C45.9874 66.1068 55.394 70.7798 63.1052 70.7859C67.7677 70.7802 72.2033 64.7321 72.4478 63.1505C72.4461 62.8275 72.4272 62.6579 72.4135 62.5774C72.1726 62.3681 71.4334 61.9523 70.7753 61.5819C70.1797 61.2466 69.4381 60.8293 68.5584 60.3001C68.0228 59.9768 67.4128 59.5765 66.7671 59.1525C65.5436 58.3496 63.0835 56.735 62.0361 56.4648C61.3902 56.917 60.2571 58.3364 59.618 59.1367C57.9979 61.1663 56.5987 62.9191 54.6255 62.9259C49.8182 62.921 43.2673 56.7423 41.3738 54.8487C39.4802 52.9552 33.3015 46.4043 33.2966 41.6074C33.2966 39.6215 35.0569 38.2163 37.0952 36.5889C37.8916 35.9534 39.3022 34.8274 39.7568 34.1838C39.485 33.1348 37.8724 30.678 37.07 29.4556C36.6461 28.81 36.2458 28.2 35.9243 27.6679C35.393 26.7849 34.9757 26.0436 34.6406 25.4477C34.2703 24.7895 33.8541 24.0504 33.6451 23.8095C33.5646 23.7958 33.3948 23.7769 33.0715 23.7752C31.4887 24.0182 25.4364 28.4529 25.4364 33.1166C25.4418 40.8268 30.115 50.2341 37.9383 58.2844Z" fill="#00457A"/>
<path d="M2.36219 97.082C1.76636 97.082 1.17949 96.8564 0.731258 96.4287C0.0494578 95.7781 -0.180092 94.7846 0.146756 93.9009L7.93609 72.8463C2.23183 63.918 -0.439398 53.2992 0.40252 42.8063C1.29002 31.7466 6.06285 21.372 13.8413 13.5935C22.6072 4.82762 34.3442 0 46.8903 0C59.887 0 72.1686 5.12401 81.4732 14.4283C100.349 33.3048 100.724 63.644 82.3082 82.0602C73.5436 90.8246 61.8073 95.652 49.2635 95.652C49.2628 95.652 49.263 95.652 49.2623 95.652C40.1696 95.6518 31.3145 93.1104 23.57 88.2904L3.28393 96.8947C2.98637 97.0206 2.67298 97.082 2.36219 97.082ZM23.7941 83.2681C24.2495 83.2681 24.7019 83.3997 25.0935 83.6573C32.3149 88.4141 40.6722 90.9283 49.2623 90.9285C60.5452 90.9288 71.095 86.5933 78.9682 78.7201C95.5425 62.1458 95.168 34.8027 78.1331 17.7681C69.721 9.3558 58.6252 4.72324 46.8903 4.72324C35.6058 4.72324 25.055 9.05941 17.1814 16.9333C2.89214 31.2225 0.932703 54.0561 12.5224 71.226C12.9479 71.8566 13.0438 72.6534 12.7798 73.3666L6.47425 90.4109L22.8724 83.4557C23.1681 83.33 23.4819 83.2681 23.7941 83.2681Z" fill="#00457A"/>
</svg>
