<svg fill="none" height="16" viewBox="0 0 17 16" width="17" xmlns="http://www.w3.org/2000/svg">
    <path
        d="m7.932 10.632c-.0344.038-.06646.0781-.096.12-.03027.0446-.05449.093-.072.144-.02306.0453-.03924.0939-.048.144-.00392.0533-.00392.1067 0 .16-.0027.1049.01922.2091.064.304.03593.0993.09326.1894.16791.2641.07466.0746.16482.132.26409.1679.09576.0423.19931.0642.304.0642.1047 0 .20824-.0219.304-.0642.09928-.0359.18944-.0933.26409-.1679.07466-.0747.13198-.1648.16791-.2641.03553-.0973.05183-.2005.048-.304.00061-.1053-.01957-.2097-.05938-.3071-.03981-.0975-.09847-.1862-.17262-.2609-.07437-.075-.16285-.1345-.26034-.1751-.09748-.0406-.20205-.0615-.30766-.0615s-.21017.0209-.30766.0615-.18597.1001-.26034.1751zm.568-10.632c-1.58225 0-3.12897.469192-4.44456 1.34824-1.31559.87905-2.34097 2.12848-2.94647 3.59029-.605504 1.46181-.76393 3.07034-.455249 4.62219.308682 1.55188 1.070609 2.97728 2.189429 4.09618 1.11882 1.1188 2.54428 1.8807 4.09613 2.1894s3.16042.1502 4.62222-.4553 2.7112-1.6308 3.5903-2.9464c.879-1.3156 1.3482-2.86235 1.3482-4.4446 0-1.05058-.2069-2.09086-.609-3.06147-.402-.9706-.9913-1.85252-1.7341-2.59538-.7429-.74287-1.6248-1.33215-2.5954-1.734186-.9706-.402038-2.01092-.608964-3.0615-.608964zm0 14.4c-1.2658 0-2.50317-.3754-3.55565-1.0786-1.05247-.7032-1.87277-1.7028-2.35718-2.8722-.4844-1.16948-.61114-2.4563-.36419-3.69778.24694-1.24148.85648-2.38185 1.75154-3.2769.89506-.89506 2.03543-1.5046 3.2769-1.75155 1.24148-.24694 2.52831-.1202 3.69778.3642 1.1694.4844 2.169 1.3047 2.8722 2.35718.7032 1.05247 1.0786 2.28985 1.0786 3.55565 0 1.69738-.6743 3.3252-1.8745 4.5255-1.2002 1.2002-2.8281 1.8745-4.5255 1.8745zm0-10.4c-.42155-.00027-.83573.1105-1.20087.32115-.36514.21066-.66835.51378-.87913.87885-.05788.09105-.09675.19287-.11426.29934-.01751.10646-.0133.21537.01237.32017.02566.10479.07227.20332.137.28964s.14626.15865.23967.21264c.09341.054.19678.08854.30389.10155s.21574.00422.31936-.02584.2001-.08077.28361-.14909c.08352-.06831.15235-.15281.20236-.24841.07049-.12209.17198-.22338.2942-.29362s.26083-.10694.4018-.10638c.21218 0 .41566.08428.56569.23431s.23431.35352.23431.56569-.08428.41565-.23431.56568-.35351.23432-.56569.23432c-.21217 0-.41565.08428-.56568.23431s-.23432.35351-.23432.56569v.8c0 .21217.08429.41565.23432.56568s.35351.23432.56568.23432c.21218 0 .41566-.08429.56569-.23432s.23431-.35351.23431-.56568v-.144c.5291-.19199.9739-.56382 1.2566-1.05051.2827-.48668.3854-1.05726.2901-1.61198s-.3825-1.0583-.8115-1.4227c-.42897-.3644-.97236-.56644-1.5352-.57081z"
        fill="#231f20" />
</svg>