<svg width="178" height="178" viewBox="0 0 178 178" fill="none" xmlns="http://www.w3.org/2000/svg">
<path d="M152.969 75.0937L89 100.125L25.0312 75.0937L87.8184 61.4443C88.597 61.2751 89.403 61.2751 90.1816 61.4443L152.969 75.0937Z" fill="#FFE799"/>
<path d="M89 100.125V169.656L149.433 146.009C151.566 145.174 152.969 143.118 152.969 140.828V75.0938L89 100.125Z" fill="#FFC200"/>
<path d="M25.0312 75.0938V140.828C25.0312 143.118 26.4344 145.174 28.5669 146.009L89 169.656V100.125L25.0312 75.0938Z" fill="#FFC200"/>
<path d="M163.527 105.305L110.065 126.224C107.538 127.213 104.665 126.234 103.269 123.906L89 100.125L152.969 75.0938L166.27 97.2626C168.041 100.214 166.733 104.05 163.527 105.305Z" fill="#FFE799"/>
<path d="M14.4726 105.305L67.9344 126.224C70.4621 127.213 73.3346 126.234 74.7312 123.906L88.9999 100.125L25.0311 75.0938L11.7298 97.2626C9.95868 100.214 11.2669 104.05 14.4726 105.305Z" fill="#FFE799"/>
<path d="M89 83.4375C107.433 83.4375 122.375 68.495 122.375 50.0625C122.375 31.63 107.433 16.6875 89 16.6875C70.5675 16.6875 55.625 31.63 55.625 50.0625C55.625 68.495 70.5675 83.4375 89 83.4375Z" fill="#FD4425"/>
<path d="M105.688 44.5H72.3125C70.7765 44.5 69.5312 45.7452 69.5312 47.2812V52.8438C69.5312 54.3798 70.7765 55.625 72.3125 55.625H105.688C107.224 55.625 108.469 54.3798 108.469 52.8438V47.2812C108.469 45.7452 107.224 44.5 105.688 44.5Z" fill="white"/>
<path d="M168.655 95.8323L155.353 73.6624C154.908 73.0414 154.312 72.5537 153.559 72.3763L121.673 65.4441C123.883 60.7691 125.156 55.5678 125.156 50.0625C125.156 30.1252 108.936 13.9062 89 13.9062C69.0641 13.9062 52.8437 30.1252 52.8437 50.0625C52.8437 55.568 54.1169 60.7692 56.3273 65.4444L24.4405 72.3763C23.6886 72.5525 23.0921 73.042 22.6465 73.6624L9.34463 95.8323C6.66167 100.067 8.74761 106.183 13.4595 107.894L22.25 111.334V140.828C22.25 144.287 24.3305 147.337 27.5531 148.599L87.9869 172.246C88.6388 172.501 89.3612 172.501 90.0131 172.246L150.448 148.599C153.669 147.337 155.75 144.287 155.75 140.828V111.334L164.541 107.894C169.252 106.183 171.338 100.067 168.655 95.8323ZM89 19.4688C105.869 19.4688 119.594 33.193 119.594 50.0625C119.594 66.932 105.869 80.6562 89 80.6562C72.1305 80.6562 58.4062 66.932 58.4062 50.0625C58.4062 33.193 72.1305 19.4688 89 19.4688ZM59.211 70.5097C65.7364 79.9863 76.65 86.2188 89 86.2188C101.35 86.2188 112.264 79.9862 118.789 70.5094L143.386 75.857L88.9999 97.1387L34.6135 75.857L59.211 70.5097ZM15.4856 102.715C13.9178 102.149 13.2129 100.105 14.114 98.6937L26.2073 78.5405L84.9218 101.516L72.3464 122.476C71.6457 123.643 70.2184 124.128 68.9473 123.635L15.4856 102.715ZM86.2187 165.582L29.5806 143.419C28.5064 142.998 27.8125 141.981 27.8125 140.828V113.511L66.9211 128.815C70.6468 130.292 75.0095 128.871 77.1158 125.338L86.2187 110.166V165.582ZM150.187 140.828C150.187 141.981 149.494 142.998 148.421 143.419L91.7812 165.582V110.166L100.884 125.338C102.99 128.871 107.353 130.292 111.079 128.815L150.187 113.511V140.828ZM162.514 102.715L109.053 123.635C107.782 124.128 106.354 123.643 105.654 122.476L93.0781 101.516L151.793 78.5405L163.886 98.6937C164.787 100.105 164.082 102.149 162.514 102.715ZM105.687 41.7188H72.3125C69.246 41.7188 66.75 44.2134 66.75 47.2812V52.8438C66.75 55.9116 69.246 58.4062 72.3125 58.4062H105.687C108.754 58.4062 111.25 55.9116 111.25 52.8438V47.2812C111.25 44.2134 108.754 41.7188 105.687 41.7188ZM105.687 52.8438H72.3125V47.2812H105.687V52.8438Z" fill="#00457A"/>
</svg>
