<svg width="173" height="173" viewBox="0 0 173 173" fill="none" xmlns="http://www.w3.org/2000/svg">
<path d="M148.672 72.9846L86.5 97.3127L24.3281 72.9846L85.3516 59.7186C86.1083 59.5541 86.8917 59.5541 87.6484 59.7186L148.672 72.9846Z" fill="#C47218"/>
<path d="M86.5 97.3125V164.891L145.236 141.907C147.308 141.096 148.672 139.098 148.672 136.873V72.9844L86.5 97.3125Z" fill="#FFA000"/>
<path d="M24.3281 72.9844V136.873C24.3281 139.098 25.6919 141.096 27.7644 141.907L86.5 164.891V97.3125L24.3281 72.9844Z" fill="#FFB300"/>
<path d="M158.934 102.347L106.974 122.679C104.517 123.64 101.725 122.688 100.368 120.426L86.5 97.3125L148.672 72.9844L161.6 94.5305C163.321 97.3995 162.049 101.127 158.934 102.347Z" fill="#FFCA28"/>
<path d="M14.0661 102.347L66.0262 122.679C68.4829 123.64 71.2747 122.688 72.632 120.426L86.4999 97.3125L24.328 72.9844L11.4004 94.5305C9.67898 97.3995 10.9504 101.127 14.0661 102.347Z" fill="#FFCA28"/>
<path d="M86.5 81.0938C104.415 81.0938 118.938 66.571 118.938 48.6562C118.938 30.7415 104.415 16.2188 86.5 16.2188C68.5853 16.2188 54.0625 30.7415 54.0625 48.6562C54.0625 66.571 68.5853 81.0938 86.5 81.0938Z" fill="#E53935"/>
<path d="M102.719 43.25H70.2812C68.7884 43.25 67.5781 44.4602 67.5781 45.9531V51.3594C67.5781 52.8523 68.7884 54.0625 70.2812 54.0625H102.719C104.212 54.0625 105.422 52.8523 105.422 51.3594V45.9531C105.422 44.4602 104.212 43.25 102.719 43.25Z" fill="#E0E0E0"/>
<path d="M163.918 93.1403L150.99 71.5932C150.557 70.9897 149.977 70.5156 149.246 70.3433L118.255 63.6058C120.403 59.0621 121.641 54.0069 121.641 48.6562C121.641 29.279 105.876 13.5156 86.5002 13.5156C67.1243 13.5156 51.3596 29.279 51.3596 48.6562C51.3596 54.0071 52.597 59.0622 54.7452 63.6061L23.7542 70.3433C23.0234 70.5145 22.4436 70.9902 22.0106 71.5932L9.08234 93.1403C6.47474 97.2562 8.50209 103.2 13.0816 104.864L21.6252 108.207V136.872C21.6252 140.234 23.6473 143.198 26.7793 144.424L85.5155 167.408C86.1491 167.656 86.8513 167.656 87.4848 167.408L146.222 144.424C149.353 143.198 151.375 140.234 151.375 136.872V108.207L159.919 104.864C164.498 103.2 166.526 97.2562 163.918 93.1403ZM86.5002 18.9219C102.896 18.9219 116.235 32.2606 116.235 48.6562C116.235 65.0519 102.896 78.3906 86.5002 78.3906C70.1045 78.3906 56.7658 65.0519 56.7658 48.6562C56.7658 32.2606 70.1045 18.9219 86.5002 18.9219ZM57.548 68.5291C63.89 77.7394 74.4971 83.7969 86.5002 83.7969C98.5032 83.7969 109.11 77.7394 115.452 68.5288L139.359 73.7261L86.5001 94.4101L33.6414 73.7261L57.548 68.5291ZM15.0508 99.8295C13.527 99.2793 12.842 97.2934 13.7177 95.9214L25.4713 76.3343L82.5365 98.6641L70.3144 119.035C69.6334 120.17 68.2461 120.641 67.0107 120.162L15.0508 99.8295ZM83.797 160.93L28.7499 139.39C27.7059 138.981 27.0314 137.993 27.0314 136.872V110.322L65.0415 125.196C68.6626 126.632 72.9027 125.251 74.9499 121.817L83.797 107.072V160.93ZM145.969 136.872C145.969 137.993 145.294 138.981 144.252 139.39L89.2033 160.93V107.072L98.0505 121.818C100.098 125.251 104.338 126.632 107.959 125.196L145.969 110.322V136.872ZM157.95 99.8295L105.99 120.162C104.754 120.641 103.367 120.17 102.686 119.035L90.4638 98.6641L147.529 76.3343L159.283 95.9214C160.158 97.2934 159.473 99.2793 157.95 99.8295ZM102.719 40.5469H70.2814C67.3011 40.5469 64.8752 42.9715 64.8752 45.9531V51.3594C64.8752 54.341 67.3011 56.7656 70.2814 56.7656H102.719C105.699 56.7656 108.125 54.341 108.125 51.3594V45.9531C108.125 42.9715 105.699 40.5469 102.719 40.5469ZM102.719 51.3594H70.2814V45.9531H102.719V51.3594Z" fill="black"/>
</svg>
