<svg width="20" height="20" viewBox="0 0 20 20" fill="none" xmlns="http://www.w3.org/2000/svg">
<path d="M0.561698 5.74464C0.608468 4.72264 0.768492 4.06351 0.984901 3.50402L0.987812 3.49629C1.20226 2.92695 1.53821 2.41119 1.97227 1.98489L1.97836 1.97891L1.98434 1.97282C2.41099 1.5382 2.92694 1.20258 3.49578 0.9887L3.50559 0.984947C4.06381 0.767863 4.72165 0.608435 5.7445 0.561673M0.561698 5.74464C0.51253 6.83659 0.5 7.17508 0.5 10.0063C0.5 12.8381 0.511841 13.1758 0.561673 14.268M0.561698 5.74464L0.561698 6.02008M0.9887 16.5168C1.20258 17.0856 1.5382 17.6015 1.97282 18.0282L1.9789 18.0342L1.98487 18.0402C2.41119 18.4743 2.92697 18.8103 3.49631 19.0247L3.50481 19.0279C4.06354 19.2446 4.7217 19.4041 5.7445 19.4509M0.9887 16.5168L0.984947 16.5069C0.767863 15.9487 0.608435 15.2909 0.561673 14.268M0.9887 16.5168L0.975877 16.4492M0.561673 14.268L0.57842 14.3562M0.561673 14.268L0.561674 13.9919M0.975877 16.4492L0.57842 14.3562M0.975877 16.4492C0.807074 16.0033 0.633251 15.381 0.57842 14.3562M0.975877 16.4492C0.981799 16.4649 0.987714 16.4803 0.993618 16.4955C1.20769 17.0726 1.54689 17.5952 1.98682 18.0256C2.41712 18.4655 2.93947 18.8046 3.51639 19.0187C3.97938 19.199 4.63176 19.3875 5.74434 19.4385C6.86713 19.4896 7.21402 19.5 10.0063 19.5C12.7985 19.5 13.1457 19.4896 14.2685 19.4385C15.3825 19.3874 16.0341 19.1979 16.4954 19.019C17.0727 18.805 17.5953 18.4657 18.0257 18.0256C18.4655 17.5953 18.8046 17.073 19.0187 16.4961C19.199 16.0331 19.3875 15.3808 19.4385 14.2682C19.4896 13.1454 19.5 12.7978 19.5 10.0063C19.5 7.21472 19.4896 6.86684 19.4385 5.74405C19.3871 4.62427 19.1959 3.97168 19.0162 3.50992C18.7811 2.90322 18.4831 2.44437 18.025 1.98627C17.5678 1.52999 17.1102 1.23179 16.5031 0.996544C16.0396 0.815367 15.3866 0.625306 14.2685 0.574065C14.1712 0.569639 14.0798 0.565519 13.9921 0.561684M0.57842 14.3562C0.576873 14.3273 0.57542 14.2981 0.574065 14.2685C0.569636 14.1712 0.565512 14.0797 0.561674 13.9919M5.7445 0.561673C6.83671 0.511841 7.17508 0.5 10.0063 0.5C12.8374 0.5 13.1757 0.512517 14.2676 0.561684M5.7445 0.561673L6.02065 0.561674M14.2676 0.561684L13.9921 0.561684M14.2676 0.561684C15.2898 0.608436 15.949 0.768436 16.5085 0.984867L16.5162 0.987812C17.0856 1.20226 17.6013 1.53821 18.0276 1.97227L18.0336 1.9783L18.0396 1.98422C18.4737 2.41055 18.8096 2.92646 19.0239 3.49596L19.0276 3.50559C19.2447 4.06381 19.4041 4.72165 19.4509 5.7445M6.02065 0.561674L13.9921 0.561684M6.02065 0.561674C6.94551 0.521234 7.45669 0.512529 10.0063 0.512529C12.5561 0.512529 13.0671 0.521235 13.9921 0.561684M6.02065 0.561674C5.93287 0.565512 5.84137 0.569635 5.74405 0.574065C4.63007 0.625116 3.97846 0.814639 3.51711 0.993578C2.9377 1.20837 2.41331 1.54936 1.98195 1.99186C1.52813 2.44756 1.23108 2.90422 0.996577 3.5094C0.81539 3.9728 0.625296 4.62614 0.574051 5.74434C0.569636 5.84135 0.565525 5.93257 0.561698 6.02008M19.4509 14.268C19.4041 15.2908 19.2447 15.949 19.028 16.5077L19.0247 16.5162C18.8103 17.0856 18.4743 17.6013 18.0403 18.0276L18.0342 18.0336L18.0282 18.0397C17.6015 18.4743 17.0856 18.8099 16.5168 19.0238L16.5069 19.0276C15.9487 19.2447 15.2909 19.4041 14.268 19.4509M0.561674 13.9919C0.521234 13.067 0.512529 12.5558 0.512529 10.0063C0.512529 7.45591 0.521228 6.94544 0.561698 6.02008M0.561674 13.9919L0.561698 6.02008M8.31551 14.0881C8.85155 14.3101 9.42607 14.4244 10.0063 14.4244C11.178 14.4244 12.3018 13.9589 13.1304 13.1304C13.9589 12.3018 14.4244 11.178 14.4244 10.0063C14.4244 8.8345 13.9589 7.71072 13.1304 6.88215C12.3018 6.05359 11.178 5.5881 10.0063 5.5881C9.42607 5.5881 8.85155 5.70238 8.31551 5.92442C7.77948 6.14645 7.29242 6.47189 6.88216 6.88215C6.4719 7.29242 6.14646 7.77947 5.92442 8.31551C5.70239 8.85154 5.58811 9.42606 5.58811 10.0063C5.58811 10.5865 5.70239 11.161 5.92442 11.697C6.14646 12.2331 6.4719 12.7201 6.88216 13.1304C7.29242 13.5406 7.77948 13.8661 8.31551 14.0881ZM6.87232 6.87231C7.70349 6.04113 8.83081 5.57418 10.0063 5.57418C11.1817 5.57418 12.309 6.04113 13.1402 6.87231C13.9714 7.70349 14.4383 8.8308 14.4383 10.0063C14.4383 11.1817 13.9714 12.309 13.1402 13.1402C12.309 13.9714 11.1817 14.4383 10.0063 14.4383C8.83081 14.4383 7.70349 13.9714 6.87232 13.1402C6.04114 12.309 5.57419 11.1817 5.57419 10.0063C5.57419 8.8308 6.04114 7.70349 6.87232 6.87231ZM16.934 4.54229C16.934 4.87873 16.8004 5.20139 16.5625 5.43929C16.3246 5.67719 16.0019 5.81084 15.6655 5.81084C15.329 5.81084 15.0064 5.67719 14.7685 5.43929C14.5306 5.20139 14.3969 4.87873 14.3969 4.54229C14.3969 4.20585 14.5306 3.88319 14.7685 3.6453C15.0064 3.4074 15.329 3.27375 15.6655 3.27375C16.0019 3.27375 16.3246 3.4074 16.5625 3.6453C16.8004 3.88319 16.934 4.20585 16.934 4.54229Z" stroke="#00457A" stroke-linejoin="round"/>
</svg>
