<svg width="206" height="68" viewBox="0 0 206 68" fill="none" xmlns="http://www.w3.org/2000/svg">
<g clip-path="url(#clip0_506_1992)">
<path fill-rule="evenodd" clip-rule="evenodd" d="M22.0621 7.51438L35.6893 3.38369C37.4496 2.85117 38.8881 3.98646 38.8881 5.90574V16.7336C38.8881 18.6528 37.4496 20.6609 35.6893 21.1971L22.0621 25.3278C20.3018 25.8603 18.8633 24.725 18.8633 22.8057V11.9779C18.8633 10.0549 20.3018 8.05059 22.0621 7.51438Z" fill="#FCC214"/>
<path d="M21.2155 26.611C20.4648 26.611 19.7511 26.3891 19.1631 25.9527C18.2386 25.2649 17.7061 24.1185 17.7061 22.802V11.9742C17.7061 9.53721 19.4737 7.08912 21.7258 6.40498L35.353 2.27429C36.5179 1.91928 37.6976 2.09678 38.5851 2.75503C39.5133 3.44286 40.0421 4.58925 40.0421 5.90575V16.7336C40.0421 19.1743 38.2782 21.6187 36.0224 22.3028L22.3951 26.4335C21.9995 26.5518 21.6038 26.611 21.2155 26.611ZM36.5401 4.40435C36.3515 4.40435 36.174 4.44133 36.0224 4.48571L22.3951 8.6164C21.1304 9.001 20.0173 10.569 20.0173 11.9705V22.7983C20.0173 23.3789 20.2022 23.8412 20.5387 24.0889C20.9196 24.3737 21.393 24.3108 21.7221 24.2147L35.3493 20.084C36.6178 19.6994 37.7272 18.1314 37.7272 16.7262V5.90575C37.7272 5.32146 37.5423 4.86291 37.2057 4.61514C36.9986 4.46352 36.762 4.40805 36.5401 4.40805V4.40435Z" fill="#154576"/>
<path fill-rule="evenodd" clip-rule="evenodd" d="M17.2476 44.5575L30.8748 40.4268C32.6351 39.8943 34.0736 37.8863 34.0736 35.9633V25.1355C34.0736 23.2162 32.6351 22.0809 30.8748 22.6134L17.2476 26.7441C15.4874 27.2766 14.0488 29.2847 14.0488 31.2076V42.0354C14.0488 43.9547 15.4874 45.09 17.2476 44.5575Z" fill="#FCC214"/>
<path d="M16.404 45.8407C15.6533 45.8407 14.9395 45.6188 14.3516 45.1825C13.427 44.4946 12.8945 43.3482 12.8945 42.0317V31.2039C12.8945 28.7669 14.6622 26.3188 16.9143 25.6347L30.5415 21.504C31.7064 21.149 32.8861 21.3265 33.7736 21.9848C34.7018 22.6726 35.2306 23.819 35.2306 25.1355V35.9633C35.2306 38.404 33.4666 40.8484 31.2108 41.5325L17.5836 45.6632C17.1879 45.7815 16.7922 45.8407 16.404 45.8407ZM31.7286 23.6378C31.54 23.6378 31.3625 23.6747 31.2108 23.7191L17.5836 27.8498C16.3189 28.2344 15.2058 29.8024 15.2058 31.2039V42.0317C15.2058 42.616 15.3907 43.0746 15.7272 43.3224C16.1118 43.6071 16.5815 43.5442 16.9106 43.4481L30.5378 39.3174C31.8025 38.9328 32.9156 37.3648 32.9156 35.9633V25.1355C32.9156 24.5512 32.7307 24.0926 32.3942 23.8449C32.1871 23.6932 31.9505 23.6378 31.7286 23.6378Z" fill="#154576"/>
<path fill-rule="evenodd" clip-rule="evenodd" d="M22.0621 43.1375L35.6893 39.0068C37.4496 38.4742 38.8881 39.6095 38.8881 41.5288V52.3566C38.8881 54.2796 37.4496 56.2876 35.6893 56.8201L22.0621 60.9508C20.3018 61.4834 18.8633 60.3481 18.8633 58.4288V47.601C18.8633 45.678 20.3018 43.67 22.0621 43.1375Z" fill="#FCC214"/>
<path d="M21.2194 62.2378C20.465 62.2378 19.755 62.0122 19.167 61.5795C18.2388 60.8917 17.71 59.7453 17.71 58.4325V47.6047C17.71 45.164 19.4739 42.7196 21.7297 42.0354L35.3569 37.9048C36.5255 37.5534 37.7015 37.7273 38.589 38.3855C39.5135 39.0733 40.046 40.2197 40.046 41.5325V52.3603C40.046 54.7973 38.2784 57.2454 36.0263 57.9296L22.3991 62.0603C22.0034 62.1786 21.604 62.2378 21.2194 62.2378ZM22.3991 44.2432C21.1306 44.6278 20.0212 46.1957 20.0212 47.5973V58.4251C20.0212 59.0057 20.2061 59.4679 20.5463 59.7157C20.9272 60.0005 21.4006 59.9413 21.7297 59.8414L35.3569 55.7107C36.6217 55.3261 37.7348 53.7582 37.7348 52.3566V41.5288C37.7348 40.9482 37.5499 40.486 37.2133 40.2382C36.8324 39.9535 36.3591 40.0126 36.03 40.1125L22.4028 44.2432H22.3991Z" fill="#154576"/>
<path fill-rule="evenodd" clip-rule="evenodd" d="M29.4809 59.0316L34.255 57.5819C34.8726 57.397 35.3755 57.7927 35.3755 58.4658V62.2599C35.3755 62.933 34.8726 63.6356 34.255 63.8242L29.4809 65.2701C28.8633 65.4587 28.3604 65.0593 28.3604 64.3863V60.5921C28.3604 59.9191 28.8633 59.2165 29.4809 59.0279" fill="#FDF8F4"/>
<path d="M29.1806 66.4794C28.759 66.4794 28.3559 66.35 28.0157 66.0985C27.498 65.7139 27.2021 65.0926 27.2021 64.39V60.5958C27.2021 59.4088 28.0379 58.2624 29.1436 57.9259L33.9178 56.4762C34.5575 56.2839 35.2121 56.3875 35.715 56.761C36.2327 57.1456 36.5286 57.7668 36.5286 58.4695V62.2636C36.5286 63.4507 35.6928 64.5971 34.5871 64.9336L29.813 66.3832C29.6022 66.4461 29.3877 66.4794 29.1769 66.4794M34.2173 58.806L29.813 60.141C29.702 60.1743 29.5134 60.4146 29.5134 60.5958V64.0535L33.9178 62.7185C34.0287 62.6852 34.2173 62.4448 34.2173 62.2599V58.8023V58.806Z" fill="#154576"/>
<path fill-rule="evenodd" clip-rule="evenodd" d="M2.66292 39.0437C6.39053 34.6209 13.6535 39.0918 14.8738 44.0768C17.2294 53.7101 19.807 58.377 28.1164 59.8119L27.9352 65.5401C7.61827 69.5561 -2.95068 45.7039 2.66292 39.0437Z" fill="#EF482B"/>
<path d="M23.3897 67.1524C19.7176 67.1524 16.2341 66.2649 12.9835 64.4935C8.07622 61.8199 5.03645 57.8519 3.35015 54.9933C-0.440329 48.5662 -1.08748 41.7026 1.77849 38.3004C3.37973 36.3997 5.6799 35.6859 8.25003 36.2887C11.8223 37.1245 15.1505 40.3565 15.9937 43.8068C18.7783 55.1893 22.0437 57.593 28.3118 58.6766L29.3029 58.8467L29.0588 66.4979L28.1565 66.6754C26.5331 66.9971 24.9429 67.1561 23.386 67.1561M3.54614 39.787C1.3717 42.3646 2.14459 48.396 5.33968 53.8137C6.989 56.6094 12.7579 64.8412 23.3676 64.8412C24.4622 64.8412 25.6086 64.7524 26.8104 64.5638L26.9324 60.7548C18.7857 59.002 16.0603 53.7767 13.7527 44.3504C13.1129 41.7285 10.4651 39.1732 7.72491 38.5334C6.53414 38.2524 4.84415 38.245 3.54614 39.787Z" fill="#154576"/>
<path fill-rule="evenodd" clip-rule="evenodd" d="M9.14555 16.9887C13.0618 16.9887 16.2384 21.1527 16.2384 26.2893C16.2384 31.4258 13.0618 35.5898 9.14555 35.5898C5.22934 35.5898 2.05273 31.4258 2.05273 26.2893C2.05273 21.1527 5.22934 16.9887 9.14555 16.9887Z" fill="#FDF8F4"/>
<path d="M9.14557 36.4218C4.77451 36.4218 1.2207 31.877 1.2207 26.2892C1.2207 20.7015 4.77451 16.1567 9.14557 16.1567C13.5166 16.1567 17.0704 20.7015 17.0704 26.2892C17.0704 31.877 13.5129 36.4218 9.14557 36.4218ZM9.14557 17.8245C5.69531 17.8245 2.88851 21.6223 2.88851 26.2892C2.88851 30.9562 5.69531 34.754 9.14557 34.754C12.5958 34.754 15.4026 30.9562 15.4026 26.2892C15.4026 21.6223 12.5958 17.8245 9.14557 17.8245Z" fill="#154576"/>
<path fill-rule="evenodd" clip-rule="evenodd" d="M9.16703 16.9444C13.0832 16.9444 16.2598 21.1083 16.2598 26.2449C15.9751 30.2905 10.2986 29.6545 2.07422 26.2449C2.07422 21.1083 5.25082 16.9444 9.16703 16.9444Z" fill="#EF482B"/>
<path d="M12.4361 29.8837C9.91405 29.8837 6.37874 28.9296 1.75621 27.0141L1.24219 26.7996V26.2449C1.24219 20.6572 4.79599 16.1123 9.16705 16.1123C13.5381 16.1123 17.0956 20.6572 17.0956 26.2449V26.304C17.0032 27.5799 16.4411 28.5746 15.4648 29.1774C14.703 29.6508 13.6934 29.8874 12.4361 29.8874M2.92109 25.6902C10.7905 28.8816 13.6047 28.3638 14.5847 27.7574C15.0987 27.4393 15.3686 26.9475 15.4241 26.2153C15.413 21.5632 12.6099 17.7801 9.16705 17.7801C5.72419 17.7801 3.13188 21.2821 2.92109 25.6902Z" fill="#154576"/>
<path fill-rule="evenodd" clip-rule="evenodd" d="M2.07129 25.594C7.44822 28.3934 15.9389 28.0828 15.9648 23.7265C16.0461 23.7487 21.3565 31.0708 16.9484 32.5722C10.8504 34.6542 6.11693 28.9814 2.07129 25.5903" fill="#EF482B"/>
<path d="M14.3296 33.8554C10.0324 33.8554 6.44906 30.6233 3.46476 27.9312C2.79172 27.3247 2.15935 26.7515 1.53809 26.2338L2.45889 24.8544C6.11624 26.7589 11.471 27.1361 13.9117 25.6643C14.7289 25.1724 15.1283 24.5364 15.132 23.7228L15.1394 22.6504L16.1786 22.9203C16.3228 22.9573 16.7592 23.072 18.0498 25.4387C18.9854 27.1583 19.4846 28.6634 19.5327 29.9059C19.5955 31.607 18.7746 32.8348 17.2251 33.3636C16.2266 33.7038 15.2652 33.8554 14.3369 33.8554M5.83149 27.8091C8.997 30.5937 12.5508 33.1935 16.6815 31.7808C17.2917 31.5737 17.643 31.2372 17.7872 30.7195C18.1644 29.3734 17.1253 27.1361 16.2636 25.6606C15.9234 26.2153 15.4242 26.696 14.7733 27.088C12.695 28.3417 9.20039 28.5524 5.83519 27.8091H5.83149Z" fill="#154576"/>
<path fill-rule="evenodd" clip-rule="evenodd" d="M39.07 6.17569C39.2069 3.3578 40.6861 2.2299 41.6476 2.045C80.4509 -5.42501 82.2704 36.4181 42.3576 54.3018C41.3776 54.7418 39.377 54.0836 39.0848 52.083L38.8223 39.8721C38.9036 38.3485 40.0093 37.5941 40.6602 37.2391C52.6492 30.6788 52.6233 17.2735 39.462 20.1986L39.0737 6.17569H39.07Z" fill="#FCC214"/>
<path d="M41.6838 55.5887C41.0921 55.5887 40.4709 55.4297 39.9014 55.1154C38.8215 54.5237 38.1263 53.5067 37.9414 52.2494L37.9303 52.1052L37.6641 39.8499V39.8092C37.7232 38.7516 38.1929 37.2687 40.1011 36.2258C46.6651 32.6314 49.2943 27.0437 48.0444 23.7154C47.1088 21.2267 44.069 20.3576 39.7091 21.3265L38.3408 21.6297L37.9118 6.16091V6.11653C38.0708 2.95472 39.7904 1.22404 41.4287 0.909712C49.4793 -0.63976 56.3058 -0.214487 61.7234 2.17074C66.7342 4.37846 70.2104 8.16893 71.7783 13.1391C75.6982 25.5607 66.8859 44.5797 42.8302 55.3557C42.4826 55.511 42.0906 55.5887 41.6838 55.5887ZM40.2379 51.9794C40.3488 52.6081 40.7186 52.9298 41.0145 53.0925C41.4028 53.307 41.7726 53.2996 41.8872 53.2479C55.1927 47.2866 62.1376 39.4801 65.6211 33.9811C69.9959 27.0769 71.4344 19.7364 69.5743 13.8343C68.2134 9.51871 65.1774 6.21638 60.7915 4.28601C55.8842 2.12266 49.3387 1.74177 41.865 3.1803C41.3473 3.28015 40.3451 4.03824 40.2268 6.19049L40.5744 18.8155C45.404 18.0981 48.9578 19.581 50.2078 22.9019C51.7831 27.0954 49.1686 33.8998 41.2105 38.2524C40.4191 38.685 40.0271 39.2065 39.9753 39.8943L40.2379 51.9757V51.9794Z" fill="#154576"/>
<path d="M98.5491 49.3501C97.5432 49.3501 96.6742 49.7125 95.9568 50.43C95.2394 51.1474 94.877 52.0164 94.877 53.0223C94.877 54.0281 95.2394 54.8972 95.9568 55.6146C96.6742 56.332 97.5432 56.6944 98.5491 56.6944C99.555 56.6944 100.424 56.332 101.141 55.6146C101.859 54.8972 102.221 54.0244 102.221 53.0223C102.221 52.0201 101.859 51.1474 101.141 50.43C100.424 49.7125 99.5513 49.3501 98.5491 49.3501Z" fill="#154576"/>
<path d="M106.958 49.3501C105.952 49.3501 105.083 49.7125 104.366 50.43C103.649 51.1474 103.286 52.0164 103.286 53.0223C103.286 54.0281 103.649 54.8972 104.366 55.6146C105.083 56.332 105.952 56.6944 106.958 56.6944C107.964 56.6944 108.833 56.332 109.551 55.6146C110.268 54.8972 110.63 54.0244 110.63 53.0223C110.63 52.0201 110.268 51.1474 109.551 50.43C108.833 49.7125 107.96 49.3501 106.958 49.3501Z" fill="#154576"/>
<path d="M158.361 42.6123C157.355 42.6123 156.486 42.9747 155.768 43.6922C155.051 44.4096 154.688 45.2786 154.688 46.2845C154.688 47.2903 155.051 48.1594 155.768 48.8768C156.486 49.5942 157.355 49.9566 158.361 49.9566C159.366 49.9566 160.236 49.5942 160.953 48.8768C161.67 48.1594 162.033 47.2866 162.033 46.2845C162.033 45.2823 161.67 44.4096 160.953 43.6922C160.236 42.9747 159.363 42.6123 158.361 42.6123Z" fill="#154576"/>
<path d="M166.77 42.6123C165.764 42.6123 164.895 42.9747 164.177 43.6922C163.46 44.4096 163.098 45.2786 163.098 46.2845C163.098 47.2903 163.46 48.1594 164.177 48.8768C164.895 49.5942 165.764 49.9566 166.77 49.9566C167.776 49.9566 168.645 49.5942 169.362 48.8768C170.08 48.1594 170.442 47.2866 170.442 46.2845C170.442 45.2823 170.08 44.4096 169.362 43.6922C168.645 42.9747 167.772 42.6123 166.77 42.6123Z" fill="#154576"/>
<path d="M168.567 29.366C168.567 33.3895 165.294 36.6622 161.27 36.6622C157.247 36.6622 154.026 33.4375 153.978 29.4548V28.1974V8.48697H146.682V29.366C146.682 29.4067 146.682 29.4474 146.682 29.4881V30.3904C146.682 33.848 143.868 36.6622 140.41 36.6622C136.952 36.6622 134.138 33.848 134.138 30.3904V29.281C134.138 23.3493 129.312 18.5234 123.381 18.5234C117.449 18.5234 112.623 23.3493 112.623 29.281V37.3722C112.623 41.0666 109.616 44.0731 105.926 44.0731H100.582C96.8879 44.0731 93.8851 41.0666 93.8851 37.3722V26.0637H86.5889V37.3722C86.5889 43.0302 89.9726 47.9042 94.817 50.1082C94.9353 49.9566 95.0647 49.8087 95.2053 49.6682C96.115 48.7585 97.2725 48.274 98.552 48.274C99.8315 48.274 100.989 48.7548 101.899 49.6682C102.25 50.0195 102.538 50.4115 102.757 50.8294C102.979 50.4115 103.263 50.0195 103.615 49.6682C104.524 48.7585 105.682 48.274 106.961 48.274C108.241 48.274 109.398 48.7548 110.308 49.6682C110.545 49.9048 110.752 50.16 110.929 50.43C116.18 48.4108 119.923 43.3298 119.923 37.3759V29.2847C119.923 27.3765 121.476 25.8233 123.384 25.8233C125.292 25.8233 126.846 27.3765 126.846 29.2847V30.3941C126.846 37.8752 132.933 43.9621 140.414 43.9621C144.478 43.9621 148.131 42.1649 150.62 39.3248C151.926 40.719 153.497 41.8579 155.257 42.6604C156.134 41.8727 157.21 41.4549 158.397 41.4549C159.677 41.4549 160.834 41.9356 161.744 42.8453C162.066 43.167 162.328 43.5258 162.539 43.903C162.583 43.8993 162.628 43.8956 162.672 43.8919C162.883 43.5147 163.142 43.1633 163.46 42.8416C164.369 41.9319 165.527 41.4475 166.806 41.4475C167.505 41.4475 168.167 41.5954 168.774 41.8764C173.019 39.3211 175.867 34.669 175.867 29.366V19.8325H168.57V29.366H168.567Z" fill="#154576"/>
<path d="M193.373 19.851H182.223V27.1472H193.373C195.954 27.1472 198.051 29.281 198.051 31.9066C198.051 34.5322 195.95 36.6659 193.373 36.6659H180.744V43.9621H193.373C199.974 43.9621 205.347 38.5556 205.347 31.9103C205.347 25.2649 199.978 19.8584 193.373 19.8584V19.851Z" fill="#154576"/>
<path d="M199.187 57.4562C199.028 57.4562 198.891 57.5117 198.773 57.63C198.658 57.7447 198.603 57.8815 198.603 58.0405C198.603 58.1995 198.658 58.34 198.773 58.4547C198.887 58.5693 199.024 58.6248 199.187 58.6248C199.35 58.6248 199.483 58.5656 199.601 58.4547C199.716 58.34 199.771 58.2032 199.771 58.0405C199.771 57.8778 199.712 57.7447 199.601 57.63C199.486 57.5154 199.35 57.4562 199.187 57.4562Z" fill="#EF482B"/>
<path d="M197.815 57.4562C197.656 57.4562 197.519 57.5117 197.401 57.63C197.286 57.7447 197.23 57.8815 197.23 58.0405C197.23 58.1995 197.286 58.34 197.401 58.4547C197.515 58.5693 197.652 58.6248 197.815 58.6248C197.977 58.6248 198.111 58.5656 198.229 58.4547C198.344 58.34 198.399 58.2032 198.399 58.0405C198.399 57.8778 198.34 57.7447 198.229 57.63C198.114 57.5154 197.977 57.4562 197.815 57.4562Z" fill="#EF482B"/>
<path d="M174.939 57.4562C174.78 57.4562 174.643 57.5117 174.525 57.63C174.41 57.7447 174.354 57.8815 174.354 58.0405C174.354 58.1995 174.41 58.34 174.525 58.4547C174.639 58.5693 174.776 58.6248 174.939 58.6248C175.101 58.6248 175.235 58.5656 175.353 58.4547C175.468 58.34 175.523 58.2032 175.523 58.0405C175.523 57.8778 175.464 57.7447 175.353 57.63C175.238 57.5154 175.101 57.4562 174.939 57.4562Z" fill="#EF482B"/>
<path d="M186.691 57.4562C186.532 57.4562 186.395 57.5117 186.277 57.63C186.162 57.7447 186.106 57.8815 186.106 58.0405C186.106 58.1995 186.162 58.34 186.277 58.4547C186.391 58.5693 186.528 58.6248 186.691 58.6248C186.853 58.6248 186.987 58.5656 187.105 58.4547C187.22 58.34 187.275 58.2032 187.275 58.0405C187.275 57.8778 187.216 57.7447 187.105 57.63C186.99 57.5154 186.853 57.4562 186.691 57.4562Z" fill="#EF482B"/>
<path d="M173.563 57.4562C173.404 57.4562 173.267 57.5117 173.149 57.63C173.034 57.7447 172.979 57.8815 172.979 58.0405C172.979 58.1995 173.034 58.34 173.149 58.4547C173.263 58.5693 173.4 58.6248 173.563 58.6248C173.726 58.6248 173.859 58.5656 173.977 58.4547C174.092 58.34 174.147 58.2032 174.147 58.0405C174.147 57.8778 174.088 57.7447 173.977 57.63C173.862 57.5154 173.726 57.4562 173.563 57.4562Z" fill="#EF482B"/>
<path d="M123.152 57.4562C122.993 57.4562 122.856 57.5117 122.737 57.63C122.623 57.7447 122.567 57.8815 122.567 58.0405C122.567 58.1995 122.623 58.34 122.737 58.4547C122.852 58.5693 122.989 58.6248 123.152 58.6248C123.314 58.6248 123.448 58.5656 123.566 58.4547C123.68 58.34 123.736 58.2032 123.736 58.0405C123.736 57.8778 123.677 57.7447 123.566 57.63C123.451 57.5154 123.314 57.4562 123.152 57.4562Z" fill="#EF482B"/>
<path d="M134.908 57.4562C134.749 57.4562 134.612 57.5117 134.493 57.63C134.379 57.7447 134.323 57.8815 134.323 58.0405C134.323 58.1995 134.379 58.34 134.493 58.4547C134.608 58.5693 134.745 58.6248 134.908 58.6248C135.07 58.6248 135.203 58.5656 135.322 58.4547C135.436 58.34 135.492 58.2032 135.492 58.0405C135.492 57.8778 135.433 57.7447 135.322 57.63C135.207 57.5154 135.07 57.4562 134.908 57.4562Z" fill="#EF482B"/>
<path d="M149.511 49.7384C149.352 49.7384 149.215 49.7939 149.097 49.9122C148.982 50.0269 148.927 50.1637 148.927 50.3227C148.927 50.4817 148.982 50.6223 149.097 50.7369C149.212 50.8515 149.348 50.907 149.511 50.907C149.674 50.907 149.807 50.8478 149.925 50.7369C150.04 50.6223 150.095 50.4854 150.095 50.3227C150.095 50.16 150.036 50.0269 149.925 49.9122C149.811 49.7976 149.674 49.7384 149.511 49.7384Z" fill="#EF482B"/>
<path d="M121.78 57.4562C121.621 57.4562 121.484 57.5117 121.365 57.63C121.251 57.7447 121.195 57.8815 121.195 58.0405C121.195 58.1995 121.251 58.34 121.365 58.4547C121.48 58.5693 121.617 58.6248 121.78 58.6248C121.942 58.6248 122.075 58.5656 122.194 58.4547C122.308 58.34 122.364 58.2032 122.364 58.0405C122.364 57.8778 122.305 57.7447 122.194 57.63C122.079 57.5154 121.942 57.4562 121.78 57.4562Z" fill="#EF482B"/>
<path d="M145.506 49.7384C145.347 49.7384 145.21 49.7939 145.092 49.9122C144.977 50.0269 144.922 50.1637 144.922 50.3227C144.922 50.4817 144.977 50.6223 145.092 50.7369C145.207 50.8515 145.343 50.907 145.506 50.907C145.669 50.907 145.802 50.8478 145.92 50.7369C146.035 50.6223 146.09 50.4854 146.09 50.3227C146.09 50.16 146.031 50.0269 145.92 49.9122C145.806 49.7976 145.669 49.7384 145.506 49.7384Z" fill="#EF482B"/>
<path d="M144.134 49.7384C143.975 49.7384 143.838 49.7939 143.72 49.9122C143.605 50.0269 143.55 50.1637 143.55 50.3227C143.55 50.4817 143.605 50.6223 143.72 50.7369C143.835 50.8515 143.971 50.907 144.134 50.907C144.297 50.907 144.43 50.8478 144.548 50.7369C144.663 50.6223 144.718 50.4854 144.718 50.3227C144.718 50.16 144.659 50.0269 144.548 49.9122C144.434 49.7976 144.297 49.7384 144.134 49.7384Z" fill="#EF482B"/>
<path d="M122.896 56.4208C123.351 56.4208 123.677 56.3098 123.869 56.0879C124.065 55.866 124.161 55.5184 124.161 55.0451V52.0016C124.161 51.9277 124.124 51.8907 124.054 51.8907H123.048C122.974 51.8907 122.941 51.9277 122.941 51.9979V54.7492C122.941 54.9674 122.9 55.1191 122.815 55.2004C122.73 55.2855 122.597 55.3261 122.416 55.3261H121.706C121.706 55.3261 121.706 55.3261 121.702 55.3261C121.698 55.3261 121.702 55.3261 121.694 55.3261H121.51C121.232 55.3261 121.014 55.267 120.855 55.1523C120.696 55.0377 120.615 54.875 120.615 54.6642V53.6398C120.615 52.952 120.437 52.4528 120.078 52.1495C119.72 51.8463 119.239 51.691 118.629 51.691H116.968C116.894 51.691 116.861 51.728 116.861 51.8019V52.6747C116.861 52.7486 116.898 52.7856 116.968 52.7856H118.278C118.647 52.7856 118.928 52.8633 119.113 53.0149C119.298 53.1665 119.391 53.4106 119.391 53.7434V54.4719C119.391 54.6309 119.383 54.764 119.365 54.875C119.346 54.9822 119.306 55.071 119.246 55.1412C119.184 55.2115 119.095 55.2596 118.98 55.2892C118.866 55.3187 118.706 55.3335 118.511 55.3335H116.48C116.406 55.3335 116.373 55.3705 116.373 55.4445V56.3172C116.373 56.3912 116.41 56.4281 116.48 56.4281H118.925C119.294 56.4281 119.598 56.3875 119.831 56.3024C120.064 56.2174 120.252 56.051 120.389 55.7995C120.511 56.0583 120.685 56.2248 120.907 56.3061C121.129 56.3875 121.391 56.4281 121.698 56.4281C121.698 56.4281 121.698 56.4281 121.702 56.4281C121.702 56.4281 121.702 56.4281 121.709 56.4281H122.9L122.896 56.4208Z" fill="#EF482B"/>
<path d="M135.37 52.5156C135.174 52.2642 134.911 52.0645 134.586 51.9166C134.261 51.7686 133.85 51.691 133.362 51.691C132.911 51.691 132.53 51.776 132.216 51.9424C131.901 52.1089 131.635 52.3196 131.409 52.5748C131.365 52.6192 131.372 52.671 131.432 52.7264L131.997 53.3144C132.049 53.3588 132.101 53.3551 132.149 53.3033C132.301 53.1443 132.478 53.0149 132.674 52.9224C132.87 52.83 133.088 52.7819 133.329 52.7819C133.569 52.7819 133.78 52.8226 133.946 52.9002C134.113 52.9779 134.242 53.0925 134.346 53.2368C134.449 53.381 134.519 53.5548 134.564 53.7545C134.608 53.9542 134.63 54.1687 134.63 54.4016C134.63 54.5754 134.619 54.7234 134.597 54.8417C134.575 54.96 134.531 55.0562 134.468 55.1301C134.401 55.2041 134.312 55.2522 134.194 55.2818C134.079 55.3113 133.924 55.3261 133.736 55.3261H130.833C130.833 55.3261 130.833 55.3261 130.825 55.3261C130.825 55.3261 130.825 55.3261 130.821 55.3261H130.637C130.359 55.3261 130.141 55.267 129.982 55.1523C129.823 55.0377 129.742 54.875 129.742 54.6642V53.6398C129.742 52.952 129.564 52.4528 129.205 52.1495C128.847 51.8463 128.366 51.691 127.756 51.691H126.095C126.021 51.691 125.988 51.728 125.988 51.8019V52.6747C125.988 52.7486 126.025 52.7856 126.095 52.7856H127.404C127.774 52.7856 128.055 52.8633 128.24 53.0149C128.425 53.1665 128.518 53.4106 128.518 53.7434V54.4719C128.518 54.6309 128.51 54.764 128.492 54.875C128.473 54.9822 128.433 55.071 128.373 55.1412C128.311 55.2115 128.222 55.2596 128.107 55.2892C127.992 55.3187 127.833 55.3335 127.637 55.3335H125.607C125.533 55.3335 125.5 55.3705 125.5 55.4445V56.3172C125.5 56.3912 125.537 56.4281 125.607 56.4281H128.052C128.421 56.4281 128.725 56.3875 128.958 56.3024C129.191 56.2174 129.379 56.051 129.516 55.7995C129.638 56.0583 129.812 56.2248 130.034 56.3061C130.256 56.3875 130.518 56.4281 130.825 56.4281C130.825 56.4281 130.825 56.4281 130.833 56.4281C130.833 56.4281 130.833 56.4281 130.836 56.4281H134.209C134.494 56.4281 134.741 56.3986 134.956 56.3394C135.17 56.2802 135.348 56.1767 135.492 56.0288C135.633 55.8808 135.74 55.6774 135.814 55.4223C135.888 55.1671 135.925 54.8454 135.925 54.4497C135.925 54.0799 135.884 53.7286 135.799 53.3958C135.714 53.0629 135.577 52.7745 135.377 52.523L135.37 52.5156Z" fill="#EF482B"/>
<path d="M146.43 52.2383C146.231 52.0497 145.99 51.9129 145.717 51.8241C145.439 51.7354 145.143 51.6947 144.822 51.6947C144.522 51.6947 144.241 51.7391 143.971 51.8241C143.701 51.9129 143.465 52.0534 143.261 52.2457C143.058 52.438 142.895 52.6895 142.777 53.0001C142.658 53.3107 142.596 53.6842 142.596 54.128C142.596 54.9563 142.784 55.548 143.161 55.8956C143.539 56.2433 144.067 56.4208 144.744 56.4208H145.857V56.9126C145.857 57.0938 145.776 57.2417 145.617 57.349C145.458 57.4562 145.158 57.5117 144.722 57.5117H142.374C142.163 57.5117 141.956 57.4895 141.752 57.4414C141.549 57.3933 141.368 57.3157 141.205 57.2084C141.042 57.1012 140.917 56.9533 140.817 56.7721C140.717 56.5909 140.669 56.3616 140.669 56.0842C140.669 55.8069 140.721 55.5258 140.828 55.2559C140.935 54.9859 141.046 54.7493 141.172 54.5459C141.209 54.4867 141.198 54.4386 141.139 54.4053L140.277 53.9579C140.21 53.9135 140.162 53.9209 140.125 53.9801C140.029 54.1095 139.94 54.2611 139.859 54.4312C139.774 54.6013 139.7 54.7825 139.637 54.9785C139.571 55.1708 139.519 55.3705 139.478 55.5776C139.437 55.7847 139.419 55.9918 139.419 56.1952C139.419 56.9459 139.648 57.5376 140.11 57.9739C140.573 58.4103 141.275 58.6285 142.222 58.6285H144.874C145.266 58.6285 145.602 58.5878 145.876 58.5028C146.153 58.4177 146.379 58.3068 146.552 58.1625C146.726 58.0183 146.856 57.8519 146.941 57.6559C147.026 57.4599 147.066 57.2491 147.066 57.0235V54.1206C147.066 53.6768 147.011 53.2996 146.896 52.9927C146.782 52.6821 146.626 52.4343 146.427 52.2457L146.43 52.2383ZM145.846 55.3261H144.874C144.53 55.3261 144.267 55.2337 144.078 55.0562C143.89 54.875 143.794 54.557 143.794 54.0984C143.794 53.6842 143.886 53.3625 144.067 53.1295C144.249 52.8965 144.504 52.7819 144.833 52.7819C145.162 52.7819 145.428 52.8929 145.598 53.1147C145.765 53.3366 145.85 53.6583 145.85 54.0873V55.3261H145.846Z" fill="#EF482B"/>
<path d="M150.081 51.8907H149.075C149.005 51.8907 148.968 51.9277 148.968 52.0016V56.6057C148.968 56.92 148.901 57.153 148.764 57.3046C148.631 57.4562 148.409 57.5339 148.102 57.5339H147.862C147.788 57.5339 147.751 57.5708 147.751 57.6411V58.5138C147.751 58.5878 147.788 58.6248 147.862 58.6248H148.265C149.545 58.6248 150.184 57.9591 150.184 56.6279V52.0016C150.184 51.9277 150.147 51.8907 150.077 51.8907H150.081Z" fill="#EF482B"/>
<path d="M153.202 51.8907H152.196C152.126 51.8907 152.089 51.9277 152.089 52.0016V56.6057C152.089 56.92 152.022 57.153 151.885 57.3046C151.752 57.4562 151.53 57.5339 151.223 57.5339H150.983C150.909 57.5339 150.872 57.5708 150.872 57.6411V58.5138C150.872 58.5878 150.909 58.6248 150.983 58.6248H151.386C152.666 58.6248 153.305 57.9591 153.305 56.6279V52.0016C153.305 51.9277 153.268 51.8907 153.198 51.8907H153.202Z" fill="#EF482B"/>
<path d="M158.486 55.0858H157.391C157.332 55.0858 157.284 55.1338 157.284 55.193V56.3098C157.284 56.369 157.332 56.4171 157.391 56.4171H158.486C158.545 56.4171 158.593 56.369 158.593 56.3098V55.193C158.593 55.1338 158.545 55.0858 158.486 55.0858Z" fill="#EF482B"/>
<path d="M161.03 55.0858H159.935C159.876 55.0858 159.828 55.1338 159.828 55.193V56.3098C159.828 56.369 159.876 56.4171 159.935 56.4171H161.03C161.089 56.4171 161.137 56.369 161.137 56.3098V55.193C161.137 55.1338 161.089 55.0858 161.03 55.0858Z" fill="#EF482B"/>
<path d="M163.778 55.0858H162.683C162.624 55.0858 162.576 55.1338 162.576 55.193V56.3098C162.576 56.369 162.624 56.4171 162.683 56.4171H163.778C163.837 56.4171 163.885 56.369 163.885 56.3098V55.193C163.885 55.1338 163.837 55.0858 163.778 55.0858Z" fill="#EF482B"/>
<path d="M174.255 56.4208C174.71 56.4208 175.035 56.3098 175.227 56.0879C175.423 55.866 175.519 55.5184 175.519 55.0451V52.0016C175.519 51.9277 175.483 51.8907 175.412 51.8907H174.406C174.332 51.8907 174.299 51.9277 174.299 51.9979V54.7492C174.299 54.9674 174.258 55.1191 174.173 55.2004C174.088 55.2855 173.955 55.3261 173.774 55.3261H173.064C173.064 55.3261 173.064 55.3261 173.06 55.3261C173.057 55.3261 173.06 55.3261 173.053 55.3261H172.868C172.591 55.3261 172.372 55.267 172.213 55.1523C172.054 55.0377 171.973 54.875 171.973 54.6642V53.6398C171.973 52.952 171.796 52.4528 171.437 52.1495C171.078 51.8463 170.597 51.691 169.987 51.691H168.327C168.253 51.691 168.22 51.728 168.22 51.8019V52.6747C168.22 52.7486 168.257 52.7856 168.327 52.7856H169.636C170.006 52.7856 170.287 52.8633 170.472 53.0149C170.657 53.1665 170.749 53.4106 170.749 53.7434V54.4719C170.749 54.6309 170.742 54.764 170.723 54.875C170.705 54.9822 170.664 55.071 170.605 55.1412C170.542 55.2115 170.453 55.2596 170.339 55.2892C170.224 55.3187 170.065 55.3335 169.869 55.3335H167.839C167.765 55.3335 167.731 55.3705 167.731 55.4445V56.3172C167.731 56.3912 167.768 56.4281 167.839 56.4281H170.283C170.653 56.4281 170.956 56.3875 171.189 56.3024C171.422 56.2174 171.611 56.051 171.747 55.7995C171.87 56.0583 172.043 56.2248 172.265 56.3061C172.487 56.3875 172.75 56.4281 173.057 56.4281C173.057 56.4281 173.057 56.4281 173.06 56.4281C173.06 56.4281 173.06 56.4281 173.068 56.4281H174.258L174.255 56.4208Z" fill="#EF482B"/>
<path d="M186.728 52.5156C186.532 52.2642 186.27 52.0645 185.944 51.9166C185.619 51.7686 185.209 51.691 184.72 51.691C184.269 51.691 183.888 51.776 183.574 51.9424C183.26 52.1089 182.993 52.3196 182.768 52.5748C182.723 52.6192 182.731 52.671 182.79 52.7264L183.356 53.3144C183.408 53.3588 183.459 53.3551 183.507 53.3033C183.659 53.1443 183.837 53.0149 184.033 52.9224C184.229 52.83 184.447 52.7819 184.687 52.7819C184.927 52.7819 185.138 52.8226 185.305 52.9002C185.471 52.9779 185.601 53.0925 185.704 53.2368C185.808 53.381 185.878 53.5548 185.922 53.7545C185.967 53.9542 185.989 54.1687 185.989 54.4016C185.989 54.5754 185.978 54.7234 185.956 54.8417C185.933 54.96 185.889 55.0562 185.826 55.1301C185.76 55.2041 185.671 55.2522 185.552 55.2818C185.438 55.3113 185.282 55.3261 185.094 55.3261H182.191C182.191 55.3261 182.191 55.3261 182.184 55.3261C182.184 55.3261 182.184 55.3261 182.18 55.3261H181.995C181.718 55.3261 181.499 55.267 181.34 55.1523C181.181 55.0377 181.1 54.875 181.1 54.6642V53.6398C181.1 52.952 180.923 52.4528 180.564 52.1495C180.205 51.8463 179.724 51.691 179.114 51.691H177.454C177.38 51.691 177.347 51.728 177.347 51.8019V52.6747C177.347 52.7486 177.384 52.7856 177.454 52.7856H178.763C179.133 52.7856 179.414 52.8633 179.599 53.0149C179.784 53.1665 179.876 53.4106 179.876 53.7434V54.4719C179.876 54.6309 179.869 54.764 179.85 54.875C179.832 54.9822 179.791 55.071 179.732 55.1412C179.669 55.2115 179.58 55.2596 179.466 55.2892C179.351 55.3187 179.192 55.3335 178.996 55.3335H176.966C176.892 55.3335 176.858 55.3705 176.858 55.4445V56.3172C176.858 56.3912 176.895 56.4281 176.966 56.4281H179.41C179.78 56.4281 180.083 56.3875 180.316 56.3024C180.549 56.2174 180.738 56.051 180.874 55.7995C180.996 56.0583 181.17 56.2248 181.392 56.3061C181.614 56.3875 181.877 56.4281 182.184 56.4281C182.184 56.4281 182.184 56.4281 182.191 56.4281C182.191 56.4281 182.191 56.4281 182.195 56.4281H185.567C185.852 56.4281 186.1 56.3986 186.314 56.3394C186.529 56.2802 186.706 56.1767 186.85 56.0288C186.991 55.8808 187.098 55.6774 187.172 55.4223C187.246 55.1671 187.283 54.8454 187.283 54.4497C187.283 54.0799 187.242 53.7286 187.157 53.3958C187.072 53.0629 186.936 52.7745 186.736 52.523L186.728 52.5156Z" fill="#EF482B"/>
<path d="M198.506 56.4208C198.961 56.4208 199.286 56.3098 199.479 56.0879C199.675 55.8661 199.771 55.5184 199.771 55.0451V52.0016C199.771 51.9277 199.734 51.8907 199.664 51.8907H198.658C198.584 51.8907 198.55 51.9277 198.55 51.9979V54.7493C198.55 54.9674 198.51 55.1191 198.425 55.2004C198.34 55.2855 198.206 55.3261 198.025 55.3261H197.315C197.315 55.3261 197.315 55.3261 197.312 55.3261C197.308 55.3261 197.312 55.3261 197.304 55.3261H197.13C196.853 55.3261 196.635 55.267 196.468 55.1523C196.306 55.0377 196.224 54.8676 196.224 54.6531V49.1061C196.224 49.0321 196.187 48.9988 196.117 48.9988H195.111C195.037 48.9988 195.004 49.0358 195.004 49.1061V56.1582C195.004 56.6537 194.878 57.0124 194.623 57.2343C194.368 57.4562 194.031 57.5671 193.61 57.5671C193.443 57.5671 193.273 57.545 193.096 57.4969C192.922 57.4488 192.763 57.3675 192.622 57.2528C192.482 57.1345 192.364 56.9829 192.275 56.7906C192.186 56.5983 192.138 56.3579 192.138 56.0768C192.138 55.7477 192.19 55.4482 192.297 55.1782C192.404 54.9046 192.515 54.6679 192.63 54.4645C192.645 54.4349 192.648 54.409 192.645 54.3831C192.641 54.3573 192.622 54.3388 192.586 54.324L191.702 53.9764C191.62 53.9394 191.569 53.9468 191.539 53.9986C191.358 54.2833 191.206 54.6198 191.08 55.0118C190.958 55.4038 190.896 55.7958 190.896 56.1915C190.896 56.6131 190.962 56.9792 191.095 57.2935C191.228 57.6078 191.417 57.8667 191.657 58.0738C191.898 58.2809 192.179 58.4362 192.5 58.536C192.822 58.6359 193.177 58.6876 193.562 58.6876C193.946 58.6876 194.324 58.6359 194.653 58.536C194.978 58.4325 195.259 58.2809 195.496 58.0701C195.733 57.8593 195.914 57.6004 196.039 57.2898C196.165 56.9755 196.232 56.6131 196.232 56.1952V56.0731C196.361 56.2285 196.517 56.3246 196.694 56.3653C196.872 56.406 197.079 56.4245 197.312 56.4245C197.312 56.4245 197.312 56.4245 197.315 56.4245C197.315 56.4245 197.315 56.4245 197.323 56.4245H198.513L198.506 56.4208Z" fill="#EF482B"/>
<path d="M204.834 52.168C204.49 51.85 204.031 51.6947 203.447 51.6947H201.702C201.628 51.6947 201.594 51.7317 201.594 51.8056V52.6784C201.594 52.7523 201.631 52.7893 201.702 52.7893H203.011C203.754 52.7893 204.124 53.1073 204.124 53.7471V54.4756C204.124 54.6346 204.116 54.7677 204.098 54.8787C204.079 54.9859 204.039 55.0747 203.976 55.1449C203.913 55.2152 203.824 55.2633 203.71 55.2929C203.591 55.3225 203.436 55.3372 203.24 55.3372H201.21C201.136 55.3372 201.103 55.3742 201.103 55.4482V56.3209C201.103 56.3949 201.14 56.4319 201.21 56.4319H203.743C204.02 56.4319 204.257 56.4023 204.46 56.3431C204.664 56.2839 204.826 56.1841 204.956 56.0362C205.085 55.8919 205.181 55.6996 205.248 55.463C205.315 55.2263 205.344 54.9268 205.344 54.5644V53.6583C205.344 52.989 205.174 52.4972 204.83 52.1791L204.834 52.168Z" fill="#EF482B"/>
</g>
<defs>
<clipPath id="clip0_506_1992">
<rect width="205.348" height="67.1524" fill="white"/>
</clipPath>
</defs>
</svg>
