<svg width="235" height="79" viewBox="0 0 235 79" fill="none" xmlns="http://www.w3.org/2000/svg">
<path d="M35.2046 41.9546C35.8237 42.4048 37.0056 42.433 38.9755 42.433H93.1754C96.5524 42.433 97.2559 42.433 97.2559 38.662V22.0306H105.614V39.2249C105.614 43.7275 104.516 46.626 102.349 48.3989C100.183 50.1718 97.0308 50.819 92.8377 50.819H38.8348C37.9343 50.819 37.0901 50.819 36.274 50.7346C35.6267 50.6783 35.0076 50.5939 34.4166 50.4813C34.4166 55.3779 32.8407 59.5428 29.9141 62.4413C27.0999 65.2554 23.0476 66.8876 17.9822 66.8876C12.9168 66.8876 7.90767 64.974 4.92471 61.8504C1.63219 58.4171 0 53.5487 0 48.1175C0 42.6862 0.19699 45.1908 0.590966 43.5023C0.956802 41.9546 1.51962 40.2942 2.30757 38.5495C2.47642 38.1837 2.72969 37.8178 3.09553 37.5927C3.40508 37.3957 3.79906 37.3113 4.22118 37.3957L8.41421 38.1837C8.49863 38.1837 8.58305 38.2118 8.66748 38.2681C8.97703 38.3806 9.25845 38.6339 9.45543 38.9153C9.68056 39.2249 9.79313 39.5907 9.7087 39.9565C9.7087 40.0128 9.68056 40.0973 9.65242 40.1535C9.11774 41.5043 8.72376 42.8551 8.44235 44.0933C8.16094 45.4441 8.02023 46.6823 8.02023 47.7517C8.02023 51.1567 9.11773 53.7457 10.7499 55.5467C12.6635 57.6573 15.3651 58.6986 17.9822 58.6986C20.5993 58.6986 22.2597 57.9106 23.8074 56.5317C25.1863 55.2653 26.0869 53.4924 26.0869 51.3256V11.731H34.4448V38.7465C34.4448 40.6319 34.6136 41.5887 35.2046 42.0108M127.001 50.8472H113.69C113.24 50.8472 112.818 50.6783 112.508 50.3688C112.199 50.0592 112.03 49.6652 112.03 49.1868V44.0933C112.03 43.643 112.227 43.2209 112.537 42.9114C112.846 42.6018 113.24 42.433 113.718 42.433H126.213C128.042 42.433 129.14 42.236 129.787 41.6169C130.35 41.0822 130.603 40.1817 130.688 38.8027H130.631V38.3806C130.688 38.0429 130.688 37.7052 130.716 37.3676C130.716 37.0017 130.716 36.6359 130.716 36.2419C130.716 36.1293 130.716 36.0168 130.716 35.9042C130.716 34.863 130.688 33.9625 130.603 33.1464C130.547 32.3584 130.434 31.683 130.294 31.0921C130.04 30.5293 129.675 30.1353 129.084 29.9101C128.436 29.6569 127.508 29.5443 126.241 29.5443H113.747C113.296 29.5443 112.874 29.3473 112.565 29.0659C112.255 28.7564 112.058 28.3342 112.058 27.884V22.7904C112.058 22.312 112.255 21.9181 112.537 21.6085C112.846 21.2989 113.24 21.1301 113.718 21.1301H127.029C128.267 21.1301 129.421 21.2427 130.462 21.4678C131.532 21.6929 132.489 22.0306 133.333 22.4809C135.528 23.3251 136.991 24.8166 137.864 26.7583C138.736 28.6719 139.074 31.0076 139.074 33.5966V38.7746H139.046C138.849 42.5455 137.779 45.5566 135.781 47.6391C133.811 49.6652 130.913 50.7909 127.029 50.7909L127.001 50.8472Z" fill="#004376"/>
<path d="M86.7023 65.3113C85.8018 64.4108 85.3516 63.3414 85.3516 62.075C85.3516 60.8087 85.8018 59.7393 86.7023 58.8388C87.6029 57.9383 88.6722 57.488 89.9386 57.488C91.2049 57.488 92.2743 57.9383 93.1748 58.8388C94.0753 59.7393 94.5256 60.8087 94.5256 62.075C94.5256 63.3414 94.0753 64.4108 93.1748 65.3113C92.2743 66.2118 91.2049 66.6621 89.9386 66.6621C88.6722 66.6621 87.6029 66.2118 86.7023 65.3113Z" fill="#004376"/>
<path d="M97.3955 65.3113C96.4949 64.4108 96.0447 63.3414 96.0447 62.075C96.0447 60.8087 96.4949 59.7393 97.3955 58.8388C98.296 57.9383 99.3653 57.488 100.632 57.488C101.898 57.488 102.967 57.9383 103.868 58.8388C104.768 59.7393 105.219 60.8087 105.219 62.075C105.219 63.3414 104.768 64.4108 103.868 65.3113C102.967 66.2118 101.898 66.6621 100.632 66.6621C99.3653 66.6621 98.296 66.2118 97.3955 65.3113Z" fill="#004376"/>
<path d="M58.8713 67.1405C58.7306 66.9998 58.6461 66.831 58.6461 66.634C58.6461 66.437 58.7306 66.2682 58.8713 66.1275C59.012 65.9868 59.1808 65.9023 59.3778 65.9023C59.5748 65.9023 59.7436 65.9868 59.8843 66.1275C60.025 66.2682 60.1095 66.437 60.1095 66.634C60.1095 66.831 60.025 66.9998 59.8843 67.1405C59.7436 67.2812 59.5748 67.3657 59.3778 67.3657C59.1808 67.3657 59.012 67.2812 58.8713 67.1405ZM77.557 61.7374C78.0354 62.244 78.2605 62.9475 78.2605 63.8762V65.1425H73.6735H71.9569H70.2121H67.5669C67.1729 65.1425 66.8633 65.0862 66.6101 64.9737C66.3568 64.8611 66.1598 64.6923 66.0191 64.439C65.8503 64.6641 65.6533 64.833 65.4 64.9455C65.1749 65.0581 64.9216 65.1425 64.6402 65.1425H61.2633C60.3627 65.1425 59.7718 64.8893 59.4622 64.3827C59.2652 64.636 59.012 64.8048 58.6743 64.9455C58.3647 65.0862 57.9989 65.1425 57.6049 65.1425H55.8883H50.7385H49.8661C49.8661 65.7616 49.7254 66.2119 49.444 66.5214C49.1626 66.831 48.7686 66.9998 48.262 66.9998C47.7555 66.9998 47.5585 66.9435 47.1927 66.8028L47.446 65.6772C47.6992 65.7335 47.9243 65.7616 48.0651 65.7616C48.2058 65.7616 48.3746 65.7054 48.459 65.6209C48.5435 65.5365 48.5716 65.3676 48.5716 65.1144V61.0058H49.8661V63.848H50.7666H52.4832H57.633C57.9426 63.848 58.1959 63.7636 58.3929 63.5666C58.5899 63.3696 58.7024 63.1164 58.7024 62.7505V61.0058H59.9969V62.7505C59.9969 63.0882 60.0813 63.3415 60.2783 63.5385C60.5034 63.7636 60.8411 63.848 61.3195 63.848H62.3889V60.6962H63.6834V63.848H64.4995C64.9779 63.848 65.2312 63.4822 65.2312 62.7505V60.6962H66.5257V62.7505C66.5257 63.1164 66.6101 63.3978 66.7508 63.5948C66.8915 63.7636 67.1166 63.848 67.4262 63.848H68.0734V60.4148H69.3679V63.848H70.2684H71.9851H73.7017H76.9942C76.9942 63.1164 76.769 62.6098 76.2906 62.3003C75.8122 61.9907 75.1369 61.85 74.2363 61.85L73.9831 60.246C74.574 59.8238 75.165 59.458 75.8404 59.2047C76.4876 58.9515 77.3037 58.7545 78.2324 58.6138L78.4294 59.8801C77.8947 59.9364 77.3881 60.049 76.8816 60.2178C76.3751 60.3867 75.9248 60.5555 75.5308 60.7806C76.4032 60.9213 77.1067 61.2309 77.5851 61.7374H77.557ZM79.3018 58.8389H80.5962V65.1425H79.3018V58.8389ZM46.7706 60.4148V65.1144H44.9977C44.266 65.1144 43.7313 64.8892 43.4499 64.4108C43.2811 64.636 43.0559 64.8048 42.8308 64.9455C42.5775 65.0581 42.2961 65.1144 42.0147 65.1144H41.0016C40.8328 65.7898 40.4951 66.3245 40.0167 66.6903C39.5383 67.0561 38.891 67.225 38.1312 67.225C37.3714 67.225 37.09 67.1405 36.6397 66.9435C36.1895 66.7466 35.8236 66.437 35.5422 66.043C35.2608 65.6209 35.1201 65.1144 35.1201 64.4953C35.1201 63.8762 35.2045 63.4822 35.3734 62.8912H36.5835C36.4428 63.4259 36.3583 63.9043 36.3583 64.2701C36.3583 65.3958 36.9212 65.9586 38.1031 65.9586C39.285 65.9586 39.1162 65.8179 39.3694 65.5084C39.6508 65.1988 39.7916 64.7204 39.7916 64.0732V60.6962H41.086V63.848H41.8177C42.0991 63.848 42.2961 63.7636 42.4368 63.5948C42.5775 63.4259 42.6338 63.1445 42.6338 62.7505V60.6962H43.9283V62.7505C43.9283 63.1164 44.0127 63.3978 44.1534 63.5666C44.2941 63.7355 44.5193 63.848 44.8288 63.848H45.4761V60.4148H46.7706Z" fill="#FD4425"/>
<path fill-rule="evenodd" clip-rule="evenodd" d="M175.588 8.92875L191.573 4.08847C193.627 3.46936 195.315 4.792 195.315 7.04329V19.735C195.315 21.9863 193.627 24.3501 191.573 24.9692L175.588 29.8095C173.534 30.4286 171.846 29.106 171.846 26.8547V14.163C171.846 11.9117 173.534 9.54786 175.588 8.92875Z" fill="#FCB933"/>
<path d="M174.574 31.3286C173.702 31.3286 172.858 31.0754 172.154 30.5688C171.057 29.7527 170.438 28.4301 170.438 26.8823V14.1907C170.438 11.3203 172.52 8.44987 175.137 7.66192L191.122 2.82163C192.5 2.39952 193.879 2.62465 194.921 3.38446C196.018 4.20055 196.637 5.52319 196.637 7.07095V19.7626C196.637 22.633 194.555 25.5034 191.938 26.2914L175.953 31.1317C175.503 31.2724 175.025 31.3286 174.574 31.3286ZM192.557 5.29806C192.332 5.29806 192.135 5.35434 191.938 5.38248L175.953 10.2228C174.462 10.673 173.167 12.5022 173.167 14.1625V26.8542C173.167 27.5296 173.393 28.0643 173.787 28.3738C174.237 28.7115 174.8 28.6271 175.165 28.5145L191.15 23.6742C192.641 23.224 193.936 21.3948 193.936 19.7345V7.04281C193.936 6.36742 193.71 5.83274 193.317 5.52319C193.063 5.35434 192.81 5.26992 192.529 5.26992L192.557 5.29806Z" fill="#004376"/>
<path fill-rule="evenodd" clip-rule="evenodd" d="M169.932 52.3786L185.917 47.5383C187.971 46.9192 189.659 44.5553 189.659 42.3041V29.6124C189.659 27.3611 187.971 26.0385 185.917 26.6576L169.932 31.4978C167.878 32.1169 166.19 34.4808 166.19 36.7321V49.4238C166.19 51.6751 167.878 52.9977 169.932 52.3786Z" fill="#FCB933"/>
<path d="M168.946 53.8694C168.073 53.8694 167.229 53.6161 166.525 53.1096C165.428 52.2935 164.809 50.9709 164.809 49.4231V36.7314C164.809 33.861 166.891 30.9906 169.508 30.2027L185.493 25.3624C186.872 24.9403 188.25 25.1654 189.292 25.9252C190.389 26.7413 191.008 28.064 191.008 29.6117V42.3034C191.008 45.1738 188.926 48.0442 186.309 48.8321L170.325 53.6724C169.874 53.8131 169.396 53.8694 168.946 53.8694ZM186.9 27.8388C186.675 27.8388 186.478 27.8951 186.281 27.9233L170.296 32.7635C168.805 33.2138 167.51 35.043 167.51 36.7033V49.395C167.51 50.0704 167.736 50.605 168.13 50.9146C168.58 51.2523 169.143 51.1679 169.508 51.0553L185.493 46.215C186.984 45.7648 188.279 43.9356 188.279 42.2753V29.5836C188.279 28.9082 188.053 28.3735 187.659 28.064C187.406 27.8951 187.153 27.8107 186.872 27.8107L186.9 27.8388Z" fill="#004376"/>
<path fill-rule="evenodd" clip-rule="evenodd" d="M175.588 50.7178L191.573 45.8775C193.627 45.2584 195.315 46.5811 195.315 48.8324V61.524C195.315 63.7753 193.627 66.1392 191.573 66.7583L175.588 71.5986C173.534 72.2177 171.846 70.895 171.846 68.6437V55.9521C171.846 53.7008 173.534 51.3369 175.588 50.7178Z" fill="#FCB933"/>
<path d="M174.602 73.0899C173.729 73.0899 172.885 72.8366 172.181 72.3301C171.084 71.514 170.465 70.1913 170.465 68.6436V55.9519C170.465 53.0815 172.547 50.2111 175.164 49.4231L191.149 44.5829C192.528 44.1607 193.906 44.3859 194.948 45.1457C196.045 45.9618 196.664 47.2844 196.664 48.8322V61.5238C196.664 64.3942 194.582 67.2646 191.965 68.0526L175.981 72.8929C175.53 73.0336 175.052 73.0899 174.602 73.0899ZM175.981 52.0121C174.489 52.4624 173.195 54.2916 173.195 55.9519V68.6436C173.195 69.319 173.42 69.8536 173.814 70.1632C174.264 70.5009 174.827 70.4165 175.193 70.3039L191.177 65.4636C192.668 65.0134 193.963 63.1842 193.963 61.5238V48.8322C193.963 48.1568 193.738 47.6221 193.344 47.3126C192.893 46.9749 192.331 47.0593 191.965 47.1718L175.981 52.0121Z" fill="#004376"/>
<path fill-rule="evenodd" clip-rule="evenodd" d="M184.282 69.3477L189.882 67.6593C190.614 67.4342 191.205 67.9126 191.205 68.7005V73.1468C191.205 73.9348 190.614 74.7509 189.882 74.976L184.282 76.6645C183.551 76.8896 182.96 76.4112 182.96 75.6232V71.1769C182.96 70.389 183.551 69.5729 184.282 69.3477Z" fill="#FCF8F4"/>
<path d="M183.918 78.0705C183.411 78.0705 182.961 77.9298 182.539 77.6203C181.92 77.17 181.582 76.4383 181.582 75.6222V71.1759C181.582 69.797 182.567 68.4462 183.861 68.0523L189.462 66.3638C190.221 66.1387 190.981 66.2512 191.572 66.7015C192.191 67.1517 192.529 67.8834 192.529 68.6995V73.1458C192.529 74.5247 191.544 75.8755 190.25 76.2695L184.649 77.958C184.396 78.0424 184.143 78.0705 183.918 78.0705ZM189.827 69.0653L184.678 70.6412C184.537 70.6694 184.34 70.9508 184.34 71.1759V75.2283L189.518 73.6524C189.659 73.6242 189.856 73.3428 189.856 73.1177V69.0653H189.827Z" fill="#004376"/>
<path fill-rule="evenodd" clip-rule="evenodd" d="M152.85 45.9051C157.212 40.7272 165.739 45.9614 167.174 51.8148C169.932 63.0994 172.971 68.5869 182.708 70.2473L182.483 76.973C158.675 81.7007 146.265 53.7284 152.85 45.9051Z" fill="#FD4425"/>
<path d="M177.134 78.8587C172.829 78.8587 168.748 77.8174 164.921 75.735C159.18 72.6113 155.606 67.9399 153.636 64.5911C149.19 57.0492 148.43 49.0009 151.807 45.033C153.693 42.8098 156.394 41.9656 159.405 42.6691C163.598 43.654 167.482 47.425 168.495 51.4773C171.759 64.8162 175.586 67.6303 182.931 68.8967L184.085 69.0937L183.804 78.0707L182.734 78.2677C180.821 78.6335 178.963 78.8305 177.134 78.8305M153.862 46.7777C151.301 49.7888 152.229 56.8804 155.972 63.2122C157.914 66.4765 164.668 76.129 177.106 76.129C178.401 76.129 179.723 76.0164 181.13 75.7913L181.271 71.3168C171.731 69.2625 168.523 63.1277 165.822 52.0683C165.062 49.0009 161.966 45.9898 158.758 45.2581C157.351 44.9204 155.381 44.9204 153.862 46.7214V46.7777Z" fill="#004376"/>
<path fill-rule="evenodd" clip-rule="evenodd" d="M160.448 20.0444C165.035 20.0444 168.75 24.9129 168.75 30.9351C168.75 36.9573 165.035 41.8257 160.448 41.8257C155.861 41.8257 152.146 36.9573 152.146 30.9351C152.146 24.9129 155.861 20.0444 160.448 20.0444Z" fill="#FCF8F4"/>
<path d="M160.446 42.8381C155.325 42.8381 151.16 37.5194 151.16 30.9625C151.16 24.4056 155.325 19.0869 160.446 19.0869C165.568 19.0869 169.733 24.4056 169.733 30.9625C169.733 37.5194 165.568 42.8381 160.446 42.8381ZM160.446 21.0287C156.394 21.0287 153.101 25.475 153.101 30.9625C153.101 36.45 156.394 40.8963 160.446 40.8963C164.499 40.8963 167.791 36.45 167.791 30.9625C167.791 25.475 164.499 21.0287 160.446 21.0287Z" fill="#004376"/>
<path fill-rule="evenodd" clip-rule="evenodd" d="M160.475 19.9888C165.062 19.9888 168.805 24.8572 168.805 30.8794C168.468 35.6353 161.826 34.8755 152.174 30.8794C152.174 24.8572 155.888 19.9888 160.475 19.9888Z" fill="#FD4425"/>
<path d="M164.301 35.1555C161.346 35.1555 157.209 34.0298 151.778 31.7785L151.187 31.5253V30.878C151.187 24.3211 155.352 19.0024 160.473 19.0024C165.595 19.0024 169.76 24.3211 169.76 30.878V30.9343C169.647 32.4258 169 33.6077 167.846 34.3112C166.946 34.8741 165.764 35.1555 164.301 35.1555ZM153.129 30.2589C162.359 34.0017 165.651 33.3826 166.805 32.6791C167.396 32.3132 167.734 31.7223 167.79 30.878C167.79 25.4186 164.498 21.0005 160.445 21.0005C156.393 21.0005 153.382 25.1091 153.129 30.2871V30.2589Z" fill="#004376"/>
<path fill-rule="evenodd" clip-rule="evenodd" d="M152.146 30.1459C158.45 33.4385 168.412 33.0726 168.44 27.9509C168.525 27.9509 174.772 36.5621 169.594 38.335C162.446 40.7833 156.902 34.1138 152.146 30.1459Z" fill="#FD4425"/>
<path d="M166.526 39.8275C161.488 39.8275 157.295 36.0284 153.778 32.8766C152.99 32.1731 152.258 31.4977 151.526 30.8786L152.596 29.2745C156.873 31.4977 163.149 31.9479 166.019 30.2313C166.976 29.6404 167.454 28.9087 167.454 27.9519V26.6855L168.692 26.9951C168.861 27.0514 169.368 27.1639 170.887 29.9499C171.985 31.9761 172.576 33.7208 172.632 35.1842C172.717 37.1822 171.732 38.6174 169.931 39.2365C168.749 39.6305 167.623 39.7993 166.554 39.7993M156.535 32.7359C160.25 36.0003 164.415 39.0395 169.255 37.4073C169.959 37.1541 170.381 36.7601 170.55 36.1691C171 34.5932 169.762 31.9761 168.777 30.2313C168.383 30.8786 167.792 31.4414 167.032 31.8917C164.584 33.355 160.503 33.6083 156.564 32.7359H156.535Z" fill="#004376"/>
<path fill-rule="evenodd" clip-rule="evenodd" d="M195.511 7.38057C195.68 4.08806 197.397 2.76542 198.522 2.54029C244.027 -6.21161 246.137 42.8384 199.366 63.8036C198.213 64.3102 195.877 63.5503 195.539 61.2146L195.23 46.8908C195.314 45.1179 196.609 44.2174 197.368 43.7952C211.411 36.1127 211.383 20.3818 195.961 23.815L195.511 7.38057Z" fill="#FCB933"/>
<path d="M198.578 65.2951C197.875 65.2951 197.143 65.0981 196.496 64.7323C195.23 64.0287 194.413 62.8468 194.188 61.3835V61.2146L193.851 46.8345V46.7782C193.907 45.54 194.47 43.7953 196.721 42.5852C204.432 38.364 207.499 31.8071 206.036 27.9236C204.938 24.9969 201.364 23.9839 196.271 25.1377L194.667 25.5035L194.16 7.38058V7.32429C194.357 3.60966 196.355 1.5835 198.269 1.21766C207.696 -0.611512 215.716 -0.104975 222.076 2.70914C227.958 5.29813 232.038 9.74444 233.867 15.5697C238.454 30.1468 228.127 52.4346 199.929 65.07C199.535 65.2388 199.057 65.3514 198.578 65.3514M196.89 61.0739C197.031 61.8056 197.453 62.1996 197.79 62.3684C198.241 62.6217 198.691 62.6217 198.803 62.5654C214.394 55.5864 222.555 46.4124 226.635 39.968C231.757 31.8634 233.445 23.2803 231.278 16.3576C229.674 11.2922 226.129 7.43686 220.979 5.15743C215.238 2.62472 207.555 2.17446 198.775 3.86293C198.156 3.9755 197.002 4.87601 196.862 7.38058L197.284 22.1828C202.94 21.3386 207.105 23.0834 208.568 26.9668C210.426 31.8915 207.358 39.8555 198.015 44.9772C197.087 45.4837 196.637 46.1028 196.58 46.8908L196.89 61.0458V61.0739Z" fill="#004376"/>
</svg>
