<svg width="208" height="62" viewBox="0 0 208 62" fill="none" xmlns="http://www.w3.org/2000/svg">
<path fill-rule="evenodd" clip-rule="evenodd" d="M20.4821 6.93398L33.13 3.12013C34.7618 2.63099 36.1014 3.67306 36.1014 5.45239V15.4478C36.1014 17.2201 34.7689 19.0774 33.13 19.5665L20.4821 23.3804C18.8503 23.8695 17.5107 22.8274 17.5107 21.0481V11.0527C17.5107 9.28043 18.8432 7.42312 20.4821 6.93398Z" fill="#FCC214"/>
<path d="M19.6978 24.5642C18.9995 24.5642 18.3368 24.3586 17.7953 23.9546C16.9331 23.3166 16.4414 22.2603 16.4414 21.0481V11.0527C16.4414 8.79838 18.0803 6.54409 20.1752 5.91318L32.8231 2.09932C33.9062 1.77323 34.9964 1.93627 35.823 2.54592C36.6852 3.17684 37.1768 4.24018 37.1768 5.45239V15.4478C37.1768 17.7021 35.5379 19.9564 33.4501 20.5873L20.8023 24.4012C20.4317 24.5146 20.0683 24.5642 19.7049 24.5642M33.9204 4.06296C33.7494 4.06296 33.5784 4.0984 33.443 4.14094L20.7951 7.95479C19.6194 8.30924 18.5862 9.75539 18.5862 11.0527V21.0481C18.5862 21.5869 18.7572 22.0122 19.0707 22.239C19.427 22.5013 19.8617 22.4446 20.1681 22.3525L32.816 18.5386C33.9917 18.1842 35.0249 16.738 35.0249 15.4407V5.44531C35.0249 4.90654 34.8539 4.48121 34.5404 4.25436C34.348 4.11258 34.1271 4.06296 33.9204 4.06296Z" fill="#154576"/>
<path fill-rule="evenodd" clip-rule="evenodd" d="M16.0143 41.1382L28.6622 37.3243C30.294 36.8352 31.6336 34.9779 31.6336 33.2056V23.2102C31.6336 21.438 30.3011 20.3888 28.6622 20.8779L16.0143 24.6918C14.3826 25.1809 13.043 27.0383 13.043 28.8105V38.8059C13.043 40.5782 14.3826 41.6273 16.0143 41.1382Z" fill="#FCC214"/>
<path d="M15.23 42.322C14.5317 42.322 13.869 42.1165 13.3275 41.7124C12.4653 41.0744 11.9736 40.0181 11.9736 38.8059V28.8105C11.9736 26.5562 13.6125 24.3019 15.7003 23.671L28.3482 19.8571C29.4313 19.5311 30.5215 19.6941 31.3481 20.3037C32.2103 20.9347 32.7019 21.998 32.7019 23.2102V33.2056C32.7019 35.4599 31.063 37.7142 28.9752 38.3451L16.3274 42.159C15.9568 42.2724 15.5934 42.322 15.23 42.322ZM29.4527 21.8208C29.2816 21.8208 29.1106 21.8562 28.9752 21.8988L16.3274 25.7126C15.1516 26.0671 14.1184 27.5132 14.1184 28.8105V38.8059C14.1184 39.3447 14.2894 39.77 14.603 39.9969C14.9592 40.2592 15.3939 40.2024 15.7003 40.1103L28.3482 36.2964C29.5239 35.942 30.5571 34.4958 30.5571 33.1986V23.2031C30.5571 22.6644 30.3861 22.239 30.0726 22.0122C29.8802 21.8704 29.6593 21.8208 29.4527 21.8208Z" fill="#154576"/>
<path fill-rule="evenodd" clip-rule="evenodd" d="M20.4821 39.8267L33.13 36.0129C34.7618 35.5166 36.1014 36.5658 36.1014 38.3451V48.3406C36.1014 50.1128 34.7689 51.9701 33.13 52.4592L20.4821 56.2731C18.8503 56.7622 17.5107 55.7202 17.5107 53.9408V43.9454C17.5107 42.1732 18.8503 40.3159 20.4821 39.8267Z" fill="#FCC214"/>
<path d="M19.6978 57.457C18.9995 57.457 18.3368 57.2514 17.7953 56.8473C16.9331 56.2164 16.4414 55.1531 16.4414 53.9408V43.9454C16.4414 41.6911 18.0803 39.4368 20.1681 38.8059L32.816 34.9921C33.8991 34.666 34.9893 34.829 35.8158 35.4387C36.678 36.0696 37.1697 37.1329 37.1697 38.3451V48.3406C37.1697 50.5949 35.5308 52.8491 33.443 53.4801L20.7951 57.2939C20.4246 57.4073 20.0612 57.457 19.6978 57.457ZM20.7951 40.8475C19.6194 41.202 18.5862 42.6481 18.5862 43.9454V53.9408C18.5862 54.4796 18.7572 54.9049 19.0707 55.1318C19.427 55.3941 19.8617 55.3374 20.1681 55.2452L32.816 51.4313C33.9917 51.0769 35.0249 49.6308 35.0249 48.3335V38.3381C35.0249 37.7993 34.8539 37.374 34.5404 37.1471C34.1841 36.8848 33.7494 36.9415 33.443 37.0337L20.7951 40.8475Z" fill="#154576"/>
<path fill-rule="evenodd" clip-rule="evenodd" d="M27.3655 54.5009L31.7976 53.1611C32.3677 52.9909 32.838 53.3525 32.838 53.9763V57.4782C32.838 58.1021 32.3677 58.7472 31.7976 58.9244L27.3655 60.2642C26.7955 60.4343 26.3252 60.0728 26.3252 59.449V55.947C26.3252 55.3232 26.7955 54.6781 27.3655 54.5009Z" fill="#FDF8F4"/>
<path d="M27.0943 61.3771C26.7024 61.3771 26.3247 61.2566 26.0112 61.0298C25.5266 60.6753 25.2559 60.1011 25.2559 59.456V55.9541C25.2559 54.8553 26.0326 53.7991 27.0586 53.4871L31.4907 52.1473C32.0822 51.9701 32.695 52.0623 33.1581 52.4096C33.6355 52.7641 33.9134 53.3383 33.9134 53.9834V57.4853C33.9134 58.5841 33.1367 59.6404 32.1107 59.9523L27.6786 61.2921C27.479 61.3488 27.2867 61.3771 27.0871 61.3771M31.7686 54.2882L27.6786 55.5217C27.5788 55.55 27.4007 55.7698 27.4007 55.9399V59.137L31.4907 57.9036C31.5905 57.8752 31.7686 57.6554 31.7686 57.4782V54.2811V54.2882Z" fill="#154576"/>
<path fill-rule="evenodd" clip-rule="evenodd" d="M2.48262 36.0412C5.94564 31.958 12.6793 36.0838 13.8123 40.6916C15.9998 49.5882 18.394 53.8912 26.1039 55.2169L25.9329 60.5052C7.07861 64.2198 -2.7333 42.1944 2.47549 36.0412" fill="#EF482B"/>
<path d="M21.7147 61.9939C18.3087 61.9939 15.0737 61.1716 12.0524 59.534C7.49917 57.0671 4.67745 53.4021 3.10983 50.7579C-0.410206 44.8244 -1.00876 38.4869 1.6562 35.3465C3.14545 33.5884 5.276 32.9292 7.66307 33.4892C10.9765 34.2619 14.069 37.2463 14.8528 40.4293C17.4393 50.9422 20.4677 53.1611 26.2893 54.1606L27.2085 54.3165L26.9805 61.3842L26.1468 61.5473C24.6433 61.845 23.1683 61.9939 21.7218 61.9939M3.30221 36.7289C1.28567 39.1107 1.99824 44.6756 4.9696 49.6804C6.5016 52.2608 11.8529 59.8601 21.7004 59.8601C22.7194 59.8601 23.7811 59.7821 24.8998 59.6049L25.0138 56.0888C17.4536 54.4654 14.924 49.6449 12.7792 40.9397C12.1807 38.5224 9.72947 36.1617 7.18564 35.5663C6.08118 35.3111 4.51356 35.304 3.30934 36.7218L3.30221 36.7289Z" fill="#154576"/>
<path fill-rule="evenodd" clip-rule="evenodd" d="M8.49712 15.6817C12.1312 15.6817 15.0811 19.524 15.0811 24.2665C15.0811 29.009 12.1312 32.8512 8.49712 32.8512C4.86308 32.8512 1.91309 29.009 1.91309 24.2665C1.91309 19.524 4.86308 15.6817 8.49712 15.6817Z" fill="#FDF8F4"/>
<path d="M8.49715 33.6239C4.4427 33.6239 1.14355 29.4272 1.14355 24.2665C1.14355 19.1057 4.4427 14.9091 8.49715 14.9091C12.5516 14.9091 15.8507 19.1057 15.8507 24.2665C15.8507 29.4272 12.5516 33.6239 8.49715 33.6239ZM8.49715 16.4474C5.29064 16.4474 2.6898 19.9564 2.6898 24.2665C2.6898 28.5766 5.29777 32.0856 8.49715 32.0856C11.6965 32.0856 14.3045 28.5766 14.3045 24.2665C14.3045 19.9564 11.6965 16.4474 8.49715 16.4474Z" fill="#154576"/>
<path fill-rule="evenodd" clip-rule="evenodd" d="M8.5186 15.6392C12.1526 15.6392 15.1026 19.4814 15.1026 24.2239C14.839 27.9598 9.56606 27.3714 1.93457 24.2239C1.93457 19.4814 4.88456 15.6392 8.5186 15.6392Z" fill="#EF482B"/>
<path d="M11.5531 27.5912C9.20883 27.5912 5.93107 26.7122 1.64147 24.9399L1.16406 24.7414V24.231C1.16406 19.0703 4.46321 14.8736 8.51766 14.8736C12.5721 14.8736 15.8712 19.0703 15.8712 24.231V24.2877C15.7857 25.4645 15.2656 26.3861 14.3606 26.939C13.6552 27.3714 12.7146 27.5912 11.5531 27.5912ZM2.71744 23.7135C10.0212 26.6625 12.6291 26.1805 13.5412 25.6205C14.0186 25.3298 14.268 24.8761 14.3179 24.1956C14.3036 19.8997 11.7028 16.4048 8.51052 16.4048C5.31827 16.4048 2.90983 19.6374 2.71744 23.7135Z" fill="#154576"/>
<path fill-rule="evenodd" clip-rule="evenodd" d="M1.92705 23.6214C6.91495 26.2018 14.7958 25.9182 14.8172 21.8988C14.8956 21.92 19.8194 28.6758 15.7293 30.0652C10.0716 31.9863 5.6751 26.7476 1.91992 23.6214" fill="#EF482B"/>
<path d="M13.3068 31.2562C9.31643 31.2562 5.98878 28.2717 3.22406 25.7835C2.59701 25.2235 2.01272 24.6989 1.43555 24.2168L2.29061 22.9408C5.68951 24.6989 10.656 25.0463 12.922 23.6852C13.6773 23.2315 14.0478 22.6431 14.0549 21.8917V20.8992L15.024 21.1473C15.1594 21.1828 15.5656 21.2891 16.7626 23.4725C17.632 25.0604 18.0951 26.4499 18.1379 27.5983C18.1949 29.172 17.4325 30.2992 15.9931 30.7883C15.0668 31.1002 14.1761 31.242 13.3139 31.242M5.41874 25.6701C8.3616 28.2434 11.6536 30.6394 15.4872 29.3351C16.0501 29.1437 16.3779 28.8318 16.5133 28.3568C16.8624 27.1091 15.9005 25.0463 15.1024 23.6852C14.7889 24.1956 14.3186 24.6422 13.72 25.0037C11.789 26.1592 8.54687 26.3577 5.42587 25.6701H5.41874Z" fill="#154576"/>
<path fill-rule="evenodd" clip-rule="evenodd" d="M36.272 5.7005C36.4002 3.09885 37.7683 2.05678 38.6662 1.88664C74.6788 -5.01091 76.3676 33.6239 39.3217 50.1341C38.4096 50.5381 36.557 49.9285 36.2862 48.0854L36.0439 36.8139C36.1223 35.4103 37.1413 34.7085 37.747 34.3824C48.87 28.3284 48.8486 15.9511 36.6354 18.652L36.272 5.7005Z" fill="#FCC214"/>
<path d="M38.6947 51.325C38.1461 51.325 37.5689 51.1762 37.0416 50.8926C36.0369 50.3467 35.3956 49.4039 35.2246 48.2484L35.2103 48.1137L34.9609 36.7997V36.7572C35.0179 35.7789 35.4526 34.4108 37.2269 33.4467C43.3192 30.129 45.7633 24.9683 44.6018 21.8988C43.7325 19.6019 40.9108 18.8009 36.8635 19.6941L35.5951 19.9777L35.1961 5.69341V5.65088C35.3386 2.73023 36.9418 1.13522 38.4596 0.844568C45.9272 -0.587401 52.2689 -0.197508 57.2925 2.00716C61.9383 4.04169 65.1662 7.54363 66.627 12.1373C70.2681 23.6072 62.088 41.1665 39.7636 51.1194C39.4429 51.2612 39.0795 51.3321 38.7019 51.3321M37.3551 47.9861C37.462 48.5674 37.804 48.8652 38.0748 49.014C38.4382 49.2125 38.7803 49.2054 38.8871 49.1558C51.2358 43.6548 57.6844 36.4453 60.9194 31.3696C64.981 24.9966 66.3134 18.2196 64.5891 12.7682C63.3278 8.7842 60.5061 5.73595 56.4374 3.94953C51.8842 1.95045 45.8061 1.596 38.8729 2.92872C38.3955 3.02088 37.462 3.72268 37.348 5.70759L37.6758 17.3689C42.1578 16.7097 45.4569 18.0778 46.6184 21.1402C48.0791 25.0108 45.6493 31.2916 38.2672 35.3111C37.5333 35.708 37.1699 36.1901 37.12 36.8281L37.3623 47.9861H37.3551Z" fill="#154576"/>
<path d="M159.701 42.0947C151.057 42.0947 144.024 35.0979 144.024 26.499V4.18298H151.863V26.499C151.863 30.802 155.383 34.2969 159.701 34.2969C164.019 34.2969 167.539 30.7949 167.539 26.499V16.3051H175.377V26.499C175.377 35.0979 168.344 42.0947 159.701 42.0947Z" fill="#154576"/>
<path d="M100.238 50.0202H94.4949C86.2008 50.0202 79.46 43.3069 79.46 35.0625V22.9758H87.2981V35.0625C87.2981 39.011 90.526 42.2223 94.4949 42.2223H100.238C104.207 42.2223 107.435 39.011 107.435 35.0625V26.4139C107.435 20.0764 112.622 14.9157 118.993 14.9157C125.363 14.9157 130.55 20.0764 130.55 26.4139V27.5978C130.55 31.2912 133.572 34.304 137.291 34.304C141.011 34.304 144.032 31.2982 144.032 27.5978V25.2584H151.87V27.5978C151.87 35.5941 145.329 42.1018 137.291 42.1018C129.253 42.1018 122.712 35.5941 122.712 27.5978V26.4139C122.712 24.3723 121.045 22.7135 118.993 22.7135C116.94 22.7135 115.273 24.3723 115.273 26.4139V35.0625C115.273 43.314 108.525 50.0202 100.238 50.0202Z" fill="#154576"/>
<path d="M92.3077 56.2726C91.0749 56.2726 89.999 55.826 89.1154 54.9541C88.2318 54.075 87.79 53.0117 87.79 51.7782C87.79 50.5448 88.239 49.4814 89.1154 48.6024C89.9918 47.7233 91.0678 47.2838 92.3077 47.2838C93.5475 47.2838 94.6163 47.7304 95.4999 48.6024C96.3835 49.4814 96.8253 50.5448 96.8253 51.7782C96.8253 53.0117 96.3764 54.075 95.4999 54.9541C94.6163 55.8331 93.5475 56.2726 92.3077 56.2726Z" fill="#154576"/>
<path d="M92.3074 47.8509C93.3833 47.8509 94.3239 48.2408 95.0935 49.0064C95.863 49.7721 96.255 50.7007 96.255 51.7782C96.255 52.8558 95.863 53.7844 95.0935 54.55C94.3239 55.3156 93.3833 55.7055 92.3074 55.7055C91.2314 55.7055 90.2908 55.3156 89.5213 54.55C88.7517 53.7844 88.3598 52.8558 88.3598 51.7782C88.3598 50.7007 88.7517 49.7721 89.5213 49.0064C90.2908 48.2408 91.2243 47.8509 92.3074 47.8509ZM92.3074 46.7167C90.9321 46.7167 89.6923 47.2342 88.7161 48.2054C87.7399 49.1766 87.2197 50.4171 87.2197 51.7782C87.2197 53.1393 87.7399 54.3799 88.7161 55.3511C89.6923 56.3223 90.9393 56.8397 92.3074 56.8397C93.6755 56.8397 94.9225 56.3293 95.8987 55.3511C96.8749 54.3728 97.395 53.1393 97.395 51.7711C97.395 50.403 96.8749 49.1695 95.8987 48.1983C94.9225 47.2271 93.6755 46.7096 92.3003 46.7096L92.3074 46.7167Z" fill="white"/>
<path d="M101.343 56.2726C100.11 56.2726 99.0341 55.826 98.1506 54.9541C97.267 54.075 96.8252 53.0117 96.8252 51.7782C96.8252 50.5448 97.2741 49.4814 98.1506 48.6024C99.027 47.7233 100.103 47.2838 101.343 47.2838C102.583 47.2838 103.651 47.7304 104.535 48.6024C105.419 49.4814 105.86 50.5448 105.86 51.7782C105.86 53.0117 105.412 54.075 104.535 54.9541C103.651 55.8331 102.583 56.2726 101.343 56.2726Z" fill="#154576"/>
<path d="M101.343 47.8509C102.419 47.8509 103.359 48.2408 104.129 49.0064C104.898 49.7721 105.29 50.7007 105.29 51.7782C105.29 52.8558 104.898 53.7844 104.129 54.55C103.359 55.3156 102.419 55.7055 101.343 55.7055C100.267 55.7055 99.326 55.3156 98.5564 54.55C97.7869 53.7844 97.395 52.8558 97.395 51.7782C97.395 50.7007 97.7869 49.7721 98.5564 49.0064C99.326 48.2408 100.259 47.8509 101.343 47.8509ZM101.343 46.7167C99.9673 46.7167 98.7275 47.2342 97.7513 48.2054C96.775 49.1766 96.2549 50.4171 96.2549 51.7782C96.2549 53.1393 96.775 54.3799 97.7513 55.3511C98.7275 56.3223 99.9744 56.8397 101.343 56.8397C102.711 56.8397 103.958 56.3293 104.934 55.3511C105.91 54.3728 106.43 53.1393 106.43 51.7711C106.43 50.403 105.91 49.1695 104.934 48.1983C103.958 47.2271 102.711 46.7096 101.335 46.7096L101.343 46.7167Z" fill="white"/>
<path d="M156.608 48.971C155.376 48.971 154.3 48.5244 153.416 47.6525C152.533 46.7734 152.091 45.7101 152.091 44.4766C152.091 43.2431 152.54 42.1798 153.416 41.3008C154.293 40.4217 155.369 39.9822 156.608 39.9822C157.848 39.9822 158.917 40.4288 159.801 41.3008C160.684 42.1798 161.126 43.2431 161.126 44.4766C161.126 45.7101 160.677 46.7734 159.801 47.6525C158.917 48.5315 157.848 48.971 156.608 48.971Z" fill="#154576"/>
<path d="M156.608 40.5564C157.684 40.5564 158.625 40.9463 159.394 41.7119C160.164 42.4775 160.556 43.4062 160.556 44.4837C160.556 45.5612 160.164 46.4899 159.394 47.2555C158.625 48.0211 157.684 48.411 156.608 48.411C155.532 48.411 154.592 48.0211 153.822 47.2555C153.053 46.4899 152.661 45.5612 152.661 44.4837C152.661 43.4062 153.053 42.4775 153.822 41.7119C154.592 40.9463 155.525 40.5564 156.608 40.5564ZM156.608 39.4151C155.233 39.4151 153.993 39.9326 153.017 40.9038C152.041 41.875 151.521 43.1155 151.521 44.4766C151.521 45.8377 152.041 47.0783 153.017 48.0494C153.993 49.0206 155.24 49.5381 156.608 49.5381C157.976 49.5381 159.223 49.0277 160.199 48.0494C161.176 47.0712 161.696 45.8377 161.696 44.4695C161.696 43.1013 161.176 41.8679 160.199 40.8967C159.223 39.9255 157.976 39.408 156.601 39.408L156.608 39.4151Z" fill="white"/>
<path d="M165.644 40.5564C164.568 40.5564 163.627 40.9463 162.858 41.7119C162.088 42.4775 161.696 43.4062 161.696 44.4837C161.696 45.5612 162.088 46.4899 162.858 47.2555C163.627 48.0211 164.561 48.411 165.644 48.411C166.727 48.411 167.66 48.0211 168.43 47.2555C169.2 46.4899 169.591 45.5541 169.591 44.4837C169.591 43.4133 169.2 42.4775 168.43 41.7119C167.66 40.9463 166.72 40.5564 165.644 40.5564Z" fill="#154576"/>
<path d="M165.644 48.971C164.411 48.971 163.335 48.5244 162.451 47.6525C161.568 46.7734 161.126 45.7101 161.126 44.4766C161.126 43.2431 161.575 42.1798 162.451 41.3008C163.328 40.4217 164.404 39.9822 165.644 39.9822C166.883 39.9822 167.952 40.4288 168.836 41.3008C169.719 42.1798 170.161 43.2431 170.161 44.4766C170.161 45.7101 169.712 46.7734 168.836 47.6525C167.952 48.5315 166.883 48.971 165.644 48.971Z" fill="#154576"/>
<path d="M165.643 40.5564C166.719 40.5564 167.66 40.9463 168.429 41.7119C169.199 42.4775 169.591 43.4062 169.591 44.4837C169.591 45.5612 169.199 46.4899 168.429 47.2555C167.66 48.0211 166.719 48.411 165.643 48.411C164.567 48.411 163.627 48.0211 162.857 47.2555C162.088 46.4899 161.696 45.5612 161.696 44.4837C161.696 43.4062 162.088 42.4775 162.857 41.7119C163.627 40.9463 164.56 40.5564 165.643 40.5564ZM165.643 39.4151C164.268 39.4151 163.028 39.9326 162.052 40.9038C161.076 41.875 160.556 43.1155 160.556 44.4766C160.556 45.8377 161.076 47.0783 162.052 48.0494C163.028 49.0206 164.275 49.5381 165.643 49.5381C167.011 49.5381 168.258 49.0277 169.235 48.0494C170.211 47.0712 170.731 45.8377 170.731 44.4695C170.731 43.1013 170.211 41.8679 169.235 40.8967C168.258 39.9255 167.011 39.408 165.636 39.408L165.643 39.4151Z" fill="white"/>
<path d="M119.028 50.488C118.636 50.247 118.194 50.1265 117.696 50.1265C117.175 50.1265 116.712 50.2541 116.32 50.5093C115.929 50.7645 115.622 51.126 115.408 51.5797C115.195 52.0405 115.088 52.5651 115.088 53.1535V54.9186C115.088 55.4149 115.024 55.7693 114.902 55.9891C114.781 56.2088 114.553 56.3152 114.218 56.3152C114.005 56.3152 113.741 56.2726 113.435 56.1946V57.5912C113.784 57.6621 114.09 57.6975 114.361 57.6975C115.073 57.6975 115.608 57.4777 115.957 57.0311C116.313 56.5845 116.499 55.9182 116.513 55.025C116.94 55.2447 117.389 55.3581 117.867 55.3581C118.301 55.3581 118.7 55.2589 119.064 55.0675C119.427 54.8761 119.719 54.5925 119.94 54.2097C120.161 53.834 120.268 53.3874 120.268 52.8628C120.268 52.3383 120.154 51.8846 119.933 51.4663C119.712 51.0481 119.406 50.722 119.014 50.4809M139.308 56.1946C139.087 56.1946 138.894 56.2726 138.737 56.4357C138.581 56.5916 138.502 56.783 138.502 57.0028C138.502 57.2225 138.581 57.4139 138.737 57.5699C138.894 57.7259 139.087 57.8038 139.308 57.8038C139.528 57.8038 139.721 57.7259 139.878 57.5699C140.034 57.4139 140.113 57.2225 140.113 57.0028C140.113 56.783 140.034 56.5916 139.878 56.4357C139.721 56.2797 139.528 56.1946 139.308 56.1946ZM141.203 56.1946C140.982 56.1946 140.79 56.2726 140.633 56.4357C140.476 56.5916 140.391 56.783 140.391 57.0028C140.391 57.2225 140.469 57.4139 140.633 57.5699C140.79 57.7259 140.982 57.8038 141.203 57.8038C141.424 57.8038 141.616 57.7259 141.773 57.5699C141.93 57.4139 142.015 57.2225 142.015 57.0028C142.015 56.783 141.937 56.5916 141.773 56.4357C141.616 56.2797 141.424 56.1946 141.203 56.1946ZM140.996 50.7999H139.557V53.9545H136.457H136.863H126.474V50.1761H124.572C123.824 50.1761 123.211 50.2966 122.719 50.5447C122.228 50.7929 121.871 51.1119 121.643 51.5159C121.415 51.9129 121.301 52.3453 121.301 52.8061C121.301 53.2669 121.415 53.6851 121.636 54.068C121.857 54.4508 122.213 54.7627 122.698 55.0037C123.182 55.2376 123.802 55.3581 124.558 55.3581H124.957C124.864 55.6771 124.686 55.904 124.429 56.0529C124.173 56.2017 123.824 56.2726 123.382 56.2726C123.075 56.2726 122.719 56.2443 122.306 56.1876V57.577C122.762 57.6621 123.197 57.6975 123.596 57.6975C124.415 57.6975 125.064 57.499 125.541 57.102C126.018 56.705 126.318 56.1238 126.432 55.3511H127.949H136.871H136.464H141.011V50.7929L140.996 50.7999ZM125.049 53.9545H124.572C123.902 53.9545 123.425 53.8411 123.132 53.6214C122.84 53.4016 122.691 53.118 122.691 52.7849C122.691 52.4517 122.833 52.1681 123.125 51.9413C123.417 51.7144 123.888 51.601 124.55 51.601H125.049V53.9474V53.9545ZM174.401 49.5381L174.194 48.1345C173.147 48.2975 172.263 48.5244 171.536 48.8009C170.81 49.0844 170.118 49.4672 169.477 49.9422L169.762 51.7286C170.753 51.7286 171.515 51.8987 172.042 52.239C172.57 52.5793 172.833 53.1464 172.833 53.9545H151.278V48.3897H149.839V54.1956C149.839 54.9186 149.682 55.4503 149.383 55.7906C149.077 56.1308 148.606 56.301 147.958 56.301C146.675 56.301 146.027 55.6771 146.027 54.4366C146.027 54.0042 146.105 53.4937 146.262 52.8983H144.915C144.716 53.5646 144.616 54.153 144.616 54.6776C144.616 55.3581 144.766 55.9324 145.072 56.386C145.379 56.8397 145.785 57.1729 146.283 57.3856C146.789 57.5983 147.338 57.7046 147.944 57.7046C148.799 57.7046 149.497 57.5061 150.046 57.102C150.594 56.698 150.958 56.1238 151.143 55.3652H174.266V53.9616C174.266 52.955 174.002 52.1681 173.468 51.6081C172.933 51.0481 172.178 50.6936 171.187 50.5447C171.622 50.3037 172.121 50.0981 172.684 49.9209C173.247 49.7437 173.817 49.6232 174.401 49.5523V49.5381ZM181.284 49.1695C181.505 49.1695 181.698 49.0915 181.854 48.9285C182.011 48.7725 182.089 48.5811 182.089 48.3613C182.089 48.1416 182.011 47.9502 181.854 47.7942C181.698 47.6383 181.505 47.5532 181.284 47.5532C181.063 47.5532 180.871 47.6312 180.714 47.7942C180.557 47.9502 180.479 48.1416 180.479 48.3613C180.479 48.5811 180.557 48.7725 180.714 48.9285C180.871 49.0844 181.063 49.1695 181.284 49.1695ZM179.382 49.1695C179.603 49.1695 179.795 49.0915 179.952 48.9285C180.109 48.7725 180.187 48.5811 180.187 48.3613C180.187 48.1416 180.109 47.9502 179.952 47.7942C179.795 47.6383 179.603 47.5532 179.382 47.5532C179.161 47.5532 178.968 47.6312 178.812 47.7942C178.655 47.9502 178.577 48.1416 178.577 48.3613C178.577 48.5811 178.655 48.7725 178.812 48.9285C178.968 49.0844 179.161 49.1695 179.382 49.1695ZM187.854 56.2088C187.633 56.2088 187.441 56.2868 187.284 56.4428C187.127 56.5987 187.049 56.7901 187.049 57.0099C187.049 57.2296 187.127 57.421 187.284 57.577C187.441 57.7329 187.633 57.8109 187.854 57.8109C188.075 57.8109 188.267 57.7329 188.424 57.577C188.581 57.421 188.659 57.2296 188.659 57.0099C188.659 56.7901 188.581 56.5987 188.424 56.4428C188.267 56.2868 188.075 56.2088 187.854 56.2088ZM189.749 56.2088C189.529 56.2088 189.336 56.2868 189.179 56.4428C189.023 56.5987 188.944 56.7901 188.944 57.0099C188.944 57.2296 189.023 57.421 189.179 57.577C189.336 57.7329 189.529 57.8109 189.749 57.8109C189.97 57.8109 190.163 57.7329 190.319 57.577C190.476 57.421 190.555 57.2296 190.555 57.0099C190.555 56.7901 190.476 56.5987 190.319 56.4428C190.163 56.2868 189.97 56.2088 189.749 56.2088ZM192.949 56.1946C192.728 56.1946 192.536 56.2726 192.379 56.4357C192.222 56.5916 192.144 56.783 192.144 57.0028C192.144 57.2225 192.222 57.4139 192.379 57.5699C192.536 57.7259 192.728 57.8038 192.949 57.8038C193.17 57.8038 193.362 57.7259 193.519 57.5699C193.676 57.4139 193.754 57.2225 193.754 57.0028C193.754 56.783 193.676 56.5916 193.519 56.4357C193.362 56.2797 193.17 56.1946 192.949 56.1946ZM206.68 51.5656C206.395 51.126 206.003 50.7787 205.511 50.5306C205.02 50.2825 204.478 50.1549 203.887 50.1549C203.252 50.1549 202.697 50.2754 202.233 50.5093C201.77 50.7432 201.4 51.0906 201.129 51.5514V48.3897H199.704V53.9545H199.205C198.664 53.9545 198.279 53.8411 198.044 53.6001C197.837 53.3874 197.737 53.0968 197.737 52.7352V48.3826H196.298V52.7352C196.298 53.1393 196.184 53.4441 195.963 53.6497C195.742 53.8553 195.457 53.9545 195.101 53.9545C194.559 53.9545 194.174 53.8411 193.939 53.6001C193.733 53.3874 193.633 53.0968 193.633 52.7352V50.7999H192.194V52.7352C192.194 53.1393 192.08 53.4441 191.859 53.6497C191.638 53.8553 191.353 53.9545 190.996 53.9545C190.455 53.9545 190.07 53.8411 189.835 53.6001C189.628 53.3874 189.529 53.0968 189.529 52.7352V50.7999H188.089V52.7352C188.089 53.1393 187.975 53.4441 187.754 53.6497C187.533 53.8553 187.248 53.9545 186.892 53.9545H183.7C183.351 53.9545 183.066 53.8553 182.845 53.6497C182.624 53.4441 182.517 53.1464 182.517 52.7352V49.7153H181.078V50.1549C180.892 50.1265 180.686 50.1194 180.458 50.1194C179.859 50.1194 179.325 50.2328 178.847 50.4597C178.37 50.6865 177.999 51.0055 177.729 51.4238C177.458 51.842 177.322 52.3241 177.322 52.877C177.322 53.3236 177.422 53.7206 177.615 54.068C177.807 54.4224 178.064 54.6918 178.391 54.8832C178.712 55.0746 179.061 55.1738 179.424 55.1738C180.344 55.1738 180.971 54.7698 181.313 53.9687C181.505 54.4153 181.804 54.7627 182.218 55.0037C182.631 55.2447 183.13 55.3652 183.714 55.3652H186.906C187.348 55.3652 187.747 55.2943 188.096 55.1455C188.445 54.9966 188.73 54.791 188.959 54.5287C189.315 55.0888 189.999 55.3652 191.011 55.3652C191.46 55.3652 191.851 55.2943 192.201 55.1455C192.55 54.9966 192.835 54.791 193.063 54.5287C193.419 55.0888 194.103 55.3652 195.115 55.3652C195.564 55.3652 195.956 55.2943 196.305 55.1455C196.654 54.9966 196.939 54.791 197.167 54.5287C197.523 55.0888 198.208 55.3652 199.219 55.3652H207.114V53.0259C207.114 52.4942 206.972 52.0051 206.687 51.5656H206.68ZM181.085 52.161C181.085 52.6643 180.971 53.0542 180.736 53.3449C180.5 53.6355 180.194 53.7844 179.802 53.7844C179.489 53.7844 179.232 53.7064 179.04 53.5434C178.84 53.3803 178.74 53.1535 178.74 52.8557C178.74 52.4304 178.911 52.0972 179.239 51.842C179.574 51.5939 179.995 51.4663 180.515 51.4663C180.679 51.4663 180.871 51.4805 181.078 51.5159V52.161H181.085ZM205.668 53.9545H201.136V53.8766C201.15 53.4299 201.286 53.0259 201.549 52.6785C201.813 52.3312 202.148 52.0618 202.568 51.8704C202.989 51.679 203.431 51.5868 203.901 51.5868C204.45 51.5868 204.884 51.7144 205.198 51.9838C205.518 52.2461 205.675 52.5935 205.675 53.0259V53.9545H205.668ZM118.501 53.749C118.273 53.9545 117.981 54.0538 117.632 54.0538C117.254 54.0538 116.89 53.9404 116.534 53.7135V53.1606C116.534 52.6573 116.627 52.2674 116.833 51.9909C117.04 51.7073 117.332 51.5656 117.724 51.5656C118.073 51.5656 118.351 51.6861 118.551 51.9342C118.75 52.1752 118.85 52.4942 118.85 52.877C118.85 53.2598 118.736 53.5505 118.508 53.749H118.501Z" fill="#EF482B"/>
<path d="M194.196 42.0947H180.629V34.2969H194.196C196.968 34.2969 199.22 32.0142 199.22 29.2141C199.22 26.4139 196.968 24.1313 194.196 24.1313H182.218V16.3335H194.196C201.293 16.3335 207.058 22.1109 207.058 29.2141C207.058 36.3172 201.286 42.0947 194.196 42.0947Z" fill="#154576"/>
</svg>
