<svg width="212" height="62" viewBox="0 0 212 62" fill="none" xmlns="http://www.w3.org/2000/svg">
<g clip-path="url(#clip0_58_1299)">
<path fill-rule="evenodd" clip-rule="evenodd" d="M165.021 6.94012L177.669 3.12626C179.301 2.63712 180.64 3.6792 180.64 5.45852V15.4539C180.64 17.2262 179.308 19.0835 177.669 19.5726L165.021 23.3865C163.389 23.8756 162.05 22.8336 162.05 21.0542V11.0588C162.05 9.28656 163.382 7.42925 165.021 6.94012Z" fill="#FCC214"/>
<path d="M164.237 24.5702C163.539 24.5702 162.876 24.3646 162.334 23.9606C161.472 23.3226 160.98 22.2663 160.98 21.0541V11.0587C160.98 8.80439 162.619 6.55011 164.714 5.91919L177.362 2.10533C178.445 1.77924 179.535 1.94228 180.362 2.55193C181.224 3.18285 181.716 4.24619 181.716 5.45841V15.4538C181.716 17.7081 180.077 19.9624 177.989 20.5933L165.341 24.4072C164.971 24.5206 164.607 24.5702 164.244 24.5702M178.459 4.06897C178.288 4.06897 178.117 4.10442 177.982 4.14695L165.334 7.96081C164.158 8.31525 163.125 9.7614 163.125 11.0587V21.0541C163.125 21.5929 163.296 22.0182 163.61 22.2451C163.966 22.5073 164.401 22.4506 164.707 22.3585L177.355 18.5446C178.531 18.1902 179.564 16.744 179.564 15.4467V5.45132C179.564 4.91256 179.393 4.48722 179.079 4.26037C178.887 4.11859 178.666 4.06897 178.459 4.06897Z" fill="#154576"/>
<path fill-rule="evenodd" clip-rule="evenodd" d="M160.553 41.1443L173.201 37.3304C174.833 36.8413 176.173 34.984 176.173 33.2118V23.2163C176.173 21.4441 174.84 20.3949 173.201 20.8841L160.553 24.6979C158.922 25.1871 157.582 27.0444 157.582 28.8166V38.812C157.582 40.5843 158.922 41.6334 160.553 41.1443Z" fill="#FCC214"/>
<path d="M159.769 42.328C159.071 42.328 158.408 42.1225 157.867 41.7184C157.004 41.0804 156.513 40.0241 156.513 38.8119V28.8165C156.513 26.5622 158.152 24.3079 160.239 23.677L172.887 19.8631C173.97 19.5371 175.061 19.7001 175.887 20.3097C176.749 20.9407 177.241 22.004 177.241 23.2162V33.2116C177.241 35.4659 175.602 37.7202 173.514 38.3511L160.866 42.165C160.496 42.2784 160.132 42.328 159.769 42.328ZM173.992 21.8268C173.821 21.8268 173.65 21.8622 173.514 21.9048L160.866 25.7186C159.691 26.0731 158.657 27.5192 158.657 28.8165V38.8119C158.657 39.3507 158.829 39.776 159.142 40.0029C159.498 40.2652 159.933 40.2084 160.239 40.1163L172.887 36.3024C174.063 35.948 175.096 34.5018 175.096 33.2046V23.2091C175.096 22.6704 174.925 22.245 174.612 22.0182C174.419 21.8764 174.198 21.8268 173.992 21.8268Z" fill="#154576"/>
<path fill-rule="evenodd" clip-rule="evenodd" d="M165.021 39.8327L177.669 36.0189C179.301 35.5226 180.64 36.5718 180.64 38.3511V48.3466C180.64 50.1188 179.308 51.9761 177.669 52.4652L165.021 56.2791C163.389 56.7682 162.05 55.7262 162.05 53.9468V43.9514C162.05 42.1792 163.389 40.3219 165.021 39.8327Z" fill="#FCC214"/>
<path d="M164.237 57.463C163.539 57.463 162.876 57.2575 162.334 56.8534C161.472 56.2225 160.98 55.1591 160.98 53.9469V43.9515C160.98 41.6972 162.619 39.4429 164.707 38.812L177.355 34.9982C178.438 34.6721 179.528 34.8351 180.355 35.4448C181.217 36.0757 181.709 37.139 181.709 38.3512V48.3467C181.709 50.6009 180.07 52.8552 177.982 53.4861L165.334 57.3C164.964 57.4134 164.6 57.463 164.237 57.463ZM165.334 40.8536C164.158 41.2081 163.125 42.6542 163.125 43.9515V53.9469C163.125 54.4857 163.296 54.911 163.61 55.1379C163.966 55.4002 164.401 55.3435 164.707 55.2513L177.355 51.4374C178.531 51.083 179.564 49.6368 179.564 48.3396V38.3441C179.564 37.8054 179.393 37.38 179.079 37.1532C178.723 36.8909 178.288 36.9476 177.982 37.0398L165.334 40.8536Z" fill="#154576"/>
<path fill-rule="evenodd" clip-rule="evenodd" d="M171.905 54.5071L176.337 53.1673C176.907 52.9971 177.377 53.3587 177.377 53.9825V57.4844C177.377 58.1083 176.907 58.7533 176.337 58.9306L171.905 60.2704C171.335 60.4405 170.864 60.079 170.864 59.4552V55.9532C170.864 55.3294 171.335 54.6843 171.905 54.5071Z" fill="#FDF8F4"/>
<path d="M171.633 61.3832C171.241 61.3832 170.864 61.2627 170.55 61.0358C170.066 60.6814 169.795 60.1072 169.795 59.4621V55.9602C169.795 54.8614 170.572 53.8051 171.598 53.4932L176.03 52.1534C176.621 51.9762 177.234 52.0683 177.697 52.4157C178.175 52.7701 178.452 53.3443 178.452 53.9894V57.4914C178.452 58.5902 177.676 59.6464 176.65 59.9583L172.218 61.2981C172.018 61.3549 171.826 61.3832 171.626 61.3832M176.308 54.2942L172.218 55.5277C172.118 55.5561 171.94 55.7758 171.94 55.946V59.1431L176.03 57.9096C176.13 57.8813 176.308 57.6615 176.308 57.4843V54.2872V54.2942Z" fill="#154576"/>
<path fill-rule="evenodd" clip-rule="evenodd" d="M147.022 36.0473C150.485 31.964 157.218 36.0898 158.351 40.6976C160.539 49.5943 162.933 53.8973 170.643 55.2229L170.472 60.5113C151.618 64.2259 141.806 42.2005 147.015 36.0473" fill="#EF482B"/>
<path d="M166.254 62.0001C162.848 62.0001 159.613 61.1778 156.591 59.5402C152.038 57.0733 149.217 53.4083 147.649 50.7641C144.129 44.8307 143.53 38.4931 146.195 35.3527C147.685 33.5947 149.815 32.9354 152.202 33.4954C155.516 34.2681 158.608 37.2526 159.392 40.4355C161.978 50.9484 165.007 53.1673 170.828 54.1668L171.748 54.3228L171.52 61.3905L170.686 61.5535C169.182 61.8512 167.707 62.0001 166.261 62.0001M147.841 36.7351C145.825 39.117 146.537 44.6818 149.509 49.6866C151.041 52.267 156.392 59.8663 166.24 59.8663C167.258 59.8663 168.32 59.7884 169.439 59.6111L169.553 56.095C161.993 54.4716 159.463 49.6512 157.318 40.9459C156.72 38.5286 154.269 36.168 151.725 35.5725C150.62 35.3173 149.053 35.3102 147.848 36.728L147.841 36.7351Z" fill="#154576"/>
<path fill-rule="evenodd" clip-rule="evenodd" d="M153.036 15.6877C156.67 15.6877 159.62 19.53 159.62 24.2725C159.62 29.015 156.67 32.8572 153.036 32.8572C149.402 32.8572 146.452 29.015 146.452 24.2725C146.452 19.53 149.402 15.6877 153.036 15.6877Z" fill="#FDF8F4"/>
<path d="M153.036 33.6299C148.982 33.6299 145.683 29.4332 145.683 24.2725C145.683 19.1117 148.982 14.915 153.036 14.915C157.091 14.915 160.39 19.1117 160.39 24.2725C160.39 29.4332 157.091 33.6299 153.036 33.6299ZM153.036 16.4533C149.83 16.4533 147.229 19.9624 147.229 24.2725C147.229 28.5825 149.837 32.0916 153.036 32.0916C156.236 32.0916 158.844 28.5825 158.844 24.2725C158.844 19.9624 156.236 16.4533 153.036 16.4533Z" fill="#154576"/>
<path fill-rule="evenodd" clip-rule="evenodd" d="M153.058 15.6453C156.692 15.6453 159.642 19.4875 159.642 24.23C159.378 27.9659 154.105 27.3775 146.474 24.23C146.474 19.4875 149.424 15.6453 153.058 15.6453Z" fill="#EF482B"/>
<path d="M156.092 27.5972C153.748 27.5972 150.47 26.7182 146.181 24.946L145.703 24.7475V24.2371C145.703 19.0763 149.002 14.8796 153.057 14.8796C157.111 14.8796 160.41 19.0763 160.41 24.2371V24.2938C160.325 25.4705 159.805 26.3921 158.9 26.945C158.194 27.3775 157.254 27.5972 156.092 27.5972ZM147.257 23.7196C154.56 26.6686 157.168 26.1865 158.08 25.6265C158.558 25.3358 158.807 24.8822 158.857 24.2016C158.843 19.9057 156.242 16.4109 153.05 16.4109C149.857 16.4109 147.449 19.6434 147.257 23.7196Z" fill="#154576"/>
<path fill-rule="evenodd" clip-rule="evenodd" d="M146.466 23.6274C151.454 26.2078 159.335 25.9242 159.356 21.9048C159.435 21.9261 164.358 28.6818 160.268 30.0713C154.611 31.9924 150.214 26.7536 146.459 23.6274" fill="#EF482B"/>
<path d="M157.846 31.2622C153.855 31.2622 150.528 28.2778 147.763 25.7896C147.136 25.2295 146.552 24.705 145.975 24.2229L146.83 22.9469C150.229 24.705 155.195 25.0523 157.461 23.6912C158.216 23.2375 158.587 22.6492 158.594 21.8977V20.9053L159.563 21.1534C159.698 21.1888 160.105 21.2952 161.302 23.4786C162.171 25.0665 162.634 26.4559 162.677 27.6043C162.734 29.1781 161.972 30.3052 160.532 30.7944C159.606 31.1063 158.715 31.2481 157.853 31.2481M149.958 25.6761C152.901 28.2494 156.193 30.6455 160.026 29.3411C160.589 29.1497 160.917 28.8378 161.052 28.3629C161.401 27.1152 160.44 25.0523 159.641 23.6912C159.328 24.2016 158.858 24.6482 158.259 25.0098C156.328 26.1653 153.086 26.3638 149.965 25.6761H149.958Z" fill="#154576"/>
<path fill-rule="evenodd" clip-rule="evenodd" d="M180.811 5.70663C180.939 3.10499 182.307 2.06291 183.205 1.89277C219.218 -5.00478 220.907 33.63 183.861 50.1402C182.949 50.5443 181.096 49.9346 180.825 48.0915L180.583 36.8201C180.661 35.4164 181.68 34.7146 182.286 34.3885C193.409 28.3346 193.388 15.9573 181.174 18.6582L180.811 5.70663Z" fill="#FCC214"/>
<path d="M183.234 51.3311C182.685 51.3311 182.108 51.1823 181.581 50.8987C180.576 50.3528 179.935 49.41 179.764 48.2545L179.749 48.1198L179.5 36.8059V36.7633C179.557 35.785 179.992 34.4169 181.766 33.4528C187.858 30.1351 190.302 24.9744 189.141 21.9049C188.272 19.608 185.45 18.807 181.403 19.7002L180.134 19.9838L179.735 5.69952V5.65698C179.878 2.73633 181.481 1.14132 182.999 0.850672C190.466 -0.581297 196.808 -0.191405 201.832 2.01326C206.477 4.04779 209.705 7.54973 211.166 12.1434C214.807 23.6133 206.627 41.1726 184.303 51.1255C183.982 51.2673 183.619 51.3382 183.241 51.3382M181.894 47.9922C182.001 48.5735 182.343 48.8713 182.614 49.0201C182.977 49.2186 183.319 49.2115 183.426 49.1619C195.775 43.6609 202.223 36.4514 205.458 31.3757C209.52 25.0027 210.853 18.2257 209.128 12.7743C207.867 8.7903 205.045 5.74205 200.976 3.95563C196.423 1.95655 190.345 1.6021 183.412 2.93482C182.935 3.02698 182.001 3.72879 181.887 5.71369L182.215 17.375C186.697 16.7158 189.996 18.0839 191.157 21.1464C192.618 25.0169 190.188 31.2977 182.806 35.3172C182.072 35.7142 181.709 36.1962 181.659 36.8342L181.901 47.9922H181.894Z" fill="#154576"/>
<path d="M80.2407 46.2765C71.5974 46.2765 64.5645 39.2797 64.5645 30.6808V8.36475H72.4026V30.6808C72.4026 34.9838 75.9226 38.4786 80.2407 38.4786C84.5588 38.4786 88.0788 34.9767 88.0788 30.6808V20.4869H95.917V30.6808C95.917 39.2797 88.884 46.2765 80.2407 46.2765Z" fill="#154576"/>
<path d="M20.7782 54.2019H15.035C6.74079 54.2019 0 47.4887 0 39.2442V27.1576H7.83813V39.2442C7.83813 43.1928 11.066 46.4041 15.035 46.4041H20.7782C24.7471 46.4041 27.975 43.1928 27.975 39.2442V30.5957C27.975 24.2582 33.1624 19.0974 39.5327 19.0974C45.9029 19.0974 51.0903 24.2582 51.0903 30.5957V31.7796C51.0903 35.4729 54.1116 38.4857 57.8311 38.4857C61.5507 38.4857 64.5719 35.48 64.5719 31.7796V29.4402H72.4101V31.7796C72.4101 39.7759 65.8688 46.2836 57.8311 46.2836C49.7935 46.2836 43.2522 39.7759 43.2522 31.7796V30.5957C43.2522 28.5541 41.5848 26.8953 39.5327 26.8953C37.4805 26.8953 35.8131 28.5541 35.8131 30.5957V39.2442C35.8131 47.4958 29.0652 54.2019 20.7782 54.2019Z" fill="#154576"/>
<path d="M12.8477 60.4544C11.615 60.4544 10.539 60.0078 9.65543 59.1358C8.77186 58.2568 8.33008 57.1935 8.33008 55.96C8.33008 54.7265 8.77899 53.6632 9.65543 52.7841C10.5319 51.9051 11.6078 51.4656 12.8477 51.4656C14.0875 51.4656 15.1564 51.9122 16.0399 52.7841C16.9235 53.6632 17.3653 54.7265 17.3653 55.96C17.3653 57.1935 16.9164 58.2568 16.0399 59.1358C15.1564 60.0149 14.0875 60.4544 12.8477 60.4544Z" fill="#154576"/>
<path d="M12.8474 52.0327C13.9234 52.0327 14.864 52.4226 15.6335 53.1882C16.4031 53.9538 16.795 54.8824 16.795 55.96C16.795 57.0375 16.4031 57.9661 15.6335 58.7317C14.864 59.4973 13.9234 59.8872 12.8474 59.8872C11.7715 59.8872 10.8309 59.4973 10.0613 58.7317C9.29176 57.9661 8.89986 57.0375 8.89986 55.96C8.89986 54.8824 9.29176 53.9538 10.0613 53.1882C10.8309 52.4226 11.7643 52.0327 12.8474 52.0327ZM12.8474 50.8984C11.4722 50.8984 10.2323 51.4159 9.25614 52.3871C8.27993 53.3583 7.75977 54.5989 7.75977 55.96C7.75977 57.321 8.27993 58.5616 9.25614 59.5328C10.2323 60.504 11.4793 61.0215 12.8474 61.0215C14.2155 61.0215 15.4625 60.5111 16.4387 59.5328C17.4149 58.5545 17.9351 57.321 17.9351 55.9529C17.9351 54.5847 17.4149 53.3512 16.4387 52.38C15.4625 51.4089 14.2155 50.8914 12.8403 50.8914L12.8474 50.8984Z" fill="white"/>
<path d="M21.8828 60.4544C20.6501 60.4544 19.5742 60.0078 18.6906 59.1358C17.807 58.2568 17.3652 57.1935 17.3652 55.96C17.3652 54.7265 17.8141 53.6632 18.6906 52.7841C19.567 51.9051 20.643 51.4656 21.8828 51.4656C23.1227 51.4656 24.1915 51.9122 25.0751 52.7841C25.9587 53.6632 26.4005 54.7265 26.4005 55.96C26.4005 57.1935 25.9515 58.2568 25.0751 59.1358C24.1915 60.0149 23.1227 60.4544 21.8828 60.4544Z" fill="#154576"/>
<path d="M21.8826 52.0327C22.9585 52.0327 23.8991 52.4226 24.6687 53.1882C25.4382 53.9538 25.8301 54.8824 25.8301 55.96C25.8301 57.0375 25.4382 57.9661 24.6687 58.7317C23.8991 59.4973 22.9585 59.8872 21.8826 59.8872C20.8066 59.8872 19.866 59.4973 19.0965 58.7317C18.3269 57.9661 17.935 57.0375 17.935 55.96C17.935 54.8824 18.3269 53.9538 19.0965 53.1882C19.866 52.4226 20.7995 52.0327 21.8826 52.0327ZM21.8826 50.8984C20.5073 50.8984 19.2675 51.4159 18.2913 52.3871C17.3151 53.3583 16.7949 54.5989 16.7949 55.96C16.7949 57.321 17.3151 58.5616 18.2913 59.5328C19.2675 60.504 20.5145 61.0215 21.8826 61.0215C23.2507 61.0215 24.4977 60.5111 25.4739 59.5328C26.4501 58.5545 26.9702 57.321 26.9702 55.9529C26.9702 54.5847 26.4501 53.3512 25.4739 52.38C24.4977 51.4089 23.2507 50.8914 21.8755 50.8914L21.8826 50.8984Z" fill="white"/>
<path d="M77.1485 53.1529C75.9157 53.1529 74.8398 52.7063 73.9562 51.8343C73.0726 50.9553 72.6309 49.8919 72.6309 48.6585C72.6309 47.425 73.0798 46.3616 73.9562 45.4826C74.8327 44.6036 75.9086 44.1641 77.1485 44.1641C78.3883 44.1641 79.4572 44.6107 80.3407 45.4826C81.2243 46.3616 81.6661 47.425 81.6661 48.6585C81.6661 49.8919 81.2172 50.9553 80.3407 51.8343C79.4572 52.7133 78.3883 53.1529 77.1485 53.1529Z" fill="#154576"/>
<path d="M77.1482 44.7383C78.2242 44.7383 79.1647 45.1281 79.9343 45.8938C80.7039 46.6594 81.0958 47.588 81.0958 48.6655C81.0958 49.7431 80.7039 50.6717 79.9343 51.4373C79.1647 52.2029 78.2242 52.5928 77.1482 52.5928C76.0722 52.5928 75.1317 52.2029 74.3621 51.4373C73.5925 50.6717 73.2006 49.7431 73.2006 48.6655C73.2006 47.588 73.5925 46.6594 74.3621 45.8938C75.1317 45.1281 76.0651 44.7383 77.1482 44.7383ZM77.1482 43.5969C75.773 43.5969 74.5331 44.1144 73.5569 45.0856C72.5807 46.0568 72.0605 47.2974 72.0605 48.6584C72.0605 50.0195 72.5807 51.2601 73.5569 52.2313C74.5331 53.2025 75.7801 53.72 77.1482 53.72C78.5163 53.72 79.7633 53.2096 80.7395 52.2313C81.7157 51.253 82.2359 50.0195 82.2359 48.6514C82.2359 47.2832 81.7157 46.0497 80.7395 45.0785C79.7633 44.1073 78.5163 43.5898 77.1411 43.5898L77.1482 43.5969Z" fill="white"/>
<path d="M86.1839 44.7383C85.1079 44.7383 84.1674 45.1282 83.3978 45.8938C82.6282 46.6594 82.2363 47.588 82.2363 48.6656C82.2363 49.7431 82.6282 50.6717 83.3978 51.4373C84.1674 52.2029 85.1008 52.5928 86.1839 52.5928C87.267 52.5928 88.2004 52.2029 88.97 51.4373C89.7396 50.6717 90.1315 49.736 90.1315 48.6656C90.1315 47.5951 89.7396 46.6594 88.97 45.8938C88.2004 45.1282 87.2599 44.7383 86.1839 44.7383Z" fill="#154576"/>
<path d="M86.1836 53.1529C84.9509 53.1529 83.8749 52.7063 82.9914 51.8343C82.1078 50.9553 81.666 49.8919 81.666 48.6585C81.666 47.425 82.1149 46.3616 82.9914 45.4826C83.8678 44.6036 84.9438 44.1641 86.1836 44.1641C87.4235 44.1641 88.4923 44.6107 89.3759 45.4826C90.2595 46.3616 90.7012 47.425 90.7012 48.6585C90.7012 49.8919 90.2523 50.9553 89.3759 51.8343C88.4923 52.7133 87.4235 53.1529 86.1836 53.1529Z" fill="#154576"/>
<path d="M86.1834 44.7383C87.2593 44.7383 88.1999 45.1281 88.9695 45.8938C89.739 46.6594 90.1309 47.588 90.1309 48.6655C90.1309 49.7431 89.739 50.6717 88.9695 51.4373C88.1999 52.2029 87.2593 52.5928 86.1834 52.5928C85.1074 52.5928 84.1668 52.2029 83.3973 51.4373C82.6277 50.6717 82.2358 49.7431 82.2358 48.6655C82.2358 47.588 82.6277 46.6594 83.3973 45.8938C84.1668 45.1281 85.1003 44.7383 86.1834 44.7383ZM86.1834 43.5969C84.8081 43.5969 83.5683 44.1144 82.5921 45.0856C81.6159 46.0568 81.0957 47.2974 81.0957 48.6584C81.0957 50.0195 81.6159 51.2601 82.5921 52.2313C83.5683 53.2025 84.8153 53.72 86.1834 53.72C87.5515 53.72 88.7984 53.2096 89.7746 52.2313C90.7509 51.253 91.271 50.0195 91.271 48.6514C91.271 47.2832 90.7509 46.0497 89.7746 45.0785C88.7984 44.1073 87.5515 43.5898 86.1762 43.5898L86.1834 43.5969Z" fill="white"/>
<path d="M39.5682 54.6697C39.1763 54.4287 38.7345 54.3082 38.2357 54.3082C37.7155 54.3082 37.2524 54.4358 36.8605 54.691C36.4686 54.9462 36.1622 55.3077 35.9484 55.7614C35.7346 56.2222 35.6277 56.7468 35.6277 57.3351V59.1003C35.6277 59.5965 35.5636 59.951 35.4425 60.1707C35.3213 60.3905 35.0933 60.4968 34.7584 60.4968C34.5447 60.4968 34.281 60.4543 33.9746 60.3763V61.7728C34.3238 61.8437 34.6302 61.8792 34.9009 61.8792C35.6135 61.8792 36.1479 61.6594 36.4971 61.2128C36.8533 60.7662 37.0386 60.0998 37.0529 59.2066C37.4804 59.4264 37.9293 59.5398 38.4067 59.5398C38.8414 59.5398 39.2404 59.4406 39.6038 59.2492C39.9672 59.0578 40.2594 58.7742 40.4803 58.3914C40.7011 58.0157 40.808 57.5691 40.808 57.0445C40.808 56.5199 40.694 56.0662 40.4731 55.648C40.2522 55.2297 39.9458 54.9036 39.5539 54.6626M59.8476 60.3763C59.6267 60.3763 59.4343 60.4543 59.2775 60.6173C59.1208 60.7733 59.0424 60.9647 59.0424 61.1844C59.0424 61.4042 59.1208 61.5956 59.2775 61.7516C59.4343 61.9075 59.6267 61.9855 59.8476 61.9855C60.0685 61.9855 60.2608 61.9075 60.4176 61.7516C60.5744 61.5956 60.6528 61.4042 60.6528 61.1844C60.6528 60.9647 60.5744 60.7733 60.4176 60.6173C60.2608 60.4614 60.0685 60.3763 59.8476 60.3763ZM61.743 60.3763C61.5221 60.3763 61.3297 60.4543 61.1729 60.6173C61.0162 60.7733 60.9306 60.9647 60.9306 61.1844C60.9306 61.4042 61.009 61.5956 61.1729 61.7516C61.3297 61.9075 61.5221 61.9855 61.743 61.9855C61.9639 61.9855 62.1562 61.9075 62.313 61.7516C62.4698 61.5956 62.5553 61.4042 62.5553 61.1844C62.5553 60.9647 62.4769 60.7733 62.313 60.6173C62.1562 60.4614 61.9639 60.3763 61.743 60.3763ZM61.5363 54.9816H60.097V58.1362H56.9973H57.4035H47.0144V54.3578H45.1119C44.3637 54.3578 43.7509 54.4783 43.2592 54.7264C42.7676 54.9745 42.4113 55.2935 42.1833 55.6976C41.9553 56.0946 41.8412 56.527 41.8412 56.9878C41.8412 57.4486 41.9552 57.8668 42.1761 58.2496C42.397 58.6324 42.7533 58.9443 43.2379 59.1854C43.7224 59.4193 44.3423 59.5398 45.0976 59.5398H45.4967C45.404 59.8588 45.2259 60.0857 44.9694 60.2345C44.7128 60.3834 44.3637 60.4543 43.9219 60.4543C43.6155 60.4543 43.2592 60.4259 42.8459 60.3692V61.7586C43.302 61.8437 43.7366 61.8792 44.1357 61.8792C44.9551 61.8792 45.6035 61.6807 46.081 61.2837C46.5584 60.8867 46.8576 60.3054 46.9717 59.5327H48.4894H57.4106H57.0045H61.5506V54.9745L61.5363 54.9816ZM45.5893 58.1362H45.1119C44.4421 58.1362 43.9647 58.0228 43.6725 57.803C43.3804 57.5832 43.2307 57.2997 43.2307 56.9665C43.2307 56.6333 43.3732 56.3498 43.6654 56.1229C43.9575 55.8961 44.4278 55.7827 45.0905 55.7827H45.5893V58.1291V58.1362ZM94.941 53.7198L94.7344 52.3162C93.6869 52.4792 92.8033 52.706 92.0765 52.9825C91.3497 53.2661 90.6585 53.6489 90.0172 54.1238L90.3023 55.9103C91.2927 55.9103 92.0551 56.0804 92.5824 56.4207C93.1097 56.7609 93.3734 57.328 93.3734 58.1362H71.8185V52.5714H70.3792V58.3772C70.3792 59.1003 70.2224 59.632 69.9231 59.9722C69.6167 60.3125 69.1464 60.4826 68.498 60.4826C67.2154 60.4826 66.567 59.8588 66.567 58.6182C66.567 58.1858 66.6454 57.6754 66.8021 57.0799H65.4554C65.2559 57.7463 65.1561 58.3347 65.1561 58.8593C65.1561 59.5398 65.3057 60.114 65.6122 60.5677C65.9186 61.0214 66.3247 61.3546 66.8235 61.5672C67.3294 61.7799 67.8781 61.8862 68.4838 61.8862C69.3388 61.8862 70.0371 61.6878 70.5858 61.2837C71.1345 60.8796 71.4979 60.3054 71.6831 59.5469H94.8056V58.1433C94.8056 57.1366 94.542 56.3498 94.0075 55.7897C93.4731 55.2297 92.7178 54.8753 91.7274 54.7264C92.162 54.4854 92.6608 54.2798 93.2237 54.1026C93.7867 53.9253 94.3567 53.8048 94.941 53.7339V53.7198ZM101.824 53.3511C102.045 53.3511 102.238 53.2732 102.394 53.1101C102.551 52.9542 102.629 52.7628 102.629 52.543C102.629 52.3232 102.551 52.1318 102.394 51.9759C102.238 51.8199 102.045 51.7349 101.824 51.7349C101.603 51.7349 101.411 51.8128 101.254 51.9759C101.098 52.1318 101.019 52.3232 101.019 52.543C101.019 52.7628 101.098 52.9542 101.254 53.1101C101.411 53.2661 101.603 53.3511 101.824 53.3511ZM99.9218 53.3511C100.143 53.3511 100.335 53.2732 100.492 53.1101C100.649 52.9542 100.727 52.7628 100.727 52.543C100.727 52.3232 100.649 52.1318 100.492 51.9759C100.335 51.8199 100.143 51.7349 99.9218 51.7349C99.7009 51.7349 99.5085 51.8128 99.3517 51.9759C99.195 52.1318 99.1166 52.3232 99.1166 52.543C99.1166 52.7628 99.195 52.9542 99.3517 53.1101C99.5085 53.2661 99.7009 53.3511 99.9218 53.3511ZM108.394 60.3905C108.173 60.3905 107.981 60.4685 107.824 60.6244C107.667 60.7804 107.589 60.9718 107.589 61.1915C107.589 61.4113 107.667 61.6027 107.824 61.7586C107.981 61.9146 108.173 61.9926 108.394 61.9926C108.615 61.9926 108.807 61.9146 108.964 61.7586C109.121 61.6027 109.199 61.4113 109.199 61.1915C109.199 60.9718 109.121 60.7804 108.964 60.6244C108.807 60.4685 108.615 60.3905 108.394 60.3905ZM110.289 60.3905C110.069 60.3905 109.876 60.4685 109.719 60.6244C109.563 60.7804 109.484 60.9718 109.484 61.1915C109.484 61.4113 109.563 61.6027 109.719 61.7586C109.876 61.9146 110.069 61.9926 110.289 61.9926C110.51 61.9926 110.703 61.9146 110.86 61.7586C111.016 61.6027 111.095 61.4113 111.095 61.1915C111.095 60.9718 111.016 60.7804 110.86 60.6244C110.703 60.4685 110.51 60.3905 110.289 60.3905ZM113.489 60.3763C113.268 60.3763 113.076 60.4543 112.919 60.6173C112.762 60.7733 112.684 60.9647 112.684 61.1844C112.684 61.4042 112.762 61.5956 112.919 61.7516C113.076 61.9075 113.268 61.9855 113.489 61.9855C113.71 61.9855 113.902 61.9075 114.059 61.7516C114.216 61.5956 114.294 61.4042 114.294 61.1844C114.294 60.9647 114.216 60.7733 114.059 60.6173C113.902 60.4614 113.71 60.3763 113.489 60.3763ZM127.22 55.7472C126.935 55.3077 126.543 54.9603 126.051 54.7122C125.56 54.4641 125.018 54.3365 124.427 54.3365C123.792 54.3365 123.237 54.457 122.773 54.691C122.31 54.9249 121.94 55.2723 121.669 55.733V52.5714H120.244V58.1362H119.745C119.204 58.1362 118.819 58.0228 118.584 57.7817C118.377 57.5691 118.277 57.2784 118.277 56.9169V52.5643H116.838V56.9169C116.838 57.321 116.724 57.6258 116.503 57.8314C116.282 58.0369 115.997 58.1362 115.641 58.1362C115.099 58.1362 114.714 58.0228 114.479 57.7817C114.273 57.5691 114.173 57.2784 114.173 56.9169V54.9816H112.734V56.9169C112.734 57.321 112.62 57.6258 112.399 57.8314C112.178 58.0369 111.893 58.1362 111.536 58.1362C110.995 58.1362 110.61 58.0228 110.375 57.7817C110.168 57.5691 110.069 57.2784 110.069 56.9169V54.9816H108.629V56.9169C108.629 57.321 108.515 57.6258 108.294 57.8314C108.073 58.0369 107.788 58.1362 107.432 58.1362H104.24C103.891 58.1362 103.606 58.0369 103.385 57.8314C103.164 57.6258 103.057 57.328 103.057 56.9169V53.897H101.618V54.3365C101.432 54.3082 101.226 54.3011 100.998 54.3011C100.399 54.3011 99.8648 54.4145 99.3874 54.6413C98.9099 54.8682 98.5394 55.1872 98.2686 55.6054C97.9979 56.0237 97.8625 56.5057 97.8625 57.0587C97.8625 57.5053 97.9622 57.9023 98.1546 58.2496C98.347 58.6041 98.6035 58.8734 98.9313 59.0648C99.252 59.2562 99.6011 59.3555 99.9645 59.3555C100.884 59.3555 101.511 58.9514 101.853 58.1504C102.045 58.597 102.344 58.9443 102.758 59.1854C103.171 59.4264 103.67 59.5469 104.254 59.5469H107.446C107.888 59.5469 108.287 59.476 108.636 59.3271C108.986 59.1783 109.271 58.9727 109.499 58.7104C109.855 59.2704 110.539 59.5469 111.551 59.5469C112 59.5469 112.392 59.476 112.741 59.3271C113.09 59.1783 113.375 58.9727 113.603 58.7104C113.959 59.2704 114.643 59.5469 115.655 59.5469C116.104 59.5469 116.496 59.476 116.845 59.3271C117.194 59.1783 117.479 58.9727 117.707 58.7104C118.063 59.2704 118.748 59.5469 119.759 59.5469H127.655V57.2075C127.655 56.6759 127.512 56.1867 127.227 55.7472H127.22ZM101.625 56.3427C101.625 56.846 101.511 57.2359 101.276 57.5265C101.04 57.8172 100.734 57.9661 100.342 57.9661C100.029 57.9661 99.7721 57.8881 99.5798 57.725C99.3802 57.562 99.2805 57.3351 99.2805 57.0374C99.2805 56.6121 99.4515 56.2789 99.7793 56.0237C100.114 55.7756 100.535 55.648 101.055 55.648C101.219 55.648 101.411 55.6621 101.618 55.6976V56.3427H101.625ZM126.208 58.1362H121.676V58.0582C121.69 57.6116 121.826 57.2075 122.089 56.8602C122.353 56.5128 122.688 56.2434 123.108 56.052C123.529 55.8606 123.971 55.7685 124.441 55.7685C124.99 55.7685 125.424 55.8961 125.738 56.1655C126.058 56.4278 126.215 56.7751 126.215 57.2075V58.1362H126.208ZM39.0409 57.9306C38.8129 58.1362 38.5207 58.2354 38.1716 58.2354C37.7939 58.2354 37.4305 58.122 37.0742 57.8952V57.3422C37.0742 56.8389 37.1669 56.449 37.3735 56.1725C37.5801 55.889 37.8723 55.7472 38.2642 55.7472C38.6134 55.7472 38.8913 55.8677 39.0908 56.1158C39.2903 56.3569 39.39 56.6759 39.39 57.0587C39.39 57.4415 39.276 57.7321 39.048 57.9306H39.0409Z" fill="#EF482B"/>
<path d="M114.736 46.2764H101.169V38.4785H114.736C117.508 38.4785 119.76 36.1959 119.76 33.3958C119.76 30.5956 117.508 28.313 114.736 28.313H102.758V20.5151H114.736C121.833 20.5151 127.598 26.2926 127.598 33.3958C127.598 40.4989 121.826 46.2764 114.736 46.2764Z" fill="#154576"/>
</g>
<defs>
<clipPath id="clip0_58_1299">
<rect width="212" height="62" fill="white"/>
</clipPath>
</defs>
</svg>
