<svg width="165" height="126" viewBox="0 0 165 126" fill="none" xmlns="http://www.w3.org/2000/svg">
<g clip-path="url(#clip0_362_1521)">
<path d="M48.5024 9.8878C48.5121 12.5518 48.5314 15.2125 48.5443 17.8765C48.5669 22.5681 48.5314 27.2662 48.6926 31.9579C49.1856 32.6809 53.8293 31.7072 54.9088 31.5883C66.7452 30.3094 75.3687 29.8852 87.2534 32.215C87.4532 32.2535 88.9774 34.2684 90.579 33.1179L90.7562 9.82031H134.093C135.295 21.8837 133.474 36.3121 133.735 48.5876L133.403 49.1788C96.9435 40.7435 71.6434 85.054 97.5268 112.012C97.617 112.105 97.7072 112.198 97.7975 112.288C98.0682 112.564 98.3453 112.838 98.6224 113.104L97.7137 114.033L94.504 115.457H8.18213L8.53983 12.1308L11.2145 9.82031L48.5056 9.8878H48.5024Z" fill="#F7C853"/>
<path d="M87.7205 9.88137C87.7495 17.2948 88.0911 24.8433 87.2501 32.215C75.3654 29.8852 66.7451 30.3126 54.9055 31.5883L55.0828 9.82031L87.7205 9.88137Z" fill="#FEDF85"/>
<path d="M87.7205 9.88116L55.0827 9.8201L54.9055 31.5881C53.826 31.7038 49.1823 32.6807 48.6892 31.9577C48.5281 27.2692 48.5636 22.5711 48.541 17.8763C52.4564 19.9457 52.5627 11.3594 52.4081 8.92997C52.2856 7.04367 50.3714 5.57511 51.4026 3.06218C63.4678 3.01719 75.5458 3.00434 87.6045 3.05576L87.7173 4.83923C87.7205 6.51987 87.7109 8.1973 87.7173 9.87794L87.7205 9.88116Z" fill="#F8C854"/>
<path d="M51.4058 3.06543C50.3746 5.57836 52.2888 7.04691 52.4113 8.93322C52.5692 11.3594 52.4596 19.949 48.5442 17.8795C48.5313 15.2155 48.512 12.5548 48.5023 9.89083C48.4959 8.20698 48.483 6.52633 48.4766 4.84569L48.5249 3.06864C49.4852 3.06543 50.4423 3.07186 51.4026 3.06864L51.4058 3.06543Z" fill="white"/>
<path d="M149.5 57.315C157.853 64.4713 162.68 74.944 162.68 85.9277C162.68 118.898 122.956 135.993 98.8995 113.377C98.8061 113.287 98.7126 113.2 98.6192 113.11C98.3388 112.844 98.0649 112.571 97.7942 112.294C97.704 112.201 97.6138 112.108 97.5235 112.018C99.4248 107.207 94.6619 102.673 93.4277 97.5026C86.6024 68.8963 114.957 46.5884 141.759 56.7783C145.069 58.038 149.513 63.1956 149.5 57.3214V57.315Z" fill="#2581BA"/>
<path d="M141.936 68.4367C147.373 66.6147 152.542 73.048 149.213 77.7557C146.599 81.4512 125.801 102.12 121.963 105C121.489 105.356 118.199 106.677 117.722 106.69C117.555 106.696 117.397 106.86 117.258 106.85C116.037 106.764 101.007 91.0177 99.9919 89.4913C97.7973 86.1879 99.8243 81.8176 103.417 80.4583C109.698 78.0835 117.777 91.4772 118.84 91.0338C123.893 85.9983 135.971 70.4355 141.94 68.4367H141.936Z" fill="#F9CA55"/>
<path d="M117.271 109.168C117.213 109.168 117.155 109.168 117.094 109.161C116.101 109.09 115.383 109.039 106.885 100.327C103.882 97.2488 98.8286 91.9305 98.0584 90.7705C96.7178 88.7556 96.402 86.3423 97.1658 83.9772C98.0004 81.3903 100.031 79.2663 102.592 78.299C108.548 76.0464 114.503 82.9553 118.064 87.0846C118.27 87.3224 118.489 87.5795 118.705 87.8237C119.833 86.5962 121.174 85.0762 122.646 83.3988C130.38 74.6099 136.658 67.7685 141.198 66.2453C144.676 65.082 148.546 66.3545 150.834 69.4138C153.054 72.3862 153.164 76.1845 151.108 79.0895C148.195 83.206 127.245 103.933 123.355 106.851C122.785 107.278 119.907 108.544 118.396 108.907C118.151 109.023 117.761 109.168 117.271 109.168ZM118.202 108.949C118.045 108.981 117.906 109 117.793 109.004C117.948 108.997 118.086 108.978 118.202 108.949ZM105.003 82.4861C104.735 82.4861 104.478 82.5279 104.239 82.6211C103.002 83.0903 101.983 84.1507 101.581 85.3943C101.352 86.1013 101.226 87.1649 101.925 88.2157C102.319 88.7717 105.493 92.2454 109.737 96.6158C114.177 101.185 116.591 103.441 117.642 104.328C118.428 104.068 120.149 103.367 120.635 103.101C124.696 99.9995 144.988 79.7194 147.318 76.4223C148.659 74.5264 147.502 72.6915 147.115 72.1741C146.277 71.0558 144.614 69.9761 142.674 70.6252C138.956 71.8721 131.238 80.6416 126.13 86.4451C123.877 89.0063 121.931 91.2171 120.474 92.6664C120.262 92.8785 120.01 93.0456 119.733 93.1613C117.864 93.9422 116.685 92.5764 114.545 90.0924C112.515 87.7369 107.984 82.4829 105 82.4829L105.003 82.4861Z" fill="#00457A"/>
<path d="M7.66681 117.792C4.99534 117.792 2.69445 116.394 1.13152 113.801C0.928504 113.464 0.812492 113.078 0.799602 112.683C-0.241275 79.7578 -0.263833 44.927 0.728707 6.20475C0.735152 5.96374 0.780267 5.72594 0.86083 5.49778C2.10473 1.96619 5.73652 1.09855 6.92885 0.815764C12.1139 -0.42142 25.3585 0.0445321 37.0434 0.452642C41.7709 0.619743 45.8538 0.761135 48.5156 0.751495C49.0054 0.751495 49.4985 0.751495 49.9883 0.751495C50.4556 0.751495 50.9261 0.751495 51.3933 0.751495C64.8409 0.700079 76.6902 0.700079 87.6146 0.745068C90.4375 0.757921 94.6139 0.606889 99.438 0.436575C110.975 0.0252514 124.052 -0.440701 129.604 0.806123C135.688 2.17506 135.985 5.29534 136.33 8.90727C136.349 9.129 136.371 9.35394 136.397 9.59174C137.129 16.9345 136.768 25.1096 136.417 33.0147C136.175 38.4808 135.946 43.6448 136.049 48.5389C136.075 49.8147 135.06 50.8719 133.781 50.9008C132.498 50.9233 131.441 49.9143 131.412 48.6386C131.306 43.5902 131.547 38.1112 131.783 32.809C132.124 25.0646 132.479 17.0598 131.783 10.0481C131.757 9.80383 131.737 9.56925 131.715 9.34109C131.586 7.98179 131.483 6.90528 131.17 6.43612C130.89 6.01515 130.023 5.63918 128.586 5.31783C123.62 4.19954 109.74 4.69442 99.6056 5.05754C94.7331 5.23107 90.5342 5.3821 87.5952 5.36925C76.6837 5.32104 64.8474 5.32426 51.4127 5.37567C50.9357 5.37567 50.4588 5.37567 49.9786 5.37567C49.4985 5.37567 49.0151 5.37567 48.5349 5.37567C45.7926 5.39174 41.6548 5.24392 36.8791 5.07361C26.6217 4.7137 12.578 4.22204 8.00518 5.3114C6.24246 5.73237 5.62051 6.26259 5.34982 6.76068C4.37661 44.9624 4.39595 79.3625 5.41104 111.886C6.32624 113.123 7.24466 113.223 7.96651 113.155C8.03741 113.149 8.1083 113.146 8.18242 113.146H94.0081L96.7698 111.921C97.9396 111.404 99.3091 111.928 99.8312 113.094C100.35 114.261 99.8247 115.626 98.655 116.147L95.4453 117.571C95.1488 117.702 94.8266 117.77 94.5043 117.77H8.27909C8.07285 117.786 7.86661 117.796 7.66359 117.796L7.66681 117.792Z" fill="#00457A"/>
<path d="M14.6015 103.544C13.3253 103.544 12.2877 102.512 12.2845 101.24C12.2812 99.9641 13.3157 98.9229 14.595 98.9197L34.7809 98.8554L35.0033 94.0513L14.1954 93.6014C12.9161 93.5725 11.901 92.5153 11.9267 91.2395C11.9558 89.9638 13.0063 88.9612 14.2953 88.9772L37.4782 89.4785C38.1034 89.4914 38.6963 89.7549 39.1217 90.2112C39.5471 90.6675 39.7726 91.2749 39.7436 91.8951L39.3086 101.262C39.2506 102.493 38.2355 103.464 37.0013 103.467L14.6079 103.541H14.6015V103.544Z" fill="#DBAA41"/>
<path d="M124.567 126C114.632 126 104.961 122.249 97.3109 115.058C97.2142 114.968 97.1143 114.871 97.0144 114.778C96.7147 114.492 96.4247 114.203 96.1379 113.911C96.0412 113.811 95.9477 113.715 95.8543 113.615C83.3348 100.575 81.0661 81.959 90.0731 66.1841C99.08 50.4092 116.295 42.8512 133.928 46.9323C134.061 46.9644 134.196 46.9933 134.328 47.0287C140.457 48.5133 146.229 51.4665 151.014 55.5669C159.905 63.1828 165.003 74.2499 165.003 85.9309C165.003 102.12 155.703 116.179 140.731 122.622C135.456 124.891 129.974 126.003 124.567 126.003V126ZM124.419 50.4478C119.301 50.4478 114.342 51.55 109.776 53.732C103.334 56.8073 97.7685 62.042 94.098 68.4657C90.4308 74.8894 88.7583 82.335 89.3931 89.4271C90.086 97.1941 93.4793 104.45 99.1993 110.408L99.4539 110.668C99.7084 110.925 99.9662 111.182 100.227 111.436C100.311 111.517 100.398 111.6 100.488 111.684C110.936 121.504 125.65 124.065 138.894 118.368C152.139 112.67 160.366 100.237 160.366 85.9213C160.366 75.59 155.858 65.8017 147.995 59.0631C143.76 55.4351 138.659 52.8258 133.236 51.5115C133.116 51.4825 133 51.4536 132.884 51.4279C130.042 50.7691 127.21 50.4446 124.425 50.4446L124.419 50.4478Z" fill="#00457A"/>
<path d="M49.843 34.5413C48.4122 34.5413 47.4197 34.2071 46.772 33.2591C46.527 32.8992 46.3852 32.475 46.3724 32.038C46.2467 28.3746 46.2402 24.6631 46.2338 21.0769C46.2338 20.0164 46.2306 18.9528 46.2241 17.8923L46.208 14.8106C46.1983 13.1749 46.1887 11.5361 46.1855 9.90042C46.1855 9.01029 46.1758 8.12337 46.1726 7.23324C46.1693 6.43952 46.1629 5.64579 46.1597 4.85528C46.1565 3.57953 47.1877 2.53837 48.4702 2.53516H48.4799C49.756 2.53516 50.7937 3.56347 50.7969 4.83921C50.7969 5.62972 50.8033 6.41702 50.8098 7.20754C50.8162 8.10088 50.8195 8.99422 50.8227 9.88757C50.8291 11.52 50.8356 13.1557 50.8452 14.7881L50.8613 17.873C50.8678 18.9399 50.8678 20.0036 50.871 21.0704C50.8775 23.9497 50.8839 26.9093 50.9484 29.84C51.8442 29.7371 52.898 29.5668 53.4265 29.4801C53.9485 29.3933 54.3642 29.3258 54.6575 29.2969C66.4326 28.0244 74.6823 27.6966 85.1845 29.4897C85.5744 24.5603 85.51 19.4894 85.4488 14.5599C85.4294 13.0014 85.4101 11.4461 85.4036 9.89721C85.4004 9.0135 85.4036 8.1298 85.4036 7.2461C85.4036 6.44916 85.4036 5.65222 85.4036 4.85849C85.4004 3.58275 86.4349 2.5448 87.7142 2.54158H87.7206C88.9968 2.54158 90.0344 3.57311 90.0376 4.84564C90.0376 5.649 90.0376 6.45237 90.0376 7.25574C90.0376 8.13301 90.0376 9.00708 90.0376 9.88435C90.0441 11.4204 90.0634 12.9629 90.0828 14.5085C90.1569 20.4052 90.2342 26.5044 89.551 32.4879C89.4769 33.1306 89.1386 33.7122 88.6165 34.0914C88.0945 34.4706 87.4371 34.6184 86.799 34.4931C75.6394 32.3047 67.3865 32.5779 55.1505 33.8986C54.983 33.9179 54.5705 33.9853 54.1709 34.0496C52.4146 34.3356 50.987 34.5509 49.8398 34.5509L49.843 34.5413Z" fill="#00457A"/>
</g>
<defs>
<clipPath id="clip0_362_1521">
<rect width="165" height="126" fill="white"/>
</clipPath>
</defs>
</svg>
