<svg width="19" height="21" viewBox="0 0 19 21" fill="none" xmlns="http://www.w3.org/2000/svg">
<path d="M14.3218 3.6344C13.5887 2.79394 13.148 1.69805 13.148 0.5H12.2293M14.3218 3.6344C14.9899 4.40063 15.8945 4.95788 16.9245 5.17608C17.2446 5.24574 17.5787 5.28293 17.9267 5.28293V8.71913C16.145 8.71913 14.4933 8.14801 13.1478 7.18211V14.1707C13.1478 17.6627 10.3083 20.5 6.82392 20.5C5.00049 20.5 3.3534 19.7198 2.19812 18.48C1.14492 17.347 0.5 15.8331 0.5 14.1707C0.5 10.7298 3.25598 7.92509 6.67079 7.85079M14.3218 3.6344C14.3039 3.62276 14.2861 3.61101 14.2684 3.59914M4.48556 15.8517C4.14223 15.3781 3.93808 14.7977 3.93808 14.1661C3.93808 12.5734 5.23255 11.2778 6.824 11.2778C7.12093 11.2778 7.40856 11.3288 7.67768 11.4124V7.90192C7.39927 7.86473 7.11628 7.84149 6.824 7.84149C6.77294 7.84149 6.36183 7.86884 6.31079 7.86884M12.2245 0.5L9.70978 0.5L9.70513 14.2775C9.64949 15.8192 8.37817 17.0591 6.82392 17.0591C5.85884 17.0591 5.00977 16.5808 4.48086 15.8564" stroke="#00457A" stroke-linejoin="round"/>
</svg>
