<svg width="20" height="20" viewBox="0 0 20 20" fill="none" xmlns="http://www.w3.org/2000/svg">
<path d="M16.3836 3.0612L12.0536 1.1412C10.6236 0.511201 8.92359 0.511201 7.49359 1.1412L3.17359 3.0612C1.48359 3.8112 0.433594 5.3312 0.433594 7.0212V12.9712C0.433594 14.6712 1.48359 16.1912 3.17359 16.9412L7.50359 18.8612C8.21359 19.1712 8.98359 19.3312 9.76359 19.3312C9.77359 19.3312 9.77359 19.3312 9.78359 19.3312C9.79359 19.3312 9.79359 19.3312 9.80359 19.3312C10.5736 19.3312 11.3536 19.1712 12.0636 18.8612L16.3936 16.9412C18.0836 16.1912 19.1336 14.6712 19.1336 12.9712V7.0212C19.1136 5.3312 18.0636 3.8112 16.3836 3.0612ZM7.89359 2.0312C8.48359 1.7712 9.13359 1.6412 9.77359 1.6412C10.4136 1.6412 11.0636 1.7712 11.6536 2.0312L15.9736 3.9512C16.4136 4.1512 16.7936 4.4112 17.1136 4.7212L14.1936 6.0212L6.56359 2.6312L7.89359 2.0312ZM3.57359 3.9512L5.35359 3.1612L12.9936 6.5512L11.0636 7.4112C10.2936 7.7512 9.27359 7.7512 8.50359 7.4112L2.43359 4.7212C2.75359 4.4112 3.13359 4.1512 3.57359 3.9512ZM3.57359 16.0412C2.24359 15.4512 1.42359 14.2712 1.42359 12.9712V7.0212C1.42359 6.4912 1.56359 5.9812 1.82359 5.5212L8.10359 8.3112C8.47359 8.4712 8.87359 8.5612 9.29359 8.6112V18.3012C8.80359 18.2612 8.33359 18.1612 7.89359 17.9612L3.57359 16.0412ZM18.1336 12.9712C18.1336 14.2712 17.3036 15.4512 15.9736 16.0412L11.6436 17.9612C11.2036 18.1612 10.7336 18.2512 10.2536 18.3012V8.6112C10.6736 8.5612 11.0736 8.4812 11.4436 8.3112L17.7236 5.5212C17.9736 5.9812 18.1236 6.4912 18.1236 7.0212V12.9712H18.1336Z" fill="#FD4425"/>
</svg>
