<svg width="36" height="36" viewBox="0 0 36 36" fill="none" xmlns="http://www.w3.org/2000/svg">
<path d="M28.961 21.5866C28.8392 21.2521 28.4694 21.0796 28.1349 21.2014L26.1561 21.9217C26.0028 21.5006 22.2023 11.0583 21.9681 10.4148C21.9096 10.2542 21.7898 10.1234 21.6348 10.0512C21.4799 9.97889 21.3026 9.97115 21.1421 10.0297L13.257 12.8997C12.2038 10.0141 11.3607 7.70396 11.2588 7.42408C11.2003 7.26343 11.0805 7.13259 10.9255 7.06037C10.7707 6.98814 10.5934 6.98041 10.4327 7.03888C10.2214 7.11579 7.69152 8.13512 7.40374 8.25109C7.0736 8.38411 6.91386 8.75959 7.04688 9.08974C7.1799 9.4199 7.55537 9.5796 7.88551 9.44662C8.62979 9.14672 9.63787 8.74133 10.2745 8.48706C11.2822 11.2491 15.2083 22.004 16.365 25.1725C15.4851 25.3534 14.8214 26.1339 14.8214 27.0665C14.8214 28.1326 15.6887 29 16.7548 29C17.8209 29 18.6882 28.1326 18.6882 27.0665C18.6882 26.7167 18.5944 26.3885 18.4312 26.1051L28.5757 22.4127C28.9103 22.2909 29.0827 21.9211 28.961 21.5866ZM24.9449 22.3625L17.677 25.0079C17.3489 24.1092 16.6875 22.2973 15.909 20.1646L23.1815 17.5175L24.9449 22.3625ZM20.9773 11.4613L22.7407 16.3063L15.467 18.9537C14.8908 17.3754 14.2761 15.6912 13.699 14.1104L20.9773 11.4613ZM16.7548 27.711C16.3995 27.711 16.1104 27.4219 16.1104 27.0665C16.1104 26.7111 16.3995 26.422 16.7548 26.422C17.1102 26.422 17.3993 26.7111 17.3993 27.0665C17.3993 27.4219 17.1102 27.711 16.7548 27.711Z" fill="#A8ACB1"/>
</svg>
