<svg width="32" height="32" viewBox="0 0 32 32" fill="none" xmlns="http://www.w3.org/2000/svg">
<path d="M15.9945 25.9999C15.9287 25.9999 15.862 25.9841 15.802 25.9524L6.22515 20.9524C6.08764 20.8807 6.00098 20.7382 6.00098 20.5832V11.208C6.00098 11.0638 6.07598 10.9297 6.19848 10.8538C6.32098 10.778 6.47515 10.7713 6.60349 10.8355L16.1803 15.6273C16.3212 15.6981 16.4103 15.8423 16.4103 15.9998V25.5833C16.4103 25.7291 16.3345 25.8641 16.2095 25.9399C16.1445 25.9799 16.0695 25.9999 15.9945 25.9999ZM6.83433 20.3307L15.5778 24.8958V16.2573L6.83433 11.8822V20.3307Z" fill="#FFC200"/>
<path d="M16.0075 25.9998C15.9325 25.9998 15.8575 25.9798 15.7917 25.9398C15.6675 25.864 15.5908 25.729 15.5908 25.5832V15.9996C15.5908 15.8421 15.68 15.698 15.8208 15.6271L25.3977 10.8354C25.5252 10.7704 25.6802 10.7771 25.8027 10.8537C25.926 10.9296 26.001 11.0637 26.001 11.2079V20.5831C26.001 20.7381 25.9143 20.8806 25.7768 20.9522L16.2 25.9523C16.14 25.984 16.0733 25.9998 16.0075 25.9998ZM16.4242 16.2572V24.8956L25.1677 20.3306V11.8821L16.4242 16.2572ZM25.5843 20.5831H25.5927H25.5843Z" fill="#FFC200"/>
<path d="M6.41754 11.6247C6.2642 11.6247 6.11753 11.5405 6.0442 11.3947C5.94087 11.1888 6.02503 10.9388 6.23087 10.8355L15.821 6.04375C15.9385 5.98542 16.0769 5.98542 16.1935 6.04375L25.7704 10.8355C25.9762 10.9388 26.0596 11.1888 25.9571 11.3947C25.8537 11.6005 25.6045 11.683 25.3979 11.5814L16.0077 6.8821L6.60421 11.5805C6.54421 11.6105 6.48087 11.6247 6.41754 11.6247Z" fill="#FFC200"/>
<path d="M21.0015 18.4997C20.7715 18.4997 20.5849 18.313 20.5849 18.083V13.7571L11.238 9.08033C11.0322 8.97783 10.9488 8.72699 11.0522 8.52115C11.1555 8.31532 11.4055 8.23282 11.6114 8.33448L21.1882 13.1262C21.329 13.1979 21.4182 13.3421 21.4182 13.4996V18.083C21.4182 18.313 21.2315 18.4997 21.0015 18.4997Z" fill="#FFC200"/>
</svg>
