<svg width="37" height="37" viewBox="0 0 37 37" fill="none" xmlns="http://www.w3.org/2000/svg">
<path d="M11.2916 25.2846H8.863C8.52786 25.2846 8.25586 25.0126 8.25586 24.6775C8.25586 24.3423 8.52786 24.0703 8.863 24.0703H11.2916C11.6267 24.0703 11.8987 24.3423 11.8987 24.6775C11.8987 25.0126 11.6267 25.2846 11.2916 25.2846Z" fill="#2F664E"/>
<path d="M31.0229 25.2841H29.505C29.1699 25.2841 28.8979 25.0121 28.8979 24.6769C28.8979 24.3418 29.1699 24.0698 29.505 24.0698H30.5189L31.3374 19.7081C31.3264 17.4762 29.42 15.5698 27.0764 15.5698H23.0899L21.158 24.0698H24.6479C24.983 24.0698 25.255 24.3418 25.255 24.6769C25.255 25.0121 24.983 25.2841 24.6479 25.2841H20.3978C20.2133 25.2841 20.0384 25.2003 19.9231 25.0558C19.8077 24.9125 19.764 24.7231 19.8053 24.5433L22.0129 14.829C22.076 14.551 22.3213 14.3555 22.6054 14.3555H27.0764C30.0891 14.3555 32.5407 16.8071 32.5407 19.8198L31.6191 24.7886C31.5657 25.0764 31.3155 25.2841 31.0229 25.2841Z" fill="#2F664E"/>
<path d="M27.0767 27.713C25.4034 27.713 24.041 26.3518 24.041 24.6773C24.041 23.0028 25.4034 21.6416 27.0767 21.6416C28.75 21.6416 30.1125 23.0028 30.1125 24.6773C30.1125 26.3518 28.75 27.713 27.0767 27.713ZM27.0767 22.8559C26.0725 22.8559 25.2553 23.6731 25.2553 24.6773C25.2553 25.6815 26.0725 26.4988 27.0767 26.4988C28.081 26.4988 28.8982 25.6815 28.8982 24.6773C28.8982 23.6731 28.081 22.8559 27.0767 22.8559Z" fill="#2F664E"/>
<path d="M13.7193 27.713C12.046 27.713 10.6836 26.3518 10.6836 24.6773C10.6836 23.0028 12.046 21.6416 13.7193 21.6416C15.3926 21.6416 16.755 23.0028 16.755 24.6773C16.755 26.3518 15.3926 27.713 13.7193 27.713ZM13.7193 22.8559C12.7151 22.8559 11.8979 23.6731 11.8979 24.6773C11.8979 25.6815 12.7151 26.4988 13.7193 26.4988C14.7235 26.4988 15.5407 25.6815 15.5407 24.6773C15.5407 23.6731 14.7235 22.8559 13.7193 22.8559Z" fill="#2F664E"/>
<path d="M11.2914 14.3559H6.43429C6.09915 14.3559 5.82715 14.0839 5.82715 13.7487C5.82715 13.4136 6.09915 13.1416 6.43429 13.1416H11.2914C11.6266 13.1416 11.8986 13.4136 11.8986 13.7487C11.8986 14.0839 11.6266 14.3559 11.2914 14.3559Z" fill="#2F664E"/>
<path d="M11.2919 17.9985H5.22043C4.88528 17.9985 4.61328 17.7265 4.61328 17.3913C4.61328 17.0562 4.88528 16.7842 5.22043 16.7842H11.2919C11.627 16.7842 11.899 17.0562 11.899 17.3913C11.899 17.7265 11.627 17.9985 11.2919 17.9985Z" fill="#2F664E"/>
<path d="M11.2913 21.6415H4.00558C3.67044 21.6415 3.39844 21.3695 3.39844 21.0344C3.39844 20.6992 3.67044 20.4272 4.00558 20.4272H11.2913C11.6265 20.4272 11.8985 20.6992 11.8985 21.0344C11.8985 21.3695 11.6265 21.6415 11.2913 21.6415Z" fill="#2F664E"/>
<path d="M20.3987 25.2844H16.1487C15.8136 25.2844 15.5416 25.0124 15.5416 24.6772C15.5416 24.3421 15.8136 24.0701 16.1487 24.0701H19.9142L22.6731 11.9272H8.863C8.52786 11.9272 8.25586 11.6552 8.25586 11.32C8.25586 10.9849 8.52786 10.7129 8.863 10.7129H23.4345C23.619 10.7129 23.7939 10.7967 23.9093 10.9412C24.0246 11.0845 24.0683 11.2739 24.027 11.4536L20.9913 24.8108C20.9282 25.0889 20.6817 25.2844 20.3987 25.2844Z" fill="#2F664E"/>
</svg>
