<svg width="36" height="36" viewBox="0 0 36 36" fill="none" xmlns="http://www.w3.org/2000/svg">
<path d="M14.4866 24.997L7.61164 21.8139C7.45811 21.7429 7.27717 21.7685 7.14947 21.8793C7.02172 21.9902 6.97089 22.1657 7.01966 22.3277L7.9403 25.387L7.01962 28.4463C6.93136 28.7116 7.15364 29.0081 7.43117 28.9998C7.49231 28.9998 7.55393 28.9867 7.61164 28.96L14.4866 25.7769C14.8141 25.6319 14.8165 25.1428 14.4866 24.997ZM8.11802 27.7785L8.80045 25.5108C8.82477 25.4301 8.82477 25.3439 8.80045 25.2631L8.11802 22.9954L13.2833 25.387L8.11802 27.7785Z" fill="#2F664E" stroke="#2F664E" stroke-width="0.5"/>
<path d="M25.1338 7C23.0014 7 21.2666 8.73481 21.2666 10.8672C21.292 12.9541 23.4355 15.2217 24.8099 16.801C24.9717 16.9953 25.2958 16.9958 25.4576 16.801C26.8317 15.2225 28.976 12.9533 29.0009 10.8672C29.0009 8.73481 27.2661 7 25.1338 7ZM25.1338 15.8675C24.0014 14.5827 22.126 12.4476 22.126 10.8672C22.126 9.20867 23.4753 7.85937 25.1338 7.85937C26.7923 7.85937 28.1416 9.20867 28.1416 10.8672C28.1416 12.4476 26.2661 14.5827 25.1338 15.8675Z" fill="#2F664E" stroke="#2F664E" stroke-width="0.5"/>
<path d="M25.1348 9.14844C24.187 9.14844 23.416 9.91946 23.416 10.8672C23.5024 13.1442 26.7674 13.1436 26.8535 10.8671C26.8535 9.91946 26.0825 9.14844 25.1348 9.14844ZM25.1348 11.7266C24.6609 11.7266 24.2754 11.3411 24.2754 10.8672C24.3186 9.72868 25.9511 9.72898 25.9941 10.8672C25.9941 11.341 25.6086 11.7266 25.1348 11.7266Z" fill="#2F664E" stroke="#2F664E" stroke-width="0.5"/>
<path d="M15.466 16.9485H16.3254C16.8945 16.9275 16.8948 16.1102 16.3254 16.0891H15.466C14.8969 16.1101 14.8966 16.9275 15.466 16.9485Z" fill="#2F664E" stroke="#2F664E" stroke-width="0.5"/>
<path d="M12.028 16.9487C12.0388 16.9487 12.0495 16.9484 12.0603 16.9485H12.8875C13.4565 16.9276 13.457 16.1102 12.8875 16.0891H12.0603C12.047 16.0891 12.0337 16.0892 12.0205 16.0895C11.4569 16.1183 11.4644 16.93 12.028 16.9487Z" fill="#2F664E" stroke="#2F664E" stroke-width="0.5"/>
<path d="M16.8303 20.3428C16.8303 20.1055 16.6379 19.9131 16.4006 19.9131H15.5412C14.9721 19.9341 14.9718 20.7514 15.5412 20.7725H16.4006C16.6379 20.7725 16.8303 20.5801 16.8303 20.3428Z" fill="#2F664E" stroke="#2F664E" stroke-width="0.5"/>
<path d="M12.9631 19.9131H12.1037C11.5346 19.9341 11.5343 20.7514 12.1037 20.7725H12.9631C13.5322 20.7515 13.5325 19.9341 12.9631 19.9131Z" fill="#2F664E" stroke="#2F664E" stroke-width="0.5"/>
<path d="M10.2058 19.3227C10.4806 19.326 10.6939 19.0551 10.623 18.7885C10.5691 18.5747 10.5648 18.3451 10.6101 18.1293C10.7074 17.5688 9.90457 17.4005 9.76892 17.9534C9.69704 18.2957 9.704 18.6582 9.78938 18.9974C9.83823 19.1925 10.0134 19.3227 10.2058 19.3227Z" fill="#2F664E" stroke="#2F664E" stroke-width="0.5"/>
<path d="M22.341 16.9485H23.2004C23.7695 16.9275 23.7698 16.1102 23.2004 16.0891H22.341C21.7719 16.1101 21.7716 16.9275 22.341 16.9485Z" fill="#2F664E" stroke="#2F664E" stroke-width="0.5"/>
<path d="M23.6003 24.7075C23.39 24.8212 23.1642 24.8972 22.9291 24.9333C22.3683 25.0401 22.4965 25.8505 23.0596 25.7827C23.3924 25.7316 23.7119 25.6242 24.0091 25.4634C24.4999 25.1758 24.1101 24.4542 23.6003 24.7075Z" fill="#2F664E" stroke="#2F664E" stroke-width="0.5"/>
<path d="M23.1552 20.8442C23.7062 20.9747 23.9258 20.184 23.3798 20.0147C23.0698 19.9268 22.7384 19.9058 22.416 19.9129C22.1787 19.9129 21.9863 20.1053 21.9863 20.3426C21.9863 20.5799 22.1787 20.7723 22.416 20.7723H22.612C22.7961 20.7723 22.9789 20.7965 23.1552 20.8442Z" fill="#2F664E" stroke="#2F664E" stroke-width="0.5"/>
<path d="M24.9107 21.7433C24.6831 21.8104 24.553 22.0494 24.6202 22.277C24.6764 22.4672 24.7048 22.665 24.7048 22.8648C24.6117 23.6213 25.639 23.6256 25.5642 22.8648C25.5642 22.5826 25.5239 22.303 25.4445 22.0337C25.3773 21.8061 25.1384 21.6761 24.9107 21.7433Z" fill="#2F664E" stroke="#2F664E" stroke-width="0.5"/>
<path d="M16.9797 24.9573H16.1203C15.5512 24.9782 15.5509 25.7956 16.1203 25.8166H16.9797C17.5488 25.7957 17.5491 24.9783 16.9797 24.9573Z" fill="#2F664E" stroke="#2F664E" stroke-width="0.5"/>
<path d="M20.4172 24.9573H19.5578C18.9887 24.9782 18.9884 25.7956 19.5578 25.8166H20.4172C20.9863 25.7957 20.9866 24.9783 20.4172 24.9573Z" fill="#2F664E" stroke="#2F664E" stroke-width="0.5"/>
<path d="M18.9035 16.9485H19.7629C20.332 16.9275 20.3323 16.1102 19.7629 16.0891H18.9035C18.3344 16.1101 18.3341 16.9275 18.9035 16.9485Z" fill="#2F664E" stroke="#2F664E" stroke-width="0.5"/>
<path d="M20.2678 20.3428C20.2678 20.1055 20.0754 19.9131 19.8381 19.9131H18.9787C18.4096 19.9341 18.4093 20.7514 18.9787 20.7725H19.8381C20.0754 20.7725 20.2678 20.5801 20.2678 20.3428Z" fill="#2F664E" stroke="#2F664E" stroke-width="0.5"/>
</svg>
