<svg width="36" height="36" viewBox="0 0 36 36" fill="none" xmlns="http://www.w3.org/2000/svg">
<path d="M17.9938 29C17.9214 29 17.8481 28.9826 17.7821 28.9478L7.24756 23.4477C7.09631 23.3688 7.00098 23.2121 7.00098 23.0416V12.7289C7.00098 12.5703 7.08348 12.4227 7.21823 12.3393C7.35298 12.2559 7.52257 12.2485 7.66374 12.3191L18.1983 17.5901C18.3532 17.668 18.4513 17.8266 18.4513 17.9998V28.5417C18.4513 28.7021 18.3679 28.8506 18.2303 28.934C18.1588 28.978 18.0763 29 17.9938 29ZM7.91766 22.7638L17.5355 27.7854V18.2831L7.91766 13.4705V22.7638Z" fill="#2F664E"/>
<path d="M18.0081 29C17.9256 29 17.8431 28.978 17.7707 28.934C17.6341 28.8505 17.5498 28.702 17.5498 28.5416V17.9998C17.5498 17.8265 17.6479 17.6679 17.8028 17.59L28.3373 12.3191C28.4776 12.2476 28.6481 12.2549 28.7828 12.3392C28.9185 12.4227 29.001 12.5702 29.001 12.7288V23.0415C29.001 23.212 28.9057 23.3688 28.7544 23.4476L18.2199 28.9477C18.1539 28.9825 18.0806 29 18.0081 29ZM18.4665 18.283V27.7854L28.0843 22.7638V13.4704L18.4665 18.283ZM28.5427 23.0415H28.5518H28.5427Z" fill="#2F664E"/>
<path d="M7.45929 13.1872C7.29062 13.1872 7.12929 13.0946 7.04862 12.9341C6.93495 12.7077 7.02754 12.4327 7.25396 12.3191L17.8031 7.04813C17.9324 6.98396 18.0846 6.98396 18.2129 7.04813L28.7474 12.3191C28.9738 12.4327 29.0655 12.7077 28.9528 12.9341C28.8391 13.1606 28.565 13.2513 28.3377 13.1395L18.0085 7.97031L7.66463 13.1386C7.59863 13.1716 7.52896 13.1872 7.45929 13.1872Z" fill="#2F664E"/>
<path d="M23.5019 20.7498C23.2489 20.7498 23.0435 20.5444 23.0435 20.2914V15.5329L12.762 10.3885C12.5356 10.2758 12.4439 9.99984 12.5576 9.77342C12.6713 9.547 12.9463 9.45624 13.1727 9.56808L23.7072 14.839C23.8621 14.9178 23.9602 15.0764 23.9602 15.2497V20.2914C23.9602 20.5444 23.7549 20.7498 23.5019 20.7498Z" fill="#2F664E"/>
</svg>
