<svg width="258" height="90" viewBox="0 0 258 90" fill="none" xmlns="http://www.w3.org/2000/svg">
<g clip-path="url(#clip0_1875_3861)">
<path fill-rule="evenodd" clip-rule="evenodd" d="M30.0263 10.0639L48.2932 4.52997C50.6562 3.81986 52.5784 5.33802 52.5784 7.9091V22.4173C52.5784 24.9884 50.6439 27.6819 48.2932 28.392L30.0263 33.926C27.6634 34.6361 25.7412 33.1179 25.7412 30.5468V16.0386C25.7412 13.4798 27.6634 10.7863 30.0263 10.0639Z" fill="#FFC200"/>
<path d="M28.8999 35.6645C27.896 35.6645 26.941 35.3707 26.1452 34.783C24.9086 33.8648 24.1863 32.3221 24.1863 30.5591V16.0509C24.1863 12.7819 26.5492 9.50073 29.5733 8.58248L47.8402 3.04854C49.4073 2.57106 50.9867 2.80368 52.1743 3.69743C53.4109 4.61568 54.1332 6.15832 54.1332 7.92135V22.4296C54.1332 25.6985 51.7703 28.9797 48.7462 29.898L30.4793 35.4319C29.9406 35.5911 29.4141 35.6645 28.8999 35.6645ZM49.4318 5.90122C49.1747 5.90122 48.9421 5.95019 48.734 6.0114L30.4793 11.5576C28.7775 12.0718 27.2961 14.1776 27.2961 16.0509V30.5591C27.2961 31.3427 27.5409 31.9548 27.9939 32.2854C28.5081 32.6649 29.1448 32.5792 29.5855 32.4568L47.8524 26.9228C49.5543 26.4086 51.0357 24.3028 51.0357 22.4296V7.92135C51.0357 7.13778 50.7908 6.52562 50.3378 6.19505C50.044 5.97467 49.7379 5.90122 49.4318 5.90122Z" fill="#004376"/>
<path fill-rule="evenodd" clip-rule="evenodd" d="M23.5742 59.7102L41.8411 54.1763C44.204 53.4662 46.1262 50.7727 46.1262 48.2016V33.6934C46.1262 31.1223 44.1918 29.5919 41.8411 30.3142L23.5742 35.8482C21.2112 36.5583 19.2891 39.2518 19.2891 41.8229V56.3311C19.2891 58.9144 21.2112 60.4326 23.5742 59.7102Z" fill="#FFC200"/>
<path d="M22.4478 61.4365C21.4438 61.4365 20.4766 61.1304 19.693 60.555C18.4565 59.6368 17.7341 58.0941 17.7341 56.3311V41.8229C17.7341 38.5539 20.0971 35.2727 23.1212 34.3545L41.3881 28.8205C42.9552 28.3431 44.5346 28.5757 45.7222 29.4694C46.9587 30.3877 47.6811 31.9303 47.6811 33.6934V48.2016C47.6811 51.4705 45.3181 54.7517 42.2941 55.67L24.0272 61.2039C23.4885 61.3631 22.962 61.4365 22.4478 61.4365ZM42.9797 31.6732C42.7226 31.6732 42.4899 31.7222 42.2818 31.7834L24.0149 37.3173C22.3131 37.8316 20.8317 39.9374 20.8317 41.8106V56.3188C20.8317 57.1024 21.0765 57.7146 21.5295 58.0451C22.0437 58.4247 22.6804 58.339 23.1212 58.2165L41.3881 52.6826C43.0899 52.1684 44.5713 50.0626 44.5713 48.1893V33.6934C44.5713 32.9098 44.3264 32.2976 43.8734 31.9671C43.5918 31.7467 43.2858 31.6732 42.9797 31.6732Z" fill="#004376"/>
<path fill-rule="evenodd" clip-rule="evenodd" d="M30.0263 57.8125L48.2932 52.2786C50.6562 51.5685 52.5784 53.0866 52.5784 55.6577V70.166C52.5784 72.737 50.6439 75.4305 48.2932 76.1407L30.0263 81.6746C27.6634 82.3847 25.7412 80.8665 25.7412 78.2955V63.7872C25.7412 61.2162 27.6634 58.5226 30.0263 57.8125Z" fill="#FFC200"/>
<path d="M28.8999 83.4131C27.896 83.4131 26.941 83.1071 26.1452 82.5316C24.9086 81.6134 24.1863 80.0707 24.1863 78.3077V63.7995C24.1863 60.5305 26.5492 57.2493 29.5733 56.3311L47.8402 50.7972C49.4073 50.3197 50.9867 50.5523 52.1743 51.4461C53.4109 52.3643 54.1332 53.9069 54.1332 55.67V70.1782C54.1332 73.4471 51.7703 76.7283 48.7462 77.6466L30.4793 83.1805C29.9406 83.3274 29.4141 83.4131 28.8999 83.4131ZM30.4793 59.294C28.7775 59.8082 27.2961 61.914 27.2961 63.7872V78.2955C27.2961 79.079 27.5409 79.6912 27.9939 80.0218C28.5081 80.4013 29.1448 80.3278 29.5855 80.1932L47.8524 74.6592C49.5543 74.145 51.0357 72.0392 51.0357 70.166V55.6577C51.0357 54.8742 50.7908 54.262 50.3378 53.9314C49.8236 53.5519 49.187 53.6254 48.7462 53.76L30.4793 59.294Z" fill="#004376"/>
<path fill-rule="evenodd" clip-rule="evenodd" d="M39.9678 79.1157L46.371 77.1813C47.2036 76.9364 47.877 77.4629 47.877 78.3689V83.4498C47.877 84.3558 47.2036 85.2986 46.371 85.5434L39.9678 87.4779C39.1475 87.7227 38.4619 87.1963 38.4619 86.2903V81.2093C38.4619 80.3156 39.1353 79.3728 39.9678 79.1157Z" fill="#FCF8F4"/>
<path d="M39.5637 89.094C39.0005 89.094 38.4496 88.9226 38.0088 88.5798C37.311 88.0656 36.9192 87.233 36.9192 86.2903V81.2094C36.9192 79.6177 38.0333 78.0751 39.527 77.6343L45.9302 75.6877C46.7872 75.4306 47.6687 75.5652 48.3421 76.0672C49.04 76.5814 49.4318 77.414 49.4318 78.3567V83.4376C49.4318 85.0293 48.3176 86.5719 46.824 87.0127L40.4208 88.9471C40.1392 89.0573 39.8453 89.094 39.5637 89.094ZM46.322 78.8097L40.4208 80.5972C40.2738 80.6462 40.0167 80.9645 40.0167 81.2094V85.8496L45.918 84.062C46.0649 84.0131 46.322 83.6947 46.322 83.4499V78.8097Z" fill="#004376"/>
<path fill-rule="evenodd" clip-rule="evenodd" d="M4.03393 52.3276C9.02917 46.4018 18.7625 52.3888 20.3909 59.0736C23.5496 71.9779 27.0022 78.2342 38.1436 80.1564L37.8987 87.8329C10.6698 93.22 -3.49566 61.2529 4.03393 52.3276Z" fill="#FD4425"/>
<path d="M31.8017 90C26.8799 90 22.2153 88.8124 17.8567 86.4372C11.2821 82.8499 7.20507 77.5364 4.95231 73.7043C-0.128629 65.085 -0.997899 55.8903 2.84648 51.3359C4.98904 48.7893 8.07434 47.8343 11.5269 48.6424C16.314 49.7687 20.7706 54.0906 21.9092 58.7185C25.6311 73.9614 30.0142 77.1813 38.4131 78.626L39.7353 78.8587L39.4048 89.1062L38.1927 89.3511C36.0256 89.7796 33.8953 90 31.8017 90ZM5.20942 53.3193C2.29553 56.7719 3.33621 64.8524 7.60909 72.1249C9.81287 75.8713 17.5506 86.9025 31.765 86.9025C33.2342 86.9025 34.7646 86.78 36.3807 86.5352L36.5398 81.4297C25.6189 79.079 21.9704 72.0759 18.8729 59.4409C18.0158 55.9271 14.4653 52.5112 10.7923 51.6419C9.2252 51.2746 6.9602 51.2624 5.20942 53.3193Z" fill="#004376"/>
<path d="M12.7144 47.6996C17.9615 47.6996 22.2151 42.1195 22.2151 35.236C22.2151 28.3525 17.9615 22.7724 12.7144 22.7724C7.46725 22.7724 3.21362 28.3525 3.21362 35.236C3.21362 42.1195 7.46725 47.6996 12.7144 47.6996Z" fill="#FCF8F4"/>
<path d="M12.7143 48.8138C6.86202 48.8138 2.08716 42.7166 2.08716 35.236C2.08716 27.7554 6.84978 21.6583 12.7143 21.6583C18.5665 21.6583 23.3414 27.7554 23.3414 35.236C23.3414 42.7166 18.5665 48.8138 12.7143 48.8138ZM12.7143 23.8865C8.08634 23.8865 4.32767 28.9797 4.32767 35.236C4.32767 41.4923 8.08634 46.5855 12.7143 46.5855C17.3422 46.5855 21.1009 41.4923 21.1009 35.236C21.1009 28.9797 17.3422 23.8865 12.7143 23.8865Z" fill="#004376"/>
<path fill-rule="evenodd" clip-rule="evenodd" d="M12.751 22.7112C18.0034 22.7112 22.2518 28.2941 22.2518 35.1748C21.8722 40.5985 14.2569 39.7415 3.23804 35.1748C3.23804 28.2941 7.49868 22.7112 12.751 22.7112Z" fill="#FD4425"/>
<path d="M17.122 40.0476C13.7429 40.0476 9.00472 38.7743 2.80964 36.2032L2.12402 35.9216V35.1748C2.12402 27.6819 6.88664 21.597 12.7512 21.597C18.6157 21.597 23.3783 27.6942 23.3783 35.1748V35.2483C23.2558 36.9623 22.4968 38.2846 21.199 39.0926C20.1583 39.7293 18.8116 40.0476 17.122 40.0476ZM4.37678 34.428C14.9182 38.7008 18.6891 38.0152 20.0114 37.1949C20.697 36.7664 21.0643 36.1053 21.1378 35.1258C21.1255 28.894 17.3668 23.8253 12.7512 23.8253C8.30686 23.8253 4.65837 28.5145 4.37678 34.428Z" fill="#004376"/>
<path fill-rule="evenodd" clip-rule="evenodd" d="M3.23804 34.3055C10.4493 38.0519 21.8233 37.6357 21.86 31.8079C21.9702 31.8324 29.0835 41.6515 23.1823 43.6593C15.0038 46.4508 8.66179 38.8478 3.23804 34.3055Z" fill="#FD4425"/>
<path d="M19.6686 45.3734C13.9143 45.3734 9.10269 41.0393 5.1114 37.4398C4.2054 36.6317 3.36062 35.8604 2.52808 35.1625L3.76464 33.3138C8.66194 35.8604 15.8365 36.3746 19.1177 34.4035C20.2073 33.7423 20.746 32.8975 20.7582 31.8079L20.7705 30.3632L22.1662 30.7305C22.3621 30.7795 22.9498 30.9386 24.6761 34.1096C25.9371 36.4113 26.5983 38.4315 26.6595 40.0966C26.7452 42.3738 25.6433 44.0266 23.5619 44.7367C22.2029 45.1653 20.9052 45.3734 19.6686 45.3734ZM8.27015 37.2684C12.5186 41.0026 17.2812 44.4796 22.8151 42.5942C23.6354 42.3126 24.1006 41.8596 24.2965 41.174C24.7985 39.362 23.415 36.3746 22.2519 34.3912C21.7989 35.1381 21.1255 35.7747 20.2563 36.3012C17.4648 37.9907 12.7879 38.2723 8.27015 37.2684Z" fill="#004376"/>
<path fill-rule="evenodd" clip-rule="evenodd" d="M52.8232 8.27642C53.0069 4.5055 54.9903 2.98734 56.2758 2.74248C108.285 -7.27249 110.721 48.8138 57.2308 72.7738C55.9208 73.3614 53.2395 72.4799 52.8477 69.7987L52.4927 53.4295C52.6029 51.3848 54.0843 50.3809 54.9536 49.9034C71.0167 41.1128 70.9922 23.1397 53.3497 27.0698L52.8232 8.27642Z" fill="#FFC200"/>
<path d="M56.3248 74.5001C55.529 74.5001 54.6964 74.2919 53.9373 73.8634C52.4926 73.0676 51.5621 71.7086 51.305 70.019L51.2928 69.8231L50.9377 53.3927V53.3315C51.0112 51.9113 51.6479 49.9279 54.2067 48.5322C63.0096 43.7206 66.5234 36.2277 64.8461 31.7712C63.5972 28.441 59.5203 27.2657 53.6802 28.5757L51.8437 28.9797L51.2683 8.26416V8.20295C51.4764 3.96679 53.7782 1.64058 55.982 1.22431C66.7682 -0.857044 75.9262 -0.281612 83.1864 2.91387C89.8957 5.87673 94.5604 10.9577 96.6662 17.618C101.919 34.2688 90.1038 59.7592 57.8674 74.194C57.4022 74.4021 56.8757 74.5001 56.3248 74.5001ZM54.3903 69.664C54.5373 70.5088 55.0392 70.9373 55.431 71.1577C55.9452 71.4392 56.4472 71.4392 56.5941 71.3658C74.4203 63.371 83.7374 52.9152 88.402 45.5448C94.2665 36.2889 96.201 26.4576 93.7034 18.5485C91.8791 12.7697 87.8144 8.33762 81.9376 5.7543C75.363 2.85265 66.5846 2.33844 56.5696 4.27287C55.8718 4.40755 54.5373 5.42373 54.3781 8.30089L54.8433 25.221C61.32 24.2661 66.0826 26.2495 67.7477 30.6938C69.8658 36.3134 66.352 45.4346 55.6881 51.2624C54.623 51.8378 54.0965 52.5479 54.0353 53.4662L54.3903 69.664Z" fill="#004376"/>
<path d="M163.245 77.0222C163.245 80.7564 160.478 83.6213 156.83 83.6213H151.553V70.4231H156.83C160.466 70.4231 163.245 73.288 163.245 77.0222ZM160.331 77.0222C160.331 74.7572 158.899 73.3247 156.83 73.3247H154.565V80.7196H156.83C158.899 80.7196 160.331 79.2872 160.331 77.0222Z" fill="#004376"/>
<path d="M163.992 78.9076C163.992 76.1039 166.22 73.9246 168.987 73.9246C171.754 73.9246 173.982 76.0917 173.982 78.9076C173.982 81.7113 171.754 83.8906 168.987 83.8906C166.22 83.8906 163.992 81.7113 163.992 78.9076ZM171.154 78.9076C171.154 77.5731 170.211 76.6793 168.987 76.6793C167.763 76.6793 166.82 77.5609 166.82 78.9076C166.82 80.2421 167.763 81.1359 168.987 81.1359C170.211 81.1359 171.154 80.2421 171.154 78.9076Z" fill="#004376"/>
<path d="M181.059 83.6213L178.047 79.4586V83.6213H175.219V70.4231H178.047V78.32L180.875 74.194H184.169L180.741 78.9076L184.267 83.6213H181.059Z" fill="#004376"/>
<path d="M190.768 83.6213L187.756 79.4586V83.6213H184.928V70.4231H187.756V78.32L190.584 74.194H193.878L190.449 78.9076L193.975 83.6213H190.768Z" fill="#004376"/>
<path d="M204.297 74.194V83.6213H201.468V82.7397C200.844 83.4621 199.926 83.8906 198.665 83.8906C196.192 83.8906 194.159 81.7236 194.159 78.9076C194.159 76.1039 196.192 73.9246 198.665 73.9246C199.926 73.9246 200.856 74.3531 201.468 75.0755V74.194H204.297ZM201.468 78.9076C201.468 77.4996 200.526 76.6059 199.228 76.6059C197.93 76.6059 196.987 77.4874 196.987 78.9076C196.987 80.3156 197.93 81.2093 199.228 81.2093C200.526 81.2093 201.468 80.3156 201.468 78.9076Z" fill="#004376"/>
<path d="M215.046 77.8302V83.6213H212.218V78.2465C212.218 77.0834 211.483 76.5324 210.577 76.5324C209.537 76.5324 208.826 77.1323 208.826 78.4791V83.6213H205.998V74.194H208.826V75.0755C209.341 74.3776 210.283 73.9246 211.52 73.9246C213.43 73.9246 215.046 75.2836 215.046 77.8302Z" fill="#004376"/>
<path d="M130.09 20.789L123.565 27.3269L130.09 33.8525L136.567 27.3269L130.09 20.789Z" fill="#004376"/>
<path d="M174.9 63.9831C169.109 63.9831 164.922 62.3793 162.094 59.0736C159.254 55.7557 157.809 50.6258 157.809 43.8308V20.0667H167.408V43.8308C167.408 47.2099 167.983 49.7075 169.171 51.4828C170.432 53.3805 172.415 54.3844 174.9 54.3844H215.634C218.425 54.3844 220.029 52.7683 220.029 49.9401C220.029 47.1487 218.425 45.5448 215.634 45.5448H181.475V35.1626L196.008 20.6298L202.79 27.4126L194.257 35.9461H215.621C225.171 35.9461 229.615 40.3904 229.615 49.9401C229.615 59.5266 225.171 63.9831 215.621 63.9831H174.9Z" fill="#004376"/>
<path d="M235.088 63.7382V54.1518H241.198C245.74 54.1518 247.944 52.6948 247.944 49.7075C247.944 46.7446 245.74 45.2999 241.198 45.2999H238.039V35.6768H241.198C246.597 35.6768 250.71 36.8521 253.428 39.1783C256.183 41.5413 257.53 44.9939 257.53 49.7075C257.53 54.4211 256.183 57.8615 253.428 60.2367C250.71 62.5629 246.597 63.7382 241.198 63.7382H235.088Z" fill="#004376"/>
<path d="M130.102 64.6198C124.25 64.6198 119.365 62.5874 115.202 58.4124C111.076 54.2865 109.069 49.4382 109.069 43.5737C109.069 39.0926 110.293 35.187 112.827 31.6243L113.831 30.204L120.687 37.1215L120.161 38.0764C119.206 39.7905 118.729 41.627 118.729 43.5737C118.729 51.2379 122.45 54.9599 130.115 54.9599C133.678 54.9599 136.481 54.0416 138.44 52.2174C140.424 50.3931 141.427 47.6996 141.427 44.2225V30.8284H151.087V44.2225C151.087 50.9563 149.3 56.0862 145.762 59.4899C142.199 62.8935 136.934 64.6198 130.102 64.6198Z" fill="#004376"/>
</g>
<defs>
<clipPath id="clip0_1875_3861">
<rect width="257.083" height="90" fill="white" transform="translate(0.458984)"/>
</clipPath>
</defs>
</svg>
