<svg width="268" height="268" viewBox="0 0 268 268" fill="none" xmlns="http://www.w3.org/2000/svg">
<path d="M247.062 87.7285H20.9375C18.6248 87.7285 16.75 89.5963 16.75 91.9003V108.588C16.75 110.892 18.6248 112.76 20.9375 112.76H247.062C249.375 112.76 251.25 110.892 251.25 108.588V91.9003C251.25 89.5963 249.375 87.7285 247.062 87.7285Z" fill="#E26677"/>
<path d="M218.546 237.916H49.4544C45.1413 237.916 41.54 234.662 41.1212 230.407L29.3125 112.76H238.688L226.879 230.407C226.46 234.662 222.859 237.916 218.546 237.916Z" fill="#D85364"/>
<path d="M109.003 104.982L15.9502 182.802C12.4071 185.765 11.9459 191.028 14.92 194.558C17.8942 198.088 23.1774 198.548 26.7204 195.585L119.774 117.765C123.317 114.802 123.778 109.538 120.804 106.008C117.83 102.479 112.546 102.019 109.003 104.982Z" fill="#EDAE65"/>
<path d="M158.962 104.775C155.419 101.812 150.135 102.271 147.161 105.801C144.187 109.331 144.648 114.595 148.191 117.558L241.245 195.377C244.788 198.34 250.071 197.881 253.045 194.351C256.019 190.821 255.558 185.558 252.015 182.595L158.962 104.775Z" fill="#EDAE65"/>
<path d="M138.146 137.791V212.885C138.146 215.179 136.261 217.057 133.958 217.057C131.655 217.057 129.771 215.179 129.771 212.885V137.791C129.771 135.496 131.655 133.619 133.958 133.619C136.261 133.619 138.146 135.496 138.146 137.791ZM256.233 197.198C253.762 200.16 250.203 201.662 246.602 201.662C243.754 201.662 240.865 200.703 238.52 198.742L234.584 195.446L231.024 230.824C230.396 237.248 225.036 242.088 218.504 242.088H49.4543C42.9637 242.088 37.6037 237.248 36.9337 230.824L33.3743 195.446L29.4381 198.742C27.0931 200.703 24.2037 201.662 21.3562 201.662C17.755 201.662 14.1956 200.16 11.725 197.198C7.28621 191.9 7.95621 184.015 13.2743 179.551L30.3593 165.242L25.5018 116.932H20.8956C16.2893 116.932 12.5206 113.177 12.5206 108.588V91.9003C12.5206 87.3113 16.2893 83.5566 20.8956 83.5566H247.021C251.627 83.5566 255.396 87.3113 255.396 91.9003V108.588C255.396 113.177 251.627 116.932 247.021 116.932H242.456L237.599 165.284L254.684 179.551C260.002 183.974 260.672 191.9 256.233 197.198ZM234.039 116.932H179.853L229.852 158.775L234.039 116.932ZM20.8956 108.588H98.0712L106.279 101.704C108.833 99.5349 112.099 98.4919 115.449 98.8256C118.799 99.1177 121.814 100.703 123.992 103.248C125.332 104.833 126.169 106.669 126.588 108.588H141.37C141.789 106.627 142.626 104.791 143.966 103.248C146.144 100.703 149.159 99.1177 152.509 98.8256C155.859 98.5336 159.125 99.5766 161.679 101.704L169.887 108.588H247.062V91.9003H20.9375V108.588H20.8956ZM38.1062 158.775L88.1049 116.932H33.9187L38.1062 158.775ZM117.082 114.47C117.92 113.761 118.464 112.76 118.548 111.633C118.632 110.507 118.297 109.422 117.585 108.588C116.873 107.712 115.868 107.211 114.737 107.128C113.607 107.044 112.518 107.378 111.681 108.087L18.6762 185.934C16.9175 187.395 16.6662 190.065 18.1737 191.817C19.6393 193.569 22.3193 193.819 24.0781 192.317L117.082 114.47ZM226.837 188.938L196.771 163.782V212.885C196.771 215.179 194.886 217.057 192.583 217.057C190.28 217.057 188.396 215.179 188.396 212.885V156.773L167.5 139.293V212.926C167.5 215.221 165.616 217.098 163.312 217.098C161.009 217.098 159.125 215.221 159.125 212.926V137.833C159.125 136.247 160.046 134.912 161.386 134.203L145.516 120.937C144.176 119.81 143.129 118.475 142.375 116.973H125.583C124.829 118.475 123.782 119.81 122.442 120.937L106.572 134.203C107.912 134.912 108.833 136.247 108.833 137.833V212.926C108.833 215.221 106.949 217.098 104.646 217.098C102.342 217.098 100.458 215.221 100.458 212.926V139.335L79.5624 156.815V212.926C79.5624 215.221 77.6781 217.098 75.3749 217.098C73.0718 217.098 71.1875 215.221 71.1875 212.926V163.823L41.1212 188.98L45.2668 230.031C45.4762 232.159 47.2768 233.786 49.4543 233.786H218.546C220.723 233.786 222.482 232.159 222.733 230.031L226.879 188.98L226.837 188.938ZM249.324 185.934L156.319 108.087C155.566 107.461 154.602 107.128 153.639 107.128C153.514 107.128 153.388 107.128 153.262 107.128C152.132 107.211 151.127 107.753 150.415 108.588C149.703 109.422 149.368 110.507 149.452 111.633C149.536 112.76 150.08 113.761 150.917 114.47L243.922 192.317C245.681 193.819 248.361 193.569 249.826 191.817C251.292 190.065 251.082 187.436 249.324 185.934ZM98.4481 70.7489C99.2856 71.5833 100.332 71.9588 101.421 71.9588C102.51 71.9588 103.557 71.5416 104.394 70.7489C106.027 69.1219 106.027 66.4936 104.394 64.8666L86.6393 47.1778C85.0062 45.5508 82.3681 45.5508 80.7349 47.1778C79.1018 48.8049 79.1018 51.4331 80.7349 53.0602L98.4899 70.7489H98.4481ZM134 58.5253C136.303 58.5253 138.187 56.648 138.187 54.3535V29.3222C138.187 27.0277 136.303 25.1503 134 25.1503C131.697 25.1503 129.812 27.0277 129.812 29.3222V54.3535C129.812 56.648 131.697 58.5253 134 58.5253ZM166.579 71.9588C167.667 71.9588 168.714 71.5416 169.552 70.7489L187.307 53.0602C188.94 51.4331 188.94 48.8049 187.307 47.1778C185.674 45.5508 183.036 45.5508 181.402 47.1778L163.647 64.8666C162.014 66.4936 162.014 69.1219 163.647 70.7489C164.485 71.5833 165.532 71.9588 166.621 71.9588H166.579Z" fill="#1A2C3D"/>
</svg>
