<svg width="28" height="29" viewBox="0 0 28 29" fill="none" xmlns="http://www.w3.org/2000/svg">
<path d="M18.7313 6.44433H18.2591V5.97216C18.2591 5.71199 18.0471 5.5 17.7869 5.5C17.5268 5.5 17.3148 5.71199 17.3148 5.97216V6.44433H10.6852V5.97216C10.6852 5.71199 10.4732 5.5 10.2131 5.5C9.95288 5.5 9.7409 5.71199 9.7409 5.97216V6.44433H9.26873C6.91755 6.44433 5 8.35225 5 10.7034V19.2313C5 21.5824 6.91755 23.5 9.26873 23.5H18.7409C21.0921 23.5 23 21.5824 23 19.2313V10.7131C22.9904 8.36188 21.0824 6.44433 18.7313 6.44433ZM9.2591 7.39829H9.73125V8.82441C9.73125 9.08458 9.94325 9.29657 10.2034 9.29657C10.4636 9.29657 10.6756 9.08458 10.6756 8.82441V7.39829H17.3051V8.82441C17.3051 9.08458 17.5171 9.29657 17.7773 9.29657C18.0375 9.29657 18.2495 9.08458 18.2495 8.82441V7.39829H18.7216C20.5525 7.39829 22.0364 8.88223 22.0364 10.7131V11.1852H5.92505V10.7131C5.93468 8.88223 7.42826 7.39829 9.2591 7.39829ZM18.7313 22.5557H9.2591C7.42826 22.5557 5.94432 21.0717 5.94432 19.2409V12.1296H22.0557V19.2409C22.046 21.0621 20.5621 22.5557 18.7313 22.5557ZM18.7313 15.4443C18.7313 15.9647 18.3073 16.3887 17.7869 16.3887C17.2666 16.3887 16.8426 15.9647 16.8426 15.4443C16.8426 14.924 17.2666 14.5 17.7869 14.5C18.3073 14.5 18.7313 14.924 18.7313 15.4443ZM14.9347 15.4443C14.9347 15.9647 14.5107 16.3887 13.9904 16.3887C13.47 16.3887 13.046 15.9647 13.046 15.4443C13.046 14.924 13.47 14.5 13.9904 14.5C14.5107 14.5 14.9347 14.924 14.9347 15.4443ZM11.1477 15.4443C11.1477 15.9647 10.7238 16.3887 10.2034 16.3887C9.68308 16.3887 9.2591 15.9647 9.2591 15.4443C9.2591 14.924 9.68308 14.5 10.2034 14.5C10.7238 14.5 11.1477 14.924 11.1477 15.4443ZM18.7313 19.2409C18.7313 19.7612 18.3073 20.1852 17.7869 20.1852C17.2666 20.1852 16.8426 19.7612 16.8426 19.2409C16.8426 18.7206 17.2666 18.2966 17.7869 18.2966C18.3073 18.2966 18.7313 18.7109 18.7313 19.2409ZM14.9347 19.2409C14.9347 19.7612 14.5107 20.1852 13.9904 20.1852C13.47 20.1852 13.046 19.7612 13.046 19.2409C13.046 18.7206 13.47 18.2966 13.9904 18.2966C14.5107 18.2966 14.9347 18.7109 14.9347 19.2409ZM11.1477 19.2409C11.1477 19.7612 10.7238 20.1852 10.2034 20.1852C9.68308 20.1852 9.2591 19.7612 9.2591 19.2409C9.2591 18.7206 9.68308 18.2966 10.2034 18.2966C10.7238 18.2966 11.1477 18.7109 11.1477 19.2409Z" fill="#FFC200"/>
</svg>
