<svg width="29" height="29" viewBox="0 0 29 29" fill="none" xmlns="http://www.w3.org/2000/svg">
<path d="M21.3501 7.80541L17.1777 5.9553C15.7998 5.34823 14.1617 5.34823 12.7837 5.9553L8.62097 7.80541C6.99249 8.52811 5.98071 9.99277 5.98071 11.6213V17.3547C5.98071 18.9928 6.99249 20.4574 8.62097 21.1801L12.7933 23.0302C13.4775 23.329 14.2195 23.4831 14.9711 23.4831C14.9807 23.4831 14.9807 23.4831 14.9903 23.4831C15 23.4831 15 23.4831 15.0096 23.4831C15.7516 23.4831 16.5032 23.329 17.1874 23.0302L21.3597 21.1801C22.9882 20.4574 24 18.9928 24 17.3547V11.6213C23.9807 9.99277 22.9689 8.52811 21.3501 7.80541ZM13.1691 6.8129C13.7377 6.56237 14.364 6.4371 14.9807 6.4371C15.5974 6.4371 16.2238 6.56237 16.7923 6.8129L20.955 8.66301C21.379 8.85573 21.7452 9.10626 22.0535 9.40498L19.2398 10.6577L11.8876 7.39106L13.1691 6.8129ZM9.00641 8.66301L10.7216 7.90177L18.0835 11.1684L16.2238 11.9971C15.4818 12.3247 14.4989 12.3247 13.7569 11.9971L7.90791 9.40498C8.21626 9.10626 8.58243 8.85573 9.00641 8.66301ZM9.00641 20.3129C7.72482 19.7444 6.93467 18.6073 6.93467 17.3547V11.6213C6.93467 11.1105 7.06958 10.6191 7.32011 10.1759L13.3715 12.8643C13.728 13.0185 14.1135 13.1052 14.5182 13.1534V22.4906C14.046 22.4521 13.5931 22.3557 13.1691 22.163L9.00641 20.3129ZM23.0364 17.3547C23.0364 18.6073 22.2366 19.7444 20.955 20.3129L16.7826 22.163C16.3587 22.3557 15.9058 22.4425 15.4432 22.4906V13.1534C15.8479 13.1052 16.2334 13.0281 16.5899 12.8643L22.6413 10.1759C22.8822 10.6191 23.0268 11.1105 23.0268 11.6213V17.3547H23.0364Z" fill="#FFC200"/>
</svg>
