<svg width="25" height="28" viewBox="0 0 25 28" fill="none" xmlns="http://www.w3.org/2000/svg">
<path d="M12.8886 8.78694C11.0577 8.78694 9.5738 10.2709 9.5738 12.1017C9.5738 13.9325 11.0577 15.4165 12.8886 15.4165C14.7194 15.4165 16.2034 13.9325 16.2034 12.1017C16.213 10.2805 14.7194 8.78694 12.8886 8.78694ZM12.8886 14.4722C11.5877 14.4722 10.5181 13.4122 10.5181 12.1017C10.5181 10.7912 11.5781 9.73126 12.8886 9.73126C14.1991 9.73126 15.259 10.7912 15.259 12.1017C15.259 13.4122 14.1991 14.4722 12.8886 14.4722ZM12.8886 5C8.84147 5 5.78687 8.0546 5.78687 12.1017C5.78687 17.8737 10.2001 21.4775 12.0984 22.7591C12.3393 22.9229 12.6188 23 12.8886 23C13.1584 23 13.4378 22.9229 13.6787 22.7591C15.577 21.4775 19.9999 17.864 19.9999 12.1017C19.9999 8.0546 16.9453 5 12.8886 5ZM13.1487 21.9786C12.9849 22.0846 12.7826 22.0846 12.6284 21.9786C11.2408 21.0439 6.73119 17.5749 6.73119 12.1113C6.73119 8.60385 9.38108 5.95396 12.8886 5.95396C16.4057 5.95396 19.0556 8.60385 19.0556 12.1113C19.0556 17.4111 14.9218 20.7741 13.1487 21.9786Z" fill="#FFC200"/>
</svg>
