<svg width="28" height="29" viewBox="0 0 28 29" fill="none" xmlns="http://www.w3.org/2000/svg">
<path d="M14 5.5C9.03747 5.5 5 9.53747 5 14.5C5 19.4625 9.03747 23.5 14 23.5C18.9625 23.5 23 19.4625 23 14.5C23 9.53747 18.9625 5.5 14 5.5ZM14 22.5557C9.55782 22.5557 5.94433 18.9422 5.94433 14.5C5.94433 10.0578 9.55782 6.44433 14 6.44433C18.4422 6.44433 22.0557 10.0578 22.0557 14.5C22.0557 18.9422 18.4422 22.5557 14 22.5557ZM18.2687 14.5C18.2687 14.7602 18.0567 14.9722 17.7966 14.9722H14C13.7398 14.9722 13.5278 14.7602 13.5278 14.5V9.76874C13.5278 9.50856 13.7398 9.29657 14 9.29657C14.2602 9.29657 14.4722 9.50856 14.4722 9.76874V14.0375H17.7869C18.0567 14.0278 18.2687 14.2398 18.2687 14.5Z" fill="#FFC200"/>
</svg>
