<svg width="25" height="25" viewBox="0 0 25 25" fill="none" xmlns="http://www.w3.org/2000/svg">
<g clip-path="url(#clip0_1435_2765)">
<path d="M23.6839 7.54565C23.4733 6.51256 22.6147 5.82112 21.5353 5.8184C19.534 5.81432 17.5333 5.81704 15.532 5.81704C15.4284 5.81704 15.3241 5.81704 15.1729 5.81704C15.1729 5.6941 15.1729 5.60105 15.1729 5.50732C15.1729 4.50072 15.1756 3.49412 15.1722 2.4882C15.1674 1.11414 14.2781 0.22776 12.8996 0.226401C9.42774 0.223684 5.95655 0.224364 2.48468 0.226401C1.10479 0.22776 0.212118 1.11618 0.211436 2.48616C0.210073 8.9754 0.210755 15.4653 0.212118 21.9552C0.212118 22.1278 0.214162 22.3044 0.247552 22.4728C0.458113 23.5331 1.31739 24.2055 2.46628 24.2069C5.94633 24.2096 9.42706 24.2082 12.9071 24.2062C13.0972 24.2062 13.2928 24.2001 13.4775 24.1593C14.5098 23.9338 15.166 23.0957 15.1708 21.9885C15.1776 20.4358 15.1729 18.8825 15.1729 17.3298C15.1729 17.2286 15.1729 17.1274 15.1729 17.0105C15.316 17.0105 15.4195 17.0105 15.5238 17.0105C17.4986 17.0105 19.474 17.0112 21.4488 17.0105C22.8246 17.0099 23.722 16.1214 23.7234 14.7528C23.7261 12.5318 23.7248 10.3107 23.7227 8.0897C23.7227 7.90767 23.72 7.72225 23.6839 7.54565ZM2.12965 1.31587C2.2639 1.28666 2.40563 1.28802 2.54464 1.28802C5.9729 1.28666 9.40116 1.28666 12.8294 1.28666C13.701 1.28666 14.1078 1.69079 14.1078 2.5568C14.1078 2.65868 14.1078 2.76124 14.1078 2.87943C9.8107 2.87943 5.5586 2.87943 1.30922 2.87943C1.14022 2.07931 1.46594 1.45986 2.12965 1.31587ZM6.08329 14.7236C6.08466 16.1214 6.98278 17.0099 8.38925 17.0099C10.1903 17.0105 11.9913 17.0099 13.7923 17.0099C13.8863 17.0099 13.9804 17.0099 14.0901 17.0099C14.0901 17.6347 14.0901 18.2379 14.0901 18.8607C9.8291 18.8607 5.56405 18.8607 1.28537 18.8607C1.28537 13.8957 1.28537 8.93872 1.28537 3.96481C5.55723 3.96481 9.81547 3.96481 14.0901 3.96481C14.0901 4.57543 14.0901 5.1779 14.0901 5.81704C13.9899 5.81704 13.889 5.81704 13.7882 5.81704C11.9872 5.81704 10.1862 5.81636 8.38516 5.81704C6.98755 5.81772 6.08398 6.717 6.08261 8.11212C6.08193 10.3162 6.08125 12.5202 6.08329 14.7236ZM14.1057 22.034C14.0996 22.6908 13.6471 23.1452 12.9848 23.1459C9.45363 23.1486 5.92248 23.1486 2.39064 23.1459C1.80257 23.1452 1.32625 22.7737 1.29286 22.21C1.24925 21.4689 1.28196 20.7231 1.28196 19.9617C5.55246 19.9617 9.8107 19.9617 14.1064 19.9617C14.1064 20.1777 14.1064 20.3903 14.1064 20.6029C14.1071 21.0804 14.1105 21.5572 14.1057 22.034ZM22.6631 14.7684C22.6624 15.5095 22.2215 15.9503 21.4774 15.951C20.3817 15.9523 19.2853 15.9523 18.1895 15.9523C17.0938 15.9523 15.9974 15.9516 14.9016 15.9516C12.7442 15.9516 10.5868 15.9516 8.42945 15.9516C7.56881 15.9516 7.16063 15.5495 7.16063 14.7012C7.16063 12.4978 7.15995 10.2944 7.16063 8.09106C7.16063 7.30317 7.57358 6.88953 8.36539 6.88885C12.732 6.88817 17.0993 6.88749 21.4658 6.88885C22.2345 6.88885 22.6631 7.31607 22.6631 8.07951C22.6645 10.3101 22.6645 12.5393 22.6631 14.7684Z" fill="#FFC200"/>
<path d="M14.9009 15.9524C15.9966 15.9524 17.0931 15.9524 18.1888 15.9531C17.0931 15.9531 15.9966 15.9524 14.9009 15.9524Z" fill="white"/>
<path d="M14.9016 9.0237C13.5639 9.02845 12.4948 10.0962 12.4995 11.4227C12.5043 12.7458 13.5891 13.8224 14.9131 13.819C16.2467 13.8149 17.3118 12.7445 17.3077 11.4118C17.3036 10.0731 16.2419 9.01894 14.9016 9.0237ZM14.9159 12.7438C14.1568 12.7465 13.5775 12.1732 13.5775 11.4179C13.5769 10.6654 14.1615 10.0819 14.9138 10.0846C15.66 10.0874 16.2515 10.6844 16.2453 11.4281C16.2392 12.1658 15.6579 12.7411 14.9159 12.7438Z" fill="#FFC200"/>
<path d="M9.83039 10.8861C9.5367 10.8827 9.29888 11.1327 9.29956 11.4445C9.30024 11.725 9.52648 11.945 9.82017 11.9498C10.0859 11.9546 10.3353 11.7243 10.3408 11.4696C10.3469 11.1592 10.1118 10.8895 9.83039 10.8861Z" fill="#FFC200"/>
<path d="M19.9974 10.8814C19.6887 10.8787 19.4488 11.1164 19.4529 11.4213C19.4563 11.7059 19.6798 11.9206 19.9735 11.9213C20.2822 11.9219 20.486 11.7413 20.4901 11.4641C20.4942 11.1266 20.289 10.8834 19.9974 10.8814Z" fill="#FFC200"/>
<path d="M7.64963 21.0343C7.36752 21.0329 7.15764 21.2421 7.15968 21.5233C7.16241 21.8358 7.39546 22.0749 7.69392 22.0715C7.96513 22.0681 8.17092 21.8195 8.16615 21.4989C8.16342 21.2286 7.94878 21.0357 7.64963 21.0343Z" fill="#FFC200"/>
</g>
<defs>
<clipPath id="clip0_1435_2765">
<rect width="24" height="24" fill="white" transform="translate(0.210693 0.208374)"/>
</clipPath>
</defs>
</svg>
